<?xml version="1.0" encoding="UTF-8" standalone="no"?>
<!DOCTYPE svg PUBLIC "-//W3C//DTD SVG 1.1//EN"
 "http://www.w3.org/Graphics/SVG/1.1/DTD/svg11.dtd">
<!-- Generated by graphviz version 12.2.1 (20241206.2353)
 -->
<!-- Title: Celeste/AnimationManager.h Pages: 1 -->
<svg width="1962pt" height="680pt"
 viewBox="0.00 0.00 1962.12 680.00" xmlns="http://www.w3.org/2000/svg" xmlns:xlink="http://www.w3.org/1999/xlink">
<g id="graph0" class="graph" transform="scale(1 1) rotate(0) translate(4 676)">
<title>Celeste/AnimationManager.h</title>
<!-- Node1 -->
<g id="Node000001" class="node">
<title>Node1</title>
<g id="a_Node000001"><a xlink:title=" ">
<polygon fill="#999999" stroke="#666666" points="1371.12,-672 1229.12,-672 1229.12,-652 1371.12,-652 1371.12,-672"/>
<text text-anchor="middle" x="1300.12" y="-658.5" font-family="Helvetica,sans-Serif" font-size="10.00">Celeste/AnimationManager.h</text>
</a>
</g>
</g>
<!-- Node2 -->
<g id="Node000002" class="node">
<title>Node2</title>
<g id="a_Node000002"><a xlink:href="_animation_manager_8cpp.html" target="_top" xlink:title=" ">
<polygon fill="white" stroke="#666666" points="1033.38,-610 880.88,-610 880.88,-590 1033.38,-590 1033.38,-610"/>
<text text-anchor="middle" x="957.12" y="-596.5" font-family="Helvetica,sans-Serif" font-size="10.00">Celeste/AnimationManager.cpp</text>
</a>
</g>
</g>
<!-- Node1&#45;&gt;Node2 -->
<g id="edge1_Node000001_Node000002" class="edge">
<title>Node1&#45;&gt;Node2</title>
<g id="a_edge1_Node000001_Node000002"><a xlink:title=" ">
<path fill="none" stroke="#63b8ff" d="M1234.66,-649.62C1182.5,-640.54 1107.63,-627.49 1042.12,-616 1031.94,-614.21 1021.07,-612.3 1010.63,-610.46"/>
<polygon fill="#63b8ff" stroke="#63b8ff" points="1233.82,-653.02 1244.27,-651.29 1235.02,-646.13 1233.82,-653.02"/>
</a>
</g>
</g>
<!-- Node3 -->
<g id="Node000003" class="node">
<title>Node3</title>
<g id="a_Node000003"><a xlink:href="_animation_manager_a_n_d_hair_8h.html" target="_top" xlink:title=" ">
<polygon fill="white" stroke="#666666" points="1185,-616 1051.25,-616 1051.25,-584 1185,-584 1185,-616"/>
<text text-anchor="start" x="1059.25" y="-602.5" font-family="Helvetica,sans-Serif" font-size="10.00">Celeste/AnimationManager</text>
<text text-anchor="middle" x="1118.12" y="-590.5" font-family="Helvetica,sans-Serif" font-size="10.00">ANDHair.h</text>
</a>
</g>
</g>
<!-- Node1&#45;&gt;Node3 -->
<g id="edge2_Node000001_Node000003" class="edge">
<title>Node1&#45;&gt;Node3</title>
<g id="a_edge2_Node000001_Node000003"><a xlink:title=" ">
<path fill="none" stroke="#63b8ff" d="M1261.06,-648.12C1232.95,-638.85 1194.89,-626.31 1165.11,-616.49"/>
<polygon fill="#63b8ff" stroke="#63b8ff" points="1259.66,-651.34 1270.25,-651.15 1261.85,-644.7 1259.66,-651.34"/>
</a>
</g>
</g>
<!-- Node20 -->
<g id="Node000020" class="node">
<title>Node20</title>
<g id="a_Node000020"><a xlink:href="_crumble_block_8cpp.html" target="_top" xlink:title=" ">
<polygon fill="white" stroke="#666666" points="1269.62,-300 1136.62,-300 1136.62,-280 1269.62,-280 1269.62,-300"/>
<text text-anchor="middle" x="1203.12" y="-286.5" font-family="Helvetica,sans-Serif" font-size="10.00">Celeste/CrumbleBlock.cpp</text>
</a>
</g>
</g>
<!-- Node1&#45;&gt;Node20 -->
<g id="edge48_Node000001_Node000020" class="edge">
<title>Node1&#45;&gt;Node20</title>
<g id="a_edge48_Node000001_Node000020"><a xlink:title=" ">
<path fill="none" stroke="#63b8ff" d="M1278.92,-644.28C1253.17,-621.92 1213.12,-579.66 1213.12,-533 1213.12,-533 1213.12,-533 1213.12,-401 1213.12,-363.61 1207.32,-319.36 1204.56,-300.39"/>
<polygon fill="#63b8ff" stroke="#63b8ff" points="1276.58,-646.89 1286.5,-650.61 1281.07,-641.52 1276.58,-646.89"/>
</a>
</g>
</g>
<!-- Node22 -->
<g id="Node000022" class="node">
<title>Node22</title>
<g id="a_Node000022"><a xlink:href="_dash_crystal_8cpp.html" target="_top" xlink:title=" ">
<polygon fill="white" stroke="#666666" points="1452.25,-300 1326,-300 1326,-280 1452.25,-280 1452.25,-300"/>
<text text-anchor="middle" x="1389.12" y="-286.5" font-family="Helvetica,sans-Serif" font-size="10.00">Celeste/DashCrystal.cpp</text>
</a>
</g>
</g>
<!-- Node1&#45;&gt;Node22 -->
<g id="edge49_Node000001_Node000022" class="edge">
<title>Node1&#45;&gt;Node22</title>
<g id="a_edge49_Node000001_Node000022"><a xlink:title=" ">
<path fill="none" stroke="#63b8ff" d="M1321.33,-644.28C1347.08,-621.92 1387.12,-579.66 1387.12,-533 1387.12,-533 1387.12,-533 1387.12,-401 1387.12,-363.75 1388.29,-319.43 1388.84,-300.42"/>
<polygon fill="#63b8ff" stroke="#63b8ff" points="1319.18,-641.52 1313.75,-650.61 1323.67,-646.89 1319.18,-641.52"/>
</a>
</g>
</g>
<!-- Node30 -->
<g id="Node000030" class="node">
<title>Node30</title>
<g id="a_Node000030"><a xlink:href="_strawberry_8h.html" target="_top" xlink:title=" ">
<polygon fill="white" stroke="#666666" points="1709.88,-356 1602.38,-356 1602.38,-336 1709.88,-336 1709.88,-356"/>
<text text-anchor="middle" x="1656.12" y="-342.5" font-family="Helvetica,sans-Serif" font-size="10.00">Celeste/Strawberry.h</text>
</a>
</g>
</g>
<!-- Node1&#45;&gt;Node30 -->
<g id="edge50_Node000001_Node000030" class="edge">
<title>Node1&#45;&gt;Node30</title>
<g id="a_edge50_Node000001_Node000030"><a xlink:title=" ">
<path fill="none" stroke="#63b8ff" d="M1382.43,-655.42C1453.16,-649.27 1548.61,-637.28 1580.12,-616 1615.81,-591.9 1630.12,-576.07 1630.12,-533 1630.12,-533 1630.12,-533 1630.12,-463 1630.12,-422.55 1645.37,-376.04 1652.51,-356.46"/>
<polygon fill="#63b8ff" stroke="#63b8ff" points="1382.48,-651.91 1372.81,-656.24 1383.06,-658.88 1382.48,-651.91"/>
</a>
</g>
</g>
<!-- Node35 -->
<g id="Node000035" class="node">
<title>Node35</title>
<g id="a_Node000035"><a xlink:href="_trampoline_8cpp.html" target="_top" xlink:title=" ">
<polygon fill="white" stroke="#666666" points="1627.88,-300 1508.38,-300 1508.38,-280 1627.88,-280 1627.88,-300"/>
<text text-anchor="middle" x="1568.12" y="-286.5" font-family="Helvetica,sans-Serif" font-size="10.00">Celeste/Trampoline.cpp</text>
</a>
</g>
</g>
<!-- Node1&#45;&gt;Node35 -->
<g id="edge51_Node000001_Node000035" class="edge">
<title>Node1&#45;&gt;Node35</title>
<g id="a_edge51_Node000001_Node000035"><a xlink:title=" ">
<path fill="none" stroke="#63b8ff" d="M1382.72,-655.3C1460.81,-644.89 1566.12,-615.55 1566.12,-533 1566.12,-533 1566.12,-533 1566.12,-401 1566.12,-363.75 1567.29,-319.43 1567.84,-300.42"/>
<polygon fill="#63b8ff" stroke="#63b8ff" points="1382.4,-651.82 1372.91,-656.52 1383.26,-658.76 1382.4,-651.82"/>
</a>
</g>
</g>
<!-- Node4 -->
<g id="Node000004" class="node">
<title>Node4</title>
<g id="a_Node000004"><a xlink:href="_character_texture_manager_8h.html" target="_top" xlink:title=" ">
<polygon fill="white" stroke="#666666" points="780,-548 652.25,-548 652.25,-516 780,-516 780,-548"/>
<text text-anchor="start" x="660.25" y="-534.5" font-family="Helvetica,sans-Serif" font-size="10.00">Celeste/CharacterTexture</text>
<text text-anchor="middle" x="716.12" y="-522.5" font-family="Helvetica,sans-Serif" font-size="10.00">Manager.h</text>
</a>
</g>
</g>
<!-- Node3&#45;&gt;Node4 -->
<g id="edge3_Node000003_Node000004" class="edge">
<title>Node3&#45;&gt;Node4</title>
<g id="a_edge3_Node000003_Node000004"><a xlink:title=" ">
<path fill="none" stroke="#63b8ff" d="M1039.91,-583.65C943.68,-566.79 843.66,-551.6 780.27,-542.27"/>
<polygon fill="#63b8ff" stroke="#63b8ff" points="1039.07,-587.05 1049.52,-585.34 1040.28,-580.16 1039.07,-587.05"/>
</a>
</g>
</g>
<!-- Node5 -->
<g id="Node000005" class="node">
<title>Node5</title>
<g id="a_Node000005"><a xlink:href="_character_8h.html" target="_top" xlink:title=" ">
<polygon fill="white" stroke="#666666" points="232,-474 128.25,-474 128.25,-454 232,-454 232,-474"/>
<text text-anchor="middle" x="180.12" y="-460.5" font-family="Helvetica,sans-Serif" font-size="10.00">Celeste/Character.h</text>
</a>
</g>
</g>
<!-- Node4&#45;&gt;Node5 -->
<g id="edge4_Node000004_Node000005" class="edge">
<title>Node4&#45;&gt;Node5</title>
<g id="a_edge4_Node000004_Node000005"><a xlink:title=" ">
<path fill="none" stroke="#63b8ff" d="M640.64,-521.71C530.27,-508.11 327.63,-483.16 232.31,-471.43"/>
<polygon fill="#63b8ff" stroke="#63b8ff" points="640.15,-525.17 650.5,-522.92 641,-518.22 640.15,-525.17"/>
</a>
</g>
</g>
<!-- Node36 -->
<g id="Node000036" class="node">
<title>Node36</title>
<g id="a_Node000036"><a xlink:href="_character_texture_manager_8cpp.html" target="_top" xlink:title=" ">
<polygon fill="white" stroke="#666666" points="780,-480 652.25,-480 652.25,-448 780,-448 780,-480"/>
<text text-anchor="start" x="660.25" y="-466.5" font-family="Helvetica,sans-Serif" font-size="10.00">Celeste/CharacterTexture</text>
<text text-anchor="middle" x="716.12" y="-454.5" font-family="Helvetica,sans-Serif" font-size="10.00">Manager.cpp</text>
</a>
</g>
</g>
<!-- Node4&#45;&gt;Node36 -->
<g id="edge47_Node000004_Node000036" class="edge">
<title>Node4&#45;&gt;Node36</title>
<g id="a_edge47_Node000004_Node000036"><a xlink:title=" ">
<path fill="none" stroke="#63b8ff" d="M716.12,-504.31C716.12,-496.12 716.12,-487.38 716.12,-480.22"/>
<polygon fill="#63b8ff" stroke="#63b8ff" points="712.63,-504.18 716.13,-514.18 719.63,-504.18 712.63,-504.18"/>
</a>
</g>
</g>
<!-- Node6 -->
<g id="Node000006" class="node">
<title>Node6</title>
<g id="a_Node000006"><a xlink:href="_character_8cpp.html" target="_top" xlink:title=" ">
<polygon fill="white" stroke="#666666" points="114.25,-412 0,-412 0,-392 114.25,-392 114.25,-412"/>
<text text-anchor="middle" x="57.12" y="-398.5" font-family="Helvetica,sans-Serif" font-size="10.00">Celeste/Character.cpp</text>
</a>
</g>
</g>
<!-- Node5&#45;&gt;Node6 -->
<g id="edge5_Node000005_Node000006" class="edge">
<title>Node5&#45;&gt;Node6</title>
<g id="a_edge5_Node000005_Node000006"><a xlink:title=" ">
<path fill="none" stroke="#63b8ff" d="M150.64,-448.62C127.55,-437.35 96.11,-422.01 76.21,-412.31"/>
<polygon fill="#63b8ff" stroke="#63b8ff" points="149.02,-451.72 159.55,-452.96 152.09,-445.43 149.02,-451.72"/>
</a>
</g>
</g>
<!-- Node7 -->
<g id="Node000007" class="node">
<title>Node7</title>
<g id="a_Node000007"><a xlink:href="_game_8h.html" target="_top" xlink:title=" ">
<polygon fill="white" stroke="#666666" points="185.75,-76 98.5,-76 98.5,-56 185.75,-56 185.75,-76"/>
<text text-anchor="middle" x="142.12" y="-62.5" font-family="Helvetica,sans-Serif" font-size="10.00">Celeste/Game.h</text>
</a>
</g>
</g>
<!-- Node5&#45;&gt;Node7 -->
<g id="edge6_Node000005_Node000007" class="edge">
<title>Node5&#45;&gt;Node7</title>
<g id="a_edge6_Node000005_Node000007"><a xlink:title=" ">
<path fill="none" stroke="#63b8ff" d="M169.68,-443.79C158.43,-421.28 142.12,-382.53 142.12,-347 142.12,-347 142.12,-347 142.12,-177 142.12,-139.76 142.12,-95.43 142.12,-76.42"/>
<polygon fill="#63b8ff" stroke="#63b8ff" points="166.42,-445.12 174.14,-452.37 172.63,-441.89 166.42,-445.12"/>
</a>
</g>
</g>
<!-- Node10 -->
<g id="Node000010" class="node">
<title>Node10</title>
<g id="a_Node000010"><a xlink:href="_interactable_item_8h.html" target="_top" xlink:title=" ">
<polygon fill="white" stroke="#666666" points="837.88,-412 706.38,-412 706.38,-392 837.88,-392 837.88,-412"/>
<text text-anchor="middle" x="772.12" y="-398.5" font-family="Helvetica,sans-Serif" font-size="10.00">Celeste/InteractableItem.h</text>
</a>
</g>
</g>
<!-- Node5&#45;&gt;Node10 -->
<g id="edge9_Node000005_Node000010" class="edge">
<title>Node5&#45;&gt;Node10</title>
<g id="a_edge9_Node000005_Node000010"><a xlink:title=" ">
<path fill="none" stroke="#63b8ff" d="M243.6,-456.57C356.62,-445.11 591.59,-421.3 706.29,-409.67"/>
<polygon fill="#63b8ff" stroke="#63b8ff" points="243.5,-453.06 233.91,-457.55 244.21,-460.02 243.5,-453.06"/>
</a>
</g>
</g>
<!-- Node14 -->
<g id="Node000014" class="node">
<title>Node14</title>
<g id="a_Node000014"><a xlink:href="_level_manager_8h.html" target="_top" xlink:title=" ">
<polygon fill="white" stroke="#666666" points="292,-132 170.25,-132 170.25,-112 292,-112 292,-132"/>
<text text-anchor="middle" x="231.12" y="-118.5" font-family="Helvetica,sans-Serif" font-size="10.00">Celeste/LevelManager.h</text>
</a>
</g>
</g>
<!-- Node5&#45;&gt;Node14 -->
<g id="edge46_Node000005_Node000014" class="edge">
<title>Node5&#45;&gt;Node14</title>
<g id="a_edge46_Node000005_Node000014"><a xlink:title=" ">
<path fill="none" stroke="#63b8ff" d="M180.12,-442.23C180.12,-419.02 180.12,-380.32 180.12,-347 180.12,-347 180.12,-347 180.12,-233 180.12,-192.37 209.11,-150.48 223.38,-132.33"/>
<polygon fill="#63b8ff" stroke="#63b8ff" points="176.63,-442.16 180.13,-452.16 183.63,-442.16 176.63,-442.16"/>
</a>
</g>
</g>
<!-- Node8 -->
<g id="Node000008" class="node">
<title>Node8</title>
<g id="a_Node000008"><a xlink:href="_game_8cpp.html" target="_top" xlink:title=" ">
<polygon fill="white" stroke="#666666" points="135,-20 37.25,-20 37.25,0 135,0 135,-20"/>
<text text-anchor="middle" x="86.12" y="-6.5" font-family="Helvetica,sans-Serif" font-size="10.00">Celeste/Game.cpp</text>
</a>
</g>
</g>
<!-- Node7&#45;&gt;Node8 -->
<g id="edge7_Node000007_Node000008" class="edge">
<title>Node7&#45;&gt;Node8</title>
<g id="a_edge7_Node000007_Node000008"><a xlink:title=" ">
<path fill="none" stroke="#63b8ff" d="M124.34,-47.85C114.87,-38.72 103.6,-27.86 95.77,-20.3"/>
<polygon fill="#63b8ff" stroke="#63b8ff" points="121.65,-50.12 131.28,-54.54 126.51,-45.08 121.65,-50.12"/>
</a>
</g>
</g>
<!-- Node9 -->
<g id="Node000009" class="node">
<title>Node9</title>
<g id="a_Node000009"><a xlink:href="main_8cpp.html" target="_top" xlink:title=" ">
<polygon fill="white" stroke="#666666" points="245.38,-20 152.88,-20 152.88,0 245.38,0 245.38,-20"/>
<text text-anchor="middle" x="199.12" y="-6.5" font-family="Helvetica,sans-Serif" font-size="10.00">Celeste/main.cpp</text>
</a>
</g>
</g>
<!-- Node7&#45;&gt;Node9 -->
<g id="edge8_Node000007_Node000009" class="edge">
<title>Node7&#45;&gt;Node9</title>
<g id="a_edge8_Node000007_Node000009"><a xlink:title=" ">
<path fill="none" stroke="#63b8ff" d="M160.23,-47.85C169.86,-38.72 181.33,-27.86 189.31,-20.3"/>
<polygon fill="#63b8ff" stroke="#63b8ff" points="158,-45.13 153.15,-54.55 162.82,-50.22 158,-45.13"/>
</a>
</g>
</g>
<!-- Node11 -->
<g id="Node000011" class="node">
<title>Node11</title>
<g id="a_Node000011"><a xlink:href="_chapter_info_8h.html" target="_top" xlink:title=" ">
<polygon fill="white" stroke="#666666" points="1126.12,-244 1014.12,-244 1014.12,-224 1126.12,-224 1126.12,-244"/>
<text text-anchor="middle" x="1070.12" y="-230.5" font-family="Helvetica,sans-Serif" font-size="10.00">Celeste/ChapterInfo.h</text>
</a>
</g>
</g>
<!-- Node10&#45;&gt;Node11 -->
<g id="edge10_Node000010_Node000011" class="edge">
<title>Node10&#45;&gt;Node11</title>
<g id="a_edge10_Node000010_Node000011"><a xlink:title=" ">
<path fill="none" stroke="#63b8ff" d="M763.42,-381.14C760.48,-373.45 757.59,-364.46 756.12,-356 750.01,-320.53 755.07,-301.25 784.12,-280 819.72,-253.96 940.93,-242.47 1013.63,-237.83"/>
<polygon fill="#63b8ff" stroke="#63b8ff" points="760.1,-382.28 767.14,-390.2 766.58,-379.62 760.1,-382.28"/>
</a>
</g>
</g>
<!-- Node12 -->
<g id="Node000012" class="node">
<title>Node12</title>
<g id="a_Node000012"><a xlink:href="_chapter_loader_8h.html" target="_top" xlink:title=" ">
<polygon fill="white" stroke="#666666" points="440.5,-188 315.75,-188 315.75,-168 440.5,-168 440.5,-188"/>
<text text-anchor="middle" x="378.12" y="-174.5" font-family="Helvetica,sans-Serif" font-size="10.00">Celeste/ChapterLoader.h</text>
</a>
</g>
</g>
<!-- Node10&#45;&gt;Node12 -->
<g id="edge17_Node000010_Node000012" class="edge">
<title>Node10&#45;&gt;Node12</title>
<g id="a_edge17_Node000010_Node000012"><a xlink:title=" ">
<path fill="none" stroke="#63b8ff" d="M694.57,-401.02C603.15,-399.39 458.66,-391.12 419.12,-356 368.66,-311.17 373.92,-217.6 377,-188.11"/>
<polygon fill="#63b8ff" stroke="#63b8ff" points="694.43,-404.52 704.48,-401.17 694.53,-397.52 694.43,-404.52"/>
</a>
</g>
</g>
<!-- Node17 -->
<g id="Node000017" class="node">
<title>Node17</title>
<g id="a_Node000017"><a xlink:href="_cog_platform_8h.html" target="_top" xlink:title=" ">
<polygon fill="white" stroke="#666666" points="1033,-356 917.25,-356 917.25,-336 1033,-336 1033,-356"/>
<text text-anchor="middle" x="975.12" y="-342.5" font-family="Helvetica,sans-Serif" font-size="10.00">Celeste/CogPlatform.h</text>
</a>
</g>
</g>
<!-- Node10&#45;&gt;Node17 -->
<g id="edge18_Node000010_Node000017" class="edge">
<title>Node10&#45;&gt;Node17</title>
<g id="a_edge18_Node000010_Node000017"><a xlink:title=" ">
<path fill="none" stroke="#63b8ff" d="M818.41,-388.69C855.18,-378.91 905.84,-365.43 939.49,-356.48"/>
<polygon fill="#63b8ff" stroke="#63b8ff" points="817.71,-385.25 808.95,-391.2 819.51,-392.02 817.71,-385.25"/>
</a>
</g>
</g>
<!-- Node19 -->
<g id="Node000019" class="node">
<title>Node19</title>
<g id="a_Node000019"><a xlink:href="_crumble_block_8h.html" target="_top" xlink:title=" ">
<polygon fill="white" stroke="#666666" points="1173.38,-356 1050.88,-356 1050.88,-336 1173.38,-336 1173.38,-356"/>
<text text-anchor="middle" x="1112.12" y="-342.5" font-family="Helvetica,sans-Serif" font-size="10.00">Celeste/CrumbleBlock.h</text>
</a>
</g>
</g>
<!-- Node10&#45;&gt;Node19 -->
<g id="edge21_Node000010_Node000019" class="edge">
<title>Node10&#45;&gt;Node19</title>
<g id="a_edge21_Node000010_Node000019"><a xlink:title=" ">
<path fill="none" stroke="#63b8ff" d="M842.99,-389.74C905.04,-379.89 994.16,-365.74 1052.58,-356.46"/>
<polygon fill="#63b8ff" stroke="#63b8ff" points="842.56,-386.27 833.23,-391.29 843.66,-393.18 842.56,-386.27"/>
</a>
</g>
</g>
<!-- Node21 -->
<g id="Node000021" class="node">
<title>Node21</title>
<g id="a_Node000021"><a xlink:href="_dash_crystal_8h.html" target="_top" xlink:title=" ">
<polygon fill="white" stroke="#666666" points="1357,-356 1241.25,-356 1241.25,-336 1357,-336 1357,-356"/>
<text text-anchor="middle" x="1299.12" y="-342.5" font-family="Helvetica,sans-Serif" font-size="10.00">Celeste/DashCrystal.h</text>
</a>
</g>
</g>
<!-- Node10&#45;&gt;Node21 -->
<g id="edge24_Node000010_Node000021" class="edge">
<title>Node10&#45;&gt;Node21</title>
<g id="a_edge24_Node000010_Node000021"><a xlink:title=" ">
<path fill="none" stroke="#63b8ff" d="M849.65,-393.06C956.2,-382.14 1145.54,-362.74 1240.86,-352.97"/>
<polygon fill="#63b8ff" stroke="#63b8ff" points="849.43,-389.56 839.84,-394.06 850.15,-396.52 849.43,-389.56"/>
</a>
</g>
</g>
<!-- Node23 -->
<g id="Node000023" class="node">
<title>Node23</title>
<g id="a_Node000023"><a xlink:href="_interactable_item_8cpp.html" target="_top" xlink:title=" ">
<polygon fill="white" stroke="#666666" points="350.12,-356 208.12,-356 208.12,-336 350.12,-336 350.12,-356"/>
<text text-anchor="middle" x="279.12" y="-342.5" font-family="Helvetica,sans-Serif" font-size="10.00">Celeste/InteractableItem.cpp</text>
</a>
</g>
</g>
<!-- Node10&#45;&gt;Node23 -->
<g id="edge27_Node000010_Node000023" class="edge">
<title>Node10&#45;&gt;Node23</title>
<g id="a_edge27_Node000010_Node000023"><a xlink:title=" ">
<path fill="none" stroke="#63b8ff" d="M694.71,-392.52C600.36,-382.19 442.21,-364.86 350.62,-354.83"/>
<polygon fill="#63b8ff" stroke="#63b8ff" points="694.07,-395.97 704.39,-393.58 694.83,-389.01 694.07,-395.97"/>
</a>
</g>
</g>
<!-- Node24 -->
<g id="Node000024" class="node">
<title>Node24</title>
<g id="a_Node000024"><a xlink:href="_level_8h.html" target="_top" xlink:title=" ">
<polygon fill="white" stroke="#666666" points="849.25,-356 765,-356 765,-336 849.25,-336 849.25,-356"/>
<text text-anchor="middle" x="807.12" y="-342.5" font-family="Helvetica,sans-Serif" font-size="10.00">Celeste/Level.h</text>
</a>
</g>
</g>
<!-- Node10&#45;&gt;Node24 -->
<g id="edge28_Node000010_Node000024" class="edge">
<title>Node10&#45;&gt;Node24</title>
<g id="a_edge28_Node000010_Node000024"><a xlink:title=" ">
<path fill="none" stroke="#63b8ff" d="M784.34,-382.15C790.01,-373.4 796.5,-363.39 801.1,-356.3"/>
<polygon fill="#63b8ff" stroke="#63b8ff" points="781.55,-380.03 779.04,-390.32 787.42,-383.84 781.55,-380.03"/>
</a>
</g>
</g>
<!-- Node26 -->
<g id="Node000026" class="node">
<title>Node26</title>
<g id="a_Node000026"><a xlink:href="_respawn_zone_8h.html" target="_top" xlink:title=" ">
<polygon fill="white" stroke="#666666" points="709.12,-356 585.12,-356 585.12,-336 709.12,-336 709.12,-356"/>
<text text-anchor="middle" x="647.12" y="-342.5" font-family="Helvetica,sans-Serif" font-size="10.00">Celeste/RespawnZone.h</text>
</a>
</g>
</g>
<!-- Node10&#45;&gt;Node26 -->
<g id="edge31_Node000010_Node000026" class="edge">
<title>Node10&#45;&gt;Node26</title>
<g id="a_edge31_Node000010_Node000026"><a xlink:title=" ">
<path fill="none" stroke="#63b8ff" d="M740.04,-387.14C717.78,-377.52 688.72,-364.97 669.07,-356.48"/>
<polygon fill="#63b8ff" stroke="#63b8ff" points="738.39,-390.24 748.96,-390.99 741.17,-383.81 738.39,-390.24"/>
</a>
</g>
</g>
<!-- Node28 -->
<g id="Node000028" class="node">
<title>Node28</title>
<g id="a_Node000028"><a xlink:href="_spike_8h.html" target="_top" xlink:title=" ">
<polygon fill="white" stroke="#666666" points="514,-356 428.25,-356 428.25,-336 514,-336 514,-356"/>
<text text-anchor="middle" x="471.12" y="-342.5" font-family="Helvetica,sans-Serif" font-size="10.00">Celeste/Spike.h</text>
</a>
</g>
</g>
<!-- Node10&#45;&gt;Node28 -->
<g id="edge34_Node000010_Node000028" class="edge">
<title>Node10&#45;&gt;Node28</title>
<g id="a_edge34_Node000010_Node000028"><a xlink:title=" ">
<path fill="none" stroke="#63b8ff" d="M708.03,-389.5C649.56,-379.01 564.78,-363.8 514.09,-354.71"/>
<polygon fill="#63b8ff" stroke="#63b8ff" points="707.4,-392.94 717.86,-391.26 708.64,-386.05 707.4,-392.94"/>
</a>
</g>
</g>
<!-- Node10&#45;&gt;Node30 -->
<g id="edge37_Node000010_Node000030" class="edge">
<title>Node10&#45;&gt;Node30</title>
<g id="a_edge37_Node000010_Node000030"><a xlink:title=" ">
<path fill="none" stroke="#63b8ff" d="M849.59,-397.05C988.72,-389.83 1290.1,-373.61 1544.12,-356 1563,-354.69 1583.65,-353.08 1602.02,-351.59"/>
<polygon fill="#63b8ff" stroke="#63b8ff" points="849.56,-393.55 839.76,-397.56 849.93,-400.54 849.56,-393.55"/>
</a>
</g>
</g>
<!-- Node34 -->
<g id="Node000034" class="node">
<title>Node34</title>
<g id="a_Node000034"><a xlink:href="_trampoline_8h.html" target="_top" xlink:title=" ">
<polygon fill="white" stroke="#666666" points="1534.62,-356 1425.62,-356 1425.62,-336 1534.62,-336 1534.62,-356"/>
<text text-anchor="middle" x="1480.12" y="-342.5" font-family="Helvetica,sans-Serif" font-size="10.00">Celeste/Trampoline.h</text>
</a>
</g>
</g>
<!-- Node10&#45;&gt;Node34 -->
<g id="edge43_Node000010_Node000034" class="edge">
<title>Node10&#45;&gt;Node34</title>
<g id="a_edge43_Node000010_Node000034"><a xlink:title=" ">
<path fill="none" stroke="#63b8ff" d="M849.36,-395.23C962.69,-386.74 1180.7,-370.34 1366.12,-356 1385.42,-354.51 1406.56,-352.85 1425.33,-351.36"/>
<polygon fill="#63b8ff" stroke="#63b8ff" points="849.27,-391.72 839.56,-395.96 849.8,-398.7 849.27,-391.72"/>
</a>
</g>
</g>
<!-- Node11&#45;&gt;Node12 -->
<g id="edge11_Node000011_Node000012" class="edge">
<title>Node11&#45;&gt;Node12</title>
<g id="a_edge11_Node000011_Node000012"><a xlink:title=" ">
<path fill="none" stroke="#63b8ff" d="M1002.49,-227.72C868.43,-217.26 570.74,-194.03 440.81,-183.89"/>
<polygon fill="#63b8ff" stroke="#63b8ff" points="1002.04,-231.2 1012.28,-228.49 1002.58,-224.22 1002.04,-231.2"/>
</a>
</g>
</g>
<!-- Node13 -->
<g id="Node000013" class="node">
<title>Node13</title>
<g id="a_Node000013"><a xlink:href="_chapter_loader_8cpp.html" target="_top" xlink:title=" ">
<polygon fill="white" stroke="#666666" points="445.75,-132 310.5,-132 310.5,-112 445.75,-112 445.75,-132"/>
<text text-anchor="middle" x="378.12" y="-118.5" font-family="Helvetica,sans-Serif" font-size="10.00">Celeste/ChapterLoader.cpp</text>
</a>
</g>
</g>
<!-- Node12&#45;&gt;Node13 -->
<g id="edge12_Node000012_Node000013" class="edge">
<title>Node12&#45;&gt;Node13</title>
<g id="a_edge12_Node000012_Node000013"><a xlink:title=" ">
<path fill="none" stroke="#63b8ff" d="M378.12,-156.13C378.12,-147.9 378.12,-138.85 378.12,-132.3"/>
<polygon fill="#63b8ff" stroke="#63b8ff" points="374.63,-156.08 378.13,-166.08 381.63,-156.08 374.63,-156.08"/>
</a>
</g>
</g>
<!-- Node12&#45;&gt;Node14 -->
<g id="edge13_Node000012_Node000014" class="edge">
<title>Node12&#45;&gt;Node14</title>
<g id="a_edge13_Node000012_Node000014"><a xlink:title=" ">
<path fill="none" stroke="#63b8ff" d="M341.82,-163.66C315.47,-153.98 280.46,-141.12 256.93,-132.48"/>
<polygon fill="#63b8ff" stroke="#63b8ff" points="340.51,-166.91 351.1,-167.07 342.92,-160.34 340.51,-166.91"/>
</a>
</g>
</g>
<!-- Node16 -->
<g id="Node000016" class="node">
<title>Node16</title>
<g id="a_Node000016"><a xlink:href="_pause_menu_8cpp.html" target="_top" xlink:title=" ">
<polygon fill="white" stroke="#666666" points="586.75,-132 463.5,-132 463.5,-112 586.75,-112 586.75,-132"/>
<text text-anchor="middle" x="525.12" y="-118.5" font-family="Helvetica,sans-Serif" font-size="10.00">Celeste/PauseMenu.cpp</text>
</a>
</g>
</g>
<!-- Node12&#45;&gt;Node16 -->
<g id="edge16_Node000012_Node000016" class="edge">
<title>Node12&#45;&gt;Node16</title>
<g id="a_edge16_Node000012_Node000016"><a xlink:title=" ">
<path fill="none" stroke="#63b8ff" d="M414.43,-163.66C440.78,-153.98 475.79,-141.12 499.32,-132.48"/>
<polygon fill="#63b8ff" stroke="#63b8ff" points="413.33,-160.34 405.15,-167.07 415.74,-166.91 413.33,-160.34"/>
</a>
</g>
</g>
<!-- Node14&#45;&gt;Node7 -->
<g id="edge14_Node000014_Node000007" class="edge">
<title>Node14&#45;&gt;Node7</title>
<g id="a_edge14_Node000014_Node000007"><a xlink:title=" ">
<path fill="none" stroke="#63b8ff" d="M206.09,-105.81C190.57,-96.39 171.1,-84.58 157.75,-76.48"/>
<polygon fill="#63b8ff" stroke="#63b8ff" points="203.96,-108.61 214.33,-110.81 207.59,-102.63 203.96,-108.61"/>
</a>
</g>
</g>
<!-- Node15 -->
<g id="Node000015" class="node">
<title>Node15</title>
<g id="a_Node000015"><a xlink:href="_level_manager_8cpp.html" target="_top" xlink:title=" ">
<polygon fill="white" stroke="#666666" points="336.25,-76 204,-76 204,-56 336.25,-56 336.25,-76"/>
<text text-anchor="middle" x="270.12" y="-62.5" font-family="Helvetica,sans-Serif" font-size="10.00">Celeste/LevelManager.cpp</text>
</a>
</g>
</g>
<!-- Node14&#45;&gt;Node15 -->
<g id="edge15_Node000014_Node000015" class="edge">
<title>Node14&#45;&gt;Node15</title>
<g id="a_edge15_Node000014_Node000015"><a xlink:title=" ">
<path fill="none" stroke="#63b8ff" d="M244.53,-102.44C250.9,-93.62 258.23,-83.47 263.41,-76.3"/>
<polygon fill="#63b8ff" stroke="#63b8ff" points="241.82,-100.21 238.8,-110.37 247.5,-104.31 241.82,-100.21"/>
</a>
</g>
</g>
<!-- Node17&#45;&gt;Node11 -->
<g id="edge19_Node000017_Node000011" class="edge">
<title>Node17&#45;&gt;Node11</title>
<g id="a_edge19_Node000017_Node000011"><a xlink:title=" ">
<path fill="none" stroke="#63b8ff" d="M1010.9,-330.83C1025.22,-323.55 1040.76,-313.35 1051.12,-300 1064.1,-283.29 1068.23,-257.94 1069.53,-244.37"/>
<polygon fill="#63b8ff" stroke="#63b8ff" points="1009.68,-327.54 1002.14,-334.98 1012.68,-333.86 1009.68,-327.54"/>
</a>
</g>
</g>
<!-- Node18 -->
<g id="Node000018" class="node">
<title>Node18</title>
<g id="a_Node000018"><a xlink:href="_cog_platform_8cpp.html" target="_top" xlink:title=" ">
<polygon fill="white" stroke="#666666" points="1042.25,-300 916,-300 916,-280 1042.25,-280 1042.25,-300"/>
<text text-anchor="middle" x="979.12" y="-286.5" font-family="Helvetica,sans-Serif" font-size="10.00">Celeste/CogPlatform.cpp</text>
</a>
</g>
</g>
<!-- Node17&#45;&gt;Node18 -->
<g id="edge20_Node000017_Node000018" class="edge">
<title>Node17&#45;&gt;Node18</title>
<g id="a_edge20_Node000017_Node000018"><a xlink:title=" ">
<path fill="none" stroke="#63b8ff" d="M976.67,-324.13C977.28,-315.9 977.95,-306.85 978.44,-300.3"/>
<polygon fill="#63b8ff" stroke="#63b8ff" points="973.18,-323.85 975.93,-334.08 980.16,-324.37 973.18,-323.85"/>
</a>
</g>
</g>
<!-- Node19&#45;&gt;Node11 -->
<g id="edge22_Node000019_Node000011" class="edge">
<title>Node19&#45;&gt;Node11</title>
<g id="a_edge22_Node000019_Node000011"><a xlink:title=" ">
<path fill="none" stroke="#63b8ff" d="M1104.48,-324.97C1095.35,-301.07 1080.48,-262.11 1073.7,-244.35"/>
<polygon fill="#63b8ff" stroke="#63b8ff" points="1101.17,-326.11 1108,-334.21 1107.71,-323.62 1101.17,-326.11"/>
</a>
</g>
</g>
<!-- Node19&#45;&gt;Node20 -->
<g id="edge23_Node000019_Node000020" class="edge">
<title>Node19&#45;&gt;Node20</title>
<g id="a_edge23_Node000019_Node000020"><a xlink:title=" ">
<path fill="none" stroke="#63b8ff" d="M1137.72,-329.81C1153.59,-320.39 1173.49,-308.58 1187.15,-300.48"/>
<polygon fill="#63b8ff" stroke="#63b8ff" points="1136.09,-326.71 1129.28,-334.82 1139.66,-332.73 1136.09,-326.71"/>
</a>
</g>
</g>
<!-- Node21&#45;&gt;Node11 -->
<g id="edge25_Node000021_Node000011" class="edge">
<title>Node21&#45;&gt;Node11</title>
<g id="a_edge25_Node000021_Node000011"><a xlink:title=" ">
<path fill="none" stroke="#63b8ff" d="M1297.78,-324.63C1295.73,-310.15 1290.64,-291.33 1278.12,-280 1256.18,-260.13 1180.2,-247.51 1126.44,-240.84"/>
<polygon fill="#63b8ff" stroke="#63b8ff" points="1294.28,-324.84 1298.76,-334.44 1301.25,-324.14 1294.28,-324.84"/>
</a>
</g>
</g>
<!-- Node21&#45;&gt;Node22 -->
<g id="edge26_Node000021_Node000022" class="edge">
<title>Node21&#45;&gt;Node22</title>
<g id="a_edge26_Node000021_Node000022"><a xlink:title=" ">
<path fill="none" stroke="#63b8ff" d="M1324.44,-329.81C1340.14,-320.39 1359.82,-308.58 1373.33,-300.48"/>
<polygon fill="#63b8ff" stroke="#63b8ff" points="1322.87,-326.67 1316.1,-334.82 1326.48,-332.67 1322.87,-326.67"/>
</a>
</g>
</g>
<!-- Node24&#45;&gt;Node11 -->
<g id="edge29_Node000024_Node000011" class="edge">
<title>Node24&#45;&gt;Node11</title>
<g id="a_edge29_Node000024_Node000011"><a xlink:title=" ">
<path fill="none" stroke="#63b8ff" d="M795.82,-326.12C788.93,-311.89 783.31,-292.72 794.12,-280 821.76,-247.5 941.53,-238.41 1013.91,-235.91"/>
<polygon fill="#63b8ff" stroke="#63b8ff" points="792.53,-327.39 800.37,-334.52 798.69,-324.06 792.53,-327.39"/>
</a>
</g>
</g>
<!-- Node25 -->
<g id="Node000025" class="node">
<title>Node25</title>
<g id="a_Node000025"><a xlink:href="_level_8cpp.html" target="_top" xlink:title=" ">
<polygon fill="white" stroke="#666666" points="897.5,-300 802.75,-300 802.75,-280 897.5,-280 897.5,-300"/>
<text text-anchor="middle" x="850.12" y="-286.5" font-family="Helvetica,sans-Serif" font-size="10.00">Celeste/Level.cpp</text>
</a>
</g>
</g>
<!-- Node24&#45;&gt;Node25 -->
<g id="edge30_Node000024_Node000025" class="edge">
<title>Node24&#45;&gt;Node25</title>
<g id="a_edge30_Node000024_Node000025"><a xlink:title=" ">
<path fill="none" stroke="#63b8ff" d="M821.68,-326.72C828.75,-317.84 836.95,-307.55 842.72,-300.3"/>
<polygon fill="#63b8ff" stroke="#63b8ff" points="819.05,-324.41 815.56,-334.41 824.53,-328.77 819.05,-324.41"/>
</a>
</g>
</g>
<!-- Node26&#45;&gt;Node11 -->
<g id="edge32_Node000026_Node000011" class="edge">
<title>Node26&#45;&gt;Node11</title>
<g id="a_edge32_Node000026_Node000011"><a xlink:title=" ">
<path fill="none" stroke="#63b8ff" d="M662.12,-327.38C676.21,-312.12 698.72,-290.85 723.12,-280 773.92,-257.42 929.41,-244.13 1013.96,-238.38"/>
<polygon fill="#63b8ff" stroke="#63b8ff" points="659.89,-324.62 655.86,-334.42 665.12,-329.28 659.89,-324.62"/>
</a>
</g>
</g>
<!-- Node27 -->
<g id="Node000027" class="node">
<title>Node27</title>
<g id="a_Node000027"><a xlink:href="_respawn_zone_8cpp.html" target="_top" xlink:title=" ">
<polygon fill="white" stroke="#666666" points="671.38,-300 536.88,-300 536.88,-280 671.38,-280 671.38,-300"/>
<text text-anchor="middle" x="604.12" y="-286.5" font-family="Helvetica,sans-Serif" font-size="10.00">Celeste/RespawnZone.cpp</text>
</a>
</g>
</g>
<!-- Node26&#45;&gt;Node27 -->
<g id="edge33_Node000026_Node000027" class="edge">
<title>Node26&#45;&gt;Node27</title>
<g id="a_edge33_Node000026_Node000027"><a xlink:title=" ">
<path fill="none" stroke="#63b8ff" d="M632.57,-326.72C625.5,-317.84 617.3,-307.55 611.53,-300.3"/>
<polygon fill="#63b8ff" stroke="#63b8ff" points="629.72,-328.77 638.69,-334.41 635.2,-324.41 629.72,-328.77"/>
</a>
</g>
</g>
<!-- Node28&#45;&gt;Node11 -->
<g id="edge35_Node000028_Node000011" class="edge">
<title>Node28&#45;&gt;Node11</title>
<g id="a_edge35_Node000028_Node000011"><a xlink:title=" ">
<path fill="none" stroke="#63b8ff" d="M442.81,-329.77C421.55,-316.45 398.56,-296.67 414.12,-280 454.64,-236.61 862.38,-234.02 1013.86,-234.58"/>
<polygon fill="#63b8ff" stroke="#63b8ff" points="440.93,-332.73 451.32,-334.81 444.5,-326.7 440.93,-332.73"/>
</a>
</g>
</g>
<!-- Node29 -->
<g id="Node000029" class="node">
<title>Node29</title>
<g id="a_Node000029"><a xlink:href="_spike_8cpp.html" target="_top" xlink:title=" ">
<polygon fill="white" stroke="#666666" points="519.25,-300 423,-300 423,-280 519.25,-280 519.25,-300"/>
<text text-anchor="middle" x="471.12" y="-286.5" font-family="Helvetica,sans-Serif" font-size="10.00">Celeste/Spike.cpp</text>
</a>
</g>
</g>
<!-- Node28&#45;&gt;Node29 -->
<g id="edge36_Node000028_Node000029" class="edge">
<title>Node28&#45;&gt;Node29</title>
<g id="a_edge36_Node000028_Node000029"><a xlink:title=" ">
<path fill="none" stroke="#63b8ff" d="M471.12,-324.13C471.12,-315.9 471.12,-306.85 471.12,-300.3"/>
<polygon fill="#63b8ff" stroke="#63b8ff" points="467.63,-324.08 471.13,-334.08 474.63,-324.08 467.63,-324.08"/>
</a>
</g>
</g>
<!-- Node30&#45;&gt;Node11 -->
<g id="edge38_Node000030_Node000011" class="edge">
<title>Node30&#45;&gt;Node11</title>
<g id="a_edge38_Node000030_Node000011"><a xlink:title=" ">
<path fill="none" stroke="#63b8ff" d="M1655.93,-324.62C1654.61,-309.85 1650.24,-290.66 1637.12,-280 1598.1,-248.26 1262.03,-238.54 1126.47,-235.89"/>
<polygon fill="#63b8ff" stroke="#63b8ff" points="1652.42,-324.37 1656.37,-334.19 1659.41,-324.04 1652.42,-324.37"/>
</a>
</g>
</g>
<!-- Node31 -->
<g id="Node000031" class="node">
<title>Node31</title>
<g id="a_Node000031"><a xlink:href="_flying_strawberry_8h.html" target="_top" xlink:title=" ">
<polygon fill="white" stroke="#666666" points="1818,-300 1684.25,-300 1684.25,-280 1818,-280 1818,-300"/>
<text text-anchor="middle" x="1751.12" y="-286.5" font-family="Helvetica,sans-Serif" font-size="10.00">Celeste/FlyingStrawberry.h</text>
</a>
</g>
</g>
<!-- Node30&#45;&gt;Node31 -->
<g id="edge39_Node000030_Node000031" class="edge">
<title>Node30&#45;&gt;Node31</title>
<g id="a_edge39_Node000030_Node000031"><a xlink:title=" ">
<path fill="none" stroke="#63b8ff" d="M1682.37,-330.08C1699.02,-320.62 1720.06,-308.66 1734.45,-300.48"/>
<polygon fill="#63b8ff" stroke="#63b8ff" points="1680.95,-326.86 1673.99,-334.85 1684.41,-332.95 1680.95,-326.86"/>
</a>
</g>
</g>
<!-- Node33 -->
<g id="Node000033" class="node">
<title>Node33</title>
<g id="a_Node000033"><a xlink:href="_strawberry_8cpp.html" target="_top" xlink:title=" ">
<polygon fill="white" stroke="#666666" points="1954.12,-300 1836.12,-300 1836.12,-280 1954.12,-280 1954.12,-300"/>
<text text-anchor="middle" x="1895.12" y="-286.5" font-family="Helvetica,sans-Serif" font-size="10.00">Celeste/Strawberry.cpp</text>
</a>
</g>
</g>
<!-- Node30&#45;&gt;Node33 -->
<g id="edge42_Node000030_Node000033" class="edge">
<title>Node30&#45;&gt;Node33</title>
<g id="a_edge42_Node000030_Node000033"><a xlink:title=" ">
<path fill="none" stroke="#63b8ff" d="M1709.23,-333C1752.66,-323.19 1813.22,-309.51 1853.27,-300.46"/>
<polygon fill="#63b8ff" stroke="#63b8ff" points="1708.49,-329.58 1699.51,-335.2 1710.03,-336.41 1708.49,-329.58"/>
</a>
</g>
</g>
<!-- Node31&#45;&gt;Node11 -->
<g id="edge40_Node000031_Node000011" class="edge">
<title>Node31&#45;&gt;Node11</title>
<g id="a_edge40_Node000031_Node000011"><a xlink:title=" ">
<path fill="none" stroke="#63b8ff" d="M1672.67,-280.24C1671.82,-280.16 1670.97,-280.08 1670.12,-280 1470.43,-261.42 1232.78,-245.4 1126.43,-238.55"/>
<polygon fill="#63b8ff" stroke="#63b8ff" points="1672.16,-283.71 1682.45,-281.2 1672.84,-276.74 1672.16,-283.71"/>
</a>
</g>
</g>
<!-- Node32 -->
<g id="Node000032" class="node">
<title>Node32</title>
<g id="a_Node000032"><a xlink:href="_flying_strawberry_8cpp.html" target="_top" xlink:title=" ">
<polygon fill="white" stroke="#666666" points="1823.25,-244 1679,-244 1679,-224 1823.25,-224 1823.25,-244"/>
<text text-anchor="middle" x="1751.12" y="-230.5" font-family="Helvetica,sans-Serif" font-size="10.00">Celeste/FlyingStrawberry.cpp</text>
</a>
</g>
</g>
<!-- Node31&#45;&gt;Node32 -->
<g id="edge41_Node000031_Node000032" class="edge">
<title>Node31&#45;&gt;Node32</title>
<g id="a_edge41_Node000031_Node000032"><a xlink:title=" ">
<path fill="none" stroke="#63b8ff" d="M1751.12,-268.13C1751.12,-259.9 1751.12,-250.85 1751.12,-244.3"/>
<polygon fill="#63b8ff" stroke="#63b8ff" points="1747.63,-268.08 1751.13,-278.08 1754.63,-268.08 1747.63,-268.08"/>
</a>
</g>
</g>
<!-- Node34&#45;&gt;Node11 -->
<g id="edge44_Node000034_Node000011" class="edge">
<title>Node34&#45;&gt;Node11</title>
<g id="a_edge44_Node000034_Node000011"><a xlink:title=" ">
<path fill="none" stroke="#63b8ff" d="M1479.78,-324.31C1478.36,-309.67 1473.92,-290.79 1461.12,-280 1411.76,-238.38 1222.17,-233.69 1126.31,-234.08"/>
<polygon fill="#63b8ff" stroke="#63b8ff" points="1476.28,-324.46 1480.31,-334.27 1483.27,-324.09 1476.28,-324.46"/>
</a>
</g>
</g>
<!-- Node34&#45;&gt;Node35 -->
<g id="edge45_Node000034_Node000035" class="edge">
<title>Node34&#45;&gt;Node35</title>
<g id="a_edge45_Node000034_Node000035"><a xlink:title=" ">
<path fill="none" stroke="#63b8ff" d="M1504.88,-329.81C1520.23,-320.39 1539.47,-308.58 1552.68,-300.48"/>
<polygon fill="#63b8ff" stroke="#63b8ff" points="1503.44,-326.59 1496.74,-334.8 1507.1,-332.56 1503.44,-326.59"/>
</a>
</g>
</g>
</g>
</svg>
