<?xml version="1.0" encoding="UTF-8" standalone="no"?>
<!DOCTYPE svg PUBLIC "-//W3C//DTD SVG 1.1//EN"
 "http://www.w3.org/Graphics/SVG/1.1/DTD/svg11.dtd">
<!-- Generated by graphviz version 12.2.1 (20241206.2353)
 -->
<!-- Title: Engine/BaseGame.h Pages: 1 -->
<svg width="291pt" height="140pt"
 viewBox="0.00 0.00 291.12 140.00" xmlns="http://www.w3.org/2000/svg" xmlns:xlink="http://www.w3.org/1999/xlink">
<g id="graph0" class="graph" transform="scale(1 1) rotate(0) translate(4 136)">
<title>Engine/BaseGame.h</title>
<!-- Node1 -->
<g id="Node000001" class="node">
<title>Node1</title>
<g id="a_Node000001"><a xlink:title=" ">
<polygon fill="#999999" stroke="#666666" points="217.88,-132 111.88,-132 111.88,-112 217.88,-112 217.88,-132"/>
<text text-anchor="middle" x="164.88" y="-118.5" font-family="Helvetica,sans-Serif" font-size="10.00">Engine/BaseGame.h</text>
</a>
</g>
</g>
<!-- Node2 -->
<g id="Node000002" class="node">
<title>Node2</title>
<g id="a_Node000002"><a xlink:href="_game_8h.html" target="_top" xlink:title=" ">
<polygon fill="white" stroke="#666666" points="148.5,-76 61.25,-76 61.25,-56 148.5,-56 148.5,-76"/>
<text text-anchor="middle" x="104.88" y="-62.5" font-family="Helvetica,sans-Serif" font-size="10.00">Celeste/Game.h</text>
</a>
</g>
</g>
<!-- Node1&#45;&gt;Node2 -->
<g id="edge1_Node000001_Node000002" class="edge">
<title>Node1&#45;&gt;Node2</title>
<g id="a_edge1_Node000001_Node000002"><a xlink:title=" ">
<path fill="none" stroke="#63b8ff" d="M146.13,-104.13C135.92,-94.94 123.69,-83.93 115.21,-76.3"/>
<polygon fill="#63b8ff" stroke="#63b8ff" points="143.52,-106.49 153.3,-110.58 148.21,-101.29 143.52,-106.49"/>
</a>
</g>
</g>
<!-- Node5 -->
<g id="Node000005" class="node">
<title>Node5</title>
<g id="a_Node000005"><a xlink:href="_base_game_8cpp.html" target="_top" xlink:title=" ">
<polygon fill="white" stroke="#666666" points="283.12,-76 166.62,-76 166.62,-56 283.12,-56 283.12,-76"/>
<text text-anchor="middle" x="224.88" y="-62.5" font-family="Helvetica,sans-Serif" font-size="10.00">Engine/BaseGame.cpp</text>
</a>
</g>
</g>
<!-- Node1&#45;&gt;Node5 -->
<g id="edge4_Node000001_Node000005" class="edge">
<title>Node1&#45;&gt;Node5</title>
<g id="a_edge4_Node000001_Node000005"><a xlink:title=" ">
<path fill="none" stroke="#63b8ff" d="M183.62,-104.13C193.83,-94.94 206.06,-83.93 214.54,-76.3"/>
<polygon fill="#63b8ff" stroke="#63b8ff" points="181.54,-101.29 176.45,-110.58 186.23,-106.49 181.54,-101.29"/>
</a>
</g>
</g>
<!-- Node3 -->
<g id="Node000003" class="node">
<title>Node3</title>
<g id="a_Node000003"><a xlink:href="_game_8cpp.html" target="_top" xlink:title=" ">
<polygon fill="white" stroke="#666666" points="97.75,-20 0,-20 0,0 97.75,0 97.75,-20"/>
<text text-anchor="middle" x="48.88" y="-6.5" font-family="Helvetica,sans-Serif" font-size="10.00">Celeste/Game.cpp</text>
</a>
</g>
</g>
<!-- Node2&#45;&gt;Node3 -->
<g id="edge2_Node000002_Node000003" class="edge">
<title>Node2&#45;&gt;Node3</title>
<g id="a_edge2_Node000002_Node000003"><a xlink:title=" ">
<path fill="none" stroke="#63b8ff" d="M87.09,-47.85C77.62,-38.72 66.35,-27.86 58.52,-20.3"/>
<polygon fill="#63b8ff" stroke="#63b8ff" points="84.4,-50.12 94.03,-54.54 89.26,-45.08 84.4,-50.12"/>
</a>
</g>
</g>
<!-- Node4 -->
<g id="Node000004" class="node">
<title>Node4</title>
<g id="a_Node000004"><a xlink:href="main_8cpp.html" target="_top" xlink:title=" ">
<polygon fill="white" stroke="#666666" points="208.12,-20 115.62,-20 115.62,0 208.12,0 208.12,-20"/>
<text text-anchor="middle" x="161.88" y="-6.5" font-family="Helvetica,sans-Serif" font-size="10.00">Celeste/main.cpp</text>
</a>
</g>
</g>
<!-- Node2&#45;&gt;Node4 -->
<g id="edge3_Node000002_Node000004" class="edge">
<title>Node2&#45;&gt;Node4</title>
<g id="a_edge3_Node000002_Node000004"><a xlink:title=" ">
<path fill="none" stroke="#63b8ff" d="M122.98,-47.85C132.61,-38.72 144.08,-27.86 152.06,-20.3"/>
<polygon fill="#63b8ff" stroke="#63b8ff" points="120.75,-45.13 115.9,-54.55 125.57,-50.22 120.75,-45.13"/>
</a>
</g>
</g>
</g>
</svg>
