<?xml version="1.0" encoding="UTF-8" standalone="no"?>
<!DOCTYPE svg PUBLIC "-//W3C//DTD SVG 1.1//EN"
 "http://www.w3.org/Graphics/SVG/1.1/DTD/svg11.dtd">
<!-- Generated by graphviz version 12.2.1 (20241206.2353)
 -->
<!-- Title: Celeste/CharacterTextureManager.cpp Pages: 1 -->
<svg width="676pt" height="432pt"
 viewBox="0.00 0.00 676.23 432.00" xmlns="http://www.w3.org/2000/svg" xmlns:xlink="http://www.w3.org/1999/xlink">
<g id="graph0" class="graph" transform="scale(1 1) rotate(0) translate(4 428)">
<title>Celeste/CharacterTextureManager.cpp</title>
<!-- Node1 -->
<g id="Node000001" class="node">
<title>Node1</title>
<g id="a_Node000001"><a xlink:title=" ">
<polygon fill="#999999" stroke="#666666" points="369.11,-424 241.36,-424 241.36,-392 369.11,-392 369.11,-424"/>
<text text-anchor="start" x="249.36" y="-410.5" font-family="Helvetica,sans-Serif" font-size="10.00">Celeste/CharacterTexture</text>
<text text-anchor="middle" x="305.23" y="-398.5" font-family="Helvetica,sans-Serif" font-size="10.00">Manager.cpp</text>
</a>
</g>
</g>
<!-- Node2 -->
<g id="Node000002" class="node">
<title>Node2</title>
<g id="a_Node000002"><a xlink:href="pch_8h.html" target="_top" xlink:title=" ">
<polygon fill="white" stroke="#666666" points="235.23,-132 195.23,-132 195.23,-112 235.23,-112 235.23,-132"/>
<text text-anchor="middle" x="215.23" y="-118.5" font-family="Helvetica,sans-Serif" font-size="10.00">pch.h</text>
</a>
</g>
</g>
<!-- Node1&#45;&gt;Node2 -->
<g id="edge1_Node000001_Node000002" class="edge">
<title>Node1&#45;&gt;Node2</title>
<g id="a_edge1_Node000001_Node000002"><a xlink:title=" ">
<path fill="none" stroke="#63b8ff" d="M242.04,-391.64C193.33,-375.59 134.23,-344.99 134.23,-291 134.23,-291 134.23,-291 134.23,-233 134.23,-202.9 135.9,-192.61 153.23,-168 161.79,-155.85 174.68,-145.74 186.5,-138.19"/>
<polygon fill="#63b8ff" stroke="#63b8ff" points="187.98,-141.39 194.76,-133.25 184.38,-135.38 187.98,-141.39"/>
</a>
</g>
</g>
<!-- Node11 -->
<g id="Node000011" class="node">
<title>Node11</title>
<g id="a_Node000011"><a xlink:href="_character_texture_manager_8h.html" target="_top" xlink:title=" ">
<polygon fill="white" stroke="#666666" points="373.61,-356 236.86,-356 236.86,-336 373.61,-336 373.61,-356"/>
<text text-anchor="middle" x="305.23" y="-342.5" font-family="Helvetica,sans-Serif" font-size="10.00">CharacterTextureManager.h</text>
</a>
</g>
</g>
<!-- Node1&#45;&gt;Node11 -->
<g id="edge11_Node000001_Node000011" class="edge">
<title>Node1&#45;&gt;Node11</title>
<g id="a_edge11_Node000001_Node000011"><a xlink:title=" ">
<path fill="none" stroke="#63b8ff" d="M305.23,-391.55C305.23,-384.34 305.23,-375.66 305.23,-367.88"/>
<polygon fill="#63b8ff" stroke="#63b8ff" points="308.73,-367.92 305.23,-357.92 301.73,-367.92 308.73,-367.92"/>
</a>
</g>
</g>
<!-- Node18 -->
<g id="Node000018" class="node">
<title>Node18</title>
<g id="a_Node000018"><a xlink:href="_hair_8h.html" target="_top" xlink:title=" ">
<polygon fill="white" stroke="#666666" points="204.36,-300 162.11,-300 162.11,-280 204.36,-280 204.36,-300"/>
<text text-anchor="middle" x="183.23" y="-286.5" font-family="Helvetica,sans-Serif" font-size="10.00">Hair.h</text>
</a>
</g>
</g>
<!-- Node1&#45;&gt;Node18 -->
<g id="edge25_Node000001_Node000018" class="edge">
<title>Node1&#45;&gt;Node18</title>
<g id="a_edge25_Node000001_Node000018"><a xlink:title=" ">
<path fill="none" stroke="#63b8ff" d="M276.62,-391.62C261.24,-382.51 242.55,-370.03 228.23,-356 214.3,-342.36 201.98,-323.85 193.77,-310.07"/>
<polygon fill="#63b8ff" stroke="#63b8ff" points="196.88,-308.45 188.86,-301.53 190.81,-311.94 196.88,-308.45"/>
</a>
</g>
</g>
<!-- Node20 -->
<g id="Node000020" class="node">
<title>Node20</title>
<g id="a_Node000020"><a xlink:href="_s_v_g_parser_8h.html" target="_top" xlink:title=" ">
<polygon fill="white" stroke="#666666" points="666.11,-300 592.36,-300 592.36,-280 666.11,-280 666.11,-300"/>
<text text-anchor="middle" x="629.23" y="-286.5" font-family="Helvetica,sans-Serif" font-size="10.00">SVGParser.h</text>
</a>
</g>
</g>
<!-- Node1&#45;&gt;Node20 -->
<g id="edge31_Node000001_Node000020" class="edge">
<title>Node1&#45;&gt;Node20</title>
<g id="a_edge31_Node000001_Node000020"><a xlink:title=" ">
<path fill="none" stroke="#63b8ff" d="M348.25,-391.6C412.43,-368.62 532.11,-325.77 592.45,-304.17"/>
<polygon fill="#63b8ff" stroke="#63b8ff" points="593.33,-307.57 601.57,-300.9 590.98,-300.98 593.33,-307.57"/>
</a>
</g>
</g>
<!-- Node22 -->
<g id="Node000022" class="node">
<title>Node22</title>
<g id="a_Node000022"><a xlink:href="utils_8h.html" target="_top" xlink:title=" ">
<polygon fill="white" stroke="#666666" points="574.36,-300 532.11,-300 532.11,-280 574.36,-280 574.36,-300"/>
<text text-anchor="middle" x="553.23" y="-286.5" font-family="Helvetica,sans-Serif" font-size="10.00">utils.h</text>
</a>
</g>
</g>
<!-- Node1&#45;&gt;Node22 -->
<g id="edge36_Node000001_Node000022" class="edge">
<title>Node1&#45;&gt;Node22</title>
<g id="a_edge36_Node000001_Node000022"><a xlink:title=" ">
<path fill="none" stroke="#63b8ff" d="M338.16,-391.6C386.47,-369 475.86,-327.19 522.74,-305.26"/>
<polygon fill="#63b8ff" stroke="#63b8ff" points="524.2,-308.44 531.78,-301.03 521.24,-302.1 524.2,-308.44"/>
</a>
</g>
</g>
<!-- Node3 -->
<g id="Node000003" class="node">
<title>Node3</title>
<g id="a_Node000003"><a xlink:title=" ">
<polygon fill="#e0e0e0" stroke="#999999" points="158.11,-76 114.36,-76 114.36,-56 158.11,-56 158.11,-76"/>
<text text-anchor="middle" x="136.23" y="-62.5" font-family="Helvetica,sans-Serif" font-size="10.00">SDL.h</text>
</a>
</g>
</g>
<!-- Node2&#45;&gt;Node3 -->
<g id="edge2_Node000002_Node000003" class="edge">
<title>Node2&#45;&gt;Node3</title>
<g id="a_edge2_Node000002_Node000003"><a xlink:title=" ">
<path fill="none" stroke="#63b8ff" d="M201.47,-111.59C189.87,-103.67 173.03,-92.16 159.37,-82.82"/>
<polygon fill="#63b8ff" stroke="#63b8ff" points="161.58,-80.09 151.35,-77.33 157.63,-85.87 161.58,-80.09"/>
</a>
</g>
</g>
<!-- Node4 -->
<g id="Node000004" class="node">
<title>Node4</title>
<g id="a_Node000004"><a xlink:title=" ">
<polygon fill="#e0e0e0" stroke="#999999" points="253.98,-76 176.48,-76 176.48,-56 253.98,-56 253.98,-76"/>
<text text-anchor="middle" x="215.23" y="-62.5" font-family="Helvetica,sans-Serif" font-size="10.00">SDL_opengl.h</text>
</a>
</g>
</g>
<!-- Node2&#45;&gt;Node4 -->
<g id="edge3_Node000002_Node000004" class="edge">
<title>Node2&#45;&gt;Node4</title>
<g id="a_edge3_Node000002_Node000004"><a xlink:title=" ">
<path fill="none" stroke="#63b8ff" d="M215.23,-111.59C215.23,-105.01 215.23,-95.96 215.23,-87.73"/>
<polygon fill="#63b8ff" stroke="#63b8ff" points="218.73,-87.81 215.23,-77.81 211.73,-87.81 218.73,-87.81"/>
</a>
</g>
</g>
<!-- Node5 -->
<g id="Node000005" class="node">
<title>Node5</title>
<g id="a_Node000005"><a xlink:title=" ">
<polygon fill="#e0e0e0" stroke="#999999" points="330.23,-76 272.23,-76 272.23,-56 330.23,-56 330.23,-76"/>
<text text-anchor="middle" x="301.23" y="-62.5" font-family="Helvetica,sans-Serif" font-size="10.00">SDL_ttf.h</text>
</a>
</g>
</g>
<!-- Node2&#45;&gt;Node5 -->
<g id="edge4_Node000002_Node000005" class="edge">
<title>Node2&#45;&gt;Node5</title>
<g id="a_edge4_Node000002_Node000005"><a xlink:title=" ">
<path fill="none" stroke="#63b8ff" d="M230.21,-111.59C242.96,-103.59 261.52,-91.93 276.47,-82.54"/>
<polygon fill="#63b8ff" stroke="#63b8ff" points="278.24,-85.57 284.85,-77.28 274.52,-79.64 278.24,-85.57"/>
</a>
</g>
</g>
<!-- Node6 -->
<g id="Node000006" class="node">
<title>Node6</title>
<g id="a_Node000006"><a xlink:title=" ">
<polygon fill="#e0e0e0" stroke="#999999" points="421.73,-76 348.73,-76 348.73,-56 421.73,-56 421.73,-76"/>
<text text-anchor="middle" x="385.23" y="-62.5" font-family="Helvetica,sans-Serif" font-size="10.00">SDL_mixer.h</text>
</a>
</g>
</g>
<!-- Node2&#45;&gt;Node6 -->
<g id="edge5_Node000002_Node000006" class="edge">
<title>Node2&#45;&gt;Node6</title>
<g id="a_edge5_Node000002_Node000006"><a xlink:title=" ">
<path fill="none" stroke="#63b8ff" d="M235.4,-114.59C262.22,-106.07 310.26,-90.82 344.71,-79.87"/>
<polygon fill="#63b8ff" stroke="#63b8ff" points="345.46,-83.3 353.94,-76.94 343.35,-76.63 345.46,-83.3"/>
</a>
</g>
</g>
<!-- Node7 -->
<g id="Node000007" class="node">
<title>Node7</title>
<g id="a_Node000007"><a xlink:title=" ">
<polygon fill="#e0e0e0" stroke="#999999" points="95.86,-76 20.61,-76 20.61,-56 95.86,-56 95.86,-76"/>
<text text-anchor="middle" x="58.23" y="-62.5" font-family="Helvetica,sans-Serif" font-size="10.00">SDL_image.h</text>
</a>
</g>
</g>
<!-- Node2&#45;&gt;Node7 -->
<g id="edge6_Node000002_Node000007" class="edge">
<title>Node2&#45;&gt;Node7</title>
<g id="a_edge6_Node000002_Node000007"><a xlink:title=" ">
<path fill="none" stroke="#63b8ff" d="M195.03,-114.05C170.24,-105.53 127.7,-90.89 96.62,-80.2"/>
<polygon fill="#63b8ff" stroke="#63b8ff" points="97.77,-76.9 87.18,-76.96 95.5,-83.52 97.77,-76.9"/>
</a>
</g>
</g>
<!-- Node8 -->
<g id="Node000008" class="node">
<title>Node8</title>
<g id="a_Node000008"><a xlink:href="structs_8h.html" target="_top" xlink:title=" ">
<polygon fill="white" stroke="#666666" points="494.36,-76 440.11,-76 440.11,-56 494.36,-56 494.36,-76"/>
<text text-anchor="middle" x="467.23" y="-62.5" font-family="Helvetica,sans-Serif" font-size="10.00">structs.h</text>
</a>
</g>
</g>
<!-- Node2&#45;&gt;Node8 -->
<g id="edge7_Node000002_Node000008" class="edge">
<title>Node2&#45;&gt;Node8</title>
<g id="a_edge7_Node000002_Node000008"><a xlink:title=" ">
<path fill="none" stroke="#63b8ff" d="M235.49,-114.62C238.73,-113.69 242.06,-112.78 245.23,-112 323.64,-92.7 347.12,-94.06 428.92,-76.41"/>
<polygon fill="#63b8ff" stroke="#63b8ff" points="429.25,-79.92 438.27,-74.36 427.75,-73.08 429.25,-79.92"/>
</a>
</g>
</g>
<!-- Node9 -->
<g id="Node000009" class="node">
<title>Node9</title>
<g id="a_Node000009"><a xlink:title=" ">
<polygon fill="#e0e0e0" stroke="#999999" points="621.23,-20 581.23,-20 581.23,0 621.23,0 621.23,-20"/>
<text text-anchor="middle" x="601.23" y="-6.5" font-family="Helvetica,sans-Serif" font-size="10.00">string</text>
</a>
</g>
</g>
<!-- Node8&#45;&gt;Node9 -->
<g id="edge8_Node000008_Node000009" class="edge">
<title>Node8&#45;&gt;Node9</title>
<g id="a_edge8_Node000008_Node000009"><a xlink:title=" ">
<path fill="none" stroke="#63b8ff" d="M490.57,-55.59C512.68,-46.68 546.02,-33.25 570.33,-23.45"/>
<polygon fill="#63b8ff" stroke="#63b8ff" points="571.42,-26.79 579.38,-19.8 568.8,-20.3 571.42,-26.79"/>
</a>
</g>
</g>
<!-- Node10 -->
<g id="Node000010" class="node">
<title>Node10</title>
<g id="a_Node000010"><a xlink:href="_vector2f_8h.html" target="_top" xlink:title=" ">
<polygon fill="white" stroke="#666666" points="497.36,-20 437.11,-20 437.11,0 497.36,0 497.36,-20"/>
<text text-anchor="middle" x="467.23" y="-6.5" font-family="Helvetica,sans-Serif" font-size="10.00">Vector2f.h</text>
</a>
</g>
</g>
<!-- Node8&#45;&gt;Node10 -->
<g id="edge9_Node000008_Node000010" class="edge">
<title>Node8&#45;&gt;Node10</title>
<g id="a_edge9_Node000008_Node000010"><a xlink:title=" ">
<path fill="none" stroke="#63b8ff" d="M461.96,-55.59C460.65,-49.01 460.21,-39.96 460.64,-31.73"/>
<polygon fill="#63b8ff" stroke="#63b8ff" points="464.12,-32.14 461.81,-21.8 457.17,-31.33 464.12,-32.14"/>
</a>
</g>
</g>
<!-- Node10&#45;&gt;Node8 -->
<g id="edge10_Node000010_Node000008" class="edge">
<title>Node10&#45;&gt;Node8</title>
<g id="a_edge10_Node000010_Node000008"><a xlink:title=" ">
<path fill="none" stroke="#63b8ff" d="M472.48,-20.3C473.82,-26.93 474.26,-36.11 473.81,-44.43"/>
<polygon fill="#63b8ff" stroke="#63b8ff" points="470.36,-43.75 472.67,-54.09 477.31,-44.57 470.36,-43.75"/>
</a>
</g>
</g>
<!-- Node12 -->
<g id="Node000012" class="node">
<title>Node12</title>
<g id="a_Node000012"><a xlink:href="_animation_manager_a_n_d_hair_8h.html" target="_top" xlink:title=" ">
<polygon fill="white" stroke="#666666" points="513.73,-300 368.73,-300 368.73,-280 513.73,-280 513.73,-300"/>
<text text-anchor="middle" x="441.23" y="-286.5" font-family="Helvetica,sans-Serif" font-size="10.00">AnimationManagerANDHair.h</text>
</a>
</g>
</g>
<!-- Node11&#45;&gt;Node12 -->
<g id="edge12_Node000011_Node000012" class="edge">
<title>Node11&#45;&gt;Node12</title>
<g id="a_edge12_Node000011_Node000012"><a xlink:title=" ">
<path fill="none" stroke="#63b8ff" d="M328.92,-335.59C350.43,-327.05 382.43,-314.35 406.77,-304.68"/>
<polygon fill="#63b8ff" stroke="#63b8ff" points="407.95,-307.98 415.95,-301.04 405.36,-301.48 407.95,-307.98"/>
</a>
</g>
</g>
<!-- Node16 -->
<g id="Node000016" class="node">
<title>Node16</title>
<g id="a_Node000016"><a xlink:title=" ">
<polygon fill="#e0e0e0" stroke="#999999" points="370.73,-244 327.73,-244 327.73,-224 370.73,-224 370.73,-244"/>
<text text-anchor="middle" x="349.23" y="-230.5" font-family="Helvetica,sans-Serif" font-size="10.00">vector</text>
</a>
</g>
</g>
<!-- Node11&#45;&gt;Node16 -->
<g id="edge24_Node000011_Node000016" class="edge">
<title>Node11&#45;&gt;Node16</title>
<g id="a_edge24_Node000011_Node000016"><a xlink:title=" ">
<path fill="none" stroke="#63b8ff" d="M287.56,-335.67C267.01,-323.54 237.53,-301.37 251.23,-280 265.52,-257.72 293.91,-246.33 316.47,-240.59"/>
<polygon fill="#63b8ff" stroke="#63b8ff" points="317.17,-244.02 326.15,-238.41 315.63,-237.19 317.17,-244.02"/>
</a>
</g>
</g>
<!-- Node17 -->
<g id="Node000017" class="node">
<title>Node17</title>
<g id="a_Node000017"><a xlink:href="_character_state_8h.html" target="_top" xlink:title=" ">
<polygon fill="white" stroke="#666666" points="350.36,-300 260.11,-300 260.11,-280 350.36,-280 350.36,-300"/>
<text text-anchor="middle" x="305.23" y="-286.5" font-family="Helvetica,sans-Serif" font-size="10.00">CharacterState.h</text>
</a>
</g>
</g>
<!-- Node11&#45;&gt;Node17 -->
<g id="edge23_Node000011_Node000017" class="edge">
<title>Node11&#45;&gt;Node17</title>
<g id="a_edge23_Node000011_Node000017"><a xlink:title=" ">
<path fill="none" stroke="#63b8ff" d="M305.23,-335.59C305.23,-329.01 305.23,-319.96 305.23,-311.73"/>
<polygon fill="#63b8ff" stroke="#63b8ff" points="308.73,-311.81 305.23,-301.81 301.73,-311.81 308.73,-311.81"/>
</a>
</g>
</g>
<!-- Node13 -->
<g id="Node000013" class="node">
<title>Node13</title>
<g id="a_Node000013"><a xlink:href="_animation_manager_8h.html" target="_top" xlink:title=" ">
<polygon fill="white" stroke="#666666" points="493.86,-244 388.61,-244 388.61,-224 493.86,-224 493.86,-244"/>
<text text-anchor="middle" x="441.23" y="-230.5" font-family="Helvetica,sans-Serif" font-size="10.00">AnimationManager.h</text>
</a>
</g>
</g>
<!-- Node12&#45;&gt;Node13 -->
<g id="edge13_Node000012_Node000013" class="edge">
<title>Node12&#45;&gt;Node13</title>
<g id="a_edge13_Node000012_Node000013"><a xlink:title=" ">
<path fill="none" stroke="#63b8ff" d="M441.23,-279.59C441.23,-273.01 441.23,-263.96 441.23,-255.73"/>
<polygon fill="#63b8ff" stroke="#63b8ff" points="444.73,-255.81 441.23,-245.81 437.73,-255.81 444.73,-255.81"/>
</a>
</g>
</g>
<!-- Node12&#45;&gt;Node16 -->
<g id="edge22_Node000012_Node000016" class="edge">
<title>Node12&#45;&gt;Node16</title>
<g id="a_edge22_Node000012_Node000016"><a xlink:title=" ">
<path fill="none" stroke="#63b8ff" d="M425.2,-279.59C411.44,-271.51 391.33,-259.71 375.25,-250.27"/>
<polygon fill="#63b8ff" stroke="#63b8ff" points="377.08,-247.29 366.69,-245.25 373.54,-253.33 377.08,-247.29"/>
</a>
</g>
</g>
<!-- Node14 -->
<g id="Node000014" class="node">
<title>Node14</title>
<g id="a_Node000014"><a xlink:href="_texture_8h.html" target="_top" xlink:title=" ">
<polygon fill="white" stroke="#666666" points="305.48,-188 248.98,-188 248.98,-168 305.48,-168 305.48,-188"/>
<text text-anchor="middle" x="277.23" y="-174.5" font-family="Helvetica,sans-Serif" font-size="10.00">Texture.h</text>
</a>
</g>
</g>
<!-- Node13&#45;&gt;Node14 -->
<g id="edge14_Node000013_Node000014" class="edge">
<title>Node13&#45;&gt;Node14</title>
<g id="a_edge14_Node000013_Node000014"><a xlink:title=" ">
<path fill="none" stroke="#63b8ff" d="M412.66,-223.59C386.05,-214.83 346.15,-201.69 316.54,-191.94"/>
<polygon fill="#63b8ff" stroke="#63b8ff" points="317.77,-188.67 307.18,-188.86 315.59,-195.31 317.77,-188.67"/>
</a>
</g>
</g>
<!-- Node15 -->
<g id="Node000015" class="node">
<title>Node15</title>
<g id="a_Node000015"><a xlink:href="base_8h.html" target="_top" xlink:title=" ">
<polygon fill="white" stroke="#666666" points="299.86,-132 254.61,-132 254.61,-112 299.86,-112 299.86,-132"/>
<text text-anchor="middle" x="277.23" y="-118.5" font-family="Helvetica,sans-Serif" font-size="10.00">base.h</text>
</a>
</g>
</g>
<!-- Node14&#45;&gt;Node15 -->
<g id="edge15_Node000014_Node000015" class="edge">
<title>Node14&#45;&gt;Node15</title>
<g id="a_edge15_Node000014_Node000015"><a xlink:title=" ">
<path fill="none" stroke="#63b8ff" d="M277.23,-167.59C277.23,-161.01 277.23,-151.96 277.23,-143.73"/>
<polygon fill="#63b8ff" stroke="#63b8ff" points="280.73,-143.81 277.23,-133.81 273.73,-143.81 280.73,-143.81"/>
</a>
</g>
</g>
<!-- Node15&#45;&gt;Node3 -->
<g id="edge16_Node000015_Node000003" class="edge">
<title>Node15&#45;&gt;Node3</title>
<g id="a_edge16_Node000015_Node000003"><a xlink:title=" ">
<path fill="none" stroke="#63b8ff" d="M254.26,-112.2C231.05,-103.31 194.96,-89.49 168.8,-79.47"/>
<polygon fill="#63b8ff" stroke="#63b8ff" points="170.26,-76.29 159.67,-75.98 167.76,-82.82 170.26,-76.29"/>
</a>
</g>
</g>
<!-- Node15&#45;&gt;Node4 -->
<g id="edge17_Node000015_Node000004" class="edge">
<title>Node15&#45;&gt;Node4</title>
<g id="a_edge17_Node000015_Node000004"><a xlink:title=" ">
<path fill="none" stroke="#63b8ff" d="M266.43,-111.59C257.63,-103.93 244.98,-92.91 234.46,-83.75"/>
<polygon fill="#63b8ff" stroke="#63b8ff" points="236.89,-81.22 227.05,-77.29 232.29,-86.5 236.89,-81.22"/>
</a>
</g>
</g>
<!-- Node15&#45;&gt;Node5 -->
<g id="edge18_Node000015_Node000005" class="edge">
<title>Node15&#45;&gt;Node5</title>
<g id="a_edge18_Node000015_Node000005"><a xlink:title=" ">
<path fill="none" stroke="#63b8ff" d="M281.41,-111.59C284.47,-104.7 288.74,-95.1 292.53,-86.57"/>
<polygon fill="#63b8ff" stroke="#63b8ff" points="295.62,-88.24 296.48,-77.68 289.22,-85.4 295.62,-88.24"/>
</a>
</g>
</g>
<!-- Node15&#45;&gt;Node6 -->
<g id="edge19_Node000015_Node000006" class="edge">
<title>Node15&#45;&gt;Node6</title>
<g id="a_edge19_Node000015_Node000006"><a xlink:title=" ">
<path fill="none" stroke="#63b8ff" d="M296.04,-111.59C312.59,-103.32 336.94,-91.14 356.02,-81.6"/>
<polygon fill="#63b8ff" stroke="#63b8ff" points="357.54,-84.76 364.92,-77.16 354.41,-78.5 357.54,-84.76"/>
</a>
</g>
</g>
<!-- Node15&#45;&gt;Node7 -->
<g id="edge20_Node000015_Node000007" class="edge">
<title>Node15&#45;&gt;Node7</title>
<g id="a_edge20_Node000015_Node000007"><a xlink:title=" ">
<path fill="none" stroke="#63b8ff" d="M254.17,-114.62C250.84,-113.73 247.45,-112.83 244.23,-112 197.87,-100.07 144.77,-87.31 107.21,-78.44"/>
<polygon fill="#63b8ff" stroke="#63b8ff" points="108.08,-75.05 97.54,-76.16 106.47,-81.86 108.08,-75.05"/>
</a>
</g>
</g>
<!-- Node15&#45;&gt;Node8 -->
<g id="edge21_Node000015_Node000008" class="edge">
<title>Node15&#45;&gt;Node8</title>
<g id="a_edge21_Node000015_Node000008"><a xlink:title=" ">
<path fill="none" stroke="#63b8ff" d="M300.15,-114.49C332.04,-105.42 390.22,-88.89 428.81,-77.92"/>
<polygon fill="#63b8ff" stroke="#63b8ff" points="429.5,-81.36 438.16,-75.26 427.59,-74.63 429.5,-81.36"/>
</a>
</g>
</g>
<!-- Node18&#45;&gt;Node14 -->
<g id="edge30_Node000018_Node000014" class="edge">
<title>Node18&#45;&gt;Node14</title>
<g id="a_edge30_Node000018_Node000014"><a xlink:title=" ">
<path fill="none" stroke="#63b8ff" d="M191.24,-279.62C206.85,-261.36 241.57,-220.73 261.79,-197.07"/>
<polygon fill="#63b8ff" stroke="#63b8ff" points="264.42,-199.38 268.25,-189.51 259.1,-194.83 264.42,-199.38"/>
</a>
</g>
</g>
<!-- Node18&#45;&gt;Node16 -->
<g id="edge29_Node000018_Node000016" class="edge">
<title>Node18&#45;&gt;Node16</title>
<g id="a_edge29_Node000018_Node000016"><a xlink:title=" ">
<path fill="none" stroke="#63b8ff" d="M204.59,-282.05C233.07,-272.79 283.73,-256.31 316.9,-245.52"/>
<polygon fill="#63b8ff" stroke="#63b8ff" points="317.56,-248.98 325.98,-242.56 315.39,-242.33 317.56,-248.98"/>
</a>
</g>
</g>
<!-- Node19 -->
<g id="Node000019" class="node">
<title>Node19</title>
<g id="a_Node000019"><a xlink:href="_transform_8h.html" target="_top" xlink:title=" ">
<polygon fill="white" stroke="#666666" points="230.48,-188 161.98,-188 161.98,-168 230.48,-168 230.48,-188"/>
<text text-anchor="middle" x="196.23" y="-174.5" font-family="Helvetica,sans-Serif" font-size="10.00">Transform.h</text>
</a>
</g>
</g>
<!-- Node18&#45;&gt;Node19 -->
<g id="edge26_Node000018_Node000019" class="edge">
<title>Node18&#45;&gt;Node19</title>
<g id="a_edge26_Node000018_Node000019"><a xlink:title=" ">
<path fill="none" stroke="#63b8ff" d="M184.34,-279.62C186.42,-262.01 190.96,-223.59 193.79,-199.65"/>
<polygon fill="#63b8ff" stroke="#63b8ff" points="197.25,-200.2 194.95,-189.86 190.3,-199.38 197.25,-200.2"/>
</a>
</g>
</g>
<!-- Node19&#45;&gt;Node10 -->
<g id="edge28_Node000019_Node000010" class="edge">
<title>Node19&#45;&gt;Node10</title>
<g id="a_edge28_Node000019_Node000010"><a xlink:title=" ">
<path fill="none" stroke="#63b8ff" d="M161.68,-169.24C95.31,-152.85 -39.15,-111.6 11.23,-56 38.78,-25.6 317.97,-14.98 425.41,-11.99"/>
<polygon fill="#63b8ff" stroke="#63b8ff" points="425.33,-15.5 435.23,-11.73 425.14,-8.5 425.33,-15.5"/>
</a>
</g>
</g>
<!-- Node19&#45;&gt;Node15 -->
<g id="edge27_Node000019_Node000015" class="edge">
<title>Node19&#45;&gt;Node15</title>
<g id="a_edge27_Node000019_Node000015"><a xlink:title=" ">
<path fill="none" stroke="#63b8ff" d="M210.34,-167.59C222.23,-159.67 239.5,-148.16 253.51,-138.82"/>
<polygon fill="#63b8ff" stroke="#63b8ff" points="255.37,-141.78 261.75,-133.32 251.49,-135.95 255.37,-141.78"/>
</a>
</g>
</g>
<!-- Node20&#45;&gt;Node8 -->
<g id="edge35_Node000020_Node000008" class="edge">
<title>Node20&#45;&gt;Node8</title>
<g id="a_edge35_Node000020_Node000008"><a xlink:title=" ">
<path fill="none" stroke="#63b8ff" d="M628.05,-279.65C626.09,-266.53 621.34,-242.23 611.23,-224 578.4,-164.78 518.89,-109.98 487.64,-83.55"/>
<polygon fill="#63b8ff" stroke="#63b8ff" points="490,-80.96 480.08,-77.26 485.53,-86.34 490,-80.96"/>
</a>
</g>
</g>
<!-- Node20&#45;&gt;Node9 -->
<g id="edge32_Node000020_Node000009" class="edge">
<title>Node20&#45;&gt;Node9</title>
<g id="a_edge32_Node000020_Node000009"><a xlink:title=" ">
<path fill="none" stroke="#63b8ff" d="M634.98,-279.69C645.83,-261.21 668.23,-218.31 668.23,-179 668.23,-179 668.23,-179 668.23,-121 668.23,-83.8 639.93,-48.49 620.11,-28.33"/>
<polygon fill="#63b8ff" stroke="#63b8ff" points="622.68,-25.94 613.08,-21.47 617.8,-30.96 622.68,-25.94"/>
</a>
</g>
</g>
<!-- Node20&#45;&gt;Node16 -->
<g id="edge33_Node000020_Node000016" class="edge">
<title>Node20&#45;&gt;Node16</title>
<g id="a_edge33_Node000020_Node000016"><a xlink:title=" ">
<path fill="none" stroke="#63b8ff" d="M592.08,-281.67C589.09,-281.1 586.11,-280.54 583.23,-280 496.25,-263.82 470.78,-265.13 382.23,-244.51"/>
<polygon fill="#63b8ff" stroke="#63b8ff" points="383.12,-241.12 372.58,-242.23 381.51,-247.94 383.12,-241.12"/>
</a>
</g>
</g>
<!-- Node21 -->
<g id="Node000021" class="node">
<title>Node21</title>
<g id="a_Node000021"><a xlink:title=" ">
<polygon fill="#e0e0e0" stroke="#999999" points="601.86,-244 550.61,-244 550.61,-224 601.86,-224 601.86,-244"/>
<text text-anchor="middle" x="576.23" y="-230.5" font-family="Helvetica,sans-Serif" font-size="10.00">sstream</text>
</a>
</g>
</g>
<!-- Node20&#45;&gt;Node21 -->
<g id="edge34_Node000020_Node000021" class="edge">
<title>Node20&#45;&gt;Node21</title>
<g id="a_edge34_Node000020_Node000021"><a xlink:title=" ">
<path fill="none" stroke="#63b8ff" d="M620,-279.59C612.63,-272.08 602.1,-261.35 593.21,-252.3"/>
<polygon fill="#63b8ff" stroke="#63b8ff" points="595.92,-250.06 586.42,-245.38 590.92,-254.97 595.92,-250.06"/>
</a>
</g>
</g>
<!-- Node22&#45;&gt;Node10 -->
<g id="edge38_Node000022_Node000010" class="edge">
<title>Node22&#45;&gt;Node10</title>
<g id="a_edge38_Node000022_Node000010"><a xlink:title=" ">
<path fill="none" stroke="#63b8ff" d="M548.66,-279.54C540.03,-260.82 522.23,-217.49 522.23,-179 522.23,-179 522.23,-179 522.23,-121 522.23,-90.9 517.12,-82.7 503.23,-56 498.12,-46.18 490.7,-36.43 483.92,-28.54"/>
<polygon fill="#63b8ff" stroke="#63b8ff" points="486.74,-26.44 477.45,-21.35 481.54,-31.13 486.74,-26.44"/>
</a>
</g>
</g>
<!-- Node22&#45;&gt;Node16 -->
<g id="edge37_Node000022_Node000016" class="edge">
<title>Node22&#45;&gt;Node16</title>
<g id="a_edge37_Node000022_Node000016"><a xlink:title=" ">
<path fill="none" stroke="#63b8ff" d="M531.63,-282.39C528.81,-281.57 525.96,-280.75 523.23,-280 462.97,-263.44 444.74,-261.64 382.05,-244.68"/>
<polygon fill="#63b8ff" stroke="#63b8ff" points="383.18,-241.36 372.61,-242.1 381.34,-248.12 383.18,-241.36"/>
</a>
</g>
</g>
</g>
</svg>
