<?xml version="1.0" encoding="UTF-8" standalone="no"?>
<!DOCTYPE svg PUBLIC "-//W3C//DTD SVG 1.1//EN"
 "http://www.w3.org/Graphics/SVG/1.1/DTD/svg11.dtd">
<!-- Generated by graphviz version 12.2.1 (20241206.2353)
 -->
<!-- Title: Celeste/CharacterController.cpp Pages: 1 -->
<svg width="605pt" height="364pt"
 viewBox="0.00 0.00 604.62 364.00" xmlns="http://www.w3.org/2000/svg" xmlns:xlink="http://www.w3.org/1999/xlink">
<g id="graph0" class="graph" transform="scale(1 1) rotate(0) translate(4 360)">
<title>Celeste/CharacterController.cpp</title>
<!-- Node1 -->
<g id="Node000001" class="node">
<title>Node1</title>
<g id="a_Node000001"><a xlink:title=" ">
<polygon fill="#999999" stroke="#666666" points="590.62,-356 434.38,-356 434.38,-336 590.62,-336 590.62,-356"/>
<text text-anchor="middle" x="512.5" y="-342.5" font-family="Helvetica,sans-Serif" font-size="10.00">Celeste/CharacterController.cpp</text>
</a>
</g>
</g>
<!-- Node2 -->
<g id="Node000002" class="node">
<title>Node2</title>
<g id="a_Node000002"><a xlink:href="pch_8h.html" target="_top" xlink:title=" ">
<polygon fill="white" stroke="#666666" points="267.5,-132 227.5,-132 227.5,-112 267.5,-112 267.5,-132"/>
<text text-anchor="middle" x="247.5" y="-118.5" font-family="Helvetica,sans-Serif" font-size="10.00">pch.h</text>
</a>
</g>
</g>
<!-- Node1&#45;&gt;Node2 -->
<g id="edge1_Node000001_Node000002" class="edge">
<title>Node1&#45;&gt;Node2</title>
<g id="a_edge1_Node000001_Node000002"><a xlink:title=" ">
<path fill="none" stroke="#63b8ff" d="M481.59,-335.52C459.91,-327.97 430.91,-316.02 408.5,-300 343.29,-253.39 284.92,-176.49 260.12,-141.44"/>
<polygon fill="#63b8ff" stroke="#63b8ff" points="263.24,-139.79 254.65,-133.59 257.5,-143.8 263.24,-139.79"/>
</a>
</g>
</g>
<!-- Node11 -->
<g id="Node000011" class="node">
<title>Node11</title>
<g id="a_Node000011"><a xlink:href="_character_controller_8h.html" target="_top" xlink:title=" ">
<polygon fill="white" stroke="#666666" points="526,-300 417,-300 417,-280 526,-280 526,-300"/>
<text text-anchor="middle" x="471.5" y="-286.5" font-family="Helvetica,sans-Serif" font-size="10.00">CharacterController.h</text>
</a>
</g>
</g>
<!-- Node1&#45;&gt;Node11 -->
<g id="edge11_Node000001_Node000011" class="edge">
<title>Node1&#45;&gt;Node11</title>
<g id="a_edge11_Node000001_Node000011"><a xlink:title=" ">
<path fill="none" stroke="#63b8ff" d="M505.36,-335.59C499.89,-328.39 492.18,-318.23 485.49,-309.43"/>
<polygon fill="#63b8ff" stroke="#63b8ff" points="488.31,-307.35 479.48,-301.5 482.73,-311.58 488.31,-307.35"/>
</a>
</g>
</g>
<!-- Node15 -->
<g id="Node000015" class="node">
<title>Node15</title>
<g id="a_Node000015"><a xlink:href="_vector2x2f_8h.html" target="_top" xlink:title=" ">
<polygon fill="white" stroke="#666666" points="579.88,-244 509.12,-244 509.12,-224 579.88,-224 579.88,-244"/>
<text text-anchor="middle" x="544.5" y="-230.5" font-family="Helvetica,sans-Serif" font-size="10.00">Vector2x2f.h</text>
</a>
</g>
</g>
<!-- Node1&#45;&gt;Node15 -->
<g id="edge28_Node000001_Node000015" class="edge">
<title>Node1&#45;&gt;Node15</title>
<g id="a_edge28_Node000001_Node000015"><a xlink:title=" ">
<path fill="none" stroke="#63b8ff" d="M518.41,-335.74C523.75,-326.91 531.39,-313.06 535.5,-300 540.02,-285.66 542.27,-268.82 543.39,-255.88"/>
<polygon fill="#63b8ff" stroke="#63b8ff" points="546.88,-256.2 544.07,-245.98 539.89,-255.72 546.88,-256.2"/>
</a>
</g>
</g>
<!-- Node16 -->
<g id="Node000016" class="node">
<title>Node16</title>
<g id="a_Node000016"><a xlink:href="utils_8h.html" target="_top" xlink:title=" ">
<polygon fill="white" stroke="#666666" points="596.62,-188 554.38,-188 554.38,-168 596.62,-168 596.62,-188"/>
<text text-anchor="middle" x="575.5" y="-174.5" font-family="Helvetica,sans-Serif" font-size="10.00">utils.h</text>
</a>
</g>
</g>
<!-- Node1&#45;&gt;Node16 -->
<g id="edge27_Node000001_Node000016" class="edge">
<title>Node1&#45;&gt;Node16</title>
<g id="a_edge27_Node000001_Node000016"><a xlink:title=" ">
<path fill="none" stroke="#63b8ff" d="M523.51,-335.51C541.58,-319.08 576.69,-283.3 588.5,-244 592.96,-229.15 589.13,-211.92 584.49,-198.94"/>
<polygon fill="#63b8ff" stroke="#63b8ff" points="587.79,-197.75 580.79,-189.8 581.3,-200.38 587.79,-197.75"/>
</a>
</g>
</g>
<!-- Node3 -->
<g id="Node000003" class="node">
<title>Node3</title>
<g id="a_Node000003"><a xlink:title=" ">
<polygon fill="#e0e0e0" stroke="#999999" points="300.38,-76 256.62,-76 256.62,-56 300.38,-56 300.38,-76"/>
<text text-anchor="middle" x="278.5" y="-62.5" font-family="Helvetica,sans-Serif" font-size="10.00">SDL.h</text>
</a>
</g>
</g>
<!-- Node2&#45;&gt;Node3 -->
<g id="edge2_Node000002_Node000003" class="edge">
<title>Node2&#45;&gt;Node3</title>
<g id="a_edge2_Node000002_Node000003"><a xlink:title=" ">
<path fill="none" stroke="#63b8ff" d="M252.9,-111.59C256.94,-104.55 262.62,-94.67 267.59,-86"/>
<polygon fill="#63b8ff" stroke="#63b8ff" points="270.47,-88.03 272.41,-77.61 264.39,-84.54 270.47,-88.03"/>
</a>
</g>
</g>
<!-- Node4 -->
<g id="Node000004" class="node">
<title>Node4</title>
<g id="a_Node000004"><a xlink:title=" ">
<polygon fill="#e0e0e0" stroke="#999999" points="396.25,-76 318.75,-76 318.75,-56 396.25,-56 396.25,-76"/>
<text text-anchor="middle" x="357.5" y="-62.5" font-family="Helvetica,sans-Serif" font-size="10.00">SDL_opengl.h</text>
</a>
</g>
</g>
<!-- Node2&#45;&gt;Node4 -->
<g id="edge3_Node000002_Node000004" class="edge">
<title>Node2&#45;&gt;Node4</title>
<g id="a_edge3_Node000002_Node000004"><a xlink:title=" ">
<path fill="none" stroke="#63b8ff" d="M266.66,-111.59C283.59,-103.28 308.55,-91.03 328.02,-81.47"/>
<polygon fill="#63b8ff" stroke="#63b8ff" points="329.4,-84.7 336.83,-77.15 326.31,-78.41 329.4,-84.7"/>
</a>
</g>
</g>
<!-- Node5 -->
<g id="Node000005" class="node">
<title>Node5</title>
<g id="a_Node000005"><a xlink:title=" ">
<polygon fill="#e0e0e0" stroke="#999999" points="472.5,-76 414.5,-76 414.5,-56 472.5,-56 472.5,-76"/>
<text text-anchor="middle" x="443.5" y="-62.5" font-family="Helvetica,sans-Serif" font-size="10.00">SDL_ttf.h</text>
</a>
</g>
</g>
<!-- Node2&#45;&gt;Node5 -->
<g id="edge4_Node000002_Node000005" class="edge">
<title>Node2&#45;&gt;Node5</title>
<g id="a_edge4_Node000002_Node000005"><a xlink:title=" ">
<path fill="none" stroke="#63b8ff" d="M267.75,-114.61C270.68,-113.71 273.66,-112.82 276.5,-112 319.64,-99.5 369.39,-86.24 403.29,-77.38"/>
<polygon fill="#63b8ff" stroke="#63b8ff" points="403.89,-80.84 412.68,-74.93 402.12,-74.07 403.89,-80.84"/>
</a>
</g>
</g>
<!-- Node6 -->
<g id="Node000006" class="node">
<title>Node6</title>
<g id="a_Node000006"><a xlink:title=" ">
<polygon fill="#e0e0e0" stroke="#999999" points="73,-76 0,-76 0,-56 73,-56 73,-76"/>
<text text-anchor="middle" x="36.5" y="-62.5" font-family="Helvetica,sans-Serif" font-size="10.00">SDL_mixer.h</text>
</a>
</g>
</g>
<!-- Node2&#45;&gt;Node6 -->
<g id="edge5_Node000002_Node000006" class="edge">
<title>Node2&#45;&gt;Node6</title>
<g id="a_edge5_Node000002_Node000006"><a xlink:title=" ">
<path fill="none" stroke="#63b8ff" d="M227.27,-115.82C194.56,-107.45 129.18,-90.72 84.15,-79.2"/>
<polygon fill="#63b8ff" stroke="#63b8ff" points="85.2,-75.85 74.64,-76.76 83.46,-82.63 85.2,-75.85"/>
</a>
</g>
</g>
<!-- Node7 -->
<g id="Node000007" class="node">
<title>Node7</title>
<g id="a_Node000007"><a xlink:title=" ">
<polygon fill="#e0e0e0" stroke="#999999" points="166.12,-76 90.88,-76 90.88,-56 166.12,-56 166.12,-76"/>
<text text-anchor="middle" x="128.5" y="-62.5" font-family="Helvetica,sans-Serif" font-size="10.00">SDL_image.h</text>
</a>
</g>
</g>
<!-- Node2&#45;&gt;Node7 -->
<g id="edge6_Node000002_Node000007" class="edge">
<title>Node2&#45;&gt;Node7</title>
<g id="a_edge6_Node000002_Node000007"><a xlink:title=" ">
<path fill="none" stroke="#63b8ff" d="M227.04,-111.72C208.48,-103.29 180.85,-90.75 159.56,-81.09"/>
<polygon fill="#63b8ff" stroke="#63b8ff" points="161.02,-77.91 150.47,-76.97 158.13,-84.29 161.02,-77.91"/>
</a>
</g>
</g>
<!-- Node8 -->
<g id="Node000008" class="node">
<title>Node8</title>
<g id="a_Node000008"><a xlink:href="structs_8h.html" target="_top" xlink:title=" ">
<polygon fill="white" stroke="#666666" points="238.62,-76 184.38,-76 184.38,-56 238.62,-56 238.62,-76"/>
<text text-anchor="middle" x="211.5" y="-62.5" font-family="Helvetica,sans-Serif" font-size="10.00">structs.h</text>
</a>
</g>
</g>
<!-- Node2&#45;&gt;Node8 -->
<g id="edge7_Node000002_Node000008" class="edge">
<title>Node2&#45;&gt;Node8</title>
<g id="a_edge7_Node000002_Node000008"><a xlink:title=" ">
<path fill="none" stroke="#63b8ff" d="M241.23,-111.59C236.48,-104.47 229.8,-94.45 223.98,-85.72"/>
<polygon fill="#63b8ff" stroke="#63b8ff" points="227,-83.94 218.54,-77.56 221.17,-87.82 227,-83.94"/>
</a>
</g>
</g>
<!-- Node9 -->
<g id="Node000009" class="node">
<title>Node9</title>
<g id="a_Node000009"><a xlink:title=" ">
<polygon fill="#e0e0e0" stroke="#999999" points="231.5,-20 191.5,-20 191.5,0 231.5,0 231.5,-20"/>
<text text-anchor="middle" x="211.5" y="-6.5" font-family="Helvetica,sans-Serif" font-size="10.00">string</text>
</a>
</g>
</g>
<!-- Node8&#45;&gt;Node9 -->
<g id="edge8_Node000008_Node000009" class="edge">
<title>Node8&#45;&gt;Node9</title>
<g id="a_edge8_Node000008_Node000009"><a xlink:title=" ">
<path fill="none" stroke="#63b8ff" d="M211.5,-55.59C211.5,-49.01 211.5,-39.96 211.5,-31.73"/>
<polygon fill="#63b8ff" stroke="#63b8ff" points="215,-31.81 211.5,-21.81 208,-31.81 215,-31.81"/>
</a>
</g>
</g>
<!-- Node10 -->
<g id="Node000010" class="node">
<title>Node10</title>
<g id="a_Node000010"><a xlink:href="_vector2f_8h.html" target="_top" xlink:title=" ">
<polygon fill="white" stroke="#666666" points="419.62,-20 359.38,-20 359.38,0 419.62,0 419.62,-20"/>
<text text-anchor="middle" x="389.5" y="-6.5" font-family="Helvetica,sans-Serif" font-size="10.00">Vector2f.h</text>
</a>
</g>
</g>
<!-- Node8&#45;&gt;Node10 -->
<g id="edge9_Node000008_Node000010" class="edge">
<title>Node8&#45;&gt;Node10</title>
<g id="a_edge9_Node000008_Node000010"><a xlink:title=" ">
<path fill="none" stroke="#63b8ff" d="M237.24,-55.59C266.45,-46.16 314.19,-31.65 348.51,-21.76"/>
<polygon fill="#63b8ff" stroke="#63b8ff" points="349.02,-25.25 357.68,-19.14 347.1,-18.52 349.02,-25.25"/>
</a>
</g>
</g>
<!-- Node10&#45;&gt;Node8 -->
<g id="edge10_Node000010_Node000008" class="edge">
<title>Node10&#45;&gt;Node8</title>
<g id="a_edge10_Node000010_Node000008"><a xlink:title=" ">
<path fill="none" stroke="#63b8ff" d="M363.58,-20.46C333.69,-30.12 284.54,-45.04 250.15,-54.91"/>
<polygon fill="#63b8ff" stroke="#63b8ff" points="249.23,-51.54 240.56,-57.64 251.14,-58.27 249.23,-51.54"/>
</a>
</g>
</g>
<!-- Node12 -->
<g id="Node000012" class="node">
<title>Node12</title>
<g id="a_Node000012"><a xlink:href="_game_object_8h.html" target="_top" xlink:title=" ">
<polygon fill="white" stroke="#666666" points="453,-244 374,-244 374,-224 453,-224 453,-244"/>
<text text-anchor="middle" x="413.5" y="-230.5" font-family="Helvetica,sans-Serif" font-size="10.00">GameObject.h</text>
</a>
</g>
</g>
<!-- Node11&#45;&gt;Node12 -->
<g id="edge12_Node000011_Node000012" class="edge">
<title>Node11&#45;&gt;Node12</title>
<g id="a_edge12_Node000011_Node000012"><a xlink:title=" ">
<path fill="none" stroke="#63b8ff" d="M461.4,-279.59C453.25,-272.01 441.57,-261.13 431.78,-252.02"/>
<polygon fill="#63b8ff" stroke="#63b8ff" points="434.3,-249.58 424.59,-245.33 429.53,-254.71 434.3,-249.58"/>
</a>
</g>
</g>
<!-- Node11&#45;&gt;Node15 -->
<g id="edge22_Node000011_Node000015" class="edge">
<title>Node11&#45;&gt;Node15</title>
<g id="a_edge22_Node000011_Node000015"><a xlink:title=" ">
<path fill="none" stroke="#63b8ff" d="M484.22,-279.59C494.89,-271.7 510.38,-260.24 522.98,-250.92"/>
<polygon fill="#63b8ff" stroke="#63b8ff" points="524.76,-253.96 530.71,-245.2 520.59,-248.33 524.76,-253.96"/>
</a>
</g>
</g>
<!-- Node17 -->
<g id="Node000017" class="node">
<title>Node17</title>
<g id="a_Node000017"><a xlink:title=" ">
<polygon fill="#e0e0e0" stroke="#999999" points="572,-132 529,-132 529,-112 572,-112 572,-132"/>
<text text-anchor="middle" x="550.5" y="-118.5" font-family="Helvetica,sans-Serif" font-size="10.00">vector</text>
</a>
</g>
</g>
<!-- Node11&#45;&gt;Node17 -->
<g id="edge26_Node000011_Node000017" class="edge">
<title>Node11&#45;&gt;Node17</title>
<g id="a_edge26_Node000011_Node000017"><a xlink:title=" ">
<path fill="none" stroke="#63b8ff" d="M475.51,-279.69C481.01,-267.02 491.24,-243.68 500.5,-224 513.93,-195.45 530.28,-162.79 540.54,-142.53"/>
<polygon fill="#63b8ff" stroke="#63b8ff" points="543.59,-144.26 545,-133.76 537.35,-141.09 543.59,-144.26"/>
</a>
</g>
</g>
<!-- Node13 -->
<g id="Node000013" class="node">
<title>Node13</title>
<g id="a_Node000013"><a xlink:href="_transform_8h.html" target="_top" xlink:title=" ">
<polygon fill="white" stroke="#666666" points="447.75,-188 379.25,-188 379.25,-168 447.75,-168 447.75,-188"/>
<text text-anchor="middle" x="413.5" y="-174.5" font-family="Helvetica,sans-Serif" font-size="10.00">Transform.h</text>
</a>
</g>
</g>
<!-- Node12&#45;&gt;Node13 -->
<g id="edge13_Node000012_Node000013" class="edge">
<title>Node12&#45;&gt;Node13</title>
<g id="a_edge13_Node000012_Node000013"><a xlink:title=" ">
<path fill="none" stroke="#63b8ff" d="M413.5,-223.59C413.5,-217.01 413.5,-207.96 413.5,-199.73"/>
<polygon fill="#63b8ff" stroke="#63b8ff" points="417,-199.81 413.5,-189.81 410,-199.81 417,-199.81"/>
</a>
</g>
</g>
<!-- Node13&#45;&gt;Node10 -->
<g id="edge21_Node000013_Node000010" class="edge">
<title>Node13&#45;&gt;Node10</title>
<g id="a_edge21_Node000013_Node000010"><a xlink:title=" ">
<path fill="none" stroke="#63b8ff" d="M425.89,-167.73C451.72,-147.23 506.89,-96.68 481.5,-56 470.33,-38.09 449.73,-27.12 430.86,-20.5"/>
<polygon fill="#63b8ff" stroke="#63b8ff" points="432.06,-17.21 421.47,-17.54 429.96,-23.88 432.06,-17.21"/>
</a>
</g>
</g>
<!-- Node14 -->
<g id="Node000014" class="node">
<title>Node14</title>
<g id="a_Node000014"><a xlink:href="base_8h.html" target="_top" xlink:title=" ">
<polygon fill="white" stroke="#666666" points="331.12,-132 285.88,-132 285.88,-112 331.12,-112 331.12,-132"/>
<text text-anchor="middle" x="308.5" y="-118.5" font-family="Helvetica,sans-Serif" font-size="10.00">base.h</text>
</a>
</g>
</g>
<!-- Node13&#45;&gt;Node14 -->
<g id="edge14_Node000013_Node000014" class="edge">
<title>Node13&#45;&gt;Node14</title>
<g id="a_edge14_Node000013_Node000014"><a xlink:title=" ">
<path fill="none" stroke="#63b8ff" d="M395.21,-167.59C379.2,-159.36 355.67,-147.26 337.16,-137.74"/>
<polygon fill="#63b8ff" stroke="#63b8ff" points="338.77,-134.63 328.28,-133.17 335.57,-140.86 338.77,-134.63"/>
</a>
</g>
</g>
<!-- Node14&#45;&gt;Node3 -->
<g id="edge15_Node000014_Node000003" class="edge">
<title>Node14&#45;&gt;Node3</title>
<g id="a_edge15_Node000014_Node000003"><a xlink:title=" ">
<path fill="none" stroke="#63b8ff" d="M303.27,-111.59C299.4,-104.63 293.99,-94.89 289.22,-86.29"/>
<polygon fill="#63b8ff" stroke="#63b8ff" points="292.32,-84.66 284.4,-77.62 286.2,-88.06 292.32,-84.66"/>
</a>
</g>
</g>
<!-- Node14&#45;&gt;Node4 -->
<g id="edge16_Node000014_Node000004" class="edge">
<title>Node14&#45;&gt;Node4</title>
<g id="a_edge16_Node000014_Node000004"><a xlink:title=" ">
<path fill="none" stroke="#63b8ff" d="M317.04,-111.59C323.78,-104.16 333.39,-93.58 341.54,-84.58"/>
<polygon fill="#63b8ff" stroke="#63b8ff" points="343.92,-87.18 348.05,-77.42 338.73,-82.47 343.92,-87.18"/>
</a>
</g>
</g>
<!-- Node14&#45;&gt;Node5 -->
<g id="edge17_Node000014_Node000005" class="edge">
<title>Node14&#45;&gt;Node5</title>
<g id="a_edge17_Node000014_Node000005"><a xlink:title=" ">
<path fill="none" stroke="#63b8ff" d="M331.4,-111.84C352.8,-103.28 385.02,-90.39 409.43,-80.63"/>
<polygon fill="#63b8ff" stroke="#63b8ff" points="410.64,-83.91 418.63,-76.95 408.04,-77.41 410.64,-83.91"/>
</a>
</g>
</g>
<!-- Node14&#45;&gt;Node6 -->
<g id="edge18_Node000014_Node000006" class="edge">
<title>Node14&#45;&gt;Node6</title>
<g id="a_edge18_Node000014_Node000006"><a xlink:title=" ">
<path fill="none" stroke="#63b8ff" d="M285.49,-114.26C282.48,-113.45 279.42,-112.68 276.5,-112 194.18,-92.87 170.01,-92.63 84.63,-76.56"/>
<polygon fill="#63b8ff" stroke="#63b8ff" points="85.29,-73.13 74.82,-74.69 83.98,-80 85.29,-73.13"/>
</a>
</g>
</g>
<!-- Node14&#45;&gt;Node7 -->
<g id="edge19_Node000014_Node000007" class="edge">
<title>Node14&#45;&gt;Node7</title>
<g id="a_edge19_Node000014_Node000007"><a xlink:title=" ">
<path fill="none" stroke="#63b8ff" d="M285.7,-114.16C256.81,-105.49 206.45,-90.39 170.52,-79.61"/>
<polygon fill="#63b8ff" stroke="#63b8ff" points="171.9,-76.37 161.32,-76.85 169.89,-83.07 171.9,-76.37"/>
</a>
</g>
</g>
<!-- Node14&#45;&gt;Node8 -->
<g id="edge20_Node000014_Node000008" class="edge">
<title>Node14&#45;&gt;Node8</title>
<g id="a_edge20_Node000014_Node000008"><a xlink:title=" ">
<path fill="none" stroke="#63b8ff" d="M291.6,-111.59C276.95,-103.44 255.48,-91.48 238.45,-82"/>
<polygon fill="#63b8ff" stroke="#63b8ff" points="240.29,-79.02 229.85,-77.22 236.89,-85.14 240.29,-79.02"/>
</a>
</g>
</g>
<!-- Node15&#45;&gt;Node16 -->
<g id="edge23_Node000015_Node000016" class="edge">
<title>Node15&#45;&gt;Node16</title>
<g id="a_edge23_Node000015_Node000016"><a xlink:title=" ">
<path fill="none" stroke="#63b8ff" d="M549.9,-223.59C553.94,-216.55 559.62,-206.67 564.59,-198"/>
<polygon fill="#63b8ff" stroke="#63b8ff" points="567.47,-200.03 569.41,-189.61 561.39,-196.54 567.47,-200.03"/>
</a>
</g>
</g>
<!-- Node16&#45;&gt;Node10 -->
<g id="edge25_Node000016_Node000010" class="edge">
<title>Node16&#45;&gt;Node10</title>
<g id="a_edge25_Node000016_Node000010"><a xlink:title=" ">
<path fill="none" stroke="#63b8ff" d="M579.47,-167.53C584.37,-154.28 590.97,-129.81 581.5,-112 551.69,-55.93 477.87,-29.91 430.93,-18.67"/>
<polygon fill="#63b8ff" stroke="#63b8ff" points="431.91,-15.31 421.39,-16.52 430.37,-22.13 431.91,-15.31"/>
</a>
</g>
</g>
<!-- Node16&#45;&gt;Node17 -->
<g id="edge24_Node000016_Node000017" class="edge">
<title>Node16&#45;&gt;Node17</title>
<g id="a_edge24_Node000016_Node000017"><a xlink:title=" ">
<path fill="none" stroke="#63b8ff" d="M571.15,-167.59C567.95,-160.7 563.51,-151.1 559.56,-142.57"/>
<polygon fill="#63b8ff" stroke="#63b8ff" points="562.82,-141.28 555.44,-133.67 556.47,-144.22 562.82,-141.28"/>
</a>
</g>
</g>
</g>
</svg>
