<?xml version="1.0" encoding="UTF-8" standalone="no"?>
<!DOCTYPE svg PUBLIC "-//W3C//DTD SVG 1.1//EN"
 "http://www.w3.org/Graphics/SVG/1.1/DTD/svg11.dtd">
<!-- Generated by graphviz version 12.2.1 (20241206.2353)
 -->
<!-- Title: Celeste/CogPlatform.cpp Pages: 1 -->
<svg width="754pt" height="588pt"
 viewBox="0.00 0.00 753.75 588.00" xmlns="http://www.w3.org/2000/svg" xmlns:xlink="http://www.w3.org/1999/xlink">
<g id="graph0" class="graph" transform="scale(1 1) rotate(0) translate(4 584)">
<title>Celeste/CogPlatform.cpp</title>
<!-- Node1 -->
<g id="Node000001" class="node">
<title>Node1</title>
<g id="a_Node000001"><a xlink:title=" ">
<polygon fill="#999999" stroke="#666666" points="370.88,-580 244.62,-580 244.62,-560 370.88,-560 370.88,-580"/>
<text text-anchor="middle" x="307.75" y="-566.5" font-family="Helvetica,sans-Serif" font-size="10.00">Celeste/CogPlatform.cpp</text>
</a>
</g>
</g>
<!-- Node2 -->
<g id="Node000002" class="node">
<title>Node2</title>
<g id="a_Node000002"><a xlink:href="pch_8h.html" target="_top" xlink:title=" ">
<polygon fill="white" stroke="#666666" points="345.75,-132 305.75,-132 305.75,-112 345.75,-112 345.75,-132"/>
<text text-anchor="middle" x="325.75" y="-118.5" font-family="Helvetica,sans-Serif" font-size="10.00">pch.h</text>
</a>
</g>
</g>
<!-- Node1&#45;&gt;Node2 -->
<g id="edge1_Node000001_Node000002" class="edge">
<title>Node1&#45;&gt;Node2</title>
<g id="a_edge1_Node000001_Node000002"><a xlink:title=" ">
<path fill="none" stroke="#63b8ff" d="M244.32,-565.36C175.94,-557.61 76.75,-533.51 76.75,-459 76.75,-459 76.75,-459 76.75,-233 76.75,-138.93 227.29,-124.64 294.26,-122.94"/>
<polygon fill="#63b8ff" stroke="#63b8ff" points="293.92,-126.45 303.86,-122.78 293.8,-119.45 293.92,-126.45"/>
</a>
</g>
</g>
<!-- Node11 -->
<g id="Node000011" class="node">
<title>Node11</title>
<g id="a_Node000011"><a xlink:href="_cog_platform_8h.html" target="_top" xlink:title=" ">
<polygon fill="white" stroke="#666666" points="347.25,-524 268.25,-524 268.25,-504 347.25,-504 347.25,-524"/>
<text text-anchor="middle" x="307.75" y="-510.5" font-family="Helvetica,sans-Serif" font-size="10.00">CogPlatform.h</text>
</a>
</g>
</g>
<!-- Node1&#45;&gt;Node11 -->
<g id="edge11_Node000001_Node000011" class="edge">
<title>Node1&#45;&gt;Node11</title>
<g id="a_edge11_Node000001_Node000011"><a xlink:title=" ">
<path fill="none" stroke="#63b8ff" d="M307.75,-559.59C307.75,-553.01 307.75,-543.96 307.75,-535.73"/>
<polygon fill="#63b8ff" stroke="#63b8ff" points="311.25,-535.81 307.75,-525.81 304.25,-535.81 311.25,-535.81"/>
</a>
</g>
</g>
<!-- Node19 -->
<g id="Node000019" class="node">
<title>Node19</title>
<g id="a_Node000019"><a xlink:href="utils_8h.html" target="_top" xlink:title=" ">
<polygon fill="white" stroke="#666666" points="703.88,-244 661.62,-244 661.62,-224 703.88,-224 703.88,-244"/>
<text text-anchor="middle" x="682.75" y="-230.5" font-family="Helvetica,sans-Serif" font-size="10.00">utils.h</text>
</a>
</g>
</g>
<!-- Node1&#45;&gt;Node19 -->
<g id="edge52_Node000001_Node000019" class="edge">
<title>Node1&#45;&gt;Node19</title>
<g id="a_edge52_Node000001_Node000019"><a xlink:title=" ">
<path fill="none" stroke="#63b8ff" d="M370.97,-566.23C492.27,-559.19 745.75,-535.34 745.75,-459 745.75,-459 745.75,-459 745.75,-345 745.75,-314.9 741.95,-305.98 726.75,-280 720.67,-269.61 711.68,-259.83 703.4,-252.06"/>
<polygon fill="#63b8ff" stroke="#63b8ff" points="705.81,-249.51 696.01,-245.49 701.16,-254.75 705.81,-249.51"/>
</a>
</g>
</g>
<!-- Node3 -->
<g id="Node000003" class="node">
<title>Node3</title>
<g id="a_Node000003"><a xlink:title=" ">
<polygon fill="#e0e0e0" stroke="#999999" points="280.62,-76 236.88,-76 236.88,-56 280.62,-56 280.62,-76"/>
<text text-anchor="middle" x="258.75" y="-62.5" font-family="Helvetica,sans-Serif" font-size="10.00">SDL.h</text>
</a>
</g>
</g>
<!-- Node2&#45;&gt;Node3 -->
<g id="edge2_Node000002_Node000003" class="edge">
<title>Node2&#45;&gt;Node3</title>
<g id="a_edge2_Node000002_Node000003"><a xlink:title=" ">
<path fill="none" stroke="#63b8ff" d="M314.08,-111.59C304.47,-103.85 290.62,-92.69 279.18,-83.47"/>
<polygon fill="#63b8ff" stroke="#63b8ff" points="281.45,-80.8 271.47,-77.25 277.05,-86.25 281.45,-80.8"/>
</a>
</g>
</g>
<!-- Node4 -->
<g id="Node000004" class="node">
<title>Node4</title>
<g id="a_Node000004"><a xlink:title=" ">
<polygon fill="#e0e0e0" stroke="#999999" points="448.5,-76 371,-76 371,-56 448.5,-56 448.5,-76"/>
<text text-anchor="middle" x="409.75" y="-62.5" font-family="Helvetica,sans-Serif" font-size="10.00">SDL_opengl.h</text>
</a>
</g>
</g>
<!-- Node2&#45;&gt;Node4 -->
<g id="edge3_Node000002_Node000004" class="edge">
<title>Node2&#45;&gt;Node4</title>
<g id="a_edge3_Node000002_Node000004"><a xlink:title=" ">
<path fill="none" stroke="#63b8ff" d="M340.38,-111.59C352.83,-103.59 370.97,-91.93 385.57,-82.54"/>
<polygon fill="#63b8ff" stroke="#63b8ff" points="387.21,-85.65 393.73,-77.3 383.43,-79.76 387.21,-85.65"/>
</a>
</g>
</g>
<!-- Node5 -->
<g id="Node000005" class="node">
<title>Node5</title>
<g id="a_Node000005"><a xlink:title=" ">
<polygon fill="#e0e0e0" stroke="#999999" points="524.75,-76 466.75,-76 466.75,-56 524.75,-56 524.75,-76"/>
<text text-anchor="middle" x="495.75" y="-62.5" font-family="Helvetica,sans-Serif" font-size="10.00">SDL_ttf.h</text>
</a>
</g>
</g>
<!-- Node2&#45;&gt;Node5 -->
<g id="edge4_Node000002_Node000005" class="edge">
<title>Node2&#45;&gt;Node5</title>
<g id="a_edge4_Node000002_Node000005"><a xlink:title=" ">
<path fill="none" stroke="#63b8ff" d="M345.92,-114.59C372.9,-106.02 421.35,-90.63 455.84,-79.68"/>
<polygon fill="#63b8ff" stroke="#63b8ff" points="456.59,-83.11 465.07,-76.75 454.47,-76.44 456.59,-83.11"/>
</a>
</g>
</g>
<!-- Node6 -->
<g id="Node000006" class="node">
<title>Node6</title>
<g id="a_Node000006"><a xlink:title=" ">
<polygon fill="#e0e0e0" stroke="#999999" points="616.25,-76 543.25,-76 543.25,-56 616.25,-56 616.25,-76"/>
<text text-anchor="middle" x="579.75" y="-62.5" font-family="Helvetica,sans-Serif" font-size="10.00">SDL_mixer.h</text>
</a>
</g>
</g>
<!-- Node2&#45;&gt;Node6 -->
<g id="edge5_Node000002_Node000006" class="edge">
<title>Node2&#45;&gt;Node6</title>
<g id="a_edge5_Node000002_Node000006"><a xlink:title=" ">
<path fill="none" stroke="#63b8ff" d="M346.11,-116.67C386.09,-108.17 475.82,-89.1 531.72,-77.21"/>
<polygon fill="#63b8ff" stroke="#63b8ff" points="532.23,-80.68 541.28,-75.18 530.77,-73.83 532.23,-80.68"/>
</a>
</g>
</g>
<!-- Node7 -->
<g id="Node000007" class="node">
<title>Node7</title>
<g id="a_Node000007"><a xlink:title=" ">
<polygon fill="#e0e0e0" stroke="#999999" points="218.38,-76 143.12,-76 143.12,-56 218.38,-56 218.38,-76"/>
<text text-anchor="middle" x="180.75" y="-62.5" font-family="Helvetica,sans-Serif" font-size="10.00">SDL_image.h</text>
</a>
</g>
</g>
<!-- Node2&#45;&gt;Node7 -->
<g id="edge6_Node000002_Node000007" class="edge">
<title>Node2&#45;&gt;Node7</title>
<g id="a_edge6_Node000002_Node000007"><a xlink:title=" ">
<path fill="none" stroke="#63b8ff" d="M305.28,-113.38C282.33,-104.83 244.68,-90.81 216.78,-80.42"/>
<polygon fill="#63b8ff" stroke="#63b8ff" points="218.25,-77.23 207.66,-77.02 215.81,-83.79 218.25,-77.23"/>
</a>
</g>
</g>
<!-- Node8 -->
<g id="Node000008" class="node">
<title>Node8</title>
<g id="a_Node000008"><a xlink:href="structs_8h.html" target="_top" xlink:title=" ">
<polygon fill="white" stroke="#666666" points="352.88,-76 298.62,-76 298.62,-56 352.88,-56 352.88,-76"/>
<text text-anchor="middle" x="325.75" y="-62.5" font-family="Helvetica,sans-Serif" font-size="10.00">structs.h</text>
</a>
</g>
</g>
<!-- Node2&#45;&gt;Node8 -->
<g id="edge7_Node000002_Node000008" class="edge">
<title>Node2&#45;&gt;Node8</title>
<g id="a_edge7_Node000002_Node000008"><a xlink:title=" ">
<path fill="none" stroke="#63b8ff" d="M325.75,-111.59C325.75,-105.01 325.75,-95.96 325.75,-87.73"/>
<polygon fill="#63b8ff" stroke="#63b8ff" points="329.25,-87.81 325.75,-77.81 322.25,-87.81 329.25,-87.81"/>
</a>
</g>
</g>
<!-- Node9 -->
<g id="Node000009" class="node">
<title>Node9</title>
<g id="a_Node000009"><a xlink:title=" ">
<polygon fill="#e0e0e0" stroke="#999999" points="134.75,-20 94.75,-20 94.75,0 134.75,0 134.75,-20"/>
<text text-anchor="middle" x="114.75" y="-6.5" font-family="Helvetica,sans-Serif" font-size="10.00">string</text>
</a>
</g>
</g>
<!-- Node8&#45;&gt;Node9 -->
<g id="edge8_Node000008_Node000009" class="edge">
<title>Node8&#45;&gt;Node9</title>
<g id="a_edge8_Node000008_Node000009"><a xlink:title=" ">
<path fill="none" stroke="#63b8ff" d="M298.17,-57.94C258.94,-47.9 187.24,-29.55 146.06,-19.01"/>
<polygon fill="#63b8ff" stroke="#63b8ff" points="147.09,-15.66 136.53,-16.58 145.35,-22.45 147.09,-15.66"/>
</a>
</g>
</g>
<!-- Node10 -->
<g id="Node000010" class="node">
<title>Node10</title>
<g id="a_Node000010"><a xlink:href="_vector2f_8h.html" target="_top" xlink:title=" ">
<polygon fill="white" stroke="#666666" points="514.88,-20 454.62,-20 454.62,0 514.88,0 514.88,-20"/>
<text text-anchor="middle" x="484.75" y="-6.5" font-family="Helvetica,sans-Serif" font-size="10.00">Vector2f.h</text>
</a>
</g>
</g>
<!-- Node8&#45;&gt;Node10 -->
<g id="edge9_Node000008_Node000010" class="edge">
<title>Node8&#45;&gt;Node10</title>
<g id="a_edge9_Node000008_Node000010"><a xlink:title=" ">
<path fill="none" stroke="#63b8ff" d="M348.18,-55.59C372.99,-46.55 413.2,-32.85 443.64,-23.02"/>
<polygon fill="#63b8ff" stroke="#63b8ff" points="444.47,-26.43 452.93,-20.05 442.34,-19.76 444.47,-26.43"/>
</a>
</g>
</g>
<!-- Node10&#45;&gt;Node8 -->
<g id="edge10_Node000010_Node000008" class="edge">
<title>Node10&#45;&gt;Node8</title>
<g id="a_edge10_Node000010_Node000008"><a xlink:title=" ">
<path fill="none" stroke="#63b8ff" d="M462.08,-20.49C436.41,-29.84 394.47,-44.12 363.81,-53.97"/>
<polygon fill="#63b8ff" stroke="#63b8ff" points="362.98,-50.56 354.51,-56.92 365.1,-57.23 362.98,-50.56"/>
</a>
</g>
</g>
<!-- Node12 -->
<g id="Node000012" class="node">
<title>Node12</title>
<g id="a_Node000012"><a xlink:href="_interactable_item_8h.html" target="_top" xlink:title=" ">
<polygon fill="white" stroke="#666666" points="408.12,-468 313.38,-468 313.38,-448 408.12,-448 408.12,-468"/>
<text text-anchor="middle" x="360.75" y="-454.5" font-family="Helvetica,sans-Serif" font-size="10.00">InteractableItem.h</text>
</a>
</g>
</g>
<!-- Node11&#45;&gt;Node12 -->
<g id="edge12_Node000011_Node000012" class="edge">
<title>Node11&#45;&gt;Node12</title>
<g id="a_edge12_Node000011_Node000012"><a xlink:title=" ">
<path fill="none" stroke="#63b8ff" d="M316.98,-503.59C324.35,-496.08 334.88,-485.35 343.77,-476.3"/>
<polygon fill="#63b8ff" stroke="#63b8ff" points="346.06,-478.97 350.56,-469.38 341.06,-474.06 346.06,-478.97"/>
</a>
</g>
</g>
<!-- Node30 -->
<g id="Node000030" class="node">
<title>Node30</title>
<g id="a_Node000030"><a xlink:href="_counted_item_8h.html" target="_top" xlink:title=" ">
<polygon fill="white" stroke="#666666" points="295,-468 214.5,-468 214.5,-448 295,-448 295,-468"/>
<text text-anchor="middle" x="254.75" y="-454.5" font-family="Helvetica,sans-Serif" font-size="10.00">CountedItem.h</text>
</a>
</g>
</g>
<!-- Node11&#45;&gt;Node30 -->
<g id="edge50_Node000011_Node000030" class="edge">
<title>Node11&#45;&gt;Node30</title>
<g id="a_edge50_Node000011_Node000030"><a xlink:title=" ">
<path fill="none" stroke="#63b8ff" d="M298.52,-503.59C291.15,-496.08 280.62,-485.35 271.73,-476.3"/>
<polygon fill="#63b8ff" stroke="#63b8ff" points="274.44,-474.06 264.94,-469.38 269.44,-478.97 274.44,-474.06"/>
</a>
</g>
</g>
<!-- Node13 -->
<g id="Node000013" class="node">
<title>Node13</title>
<g id="a_Node000013"><a xlink:href="_character_8h.html" target="_top" xlink:title=" ">
<polygon fill="white" stroke="#666666" points="394.25,-412 327.25,-412 327.25,-392 394.25,-392 394.25,-412"/>
<text text-anchor="middle" x="360.75" y="-398.5" font-family="Helvetica,sans-Serif" font-size="10.00">Character.h</text>
</a>
</g>
</g>
<!-- Node12&#45;&gt;Node13 -->
<g id="edge13_Node000012_Node000013" class="edge">
<title>Node12&#45;&gt;Node13</title>
<g id="a_edge13_Node000012_Node000013"><a xlink:title=" ">
<path fill="none" stroke="#63b8ff" d="M360.75,-447.59C360.75,-441.01 360.75,-431.96 360.75,-423.73"/>
<polygon fill="#63b8ff" stroke="#63b8ff" points="364.25,-423.81 360.75,-413.81 357.25,-423.81 364.25,-423.81"/>
</a>
</g>
</g>
<!-- Node14 -->
<g id="Node000014" class="node">
<title>Node14</title>
<g id="a_Node000014"><a xlink:href="_character_controller_8h.html" target="_top" xlink:title=" ">
<polygon fill="white" stroke="#666666" points="626.25,-356 517.25,-356 517.25,-336 626.25,-336 626.25,-356"/>
<text text-anchor="middle" x="571.75" y="-342.5" font-family="Helvetica,sans-Serif" font-size="10.00">CharacterController.h</text>
</a>
</g>
</g>
<!-- Node13&#45;&gt;Node14 -->
<g id="edge14_Node000013_Node000014" class="edge">
<title>Node13&#45;&gt;Node14</title>
<g id="a_edge14_Node000013_Node000014"><a xlink:title=" ">
<path fill="none" stroke="#63b8ff" d="M394.65,-392.32C429.61,-383.38 484.43,-369.35 523.81,-359.27"/>
<polygon fill="#63b8ff" stroke="#63b8ff" points="524.45,-362.72 533.27,-356.85 522.72,-355.94 524.45,-362.72"/>
</a>
</g>
</g>
<!-- Node21 -->
<g id="Node000021" class="node">
<title>Node21</title>
<g id="a_Node000021"><a xlink:href="_hair_8h.html" target="_top" xlink:title=" ">
<polygon fill="white" stroke="#666666" points="496.88,-244 454.62,-244 454.62,-224 496.88,-224 496.88,-244"/>
<text text-anchor="middle" x="475.75" y="-230.5" font-family="Helvetica,sans-Serif" font-size="10.00">Hair.h</text>
</a>
</g>
</g>
<!-- Node13&#45;&gt;Node21 -->
<g id="edge30_Node000013_Node000021" class="edge">
<title>Node13&#45;&gt;Node21</title>
<g id="a_edge30_Node000013_Node000021"><a xlink:title=" ">
<path fill="none" stroke="#63b8ff" d="M386.62,-391.62C403.4,-384.31 424.53,-372.59 437.75,-356 461.47,-326.25 470.48,-281.53 473.83,-255.61"/>
<polygon fill="#63b8ff" stroke="#63b8ff" points="477.3,-256.07 474.93,-245.74 470.35,-255.3 477.3,-256.07"/>
</a>
</g>
</g>
<!-- Node23 -->
<g id="Node000023" class="node">
<title>Node23</title>
<g id="a_Node000023"><a xlink:href="_character_texture_manager_8h.html" target="_top" xlink:title=" ">
<polygon fill="white" stroke="#666666" points="429.12,-356 292.38,-356 292.38,-336 429.12,-336 429.12,-356"/>
<text text-anchor="middle" x="360.75" y="-342.5" font-family="Helvetica,sans-Serif" font-size="10.00">CharacterTextureManager.h</text>
</a>
</g>
</g>
<!-- Node13&#45;&gt;Node23 -->
<g id="edge35_Node000013_Node000023" class="edge">
<title>Node13&#45;&gt;Node23</title>
<g id="a_edge35_Node000013_Node000023"><a xlink:title=" ">
<path fill="none" stroke="#63b8ff" d="M360.75,-391.59C360.75,-385.01 360.75,-375.96 360.75,-367.73"/>
<polygon fill="#63b8ff" stroke="#63b8ff" points="364.25,-367.81 360.75,-357.81 357.25,-367.81 364.25,-367.81"/>
</a>
</g>
</g>
<!-- Node26 -->
<g id="Node000026" class="node">
<title>Node26</title>
<g id="a_Node000026"><a xlink:href="_character_state_8h.html" target="_top" xlink:title=" ">
<polygon fill="white" stroke="#666666" points="234.88,-300 144.62,-300 144.62,-280 234.88,-280 234.88,-300"/>
<text text-anchor="middle" x="189.75" y="-286.5" font-family="Helvetica,sans-Serif" font-size="10.00">CharacterState.h</text>
</a>
</g>
</g>
<!-- Node13&#45;&gt;Node26 -->
<g id="edge42_Node000013_Node000026" class="edge">
<title>Node13&#45;&gt;Node26</title>
<g id="a_edge42_Node000013_Node000026"><a xlink:title=" ">
<path fill="none" stroke="#63b8ff" d="M343.7,-391.53C327.95,-382.67 303.99,-368.89 283.75,-356 258.64,-340.01 230.67,-320.44 211.83,-306.97"/>
<polygon fill="#63b8ff" stroke="#63b8ff" points="214.01,-304.23 203.85,-301.24 209.93,-309.92 214.01,-304.23"/>
</a>
</g>
</g>
<!-- Node27 -->
<g id="Node000027" class="node">
<title>Node27</title>
<g id="a_Node000027"><a xlink:href="_character_sound_manager_8h.html" target="_top" xlink:title=" ">
<polygon fill="white" stroke="#666666" points="236.88,-356 104.62,-356 104.62,-336 236.88,-336 236.88,-356"/>
<text text-anchor="middle" x="170.75" y="-342.5" font-family="Helvetica,sans-Serif" font-size="10.00">CharacterSoundManager.h</text>
</a>
</g>
</g>
<!-- Node13&#45;&gt;Node27 -->
<g id="edge43_Node000013_Node000027" class="edge">
<title>Node13&#45;&gt;Node27</title>
<g id="a_edge43_Node000013_Node000027"><a xlink:title=" ">
<path fill="none" stroke="#63b8ff" d="M327.65,-391.59C296.38,-382.71 249.25,-369.31 214.8,-359.52"/>
<polygon fill="#63b8ff" stroke="#63b8ff" points="216.14,-356.26 205.56,-356.89 214.22,-362.99 216.14,-356.26"/>
</a>
</g>
</g>
<!-- Node15 -->
<g id="Node000015" class="node">
<title>Node15</title>
<g id="a_Node000015"><a xlink:href="_game_object_8h.html" target="_top" xlink:title=" ">
<polygon fill="white" stroke="#666666" points="629.25,-300 550.25,-300 550.25,-280 629.25,-280 629.25,-300"/>
<text text-anchor="middle" x="589.75" y="-286.5" font-family="Helvetica,sans-Serif" font-size="10.00">GameObject.h</text>
</a>
</g>
</g>
<!-- Node14&#45;&gt;Node15 -->
<g id="edge15_Node000014_Node000015" class="edge">
<title>Node14&#45;&gt;Node15</title>
<g id="a_edge15_Node000014_Node000015"><a xlink:title=" ">
<path fill="none" stroke="#63b8ff" d="M574.89,-335.59C577.13,-328.86 580.24,-319.53 583.03,-311.15"/>
<polygon fill="#63b8ff" stroke="#63b8ff" points="586.33,-312.33 586.17,-301.73 579.69,-310.11 586.33,-312.33"/>
</a>
</g>
</g>
<!-- Node18 -->
<g id="Node000018" class="node">
<title>Node18</title>
<g id="a_Node000018"><a xlink:href="_vector2x2f_8h.html" target="_top" xlink:title=" ">
<polygon fill="white" stroke="#666666" points="718.12,-300 647.38,-300 647.38,-280 718.12,-280 718.12,-300"/>
<text text-anchor="middle" x="682.75" y="-286.5" font-family="Helvetica,sans-Serif" font-size="10.00">Vector2x2f.h</text>
</a>
</g>
</g>
<!-- Node14&#45;&gt;Node18 -->
<g id="edge25_Node000014_Node000018" class="edge">
<title>Node14&#45;&gt;Node18</title>
<g id="a_edge25_Node000014_Node000018"><a xlink:title=" ">
<path fill="none" stroke="#63b8ff" d="M591.08,-335.59C608.17,-327.28 633.35,-315.03 653,-305.47"/>
<polygon fill="#63b8ff" stroke="#63b8ff" points="654.44,-308.66 661.9,-301.14 651.38,-302.37 654.44,-308.66"/>
</a>
</g>
</g>
<!-- Node20 -->
<g id="Node000020" class="node">
<title>Node20</title>
<g id="a_Node000020"><a xlink:title=" ">
<polygon fill="#e0e0e0" stroke="#999999" points="497.25,-188 454.25,-188 454.25,-168 497.25,-168 497.25,-188"/>
<text text-anchor="middle" x="475.75" y="-174.5" font-family="Helvetica,sans-Serif" font-size="10.00">vector</text>
</a>
</g>
</g>
<!-- Node14&#45;&gt;Node20 -->
<g id="edge29_Node000014_Node000020" class="edge">
<title>Node14&#45;&gt;Node20</title>
<g id="a_edge29_Node000014_Node000020"><a xlink:title=" ">
<path fill="none" stroke="#63b8ff" d="M564.9,-335.6C558.53,-326.67 548.97,-312.75 541.75,-300 523.34,-267.48 524.16,-256.52 505.75,-224 500.73,-215.14 494.58,-205.71 489.16,-197.78"/>
<polygon fill="#63b8ff" stroke="#63b8ff" points="492.07,-195.83 483.47,-189.64 486.33,-199.84 492.07,-195.83"/>
</a>
</g>
</g>
<!-- Node16 -->
<g id="Node000016" class="node">
<title>Node16</title>
<g id="a_Node000016"><a xlink:href="_transform_8h.html" target="_top" xlink:title=" ">
<polygon fill="white" stroke="#666666" points="598,-188 529.5,-188 529.5,-168 598,-168 598,-188"/>
<text text-anchor="middle" x="563.75" y="-174.5" font-family="Helvetica,sans-Serif" font-size="10.00">Transform.h</text>
</a>
</g>
</g>
<!-- Node15&#45;&gt;Node16 -->
<g id="edge16_Node000015_Node000016" class="edge">
<title>Node15&#45;&gt;Node16</title>
<g id="a_edge16_Node000015_Node000016"><a xlink:title=" ">
<path fill="none" stroke="#63b8ff" d="M587.53,-279.62C583.35,-261.92 574.21,-223.24 568.55,-199.32"/>
<polygon fill="#63b8ff" stroke="#63b8ff" points="572.02,-198.75 566.31,-189.83 565.2,-200.36 572.02,-198.75"/>
</a>
</g>
</g>
<!-- Node16&#45;&gt;Node10 -->
<g id="edge24_Node000016_Node000010" class="edge">
<title>Node16&#45;&gt;Node10</title>
<g id="a_edge24_Node000016_Node000010"><a xlink:title=" ">
<path fill="none" stroke="#63b8ff" d="M575.35,-167.64C600.09,-146.53 653.6,-94.12 625.75,-56 603.17,-25.1 559.14,-14.92 526.26,-11.81"/>
<polygon fill="#63b8ff" stroke="#63b8ff" points="526.89,-8.35 516.66,-11.1 526.37,-15.33 526.89,-8.35"/>
</a>
</g>
</g>
<!-- Node17 -->
<g id="Node000017" class="node">
<title>Node17</title>
<g id="a_Node000017"><a xlink:href="base_8h.html" target="_top" xlink:title=" ">
<polygon fill="white" stroke="#666666" points="431.38,-132 386.12,-132 386.12,-112 431.38,-112 431.38,-132"/>
<text text-anchor="middle" x="408.75" y="-118.5" font-family="Helvetica,sans-Serif" font-size="10.00">base.h</text>
</a>
</g>
</g>
<!-- Node16&#45;&gt;Node17 -->
<g id="edge17_Node000016_Node000017" class="edge">
<title>Node16&#45;&gt;Node17</title>
<g id="a_edge17_Node000016_Node000017"><a xlink:title=" ">
<path fill="none" stroke="#63b8ff" d="M536.75,-167.59C510.41,-158.42 470.28,-144.44 441.99,-134.58"/>
<polygon fill="#63b8ff" stroke="#63b8ff" points="443.44,-131.38 432.84,-131.39 441.13,-137.99 443.44,-131.38"/>
</a>
</g>
</g>
<!-- Node17&#45;&gt;Node3 -->
<g id="edge18_Node000017_Node000003" class="edge">
<title>Node17&#45;&gt;Node3</title>
<g id="a_edge18_Node000017_Node000003"><a xlink:title=" ">
<path fill="none" stroke="#63b8ff" d="M385.64,-112.68C360.39,-103.59 319.76,-88.96 291.29,-78.72"/>
<polygon fill="#63b8ff" stroke="#63b8ff" points="292.68,-75.5 282.09,-75.4 290.31,-82.08 292.68,-75.5"/>
</a>
</g>
</g>
<!-- Node17&#45;&gt;Node4 -->
<g id="edge19_Node000017_Node000004" class="edge">
<title>Node17&#45;&gt;Node4</title>
<g id="a_edge19_Node000017_Node000004"><a xlink:title=" ">
<path fill="none" stroke="#63b8ff" d="M408.92,-111.59C409.05,-105.01 409.21,-95.96 409.37,-87.73"/>
<polygon fill="#63b8ff" stroke="#63b8ff" points="412.86,-87.87 409.55,-77.81 405.87,-87.75 412.86,-87.87"/>
</a>
</g>
</g>
<!-- Node17&#45;&gt;Node5 -->
<g id="edge20_Node000017_Node000005" class="edge">
<title>Node17&#45;&gt;Node5</title>
<g id="a_edge20_Node000017_Node000005"><a xlink:title=" ">
<path fill="none" stroke="#63b8ff" d="M423.9,-111.59C436.8,-103.59 455.58,-91.93 470.71,-82.54"/>
<polygon fill="#63b8ff" stroke="#63b8ff" points="472.54,-85.53 479.19,-77.28 468.85,-79.58 472.54,-85.53"/>
</a>
</g>
</g>
<!-- Node17&#45;&gt;Node6 -->
<g id="edge21_Node000017_Node000006" class="edge">
<title>Node17&#45;&gt;Node6</title>
<g id="a_edge21_Node000017_Node000006"><a xlink:title=" ">
<path fill="none" stroke="#63b8ff" d="M431.81,-113.72C459.25,-105.05 505.55,-90.43 539.06,-79.85"/>
<polygon fill="#63b8ff" stroke="#63b8ff" points="539.96,-83.24 548.44,-76.89 537.85,-76.56 539.96,-83.24"/>
</a>
</g>
</g>
<!-- Node17&#45;&gt;Node7 -->
<g id="edge22_Node000017_Node000007" class="edge">
<title>Node17&#45;&gt;Node7</title>
<g id="a_edge22_Node000017_Node000007"><a xlink:title=" ">
<path fill="none" stroke="#63b8ff" d="M385.63,-115.53C349.26,-106.91 277.88,-90 229.73,-78.6"/>
<polygon fill="#63b8ff" stroke="#63b8ff" points="230.64,-75.22 220.1,-76.32 229.03,-82.03 230.64,-75.22"/>
</a>
</g>
</g>
<!-- Node17&#45;&gt;Node8 -->
<g id="edge23_Node000017_Node000008" class="edge">
<title>Node17&#45;&gt;Node8</title>
<g id="a_edge23_Node000017_Node000008"><a xlink:title=" ">
<path fill="none" stroke="#63b8ff" d="M394.29,-111.59C381.99,-103.59 364.07,-91.93 349.64,-82.54"/>
<polygon fill="#63b8ff" stroke="#63b8ff" points="351.88,-79.82 341.59,-77.3 348.06,-85.69 351.88,-79.82"/>
</a>
</g>
</g>
<!-- Node18&#45;&gt;Node19 -->
<g id="edge26_Node000018_Node000019" class="edge">
<title>Node18&#45;&gt;Node19</title>
<g id="a_edge26_Node000018_Node000019"><a xlink:title=" ">
<path fill="none" stroke="#63b8ff" d="M682.75,-279.59C682.75,-273.01 682.75,-263.96 682.75,-255.73"/>
<polygon fill="#63b8ff" stroke="#63b8ff" points="686.25,-255.81 682.75,-245.81 679.25,-255.81 686.25,-255.81"/>
</a>
</g>
</g>
<!-- Node19&#45;&gt;Node10 -->
<g id="edge28_Node000019_Node000010" class="edge">
<title>Node19&#45;&gt;Node10</title>
<g id="a_edge28_Node000019_Node000010"><a xlink:title=" ">
<path fill="none" stroke="#63b8ff" d="M683.71,-223.82C686.19,-194.92 689.73,-104.77 643.75,-56 613.56,-23.98 562.46,-14.17 526.35,-11.46"/>
<polygon fill="#63b8ff" stroke="#63b8ff" points="526.9,-7.99 516.71,-10.9 526.49,-14.97 526.9,-7.99"/>
</a>
</g>
</g>
<!-- Node19&#45;&gt;Node20 -->
<g id="edge27_Node000019_Node000020" class="edge">
<title>Node19&#45;&gt;Node20</title>
<g id="a_edge27_Node000019_Node000020"><a xlink:title=" ">
<path fill="none" stroke="#63b8ff" d="M661.38,-227.42C625.14,-217.97 551.4,-198.74 508.58,-187.56"/>
<polygon fill="#63b8ff" stroke="#63b8ff" points="509.65,-184.23 499.09,-185.09 507.89,-191 509.65,-184.23"/>
</a>
</g>
</g>
<!-- Node21&#45;&gt;Node16 -->
<g id="edge31_Node000021_Node000016" class="edge">
<title>Node21&#45;&gt;Node16</title>
<g id="a_edge31_Node000021_Node000016"><a xlink:title=" ">
<path fill="none" stroke="#63b8ff" d="M491.08,-223.59C504.25,-215.51 523.48,-203.71 538.86,-194.27"/>
<polygon fill="#63b8ff" stroke="#63b8ff" points="540.32,-197.48 547.01,-189.27 536.66,-191.52 540.32,-197.48"/>
</a>
</g>
</g>
<!-- Node21&#45;&gt;Node20 -->
<g id="edge32_Node000021_Node000020" class="edge">
<title>Node21&#45;&gt;Node20</title>
<g id="a_edge32_Node000021_Node000020"><a xlink:title=" ">
<path fill="none" stroke="#63b8ff" d="M475.75,-223.59C475.75,-217.01 475.75,-207.96 475.75,-199.73"/>
<polygon fill="#63b8ff" stroke="#63b8ff" points="479.25,-199.81 475.75,-189.81 472.25,-199.81 479.25,-199.81"/>
</a>
</g>
</g>
<!-- Node22 -->
<g id="Node000022" class="node">
<title>Node22</title>
<g id="a_Node000022"><a xlink:href="_texture_8h.html" target="_top" xlink:title=" ">
<polygon fill="white" stroke="#666666" points="436,-188 379.5,-188 379.5,-168 436,-168 436,-188"/>
<text text-anchor="middle" x="407.75" y="-174.5" font-family="Helvetica,sans-Serif" font-size="10.00">Texture.h</text>
</a>
</g>
</g>
<!-- Node21&#45;&gt;Node22 -->
<g id="edge33_Node000021_Node000022" class="edge">
<title>Node21&#45;&gt;Node22</title>
<g id="a_edge33_Node000021_Node000022"><a xlink:title=" ">
<path fill="none" stroke="#63b8ff" d="M463.91,-223.59C454.06,-215.77 439.82,-204.46 428.14,-195.19"/>
<polygon fill="#63b8ff" stroke="#63b8ff" points="430.65,-192.72 420.64,-189.24 426.3,-198.2 430.65,-192.72"/>
</a>
</g>
</g>
<!-- Node22&#45;&gt;Node17 -->
<g id="edge34_Node000022_Node000017" class="edge">
<title>Node22&#45;&gt;Node17</title>
<g id="a_edge34_Node000022_Node000017"><a xlink:title=" ">
<path fill="none" stroke="#63b8ff" d="M407.92,-167.59C408.05,-161.01 408.21,-151.96 408.37,-143.73"/>
<polygon fill="#63b8ff" stroke="#63b8ff" points="411.86,-143.87 408.55,-133.81 404.87,-143.75 411.86,-143.87"/>
</a>
</g>
</g>
<!-- Node23&#45;&gt;Node20 -->
<g id="edge41_Node000023_Node000020" class="edge">
<title>Node23&#45;&gt;Node20</title>
<g id="a_edge41_Node000023_Node000020"><a xlink:title=" ">
<path fill="none" stroke="#63b8ff" d="M372.67,-335.6C382.9,-327.09 397.56,-313.82 407.75,-300 430.16,-269.61 426.79,-256.66 445.75,-224 450.86,-215.19 457.03,-205.77 462.44,-197.83"/>
<polygon fill="#63b8ff" stroke="#63b8ff" points="465.27,-199.89 468.1,-189.68 459.52,-195.9 465.27,-199.89"/>
</a>
</g>
</g>
<!-- Node24 -->
<g id="Node000024" class="node">
<title>Node24</title>
<g id="a_Node000024"><a xlink:href="_animation_manager_a_n_d_hair_8h.html" target="_top" xlink:title=" ">
<polygon fill="white" stroke="#666666" points="398.25,-300 253.25,-300 253.25,-280 398.25,-280 398.25,-300"/>
<text text-anchor="middle" x="325.75" y="-286.5" font-family="Helvetica,sans-Serif" font-size="10.00">AnimationManagerANDHair.h</text>
</a>
</g>
</g>
<!-- Node23&#45;&gt;Node24 -->
<g id="edge36_Node000023_Node000024" class="edge">
<title>Node23&#45;&gt;Node24</title>
<g id="a_edge36_Node000023_Node000024"><a xlink:title=" ">
<path fill="none" stroke="#63b8ff" d="M354.65,-335.59C350.04,-328.47 343.54,-318.45 337.88,-309.72"/>
<polygon fill="#63b8ff" stroke="#63b8ff" points="340.98,-308.06 332.6,-301.57 335.1,-311.86 340.98,-308.06"/>
</a>
</g>
</g>
<!-- Node23&#45;&gt;Node26 -->
<g id="edge40_Node000023_Node000026" class="edge">
<title>Node23&#45;&gt;Node26</title>
<g id="a_edge40_Node000023_Node000026"><a xlink:title=" ">
<path fill="none" stroke="#63b8ff" d="M330.96,-335.59C303.18,-326.82 261.5,-313.66 230.61,-303.9"/>
<polygon fill="#63b8ff" stroke="#63b8ff" points="231.8,-300.61 221.21,-300.94 229.69,-307.28 231.8,-300.61"/>
</a>
</g>
</g>
<!-- Node24&#45;&gt;Node20 -->
<g id="edge39_Node000024_Node000020" class="edge">
<title>Node24&#45;&gt;Node20</title>
<g id="a_edge39_Node000024_Node000020"><a xlink:title=" ">
<path fill="none" stroke="#63b8ff" d="M338.08,-279.66C354.88,-266.96 385.96,-243.58 412.75,-224 426.15,-214.21 441.27,-203.4 453.34,-194.83"/>
<polygon fill="#63b8ff" stroke="#63b8ff" points="455.29,-197.74 461.43,-189.1 451.24,-192.03 455.29,-197.74"/>
</a>
</g>
</g>
<!-- Node25 -->
<g id="Node000025" class="node">
<title>Node25</title>
<g id="a_Node000025"><a xlink:href="_animation_manager_8h.html" target="_top" xlink:title=" ">
<polygon fill="white" stroke="#666666" points="360.38,-244 255.12,-244 255.12,-224 360.38,-224 360.38,-244"/>
<text text-anchor="middle" x="307.75" y="-230.5" font-family="Helvetica,sans-Serif" font-size="10.00">AnimationManager.h</text>
</a>
</g>
</g>
<!-- Node24&#45;&gt;Node25 -->
<g id="edge37_Node000024_Node000025" class="edge">
<title>Node24&#45;&gt;Node25</title>
<g id="a_edge37_Node000024_Node000025"><a xlink:title=" ">
<path fill="none" stroke="#63b8ff" d="M322.61,-279.59C320.37,-272.86 317.26,-263.53 314.47,-255.15"/>
<polygon fill="#63b8ff" stroke="#63b8ff" points="317.81,-254.11 311.33,-245.73 311.17,-256.33 317.81,-254.11"/>
</a>
</g>
</g>
<!-- Node25&#45;&gt;Node22 -->
<g id="edge38_Node000025_Node000022" class="edge">
<title>Node25&#45;&gt;Node22</title>
<g id="a_edge38_Node000025_Node000022"><a xlink:title=" ">
<path fill="none" stroke="#63b8ff" d="M325.17,-223.59C340.42,-215.36 362.83,-203.26 380.46,-193.74"/>
<polygon fill="#63b8ff" stroke="#63b8ff" points="381.73,-197.03 388.86,-189.2 378.4,-190.87 381.73,-197.03"/>
</a>
</g>
</g>
<!-- Node27&#45;&gt;Node26 -->
<g id="edge44_Node000027_Node000026" class="edge">
<title>Node27&#45;&gt;Node26</title>
<g id="a_edge44_Node000027_Node000026"><a xlink:title=" ">
<path fill="none" stroke="#63b8ff" d="M174.06,-335.59C176.43,-328.86 179.71,-319.53 182.66,-311.15"/>
<polygon fill="#63b8ff" stroke="#63b8ff" points="185.96,-312.32 185.98,-301.73 179.36,-310 185.96,-312.32"/>
</a>
</g>
</g>
<!-- Node28 -->
<g id="Node000028" class="node">
<title>Node28</title>
<g id="a_Node000028"><a xlink:href="_sound_effect_8h.html" target="_top" xlink:title=" ">
<polygon fill="white" stroke="#666666" points="182.5,-244 105,-244 105,-224 182.5,-224 182.5,-244"/>
<text text-anchor="middle" x="143.75" y="-230.5" font-family="Helvetica,sans-Serif" font-size="10.00">SoundEffect.h</text>
</a>
</g>
</g>
<!-- Node27&#45;&gt;Node28 -->
<g id="edge45_Node000027_Node000028" class="edge">
<title>Node27&#45;&gt;Node28</title>
<g id="a_edge45_Node000027_Node000028"><a xlink:title=" ">
<path fill="none" stroke="#63b8ff" d="M160.53,-335.8C152.06,-327.43 140.63,-314.23 135.75,-300 130.72,-285.34 133.31,-267.87 136.84,-254.73"/>
<polygon fill="#63b8ff" stroke="#63b8ff" points="140.07,-256.13 139.7,-245.54 133.39,-254.05 140.07,-256.13"/>
</a>
</g>
</g>
<!-- Node29 -->
<g id="Node000029" class="node">
<title>Node29</title>
<g id="a_Node000029"><a xlink:href="_sound_stream_8h.html" target="_top" xlink:title=" ">
<polygon fill="white" stroke="#666666" points="83.5,-132 0,-132 0,-112 83.5,-112 83.5,-132"/>
<text text-anchor="middle" x="41.75" y="-118.5" font-family="Helvetica,sans-Serif" font-size="10.00">SoundStream.h</text>
</a>
</g>
</g>
<!-- Node27&#45;&gt;Node29 -->
<g id="edge48_Node000027_Node000029" class="edge">
<title>Node27&#45;&gt;Node29</title>
<g id="a_edge48_Node000027_Node000029"><a xlink:title=" ">
<path fill="none" stroke="#63b8ff" d="M160.75,-335.54C151.8,-326.79 138.6,-313.18 128.75,-300 94.17,-253.72 86.44,-240.7 62.75,-188 56.26,-173.57 50.84,-156.54 47.12,-143.52"/>
<polygon fill="#63b8ff" stroke="#63b8ff" points="50.52,-142.68 44.51,-133.96 43.77,-144.53 50.52,-142.68"/>
</a>
</g>
</g>
<!-- Node28&#45;&gt;Node9 -->
<g id="edge46_Node000028_Node000009" class="edge">
<title>Node28&#45;&gt;Node9</title>
<g id="a_edge46_Node000028_Node000009"><a xlink:title=" ">
<path fill="none" stroke="#63b8ff" d="M142.54,-223.74C138.23,-190.74 123.54,-78.31 117.44,-31.61"/>
<polygon fill="#63b8ff" stroke="#63b8ff" points="120.93,-31.26 116.16,-21.8 113.99,-32.17 120.93,-31.26"/>
</a>
</g>
</g>
<!-- Node28&#45;&gt;Node20 -->
<g id="edge47_Node000028_Node000020" class="edge">
<title>Node28&#45;&gt;Node20</title>
<g id="a_edge47_Node000028_Node000020"><a xlink:title=" ">
<path fill="none" stroke="#63b8ff" d="M182.54,-228.89C238.08,-222.63 343.6,-209.39 442.71,-188.18"/>
<polygon fill="#63b8ff" stroke="#63b8ff" points="443.32,-191.63 452.35,-186.08 441.83,-184.79 443.32,-191.63"/>
</a>
</g>
</g>
<!-- Node29&#45;&gt;Node9 -->
<g id="edge49_Node000029_Node000009" class="edge">
<title>Node29&#45;&gt;Node9</title>
<g id="a_edge49_Node000029_Node000009"><a xlink:title=" ">
<path fill="none" stroke="#63b8ff" d="M47.97,-111.62C59.99,-93.52 86.58,-53.45 102.34,-29.7"/>
<polygon fill="#63b8ff" stroke="#63b8ff" points="105.09,-31.88 107.7,-21.62 99.26,-28.01 105.09,-31.88"/>
</a>
</g>
</g>
<!-- Node31 -->
<g id="Node000031" class="node">
<title>Node31</title>
<g id="a_Node000031"><a xlink:title=" ">
<polygon fill="#e0e0e0" stroke="#999999" points="281.5,-412 228,-412 228,-392 281.5,-392 281.5,-412"/>
<text text-anchor="middle" x="254.75" y="-398.5" font-family="Helvetica,sans-Serif" font-size="10.00">iostream</text>
</a>
</g>
</g>
<!-- Node30&#45;&gt;Node31 -->
<g id="edge51_Node000030_Node000031" class="edge">
<title>Node30&#45;&gt;Node31</title>
<g id="a_edge51_Node000030_Node000031"><a xlink:title=" ">
<path fill="none" stroke="#63b8ff" d="M254.75,-447.59C254.75,-441.01 254.75,-431.96 254.75,-423.73"/>
<polygon fill="#63b8ff" stroke="#63b8ff" points="258.25,-423.81 254.75,-413.81 251.25,-423.81 258.25,-423.81"/>
</a>
</g>
</g>
</g>
</svg>
