<?xml version="1.0" encoding="UTF-8" standalone="no"?>
<!DOCTYPE svg PUBLIC "-//W3C//DTD SVG 1.1//EN"
 "http://www.w3.org/Graphics/SVG/1.1/DTD/svg11.dtd">
<!-- Generated by graphviz version 12.2.1 (20241206.2353)
 -->
<!-- Title: Celeste/CountedItem.h Pages: 1 -->
<svg width="1022pt" height="420pt"
 viewBox="0.00 0.00 1022.13 420.00" xmlns="http://www.w3.org/2000/svg" xmlns:xlink="http://www.w3.org/1999/xlink">
<g id="graph0" class="graph" transform="scale(1 1) rotate(0) translate(4 416)">
<title>Celeste/CountedItem.h</title>
<!-- Node1 -->
<g id="Node000001" class="node">
<title>Node1</title>
<g id="a_Node000001"><a xlink:title=" ">
<polygon fill="#999999" stroke="#666666" points="597,-412 479.75,-412 479.75,-392 597,-392 597,-412"/>
<text text-anchor="middle" x="538.38" y="-398.5" font-family="Helvetica,sans-Serif" font-size="10.00">Celeste/CountedItem.h</text>
</a>
</g>
</g>
<!-- Node2 -->
<g id="Node000002" class="node">
<title>Node2</title>
<g id="a_Node000002"><a xlink:href="_cog_platform_8h.html" target="_top" xlink:title=" ">
<polygon fill="white" stroke="#666666" points="368.25,-356 252.5,-356 252.5,-336 368.25,-336 368.25,-356"/>
<text text-anchor="middle" x="310.38" y="-342.5" font-family="Helvetica,sans-Serif" font-size="10.00">Celeste/CogPlatform.h</text>
</a>
</g>
</g>
<!-- Node1&#45;&gt;Node2 -->
<g id="edge1_Node000001_Node000002" class="edge">
<title>Node1&#45;&gt;Node2</title>
<g id="a_edge1_Node000001_Node000002"><a xlink:title=" ">
<path fill="none" stroke="#63b8ff" d="M487.45,-388.94C446.04,-379.13 388.43,-365.49 350.31,-356.46"/>
<polygon fill="#63b8ff" stroke="#63b8ff" points="486.39,-392.28 496.93,-391.18 488.01,-385.47 486.39,-392.28"/>
</a>
</g>
</g>
<!-- Node13 -->
<g id="Node000013" class="node">
<title>Node13</title>
<g id="a_Node000013"><a xlink:href="_crumble_block_8h.html" target="_top" xlink:title=" ">
<polygon fill="white" stroke="#666666" points="508.63,-356 386.13,-356 386.13,-336 508.63,-336 508.63,-356"/>
<text text-anchor="middle" x="447.38" y="-342.5" font-family="Helvetica,sans-Serif" font-size="10.00">Celeste/CrumbleBlock.h</text>
</a>
</g>
</g>
<!-- Node1&#45;&gt;Node13 -->
<g id="edge12_Node000001_Node000013" class="edge">
<title>Node1&#45;&gt;Node13</title>
<g id="a_edge12_Node000001_Node000013"><a xlink:title=" ">
<path fill="none" stroke="#63b8ff" d="M512.78,-385.81C496.91,-376.39 477.01,-364.58 463.35,-356.48"/>
<polygon fill="#63b8ff" stroke="#63b8ff" points="510.84,-388.73 521.23,-390.82 514.41,-382.71 510.84,-388.73"/>
</a>
</g>
</g>
<!-- Node15 -->
<g id="Node000015" class="node">
<title>Node15</title>
<g id="a_Node000015"><a xlink:href="_dash_crystal_8h.html" target="_top" xlink:title=" ">
<polygon fill="white" stroke="#666666" points="135.25,-356 19.5,-356 19.5,-336 135.25,-336 135.25,-356"/>
<text text-anchor="middle" x="77.38" y="-342.5" font-family="Helvetica,sans-Serif" font-size="10.00">Celeste/DashCrystal.h</text>
</a>
</g>
</g>
<!-- Node1&#45;&gt;Node15 -->
<g id="edge15_Node000001_Node000015" class="edge">
<title>Node1&#45;&gt;Node15</title>
<g id="a_edge15_Node000001_Node000015"><a xlink:title=" ">
<path fill="none" stroke="#63b8ff" d="M468.22,-392.78C377.24,-382.12 220.2,-363.73 135.52,-353.81"/>
<polygon fill="#63b8ff" stroke="#63b8ff" points="467.68,-396.24 478.02,-393.93 468.5,-389.29 467.68,-396.24"/>
</a>
</g>
</g>
<!-- Node17 -->
<g id="Node000017" class="node">
<title>Node17</title>
<g id="a_Node000017"><a xlink:href="_flying_strawberry_8h.html" target="_top" xlink:title=" ">
<polygon fill="white" stroke="#666666" points="838.25,-300 704.5,-300 704.5,-280 838.25,-280 838.25,-300"/>
<text text-anchor="middle" x="771.38" y="-286.5" font-family="Helvetica,sans-Serif" font-size="10.00">Celeste/FlyingStrawberry.h</text>
</a>
</g>
</g>
<!-- Node1&#45;&gt;Node17 -->
<g id="edge18_Node000001_Node000017" class="edge">
<title>Node1&#45;&gt;Node17</title>
<g id="a_edge18_Node000001_Node000017"><a xlink:title=" ">
<path fill="none" stroke="#63b8ff" d="M582.21,-388.19C607.37,-380.19 639.26,-368.97 666.38,-356 701.19,-339.35 738.96,-313.98 758.32,-300.38"/>
<polygon fill="#63b8ff" stroke="#63b8ff" points="581.47,-384.75 572.96,-391.07 583.55,-391.43 581.47,-384.75"/>
</a>
</g>
</g>
<!-- Node19 -->
<g id="Node000019" class="node">
<title>Node19</title>
<g id="a_Node000019"><a xlink:href="_strawberry_8h.html" target="_top" xlink:title=" ">
<polygon fill="white" stroke="#666666" points="657.13,-356 549.63,-356 549.63,-336 657.13,-336 657.13,-356"/>
<text text-anchor="middle" x="603.38" y="-342.5" font-family="Helvetica,sans-Serif" font-size="10.00">Celeste/Strawberry.h</text>
</a>
</g>
</g>
<!-- Node1&#45;&gt;Node19 -->
<g id="edge21_Node000001_Node000019" class="edge">
<title>Node1&#45;&gt;Node19</title>
<g id="a_edge21_Node000001_Node000019"><a xlink:title=" ">
<path fill="none" stroke="#63b8ff" d="M558.36,-384.4C569.48,-375.17 582.9,-364.01 592.19,-356.3"/>
<polygon fill="#63b8ff" stroke="#63b8ff" points="556.32,-381.54 550.87,-390.63 560.79,-386.93 556.32,-381.54"/>
</a>
</g>
</g>
<!-- Node21 -->
<g id="Node000021" class="node">
<title>Node21</title>
<g id="a_Node000021"><a xlink:href="_trampoline_8h.html" target="_top" xlink:title=" ">
<polygon fill="white" stroke="#666666" points="920.88,-356 811.88,-356 811.88,-336 920.88,-336 920.88,-356"/>
<text text-anchor="middle" x="866.38" y="-342.5" font-family="Helvetica,sans-Serif" font-size="10.00">Celeste/Trampoline.h</text>
</a>
</g>
</g>
<!-- Node1&#45;&gt;Node21 -->
<g id="edge25_Node000001_Node000021" class="edge">
<title>Node1&#45;&gt;Node21</title>
<g id="a_edge25_Node000001_Node000021"><a xlink:title=" ">
<path fill="none" stroke="#63b8ff" d="M606.9,-389.72C667.63,-379.72 755.15,-365.31 811.4,-356.05"/>
<polygon fill="#63b8ff" stroke="#63b8ff" points="606.68,-386.21 597.38,-391.29 607.82,-393.12 606.68,-386.21"/>
</a>
</g>
</g>
<!-- Node3 -->
<g id="Node000003" class="node">
<title>Node3</title>
<g id="a_Node000003"><a xlink:href="_chapter_info_8h.html" target="_top" xlink:title=" ">
<polygon fill="white" stroke="#666666" points="501.38,-244 389.38,-244 389.38,-224 501.38,-224 501.38,-244"/>
<text text-anchor="middle" x="445.38" y="-230.5" font-family="Helvetica,sans-Serif" font-size="10.00">Celeste/ChapterInfo.h</text>
</a>
</g>
</g>
<!-- Node2&#45;&gt;Node3 -->
<g id="edge2_Node000002_Node000003" class="edge">
<title>Node2&#45;&gt;Node3</title>
<g id="a_edge2_Node000002_Node000003"><a xlink:title=" ">
<path fill="none" stroke="#63b8ff" d="M322.51,-326.51C332.34,-312.53 347.17,-293.49 363.38,-280 381.6,-264.83 405.71,-252.33 423.06,-244.38"/>
<polygon fill="#63b8ff" stroke="#63b8ff" points="319.88,-324.16 317.15,-334.4 325.66,-328.1 319.88,-324.16"/>
</a>
</g>
</g>
<!-- Node12 -->
<g id="Node000012" class="node">
<title>Node12</title>
<g id="a_Node000012"><a xlink:href="_cog_platform_8cpp.html" target="_top" xlink:title=" ">
<polygon fill="white" stroke="#666666" points="284.5,-300 158.25,-300 158.25,-280 284.5,-280 284.5,-300"/>
<text text-anchor="middle" x="221.38" y="-286.5" font-family="Helvetica,sans-Serif" font-size="10.00">Celeste/CogPlatform.cpp</text>
</a>
</g>
</g>
<!-- Node2&#45;&gt;Node12 -->
<g id="edge11_Node000002_Node000012" class="edge">
<title>Node2&#45;&gt;Node12</title>
<g id="a_edge11_Node000002_Node000012"><a xlink:title=" ">
<path fill="none" stroke="#63b8ff" d="M285.35,-329.81C269.82,-320.39 250.36,-308.58 237,-300.48"/>
<polygon fill="#63b8ff" stroke="#63b8ff" points="283.22,-332.61 293.58,-334.81 286.85,-326.63 283.22,-332.61"/>
</a>
</g>
</g>
<!-- Node4 -->
<g id="Node000004" class="node">
<title>Node4</title>
<g id="a_Node000004"><a xlink:href="_chapter_loader_8h.html" target="_top" xlink:title=" ">
<polygon fill="white" stroke="#666666" points="507.75,-188 383,-188 383,-168 507.75,-168 507.75,-188"/>
<text text-anchor="middle" x="445.38" y="-174.5" font-family="Helvetica,sans-Serif" font-size="10.00">Celeste/ChapterLoader.h</text>
</a>
</g>
</g>
<!-- Node3&#45;&gt;Node4 -->
<g id="edge3_Node000003_Node000004" class="edge">
<title>Node3&#45;&gt;Node4</title>
<g id="a_edge3_Node000003_Node000004"><a xlink:title=" ">
<path fill="none" stroke="#63b8ff" d="M445.38,-212.13C445.38,-203.9 445.38,-194.85 445.38,-188.3"/>
<polygon fill="#63b8ff" stroke="#63b8ff" points="441.88,-212.08 445.38,-222.08 448.88,-212.08 441.88,-212.08"/>
</a>
</g>
</g>
<!-- Node5 -->
<g id="Node000005" class="node">
<title>Node5</title>
<g id="a_Node000005"><a xlink:href="_chapter_loader_8cpp.html" target="_top" xlink:title=" ">
<polygon fill="white" stroke="#666666" points="366,-132 230.75,-132 230.75,-112 366,-112 366,-132"/>
<text text-anchor="middle" x="298.38" y="-118.5" font-family="Helvetica,sans-Serif" font-size="10.00">Celeste/ChapterLoader.cpp</text>
</a>
</g>
</g>
<!-- Node4&#45;&gt;Node5 -->
<g id="edge4_Node000004_Node000005" class="edge">
<title>Node4&#45;&gt;Node5</title>
<g id="a_edge4_Node000004_Node000005"><a xlink:title=" ">
<path fill="none" stroke="#63b8ff" d="M409.07,-163.66C382.72,-153.98 347.71,-141.12 324.18,-132.48"/>
<polygon fill="#63b8ff" stroke="#63b8ff" points="407.76,-166.91 418.35,-167.07 410.17,-160.34 407.76,-166.91"/>
</a>
</g>
</g>
<!-- Node6 -->
<g id="Node000006" class="node">
<title>Node6</title>
<g id="a_Node000006"><a xlink:href="_level_manager_8h.html" target="_top" xlink:title=" ">
<polygon fill="white" stroke="#666666" points="506.25,-132 384.5,-132 384.5,-112 506.25,-112 506.25,-132"/>
<text text-anchor="middle" x="445.38" y="-118.5" font-family="Helvetica,sans-Serif" font-size="10.00">Celeste/LevelManager.h</text>
</a>
</g>
</g>
<!-- Node4&#45;&gt;Node6 -->
<g id="edge5_Node000004_Node000006" class="edge">
<title>Node4&#45;&gt;Node6</title>
<g id="a_edge5_Node000004_Node000006"><a xlink:title=" ">
<path fill="none" stroke="#63b8ff" d="M445.38,-156.13C445.38,-147.9 445.38,-138.85 445.38,-132.3"/>
<polygon fill="#63b8ff" stroke="#63b8ff" points="441.88,-156.08 445.38,-166.08 448.88,-156.08 441.88,-156.08"/>
</a>
</g>
</g>
<!-- Node11 -->
<g id="Node000011" class="node">
<title>Node11</title>
<g id="a_Node000011"><a xlink:href="_pause_menu_8cpp.html" target="_top" xlink:title=" ">
<polygon fill="white" stroke="#666666" points="648,-132 524.75,-132 524.75,-112 648,-112 648,-132"/>
<text text-anchor="middle" x="586.38" y="-118.5" font-family="Helvetica,sans-Serif" font-size="10.00">Celeste/PauseMenu.cpp</text>
</a>
</g>
</g>
<!-- Node4&#45;&gt;Node11 -->
<g id="edge10_Node000004_Node000011" class="edge">
<title>Node4&#45;&gt;Node11</title>
<g id="a_edge10_Node000004_Node000011"><a xlink:title=" ">
<path fill="none" stroke="#63b8ff" d="M480.55,-163.53C505.78,-153.87 539.16,-141.08 561.63,-132.48"/>
<polygon fill="#63b8ff" stroke="#63b8ff" points="479.44,-160.21 471.35,-167.05 481.94,-166.74 479.44,-160.21"/>
</a>
</g>
</g>
<!-- Node7 -->
<g id="Node000007" class="node">
<title>Node7</title>
<g id="a_Node000007"><a xlink:href="_game_8h.html" target="_top" xlink:title=" ">
<polygon fill="white" stroke="#666666" points="425,-76 337.75,-76 337.75,-56 425,-56 425,-76"/>
<text text-anchor="middle" x="381.38" y="-62.5" font-family="Helvetica,sans-Serif" font-size="10.00">Celeste/Game.h</text>
</a>
</g>
</g>
<!-- Node6&#45;&gt;Node7 -->
<g id="edge6_Node000006_Node000007" class="edge">
<title>Node6&#45;&gt;Node7</title>
<g id="a_edge6_Node000006_Node000007"><a xlink:title=" ">
<path fill="none" stroke="#63b8ff" d="M425.71,-104.4C414.76,-95.17 401.54,-84.01 392.4,-76.3"/>
<polygon fill="#63b8ff" stroke="#63b8ff" points="423.17,-106.84 433.07,-110.62 427.69,-101.49 423.17,-106.84"/>
</a>
</g>
</g>
<!-- Node10 -->
<g id="Node000010" class="node">
<title>Node10</title>
<g id="a_Node000010"><a xlink:href="_level_manager_8cpp.html" target="_top" xlink:title=" ">
<polygon fill="white" stroke="#666666" points="575.5,-76 443.25,-76 443.25,-56 575.5,-56 575.5,-76"/>
<text text-anchor="middle" x="509.38" y="-62.5" font-family="Helvetica,sans-Serif" font-size="10.00">Celeste/LevelManager.cpp</text>
</a>
</g>
</g>
<!-- Node6&#45;&gt;Node10 -->
<g id="edge9_Node000006_Node000010" class="edge">
<title>Node6&#45;&gt;Node10</title>
<g id="a_edge9_Node000006_Node000010"><a xlink:title=" ">
<path fill="none" stroke="#63b8ff" d="M465.05,-104.4C476,-95.17 489.22,-84.01 498.36,-76.3"/>
<polygon fill="#63b8ff" stroke="#63b8ff" points="463.07,-101.49 457.68,-110.62 467.58,-106.84 463.07,-101.49"/>
</a>
</g>
</g>
<!-- Node8 -->
<g id="Node000008" class="node">
<title>Node8</title>
<g id="a_Node000008"><a xlink:href="_game_8cpp.html" target="_top" xlink:title=" ">
<polygon fill="white" stroke="#666666" points="374.25,-20 276.5,-20 276.5,0 374.25,0 374.25,-20"/>
<text text-anchor="middle" x="325.38" y="-6.5" font-family="Helvetica,sans-Serif" font-size="10.00">Celeste/Game.cpp</text>
</a>
</g>
</g>
<!-- Node7&#45;&gt;Node8 -->
<g id="edge7_Node000007_Node000008" class="edge">
<title>Node7&#45;&gt;Node8</title>
<g id="a_edge7_Node000007_Node000008"><a xlink:title=" ">
<path fill="none" stroke="#63b8ff" d="M363.59,-47.85C354.13,-38.72 342.86,-27.86 335.02,-20.3"/>
<polygon fill="#63b8ff" stroke="#63b8ff" points="360.91,-50.12 370.54,-54.54 365.77,-45.08 360.91,-50.12"/>
</a>
</g>
</g>
<!-- Node9 -->
<g id="Node000009" class="node">
<title>Node9</title>
<g id="a_Node000009"><a xlink:href="main_8cpp.html" target="_top" xlink:title=" ">
<polygon fill="white" stroke="#666666" points="484.63,-20 392.13,-20 392.13,0 484.63,0 484.63,-20"/>
<text text-anchor="middle" x="438.38" y="-6.5" font-family="Helvetica,sans-Serif" font-size="10.00">Celeste/main.cpp</text>
</a>
</g>
</g>
<!-- Node7&#45;&gt;Node9 -->
<g id="edge8_Node000007_Node000009" class="edge">
<title>Node7&#45;&gt;Node9</title>
<g id="a_edge8_Node000007_Node000009"><a xlink:title=" ">
<path fill="none" stroke="#63b8ff" d="M399.49,-47.85C409.12,-38.72 420.59,-27.86 428.56,-20.3"/>
<polygon fill="#63b8ff" stroke="#63b8ff" points="397.26,-45.13 392.41,-54.55 402.07,-50.22 397.26,-45.13"/>
</a>
</g>
</g>
<!-- Node13&#45;&gt;Node3 -->
<g id="edge13_Node000013_Node000003" class="edge">
<title>Node13&#45;&gt;Node3</title>
<g id="a_edge13_Node000013_Node000003"><a xlink:title=" ">
<path fill="none" stroke="#63b8ff" d="M406.58,-330.98C392.55,-323.97 378.38,-313.94 370.38,-300 356.23,-275.34 391.48,-255.47 418.32,-244.45"/>
<polygon fill="#63b8ff" stroke="#63b8ff" points="404.74,-333.99 415.29,-334.93 407.63,-327.61 404.74,-333.99"/>
</a>
</g>
</g>
<!-- Node14 -->
<g id="Node000014" class="node">
<title>Node14</title>
<g id="a_Node000014"><a xlink:href="_crumble_block_8cpp.html" target="_top" xlink:title=" ">
<polygon fill="white" stroke="#666666" points="511.88,-300 378.88,-300 378.88,-280 511.88,-280 511.88,-300"/>
<text text-anchor="middle" x="445.38" y="-286.5" font-family="Helvetica,sans-Serif" font-size="10.00">Celeste/CrumbleBlock.cpp</text>
</a>
</g>
</g>
<!-- Node13&#45;&gt;Node14 -->
<g id="edge14_Node000013_Node000014" class="edge">
<title>Node13&#45;&gt;Node14</title>
<g id="a_edge14_Node000013_Node000014"><a xlink:title=" ">
<path fill="none" stroke="#63b8ff" d="M446.61,-324.13C446.3,-315.9 445.97,-306.85 445.72,-300.3"/>
<polygon fill="#63b8ff" stroke="#63b8ff" points="443.11,-324.22 446.97,-334.08 450.1,-323.96 443.11,-324.22"/>
</a>
</g>
</g>
<!-- Node15&#45;&gt;Node3 -->
<g id="edge16_Node000015_Node000003" class="edge">
<title>Node15&#45;&gt;Node3</title>
<g id="a_edge16_Node000015_Node000003"><a xlink:title=" ">
<path fill="none" stroke="#63b8ff" d="M42.81,-330.9C16.77,-318.31 -11.76,-298.98 5.38,-280 30.66,-252 276.37,-240.47 389.22,-236.63"/>
<polygon fill="#63b8ff" stroke="#63b8ff" points="41.02,-333.93 51.56,-334.91 43.93,-327.56 41.02,-333.93"/>
</a>
</g>
</g>
<!-- Node16 -->
<g id="Node000016" class="node">
<title>Node16</title>
<g id="a_Node000016"><a xlink:href="_dash_crystal_8cpp.html" target="_top" xlink:title=" ">
<polygon fill="white" stroke="#666666" points="140.5,-300 14.25,-300 14.25,-280 140.5,-280 140.5,-300"/>
<text text-anchor="middle" x="77.38" y="-286.5" font-family="Helvetica,sans-Serif" font-size="10.00">Celeste/DashCrystal.cpp</text>
</a>
</g>
</g>
<!-- Node15&#45;&gt;Node16 -->
<g id="edge17_Node000015_Node000016" class="edge">
<title>Node15&#45;&gt;Node16</title>
<g id="a_edge17_Node000015_Node000016"><a xlink:title=" ">
<path fill="none" stroke="#63b8ff" d="M77.38,-324.13C77.38,-315.9 77.38,-306.85 77.38,-300.3"/>
<polygon fill="#63b8ff" stroke="#63b8ff" points="73.88,-324.08 77.38,-334.08 80.88,-324.08 73.88,-324.08"/>
</a>
</g>
</g>
<!-- Node17&#45;&gt;Node3 -->
<g id="edge19_Node000017_Node000003" class="edge">
<title>Node17&#45;&gt;Node3</title>
<g id="a_edge19_Node000017_Node000003"><a xlink:title=" ">
<path fill="none" stroke="#63b8ff" d="M703,-277.67C643.24,-267.78 557.52,-253.58 501.65,-244.32"/>
<polygon fill="#63b8ff" stroke="#63b8ff" points="702.29,-281.1 712.73,-279.28 703.43,-274.2 702.29,-281.1"/>
</a>
</g>
</g>
<!-- Node18 -->
<g id="Node000018" class="node">
<title>Node18</title>
<g id="a_Node000018"><a xlink:href="_flying_strawberry_8cpp.html" target="_top" xlink:title=" ">
<polygon fill="white" stroke="#666666" points="843.5,-244 699.25,-244 699.25,-224 843.5,-224 843.5,-244"/>
<text text-anchor="middle" x="771.38" y="-230.5" font-family="Helvetica,sans-Serif" font-size="10.00">Celeste/FlyingStrawberry.cpp</text>
</a>
</g>
</g>
<!-- Node17&#45;&gt;Node18 -->
<g id="edge20_Node000017_Node000018" class="edge">
<title>Node17&#45;&gt;Node18</title>
<g id="a_edge20_Node000017_Node000018"><a xlink:title=" ">
<path fill="none" stroke="#63b8ff" d="M771.38,-268.13C771.38,-259.9 771.38,-250.85 771.38,-244.3"/>
<polygon fill="#63b8ff" stroke="#63b8ff" points="767.88,-268.08 771.38,-278.08 774.88,-268.08 767.88,-268.08"/>
</a>
</g>
</g>
<!-- Node19&#45;&gt;Node3 -->
<g id="edge22_Node000019_Node000003" class="edge">
<title>Node19&#45;&gt;Node3</title>
<g id="a_edge22_Node000019_Node000003"><a xlink:title=" ">
<path fill="none" stroke="#63b8ff" d="M584,-328.41C567.74,-314.79 543.65,-295.32 521.38,-280 501.92,-266.62 478.37,-253.05 462.69,-244.37"/>
<polygon fill="#63b8ff" stroke="#63b8ff" points="581.55,-330.92 591.44,-334.7 586.07,-325.57 581.55,-330.92"/>
</a>
</g>
</g>
<!-- Node19&#45;&gt;Node17 -->
<g id="edge23_Node000019_Node000017" class="edge">
<title>Node19&#45;&gt;Node17</title>
<g id="a_edge23_Node000019_Node000017"><a xlink:title=" ">
<path fill="none" stroke="#63b8ff" d="M643.27,-332.18C673.56,-322.44 714.52,-309.28 741.89,-300.48"/>
<polygon fill="#63b8ff" stroke="#63b8ff" points="642.53,-328.74 634.08,-335.13 644.67,-335.4 642.53,-328.74"/>
</a>
</g>
</g>
<!-- Node20 -->
<g id="Node000020" class="node">
<title>Node20</title>
<g id="a_Node000020"><a xlink:href="_strawberry_8cpp.html" target="_top" xlink:title=" ">
<polygon fill="white" stroke="#666666" points="686.38,-300 568.38,-300 568.38,-280 686.38,-280 686.38,-300"/>
<text text-anchor="middle" x="627.38" y="-286.5" font-family="Helvetica,sans-Serif" font-size="10.00">Celeste/Strawberry.cpp</text>
</a>
</g>
</g>
<!-- Node19&#45;&gt;Node20 -->
<g id="edge24_Node000019_Node000020" class="edge">
<title>Node19&#45;&gt;Node20</title>
<g id="a_edge24_Node000019_Node000020"><a xlink:title=" ">
<path fill="none" stroke="#63b8ff" d="M612.14,-325.29C615.93,-316.75 620.2,-307.16 623.25,-300.3"/>
<polygon fill="#63b8ff" stroke="#63b8ff" points="609.04,-323.65 608.17,-334.21 615.43,-326.49 609.04,-323.65"/>
</a>
</g>
</g>
<!-- Node21&#45;&gt;Node3 -->
<g id="edge26_Node000021_Node000003" class="edge">
<title>Node21&#45;&gt;Node3</title>
<g id="a_edge26_Node000021_Node000003"><a xlink:title=" ">
<path fill="none" stroke="#63b8ff" d="M866.04,-324.3C864.63,-309.65 860.19,-290.77 847.38,-280 821.44,-258.2 606.13,-243.69 501.72,-237.87"/>
<polygon fill="#63b8ff" stroke="#63b8ff" points="862.55,-324.46 866.57,-334.26 869.54,-324.09 862.55,-324.46"/>
</a>
</g>
</g>
<!-- Node22 -->
<g id="Node000022" class="node">
<title>Node22</title>
<g id="a_Node000022"><a xlink:href="_trampoline_8cpp.html" target="_top" xlink:title=" ">
<polygon fill="white" stroke="#666666" points="1014.13,-300 894.63,-300 894.63,-280 1014.13,-280 1014.13,-300"/>
<text text-anchor="middle" x="954.38" y="-286.5" font-family="Helvetica,sans-Serif" font-size="10.00">Celeste/Trampoline.cpp</text>
</a>
</g>
</g>
<!-- Node21&#45;&gt;Node22 -->
<g id="edge27_Node000021_Node000022" class="edge">
<title>Node21&#45;&gt;Node22</title>
<g id="a_edge27_Node000021_Node000022"><a xlink:title=" ">
<path fill="none" stroke="#63b8ff" d="M891.13,-329.81C906.48,-320.39 925.73,-308.58 938.93,-300.48"/>
<polygon fill="#63b8ff" stroke="#63b8ff" points="889.69,-326.59 883,-334.8 893.35,-332.56 889.69,-326.59"/>
</a>
</g>
</g>
</g>
</svg>
