<?xml version="1.0" encoding="UTF-8" standalone="no"?>
<!DOCTYPE svg PUBLIC "-//W3C//DTD SVG 1.1//EN"
 "http://www.w3.org/Graphics/SVG/1.1/DTD/svg11.dtd">
<!-- Generated by graphviz version 12.2.1 (20241206.2353)
 -->
<!-- Title: Celeste/FlyingStrawberry.cpp Pages: 1 -->
<svg width="788pt" height="644pt"
 viewBox="0.00 0.00 788.25 644.00" xmlns="http://www.w3.org/2000/svg" xmlns:xlink="http://www.w3.org/1999/xlink">
<g id="graph0" class="graph" transform="scale(1 1) rotate(0) translate(4 640)">
<title>Celeste/FlyingStrawberry.cpp</title>
<!-- Node1 -->
<g id="Node000001" class="node">
<title>Node1</title>
<g id="a_Node000001"><a xlink:title=" ">
<polygon fill="#999999" stroke="#666666" points="776.38,-636 632.12,-636 632.12,-616 776.38,-616 776.38,-636"/>
<text text-anchor="middle" x="704.25" y="-622.5" font-family="Helvetica,sans-Serif" font-size="10.00">Celeste/FlyingStrawberry.cpp</text>
</a>
</g>
</g>
<!-- Node2 -->
<g id="Node000002" class="node">
<title>Node2</title>
<g id="a_Node000002"><a xlink:href="pch_8h.html" target="_top" xlink:title=" ">
<polygon fill="white" stroke="#666666" points="495.25,-132 455.25,-132 455.25,-112 495.25,-112 495.25,-132"/>
<text text-anchor="middle" x="475.25" y="-118.5" font-family="Helvetica,sans-Serif" font-size="10.00">pch.h</text>
</a>
</g>
</g>
<!-- Node1&#45;&gt;Node2 -->
<g id="edge1_Node000001_Node000002" class="edge">
<title>Node1&#45;&gt;Node2</title>
<g id="a_edge1_Node000001_Node000002"><a xlink:title=" ">
<path fill="none" stroke="#63b8ff" d="M709.96,-615.66C727.64,-585.83 780.25,-489.77 780.25,-403 780.25,-403 780.25,-403 780.25,-233 780.25,-175.31 584.71,-139.48 506.77,-127.49"/>
<polygon fill="#63b8ff" stroke="#63b8ff" points="507.64,-124.08 497.23,-126.06 506.6,-131.01 507.64,-124.08"/>
</a>
</g>
</g>
<!-- Node11 -->
<g id="Node000011" class="node">
<title>Node11</title>
<g id="a_Node000011"><a xlink:href="_flying_strawberry_8h.html" target="_top" xlink:title=" ">
<polygon fill="white" stroke="#666666" points="610.75,-580 513.75,-580 513.75,-560 610.75,-560 610.75,-580"/>
<text text-anchor="middle" x="562.25" y="-566.5" font-family="Helvetica,sans-Serif" font-size="10.00">FlyingStrawberry.h</text>
</a>
</g>
</g>
<!-- Node1&#45;&gt;Node11 -->
<g id="edge11_Node000001_Node000011" class="edge">
<title>Node1&#45;&gt;Node11</title>
<g id="a_edge11_Node000001_Node000011"><a xlink:title=" ">
<path fill="none" stroke="#63b8ff" d="M679.52,-615.59C656.95,-607.01 623.34,-594.23 597.88,-584.55"/>
<polygon fill="#63b8ff" stroke="#63b8ff" points="599.18,-581.3 588.59,-581.02 596.7,-587.84 599.18,-581.3"/>
</a>
</g>
</g>
<!-- Node29 -->
<g id="Node000029" class="node">
<title>Node29</title>
<g id="a_Node000029"><a xlink:href="_sound_effect_8h.html" target="_top" xlink:title=" ">
<polygon fill="white" stroke="#666666" points="752,-300 674.5,-300 674.5,-280 752,-280 752,-300"/>
<text text-anchor="middle" x="713.25" y="-286.5" font-family="Helvetica,sans-Serif" font-size="10.00">SoundEffect.h</text>
</a>
</g>
</g>
<!-- Node1&#45;&gt;Node29 -->
<g id="edge55_Node000001_Node000029" class="edge">
<title>Node1&#45;&gt;Node29</title>
<g id="a_edge55_Node000001_Node000029"><a xlink:title=" ">
<path fill="none" stroke="#63b8ff" d="M709.86,-615.67C720.43,-597.16 742.25,-554.2 742.25,-515 742.25,-515 742.25,-515 742.25,-401 742.25,-368.67 730.39,-332.71 721.84,-310.98"/>
<polygon fill="#63b8ff" stroke="#63b8ff" points="725.14,-309.81 718.1,-301.89 718.67,-312.47 725.14,-309.81"/>
</a>
</g>
</g>
<!-- Node3 -->
<g id="Node000003" class="node">
<title>Node3</title>
<g id="a_Node000003"><a xlink:title=" ">
<polygon fill="#e0e0e0" stroke="#999999" points="332.12,-76 288.38,-76 288.38,-56 332.12,-56 332.12,-76"/>
<text text-anchor="middle" x="310.25" y="-62.5" font-family="Helvetica,sans-Serif" font-size="10.00">SDL.h</text>
</a>
</g>
</g>
<!-- Node2&#45;&gt;Node3 -->
<g id="edge2_Node000002_Node000003" class="edge">
<title>Node2&#45;&gt;Node3</title>
<g id="a_edge2_Node000002_Node000003"><a xlink:title=" ">
<path fill="none" stroke="#63b8ff" d="M455.02,-114.38C427.11,-105.24 376.46,-88.67 343.09,-77.75"/>
<polygon fill="#63b8ff" stroke="#63b8ff" points="344.52,-74.53 333.93,-74.75 342.35,-81.19 344.52,-74.53"/>
</a>
</g>
</g>
<!-- Node4 -->
<g id="Node000004" class="node">
<title>Node4</title>
<g id="a_Node000004"><a xlink:title=" ">
<polygon fill="#e0e0e0" stroke="#999999" points="428,-76 350.5,-76 350.5,-56 428,-56 428,-76"/>
<text text-anchor="middle" x="389.25" y="-62.5" font-family="Helvetica,sans-Serif" font-size="10.00">SDL_opengl.h</text>
</a>
</g>
</g>
<!-- Node2&#45;&gt;Node4 -->
<g id="edge3_Node000002_Node000004" class="edge">
<title>Node2&#45;&gt;Node4</title>
<g id="a_edge3_Node000002_Node000004"><a xlink:title=" ">
<path fill="none" stroke="#63b8ff" d="M460.27,-111.59C447.52,-103.59 428.96,-91.93 414.01,-82.54"/>
<polygon fill="#63b8ff" stroke="#63b8ff" points="415.96,-79.64 405.63,-77.28 412.24,-85.57 415.96,-79.64"/>
</a>
</g>
</g>
<!-- Node5 -->
<g id="Node000005" class="node">
<title>Node5</title>
<g id="a_Node000005"><a xlink:title=" ">
<polygon fill="#e0e0e0" stroke="#999999" points="504.25,-76 446.25,-76 446.25,-56 504.25,-56 504.25,-76"/>
<text text-anchor="middle" x="475.25" y="-62.5" font-family="Helvetica,sans-Serif" font-size="10.00">SDL_ttf.h</text>
</a>
</g>
</g>
<!-- Node2&#45;&gt;Node5 -->
<g id="edge4_Node000002_Node000005" class="edge">
<title>Node2&#45;&gt;Node5</title>
<g id="a_edge4_Node000002_Node000005"><a xlink:title=" ">
<path fill="none" stroke="#63b8ff" d="M475.25,-111.59C475.25,-105.01 475.25,-95.96 475.25,-87.73"/>
<polygon fill="#63b8ff" stroke="#63b8ff" points="478.75,-87.81 475.25,-77.81 471.75,-87.81 478.75,-87.81"/>
</a>
</g>
</g>
<!-- Node6 -->
<g id="Node000006" class="node">
<title>Node6</title>
<g id="a_Node000006"><a xlink:title=" ">
<polygon fill="#e0e0e0" stroke="#999999" points="667.75,-76 594.75,-76 594.75,-56 667.75,-56 667.75,-76"/>
<text text-anchor="middle" x="631.25" y="-62.5" font-family="Helvetica,sans-Serif" font-size="10.00">SDL_mixer.h</text>
</a>
</g>
</g>
<!-- Node2&#45;&gt;Node6 -->
<g id="edge5_Node000002_Node000006" class="edge">
<title>Node2&#45;&gt;Node6</title>
<g id="a_edge5_Node000002_Node000006"><a xlink:title=" ">
<path fill="none" stroke="#63b8ff" d="M495.64,-113.94C520.36,-105.39 562.51,-90.8 593.27,-80.15"/>
<polygon fill="#63b8ff" stroke="#63b8ff" points="594.3,-83.5 602.6,-76.92 592.01,-76.88 594.3,-83.5"/>
</a>
</g>
</g>
<!-- Node7 -->
<g id="Node000007" class="node">
<title>Node7</title>
<g id="a_Node000007"><a xlink:title=" ">
<polygon fill="#e0e0e0" stroke="#999999" points="269.88,-76 194.62,-76 194.62,-56 269.88,-56 269.88,-76"/>
<text text-anchor="middle" x="232.25" y="-62.5" font-family="Helvetica,sans-Serif" font-size="10.00">SDL_image.h</text>
</a>
</g>
</g>
<!-- Node2&#45;&gt;Node7 -->
<g id="edge6_Node000002_Node000007" class="edge">
<title>Node2&#45;&gt;Node7</title>
<g id="a_edge6_Node000002_Node000007"><a xlink:title=" ">
<path fill="none" stroke="#63b8ff" d="M454.95,-116.49C417.12,-108.08 334.85,-89.8 281.59,-77.96"/>
<polygon fill="#63b8ff" stroke="#63b8ff" points="282.36,-74.55 271.84,-75.8 280.84,-81.38 282.36,-74.55"/>
</a>
</g>
</g>
<!-- Node8 -->
<g id="Node000008" class="node">
<title>Node8</title>
<g id="a_Node000008"><a xlink:href="structs_8h.html" target="_top" xlink:title=" ">
<polygon fill="white" stroke="#666666" points="576.38,-76 522.12,-76 522.12,-56 576.38,-56 576.38,-76"/>
<text text-anchor="middle" x="549.25" y="-62.5" font-family="Helvetica,sans-Serif" font-size="10.00">structs.h</text>
</a>
</g>
</g>
<!-- Node2&#45;&gt;Node8 -->
<g id="edge7_Node000002_Node000008" class="edge">
<title>Node2&#45;&gt;Node8</title>
<g id="a_edge7_Node000002_Node000008"><a xlink:title=" ">
<path fill="none" stroke="#63b8ff" d="M488.14,-111.59C498.96,-103.7 514.66,-92.24 527.44,-82.92"/>
<polygon fill="#63b8ff" stroke="#63b8ff" points="529.27,-85.91 535.29,-77.19 525.14,-80.26 529.27,-85.91"/>
</a>
</g>
</g>
<!-- Node9 -->
<g id="Node000009" class="node">
<title>Node9</title>
<g id="a_Node000009"><a xlink:title=" ">
<polygon fill="#e0e0e0" stroke="#999999" points="716.25,-20 676.25,-20 676.25,0 716.25,0 716.25,-20"/>
<text text-anchor="middle" x="696.25" y="-6.5" font-family="Helvetica,sans-Serif" font-size="10.00">string</text>
</a>
</g>
</g>
<!-- Node8&#45;&gt;Node9 -->
<g id="edge8_Node000008_Node000009" class="edge">
<title>Node8&#45;&gt;Node9</title>
<g id="a_edge8_Node000008_Node000009"><a xlink:title=" ">
<path fill="none" stroke="#63b8ff" d="M574.86,-55.59C600.05,-46.34 638.53,-32.2 665.4,-22.33"/>
<polygon fill="#63b8ff" stroke="#63b8ff" points="666.53,-25.65 674.71,-18.91 664.11,-19.08 666.53,-25.65"/>
</a>
</g>
</g>
<!-- Node10 -->
<g id="Node000010" class="node">
<title>Node10</title>
<g id="a_Node000010"><a xlink:href="_vector2f_8h.html" target="_top" xlink:title=" ">
<polygon fill="white" stroke="#666666" points="388.38,-20 328.12,-20 328.12,0 388.38,0 388.38,-20"/>
<text text-anchor="middle" x="358.25" y="-6.5" font-family="Helvetica,sans-Serif" font-size="10.00">Vector2f.h</text>
</a>
</g>
</g>
<!-- Node8&#45;&gt;Node10 -->
<g id="edge9_Node000008_Node000010" class="edge">
<title>Node8&#45;&gt;Node10</title>
<g id="a_edge9_Node000008_Node000010"><a xlink:title=" ">
<path fill="none" stroke="#63b8ff" d="M521.63,-58.49C488.85,-49.89 434.29,-34.59 397.25,-23.67"/>
<polygon fill="#63b8ff" stroke="#63b8ff" points="398.4,-20.36 387.82,-20.87 396.41,-27.07 398.4,-20.36"/>
</a>
</g>
</g>
<!-- Node10&#45;&gt;Node8 -->
<g id="edge10_Node000010_Node000008" class="edge">
<title>Node10&#45;&gt;Node8</title>
<g id="a_edge10_Node000010_Node000008"><a xlink:title=" ">
<path fill="none" stroke="#63b8ff" d="M388.72,-18.26C421.99,-27.04 475.07,-41.95 511.07,-52.57"/>
<polygon fill="#63b8ff" stroke="#63b8ff" points="509.62,-55.79 520.21,-55.29 511.62,-49.08 509.62,-55.79"/>
</a>
</g>
</g>
<!-- Node12 -->
<g id="Node000012" class="node">
<title>Node12</title>
<g id="a_Node000012"><a xlink:href="_strawberry_8h.html" target="_top" xlink:title=" ">
<polygon fill="white" stroke="#666666" points="513.62,-524 442.88,-524 442.88,-504 513.62,-504 513.62,-524"/>
<text text-anchor="middle" x="478.25" y="-510.5" font-family="Helvetica,sans-Serif" font-size="10.00">Strawberry.h</text>
</a>
</g>
</g>
<!-- Node11&#45;&gt;Node12 -->
<g id="edge12_Node000011_Node000012" class="edge">
<title>Node11&#45;&gt;Node12</title>
<g id="a_edge12_Node000011_Node000012"><a xlink:title=" ">
<path fill="none" stroke="#63b8ff" d="M547.62,-559.59C535.17,-551.59 517.03,-539.93 502.43,-530.54"/>
<polygon fill="#63b8ff" stroke="#63b8ff" points="504.57,-527.76 494.27,-525.3 500.79,-533.65 504.57,-527.76"/>
</a>
</g>
</g>
<!-- Node31 -->
<g id="Node000031" class="node">
<title>Node31</title>
<g id="a_Node000031"><a xlink:href="_counted_item_8h.html" target="_top" xlink:title=" ">
<polygon fill="white" stroke="#666666" points="602.5,-468 522,-468 522,-448 602.5,-448 602.5,-468"/>
<text text-anchor="middle" x="562.25" y="-454.5" font-family="Helvetica,sans-Serif" font-size="10.00">CountedItem.h</text>
</a>
</g>
</g>
<!-- Node11&#45;&gt;Node31 -->
<g id="edge54_Node000011_Node000031" class="edge">
<title>Node11&#45;&gt;Node31</title>
<g id="a_edge54_Node000011_Node000031"><a xlink:title=" ">
<path fill="none" stroke="#63b8ff" d="M562.25,-559.62C562.25,-542.01 562.25,-503.59 562.25,-479.65"/>
<polygon fill="#63b8ff" stroke="#63b8ff" points="565.75,-479.87 562.25,-469.87 558.75,-479.87 565.75,-479.87"/>
</a>
</g>
</g>
<!-- Node13 -->
<g id="Node000013" class="node">
<title>Node13</title>
<g id="a_Node000013"><a xlink:href="_interactable_item_8h.html" target="_top" xlink:title=" ">
<polygon fill="white" stroke="#666666" points="503.62,-468 408.88,-468 408.88,-448 503.62,-448 503.62,-468"/>
<text text-anchor="middle" x="456.25" y="-454.5" font-family="Helvetica,sans-Serif" font-size="10.00">InteractableItem.h</text>
</a>
</g>
</g>
<!-- Node12&#45;&gt;Node13 -->
<g id="edge13_Node000012_Node000013" class="edge">
<title>Node12&#45;&gt;Node13</title>
<g id="a_edge13_Node000012_Node000013"><a xlink:title=" ">
<path fill="none" stroke="#63b8ff" d="M474.42,-503.59C471.64,-496.78 467.79,-487.32 464.34,-478.86"/>
<polygon fill="#63b8ff" stroke="#63b8ff" points="467.62,-477.64 460.61,-469.7 461.14,-480.28 467.62,-477.64"/>
</a>
</g>
</g>
<!-- Node26 -->
<g id="Node000026" class="node">
<title>Node26</title>
<g id="a_Node000026"><a xlink:href="_animation_manager_8h.html" target="_top" xlink:title=" ">
<polygon fill="white" stroke="#666666" points="202.88,-244 97.62,-244 97.62,-224 202.88,-224 202.88,-244"/>
<text text-anchor="middle" x="150.25" y="-230.5" font-family="Helvetica,sans-Serif" font-size="10.00">AnimationManager.h</text>
</a>
</g>
</g>
<!-- Node12&#45;&gt;Node26 -->
<g id="edge51_Node000012_Node000026" class="edge">
<title>Node12&#45;&gt;Node26</title>
<g id="a_edge51_Node000012_Node000026"><a xlink:title=" ">
<path fill="none" stroke="#63b8ff" d="M442.4,-510.92C343.52,-504.21 74.25,-478.96 74.25,-403 74.25,-403 74.25,-403 74.25,-345 74.25,-314.9 76.42,-304.95 93.25,-280 101.08,-268.4 112.84,-258.39 123.64,-250.79"/>
<polygon fill="#63b8ff" stroke="#63b8ff" points="125.49,-253.76 131.9,-245.33 121.63,-247.92 125.49,-253.76"/>
</a>
</g>
</g>
<!-- Node12&#45;&gt;Node31 -->
<g id="edge52_Node000012_Node000031" class="edge">
<title>Node12&#45;&gt;Node31</title>
<g id="a_edge52_Node000012_Node000031"><a xlink:title=" ">
<path fill="none" stroke="#63b8ff" d="M492.88,-503.59C505.33,-495.59 523.47,-483.93 538.07,-474.54"/>
<polygon fill="#63b8ff" stroke="#63b8ff" points="539.71,-477.65 546.23,-469.3 535.93,-471.76 539.71,-477.65"/>
</a>
</g>
</g>
<!-- Node14 -->
<g id="Node000014" class="node">
<title>Node14</title>
<g id="a_Node000014"><a xlink:href="_character_8h.html" target="_top" xlink:title=" ">
<polygon fill="white" stroke="#666666" points="489.75,-412 422.75,-412 422.75,-392 489.75,-392 489.75,-412"/>
<text text-anchor="middle" x="456.25" y="-398.5" font-family="Helvetica,sans-Serif" font-size="10.00">Character.h</text>
</a>
</g>
</g>
<!-- Node13&#45;&gt;Node14 -->
<g id="edge14_Node000013_Node000014" class="edge">
<title>Node13&#45;&gt;Node14</title>
<g id="a_edge14_Node000013_Node000014"><a xlink:title=" ">
<path fill="none" stroke="#63b8ff" d="M456.25,-447.59C456.25,-441.01 456.25,-431.96 456.25,-423.73"/>
<polygon fill="#63b8ff" stroke="#63b8ff" points="459.75,-423.81 456.25,-413.81 452.75,-423.81 459.75,-423.81"/>
</a>
</g>
</g>
<!-- Node15 -->
<g id="Node000015" class="node">
<title>Node15</title>
<g id="a_Node000015"><a xlink:href="_character_controller_8h.html" target="_top" xlink:title=" ">
<polygon fill="white" stroke="#666666" points="321.75,-356 212.75,-356 212.75,-336 321.75,-336 321.75,-356"/>
<text text-anchor="middle" x="267.25" y="-342.5" font-family="Helvetica,sans-Serif" font-size="10.00">CharacterController.h</text>
</a>
</g>
</g>
<!-- Node14&#45;&gt;Node15 -->
<g id="edge15_Node000014_Node000015" class="edge">
<title>Node14&#45;&gt;Node15</title>
<g id="a_edge15_Node000014_Node000015"><a xlink:title=" ">
<path fill="none" stroke="#63b8ff" d="M423.33,-391.59C392.22,-382.71 345.33,-369.31 311.07,-359.52"/>
<polygon fill="#63b8ff" stroke="#63b8ff" points="312.46,-356.28 301.88,-356.9 310.54,-363.01 312.46,-356.28"/>
</a>
</g>
</g>
<!-- Node22 -->
<g id="Node000022" class="node">
<title>Node22</title>
<g id="a_Node000022"><a xlink:href="_hair_8h.html" target="_top" xlink:title=" ">
<polygon fill="white" stroke="#666666" points="79.38,-244 37.12,-244 37.12,-224 79.38,-224 79.38,-244"/>
<text text-anchor="middle" x="58.25" y="-230.5" font-family="Helvetica,sans-Serif" font-size="10.00">Hair.h</text>
</a>
</g>
</g>
<!-- Node14&#45;&gt;Node22 -->
<g id="edge31_Node000014_Node000022" class="edge">
<title>Node14&#45;&gt;Node22</title>
<g id="a_edge31_Node000014_Node000022"><a xlink:title=" ">
<path fill="none" stroke="#63b8ff" d="M422.32,-398.17C373.01,-393.34 279.18,-381.45 203.25,-356 151.24,-338.56 132.49,-338.34 93.25,-300 80.22,-287.26 70.86,-268.62 65.12,-254.57"/>
<polygon fill="#63b8ff" stroke="#63b8ff" points="68.5,-253.6 61.69,-245.48 61.95,-256.07 68.5,-253.6"/>
</a>
</g>
</g>
<!-- Node24 -->
<g id="Node000024" class="node">
<title>Node24</title>
<g id="a_Node000024"><a xlink:href="_character_texture_manager_8h.html" target="_top" xlink:title=" ">
<polygon fill="white" stroke="#666666" points="524.62,-356 387.88,-356 387.88,-336 524.62,-336 524.62,-356"/>
<text text-anchor="middle" x="456.25" y="-342.5" font-family="Helvetica,sans-Serif" font-size="10.00">CharacterTextureManager.h</text>
</a>
</g>
</g>
<!-- Node14&#45;&gt;Node24 -->
<g id="edge36_Node000014_Node000024" class="edge">
<title>Node14&#45;&gt;Node24</title>
<g id="a_edge36_Node000014_Node000024"><a xlink:title=" ">
<path fill="none" stroke="#63b8ff" d="M456.25,-391.59C456.25,-385.01 456.25,-375.96 456.25,-367.73"/>
<polygon fill="#63b8ff" stroke="#63b8ff" points="459.75,-367.81 456.25,-357.81 452.75,-367.81 459.75,-367.81"/>
</a>
</g>
</g>
<!-- Node27 -->
<g id="Node000027" class="node">
<title>Node27</title>
<g id="a_Node000027"><a xlink:href="_character_state_8h.html" target="_top" xlink:title=" ">
<polygon fill="white" stroke="#666666" points="618.38,-300 528.12,-300 528.12,-280 618.38,-280 618.38,-300"/>
<text text-anchor="middle" x="573.25" y="-286.5" font-family="Helvetica,sans-Serif" font-size="10.00">CharacterState.h</text>
</a>
</g>
</g>
<!-- Node14&#45;&gt;Node27 -->
<g id="edge43_Node000014_Node000027" class="edge">
<title>Node14&#45;&gt;Node27</title>
<g id="a_edge43_Node000014_Node000027"><a xlink:title=" ">
<path fill="none" stroke="#63b8ff" d="M478.41,-391.65C494.94,-383.88 517.31,-371.59 533.25,-356 546.71,-342.84 557.55,-324.28 564.53,-310.36"/>
<polygon fill="#63b8ff" stroke="#63b8ff" points="567.49,-312.28 568.63,-301.74 561.17,-309.27 567.49,-312.28"/>
</a>
</g>
</g>
<!-- Node28 -->
<g id="Node000028" class="node">
<title>Node28</title>
<g id="a_Node000028"><a xlink:href="_character_sound_manager_8h.html" target="_top" xlink:title=" ">
<polygon fill="white" stroke="#666666" points="712.38,-356 580.12,-356 580.12,-336 712.38,-336 712.38,-356"/>
<text text-anchor="middle" x="646.25" y="-342.5" font-family="Helvetica,sans-Serif" font-size="10.00">CharacterSoundManager.h</text>
</a>
</g>
</g>
<!-- Node14&#45;&gt;Node28 -->
<g id="edge44_Node000014_Node000028" class="edge">
<title>Node14&#45;&gt;Node28</title>
<g id="a_edge44_Node000014_Node000028"><a xlink:title=" ">
<path fill="none" stroke="#63b8ff" d="M489.35,-391.59C520.62,-382.71 567.75,-369.31 602.2,-359.52"/>
<polygon fill="#63b8ff" stroke="#63b8ff" points="602.78,-362.99 611.44,-356.89 600.86,-356.26 602.78,-362.99"/>
</a>
</g>
</g>
<!-- Node16 -->
<g id="Node000016" class="node">
<title>Node16</title>
<g id="a_Node000016"><a xlink:href="_game_object_8h.html" target="_top" xlink:title=" ">
<polygon fill="white" stroke="#666666" points="181.75,-300 102.75,-300 102.75,-280 181.75,-280 181.75,-300"/>
<text text-anchor="middle" x="142.25" y="-286.5" font-family="Helvetica,sans-Serif" font-size="10.00">GameObject.h</text>
</a>
</g>
</g>
<!-- Node15&#45;&gt;Node16 -->
<g id="edge16_Node000015_Node000016" class="edge">
<title>Node15&#45;&gt;Node16</title>
<g id="a_edge16_Node000015_Node000016"><a xlink:title=" ">
<path fill="none" stroke="#63b8ff" d="M245.48,-335.59C225.88,-327.13 196.82,-314.58 174.53,-304.94"/>
<polygon fill="#63b8ff" stroke="#63b8ff" points="176.15,-301.83 165.58,-301.08 173.37,-308.26 176.15,-301.83"/>
</a>
</g>
</g>
<!-- Node19 -->
<g id="Node000019" class="node">
<title>Node19</title>
<g id="a_Node000019"><a xlink:href="_vector2x2f_8h.html" target="_top" xlink:title=" ">
<polygon fill="white" stroke="#666666" points="270.62,-300 199.88,-300 199.88,-280 270.62,-280 270.62,-300"/>
<text text-anchor="middle" x="235.25" y="-286.5" font-family="Helvetica,sans-Serif" font-size="10.00">Vector2x2f.h</text>
</a>
</g>
</g>
<!-- Node15&#45;&gt;Node19 -->
<g id="edge26_Node000015_Node000019" class="edge">
<title>Node15&#45;&gt;Node19</title>
<g id="a_edge26_Node000015_Node000019"><a xlink:title=" ">
<path fill="none" stroke="#63b8ff" d="M261.68,-335.59C257.5,-328.55 251.65,-318.67 246.51,-310"/>
<polygon fill="#63b8ff" stroke="#63b8ff" points="249.64,-308.42 241.53,-301.6 243.62,-311.99 249.64,-308.42"/>
</a>
</g>
</g>
<!-- Node21 -->
<g id="Node000021" class="node">
<title>Node21</title>
<g id="a_Node000021"><a xlink:title=" ">
<polygon fill="#e0e0e0" stroke="#999999" points="354.75,-188 311.75,-188 311.75,-168 354.75,-168 354.75,-188"/>
<text text-anchor="middle" x="333.25" y="-174.5" font-family="Helvetica,sans-Serif" font-size="10.00">vector</text>
</a>
</g>
</g>
<!-- Node15&#45;&gt;Node21 -->
<g id="edge30_Node000015_Node000021" class="edge">
<title>Node15&#45;&gt;Node21</title>
<g id="a_edge30_Node000015_Node000021"><a xlink:title=" ">
<path fill="none" stroke="#63b8ff" d="M270.99,-335.6C281.42,-309.35 311.05,-234.84 325.34,-198.89"/>
<polygon fill="#63b8ff" stroke="#63b8ff" points="328.55,-200.29 328.99,-189.7 322.05,-197.7 328.55,-200.29"/>
</a>
</g>
</g>
<!-- Node17 -->
<g id="Node000017" class="node">
<title>Node17</title>
<g id="a_Node000017"><a xlink:href="_transform_8h.html" target="_top" xlink:title=" ">
<polygon fill="white" stroke="#666666" points="68.5,-188 0,-188 0,-168 68.5,-168 68.5,-188"/>
<text text-anchor="middle" x="34.25" y="-174.5" font-family="Helvetica,sans-Serif" font-size="10.00">Transform.h</text>
</a>
</g>
</g>
<!-- Node16&#45;&gt;Node17 -->
<g id="edge17_Node000016_Node000017" class="edge">
<title>Node16&#45;&gt;Node17</title>
<g id="a_edge17_Node000016_Node000017"><a xlink:title=" ">
<path fill="none" stroke="#63b8ff" d="M102.44,-284.61C76.6,-279.46 44.77,-268.28 28.25,-244 19.38,-230.96 21.93,-212.88 26.1,-199.09"/>
<polygon fill="#63b8ff" stroke="#63b8ff" points="29.37,-200.35 29.44,-189.75 22.78,-197.99 29.37,-200.35"/>
</a>
</g>
</g>
<!-- Node17&#45;&gt;Node10 -->
<g id="edge25_Node000017_Node000010" class="edge">
<title>Node17&#45;&gt;Node10</title>
<g id="a_edge25_Node000017_Node000010"><a xlink:title=" ">
<path fill="none" stroke="#63b8ff" d="M40.4,-167.65C56.05,-144.63 99.91,-85.04 152.25,-56 204.15,-27.21 272.94,-16.83 316.41,-13.1"/>
<polygon fill="#63b8ff" stroke="#63b8ff" points="316.48,-16.6 326.18,-12.35 315.94,-9.63 316.48,-16.6"/>
</a>
</g>
</g>
<!-- Node18 -->
<g id="Node000018" class="node">
<title>Node18</title>
<g id="a_Node000018"><a xlink:href="base_8h.html" target="_top" xlink:title=" ">
<polygon fill="white" stroke="#666666" points="371.88,-132 326.62,-132 326.62,-112 371.88,-112 371.88,-132"/>
<text text-anchor="middle" x="349.25" y="-118.5" font-family="Helvetica,sans-Serif" font-size="10.00">base.h</text>
</a>
</g>
</g>
<!-- Node17&#45;&gt;Node18 -->
<g id="edge18_Node000017_Node000018" class="edge">
<title>Node17&#45;&gt;Node18</title>
<g id="a_edge18_Node000017_Node000018"><a xlink:title=" ">
<path fill="none" stroke="#63b8ff" d="M68.81,-169.8C72,-169.18 75.18,-168.57 78.25,-168 163.3,-152.25 263.87,-136.23 315.27,-128.23"/>
<polygon fill="#63b8ff" stroke="#63b8ff" points="315.52,-131.73 324.86,-126.74 314.44,-124.81 315.52,-131.73"/>
</a>
</g>
</g>
<!-- Node18&#45;&gt;Node3 -->
<g id="edge19_Node000018_Node000003" class="edge">
<title>Node18&#45;&gt;Node3</title>
<g id="a_edge19_Node000018_Node000003"><a xlink:title=" ">
<path fill="none" stroke="#63b8ff" d="M342.46,-111.59C337.26,-104.39 329.92,-94.23 323.56,-85.43"/>
<polygon fill="#63b8ff" stroke="#63b8ff" points="326.54,-83.58 317.85,-77.53 320.87,-87.68 326.54,-83.58"/>
</a>
</g>
</g>
<!-- Node18&#45;&gt;Node4 -->
<g id="edge20_Node000018_Node000004" class="edge">
<title>Node18&#45;&gt;Node4</title>
<g id="a_edge20_Node000018_Node000004"><a xlink:title=" ">
<path fill="none" stroke="#63b8ff" d="M356.22,-111.59C361.55,-104.39 369.08,-94.23 375.6,-85.43"/>
<polygon fill="#63b8ff" stroke="#63b8ff" points="378.32,-87.63 381.46,-77.51 372.7,-83.47 378.32,-87.63"/>
</a>
</g>
</g>
<!-- Node18&#45;&gt;Node5 -->
<g id="edge21_Node000018_Node000005" class="edge">
<title>Node18&#45;&gt;Node5</title>
<g id="a_edge21_Node000018_Node000005"><a xlink:title=" ">
<path fill="none" stroke="#63b8ff" d="M371.2,-111.59C390.95,-103.13 420.24,-90.58 442.72,-80.94"/>
<polygon fill="#63b8ff" stroke="#63b8ff" points="443.93,-84.23 451.74,-77.08 441.17,-77.8 443.93,-84.23"/>
</a>
</g>
</g>
<!-- Node18&#45;&gt;Node6 -->
<g id="edge22_Node000018_Node000006" class="edge">
<title>Node18&#45;&gt;Node6</title>
<g id="a_edge22_Node000018_Node000006"><a xlink:title=" ">
<path fill="none" stroke="#63b8ff" d="M372.37,-116.63C412.83,-108.97 499.37,-92.56 583.31,-76.37"/>
<polygon fill="#63b8ff" stroke="#63b8ff" points="583.95,-79.81 593.11,-74.48 582.63,-72.93 583.95,-79.81"/>
</a>
</g>
</g>
<!-- Node18&#45;&gt;Node7 -->
<g id="edge23_Node000018_Node000007" class="edge">
<title>Node18&#45;&gt;Node7</title>
<g id="a_edge23_Node000018_Node000007"><a xlink:title=" ">
<path fill="none" stroke="#63b8ff" d="M328.87,-111.59C310.69,-103.21 283.82,-90.8 263.03,-81.21"/>
<polygon fill="#63b8ff" stroke="#63b8ff" points="264.71,-78.13 254.16,-77.11 261.78,-84.48 264.71,-78.13"/>
</a>
</g>
</g>
<!-- Node18&#45;&gt;Node8 -->
<g id="edge24_Node000018_Node000008" class="edge">
<title>Node18&#45;&gt;Node8</title>
<g id="a_edge24_Node000018_Node000008"><a xlink:title=" ">
<path fill="none" stroke="#63b8ff" d="M372.19,-114.81C406.05,-105.66 469.81,-88.45 510.86,-77.36"/>
<polygon fill="#63b8ff" stroke="#63b8ff" points="511.59,-80.79 520.34,-74.81 509.77,-74.03 511.59,-80.79"/>
</a>
</g>
</g>
<!-- Node20 -->
<g id="Node000020" class="node">
<title>Node20</title>
<g id="a_Node000020"><a xlink:href="utils_8h.html" target="_top" xlink:title=" ">
<polygon fill="white" stroke="#666666" points="263.38,-244 221.12,-244 221.12,-224 263.38,-224 263.38,-244"/>
<text text-anchor="middle" x="242.25" y="-230.5" font-family="Helvetica,sans-Serif" font-size="10.00">utils.h</text>
</a>
</g>
</g>
<!-- Node19&#45;&gt;Node20 -->
<g id="edge27_Node000019_Node000020" class="edge">
<title>Node19&#45;&gt;Node20</title>
<g id="a_edge27_Node000019_Node000020"><a xlink:title=" ">
<path fill="none" stroke="#63b8ff" d="M236.47,-279.59C237.33,-272.93 238.52,-263.75 239.6,-255.44"/>
<polygon fill="#63b8ff" stroke="#63b8ff" points="243.04,-256.17 240.85,-245.8 236.09,-255.27 243.04,-256.17"/>
</a>
</g>
</g>
<!-- Node20&#45;&gt;Node10 -->
<g id="edge29_Node000020_Node000010" class="edge">
<title>Node20&#45;&gt;Node10</title>
<g id="a_edge29_Node000020_Node000010"><a xlink:title=" ">
<path fill="none" stroke="#63b8ff" d="M233.72,-223.51C209.32,-195.19 143.58,-109.89 185.25,-56 201.18,-35.39 270.62,-22.46 316.54,-16"/>
<polygon fill="#63b8ff" stroke="#63b8ff" points="317,-19.47 326.44,-14.66 316.06,-12.53 317,-19.47"/>
</a>
</g>
</g>
<!-- Node20&#45;&gt;Node21 -->
<g id="edge28_Node000020_Node000021" class="edge">
<title>Node20&#45;&gt;Node21</title>
<g id="a_edge28_Node000020_Node000021"><a xlink:title=" ">
<path fill="none" stroke="#63b8ff" d="M258.1,-223.59C271.72,-215.51 291.61,-203.71 307.51,-194.27"/>
<polygon fill="#63b8ff" stroke="#63b8ff" points="309.16,-197.37 315.97,-189.25 305.59,-191.35 309.16,-197.37"/>
</a>
</g>
</g>
<!-- Node22&#45;&gt;Node17 -->
<g id="edge32_Node000022_Node000017" class="edge">
<title>Node22&#45;&gt;Node17</title>
<g id="a_edge32_Node000022_Node000017"><a xlink:title=" ">
<path fill="none" stroke="#63b8ff" d="M54.07,-223.59C51.01,-216.7 46.74,-207.1 42.95,-198.57"/>
<polygon fill="#63b8ff" stroke="#63b8ff" points="46.26,-197.4 39,-189.68 39.86,-200.24 46.26,-197.4"/>
</a>
</g>
</g>
<!-- Node22&#45;&gt;Node21 -->
<g id="edge33_Node000022_Node000021" class="edge">
<title>Node22&#45;&gt;Node21</title>
<g id="a_edge33_Node000022_Node000021"><a xlink:title=" ">
<path fill="none" stroke="#63b8ff" d="M79.8,-226.23C82.63,-225.43 85.5,-224.66 88.25,-224 163.28,-205.91 252.77,-191.17 300.09,-183.91"/>
<polygon fill="#63b8ff" stroke="#63b8ff" points="300.59,-187.37 309.95,-182.41 299.54,-180.45 300.59,-187.37"/>
</a>
</g>
</g>
<!-- Node23 -->
<g id="Node000023" class="node">
<title>Node23</title>
<g id="a_Node000023"><a xlink:href="_texture_8h.html" target="_top" xlink:title=" ">
<polygon fill="white" stroke="#666666" points="143.5,-188 87,-188 87,-168 143.5,-168 143.5,-188"/>
<text text-anchor="middle" x="115.25" y="-174.5" font-family="Helvetica,sans-Serif" font-size="10.00">Texture.h</text>
</a>
</g>
</g>
<!-- Node22&#45;&gt;Node23 -->
<g id="edge34_Node000022_Node000023" class="edge">
<title>Node22&#45;&gt;Node23</title>
<g id="a_edge34_Node000022_Node000023"><a xlink:title=" ">
<path fill="none" stroke="#63b8ff" d="M68.18,-223.59C76.19,-216.01 87.67,-205.13 97.28,-196.02"/>
<polygon fill="#63b8ff" stroke="#63b8ff" points="99.48,-198.76 104.34,-189.34 94.67,-193.68 99.48,-198.76"/>
</a>
</g>
</g>
<!-- Node23&#45;&gt;Node18 -->
<g id="edge35_Node000023_Node000018" class="edge">
<title>Node23&#45;&gt;Node18</title>
<g id="a_edge35_Node000023_Node000018"><a xlink:title=" ">
<path fill="none" stroke="#63b8ff" d="M143.94,-170.38C187.26,-160.38 269.18,-141.48 315.37,-130.82"/>
<polygon fill="#63b8ff" stroke="#63b8ff" points="315.86,-134.3 324.82,-128.64 314.29,-127.48 315.86,-134.3"/>
</a>
</g>
</g>
<!-- Node24&#45;&gt;Node21 -->
<g id="edge42_Node000024_Node000021" class="edge">
<title>Node24&#45;&gt;Node21</title>
<g id="a_edge42_Node000024_Node000021"><a xlink:title=" ">
<path fill="none" stroke="#63b8ff" d="M464.35,-335.85C474.72,-322.97 490.22,-298.95 480.25,-280 456.14,-234.18 400.82,-205.13 365.34,-190.49"/>
<polygon fill="#63b8ff" stroke="#63b8ff" points="367.01,-187.39 356.43,-186.96 364.44,-193.9 367.01,-187.39"/>
</a>
</g>
</g>
<!-- Node25 -->
<g id="Node000025" class="node">
<title>Node25</title>
<g id="a_Node000025"><a xlink:href="_animation_manager_a_n_d_hair_8h.html" target="_top" xlink:title=" ">
<polygon fill="white" stroke="#666666" points="471.75,-300 326.75,-300 326.75,-280 471.75,-280 471.75,-300"/>
<text text-anchor="middle" x="399.25" y="-286.5" font-family="Helvetica,sans-Serif" font-size="10.00">AnimationManagerANDHair.h</text>
</a>
</g>
</g>
<!-- Node24&#45;&gt;Node25 -->
<g id="edge37_Node000024_Node000025" class="edge">
<title>Node24&#45;&gt;Node25</title>
<g id="a_edge37_Node000024_Node000025"><a xlink:title=" ">
<path fill="none" stroke="#63b8ff" d="M446.32,-335.59C438.31,-328.01 426.83,-317.13 417.22,-308.02"/>
<polygon fill="#63b8ff" stroke="#63b8ff" points="419.83,-305.68 410.16,-301.34 415.02,-310.76 419.83,-305.68"/>
</a>
</g>
</g>
<!-- Node24&#45;&gt;Node27 -->
<g id="edge41_Node000024_Node000027" class="edge">
<title>Node24&#45;&gt;Node27</title>
<g id="a_edge41_Node000024_Node000027"><a xlink:title=" ">
<path fill="none" stroke="#63b8ff" d="M476.63,-335.59C494.81,-327.21 521.68,-314.8 542.47,-305.21"/>
<polygon fill="#63b8ff" stroke="#63b8ff" points="543.72,-308.48 551.34,-301.11 540.79,-302.13 543.72,-308.48"/>
</a>
</g>
</g>
<!-- Node25&#45;&gt;Node21 -->
<g id="edge40_Node000025_Node000021" class="edge">
<title>Node25&#45;&gt;Node21</title>
<g id="a_edge40_Node000025_Node000021"><a xlink:title=" ">
<path fill="none" stroke="#63b8ff" d="M393.62,-279.62C382.81,-261.6 358.94,-221.81 344.66,-198.02"/>
<polygon fill="#63b8ff" stroke="#63b8ff" points="347.79,-196.43 339.64,-189.65 341.79,-200.03 347.79,-196.43"/>
</a>
</g>
</g>
<!-- Node25&#45;&gt;Node26 -->
<g id="edge38_Node000025_Node000026" class="edge">
<title>Node25&#45;&gt;Node26</title>
<g id="a_edge38_Node000025_Node000026"><a xlink:title=" ">
<path fill="none" stroke="#63b8ff" d="M355.59,-279.53C313.68,-270.44 250.22,-256.68 204.95,-246.86"/>
<polygon fill="#63b8ff" stroke="#63b8ff" points="205.85,-243.48 195.34,-244.78 204.37,-250.32 205.85,-243.48"/>
</a>
</g>
</g>
<!-- Node26&#45;&gt;Node23 -->
<g id="edge39_Node000026_Node000023" class="edge">
<title>Node26&#45;&gt;Node23</title>
<g id="a_edge39_Node000026_Node000023"><a xlink:title=" ">
<path fill="none" stroke="#63b8ff" d="M144.15,-223.59C139.54,-216.47 133.04,-206.45 127.38,-197.72"/>
<polygon fill="#63b8ff" stroke="#63b8ff" points="130.48,-196.06 122.1,-189.57 124.6,-199.86 130.48,-196.06"/>
</a>
</g>
</g>
<!-- Node28&#45;&gt;Node27 -->
<g id="edge45_Node000028_Node000027" class="edge">
<title>Node28&#45;&gt;Node27</title>
<g id="a_edge45_Node000028_Node000027"><a xlink:title=" ">
<path fill="none" stroke="#63b8ff" d="M633.53,-335.59C622.86,-327.7 607.37,-316.24 594.77,-306.92"/>
<polygon fill="#63b8ff" stroke="#63b8ff" points="597.16,-304.33 587.04,-301.2 592.99,-309.96 597.16,-304.33"/>
</a>
</g>
</g>
<!-- Node28&#45;&gt;Node29 -->
<g id="edge46_Node000028_Node000029" class="edge">
<title>Node28&#45;&gt;Node29</title>
<g id="a_edge46_Node000028_Node000029"><a xlink:title=" ">
<path fill="none" stroke="#63b8ff" d="M657.92,-335.59C667.53,-327.85 681.38,-316.69 692.82,-307.47"/>
<polygon fill="#63b8ff" stroke="#63b8ff" points="694.95,-310.25 700.53,-301.25 690.55,-304.8 694.95,-310.25"/>
</a>
</g>
</g>
<!-- Node30 -->
<g id="Node000030" class="node">
<title>Node30</title>
<g id="a_Node000030"><a xlink:href="_sound_stream_8h.html" target="_top" xlink:title=" ">
<polygon fill="white" stroke="#666666" points="697,-132 613.5,-132 613.5,-112 697,-112 697,-132"/>
<text text-anchor="middle" x="655.25" y="-118.5" font-family="Helvetica,sans-Serif" font-size="10.00">SoundStream.h</text>
</a>
</g>
</g>
<!-- Node28&#45;&gt;Node30 -->
<g id="edge49_Node000028_Node000030" class="edge">
<title>Node28&#45;&gt;Node30</title>
<g id="a_edge49_Node000028_Node000030"><a xlink:title=" ">
<path fill="none" stroke="#63b8ff" d="M646.63,-335.74C647.96,-302.74 652.52,-190.31 654.41,-143.61"/>
<polygon fill="#63b8ff" stroke="#63b8ff" points="657.9,-143.94 654.81,-133.81 650.91,-143.66 657.9,-143.94"/>
</a>
</g>
</g>
<!-- Node29&#45;&gt;Node9 -->
<g id="edge47_Node000029_Node000009" class="edge">
<title>Node29&#45;&gt;Node9</title>
<g id="a_edge47_Node000029_Node000009"><a xlink:title=" ">
<path fill="none" stroke="#63b8ff" d="M716.26,-279.7C722.07,-260.89 734.25,-216.91 734.25,-179 734.25,-179 734.25,-179 734.25,-121 734.25,-87.77 718.57,-51.85 707.35,-30.4"/>
<polygon fill="#63b8ff" stroke="#63b8ff" points="710.45,-28.76 702.58,-21.66 704.31,-32.12 710.45,-28.76"/>
</a>
</g>
</g>
<!-- Node29&#45;&gt;Node21 -->
<g id="edge48_Node000029_Node000021" class="edge">
<title>Node29&#45;&gt;Node21</title>
<g id="a_edge48_Node000029_Node000021"><a xlink:title=" ">
<path fill="none" stroke="#63b8ff" d="M686.4,-279.55C648.35,-266.31 576.43,-241.86 514.25,-224 462.86,-209.24 402.46,-194.8 366.05,-186.41"/>
<polygon fill="#63b8ff" stroke="#63b8ff" points="367.12,-183.06 356.59,-184.24 365.56,-189.88 367.12,-183.06"/>
</a>
</g>
</g>
<!-- Node30&#45;&gt;Node9 -->
<g id="edge50_Node000030_Node000009" class="edge">
<title>Node30&#45;&gt;Node9</title>
<g id="a_edge50_Node000030_Node000009"><a xlink:title=" ">
<path fill="none" stroke="#63b8ff" d="M660.46,-111.56C665.25,-102.59 672.35,-88.65 677.25,-76 682.91,-61.38 687.83,-44.35 691.25,-31.39"/>
<polygon fill="#63b8ff" stroke="#63b8ff" points="694.59,-32.44 693.66,-21.89 687.81,-30.72 694.59,-32.44"/>
</a>
</g>
</g>
<!-- Node32 -->
<g id="Node000032" class="node">
<title>Node32</title>
<g id="a_Node000032"><a xlink:title=" ">
<polygon fill="#e0e0e0" stroke="#999999" points="589,-412 535.5,-412 535.5,-392 589,-392 589,-412"/>
<text text-anchor="middle" x="562.25" y="-398.5" font-family="Helvetica,sans-Serif" font-size="10.00">iostream</text>
</a>
</g>
</g>
<!-- Node31&#45;&gt;Node32 -->
<g id="edge53_Node000031_Node000032" class="edge">
<title>Node31&#45;&gt;Node32</title>
<g id="a_edge53_Node000031_Node000032"><a xlink:title=" ">
<path fill="none" stroke="#63b8ff" d="M562.25,-447.59C562.25,-441.01 562.25,-431.96 562.25,-423.73"/>
<polygon fill="#63b8ff" stroke="#63b8ff" points="565.75,-423.81 562.25,-413.81 558.75,-423.81 565.75,-423.81"/>
</a>
</g>
</g>
</g>
</svg>
