<?xml version="1.0" encoding="UTF-8" standalone="no"?>
<!DOCTYPE svg PUBLIC "-//W3C//DTD SVG 1.1//EN"
 "http://www.w3.org/Graphics/SVG/1.1/DTD/svg11.dtd">
<!-- Generated by graphviz version 12.2.1 (20241206.2353)
 -->
<!-- Title: Celeste/Game.h Pages: 1 -->
<svg width="216pt" height="84pt"
 viewBox="0.00 0.00 216.12 84.00" xmlns="http://www.w3.org/2000/svg" xmlns:xlink="http://www.w3.org/1999/xlink">
<g id="graph0" class="graph" transform="scale(1 1) rotate(0) translate(4 80)">
<title>Celeste/Game.h</title>
<!-- Node1 -->
<g id="Node000001" class="node">
<title>Node1</title>
<g id="a_Node000001"><a xlink:title=" ">
<polygon fill="#999999" stroke="#666666" points="148.5,-76 61.25,-76 61.25,-56 148.5,-56 148.5,-76"/>
<text text-anchor="middle" x="104.88" y="-62.5" font-family="Helvetica,sans-Serif" font-size="10.00">Celeste/Game.h</text>
</a>
</g>
</g>
<!-- Node2 -->
<g id="Node000002" class="node">
<title>Node2</title>
<g id="a_Node000002"><a xlink:href="_game_8cpp.html" target="_top" xlink:title=" ">
<polygon fill="white" stroke="#666666" points="97.75,-20 0,-20 0,0 97.75,0 97.75,-20"/>
<text text-anchor="middle" x="48.88" y="-6.5" font-family="Helvetica,sans-Serif" font-size="10.00">Celeste/Game.cpp</text>
</a>
</g>
</g>
<!-- Node1&#45;&gt;Node2 -->
<g id="edge1_Node000001_Node000002" class="edge">
<title>Node1&#45;&gt;Node2</title>
<g id="a_edge1_Node000001_Node000002"><a xlink:title=" ">
<path fill="none" stroke="#63b8ff" d="M87.09,-47.85C77.62,-38.72 66.35,-27.86 58.52,-20.3"/>
<polygon fill="#63b8ff" stroke="#63b8ff" points="84.4,-50.12 94.03,-54.54 89.26,-45.08 84.4,-50.12"/>
</a>
</g>
</g>
<!-- Node3 -->
<g id="Node000003" class="node">
<title>Node3</title>
<g id="a_Node000003"><a xlink:href="main_8cpp.html" target="_top" xlink:title=" ">
<polygon fill="white" stroke="#666666" points="208.12,-20 115.62,-20 115.62,0 208.12,0 208.12,-20"/>
<text text-anchor="middle" x="161.88" y="-6.5" font-family="Helvetica,sans-Serif" font-size="10.00">Celeste/main.cpp</text>
</a>
</g>
</g>
<!-- Node1&#45;&gt;Node3 -->
<g id="edge2_Node000001_Node000003" class="edge">
<title>Node1&#45;&gt;Node3</title>
<g id="a_edge2_Node000001_Node000003"><a xlink:title=" ">
<path fill="none" stroke="#63b8ff" d="M122.98,-47.85C132.61,-38.72 144.08,-27.86 152.06,-20.3"/>
<polygon fill="#63b8ff" stroke="#63b8ff" points="120.75,-45.13 115.9,-54.55 125.57,-50.22 120.75,-45.13"/>
</a>
</g>
</g>
</g>
</svg>
