<?xml version="1.0" encoding="UTF-8" standalone="no"?>
<!DOCTYPE svg PUBLIC "-//W3C//DTD SVG 1.1//EN"
 "http://www.w3.org/Graphics/SVG/1.1/DTD/svg11.dtd">
<!-- Generated by graphviz version 12.2.1 (20241206.2353)
 -->
<!-- Title: Celeste/GameObject.h Pages: 1 -->
<svg width="511pt" height="252pt"
 viewBox="0.00 0.00 511.00 252.00" xmlns="http://www.w3.org/2000/svg" xmlns:xlink="http://www.w3.org/1999/xlink">
<g id="graph0" class="graph" transform="scale(1 1) rotate(0) translate(4 248)">
<title>Celeste/GameObject.h</title>
<!-- Node1 -->
<g id="Node000001" class="node">
<title>Node1</title>
<g id="a_Node000001"><a xlink:title=" ">
<polygon fill="#999999" stroke="#666666" points="443.75,-244 328,-244 328,-224 443.75,-224 443.75,-244"/>
<text text-anchor="middle" x="385.88" y="-230.5" font-family="Helvetica,sans-Serif" font-size="10.00">Celeste/GameObject.h</text>
</a>
</g>
</g>
<!-- Node2 -->
<g id="Node000002" class="node">
<title>Node2</title>
<g id="a_Node000002"><a xlink:href="_transform_8h.html" target="_top" xlink:title=" ">
<polygon fill="white" stroke="#666666" points="420.12,-188 351.62,-188 351.62,-168 420.12,-168 420.12,-188"/>
<text text-anchor="middle" x="385.88" y="-174.5" font-family="Helvetica,sans-Serif" font-size="10.00">Transform.h</text>
</a>
</g>
</g>
<!-- Node1&#45;&gt;Node2 -->
<g id="edge1_Node000001_Node000002" class="edge">
<title>Node1&#45;&gt;Node2</title>
<g id="a_edge1_Node000001_Node000002"><a xlink:title=" ">
<path fill="none" stroke="#63b8ff" d="M385.88,-223.59C385.88,-217.01 385.88,-207.96 385.88,-199.73"/>
<polygon fill="#63b8ff" stroke="#63b8ff" points="389.38,-199.81 385.88,-189.81 382.38,-199.81 389.38,-199.81"/>
</a>
</g>
</g>
<!-- Node3 -->
<g id="Node000003" class="node">
<title>Node3</title>
<g id="a_Node000003"><a xlink:href="base_8h.html" target="_top" xlink:title=" ">
<polygon fill="white" stroke="#666666" points="293.5,-132 248.25,-132 248.25,-112 293.5,-112 293.5,-132"/>
<text text-anchor="middle" x="270.88" y="-118.5" font-family="Helvetica,sans-Serif" font-size="10.00">base.h</text>
</a>
</g>
</g>
<!-- Node2&#45;&gt;Node3 -->
<g id="edge2_Node000002_Node000003" class="edge">
<title>Node2&#45;&gt;Node3</title>
<g id="a_edge2_Node000002_Node000003"><a xlink:title=" ">
<path fill="none" stroke="#63b8ff" d="M365.84,-167.59C348.06,-159.24 321.81,-146.92 301.41,-137.34"/>
<polygon fill="#63b8ff" stroke="#63b8ff" points="302.97,-134.21 292.43,-133.12 300,-140.54 302.97,-134.21"/>
</a>
</g>
</g>
<!-- Node11 -->
<g id="Node000011" class="node">
<title>Node11</title>
<g id="a_Node000011"><a xlink:href="_vector2f_8h.html" target="_top" xlink:title=" ">
<polygon fill="white" stroke="#666666" points="503,-20 442.75,-20 442.75,0 503,0 503,-20"/>
<text text-anchor="middle" x="472.88" y="-6.5" font-family="Helvetica,sans-Serif" font-size="10.00">Vector2f.h</text>
</a>
</g>
</g>
<!-- Node2&#45;&gt;Node11 -->
<g id="edge12_Node000002_Node000011" class="edge">
<title>Node2&#45;&gt;Node11</title>
<g id="a_edge12_Node000002_Node000011"><a xlink:title=" ">
<path fill="none" stroke="#63b8ff" d="M400.1,-167.59C422.53,-151.8 465.27,-117.56 481.88,-76 487.63,-61.58 484.71,-44.09 480.72,-30.89"/>
<polygon fill="#63b8ff" stroke="#63b8ff" points="484.08,-29.89 477.47,-21.61 477.47,-32.2 484.08,-29.89"/>
</a>
</g>
</g>
<!-- Node4 -->
<g id="Node000004" class="node">
<title>Node4</title>
<g id="a_Node000004"><a xlink:title=" ">
<polygon fill="#e0e0e0" stroke="#999999" points="43.75,-76 0,-76 0,-56 43.75,-56 43.75,-76"/>
<text text-anchor="middle" x="21.88" y="-62.5" font-family="Helvetica,sans-Serif" font-size="10.00">SDL.h</text>
</a>
</g>
</g>
<!-- Node3&#45;&gt;Node4 -->
<g id="edge3_Node000003_Node000004" class="edge">
<title>Node3&#45;&gt;Node4</title>
<g id="a_edge3_Node000003_Node000004"><a xlink:title=" ">
<path fill="none" stroke="#63b8ff" d="M247.83,-116.86C209.78,-109.9 131.22,-94.97 55.34,-76.46"/>
<polygon fill="#63b8ff" stroke="#63b8ff" points="56.19,-73.06 45.64,-74.06 54.51,-79.86 56.19,-73.06"/>
</a>
</g>
</g>
<!-- Node5 -->
<g id="Node000005" class="node">
<title>Node5</title>
<g id="a_Node000005"><a xlink:title=" ">
<polygon fill="#e0e0e0" stroke="#999999" points="139.62,-76 62.12,-76 62.12,-56 139.62,-56 139.62,-76"/>
<text text-anchor="middle" x="100.88" y="-62.5" font-family="Helvetica,sans-Serif" font-size="10.00">SDL_opengl.h</text>
</a>
</g>
</g>
<!-- Node3&#45;&gt;Node5 -->
<g id="edge4_Node000003_Node000005" class="edge">
<title>Node3&#45;&gt;Node5</title>
<g id="a_edge4_Node000003_Node000005"><a xlink:title=" ">
<path fill="none" stroke="#63b8ff" d="M247.95,-113.72C220.67,-105.05 174.64,-90.43 141.33,-79.85"/>
<polygon fill="#63b8ff" stroke="#63b8ff" points="142.6,-76.58 132.01,-76.89 140.48,-83.25 142.6,-76.58"/>
</a>
</g>
</g>
<!-- Node6 -->
<g id="Node000006" class="node">
<title>Node6</title>
<g id="a_Node000006"><a xlink:title=" ">
<polygon fill="#e0e0e0" stroke="#999999" points="215.88,-76 157.88,-76 157.88,-56 215.88,-56 215.88,-76"/>
<text text-anchor="middle" x="186.88" y="-62.5" font-family="Helvetica,sans-Serif" font-size="10.00">SDL_ttf.h</text>
</a>
</g>
</g>
<!-- Node3&#45;&gt;Node6 -->
<g id="edge5_Node000003_Node000006" class="edge">
<title>Node3&#45;&gt;Node6</title>
<g id="a_edge5_Node000003_Node000006"><a xlink:title=" ">
<path fill="none" stroke="#63b8ff" d="M256.24,-111.59C243.79,-103.59 225.66,-91.93 211.05,-82.54"/>
<polygon fill="#63b8ff" stroke="#63b8ff" points="213.2,-79.76 202.89,-77.3 209.41,-85.65 213.2,-79.76"/>
</a>
</g>
</g>
<!-- Node7 -->
<g id="Node000007" class="node">
<title>Node7</title>
<g id="a_Node000007"><a xlink:title=" ">
<polygon fill="#e0e0e0" stroke="#999999" points="307.38,-76 234.38,-76 234.38,-56 307.38,-56 307.38,-76"/>
<text text-anchor="middle" x="270.88" y="-62.5" font-family="Helvetica,sans-Serif" font-size="10.00">SDL_mixer.h</text>
</a>
</g>
</g>
<!-- Node3&#45;&gt;Node7 -->
<g id="edge6_Node000003_Node000007" class="edge">
<title>Node3&#45;&gt;Node7</title>
<g id="a_edge6_Node000003_Node000007"><a xlink:title=" ">
<path fill="none" stroke="#63b8ff" d="M270.88,-111.59C270.88,-105.01 270.88,-95.96 270.88,-87.73"/>
<polygon fill="#63b8ff" stroke="#63b8ff" points="274.38,-87.81 270.88,-77.81 267.38,-87.81 274.38,-87.81"/>
</a>
</g>
</g>
<!-- Node8 -->
<g id="Node000008" class="node">
<title>Node8</title>
<g id="a_Node000008"><a xlink:title=" ">
<polygon fill="#e0e0e0" stroke="#999999" points="400.5,-76 325.25,-76 325.25,-56 400.5,-56 400.5,-76"/>
<text text-anchor="middle" x="362.88" y="-62.5" font-family="Helvetica,sans-Serif" font-size="10.00">SDL_image.h</text>
</a>
</g>
</g>
<!-- Node3&#45;&gt;Node8 -->
<g id="edge7_Node000003_Node000008" class="edge">
<title>Node3&#45;&gt;Node8</title>
<g id="a_edge7_Node000003_Node000008"><a xlink:title=" ">
<path fill="none" stroke="#63b8ff" d="M286.9,-111.59C300.67,-103.51 320.78,-91.71 336.85,-82.27"/>
<polygon fill="#63b8ff" stroke="#63b8ff" points="338.57,-85.33 345.42,-77.25 335.02,-79.29 338.57,-85.33"/>
</a>
</g>
</g>
<!-- Node9 -->
<g id="Node000009" class="node">
<title>Node9</title>
<g id="a_Node000009"><a xlink:href="structs_8h.html" target="_top" xlink:title=" ">
<polygon fill="white" stroke="#666666" points="473,-76 418.75,-76 418.75,-56 473,-56 473,-76"/>
<text text-anchor="middle" x="445.88" y="-62.5" font-family="Helvetica,sans-Serif" font-size="10.00">structs.h</text>
</a>
</g>
</g>
<!-- Node3&#45;&gt;Node9 -->
<g id="edge8_Node000003_Node000009" class="edge">
<title>Node3&#45;&gt;Node9</title>
<g id="a_edge8_Node000003_Node000009"><a xlink:title=" ">
<path fill="none" stroke="#63b8ff" d="M293.75,-113.94C322.68,-105.01 372.89,-89.52 407.68,-78.79"/>
<polygon fill="#63b8ff" stroke="#63b8ff" points="408.41,-82.22 416.93,-75.93 406.35,-75.53 408.41,-82.22"/>
</a>
</g>
</g>
<!-- Node10 -->
<g id="Node000010" class="node">
<title>Node10</title>
<g id="a_Node000010"><a xlink:title=" ">
<polygon fill="#e0e0e0" stroke="#999999" points="424.88,-20 384.88,-20 384.88,0 424.88,0 424.88,-20"/>
<text text-anchor="middle" x="404.88" y="-6.5" font-family="Helvetica,sans-Serif" font-size="10.00">string</text>
</a>
</g>
</g>
<!-- Node9&#45;&gt;Node10 -->
<g id="edge9_Node000009_Node000010" class="edge">
<title>Node9&#45;&gt;Node10</title>
<g id="a_edge9_Node000009_Node000010"><a xlink:title=" ">
<path fill="none" stroke="#63b8ff" d="M438.73,-55.59C433.27,-48.39 425.55,-38.23 418.87,-29.43"/>
<polygon fill="#63b8ff" stroke="#63b8ff" points="421.68,-27.35 412.85,-21.5 416.11,-31.58 421.68,-27.35"/>
</a>
</g>
</g>
<!-- Node9&#45;&gt;Node11 -->
<g id="edge10_Node000009_Node000011" class="edge">
<title>Node9&#45;&gt;Node11</title>
<g id="a_edge10_Node000009_Node000011"><a xlink:title=" ">
<path fill="none" stroke="#63b8ff" d="M445.31,-55.59C447.42,-48.55 451.96,-38.67 456.9,-30"/>
<polygon fill="#63b8ff" stroke="#63b8ff" points="459.83,-31.91 462.18,-21.58 453.9,-28.19 459.83,-31.91"/>
</a>
</g>
</g>
<!-- Node11&#45;&gt;Node9 -->
<g id="edge11_Node000011_Node000009" class="edge">
<title>Node11&#45;&gt;Node9</title>
<g id="a_edge11_Node000011_Node000009"><a xlink:title=" ">
<path fill="none" stroke="#63b8ff" d="M473.47,-20.3C471.38,-27.32 466.86,-37.19 461.93,-45.87"/>
<polygon fill="#63b8ff" stroke="#63b8ff" points="458.98,-43.98 456.65,-54.31 464.92,-47.69 458.98,-43.98"/>
</a>
</g>
</g>
</g>
</svg>
