<?xml version="1.0" encoding="UTF-8" standalone="no"?>
<!DOCTYPE svg PUBLIC "-//W3C//DTD SVG 1.1//EN"
 "http://www.w3.org/Graphics/SVG/1.1/DTD/svg11.dtd">
<!-- Generated by graphviz version 12.2.1 (20241206.2353)
 -->
<!-- Title: Celeste/Hair.h Pages: 1 -->
<svg width="499pt" height="252pt"
 viewBox="0.00 0.00 499.22 252.00" xmlns="http://www.w3.org/2000/svg" xmlns:xlink="http://www.w3.org/1999/xlink">
<g id="graph0" class="graph" transform="scale(1 1) rotate(0) translate(4 248)">
<title>Celeste/Hair.h</title>
<!-- Node1 -->
<g id="Node000001" class="node">
<title>Node1</title>
<g id="a_Node000001"><a xlink:title=" ">
<polygon fill="#999999" stroke="#666666" points="198.84,-244 119.84,-244 119.84,-224 198.84,-224 198.84,-244"/>
<text text-anchor="middle" x="159.34" y="-230.5" font-family="Helvetica,sans-Serif" font-size="10.00">Celeste/Hair.h</text>
</a>
</g>
</g>
<!-- Node2 -->
<g id="Node000002" class="node">
<title>Node2</title>
<g id="a_Node000002"><a xlink:href="_transform_8h.html" target="_top" xlink:title=" ">
<polygon fill="white" stroke="#666666" points="119.59,-188 51.09,-188 51.09,-168 119.59,-168 119.59,-188"/>
<text text-anchor="middle" x="85.34" y="-174.5" font-family="Helvetica,sans-Serif" font-size="10.00">Transform.h</text>
</a>
</g>
</g>
<!-- Node1&#45;&gt;Node2 -->
<g id="edge1_Node000001_Node000002" class="edge">
<title>Node1&#45;&gt;Node2</title>
<g id="a_edge1_Node000001_Node000002"><a xlink:title=" ">
<path fill="none" stroke="#63b8ff" d="M146.45,-223.59C135.63,-215.7 119.93,-204.24 107.16,-194.92"/>
<polygon fill="#63b8ff" stroke="#63b8ff" points="109.45,-192.26 99.31,-189.19 105.32,-197.91 109.45,-192.26"/>
</a>
</g>
</g>
<!-- Node12 -->
<g id="Node000012" class="node">
<title>Node12</title>
<g id="a_Node000012"><a xlink:title=" ">
<polygon fill="#e0e0e0" stroke="#999999" points="180.84,-188 137.84,-188 137.84,-168 180.84,-168 180.84,-188"/>
<text text-anchor="middle" x="159.34" y="-174.5" font-family="Helvetica,sans-Serif" font-size="10.00">vector</text>
</a>
</g>
</g>
<!-- Node1&#45;&gt;Node12 -->
<g id="edge13_Node000001_Node000012" class="edge">
<title>Node1&#45;&gt;Node12</title>
<g id="a_edge13_Node000001_Node000012"><a xlink:title=" ">
<path fill="none" stroke="#63b8ff" d="M159.34,-223.59C159.34,-217.01 159.34,-207.96 159.34,-199.73"/>
<polygon fill="#63b8ff" stroke="#63b8ff" points="162.84,-199.81 159.34,-189.81 155.84,-199.81 162.84,-199.81"/>
</a>
</g>
</g>
<!-- Node13 -->
<g id="Node000013" class="node">
<title>Node13</title>
<g id="a_Node000013"><a xlink:href="_texture_8h.html" target="_top" xlink:title=" ">
<polygon fill="white" stroke="#666666" points="255.59,-188 199.09,-188 199.09,-168 255.59,-168 255.59,-188"/>
<text text-anchor="middle" x="227.34" y="-174.5" font-family="Helvetica,sans-Serif" font-size="10.00">Texture.h</text>
</a>
</g>
</g>
<!-- Node1&#45;&gt;Node13 -->
<g id="edge14_Node000001_Node000013" class="edge">
<title>Node1&#45;&gt;Node13</title>
<g id="a_edge14_Node000001_Node000013"><a xlink:title=" ">
<path fill="none" stroke="#63b8ff" d="M171.19,-223.59C181.04,-215.77 195.28,-204.46 206.95,-195.19"/>
<polygon fill="#63b8ff" stroke="#63b8ff" points="208.79,-198.2 214.45,-189.24 204.44,-192.72 208.79,-198.2"/>
</a>
</g>
</g>
<!-- Node3 -->
<g id="Node000003" class="node">
<title>Node3</title>
<g id="a_Node000003"><a xlink:href="base_8h.html" target="_top" xlink:title=" ">
<polygon fill="white" stroke="#666666" points="249.97,-132 204.72,-132 204.72,-112 249.97,-112 249.97,-132"/>
<text text-anchor="middle" x="227.34" y="-118.5" font-family="Helvetica,sans-Serif" font-size="10.00">base.h</text>
</a>
</g>
</g>
<!-- Node2&#45;&gt;Node3 -->
<g id="edge2_Node000002_Node000003" class="edge">
<title>Node2&#45;&gt;Node3</title>
<g id="a_edge2_Node000002_Node000003"><a xlink:title=" ">
<path fill="none" stroke="#63b8ff" d="M110.08,-167.59C133.2,-158.8 167.91,-145.6 193.57,-135.84"/>
<polygon fill="#63b8ff" stroke="#63b8ff" points="194.78,-139.13 202.89,-132.3 192.3,-132.58 194.78,-139.13"/>
</a>
</g>
</g>
<!-- Node11 -->
<g id="Node000011" class="node">
<title>Node11</title>
<g id="a_Node000011"><a xlink:href="_vector2f_8h.html" target="_top" xlink:title=" ">
<polygon fill="white" stroke="#666666" points="398.47,-20 338.22,-20 338.22,0 398.47,0 398.47,-20"/>
<text text-anchor="middle" x="368.34" y="-6.5" font-family="Helvetica,sans-Serif" font-size="10.00">Vector2f.h</text>
</a>
</g>
</g>
<!-- Node2&#45;&gt;Node11 -->
<g id="edge12_Node000002_Node000011" class="edge">
<title>Node2&#45;&gt;Node11</title>
<g id="a_edge12_Node000002_Node000011"><a xlink:title=" ">
<path fill="none" stroke="#63b8ff" d="M71.31,-167.5C41.37,-146.13 -23.48,-93.2 9.34,-56 30.05,-32.53 236.11,-18.33 326.36,-13.19"/>
<polygon fill="#63b8ff" stroke="#63b8ff" points="326.49,-16.69 336.28,-12.64 326.1,-9.7 326.49,-16.69"/>
</a>
</g>
</g>
<!-- Node4 -->
<g id="Node000004" class="node">
<title>Node4</title>
<g id="a_Node000004"><a xlink:title=" ">
<polygon fill="#e0e0e0" stroke="#999999" points="491.22,-76 447.47,-76 447.47,-56 491.22,-56 491.22,-76"/>
<text text-anchor="middle" x="469.34" y="-62.5" font-family="Helvetica,sans-Serif" font-size="10.00">SDL.h</text>
</a>
</g>
</g>
<!-- Node3&#45;&gt;Node4 -->
<g id="edge3_Node000003_Node000004" class="edge">
<title>Node3&#45;&gt;Node4</title>
<g id="a_edge3_Node000003_Node000004"><a xlink:title=" ">
<path fill="none" stroke="#63b8ff" d="M250.26,-116.68C287.32,-109.57 362.89,-94.57 436.24,-76.39"/>
<polygon fill="#63b8ff" stroke="#63b8ff" points="436.73,-79.88 445.58,-74.05 435.03,-73.09 436.73,-79.88"/>
</a>
</g>
</g>
<!-- Node5 -->
<g id="Node000005" class="node">
<title>Node5</title>
<g id="a_Node000005"><a xlink:title=" ">
<polygon fill="#e0e0e0" stroke="#999999" points="96.09,-76 18.59,-76 18.59,-56 96.09,-56 96.09,-76"/>
<text text-anchor="middle" x="57.34" y="-62.5" font-family="Helvetica,sans-Serif" font-size="10.00">SDL_opengl.h</text>
</a>
</g>
</g>
<!-- Node3&#45;&gt;Node5 -->
<g id="edge4_Node000003_Node000005" class="edge">
<title>Node3&#45;&gt;Node5</title>
<g id="a_edge4_Node000003_Node000005"><a xlink:title=" ">
<path fill="none" stroke="#63b8ff" d="M204.42,-113.72C177.14,-105.05 131.11,-90.43 97.8,-79.85"/>
<polygon fill="#63b8ff" stroke="#63b8ff" points="99.07,-76.58 88.48,-76.89 96.95,-83.25 99.07,-76.58"/>
</a>
</g>
</g>
<!-- Node6 -->
<g id="Node000006" class="node">
<title>Node6</title>
<g id="a_Node000006"><a xlink:title=" ">
<polygon fill="#e0e0e0" stroke="#999999" points="172.34,-76 114.34,-76 114.34,-56 172.34,-56 172.34,-76"/>
<text text-anchor="middle" x="143.34" y="-62.5" font-family="Helvetica,sans-Serif" font-size="10.00">SDL_ttf.h</text>
</a>
</g>
</g>
<!-- Node3&#45;&gt;Node6 -->
<g id="edge5_Node000003_Node000006" class="edge">
<title>Node3&#45;&gt;Node6</title>
<g id="a_edge5_Node000003_Node000006"><a xlink:title=" ">
<path fill="none" stroke="#63b8ff" d="M212.71,-111.59C200.26,-103.59 182.13,-91.93 167.52,-82.54"/>
<polygon fill="#63b8ff" stroke="#63b8ff" points="169.67,-79.76 159.36,-77.3 165.88,-85.65 169.67,-79.76"/>
</a>
</g>
</g>
<!-- Node7 -->
<g id="Node000007" class="node">
<title>Node7</title>
<g id="a_Node000007"><a xlink:title=" ">
<polygon fill="#e0e0e0" stroke="#999999" points="263.84,-76 190.84,-76 190.84,-56 263.84,-56 263.84,-76"/>
<text text-anchor="middle" x="227.34" y="-62.5" font-family="Helvetica,sans-Serif" font-size="10.00">SDL_mixer.h</text>
</a>
</g>
</g>
<!-- Node3&#45;&gt;Node7 -->
<g id="edge6_Node000003_Node000007" class="edge">
<title>Node3&#45;&gt;Node7</title>
<g id="a_edge6_Node000003_Node000007"><a xlink:title=" ">
<path fill="none" stroke="#63b8ff" d="M227.34,-111.59C227.34,-105.01 227.34,-95.96 227.34,-87.73"/>
<polygon fill="#63b8ff" stroke="#63b8ff" points="230.84,-87.81 227.34,-77.81 223.84,-87.81 230.84,-87.81"/>
</a>
</g>
</g>
<!-- Node8 -->
<g id="Node000008" class="node">
<title>Node8</title>
<g id="a_Node000008"><a xlink:title=" ">
<polygon fill="#e0e0e0" stroke="#999999" points="356.97,-76 281.72,-76 281.72,-56 356.97,-56 356.97,-76"/>
<text text-anchor="middle" x="319.34" y="-62.5" font-family="Helvetica,sans-Serif" font-size="10.00">SDL_image.h</text>
</a>
</g>
</g>
<!-- Node3&#45;&gt;Node8 -->
<g id="edge7_Node000003_Node000008" class="edge">
<title>Node3&#45;&gt;Node8</title>
<g id="a_edge7_Node000003_Node000008"><a xlink:title=" ">
<path fill="none" stroke="#63b8ff" d="M243.37,-111.59C257.14,-103.51 277.25,-91.71 293.32,-82.27"/>
<polygon fill="#63b8ff" stroke="#63b8ff" points="295.04,-85.33 301.89,-77.25 291.49,-79.29 295.04,-85.33"/>
</a>
</g>
</g>
<!-- Node9 -->
<g id="Node000009" class="node">
<title>Node9</title>
<g id="a_Node000009"><a xlink:href="structs_8h.html" target="_top" xlink:title=" ">
<polygon fill="white" stroke="#666666" points="429.47,-76 375.22,-76 375.22,-56 429.47,-56 429.47,-76"/>
<text text-anchor="middle" x="402.34" y="-62.5" font-family="Helvetica,sans-Serif" font-size="10.00">structs.h</text>
</a>
</g>
</g>
<!-- Node3&#45;&gt;Node9 -->
<g id="edge8_Node000003_Node000009" class="edge">
<title>Node3&#45;&gt;Node9</title>
<g id="a_edge8_Node000003_Node000009"><a xlink:title=" ">
<path fill="none" stroke="#63b8ff" d="M250.22,-113.94C279.15,-105.01 329.36,-89.52 364.14,-78.79"/>
<polygon fill="#63b8ff" stroke="#63b8ff" points="364.88,-82.22 373.4,-75.93 362.82,-75.53 364.88,-82.22"/>
</a>
</g>
</g>
<!-- Node10 -->
<g id="Node000010" class="node">
<title>Node10</title>
<g id="a_Node000010"><a xlink:title=" ">
<polygon fill="#e0e0e0" stroke="#999999" points="456.34,-20 416.34,-20 416.34,0 456.34,0 456.34,-20"/>
<text text-anchor="middle" x="436.34" y="-6.5" font-family="Helvetica,sans-Serif" font-size="10.00">string</text>
</a>
</g>
</g>
<!-- Node9&#45;&gt;Node10 -->
<g id="edge9_Node000009_Node000010" class="edge">
<title>Node9&#45;&gt;Node10</title>
<g id="a_edge9_Node000009_Node000010"><a xlink:title=" ">
<path fill="none" stroke="#63b8ff" d="M408.27,-55.59C412.7,-48.55 418.92,-38.67 424.38,-30"/>
<polygon fill="#63b8ff" stroke="#63b8ff" points="427.32,-31.91 429.68,-21.58 421.39,-28.18 427.32,-31.91"/>
</a>
</g>
</g>
<!-- Node9&#45;&gt;Node11 -->
<g id="edge10_Node000009_Node000011" class="edge">
<title>Node9&#45;&gt;Node11</title>
<g id="a_edge10_Node000009_Node000011"><a xlink:title=" ">
<path fill="none" stroke="#63b8ff" d="M391.15,-55.59C385.37,-48.63 378.83,-38.89 373.99,-30.29"/>
<polygon fill="#63b8ff" stroke="#63b8ff" points="377.26,-29 369.63,-21.65 371.01,-32.15 377.26,-29"/>
</a>
</g>
</g>
<!-- Node11&#45;&gt;Node9 -->
<g id="edge11_Node000011_Node000009" class="edge">
<title>Node11&#45;&gt;Node9</title>
<g id="a_edge11_Node000011_Node000009"><a xlink:title=" ">
<path fill="none" stroke="#63b8ff" d="M379.44,-20.3C385.22,-27.24 391.77,-36.97 396.62,-45.58"/>
<polygon fill="#63b8ff" stroke="#63b8ff" points="393.37,-46.9 401,-54.24 399.62,-43.74 393.37,-46.9"/>
</a>
</g>
</g>
<!-- Node13&#45;&gt;Node3 -->
<g id="edge15_Node000013_Node000003" class="edge">
<title>Node13&#45;&gt;Node3</title>
<g id="a_edge15_Node000013_Node000003"><a xlink:title=" ">
<path fill="none" stroke="#63b8ff" d="M227.34,-167.59C227.34,-161.01 227.34,-151.96 227.34,-143.73"/>
<polygon fill="#63b8ff" stroke="#63b8ff" points="230.84,-143.81 227.34,-133.81 223.84,-143.81 230.84,-143.81"/>
</a>
</g>
</g>
</g>
</svg>
