<?xml version="1.0" encoding="UTF-8" standalone="no"?>
<!DOCTYPE svg PUBLIC "-//W3C//DTD SVG 1.1//EN"
 "http://www.w3.org/Graphics/SVG/1.1/DTD/svg11.dtd">
<!-- Generated by graphviz version 12.2.1 (20241206.2353)
 -->
<!-- Title: Celeste/Level.cpp Pages: 1 -->
<svg width="746pt" height="588pt"
 viewBox="0.00 0.00 746.12 588.00" xmlns="http://www.w3.org/2000/svg" xmlns:xlink="http://www.w3.org/1999/xlink">
<g id="graph0" class="graph" transform="scale(1 1) rotate(0) translate(4 584)">
<title>Celeste/Level.cpp</title>
<!-- Node1 -->
<g id="Node000001" class="node">
<title>Node1</title>
<g id="a_Node000001"><a xlink:title=" ">
<polygon fill="#999999" stroke="#666666" points="94.75,-580 0,-580 0,-560 94.75,-560 94.75,-580"/>
<text text-anchor="middle" x="47.38" y="-566.5" font-family="Helvetica,sans-Serif" font-size="10.00">Celeste/Level.cpp</text>
</a>
</g>
</g>
<!-- Node2 -->
<g id="Node000002" class="node">
<title>Node2</title>
<g id="a_Node000002"><a xlink:href="pch_8h.html" target="_top" xlink:title=" ">
<polygon fill="white" stroke="#666666" points="326.38,-132 286.38,-132 286.38,-112 326.38,-112 326.38,-132"/>
<text text-anchor="middle" x="306.38" y="-118.5" font-family="Helvetica,sans-Serif" font-size="10.00">pch.h</text>
</a>
</g>
</g>
<!-- Node1&#45;&gt;Node2 -->
<g id="edge1_Node000001_Node000002" class="edge">
<title>Node1&#45;&gt;Node2</title>
<g id="a_edge1_Node000001_Node000002"><a xlink:title=" ">
<path fill="none" stroke="#63b8ff" d="M43.65,-559.76C36.46,-541.06 21.38,-497.27 21.38,-459 21.38,-459 21.38,-459 21.38,-233 21.38,-179.13 200.82,-141.49 274.93,-128.24"/>
<polygon fill="#63b8ff" stroke="#63b8ff" points="275.14,-131.76 284.39,-126.59 273.93,-124.87 275.14,-131.76"/>
</a>
</g>
</g>
<!-- Node11 -->
<g id="Node000011" class="node">
<title>Node11</title>
<g id="a_Node000011"><a xlink:href="_level_8h.html" target="_top" xlink:title=" ">
<polygon fill="white" stroke="#666666" points="207.12,-524 159.62,-524 159.62,-504 207.12,-504 207.12,-524"/>
<text text-anchor="middle" x="183.38" y="-510.5" font-family="Helvetica,sans-Serif" font-size="10.00">Level.h</text>
</a>
</g>
</g>
<!-- Node1&#45;&gt;Node11 -->
<g id="edge11_Node000001_Node000011" class="edge">
<title>Node1&#45;&gt;Node11</title>
<g id="a_edge11_Node000001_Node000011"><a xlink:title=" ">
<path fill="none" stroke="#63b8ff" d="M71.06,-559.59C92.58,-551.05 124.58,-538.35 148.92,-528.68"/>
<polygon fill="#63b8ff" stroke="#63b8ff" points="150.09,-531.98 158.09,-525.04 147.51,-525.48 150.09,-531.98"/>
</a>
</g>
</g>
<!-- Node3 -->
<g id="Node000003" class="node">
<title>Node3</title>
<g id="a_Node000003"><a xlink:title=" ">
<polygon fill="#e0e0e0" stroke="#999999" points="169.25,-76 125.5,-76 125.5,-56 169.25,-56 169.25,-76"/>
<text text-anchor="middle" x="147.38" y="-62.5" font-family="Helvetica,sans-Serif" font-size="10.00">SDL.h</text>
</a>
</g>
</g>
<!-- Node2&#45;&gt;Node3 -->
<g id="edge2_Node000002_Node000003" class="edge">
<title>Node2&#45;&gt;Node3</title>
<g id="a_edge2_Node000002_Node000003"><a xlink:title=" ">
<path fill="none" stroke="#63b8ff" d="M285.91,-114.05C259.13,-104.95 211.86,-88.9 180.08,-78.11"/>
<polygon fill="#63b8ff" stroke="#63b8ff" points="181.57,-74.92 170.98,-75.02 179.32,-81.55 181.57,-74.92"/>
</a>
</g>
</g>
<!-- Node4 -->
<g id="Node000004" class="node">
<title>Node4</title>
<g id="a_Node000004"><a xlink:title=" ">
<polygon fill="#e0e0e0" stroke="#999999" points="265.12,-76 187.62,-76 187.62,-56 265.12,-56 265.12,-76"/>
<text text-anchor="middle" x="226.38" y="-62.5" font-family="Helvetica,sans-Serif" font-size="10.00">SDL_opengl.h</text>
</a>
</g>
</g>
<!-- Node2&#45;&gt;Node4 -->
<g id="edge3_Node000002_Node000004" class="edge">
<title>Node2&#45;&gt;Node4</title>
<g id="a_edge3_Node000002_Node000004"><a xlink:title=" ">
<path fill="none" stroke="#63b8ff" d="M292.44,-111.59C280.7,-103.67 263.64,-92.16 249.81,-82.82"/>
<polygon fill="#63b8ff" stroke="#63b8ff" points="251.92,-80.02 241.67,-77.33 248,-85.82 251.92,-80.02"/>
</a>
</g>
</g>
<!-- Node5 -->
<g id="Node000005" class="node">
<title>Node5</title>
<g id="a_Node000005"><a xlink:title=" ">
<polygon fill="#e0e0e0" stroke="#999999" points="413.38,-76 355.38,-76 355.38,-56 413.38,-56 413.38,-76"/>
<text text-anchor="middle" x="384.38" y="-62.5" font-family="Helvetica,sans-Serif" font-size="10.00">SDL_ttf.h</text>
</a>
</g>
</g>
<!-- Node2&#45;&gt;Node5 -->
<g id="edge4_Node000002_Node000005" class="edge">
<title>Node2&#45;&gt;Node5</title>
<g id="a_edge4_Node000002_Node000005"><a xlink:title=" ">
<path fill="none" stroke="#63b8ff" d="M319.96,-111.59C331.41,-103.67 348.04,-92.16 361.53,-82.82"/>
<polygon fill="#63b8ff" stroke="#63b8ff" points="363.21,-85.91 369.44,-77.34 359.22,-80.16 363.21,-85.91"/>
</a>
</g>
</g>
<!-- Node6 -->
<g id="Node000006" class="node">
<title>Node6</title>
<g id="a_Node000006"><a xlink:title=" ">
<polygon fill="#e0e0e0" stroke="#999999" points="504.88,-76 431.88,-76 431.88,-56 504.88,-56 504.88,-76"/>
<text text-anchor="middle" x="468.38" y="-62.5" font-family="Helvetica,sans-Serif" font-size="10.00">SDL_mixer.h</text>
</a>
</g>
</g>
<!-- Node2&#45;&gt;Node6 -->
<g id="edge5_Node000002_Node000006" class="edge">
<title>Node2&#45;&gt;Node6</title>
<g id="a_edge5_Node000002_Node000006"><a xlink:title=" ">
<path fill="none" stroke="#63b8ff" d="M326.56,-114.27C352.13,-105.75 396.75,-90.87 429.13,-80.08"/>
<polygon fill="#63b8ff" stroke="#63b8ff" points="430.2,-83.41 438.58,-76.93 427.99,-76.77 430.2,-83.41"/>
</a>
</g>
</g>
<!-- Node7 -->
<g id="Node000007" class="node">
<title>Node7</title>
<g id="a_Node000007"><a xlink:title=" ">
<polygon fill="#e0e0e0" stroke="#999999" points="598,-76 522.75,-76 522.75,-56 598,-56 598,-76"/>
<text text-anchor="middle" x="560.38" y="-62.5" font-family="Helvetica,sans-Serif" font-size="10.00">SDL_image.h</text>
</a>
</g>
</g>
<!-- Node2&#45;&gt;Node7 -->
<g id="edge6_Node000002_Node000007" class="edge">
<title>Node2&#45;&gt;Node7</title>
<g id="a_edge6_Node000002_Node000007"><a xlink:title=" ">
<path fill="none" stroke="#63b8ff" d="M326.58,-114.44C329.52,-113.57 332.51,-112.73 335.38,-112 343.91,-109.83 448.06,-89.17 511.63,-76.62"/>
<polygon fill="#63b8ff" stroke="#63b8ff" points="511.99,-80.11 521.13,-74.74 510.64,-73.24 511.99,-80.11"/>
</a>
</g>
</g>
<!-- Node8 -->
<g id="Node000008" class="node">
<title>Node8</title>
<g id="a_Node000008"><a xlink:href="structs_8h.html" target="_top" xlink:title=" ">
<polygon fill="white" stroke="#666666" points="337.5,-76 283.25,-76 283.25,-56 337.5,-56 337.5,-76"/>
<text text-anchor="middle" x="310.38" y="-62.5" font-family="Helvetica,sans-Serif" font-size="10.00">structs.h</text>
</a>
</g>
</g>
<!-- Node2&#45;&gt;Node8 -->
<g id="edge7_Node000002_Node000008" class="edge">
<title>Node2&#45;&gt;Node8</title>
<g id="a_edge7_Node000002_Node000008"><a xlink:title=" ">
<path fill="none" stroke="#63b8ff" d="M307.07,-111.59C307.56,-105.01 308.23,-95.96 308.84,-87.73"/>
<polygon fill="#63b8ff" stroke="#63b8ff" points="312.33,-88.04 309.57,-77.81 305.35,-87.52 312.33,-88.04"/>
</a>
</g>
</g>
<!-- Node9 -->
<g id="Node000009" class="node">
<title>Node9</title>
<g id="a_Node000009"><a xlink:title=" ">
<polygon fill="#e0e0e0" stroke="#999999" points="646.38,-20 606.38,-20 606.38,0 646.38,0 646.38,-20"/>
<text text-anchor="middle" x="626.38" y="-6.5" font-family="Helvetica,sans-Serif" font-size="10.00">string</text>
</a>
</g>
</g>
<!-- Node8&#45;&gt;Node9 -->
<g id="edge8_Node000008_Node000009" class="edge">
<title>Node8&#45;&gt;Node9</title>
<g id="a_edge8_Node000008_Node000009"><a xlink:title=" ">
<path fill="none" stroke="#63b8ff" d="M337.84,-57.88C340.71,-57.21 343.6,-56.57 346.38,-56 435.87,-37.66 542.72,-22.26 594.76,-15.18"/>
<polygon fill="#63b8ff" stroke="#63b8ff" points="594.95,-18.69 604.39,-13.88 594.01,-11.75 594.95,-18.69"/>
</a>
</g>
</g>
<!-- Node10 -->
<g id="Node000010" class="node">
<title>Node10</title>
<g id="a_Node000010"><a xlink:href="_vector2f_8h.html" target="_top" xlink:title=" ">
<polygon fill="white" stroke="#666666" points="234.5,-20 174.25,-20 174.25,0 234.5,0 234.5,-20"/>
<text text-anchor="middle" x="204.38" y="-6.5" font-family="Helvetica,sans-Serif" font-size="10.00">Vector2f.h</text>
</a>
</g>
</g>
<!-- Node8&#45;&gt;Node10 -->
<g id="edge9_Node000008_Node000010" class="edge">
<title>Node8&#45;&gt;Node10</title>
<g id="a_edge9_Node000008_Node000010"><a xlink:title=" ">
<path fill="none" stroke="#63b8ff" d="M286.64,-55.59C269,-47.44 245.25,-35.48 227.71,-26"/>
<polygon fill="#63b8ff" stroke="#63b8ff" points="229.47,-22.98 219.03,-21.21 226.09,-29.11 229.47,-22.98"/>
</a>
</g>
</g>
<!-- Node10&#45;&gt;Node8 -->
<g id="edge10_Node000010_Node000008" class="edge">
<title>Node10&#45;&gt;Node8</title>
<g id="a_edge10_Node000010_Node000008"><a xlink:title=" ">
<path fill="none" stroke="#63b8ff" d="M228.26,-20.48C245.95,-28.66 269.7,-40.62 287.2,-50.08"/>
<polygon fill="#63b8ff" stroke="#63b8ff" points="285.41,-53.09 295.85,-54.86 288.79,-46.96 285.41,-53.09"/>
</a>
</g>
</g>
<!-- Node12 -->
<g id="Node000012" class="node">
<title>Node12</title>
<g id="a_Node000012"><a xlink:href="_interactable_item_8h.html" target="_top" xlink:title=" ">
<polygon fill="white" stroke="#666666" points="349.75,-468 255,-468 255,-448 349.75,-448 349.75,-468"/>
<text text-anchor="middle" x="302.38" y="-454.5" font-family="Helvetica,sans-Serif" font-size="10.00">InteractableItem.h</text>
</a>
</g>
</g>
<!-- Node11&#45;&gt;Node12 -->
<g id="edge12_Node000011_Node000012" class="edge">
<title>Node11&#45;&gt;Node12</title>
<g id="a_edge12_Node000011_Node000012"><a xlink:title=" ">
<path fill="none" stroke="#63b8ff" d="M204.1,-503.59C222.59,-495.21 249.92,-482.8 271.07,-473.21"/>
<polygon fill="#63b8ff" stroke="#63b8ff" points="272.45,-476.42 280.11,-469.1 269.55,-470.05 272.45,-476.42"/>
</a>
</g>
</g>
<!-- Node13 -->
<g id="Node000013" class="node">
<title>Node13</title>
<g id="a_Node000013"><a xlink:href="_character_8h.html" target="_top" xlink:title=" ">
<polygon fill="white" stroke="#666666" points="393.88,-412 326.88,-412 326.88,-392 393.88,-392 393.88,-412"/>
<text text-anchor="middle" x="360.38" y="-398.5" font-family="Helvetica,sans-Serif" font-size="10.00">Character.h</text>
</a>
</g>
</g>
<!-- Node12&#45;&gt;Node13 -->
<g id="edge13_Node000012_Node000013" class="edge">
<title>Node12&#45;&gt;Node13</title>
<g id="a_edge13_Node000012_Node000013"><a xlink:title=" ">
<path fill="none" stroke="#63b8ff" d="M312.48,-447.59C320.63,-440.01 332.31,-429.13 342.09,-420.02"/>
<polygon fill="#63b8ff" stroke="#63b8ff" points="344.35,-422.71 349.28,-413.33 339.58,-417.58 344.35,-422.71"/>
</a>
</g>
</g>
<!-- Node14 -->
<g id="Node000014" class="node">
<title>Node14</title>
<g id="a_Node000014"><a xlink:href="_character_controller_8h.html" target="_top" xlink:title=" ">
<polygon fill="white" stroke="#666666" points="251.88,-356 142.88,-356 142.88,-336 251.88,-336 251.88,-356"/>
<text text-anchor="middle" x="197.38" y="-342.5" font-family="Helvetica,sans-Serif" font-size="10.00">CharacterController.h</text>
</a>
</g>
</g>
<!-- Node13&#45;&gt;Node14 -->
<g id="edge14_Node000013_Node000014" class="edge">
<title>Node13&#45;&gt;Node14</title>
<g id="a_edge14_Node000013_Node000014"><a xlink:title=" ">
<path fill="none" stroke="#63b8ff" d="M331.98,-391.59C305.62,-382.86 266.11,-369.77 236.71,-360.03"/>
<polygon fill="#63b8ff" stroke="#63b8ff" points="238.02,-356.78 227.43,-356.96 235.82,-363.42 238.02,-356.78"/>
</a>
</g>
</g>
<!-- Node21 -->
<g id="Node000021" class="node">
<title>Node21</title>
<g id="a_Node000021"><a xlink:href="_hair_8h.html" target="_top" xlink:title=" ">
<polygon fill="white" stroke="#666666" points="315.5,-244 273.25,-244 273.25,-224 315.5,-224 315.5,-244"/>
<text text-anchor="middle" x="294.38" y="-230.5" font-family="Helvetica,sans-Serif" font-size="10.00">Hair.h</text>
</a>
</g>
</g>
<!-- Node13&#45;&gt;Node21 -->
<g id="edge30_Node000013_Node000021" class="edge">
<title>Node13&#45;&gt;Node21</title>
<g id="a_edge30_Node000013_Node000021"><a xlink:title=" ">
<path fill="none" stroke="#63b8ff" d="M356.64,-391.6C346.2,-365.35 316.58,-290.84 302.28,-254.89"/>
<polygon fill="#63b8ff" stroke="#63b8ff" points="305.58,-253.7 298.63,-245.7 299.07,-256.29 305.58,-253.7"/>
</a>
</g>
</g>
<!-- Node23 -->
<g id="Node000023" class="node">
<title>Node23</title>
<g id="a_Node000023"><a xlink:href="_character_texture_manager_8h.html" target="_top" xlink:title=" ">
<polygon fill="white" stroke="#666666" points="490.75,-356 354,-356 354,-336 490.75,-336 490.75,-356"/>
<text text-anchor="middle" x="422.38" y="-342.5" font-family="Helvetica,sans-Serif" font-size="10.00">CharacterTextureManager.h</text>
</a>
</g>
</g>
<!-- Node13&#45;&gt;Node23 -->
<g id="edge35_Node000013_Node000023" class="edge">
<title>Node13&#45;&gt;Node23</title>
<g id="a_edge35_Node000013_Node000023"><a xlink:title=" ">
<path fill="none" stroke="#63b8ff" d="M371.17,-391.59C379.98,-383.93 392.63,-372.91 403.15,-363.75"/>
<polygon fill="#63b8ff" stroke="#63b8ff" points="405.32,-366.5 410.56,-357.29 400.72,-361.22 405.32,-366.5"/>
</a>
</g>
</g>
<!-- Node26 -->
<g id="Node000026" class="node">
<title>Node26</title>
<g id="a_Node000026"><a xlink:href="_character_state_8h.html" target="_top" xlink:title=" ">
<polygon fill="white" stroke="#666666" points="625.5,-300 535.25,-300 535.25,-280 625.5,-280 625.5,-300"/>
<text text-anchor="middle" x="580.38" y="-286.5" font-family="Helvetica,sans-Serif" font-size="10.00">CharacterState.h</text>
</a>
</g>
</g>
<!-- Node13&#45;&gt;Node26 -->
<g id="edge42_Node000013_Node000026" class="edge">
<title>Node13&#45;&gt;Node26</title>
<g id="a_edge42_Node000013_Node000026"><a xlink:title=" ">
<path fill="none" stroke="#63b8ff" d="M394.33,-393.68C423.36,-386.57 465.67,-374.18 499.38,-356 523.52,-342.98 547.57,-322.48 563.12,-307.98"/>
<polygon fill="#63b8ff" stroke="#63b8ff" points="565.31,-310.73 570.13,-301.29 560.48,-305.67 565.31,-310.73"/>
</a>
</g>
</g>
<!-- Node27 -->
<g id="Node000027" class="node">
<title>Node27</title>
<g id="a_Node000027"><a xlink:href="_character_sound_manager_8h.html" target="_top" xlink:title=" ">
<polygon fill="white" stroke="#666666" points="712.5,-356 580.25,-356 580.25,-336 712.5,-336 712.5,-356"/>
<text text-anchor="middle" x="646.38" y="-342.5" font-family="Helvetica,sans-Serif" font-size="10.00">CharacterSoundManager.h</text>
</a>
</g>
</g>
<!-- Node13&#45;&gt;Node27 -->
<g id="edge43_Node000013_Node000027" class="edge">
<title>Node13&#45;&gt;Node27</title>
<g id="a_edge43_Node000013_Node000027"><a xlink:title=" ">
<path fill="none" stroke="#63b8ff" d="M394.31,-394.59C441.19,-385.74 526.59,-369.62 584.88,-358.61"/>
<polygon fill="#63b8ff" stroke="#63b8ff" points="585.49,-362.06 594.67,-356.76 584.19,-355.18 585.49,-362.06"/>
</a>
</g>
</g>
<!-- Node15 -->
<g id="Node000015" class="node">
<title>Node15</title>
<g id="a_Node000015"><a xlink:href="_game_object_8h.html" target="_top" xlink:title=" ">
<polygon fill="white" stroke="#666666" points="216.88,-300 137.88,-300 137.88,-280 216.88,-280 216.88,-300"/>
<text text-anchor="middle" x="177.38" y="-286.5" font-family="Helvetica,sans-Serif" font-size="10.00">GameObject.h</text>
</a>
</g>
</g>
<!-- Node14&#45;&gt;Node15 -->
<g id="edge15_Node000014_Node000015" class="edge">
<title>Node14&#45;&gt;Node15</title>
<g id="a_edge15_Node000014_Node000015"><a xlink:title=" ">
<path fill="none" stroke="#63b8ff" d="M193.89,-335.59C191.37,-328.78 187.86,-319.32 184.73,-310.86"/>
<polygon fill="#63b8ff" stroke="#63b8ff" points="188.1,-309.88 181.34,-301.72 181.54,-312.31 188.1,-309.88"/>
</a>
</g>
</g>
<!-- Node18 -->
<g id="Node000018" class="node">
<title>Node18</title>
<g id="a_Node000018"><a xlink:href="_vector2x2f_8h.html" target="_top" xlink:title=" ">
<polygon fill="white" stroke="#666666" points="119.75,-300 49,-300 49,-280 119.75,-280 119.75,-300"/>
<text text-anchor="middle" x="84.38" y="-286.5" font-family="Helvetica,sans-Serif" font-size="10.00">Vector2x2f.h</text>
</a>
</g>
</g>
<!-- Node14&#45;&gt;Node18 -->
<g id="edge25_Node000014_Node000018" class="edge">
<title>Node14&#45;&gt;Node18</title>
<g id="a_edge25_Node000014_Node000018"><a xlink:title=" ">
<path fill="none" stroke="#63b8ff" d="M177.69,-335.59C160.22,-327.24 134.42,-314.92 114.38,-305.34"/>
<polygon fill="#63b8ff" stroke="#63b8ff" points="116.11,-302.29 105.58,-301.13 113.09,-308.6 116.11,-302.29"/>
</a>
</g>
</g>
<!-- Node20 -->
<g id="Node000020" class="node">
<title>Node20</title>
<g id="a_Node000020"><a xlink:title=" ">
<polygon fill="#e0e0e0" stroke="#999999" points="317.88,-188 274.88,-188 274.88,-168 317.88,-168 317.88,-188"/>
<text text-anchor="middle" x="296.38" y="-174.5" font-family="Helvetica,sans-Serif" font-size="10.00">vector</text>
</a>
</g>
</g>
<!-- Node14&#45;&gt;Node20 -->
<g id="edge29_Node000014_Node000020" class="edge">
<title>Node14&#45;&gt;Node20</title>
<g id="a_edge29_Node000014_Node000020"><a xlink:title=" ">
<path fill="none" stroke="#63b8ff" d="M203.91,-335.53C210,-326.55 219.2,-312.6 226.38,-300 245.08,-267.19 244.93,-256.37 264.38,-224 269.79,-214.99 276.44,-205.44 282.27,-197.46"/>
<polygon fill="#63b8ff" stroke="#63b8ff" points="284.98,-199.68 288.16,-189.58 279.37,-195.5 284.98,-199.68"/>
</a>
</g>
</g>
<!-- Node16 -->
<g id="Node000016" class="node">
<title>Node16</title>
<g id="a_Node000016"><a xlink:href="_transform_8h.html" target="_top" xlink:title=" ">
<polygon fill="white" stroke="#666666" points="235.62,-188 167.12,-188 167.12,-168 235.62,-168 235.62,-188"/>
<text text-anchor="middle" x="201.38" y="-174.5" font-family="Helvetica,sans-Serif" font-size="10.00">Transform.h</text>
</a>
</g>
</g>
<!-- Node15&#45;&gt;Node16 -->
<g id="edge16_Node000015_Node000016" class="edge">
<title>Node15&#45;&gt;Node16</title>
<g id="a_edge16_Node000015_Node000016"><a xlink:title=" ">
<path fill="none" stroke="#63b8ff" d="M179.42,-279.62C183.28,-261.92 191.72,-223.24 196.94,-199.32"/>
<polygon fill="#63b8ff" stroke="#63b8ff" points="200.3,-200.35 199.01,-189.83 193.46,-198.86 200.3,-200.35"/>
</a>
</g>
</g>
<!-- Node16&#45;&gt;Node10 -->
<g id="edge24_Node000016_Node000010" class="edge">
<title>Node16&#45;&gt;Node10</title>
<g id="a_edge24_Node000016_Node000010"><a xlink:title=" ">
<path fill="none" stroke="#63b8ff" d="M185.71,-167.56C154.54,-147.54 89.98,-99.14 116.38,-56 126.68,-39.15 145.51,-28.36 163.12,-21.58"/>
<polygon fill="#63b8ff" stroke="#63b8ff" points="164.1,-24.94 172.4,-18.35 161.81,-18.33 164.1,-24.94"/>
</a>
</g>
</g>
<!-- Node17 -->
<g id="Node000017" class="node">
<title>Node17</title>
<g id="a_Node000017"><a xlink:href="base_8h.html" target="_top" xlink:title=" ">
<polygon fill="white" stroke="#666666" points="390,-132 344.75,-132 344.75,-112 390,-112 390,-132"/>
<text text-anchor="middle" x="367.38" y="-118.5" font-family="Helvetica,sans-Serif" font-size="10.00">base.h</text>
</a>
</g>
</g>
<!-- Node16&#45;&gt;Node17 -->
<g id="edge17_Node000016_Node000017" class="edge">
<title>Node16&#45;&gt;Node17</title>
<g id="a_edge17_Node000016_Node000017"><a xlink:title=" ">
<path fill="none" stroke="#63b8ff" d="M230.29,-167.59C259.04,-158.24 303.11,-143.9 333.49,-134.02"/>
<polygon fill="#63b8ff" stroke="#63b8ff" points="334.53,-137.36 342.96,-130.94 332.37,-130.71 334.53,-137.36"/>
</a>
</g>
</g>
<!-- Node17&#45;&gt;Node3 -->
<g id="edge18_Node000017_Node000003" class="edge">
<title>Node17&#45;&gt;Node3</title>
<g id="a_edge18_Node000017_Node000003"><a xlink:title=" ">
<path fill="none" stroke="#63b8ff" d="M344.34,-114.38C341.33,-113.55 338.28,-112.74 335.38,-112 269.4,-95.17 249.58,-94.06 180.69,-76.48"/>
<polygon fill="#63b8ff" stroke="#63b8ff" points="181.71,-73.13 171.15,-74.02 179.96,-79.91 181.71,-73.13"/>
</a>
</g>
</g>
<!-- Node17&#45;&gt;Node4 -->
<g id="edge19_Node000017_Node000004" class="edge">
<title>Node17&#45;&gt;Node4</title>
<g id="a_edge19_Node000017_Node000004"><a xlink:title=" ">
<path fill="none" stroke="#63b8ff" d="M344.41,-112.2C321.87,-103.57 287.22,-90.3 261.28,-80.37"/>
<polygon fill="#63b8ff" stroke="#63b8ff" points="262.76,-77.19 252.17,-76.88 260.25,-83.72 262.76,-77.19"/>
</a>
</g>
</g>
<!-- Node17&#45;&gt;Node5 -->
<g id="edge20_Node000017_Node000005" class="edge">
<title>Node17&#45;&gt;Node5</title>
<g id="a_edge20_Node000017_Node000005"><a xlink:title=" ">
<path fill="none" stroke="#63b8ff" d="M370.34,-111.59C372.46,-104.86 375.39,-95.53 378.03,-87.15"/>
<polygon fill="#63b8ff" stroke="#63b8ff" points="381.33,-88.33 380.99,-77.74 374.65,-86.23 381.33,-88.33"/>
</a>
</g>
</g>
<!-- Node17&#45;&gt;Node6 -->
<g id="edge21_Node000017_Node000006" class="edge">
<title>Node17&#45;&gt;Node6</title>
<g id="a_edge21_Node000017_Node000006"><a xlink:title=" ">
<path fill="none" stroke="#63b8ff" d="M384.97,-111.59C400.3,-103.4 422.79,-91.37 440.56,-81.87"/>
<polygon fill="#63b8ff" stroke="#63b8ff" points="442.14,-84.99 449.31,-77.19 438.84,-78.82 442.14,-84.99"/>
</a>
</g>
</g>
<!-- Node17&#45;&gt;Node7 -->
<g id="edge22_Node000017_Node000007" class="edge">
<title>Node17&#45;&gt;Node7</title>
<g id="a_edge22_Node000017_Node000007"><a xlink:title=" ">
<path fill="none" stroke="#63b8ff" d="M390.27,-114.59C421.06,-105.98 476.44,-90.48 515.64,-79.52"/>
<polygon fill="#63b8ff" stroke="#63b8ff" points="516.34,-82.96 525.03,-76.89 514.45,-76.21 516.34,-82.96"/>
</a>
</g>
</g>
<!-- Node17&#45;&gt;Node8 -->
<g id="edge23_Node000017_Node000008" class="edge">
<title>Node17&#45;&gt;Node8</title>
<g id="a_edge23_Node000017_Node000008"><a xlink:title=" ">
<path fill="none" stroke="#63b8ff" d="M357.45,-111.59C349.44,-104.01 337.96,-93.13 328.34,-84.02"/>
<polygon fill="#63b8ff" stroke="#63b8ff" points="330.96,-81.68 321.29,-77.34 326.14,-86.76 330.96,-81.68"/>
</a>
</g>
</g>
<!-- Node19 -->
<g id="Node000019" class="node">
<title>Node19</title>
<g id="a_Node000019"><a xlink:href="utils_8h.html" target="_top" xlink:title=" ">
<polygon fill="white" stroke="#666666" points="105.5,-244 63.25,-244 63.25,-224 105.5,-224 105.5,-244"/>
<text text-anchor="middle" x="84.38" y="-230.5" font-family="Helvetica,sans-Serif" font-size="10.00">utils.h</text>
</a>
</g>
</g>
<!-- Node18&#45;&gt;Node19 -->
<g id="edge26_Node000018_Node000019" class="edge">
<title>Node18&#45;&gt;Node19</title>
<g id="a_edge26_Node000018_Node000019"><a xlink:title=" ">
<path fill="none" stroke="#63b8ff" d="M84.38,-279.59C84.38,-273.01 84.38,-263.96 84.38,-255.73"/>
<polygon fill="#63b8ff" stroke="#63b8ff" points="87.88,-255.81 84.38,-245.81 80.88,-255.81 87.88,-255.81"/>
</a>
</g>
</g>
<!-- Node19&#45;&gt;Node10 -->
<g id="edge28_Node000019_Node000010" class="edge">
<title>Node19&#45;&gt;Node10</title>
<g id="a_edge28_Node000019_Node000010"><a xlink:title=" ">
<path fill="none" stroke="#63b8ff" d="M82.66,-223.81C77.96,-195.59 67.59,-108.97 106.38,-56 119.91,-37.52 142.89,-26.42 163.19,-19.88"/>
<polygon fill="#63b8ff" stroke="#63b8ff" points="164.05,-23.27 172.67,-17.11 162.09,-16.55 164.05,-23.27"/>
</a>
</g>
</g>
<!-- Node19&#45;&gt;Node20 -->
<g id="edge27_Node000019_Node000020" class="edge">
<title>Node19&#45;&gt;Node20</title>
<g id="a_edge27_Node000019_Node000020"><a xlink:title=" ">
<path fill="none" stroke="#63b8ff" d="M105.87,-227.53C143.07,-218.05 219.69,-198.53 263.58,-187.35"/>
<polygon fill="#63b8ff" stroke="#63b8ff" points="264.21,-190.8 273.04,-184.94 262.49,-184.02 264.21,-190.8"/>
</a>
</g>
</g>
<!-- Node21&#45;&gt;Node16 -->
<g id="edge31_Node000021_Node000016" class="edge">
<title>Node21&#45;&gt;Node16</title>
<g id="a_edge31_Node000021_Node000016"><a xlink:title=" ">
<path fill="none" stroke="#63b8ff" d="M278.18,-223.59C264.13,-215.44 243.54,-203.48 227.22,-194"/>
<polygon fill="#63b8ff" stroke="#63b8ff" points="229.42,-191.23 219.01,-189.24 225.9,-197.29 229.42,-191.23"/>
</a>
</g>
</g>
<!-- Node21&#45;&gt;Node20 -->
<g id="edge32_Node000021_Node000020" class="edge">
<title>Node21&#45;&gt;Node20</title>
<g id="a_edge32_Node000021_Node000020"><a xlink:title=" ">
<path fill="none" stroke="#63b8ff" d="M294.72,-223.59C294.97,-217.01 295.3,-207.96 295.61,-199.73"/>
<polygon fill="#63b8ff" stroke="#63b8ff" points="299.1,-199.93 295.97,-189.81 292.11,-199.67 299.1,-199.93"/>
</a>
</g>
</g>
<!-- Node22 -->
<g id="Node000022" class="node">
<title>Node22</title>
<g id="a_Node000022"><a xlink:href="_texture_8h.html" target="_top" xlink:title=" ">
<polygon fill="white" stroke="#666666" points="395.62,-188 339.12,-188 339.12,-168 395.62,-168 395.62,-188"/>
<text text-anchor="middle" x="367.38" y="-174.5" font-family="Helvetica,sans-Serif" font-size="10.00">Texture.h</text>
</a>
</g>
</g>
<!-- Node21&#45;&gt;Node22 -->
<g id="edge33_Node000021_Node000022" class="edge">
<title>Node21&#45;&gt;Node22</title>
<g id="a_edge33_Node000021_Node000022"><a xlink:title=" ">
<path fill="none" stroke="#63b8ff" d="M307.09,-223.59C317.77,-215.7 333.25,-204.24 345.86,-194.92"/>
<polygon fill="#63b8ff" stroke="#63b8ff" points="347.63,-197.96 353.59,-189.2 343.47,-192.33 347.63,-197.96"/>
</a>
</g>
</g>
<!-- Node22&#45;&gt;Node17 -->
<g id="edge34_Node000022_Node000017" class="edge">
<title>Node22&#45;&gt;Node17</title>
<g id="a_edge34_Node000022_Node000017"><a xlink:title=" ">
<path fill="none" stroke="#63b8ff" d="M367.38,-167.59C367.38,-161.01 367.38,-151.96 367.38,-143.73"/>
<polygon fill="#63b8ff" stroke="#63b8ff" points="370.88,-143.81 367.38,-133.81 363.88,-143.81 370.88,-143.81"/>
</a>
</g>
</g>
<!-- Node23&#45;&gt;Node20 -->
<g id="edge41_Node000023_Node000020" class="edge">
<title>Node23&#45;&gt;Node20</title>
<g id="a_edge41_Node000023_Node000020"><a xlink:title=" ">
<path fill="none" stroke="#63b8ff" d="M406.26,-335.54C393.42,-327.38 375.61,-314.62 363.38,-300 339.01,-270.88 343.09,-257.03 324.38,-224 319.39,-215.2 313.53,-205.67 308.46,-197.65"/>
<polygon fill="#63b8ff" stroke="#63b8ff" points="311.55,-195.98 303.21,-189.45 305.65,-199.76 311.55,-195.98"/>
</a>
</g>
</g>
<!-- Node24 -->
<g id="Node000024" class="node">
<title>Node24</title>
<g id="a_Node000024"><a xlink:href="_animation_manager_a_n_d_hair_8h.html" target="_top" xlink:title=" ">
<polygon fill="white" stroke="#666666" points="516.88,-300 371.88,-300 371.88,-280 516.88,-280 516.88,-300"/>
<text text-anchor="middle" x="444.38" y="-286.5" font-family="Helvetica,sans-Serif" font-size="10.00">AnimationManagerANDHair.h</text>
</a>
</g>
</g>
<!-- Node23&#45;&gt;Node24 -->
<g id="edge36_Node000023_Node000024" class="edge">
<title>Node23&#45;&gt;Node24</title>
<g id="a_edge36_Node000023_Node000024"><a xlink:title=" ">
<path fill="none" stroke="#63b8ff" d="M426.21,-335.59C428.98,-328.78 432.84,-319.32 436.28,-310.86"/>
<polygon fill="#63b8ff" stroke="#63b8ff" points="439.48,-312.28 440.02,-301.7 433,-309.64 439.48,-312.28"/>
</a>
</g>
</g>
<!-- Node23&#45;&gt;Node26 -->
<g id="edge40_Node000023_Node000026" class="edge">
<title>Node23&#45;&gt;Node26</title>
<g id="a_edge40_Node000023_Node000026"><a xlink:title=" ">
<path fill="none" stroke="#63b8ff" d="M449.9,-335.59C475.34,-326.9 513.41,-313.89 541.87,-304.16"/>
<polygon fill="#63b8ff" stroke="#63b8ff" points="542.88,-307.52 551.21,-300.97 540.61,-300.89 542.88,-307.52"/>
</a>
</g>
</g>
<!-- Node24&#45;&gt;Node20 -->
<g id="edge39_Node000024_Node000020" class="edge">
<title>Node24&#45;&gt;Node20</title>
<g id="a_edge39_Node000024_Node000020"><a xlink:title=" ">
<path fill="none" stroke="#63b8ff" d="M431.71,-279.5C414.79,-266.82 383.87,-243.67 357.38,-224 344.33,-214.32 329.68,-203.51 318.01,-194.91"/>
<polygon fill="#63b8ff" stroke="#63b8ff" points="320.36,-192.29 310.23,-189.18 316.21,-197.93 320.36,-192.29"/>
</a>
</g>
</g>
<!-- Node25 -->
<g id="Node000025" class="node">
<title>Node25</title>
<g id="a_Node000025"><a xlink:href="_animation_manager_8h.html" target="_top" xlink:title=" ">
<polygon fill="white" stroke="#666666" points="515,-244 409.75,-244 409.75,-224 515,-224 515,-244"/>
<text text-anchor="middle" x="462.38" y="-230.5" font-family="Helvetica,sans-Serif" font-size="10.00">AnimationManager.h</text>
</a>
</g>
</g>
<!-- Node24&#45;&gt;Node25 -->
<g id="edge37_Node000024_Node000025" class="edge">
<title>Node24&#45;&gt;Node25</title>
<g id="a_edge37_Node000024_Node000025"><a xlink:title=" ">
<path fill="none" stroke="#63b8ff" d="M447.51,-279.59C449.76,-272.86 452.86,-263.53 455.66,-255.15"/>
<polygon fill="#63b8ff" stroke="#63b8ff" points="458.95,-256.33 458.8,-245.73 452.31,-254.11 458.95,-256.33"/>
</a>
</g>
</g>
<!-- Node25&#45;&gt;Node22 -->
<g id="edge38_Node000025_Node000022" class="edge">
<title>Node25&#45;&gt;Node22</title>
<g id="a_edge38_Node000025_Node000022"><a xlink:title=" ">
<path fill="none" stroke="#63b8ff" d="M445.83,-223.59C431.48,-215.44 410.45,-203.48 393.77,-194"/>
<polygon fill="#63b8ff" stroke="#63b8ff" points="395.79,-191.13 385.37,-189.23 392.33,-197.21 395.79,-191.13"/>
</a>
</g>
</g>
<!-- Node27&#45;&gt;Node26 -->
<g id="edge44_Node000027_Node000026" class="edge">
<title>Node27&#45;&gt;Node26</title>
<g id="a_edge44_Node000027_Node000026"><a xlink:title=" ">
<path fill="none" stroke="#63b8ff" d="M634.88,-335.59C625.41,-327.85 611.77,-316.69 600.5,-307.47"/>
<polygon fill="#63b8ff" stroke="#63b8ff" points="602.87,-304.88 592.91,-301.26 598.43,-310.3 602.87,-304.88"/>
</a>
</g>
</g>
<!-- Node28 -->
<g id="Node000028" class="node">
<title>Node28</title>
<g id="a_Node000028"><a xlink:href="_sound_effect_8h.html" target="_top" xlink:title=" ">
<polygon fill="white" stroke="#666666" points="665.12,-244 587.62,-244 587.62,-224 665.12,-224 665.12,-244"/>
<text text-anchor="middle" x="626.38" y="-230.5" font-family="Helvetica,sans-Serif" font-size="10.00">SoundEffect.h</text>
</a>
</g>
</g>
<!-- Node27&#45;&gt;Node28 -->
<g id="edge45_Node000027_Node000028" class="edge">
<title>Node27&#45;&gt;Node28</title>
<g id="a_edge45_Node000027_Node000028"><a xlink:title=" ">
<path fill="none" stroke="#63b8ff" d="M644.67,-335.62C641.47,-318.01 634.48,-279.59 630.13,-255.65"/>
<polygon fill="#63b8ff" stroke="#63b8ff" points="633.58,-255.06 628.35,-245.84 626.69,-256.31 633.58,-255.06"/>
</a>
</g>
</g>
<!-- Node29 -->
<g id="Node000029" class="node">
<title>Node29</title>
<g id="a_Node000029"><a xlink:href="_sound_stream_8h.html" target="_top" xlink:title=" ">
<polygon fill="white" stroke="#666666" points="738.12,-132 654.62,-132 654.62,-112 738.12,-112 738.12,-132"/>
<text text-anchor="middle" x="696.38" y="-118.5" font-family="Helvetica,sans-Serif" font-size="10.00">SoundStream.h</text>
</a>
</g>
</g>
<!-- Node27&#45;&gt;Node29 -->
<g id="edge48_Node000027_Node000029" class="edge">
<title>Node27&#45;&gt;Node29</title>
<g id="a_edge48_Node000027_Node000029"><a xlink:title=" ">
<path fill="none" stroke="#63b8ff" d="M649.29,-335.6C654.73,-317.84 666.58,-278.05 674.38,-244 682.38,-209.07 689.34,-167.93 693.19,-143.74"/>
<polygon fill="#63b8ff" stroke="#63b8ff" points="696.63,-144.39 694.72,-133.97 689.72,-143.31 696.63,-144.39"/>
</a>
</g>
</g>
<!-- Node28&#45;&gt;Node9 -->
<g id="edge46_Node000028_Node000009" class="edge">
<title>Node28&#45;&gt;Node9</title>
<g id="a_edge46_Node000028_Node000009"><a xlink:title=" ">
<path fill="none" stroke="#63b8ff" d="M626.38,-223.74C626.38,-190.74 626.38,-78.31 626.38,-31.61"/>
<polygon fill="#63b8ff" stroke="#63b8ff" points="629.88,-31.81 626.38,-21.81 622.88,-31.81 629.88,-31.81"/>
</a>
</g>
</g>
<!-- Node28&#45;&gt;Node20 -->
<g id="edge47_Node000028_Node000020" class="edge">
<title>Node28&#45;&gt;Node20</title>
<g id="a_edge47_Node000028_Node000020"><a xlink:title=" ">
<path fill="none" stroke="#63b8ff" d="M587.35,-228.43C530.5,-221.47 421.73,-206.98 330.38,-188 330.01,-187.92 329.63,-187.84 329.26,-187.76"/>
<polygon fill="#63b8ff" stroke="#63b8ff" points="330.25,-184.4 319.71,-185.51 328.64,-191.21 330.25,-184.4"/>
</a>
</g>
</g>
<!-- Node29&#45;&gt;Node9 -->
<g id="edge49_Node000029_Node000009" class="edge">
<title>Node29&#45;&gt;Node9</title>
<g id="a_edge49_Node000029_Node000009"><a xlink:title=" ">
<path fill="none" stroke="#63b8ff" d="M690.41,-111.62C678.94,-93.6 653.62,-53.81 638.48,-30.02"/>
<polygon fill="#63b8ff" stroke="#63b8ff" points="641.46,-28.19 633.14,-21.63 635.56,-31.95 641.46,-28.19"/>
</a>
</g>
</g>
</g>
</svg>
