<?xml version="1.0" encoding="UTF-8" standalone="no"?>
<!DOCTYPE svg PUBLIC "-//W3C//DTD SVG 1.1//EN"
 "http://www.w3.org/Graphics/SVG/1.1/DTD/svg11.dtd">
<!-- Generated by graphviz version 12.2.1 (20241206.2353)
 -->
<!-- Title: Engine/Matrix2x3.cpp Pages: 1 -->
<svg width="572pt" height="196pt"
 viewBox="0.00 0.00 572.36 196.00" xmlns="http://www.w3.org/2000/svg" xmlns:xlink="http://www.w3.org/1999/xlink">
<g id="graph0" class="graph" transform="scale(1 1) rotate(0) translate(4 192)">
<title>Engine/Matrix2x3.cpp</title>
<!-- Node1 -->
<g id="Node000001" class="node">
<title>Node1</title>
<g id="a_Node000001"><a xlink:title=" ">
<polygon fill="#999999" stroke="#666666" points="379.58,-188 269.08,-188 269.08,-168 379.58,-168 379.58,-188"/>
<text text-anchor="middle" x="324.33" y="-174.5" font-family="Helvetica,sans-Serif" font-size="10.00">Engine/Matrix2x3.cpp</text>
</a>
</g>
</g>
<!-- Node2 -->
<g id="Node000002" class="node">
<title>Node2</title>
<g id="a_Node000002"><a xlink:href="base_8h.html" target="_top" xlink:title=" ">
<polygon fill="white" stroke="#666666" points="284.96,-132 239.71,-132 239.71,-112 284.96,-112 284.96,-132"/>
<text text-anchor="middle" x="262.33" y="-118.5" font-family="Helvetica,sans-Serif" font-size="10.00">base.h</text>
</a>
</g>
</g>
<!-- Node1&#45;&gt;Node2 -->
<g id="edge1_Node000001_Node000002" class="edge">
<title>Node1&#45;&gt;Node2</title>
<g id="a_edge1_Node000001_Node000002"><a xlink:title=" ">
<path fill="none" stroke="#63b8ff" d="M313.53,-167.59C304.73,-159.93 292.08,-148.91 281.56,-139.75"/>
<polygon fill="#63b8ff" stroke="#63b8ff" points="283.99,-137.22 274.15,-133.29 279.39,-142.5 283.99,-137.22"/>
</a>
</g>
</g>
<!-- Node9 -->
<g id="Node000009" class="node">
<title>Node9</title>
<g id="a_Node000009"><a xlink:title=" ">
<polygon fill="#e0e0e0" stroke="#999999" points="211.33,-20 171.33,-20 171.33,0 211.33,0 211.33,-20"/>
<text text-anchor="middle" x="191.33" y="-6.5" font-family="Helvetica,sans-Serif" font-size="10.00">string</text>
</a>
</g>
</g>
<!-- Node1&#45;&gt;Node9 -->
<g id="edge12_Node000001_Node000009" class="edge">
<title>Node1&#45;&gt;Node9</title>
<g id="a_edge12_Node000001_Node000009"><a xlink:title=" ">
<path fill="none" stroke="#63b8ff" d="M269.65,-167.52C187.51,-152.04 38.56,-118.73 7.33,-76 -31.93,-22.28 97.36,-12.73 159.68,-11.19"/>
<polygon fill="#63b8ff" stroke="#63b8ff" points="159.73,-14.69 169.67,-11.01 159.61,-7.69 159.73,-14.69"/>
</a>
</g>
</g>
<!-- Node11 -->
<g id="Node000011" class="node">
<title>Node11</title>
<g id="a_Node000011"><a xlink:title=" ">
<polygon fill="#e0e0e0" stroke="#999999" points="345.83,-132 302.83,-132 302.83,-112 345.83,-112 345.83,-132"/>
<text text-anchor="middle" x="324.33" y="-118.5" font-family="Helvetica,sans-Serif" font-size="10.00">cmath</text>
</a>
</g>
</g>
<!-- Node1&#45;&gt;Node11 -->
<g id="edge11_Node000001_Node000011" class="edge">
<title>Node1&#45;&gt;Node11</title>
<g id="a_edge11_Node000001_Node000011"><a xlink:title=" ">
<path fill="none" stroke="#63b8ff" d="M324.33,-167.59C324.33,-161.01 324.33,-151.96 324.33,-143.73"/>
<polygon fill="#63b8ff" stroke="#63b8ff" points="327.83,-143.81 324.33,-133.81 320.83,-143.81 327.83,-143.81"/>
</a>
</g>
</g>
<!-- Node12 -->
<g id="Node000012" class="node">
<title>Node12</title>
<g id="a_Node000012"><a xlink:title=" ">
<polygon fill="#e0e0e0" stroke="#999999" points="417.08,-132 363.58,-132 363.58,-112 417.08,-112 417.08,-132"/>
<text text-anchor="middle" x="390.33" y="-118.5" font-family="Helvetica,sans-Serif" font-size="10.00">iostream</text>
</a>
</g>
</g>
<!-- Node1&#45;&gt;Node12 -->
<g id="edge13_Node000001_Node000012" class="edge">
<title>Node1&#45;&gt;Node12</title>
<g id="a_edge13_Node000001_Node000012"><a xlink:title=" ">
<path fill="none" stroke="#63b8ff" d="M335.83,-167.59C345.29,-159.85 358.94,-148.69 370.21,-139.47"/>
<polygon fill="#63b8ff" stroke="#63b8ff" points="372.27,-142.3 377.8,-133.26 367.84,-136.88 372.27,-142.3"/>
</a>
</g>
</g>
<!-- Node13 -->
<g id="Node000013" class="node">
<title>Node13</title>
<g id="a_Node000013"><a xlink:href="_matrix2x3_8h.html" target="_top" xlink:title=" ">
<polygon fill="white" stroke="#666666" points="562.83,-132 495.83,-132 495.83,-112 562.83,-112 562.83,-132"/>
<text text-anchor="middle" x="529.33" y="-118.5" font-family="Helvetica,sans-Serif" font-size="10.00">Matrix2x3.h</text>
</a>
</g>
</g>
<!-- Node1&#45;&gt;Node13 -->
<g id="edge14_Node000001_Node000013" class="edge">
<title>Node1&#45;&gt;Node13</title>
<g id="a_edge14_Node000001_Node000013"><a xlink:title=" ">
<path fill="none" stroke="#63b8ff" d="M360.04,-167.59C394.56,-158.5 446.97,-144.7 484.32,-134.86"/>
<polygon fill="#63b8ff" stroke="#63b8ff" points="485.15,-138.26 493.93,-132.33 483.37,-131.49 485.15,-138.26"/>
</a>
</g>
</g>
<!-- Node3 -->
<g id="Node000003" class="node">
<title>Node3</title>
<g id="a_Node000003"><a xlink:title=" ">
<polygon fill="#e0e0e0" stroke="#999999" points="245.21,-76 201.46,-76 201.46,-56 245.21,-56 245.21,-76"/>
<text text-anchor="middle" x="223.33" y="-62.5" font-family="Helvetica,sans-Serif" font-size="10.00">SDL.h</text>
</a>
</g>
</g>
<!-- Node2&#45;&gt;Node3 -->
<g id="edge2_Node000002_Node000003" class="edge">
<title>Node2&#45;&gt;Node3</title>
<g id="a_edge2_Node000002_Node000003"><a xlink:title=" ">
<path fill="none" stroke="#63b8ff" d="M255.54,-111.59C250.34,-104.39 243,-94.23 236.65,-85.43"/>
<polygon fill="#63b8ff" stroke="#63b8ff" points="239.63,-83.58 230.94,-77.53 233.95,-87.68 239.63,-83.58"/>
</a>
</g>
</g>
<!-- Node4 -->
<g id="Node000004" class="node">
<title>Node4</title>
<g id="a_Node000004"><a xlink:title=" ">
<polygon fill="#e0e0e0" stroke="#999999" points="341.08,-76 263.58,-76 263.58,-56 341.08,-56 341.08,-76"/>
<text text-anchor="middle" x="302.33" y="-62.5" font-family="Helvetica,sans-Serif" font-size="10.00">SDL_opengl.h</text>
</a>
</g>
</g>
<!-- Node2&#45;&gt;Node4 -->
<g id="edge3_Node000002_Node000004" class="edge">
<title>Node2&#45;&gt;Node4</title>
<g id="a_edge3_Node000002_Node000004"><a xlink:title=" ">
<path fill="none" stroke="#63b8ff" d="M269.3,-111.59C274.64,-104.39 282.16,-94.23 288.68,-85.43"/>
<polygon fill="#63b8ff" stroke="#63b8ff" points="291.41,-87.63 294.55,-77.51 285.78,-83.47 291.41,-87.63"/>
</a>
</g>
</g>
<!-- Node5 -->
<g id="Node000005" class="node">
<title>Node5</title>
<g id="a_Node000005"><a xlink:title=" ">
<polygon fill="#e0e0e0" stroke="#999999" points="417.33,-76 359.33,-76 359.33,-56 417.33,-56 417.33,-76"/>
<text text-anchor="middle" x="388.33" y="-62.5" font-family="Helvetica,sans-Serif" font-size="10.00">SDL_ttf.h</text>
</a>
</g>
</g>
<!-- Node2&#45;&gt;Node5 -->
<g id="edge4_Node000002_Node000005" class="edge">
<title>Node2&#45;&gt;Node5</title>
<g id="a_edge4_Node000002_Node000005"><a xlink:title=" ">
<path fill="none" stroke="#63b8ff" d="M284.28,-111.59C304.03,-103.13 333.32,-90.58 355.8,-80.94"/>
<polygon fill="#63b8ff" stroke="#63b8ff" points="357.01,-84.23 364.82,-77.08 354.25,-77.8 357.01,-84.23"/>
</a>
</g>
</g>
<!-- Node6 -->
<g id="Node000006" class="node">
<title>Node6</title>
<g id="a_Node000006"><a xlink:title=" ">
<polygon fill="#e0e0e0" stroke="#999999" points="89.83,-76 16.83,-76 16.83,-56 89.83,-56 89.83,-76"/>
<text text-anchor="middle" x="53.33" y="-62.5" font-family="Helvetica,sans-Serif" font-size="10.00">SDL_mixer.h</text>
</a>
</g>
</g>
<!-- Node2&#45;&gt;Node6 -->
<g id="edge5_Node000002_Node000006" class="edge">
<title>Node2&#45;&gt;Node6</title>
<g id="a_edge5_Node000002_Node000006"><a xlink:title=" ">
<path fill="none" stroke="#63b8ff" d="M239.57,-115.12C206.55,-106.59 144.58,-90.58 101.23,-79.37"/>
<polygon fill="#63b8ff" stroke="#63b8ff" points="102.11,-75.99 91.55,-76.87 100.36,-82.76 102.11,-75.99"/>
</a>
</g>
</g>
<!-- Node7 -->
<g id="Node000007" class="node">
<title>Node7</title>
<g id="a_Node000007"><a xlink:title=" ">
<polygon fill="#e0e0e0" stroke="#999999" points="182.96,-76 107.71,-76 107.71,-56 182.96,-56 182.96,-76"/>
<text text-anchor="middle" x="145.33" y="-62.5" font-family="Helvetica,sans-Serif" font-size="10.00">SDL_image.h</text>
</a>
</g>
</g>
<!-- Node2&#45;&gt;Node7 -->
<g id="edge6_Node000002_Node000007" class="edge">
<title>Node2&#45;&gt;Node7</title>
<g id="a_edge6_Node000002_Node000007"><a xlink:title=" ">
<path fill="none" stroke="#63b8ff" d="M241.95,-111.59C223.78,-103.21 196.91,-90.8 176.11,-81.21"/>
<polygon fill="#63b8ff" stroke="#63b8ff" points="177.79,-78.13 167.25,-77.11 174.86,-84.48 177.79,-78.13"/>
</a>
</g>
</g>
<!-- Node8 -->
<g id="Node000008" class="node">
<title>Node8</title>
<g id="a_Node000008"><a xlink:href="structs_8h.html" target="_top" xlink:title=" ">
<polygon fill="white" stroke="#666666" points="489.46,-76 435.21,-76 435.21,-56 489.46,-56 489.46,-76"/>
<text text-anchor="middle" x="462.33" y="-62.5" font-family="Helvetica,sans-Serif" font-size="10.00">structs.h</text>
</a>
</g>
</g>
<!-- Node2&#45;&gt;Node8 -->
<g id="edge7_Node000002_Node000008" class="edge">
<title>Node2&#45;&gt;Node8</title>
<g id="a_edge7_Node000002_Node000008"><a xlink:title=" ">
<path fill="none" stroke="#63b8ff" d="M285.4,-114.48C288.4,-113.64 291.44,-112.79 294.33,-112 338.81,-99.79 390.01,-86.13 424.09,-77.1"/>
<polygon fill="#63b8ff" stroke="#63b8ff" points="424.72,-80.55 433.49,-74.61 422.93,-73.79 424.72,-80.55"/>
</a>
</g>
</g>
<!-- Node8&#45;&gt;Node9 -->
<g id="edge8_Node000008_Node000009" class="edge">
<title>Node8&#45;&gt;Node9</title>
<g id="a_edge8_Node000008_Node000009"><a xlink:title=" ">
<path fill="none" stroke="#63b8ff" d="M434.85,-57.96C431.98,-57.28 429.1,-56.61 426.33,-56 353.72,-39.98 267.76,-24.36 222.62,-16.42"/>
<polygon fill="#63b8ff" stroke="#63b8ff" points="223.47,-13.01 213.02,-14.74 222.27,-19.91 223.47,-13.01"/>
</a>
</g>
</g>
<!-- Node10 -->
<g id="Node000010" class="node">
<title>Node10</title>
<g id="a_Node000010"><a xlink:href="_vector2f_8h.html" target="_top" xlink:title=" ">
<polygon fill="white" stroke="#666666" points="492.46,-20 432.21,-20 432.21,0 492.46,0 492.46,-20"/>
<text text-anchor="middle" x="462.33" y="-6.5" font-family="Helvetica,sans-Serif" font-size="10.00">Vector2f.h</text>
</a>
</g>
</g>
<!-- Node8&#45;&gt;Node10 -->
<g id="edge9_Node000008_Node000010" class="edge">
<title>Node8&#45;&gt;Node10</title>
<g id="a_edge9_Node000008_Node000010"><a xlink:title=" ">
<path fill="none" stroke="#63b8ff" d="M457.07,-55.59C455.75,-49.01 455.31,-39.96 455.75,-31.73"/>
<polygon fill="#63b8ff" stroke="#63b8ff" points="459.22,-32.14 456.91,-21.8 452.27,-31.33 459.22,-32.14"/>
</a>
</g>
</g>
<!-- Node10&#45;&gt;Node8 -->
<g id="edge10_Node000010_Node000008" class="edge">
<title>Node10&#45;&gt;Node8</title>
<g id="a_edge10_Node000010_Node000008"><a xlink:title=" ">
<path fill="none" stroke="#63b8ff" d="M467.58,-20.3C468.92,-26.93 469.37,-36.11 468.91,-44.43"/>
<polygon fill="#63b8ff" stroke="#63b8ff" points="465.47,-43.75 467.78,-54.09 472.42,-44.57 465.47,-43.75"/>
</a>
</g>
</g>
<!-- Node13&#45;&gt;Node10 -->
<g id="edge16_Node000013_Node000010" class="edge">
<title>Node13&#45;&gt;Node10</title>
<g id="a_edge16_Node000013_Node000010"><a xlink:title=" ">
<path fill="none" stroke="#63b8ff" d="M539.56,-111.79C552.67,-98.84 572.35,-74.73 560.33,-56 547.83,-36.5 524.51,-25.33 503.76,-19"/>
<polygon fill="#63b8ff" stroke="#63b8ff" points="504.92,-15.69 494.35,-16.44 503.08,-22.45 504.92,-15.69"/>
</a>
</g>
</g>
<!-- Node14 -->
<g id="Node000014" class="node">
<title>Node14</title>
<g id="a_Node000014"><a xlink:title=" ">
<polygon fill="#e0e0e0" stroke="#999999" points="550.83,-76 507.83,-76 507.83,-56 550.83,-56 550.83,-76"/>
<text text-anchor="middle" x="529.33" y="-62.5" font-family="Helvetica,sans-Serif" font-size="10.00">vector</text>
</a>
</g>
</g>
<!-- Node13&#45;&gt;Node14 -->
<g id="edge15_Node000013_Node000014" class="edge">
<title>Node13&#45;&gt;Node14</title>
<g id="a_edge15_Node000013_Node000014"><a xlink:title=" ">
<path fill="none" stroke="#63b8ff" d="M529.33,-111.59C529.33,-105.01 529.33,-95.96 529.33,-87.73"/>
<polygon fill="#63b8ff" stroke="#63b8ff" points="532.83,-87.81 529.33,-77.81 525.83,-87.81 532.83,-87.81"/>
</a>
</g>
</g>
</g>
</svg>
