<?xml version="1.0" encoding="UTF-8" standalone="no"?>
<!DOCTYPE svg PUBLIC "-//W3C//DTD SVG 1.1//EN"
 "http://www.w3.org/Graphics/SVG/1.1/DTD/svg11.dtd">
<!-- Generated by graphviz version 12.2.1 (20241206.2353)
 -->
<!-- Title: Celeste/RespawnZone.cpp Pages: 1 -->
<svg width="756pt" height="588pt"
 viewBox="0.00 0.00 756.00 588.00" xmlns="http://www.w3.org/2000/svg" xmlns:xlink="http://www.w3.org/1999/xlink">
<g id="graph0" class="graph" transform="scale(1 1) rotate(0) translate(4 584)">
<title>Celeste/RespawnZone.cpp</title>
<!-- Node1 -->
<g id="Node000001" class="node">
<title>Node1</title>
<g id="a_Node000001"><a xlink:title=" ">
<polygon fill="#999999" stroke="#666666" points="134.5,-580 0,-580 0,-560 134.5,-560 134.5,-580"/>
<text text-anchor="middle" x="67.25" y="-566.5" font-family="Helvetica,sans-Serif" font-size="10.00">Celeste/RespawnZone.cpp</text>
</a>
</g>
</g>
<!-- Node2 -->
<g id="Node000002" class="node">
<title>Node2</title>
<g id="a_Node000002"><a xlink:href="pch_8h.html" target="_top" xlink:title=" ">
<polygon fill="white" stroke="#666666" points="336.25,-132 296.25,-132 296.25,-112 336.25,-112 336.25,-132"/>
<text text-anchor="middle" x="316.25" y="-118.5" font-family="Helvetica,sans-Serif" font-size="10.00">pch.h</text>
</a>
</g>
</g>
<!-- Node1&#45;&gt;Node2 -->
<g id="edge1_Node000001_Node000002" class="edge">
<title>Node1&#45;&gt;Node2</title>
<g id="a_edge1_Node000001_Node000002"><a xlink:title=" ">
<path fill="none" stroke="#63b8ff" d="M61.94,-559.63C51.92,-541.05 31.25,-497.98 31.25,-459 31.25,-459 31.25,-459 31.25,-233 31.25,-179.13 210.69,-141.49 284.81,-128.24"/>
<polygon fill="#63b8ff" stroke="#63b8ff" points="285.02,-131.76 294.26,-126.59 283.81,-124.87 285.02,-131.76"/>
</a>
</g>
</g>
<!-- Node11 -->
<g id="Node000011" class="node">
<title>Node11</title>
<g id="a_Node000011"><a xlink:href="_respawn_zone_8h.html" target="_top" xlink:title=" ">
<polygon fill="white" stroke="#666666" points="246.88,-524 159.62,-524 159.62,-504 246.88,-504 246.88,-524"/>
<text text-anchor="middle" x="203.25" y="-510.5" font-family="Helvetica,sans-Serif" font-size="10.00">RespawnZone.h</text>
</a>
</g>
</g>
<!-- Node1&#45;&gt;Node11 -->
<g id="edge11_Node000001_Node000011" class="edge">
<title>Node1&#45;&gt;Node11</title>
<g id="a_edge11_Node000001_Node000011"><a xlink:title=" ">
<path fill="none" stroke="#63b8ff" d="M90.94,-559.59C112.45,-551.05 144.45,-538.35 168.79,-528.68"/>
<polygon fill="#63b8ff" stroke="#63b8ff" points="169.97,-531.98 177.97,-525.04 167.38,-525.48 169.97,-531.98"/>
</a>
</g>
</g>
<!-- Node3 -->
<g id="Node000003" class="node">
<title>Node3</title>
<g id="a_Node000003"><a xlink:title=" ">
<polygon fill="#e0e0e0" stroke="#999999" points="179.12,-76 135.38,-76 135.38,-56 179.12,-56 179.12,-76"/>
<text text-anchor="middle" x="157.25" y="-62.5" font-family="Helvetica,sans-Serif" font-size="10.00">SDL.h</text>
</a>
</g>
</g>
<!-- Node2&#45;&gt;Node3 -->
<g id="edge2_Node000002_Node000003" class="edge">
<title>Node2&#45;&gt;Node3</title>
<g id="a_edge2_Node000002_Node000003"><a xlink:title=" ">
<path fill="none" stroke="#63b8ff" d="M295.79,-114.05C269,-104.95 221.74,-88.9 189.96,-78.11"/>
<polygon fill="#63b8ff" stroke="#63b8ff" points="191.45,-74.92 180.85,-75.02 189.2,-81.55 191.45,-74.92"/>
</a>
</g>
</g>
<!-- Node4 -->
<g id="Node000004" class="node">
<title>Node4</title>
<g id="a_Node000004"><a xlink:title=" ">
<polygon fill="#e0e0e0" stroke="#999999" points="275,-76 197.5,-76 197.5,-56 275,-56 275,-76"/>
<text text-anchor="middle" x="236.25" y="-62.5" font-family="Helvetica,sans-Serif" font-size="10.00">SDL_opengl.h</text>
</a>
</g>
</g>
<!-- Node2&#45;&gt;Node4 -->
<g id="edge3_Node000002_Node000004" class="edge">
<title>Node2&#45;&gt;Node4</title>
<g id="a_edge3_Node000002_Node000004"><a xlink:title=" ">
<path fill="none" stroke="#63b8ff" d="M302.32,-111.59C290.57,-103.67 273.52,-92.16 259.68,-82.82"/>
<polygon fill="#63b8ff" stroke="#63b8ff" points="261.79,-80.02 251.55,-77.33 257.88,-85.82 261.79,-80.02"/>
</a>
</g>
</g>
<!-- Node5 -->
<g id="Node000005" class="node">
<title>Node5</title>
<g id="a_Node000005"><a xlink:title=" ">
<polygon fill="#e0e0e0" stroke="#999999" points="423.25,-76 365.25,-76 365.25,-56 423.25,-56 423.25,-76"/>
<text text-anchor="middle" x="394.25" y="-62.5" font-family="Helvetica,sans-Serif" font-size="10.00">SDL_ttf.h</text>
</a>
</g>
</g>
<!-- Node2&#45;&gt;Node5 -->
<g id="edge4_Node000002_Node000005" class="edge">
<title>Node2&#45;&gt;Node5</title>
<g id="a_edge4_Node000002_Node000005"><a xlink:title=" ">
<path fill="none" stroke="#63b8ff" d="M329.84,-111.59C341.29,-103.67 357.91,-92.16 371.41,-82.82"/>
<polygon fill="#63b8ff" stroke="#63b8ff" points="373.08,-85.91 379.31,-77.34 369.1,-80.16 373.08,-85.91"/>
</a>
</g>
</g>
<!-- Node6 -->
<g id="Node000006" class="node">
<title>Node6</title>
<g id="a_Node000006"><a xlink:title=" ">
<polygon fill="#e0e0e0" stroke="#999999" points="514.75,-76 441.75,-76 441.75,-56 514.75,-56 514.75,-76"/>
<text text-anchor="middle" x="478.25" y="-62.5" font-family="Helvetica,sans-Serif" font-size="10.00">SDL_mixer.h</text>
</a>
</g>
</g>
<!-- Node2&#45;&gt;Node6 -->
<g id="edge5_Node000002_Node000006" class="edge">
<title>Node2&#45;&gt;Node6</title>
<g id="a_edge5_Node000002_Node000006"><a xlink:title=" ">
<path fill="none" stroke="#63b8ff" d="M336.44,-114.27C362.01,-105.75 406.63,-90.87 439,-80.08"/>
<polygon fill="#63b8ff" stroke="#63b8ff" points="440.08,-83.41 448.46,-76.93 437.86,-76.77 440.08,-83.41"/>
</a>
</g>
</g>
<!-- Node7 -->
<g id="Node000007" class="node">
<title>Node7</title>
<g id="a_Node000007"><a xlink:title=" ">
<polygon fill="#e0e0e0" stroke="#999999" points="607.88,-76 532.62,-76 532.62,-56 607.88,-56 607.88,-76"/>
<text text-anchor="middle" x="570.25" y="-62.5" font-family="Helvetica,sans-Serif" font-size="10.00">SDL_image.h</text>
</a>
</g>
</g>
<!-- Node2&#45;&gt;Node7 -->
<g id="edge6_Node000002_Node000007" class="edge">
<title>Node2&#45;&gt;Node7</title>
<g id="a_edge6_Node000002_Node000007"><a xlink:title=" ">
<path fill="none" stroke="#63b8ff" d="M336.46,-114.44C339.39,-113.57 342.39,-112.73 345.25,-112 353.79,-109.83 457.94,-89.17 521.5,-76.62"/>
<polygon fill="#63b8ff" stroke="#63b8ff" points="521.87,-80.11 531,-74.74 520.51,-73.24 521.87,-80.11"/>
</a>
</g>
</g>
<!-- Node8 -->
<g id="Node000008" class="node">
<title>Node8</title>
<g id="a_Node000008"><a xlink:href="structs_8h.html" target="_top" xlink:title=" ">
<polygon fill="white" stroke="#666666" points="347.38,-76 293.12,-76 293.12,-56 347.38,-56 347.38,-76"/>
<text text-anchor="middle" x="320.25" y="-62.5" font-family="Helvetica,sans-Serif" font-size="10.00">structs.h</text>
</a>
</g>
</g>
<!-- Node2&#45;&gt;Node8 -->
<g id="edge7_Node000002_Node000008" class="edge">
<title>Node2&#45;&gt;Node8</title>
<g id="a_edge7_Node000002_Node000008"><a xlink:title=" ">
<path fill="none" stroke="#63b8ff" d="M316.95,-111.59C317.43,-105.01 318.1,-95.96 318.71,-87.73"/>
<polygon fill="#63b8ff" stroke="#63b8ff" points="322.2,-88.04 319.45,-77.81 315.22,-87.52 322.2,-88.04"/>
</a>
</g>
</g>
<!-- Node9 -->
<g id="Node000009" class="node">
<title>Node9</title>
<g id="a_Node000009"><a xlink:title=" ">
<polygon fill="#e0e0e0" stroke="#999999" points="656.25,-20 616.25,-20 616.25,0 656.25,0 656.25,-20"/>
<text text-anchor="middle" x="636.25" y="-6.5" font-family="Helvetica,sans-Serif" font-size="10.00">string</text>
</a>
</g>
</g>
<!-- Node8&#45;&gt;Node9 -->
<g id="edge8_Node000008_Node000009" class="edge">
<title>Node8&#45;&gt;Node9</title>
<g id="a_edge8_Node000008_Node000009"><a xlink:title=" ">
<path fill="none" stroke="#63b8ff" d="M347.71,-57.88C350.59,-57.21 353.47,-56.57 356.25,-56 445.74,-37.66 552.6,-22.26 604.64,-15.18"/>
<polygon fill="#63b8ff" stroke="#63b8ff" points="604.82,-18.69 614.26,-13.88 603.89,-11.75 604.82,-18.69"/>
</a>
</g>
</g>
<!-- Node10 -->
<g id="Node000010" class="node">
<title>Node10</title>
<g id="a_Node000010"><a xlink:href="_vector2f_8h.html" target="_top" xlink:title=" ">
<polygon fill="white" stroke="#666666" points="244.38,-20 184.12,-20 184.12,0 244.38,0 244.38,-20"/>
<text text-anchor="middle" x="214.25" y="-6.5" font-family="Helvetica,sans-Serif" font-size="10.00">Vector2f.h</text>
</a>
</g>
</g>
<!-- Node8&#45;&gt;Node10 -->
<g id="edge9_Node000008_Node000010" class="edge">
<title>Node8&#45;&gt;Node10</title>
<g id="a_edge9_Node000008_Node000010"><a xlink:title=" ">
<path fill="none" stroke="#63b8ff" d="M296.52,-55.59C278.87,-47.44 255.12,-35.48 237.58,-26"/>
<polygon fill="#63b8ff" stroke="#63b8ff" points="239.35,-22.98 228.9,-21.21 235.96,-29.11 239.35,-22.98"/>
</a>
</g>
</g>
<!-- Node10&#45;&gt;Node8 -->
<g id="edge10_Node000010_Node000008" class="edge">
<title>Node10&#45;&gt;Node8</title>
<g id="a_edge10_Node000010_Node000008"><a xlink:title=" ">
<path fill="none" stroke="#63b8ff" d="M238.14,-20.48C255.82,-28.66 279.57,-40.62 297.07,-50.08"/>
<polygon fill="#63b8ff" stroke="#63b8ff" points="295.28,-53.09 305.73,-54.86 298.67,-46.96 295.28,-53.09"/>
</a>
</g>
</g>
<!-- Node12 -->
<g id="Node000012" class="node">
<title>Node12</title>
<g id="a_Node000012"><a xlink:href="_interactable_item_8h.html" target="_top" xlink:title=" ">
<polygon fill="white" stroke="#666666" points="364.62,-468 269.88,-468 269.88,-448 364.62,-448 364.62,-468"/>
<text text-anchor="middle" x="317.25" y="-454.5" font-family="Helvetica,sans-Serif" font-size="10.00">InteractableItem.h</text>
</a>
</g>
</g>
<!-- Node11&#45;&gt;Node12 -->
<g id="edge12_Node000011_Node000012" class="edge">
<title>Node11&#45;&gt;Node12</title>
<g id="a_edge12_Node000011_Node000012"><a xlink:title=" ">
<path fill="none" stroke="#63b8ff" d="M223.11,-503.59C240.74,-495.24 266.76,-482.92 286.98,-473.34"/>
<polygon fill="#63b8ff" stroke="#63b8ff" points="288.33,-476.57 295.87,-469.13 285.33,-470.25 288.33,-476.57"/>
</a>
</g>
</g>
<!-- Node13 -->
<g id="Node000013" class="node">
<title>Node13</title>
<g id="a_Node000013"><a xlink:href="_character_8h.html" target="_top" xlink:title=" ">
<polygon fill="white" stroke="#666666" points="403.75,-412 336.75,-412 336.75,-392 403.75,-392 403.75,-412"/>
<text text-anchor="middle" x="370.25" y="-398.5" font-family="Helvetica,sans-Serif" font-size="10.00">Character.h</text>
</a>
</g>
</g>
<!-- Node12&#45;&gt;Node13 -->
<g id="edge13_Node000012_Node000013" class="edge">
<title>Node12&#45;&gt;Node13</title>
<g id="a_edge13_Node000012_Node000013"><a xlink:title=" ">
<path fill="none" stroke="#63b8ff" d="M326.48,-447.59C333.85,-440.08 344.38,-429.35 353.27,-420.3"/>
<polygon fill="#63b8ff" stroke="#63b8ff" points="355.56,-422.97 360.06,-413.38 350.56,-418.06 355.56,-422.97"/>
</a>
</g>
</g>
<!-- Node14 -->
<g id="Node000014" class="node">
<title>Node14</title>
<g id="a_Node000014"><a xlink:href="_character_controller_8h.html" target="_top" xlink:title=" ">
<polygon fill="white" stroke="#666666" points="261.75,-356 152.75,-356 152.75,-336 261.75,-336 261.75,-356"/>
<text text-anchor="middle" x="207.25" y="-342.5" font-family="Helvetica,sans-Serif" font-size="10.00">CharacterController.h</text>
</a>
</g>
</g>
<!-- Node13&#45;&gt;Node14 -->
<g id="edge14_Node000013_Node000014" class="edge">
<title>Node13&#45;&gt;Node14</title>
<g id="a_edge14_Node000013_Node000014"><a xlink:title=" ">
<path fill="none" stroke="#63b8ff" d="M341.86,-391.59C315.49,-382.86 275.99,-369.77 246.59,-360.03"/>
<polygon fill="#63b8ff" stroke="#63b8ff" points="247.89,-356.78 237.3,-356.96 245.69,-363.42 247.89,-356.78"/>
</a>
</g>
</g>
<!-- Node21 -->
<g id="Node000021" class="node">
<title>Node21</title>
<g id="a_Node000021"><a xlink:href="_hair_8h.html" target="_top" xlink:title=" ">
<polygon fill="white" stroke="#666666" points="325.38,-244 283.12,-244 283.12,-224 325.38,-224 325.38,-244"/>
<text text-anchor="middle" x="304.25" y="-230.5" font-family="Helvetica,sans-Serif" font-size="10.00">Hair.h</text>
</a>
</g>
</g>
<!-- Node13&#45;&gt;Node21 -->
<g id="edge30_Node000013_Node000021" class="edge">
<title>Node13&#45;&gt;Node21</title>
<g id="a_edge30_Node000013_Node000021"><a xlink:title=" ">
<path fill="none" stroke="#63b8ff" d="M366.51,-391.6C356.08,-365.35 326.45,-290.84 312.16,-254.89"/>
<polygon fill="#63b8ff" stroke="#63b8ff" points="315.45,-253.7 308.51,-245.7 308.95,-256.29 315.45,-253.7"/>
</a>
</g>
</g>
<!-- Node23 -->
<g id="Node000023" class="node">
<title>Node23</title>
<g id="a_Node000023"><a xlink:href="_character_texture_manager_8h.html" target="_top" xlink:title=" ">
<polygon fill="white" stroke="#666666" points="500.62,-356 363.88,-356 363.88,-336 500.62,-336 500.62,-356"/>
<text text-anchor="middle" x="432.25" y="-342.5" font-family="Helvetica,sans-Serif" font-size="10.00">CharacterTextureManager.h</text>
</a>
</g>
</g>
<!-- Node13&#45;&gt;Node23 -->
<g id="edge35_Node000013_Node000023" class="edge">
<title>Node13&#45;&gt;Node23</title>
<g id="a_edge35_Node000013_Node000023"><a xlink:title=" ">
<path fill="none" stroke="#63b8ff" d="M381.05,-391.59C389.85,-383.93 402.5,-372.91 413.02,-363.75"/>
<polygon fill="#63b8ff" stroke="#63b8ff" points="415.19,-366.5 420.43,-357.29 410.59,-361.22 415.19,-366.5"/>
</a>
</g>
</g>
<!-- Node26 -->
<g id="Node000026" class="node">
<title>Node26</title>
<g id="a_Node000026"><a xlink:href="_character_state_8h.html" target="_top" xlink:title=" ">
<polygon fill="white" stroke="#666666" points="635.38,-300 545.12,-300 545.12,-280 635.38,-280 635.38,-300"/>
<text text-anchor="middle" x="590.25" y="-286.5" font-family="Helvetica,sans-Serif" font-size="10.00">CharacterState.h</text>
</a>
</g>
</g>
<!-- Node13&#45;&gt;Node26 -->
<g id="edge42_Node000013_Node000026" class="edge">
<title>Node13&#45;&gt;Node26</title>
<g id="a_edge42_Node000013_Node000026"><a xlink:title=" ">
<path fill="none" stroke="#63b8ff" d="M404.21,-393.68C433.24,-386.57 475.54,-374.18 509.25,-356 533.39,-342.98 557.45,-322.48 572.99,-307.98"/>
<polygon fill="#63b8ff" stroke="#63b8ff" points="575.19,-310.73 580,-301.29 570.35,-305.67 575.19,-310.73"/>
</a>
</g>
</g>
<!-- Node27 -->
<g id="Node000027" class="node">
<title>Node27</title>
<g id="a_Node000027"><a xlink:href="_character_sound_manager_8h.html" target="_top" xlink:title=" ">
<polygon fill="white" stroke="#666666" points="722.38,-356 590.12,-356 590.12,-336 722.38,-336 722.38,-356"/>
<text text-anchor="middle" x="656.25" y="-342.5" font-family="Helvetica,sans-Serif" font-size="10.00">CharacterSoundManager.h</text>
</a>
</g>
</g>
<!-- Node13&#45;&gt;Node27 -->
<g id="edge43_Node000013_Node000027" class="edge">
<title>Node13&#45;&gt;Node27</title>
<g id="a_edge43_Node000013_Node000027"><a xlink:title=" ">
<path fill="none" stroke="#63b8ff" d="M404.18,-394.59C451.07,-385.74 536.47,-369.62 594.75,-358.61"/>
<polygon fill="#63b8ff" stroke="#63b8ff" points="595.36,-362.06 604.54,-356.76 594.07,-355.18 595.36,-362.06"/>
</a>
</g>
</g>
<!-- Node15 -->
<g id="Node000015" class="node">
<title>Node15</title>
<g id="a_Node000015"><a xlink:href="_game_object_8h.html" target="_top" xlink:title=" ">
<polygon fill="white" stroke="#666666" points="226.75,-300 147.75,-300 147.75,-280 226.75,-280 226.75,-300"/>
<text text-anchor="middle" x="187.25" y="-286.5" font-family="Helvetica,sans-Serif" font-size="10.00">GameObject.h</text>
</a>
</g>
</g>
<!-- Node14&#45;&gt;Node15 -->
<g id="edge15_Node000014_Node000015" class="edge">
<title>Node14&#45;&gt;Node15</title>
<g id="a_edge15_Node000014_Node000015"><a xlink:title=" ">
<path fill="none" stroke="#63b8ff" d="M203.77,-335.59C201.24,-328.78 197.74,-319.32 194.61,-310.86"/>
<polygon fill="#63b8ff" stroke="#63b8ff" points="197.97,-309.88 191.22,-301.72 191.41,-312.31 197.97,-309.88"/>
</a>
</g>
</g>
<!-- Node18 -->
<g id="Node000018" class="node">
<title>Node18</title>
<g id="a_Node000018"><a xlink:href="_vector2x2f_8h.html" target="_top" xlink:title=" ">
<polygon fill="white" stroke="#666666" points="129.62,-300 58.88,-300 58.88,-280 129.62,-280 129.62,-300"/>
<text text-anchor="middle" x="94.25" y="-286.5" font-family="Helvetica,sans-Serif" font-size="10.00">Vector2x2f.h</text>
</a>
</g>
</g>
<!-- Node14&#45;&gt;Node18 -->
<g id="edge25_Node000014_Node000018" class="edge">
<title>Node14&#45;&gt;Node18</title>
<g id="a_edge25_Node000014_Node000018"><a xlink:title=" ">
<path fill="none" stroke="#63b8ff" d="M187.57,-335.59C170.09,-327.24 144.3,-314.92 124.25,-305.34"/>
<polygon fill="#63b8ff" stroke="#63b8ff" points="125.98,-302.29 115.45,-301.13 122.97,-308.6 125.98,-302.29"/>
</a>
</g>
</g>
<!-- Node20 -->
<g id="Node000020" class="node">
<title>Node20</title>
<g id="a_Node000020"><a xlink:title=" ">
<polygon fill="#e0e0e0" stroke="#999999" points="327.75,-188 284.75,-188 284.75,-168 327.75,-168 327.75,-188"/>
<text text-anchor="middle" x="306.25" y="-174.5" font-family="Helvetica,sans-Serif" font-size="10.00">vector</text>
</a>
</g>
</g>
<!-- Node14&#45;&gt;Node20 -->
<g id="edge29_Node000014_Node000020" class="edge">
<title>Node14&#45;&gt;Node20</title>
<g id="a_edge29_Node000014_Node000020"><a xlink:title=" ">
<path fill="none" stroke="#63b8ff" d="M213.78,-335.53C219.87,-326.55 229.07,-312.6 236.25,-300 254.95,-267.19 254.8,-256.37 274.25,-224 279.66,-214.99 286.31,-205.44 292.15,-197.46"/>
<polygon fill="#63b8ff" stroke="#63b8ff" points="294.85,-199.68 298.04,-189.58 289.25,-195.5 294.85,-199.68"/>
</a>
</g>
</g>
<!-- Node16 -->
<g id="Node000016" class="node">
<title>Node16</title>
<g id="a_Node000016"><a xlink:href="_transform_8h.html" target="_top" xlink:title=" ">
<polygon fill="white" stroke="#666666" points="245.5,-188 177,-188 177,-168 245.5,-168 245.5,-188"/>
<text text-anchor="middle" x="211.25" y="-174.5" font-family="Helvetica,sans-Serif" font-size="10.00">Transform.h</text>
</a>
</g>
</g>
<!-- Node15&#45;&gt;Node16 -->
<g id="edge16_Node000015_Node000016" class="edge">
<title>Node15&#45;&gt;Node16</title>
<g id="a_edge16_Node000015_Node000016"><a xlink:title=" ">
<path fill="none" stroke="#63b8ff" d="M189.3,-279.62C193.16,-261.92 201.6,-223.24 206.82,-199.32"/>
<polygon fill="#63b8ff" stroke="#63b8ff" points="210.17,-200.35 208.89,-189.83 203.34,-198.86 210.17,-200.35"/>
</a>
</g>
</g>
<!-- Node16&#45;&gt;Node10 -->
<g id="edge24_Node000016_Node000010" class="edge">
<title>Node16&#45;&gt;Node10</title>
<g id="a_edge24_Node000016_Node000010"><a xlink:title=" ">
<path fill="none" stroke="#63b8ff" d="M195.58,-167.56C164.42,-147.54 99.86,-99.14 126.25,-56 136.56,-39.15 155.39,-28.36 172.99,-21.58"/>
<polygon fill="#63b8ff" stroke="#63b8ff" points="173.98,-24.94 182.28,-18.35 171.68,-18.33 173.98,-24.94"/>
</a>
</g>
</g>
<!-- Node17 -->
<g id="Node000017" class="node">
<title>Node17</title>
<g id="a_Node000017"><a xlink:href="base_8h.html" target="_top" xlink:title=" ">
<polygon fill="white" stroke="#666666" points="399.88,-132 354.62,-132 354.62,-112 399.88,-112 399.88,-132"/>
<text text-anchor="middle" x="377.25" y="-118.5" font-family="Helvetica,sans-Serif" font-size="10.00">base.h</text>
</a>
</g>
</g>
<!-- Node16&#45;&gt;Node17 -->
<g id="edge17_Node000016_Node000017" class="edge">
<title>Node16&#45;&gt;Node17</title>
<g id="a_edge17_Node000016_Node000017"><a xlink:title=" ">
<path fill="none" stroke="#63b8ff" d="M240.16,-167.59C268.91,-158.24 312.99,-143.9 343.36,-134.02"/>
<polygon fill="#63b8ff" stroke="#63b8ff" points="344.41,-137.36 352.83,-130.94 342.24,-130.71 344.41,-137.36"/>
</a>
</g>
</g>
<!-- Node17&#45;&gt;Node3 -->
<g id="edge18_Node000017_Node000003" class="edge">
<title>Node17&#45;&gt;Node3</title>
<g id="a_edge18_Node000017_Node000003"><a xlink:title=" ">
<path fill="none" stroke="#63b8ff" d="M354.21,-114.38C351.2,-113.55 348.16,-112.74 345.25,-112 279.27,-95.17 259.45,-94.06 190.57,-76.48"/>
<polygon fill="#63b8ff" stroke="#63b8ff" points="191.58,-73.13 181.02,-74.02 189.83,-79.91 191.58,-73.13"/>
</a>
</g>
</g>
<!-- Node17&#45;&gt;Node4 -->
<g id="edge19_Node000017_Node000004" class="edge">
<title>Node17&#45;&gt;Node4</title>
<g id="a_edge19_Node000017_Node000004"><a xlink:title=" ">
<path fill="none" stroke="#63b8ff" d="M354.28,-112.2C331.75,-103.57 297.09,-90.3 271.15,-80.37"/>
<polygon fill="#63b8ff" stroke="#63b8ff" points="272.63,-77.19 262.04,-76.88 270.13,-83.72 272.63,-77.19"/>
</a>
</g>
</g>
<!-- Node17&#45;&gt;Node5 -->
<g id="edge20_Node000017_Node000005" class="edge">
<title>Node17&#45;&gt;Node5</title>
<g id="a_edge20_Node000017_Node000005"><a xlink:title=" ">
<path fill="none" stroke="#63b8ff" d="M380.21,-111.59C382.33,-104.86 385.27,-95.53 387.91,-87.15"/>
<polygon fill="#63b8ff" stroke="#63b8ff" points="391.2,-88.33 390.87,-77.74 384.53,-86.23 391.2,-88.33"/>
</a>
</g>
</g>
<!-- Node17&#45;&gt;Node6 -->
<g id="edge21_Node000017_Node000006" class="edge">
<title>Node17&#45;&gt;Node6</title>
<g id="a_edge21_Node000017_Node000006"><a xlink:title=" ">
<path fill="none" stroke="#63b8ff" d="M394.84,-111.59C410.17,-103.4 432.67,-91.37 450.44,-81.87"/>
<polygon fill="#63b8ff" stroke="#63b8ff" points="452.02,-84.99 459.19,-77.19 448.72,-78.82 452.02,-84.99"/>
</a>
</g>
</g>
<!-- Node17&#45;&gt;Node7 -->
<g id="edge22_Node000017_Node000007" class="edge">
<title>Node17&#45;&gt;Node7</title>
<g id="a_edge22_Node000017_Node000007"><a xlink:title=" ">
<path fill="none" stroke="#63b8ff" d="M400.15,-114.59C430.93,-105.98 486.32,-90.48 525.52,-79.52"/>
<polygon fill="#63b8ff" stroke="#63b8ff" points="526.21,-82.96 534.9,-76.89 524.33,-76.21 526.21,-82.96"/>
</a>
</g>
</g>
<!-- Node17&#45;&gt;Node8 -->
<g id="edge23_Node000017_Node000008" class="edge">
<title>Node17&#45;&gt;Node8</title>
<g id="a_edge23_Node000017_Node000008"><a xlink:title=" ">
<path fill="none" stroke="#63b8ff" d="M367.32,-111.59C359.31,-104.01 347.83,-93.13 338.22,-84.02"/>
<polygon fill="#63b8ff" stroke="#63b8ff" points="340.83,-81.68 331.16,-77.34 336.02,-86.76 340.83,-81.68"/>
</a>
</g>
</g>
<!-- Node19 -->
<g id="Node000019" class="node">
<title>Node19</title>
<g id="a_Node000019"><a xlink:href="utils_8h.html" target="_top" xlink:title=" ">
<polygon fill="white" stroke="#666666" points="115.38,-244 73.12,-244 73.12,-224 115.38,-224 115.38,-244"/>
<text text-anchor="middle" x="94.25" y="-230.5" font-family="Helvetica,sans-Serif" font-size="10.00">utils.h</text>
</a>
</g>
</g>
<!-- Node18&#45;&gt;Node19 -->
<g id="edge26_Node000018_Node000019" class="edge">
<title>Node18&#45;&gt;Node19</title>
<g id="a_edge26_Node000018_Node000019"><a xlink:title=" ">
<path fill="none" stroke="#63b8ff" d="M94.25,-279.59C94.25,-273.01 94.25,-263.96 94.25,-255.73"/>
<polygon fill="#63b8ff" stroke="#63b8ff" points="97.75,-255.81 94.25,-245.81 90.75,-255.81 97.75,-255.81"/>
</a>
</g>
</g>
<!-- Node19&#45;&gt;Node10 -->
<g id="edge28_Node000019_Node000010" class="edge">
<title>Node19&#45;&gt;Node10</title>
<g id="a_edge28_Node000019_Node000010"><a xlink:title=" ">
<path fill="none" stroke="#63b8ff" d="M92.54,-223.81C87.83,-195.59 77.47,-108.97 116.25,-56 129.78,-37.52 152.76,-26.42 173.07,-19.88"/>
<polygon fill="#63b8ff" stroke="#63b8ff" points="173.93,-23.27 182.55,-17.11 171.97,-16.55 173.93,-23.27"/>
</a>
</g>
</g>
<!-- Node19&#45;&gt;Node20 -->
<g id="edge27_Node000019_Node000020" class="edge">
<title>Node19&#45;&gt;Node20</title>
<g id="a_edge27_Node000019_Node000020"><a xlink:title=" ">
<path fill="none" stroke="#63b8ff" d="M115.74,-227.53C152.95,-218.05 229.56,-198.53 273.45,-187.35"/>
<polygon fill="#63b8ff" stroke="#63b8ff" points="274.09,-190.8 282.91,-184.94 272.36,-184.02 274.09,-190.8"/>
</a>
</g>
</g>
<!-- Node21&#45;&gt;Node16 -->
<g id="edge31_Node000021_Node000016" class="edge">
<title>Node21&#45;&gt;Node16</title>
<g id="a_edge31_Node000021_Node000016"><a xlink:title=" ">
<path fill="none" stroke="#63b8ff" d="M288.05,-223.59C274,-215.44 253.42,-203.48 237.09,-194"/>
<polygon fill="#63b8ff" stroke="#63b8ff" points="239.29,-191.23 228.88,-189.24 235.78,-197.29 239.29,-191.23"/>
</a>
</g>
</g>
<!-- Node21&#45;&gt;Node20 -->
<g id="edge32_Node000021_Node000020" class="edge">
<title>Node21&#45;&gt;Node20</title>
<g id="a_edge32_Node000021_Node000020"><a xlink:title=" ">
<path fill="none" stroke="#63b8ff" d="M304.6,-223.59C304.84,-217.01 305.18,-207.96 305.48,-199.73"/>
<polygon fill="#63b8ff" stroke="#63b8ff" points="308.98,-199.93 305.85,-189.81 301.98,-199.67 308.98,-199.93"/>
</a>
</g>
</g>
<!-- Node22 -->
<g id="Node000022" class="node">
<title>Node22</title>
<g id="a_Node000022"><a xlink:href="_texture_8h.html" target="_top" xlink:title=" ">
<polygon fill="white" stroke="#666666" points="405.5,-188 349,-188 349,-168 405.5,-168 405.5,-188"/>
<text text-anchor="middle" x="377.25" y="-174.5" font-family="Helvetica,sans-Serif" font-size="10.00">Texture.h</text>
</a>
</g>
</g>
<!-- Node21&#45;&gt;Node22 -->
<g id="edge33_Node000021_Node000022" class="edge">
<title>Node21&#45;&gt;Node22</title>
<g id="a_edge33_Node000021_Node000022"><a xlink:title=" ">
<path fill="none" stroke="#63b8ff" d="M316.97,-223.59C327.64,-215.7 343.13,-204.24 355.73,-194.92"/>
<polygon fill="#63b8ff" stroke="#63b8ff" points="357.51,-197.96 363.46,-189.2 353.34,-192.33 357.51,-197.96"/>
</a>
</g>
</g>
<!-- Node22&#45;&gt;Node17 -->
<g id="edge34_Node000022_Node000017" class="edge">
<title>Node22&#45;&gt;Node17</title>
<g id="a_edge34_Node000022_Node000017"><a xlink:title=" ">
<path fill="none" stroke="#63b8ff" d="M377.25,-167.59C377.25,-161.01 377.25,-151.96 377.25,-143.73"/>
<polygon fill="#63b8ff" stroke="#63b8ff" points="380.75,-143.81 377.25,-133.81 373.75,-143.81 380.75,-143.81"/>
</a>
</g>
</g>
<!-- Node23&#45;&gt;Node20 -->
<g id="edge41_Node000023_Node000020" class="edge">
<title>Node23&#45;&gt;Node20</title>
<g id="a_edge41_Node000023_Node000020"><a xlink:title=" ">
<path fill="none" stroke="#63b8ff" d="M416.14,-335.54C403.29,-327.38 385.48,-314.62 373.25,-300 348.89,-270.88 352.96,-257.03 334.25,-224 329.27,-215.2 323.41,-205.67 318.34,-197.65"/>
<polygon fill="#63b8ff" stroke="#63b8ff" points="321.42,-195.98 313.08,-189.45 315.53,-199.76 321.42,-195.98"/>
</a>
</g>
</g>
<!-- Node24 -->
<g id="Node000024" class="node">
<title>Node24</title>
<g id="a_Node000024"><a xlink:href="_animation_manager_a_n_d_hair_8h.html" target="_top" xlink:title=" ">
<polygon fill="white" stroke="#666666" points="526.75,-300 381.75,-300 381.75,-280 526.75,-280 526.75,-300"/>
<text text-anchor="middle" x="454.25" y="-286.5" font-family="Helvetica,sans-Serif" font-size="10.00">AnimationManagerANDHair.h</text>
</a>
</g>
</g>
<!-- Node23&#45;&gt;Node24 -->
<g id="edge36_Node000023_Node000024" class="edge">
<title>Node23&#45;&gt;Node24</title>
<g id="a_edge36_Node000023_Node000024"><a xlink:title=" ">
<path fill="none" stroke="#63b8ff" d="M436.08,-335.59C438.86,-328.78 442.71,-319.32 446.16,-310.86"/>
<polygon fill="#63b8ff" stroke="#63b8ff" points="449.36,-312.28 449.89,-301.7 442.88,-309.64 449.36,-312.28"/>
</a>
</g>
</g>
<!-- Node23&#45;&gt;Node26 -->
<g id="edge40_Node000023_Node000026" class="edge">
<title>Node23&#45;&gt;Node26</title>
<g id="a_edge40_Node000023_Node000026"><a xlink:title=" ">
<path fill="none" stroke="#63b8ff" d="M459.77,-335.59C485.22,-326.9 523.28,-313.89 551.74,-304.16"/>
<polygon fill="#63b8ff" stroke="#63b8ff" points="552.75,-307.52 561.08,-300.97 550.49,-300.89 552.75,-307.52"/>
</a>
</g>
</g>
<!-- Node24&#45;&gt;Node20 -->
<g id="edge39_Node000024_Node000020" class="edge">
<title>Node24&#45;&gt;Node20</title>
<g id="a_edge39_Node000024_Node000020"><a xlink:title=" ">
<path fill="none" stroke="#63b8ff" d="M441.59,-279.5C424.67,-266.82 393.74,-243.67 367.25,-224 354.21,-214.32 339.56,-203.51 327.89,-194.91"/>
<polygon fill="#63b8ff" stroke="#63b8ff" points="330.23,-192.29 320.1,-189.18 326.08,-197.93 330.23,-192.29"/>
</a>
</g>
</g>
<!-- Node25 -->
<g id="Node000025" class="node">
<title>Node25</title>
<g id="a_Node000025"><a xlink:href="_animation_manager_8h.html" target="_top" xlink:title=" ">
<polygon fill="white" stroke="#666666" points="524.88,-244 419.62,-244 419.62,-224 524.88,-224 524.88,-244"/>
<text text-anchor="middle" x="472.25" y="-230.5" font-family="Helvetica,sans-Serif" font-size="10.00">AnimationManager.h</text>
</a>
</g>
</g>
<!-- Node24&#45;&gt;Node25 -->
<g id="edge37_Node000024_Node000025" class="edge">
<title>Node24&#45;&gt;Node25</title>
<g id="a_edge37_Node000024_Node000025"><a xlink:title=" ">
<path fill="none" stroke="#63b8ff" d="M457.39,-279.59C459.63,-272.86 462.74,-263.53 465.53,-255.15"/>
<polygon fill="#63b8ff" stroke="#63b8ff" points="468.83,-256.33 468.67,-245.73 462.19,-254.11 468.83,-256.33"/>
</a>
</g>
</g>
<!-- Node25&#45;&gt;Node22 -->
<g id="edge38_Node000025_Node000022" class="edge">
<title>Node25&#45;&gt;Node22</title>
<g id="a_edge38_Node000025_Node000022"><a xlink:title=" ">
<path fill="none" stroke="#63b8ff" d="M455.7,-223.59C441.35,-215.44 420.32,-203.48 403.65,-194"/>
<polygon fill="#63b8ff" stroke="#63b8ff" points="405.67,-191.13 395.24,-189.23 402.21,-197.21 405.67,-191.13"/>
</a>
</g>
</g>
<!-- Node27&#45;&gt;Node26 -->
<g id="edge44_Node000027_Node000026" class="edge">
<title>Node27&#45;&gt;Node26</title>
<g id="a_edge44_Node000027_Node000026"><a xlink:title=" ">
<path fill="none" stroke="#63b8ff" d="M644.75,-335.59C635.29,-327.85 621.65,-316.69 610.38,-307.47"/>
<polygon fill="#63b8ff" stroke="#63b8ff" points="612.74,-304.88 602.79,-301.26 608.31,-310.3 612.74,-304.88"/>
</a>
</g>
</g>
<!-- Node28 -->
<g id="Node000028" class="node">
<title>Node28</title>
<g id="a_Node000028"><a xlink:href="_sound_effect_8h.html" target="_top" xlink:title=" ">
<polygon fill="white" stroke="#666666" points="675,-244 597.5,-244 597.5,-224 675,-224 675,-244"/>
<text text-anchor="middle" x="636.25" y="-230.5" font-family="Helvetica,sans-Serif" font-size="10.00">SoundEffect.h</text>
</a>
</g>
</g>
<!-- Node27&#45;&gt;Node28 -->
<g id="edge45_Node000027_Node000028" class="edge">
<title>Node27&#45;&gt;Node28</title>
<g id="a_edge45_Node000027_Node000028"><a xlink:title=" ">
<path fill="none" stroke="#63b8ff" d="M654.54,-335.62C651.34,-318.01 644.36,-279.59 640.01,-255.65"/>
<polygon fill="#63b8ff" stroke="#63b8ff" points="643.45,-255.06 638.22,-245.84 636.57,-256.31 643.45,-255.06"/>
</a>
</g>
</g>
<!-- Node29 -->
<g id="Node000029" class="node">
<title>Node29</title>
<g id="a_Node000029"><a xlink:href="_sound_stream_8h.html" target="_top" xlink:title=" ">
<polygon fill="white" stroke="#666666" points="748,-132 664.5,-132 664.5,-112 748,-112 748,-132"/>
<text text-anchor="middle" x="706.25" y="-118.5" font-family="Helvetica,sans-Serif" font-size="10.00">SoundStream.h</text>
</a>
</g>
</g>
<!-- Node27&#45;&gt;Node29 -->
<g id="edge48_Node000027_Node000029" class="edge">
<title>Node27&#45;&gt;Node29</title>
<g id="a_edge48_Node000027_Node000029"><a xlink:title=" ">
<path fill="none" stroke="#63b8ff" d="M659.16,-335.6C664.6,-317.84 676.45,-278.05 684.25,-244 692.25,-209.07 699.22,-167.93 703.07,-143.74"/>
<polygon fill="#63b8ff" stroke="#63b8ff" points="706.51,-144.39 704.59,-133.97 699.59,-143.31 706.51,-144.39"/>
</a>
</g>
</g>
<!-- Node28&#45;&gt;Node9 -->
<g id="edge46_Node000028_Node000009" class="edge">
<title>Node28&#45;&gt;Node9</title>
<g id="a_edge46_Node000028_Node000009"><a xlink:title=" ">
<path fill="none" stroke="#63b8ff" d="M636.25,-223.74C636.25,-190.74 636.25,-78.31 636.25,-31.61"/>
<polygon fill="#63b8ff" stroke="#63b8ff" points="639.75,-31.81 636.25,-21.81 632.75,-31.81 639.75,-31.81"/>
</a>
</g>
</g>
<!-- Node28&#45;&gt;Node20 -->
<g id="edge47_Node000028_Node000020" class="edge">
<title>Node28&#45;&gt;Node20</title>
<g id="a_edge47_Node000028_Node000020"><a xlink:title=" ">
<path fill="none" stroke="#63b8ff" d="M597.22,-228.43C540.37,-221.47 431.6,-206.98 340.25,-188 339.88,-187.92 339.51,-187.84 339.13,-187.76"/>
<polygon fill="#63b8ff" stroke="#63b8ff" points="340.13,-184.4 329.59,-185.51 338.51,-191.21 340.13,-184.4"/>
</a>
</g>
</g>
<!-- Node29&#45;&gt;Node9 -->
<g id="edge49_Node000029_Node000009" class="edge">
<title>Node29&#45;&gt;Node9</title>
<g id="a_edge49_Node000029_Node000009"><a xlink:title=" ">
<path fill="none" stroke="#63b8ff" d="M700.28,-111.62C688.81,-93.6 663.49,-53.81 648.36,-30.02"/>
<polygon fill="#63b8ff" stroke="#63b8ff" points="651.34,-28.19 643.02,-21.63 645.43,-31.95 651.34,-28.19"/>
</a>
</g>
</g>
</g>
</svg>
