<?xml version="1.0" encoding="UTF-8" standalone="no"?>
<!DOCTYPE svg PUBLIC "-//W3C//DTD SVG 1.1//EN"
 "http://www.w3.org/Graphics/SVG/1.1/DTD/svg11.dtd">
<!-- Generated by graphviz version 12.2.1 (20241206.2353)
 -->
<!-- Title: Engine/SVGParser.cpp Pages: 1 -->
<svg width="656pt" height="196pt"
 viewBox="0.00 0.00 656.25 196.00" xmlns="http://www.w3.org/2000/svg" xmlns:xlink="http://www.w3.org/1999/xlink">
<g id="graph0" class="graph" transform="scale(1 1) rotate(0) translate(4 192)">
<title>Engine/SVGParser.cpp</title>
<!-- Node1 -->
<g id="Node000001" class="node">
<title>Node1</title>
<g id="a_Node000001"><a xlink:title=" ">
<polygon fill="#999999" stroke="#666666" points="443.25,-188 326,-188 326,-168 443.25,-168 443.25,-188"/>
<text text-anchor="middle" x="384.62" y="-174.5" font-family="Helvetica,sans-Serif" font-size="10.00">Engine/SVGParser.cpp</text>
</a>
</g>
</g>
<!-- Node2 -->
<g id="Node000002" class="node">
<title>Node2</title>
<g id="a_Node000002"><a xlink:href="base_8h.html" target="_top" xlink:title=" ">
<polygon fill="white" stroke="#666666" points="265.25,-132 220,-132 220,-112 265.25,-112 265.25,-132"/>
<text text-anchor="middle" x="242.62" y="-118.5" font-family="Helvetica,sans-Serif" font-size="10.00">base.h</text>
</a>
</g>
</g>
<!-- Node1&#45;&gt;Node2 -->
<g id="edge1_Node000001_Node000002" class="edge">
<title>Node1&#45;&gt;Node2</title>
<g id="a_edge1_Node000001_Node000002"><a xlink:title=" ">
<path fill="none" stroke="#63b8ff" d="M359.89,-167.59C336.77,-158.8 302.06,-145.6 276.4,-135.84"/>
<polygon fill="#63b8ff" stroke="#63b8ff" points="277.67,-132.58 267.08,-132.3 275.18,-139.13 277.67,-132.58"/>
</a>
</g>
</g>
<!-- Node11 -->
<g id="Node000011" class="node">
<title>Node11</title>
<g id="a_Node000011"><a xlink:title=" ">
<polygon fill="#e0e0e0" stroke="#999999" points="339.5,-132 283.75,-132 283.75,-112 339.5,-112 339.5,-132"/>
<text text-anchor="middle" x="311.62" y="-118.5" font-family="Helvetica,sans-Serif" font-size="10.00">algorithm</text>
</a>
</g>
</g>
<!-- Node1&#45;&gt;Node11 -->
<g id="edge11_Node000001_Node000011" class="edge">
<title>Node1&#45;&gt;Node11</title>
<g id="a_edge11_Node000001_Node000011"><a xlink:title=" ">
<path fill="none" stroke="#63b8ff" d="M371.91,-167.59C361.23,-159.7 345.75,-148.24 333.14,-138.92"/>
<polygon fill="#63b8ff" stroke="#63b8ff" points="335.53,-136.33 325.41,-133.2 331.37,-141.96 335.53,-136.33"/>
</a>
</g>
</g>
<!-- Node12 -->
<g id="Node000012" class="node">
<title>Node12</title>
<g id="a_Node000012"><a xlink:title=" ">
<polygon fill="#e0e0e0" stroke="#999999" points="411.38,-132 357.88,-132 357.88,-112 411.38,-112 411.38,-132"/>
<text text-anchor="middle" x="384.62" y="-118.5" font-family="Helvetica,sans-Serif" font-size="10.00">iostream</text>
</a>
</g>
</g>
<!-- Node1&#45;&gt;Node12 -->
<g id="edge12_Node000001_Node000012" class="edge">
<title>Node1&#45;&gt;Node12</title>
<g id="a_edge12_Node000001_Node000012"><a xlink:title=" ">
<path fill="none" stroke="#63b8ff" d="M384.62,-167.59C384.62,-161.01 384.62,-151.96 384.62,-143.73"/>
<polygon fill="#63b8ff" stroke="#63b8ff" points="388.13,-143.81 384.63,-133.81 381.13,-143.81 388.13,-143.81"/>
</a>
</g>
</g>
<!-- Node13 -->
<g id="Node000013" class="node">
<title>Node13</title>
<g id="a_Node000013"><a xlink:title=" ">
<polygon fill="#e0e0e0" stroke="#999999" points="478.12,-132 429.12,-132 429.12,-112 478.12,-112 478.12,-132"/>
<text text-anchor="middle" x="453.62" y="-118.5" font-family="Helvetica,sans-Serif" font-size="10.00">fstream</text>
</a>
</g>
</g>
<!-- Node1&#45;&gt;Node13 -->
<g id="edge13_Node000001_Node000013" class="edge">
<title>Node1&#45;&gt;Node13</title>
<g id="a_edge13_Node000001_Node000013"><a xlink:title=" ">
<path fill="none" stroke="#63b8ff" d="M396.64,-167.59C406.64,-159.77 421.09,-148.46 432.93,-139.19"/>
<polygon fill="#63b8ff" stroke="#63b8ff" points="434.83,-142.15 440.55,-133.23 430.52,-136.64 434.83,-142.15"/>
</a>
</g>
</g>
<!-- Node14 -->
<g id="Node000014" class="node">
<title>Node14</title>
<g id="a_Node000014"><a xlink:href="_s_v_g_parser_8h.html" target="_top" xlink:title=" ">
<polygon fill="white" stroke="#666666" points="569.5,-132 495.75,-132 495.75,-112 569.5,-112 569.5,-132"/>
<text text-anchor="middle" x="532.62" y="-118.5" font-family="Helvetica,sans-Serif" font-size="10.00">SVGParser.h</text>
</a>
</g>
</g>
<!-- Node1&#45;&gt;Node14 -->
<g id="edge14_Node000001_Node000014" class="edge">
<title>Node1&#45;&gt;Node14</title>
<g id="a_edge14_Node000001_Node000014"><a xlink:title=" ">
<path fill="none" stroke="#63b8ff" d="M410.4,-167.59C434.03,-158.97 469.27,-146.12 495.84,-136.42"/>
<polygon fill="#63b8ff" stroke="#63b8ff" points="497.03,-139.71 505.22,-133 494.63,-133.14 497.03,-139.71"/>
</a>
</g>
</g>
<!-- Node3 -->
<g id="Node000003" class="node">
<title>Node3</title>
<g id="a_Node000003"><a xlink:title=" ">
<polygon fill="#e0e0e0" stroke="#999999" points="137.5,-76 93.75,-76 93.75,-56 137.5,-56 137.5,-76"/>
<text text-anchor="middle" x="115.62" y="-62.5" font-family="Helvetica,sans-Serif" font-size="10.00">SDL.h</text>
</a>
</g>
</g>
<!-- Node2&#45;&gt;Node3 -->
<g id="edge2_Node000002_Node000003" class="edge">
<title>Node2&#45;&gt;Node3</title>
<g id="a_edge2_Node000002_Node000003"><a xlink:title=" ">
<path fill="none" stroke="#63b8ff" d="M220.5,-111.59C200.59,-103.13 171.07,-90.58 148.42,-80.94"/>
<polygon fill="#63b8ff" stroke="#63b8ff" points="149.88,-77.76 139.31,-77.07 147.15,-84.21 149.88,-77.76"/>
</a>
</g>
</g>
<!-- Node4 -->
<g id="Node000004" class="node">
<title>Node4</title>
<g id="a_Node000004"><a xlink:title=" ">
<polygon fill="#e0e0e0" stroke="#999999" points="233.38,-76 155.88,-76 155.88,-56 233.38,-56 233.38,-76"/>
<text text-anchor="middle" x="194.62" y="-62.5" font-family="Helvetica,sans-Serif" font-size="10.00">SDL_opengl.h</text>
</a>
</g>
</g>
<!-- Node2&#45;&gt;Node4 -->
<g id="edge3_Node000002_Node000004" class="edge">
<title>Node2&#45;&gt;Node4</title>
<g id="a_edge3_Node000002_Node000004"><a xlink:title=" ">
<path fill="none" stroke="#63b8ff" d="M234.26,-111.59C227.73,-104.24 218.44,-93.8 210.51,-84.87"/>
<polygon fill="#63b8ff" stroke="#63b8ff" points="213.16,-82.58 203.9,-77.43 207.92,-87.23 213.16,-82.58"/>
</a>
</g>
</g>
<!-- Node5 -->
<g id="Node000005" class="node">
<title>Node5</title>
<g id="a_Node000005"><a xlink:title=" ">
<polygon fill="#e0e0e0" stroke="#999999" points="309.62,-76 251.62,-76 251.62,-56 309.62,-56 309.62,-76"/>
<text text-anchor="middle" x="280.62" y="-62.5" font-family="Helvetica,sans-Serif" font-size="10.00">SDL_ttf.h</text>
</a>
</g>
</g>
<!-- Node2&#45;&gt;Node5 -->
<g id="edge4_Node000002_Node000005" class="edge">
<title>Node2&#45;&gt;Node5</title>
<g id="a_edge4_Node000002_Node000005"><a xlink:title=" ">
<path fill="none" stroke="#63b8ff" d="M249.24,-111.59C254.31,-104.39 261.46,-94.23 267.65,-85.43"/>
<polygon fill="#63b8ff" stroke="#63b8ff" points="270.32,-87.73 273.21,-77.54 264.59,-83.7 270.32,-87.73"/>
</a>
</g>
</g>
<!-- Node6 -->
<g id="Node000006" class="node">
<title>Node6</title>
<g id="a_Node000006"><a xlink:title=" ">
<polygon fill="#e0e0e0" stroke="#999999" points="401.12,-76 328.12,-76 328.12,-56 401.12,-56 401.12,-76"/>
<text text-anchor="middle" x="364.62" y="-62.5" font-family="Helvetica,sans-Serif" font-size="10.00">SDL_mixer.h</text>
</a>
</g>
</g>
<!-- Node2&#45;&gt;Node6 -->
<g id="edge5_Node000002_Node000006" class="edge">
<title>Node2&#45;&gt;Node6</title>
<g id="a_edge5_Node000002_Node000006"><a xlink:title=" ">
<path fill="none" stroke="#63b8ff" d="M263.88,-111.59C282.91,-103.17 311.1,-90.69 332.83,-81.07"/>
<polygon fill="#63b8ff" stroke="#63b8ff" points="334.1,-84.34 341.82,-77.09 331.26,-77.94 334.1,-84.34"/>
</a>
</g>
</g>
<!-- Node7 -->
<g id="Node000007" class="node">
<title>Node7</title>
<g id="a_Node000007"><a xlink:title=" ">
<polygon fill="#e0e0e0" stroke="#999999" points="75.25,-76 0,-76 0,-56 75.25,-56 75.25,-76"/>
<text text-anchor="middle" x="37.62" y="-62.5" font-family="Helvetica,sans-Serif" font-size="10.00">SDL_image.h</text>
</a>
</g>
</g>
<!-- Node2&#45;&gt;Node7 -->
<g id="edge6_Node000002_Node000007" class="edge">
<title>Node2&#45;&gt;Node7</title>
<g id="a_edge6_Node000002_Node000007"><a xlink:title=" ">
<path fill="none" stroke="#63b8ff" d="M219.51,-114.91C186.9,-106.32 126.66,-90.45 84.47,-79.34"/>
<polygon fill="#63b8ff" stroke="#63b8ff" points="85.38,-75.96 74.82,-76.8 83.6,-82.73 85.38,-75.96"/>
</a>
</g>
</g>
<!-- Node8 -->
<g id="Node000008" class="node">
<title>Node8</title>
<g id="a_Node000008"><a xlink:href="structs_8h.html" target="_top" xlink:title=" ">
<polygon fill="white" stroke="#666666" points="473.75,-76 419.5,-76 419.5,-56 473.75,-56 473.75,-76"/>
<text text-anchor="middle" x="446.62" y="-62.5" font-family="Helvetica,sans-Serif" font-size="10.00">structs.h</text>
</a>
</g>
</g>
<!-- Node2&#45;&gt;Node8 -->
<g id="edge7_Node000002_Node000008" class="edge">
<title>Node2&#45;&gt;Node8</title>
<g id="a_edge7_Node000002_Node000008"><a xlink:title=" ">
<path fill="none" stroke="#63b8ff" d="M265.68,-114.46C268.69,-113.62 271.73,-112.79 274.62,-112 320.39,-99.58 373.17,-85.86 408.07,-76.87"/>
<polygon fill="#63b8ff" stroke="#63b8ff" points="408.9,-80.27 417.71,-74.39 407.16,-73.49 408.9,-80.27"/>
</a>
</g>
</g>
<!-- Node9 -->
<g id="Node000009" class="node">
<title>Node9</title>
<g id="a_Node000009"><a xlink:title=" ">
<polygon fill="#e0e0e0" stroke="#999999" points="530.62,-20 490.62,-20 490.62,0 530.62,0 530.62,-20"/>
<text text-anchor="middle" x="510.62" y="-6.5" font-family="Helvetica,sans-Serif" font-size="10.00">string</text>
</a>
</g>
</g>
<!-- Node8&#45;&gt;Node9 -->
<g id="edge8_Node000008_Node000009" class="edge">
<title>Node8&#45;&gt;Node9</title>
<g id="a_edge8_Node000008_Node000009"><a xlink:title=" ">
<path fill="none" stroke="#63b8ff" d="M457.77,-55.59C466.95,-47.85 480.18,-36.69 491.11,-27.47"/>
<polygon fill="#63b8ff" stroke="#63b8ff" points="493.06,-30.4 498.45,-21.27 488.55,-25.05 493.06,-30.4"/>
</a>
</g>
</g>
<!-- Node10 -->
<g id="Node000010" class="node">
<title>Node10</title>
<g id="a_Node000010"><a xlink:href="_vector2f_8h.html" target="_top" xlink:title=" ">
<polygon fill="white" stroke="#666666" points="472.75,-20 412.5,-20 412.5,0 472.75,0 472.75,-20"/>
<text text-anchor="middle" x="442.62" y="-6.5" font-family="Helvetica,sans-Serif" font-size="10.00">Vector2f.h</text>
</a>
</g>
</g>
<!-- Node8&#45;&gt;Node10 -->
<g id="edge9_Node000008_Node000010" class="edge">
<title>Node8&#45;&gt;Node10</title>
<g id="a_edge9_Node000008_Node000010"><a xlink:title=" ">
<path fill="none" stroke="#63b8ff" d="M440.66,-55.59C438.86,-49.01 437.75,-39.96 437.58,-31.73"/>
<polygon fill="#63b8ff" stroke="#63b8ff" points="441.07,-31.95 438,-21.81 434.08,-31.65 441.07,-31.95"/>
</a>
</g>
</g>
<!-- Node10&#45;&gt;Node8 -->
<g id="edge10_Node000010_Node000008" class="edge">
<title>Node10&#45;&gt;Node8</title>
<g id="a_edge10_Node000010_Node000008"><a xlink:title=" ">
<path fill="none" stroke="#63b8ff" d="M448.56,-20.3C450.37,-26.85 451.49,-35.9 451.67,-44.13"/>
<polygon fill="#63b8ff" stroke="#63b8ff" points="448.18,-43.94 451.26,-54.08 455.17,-44.24 448.18,-43.94"/>
</a>
</g>
</g>
<!-- Node14&#45;&gt;Node8 -->
<g id="edge18_Node000014_Node000008" class="edge">
<title>Node14&#45;&gt;Node8</title>
<g id="a_edge18_Node000014_Node000008"><a xlink:title=" ">
<path fill="none" stroke="#63b8ff" d="M517.64,-111.59C504.9,-103.59 486.33,-91.93 471.38,-82.54"/>
<polygon fill="#63b8ff" stroke="#63b8ff" points="473.33,-79.64 463,-77.28 469.61,-85.57 473.33,-79.64"/>
</a>
</g>
</g>
<!-- Node14&#45;&gt;Node9 -->
<g id="edge15_Node000014_Node000009" class="edge">
<title>Node14&#45;&gt;Node9</title>
<g id="a_edge15_Node000014_Node000009"><a xlink:title=" ">
<path fill="none" stroke="#63b8ff" d="M530.75,-111.62C527.21,-93.92 519.47,-55.24 514.69,-31.32"/>
<polygon fill="#63b8ff" stroke="#63b8ff" points="518.19,-30.96 512.79,-21.84 511.32,-32.33 518.19,-30.96"/>
</a>
</g>
</g>
<!-- Node15 -->
<g id="Node000015" class="node">
<title>Node15</title>
<g id="a_Node000015"><a xlink:title=" ">
<polygon fill="#e0e0e0" stroke="#999999" points="579.12,-76 536.12,-76 536.12,-56 579.12,-56 579.12,-76"/>
<text text-anchor="middle" x="557.62" y="-62.5" font-family="Helvetica,sans-Serif" font-size="10.00">vector</text>
</a>
</g>
</g>
<!-- Node14&#45;&gt;Node15 -->
<g id="edge16_Node000014_Node000015" class="edge">
<title>Node14&#45;&gt;Node15</title>
<g id="a_edge16_Node000014_Node000015"><a xlink:title=" ">
<path fill="none" stroke="#63b8ff" d="M536.98,-111.59C540.17,-104.7 544.61,-95.1 548.56,-86.57"/>
<polygon fill="#63b8ff" stroke="#63b8ff" points="551.66,-88.22 552.68,-77.67 545.31,-85.28 551.66,-88.22"/>
</a>
</g>
</g>
<!-- Node16 -->
<g id="Node000016" class="node">
<title>Node16</title>
<g id="a_Node000016"><a xlink:title=" ">
<polygon fill="#e0e0e0" stroke="#999999" points="648.25,-76 597,-76 597,-56 648.25,-56 648.25,-76"/>
<text text-anchor="middle" x="622.62" y="-62.5" font-family="Helvetica,sans-Serif" font-size="10.00">sstream</text>
</a>
</g>
</g>
<!-- Node14&#45;&gt;Node16 -->
<g id="edge17_Node000014_Node000016" class="edge">
<title>Node14&#45;&gt;Node16</title>
<g id="a_edge17_Node000014_Node000016"><a xlink:title=" ">
<path fill="none" stroke="#63b8ff" d="M548.3,-111.59C561.77,-103.51 581.44,-91.71 597.17,-82.27"/>
<polygon fill="#63b8ff" stroke="#63b8ff" points="598.75,-85.4 605.53,-77.26 595.15,-79.4 598.75,-85.4"/>
</a>
</g>
</g>
</g>
</svg>
