<?xml version="1.0" encoding="UTF-8" standalone="no"?>
<!DOCTYPE svg PUBLIC "-//W3C//DTD SVG 1.1//EN"
 "http://www.w3.org/Graphics/SVG/1.1/DTD/svg11.dtd">
<!-- Generated by graphviz version 12.2.1 (20241206.2353)
 -->
<!-- Title: Celeste/SaveFileIO.cpp Pages: 1 -->
<svg width="681pt" height="196pt"
 viewBox="0.00 0.00 680.50 196.00" xmlns="http://www.w3.org/2000/svg" xmlns:xlink="http://www.w3.org/1999/xlink">
<g id="graph0" class="graph" transform="scale(1 1) rotate(0) translate(4 192)">
<title>Celeste/SaveFileIO.cpp</title>
<!-- Node1 -->
<g id="Node000001" class="node">
<title>Node1</title>
<g id="a_Node000001"><a xlink:title=" ">
<polygon fill="#999999" stroke="#666666" points="568,-188 447.75,-188 447.75,-168 568,-168 568,-188"/>
<text text-anchor="middle" x="507.88" y="-174.5" font-family="Helvetica,sans-Serif" font-size="10.00">Celeste/SaveFileIO.cpp</text>
</a>
</g>
</g>
<!-- Node2 -->
<g id="Node000002" class="node">
<title>Node2</title>
<g id="a_Node000002"><a xlink:href="pch_8h.html" target="_top" xlink:title=" ">
<polygon fill="white" stroke="#666666" points="290.88,-132 250.88,-132 250.88,-112 290.88,-112 290.88,-132"/>
<text text-anchor="middle" x="270.88" y="-118.5" font-family="Helvetica,sans-Serif" font-size="10.00">pch.h</text>
</a>
</g>
</g>
<!-- Node1&#45;&gt;Node2 -->
<g id="edge1_Node000001_Node000002" class="edge">
<title>Node1&#45;&gt;Node2</title>
<g id="a_edge1_Node000001_Node000002"><a xlink:title=" ">
<path fill="none" stroke="#63b8ff" d="M466.32,-167.53C419.48,-156.86 344.38,-139.75 302.22,-130.14"/>
<polygon fill="#63b8ff" stroke="#63b8ff" points="303.25,-126.79 292.72,-127.98 301.7,-133.61 303.25,-126.79"/>
</a>
</g>
</g>
<!-- Node11 -->
<g id="Node000011" class="node">
<title>Node11</title>
<g id="a_Node000011"><a xlink:href="_save_file_i_o_8h.html" target="_top" xlink:title=" ">
<polygon fill="white" stroke="#666666" points="465.38,-132 392.38,-132 392.38,-112 465.38,-112 465.38,-132"/>
<text text-anchor="middle" x="428.88" y="-118.5" font-family="Helvetica,sans-Serif" font-size="10.00">SaveFileIO.h</text>
</a>
</g>
</g>
<!-- Node1&#45;&gt;Node11 -->
<g id="edge11_Node000001_Node000011" class="edge">
<title>Node1&#45;&gt;Node11</title>
<g id="a_edge11_Node000001_Node000011"><a xlink:title=" ">
<path fill="none" stroke="#63b8ff" d="M494.11,-167.59C482.52,-159.67 465.68,-148.16 452.01,-138.82"/>
<polygon fill="#63b8ff" stroke="#63b8ff" points="454.22,-136.09 443.99,-133.33 450.27,-141.87 454.22,-136.09"/>
</a>
</g>
</g>
<!-- Node13 -->
<g id="Node000013" class="node">
<title>Node13</title>
<g id="a_Node000013"><a xlink:title=" ">
<polygon fill="#e0e0e0" stroke="#999999" points="532.38,-132 483.38,-132 483.38,-112 532.38,-112 532.38,-132"/>
<text text-anchor="middle" x="507.88" y="-118.5" font-family="Helvetica,sans-Serif" font-size="10.00">fstream</text>
</a>
</g>
</g>
<!-- Node1&#45;&gt;Node13 -->
<g id="edge13_Node000001_Node000013" class="edge">
<title>Node1&#45;&gt;Node13</title>
<g id="a_edge13_Node000001_Node000013"><a xlink:title=" ">
<path fill="none" stroke="#63b8ff" d="M507.88,-167.59C507.88,-161.01 507.88,-151.96 507.88,-143.73"/>
<polygon fill="#63b8ff" stroke="#63b8ff" points="511.38,-143.81 507.88,-133.81 504.38,-143.81 511.38,-143.81"/>
</a>
</g>
</g>
<!-- Node14 -->
<g id="Node000014" class="node">
<title>Node14</title>
<g id="a_Node000014"><a xlink:title=" ">
<polygon fill="#e0e0e0" stroke="#999999" points="603.62,-132 550.12,-132 550.12,-112 603.62,-112 603.62,-132"/>
<text text-anchor="middle" x="576.88" y="-118.5" font-family="Helvetica,sans-Serif" font-size="10.00">iostream</text>
</a>
</g>
</g>
<!-- Node1&#45;&gt;Node14 -->
<g id="edge14_Node000001_Node000014" class="edge">
<title>Node1&#45;&gt;Node14</title>
<g id="a_edge14_Node000001_Node000014"><a xlink:title=" ">
<path fill="none" stroke="#63b8ff" d="M519.89,-167.59C529.89,-159.77 544.34,-148.46 556.18,-139.19"/>
<polygon fill="#63b8ff" stroke="#63b8ff" points="558.08,-142.15 563.8,-133.23 553.77,-136.64 558.08,-142.15"/>
</a>
</g>
</g>
<!-- Node15 -->
<g id="Node000015" class="node">
<title>Node15</title>
<g id="a_Node000015"><a xlink:title=" ">
<polygon fill="#e0e0e0" stroke="#999999" points="672.5,-132 621.25,-132 621.25,-112 672.5,-112 672.5,-132"/>
<text text-anchor="middle" x="646.88" y="-118.5" font-family="Helvetica,sans-Serif" font-size="10.00">sstream</text>
</a>
</g>
</g>
<!-- Node1&#45;&gt;Node15 -->
<g id="edge15_Node000001_Node000015" class="edge">
<title>Node1&#45;&gt;Node15</title>
<g id="a_edge15_Node000001_Node000015"><a xlink:title=" ">
<path fill="none" stroke="#63b8ff" d="M532.09,-167.59C554.18,-159.01 587.07,-146.23 612,-136.55"/>
<polygon fill="#63b8ff" stroke="#63b8ff" points="613.01,-139.91 621.06,-133.03 610.47,-133.39 613.01,-139.91"/>
</a>
</g>
</g>
<!-- Node3 -->
<g id="Node000003" class="node">
<title>Node3</title>
<g id="a_Node000003"><a xlink:title=" ">
<polygon fill="#e0e0e0" stroke="#999999" points="43.75,-76 0,-76 0,-56 43.75,-56 43.75,-76"/>
<text text-anchor="middle" x="21.88" y="-62.5" font-family="Helvetica,sans-Serif" font-size="10.00">SDL.h</text>
</a>
</g>
</g>
<!-- Node2&#45;&gt;Node3 -->
<g id="edge2_Node000002_Node000003" class="edge">
<title>Node2&#45;&gt;Node3</title>
<g id="a_edge2_Node000002_Node000003"><a xlink:title=" ">
<path fill="none" stroke="#63b8ff" d="M250.62,-117.37C213.7,-110.64 132.79,-95.36 55.1,-76.4"/>
<polygon fill="#63b8ff" stroke="#63b8ff" points="56.19,-73.06 45.64,-74.06 54.51,-79.86 56.19,-73.06"/>
</a>
</g>
</g>
<!-- Node4 -->
<g id="Node000004" class="node">
<title>Node4</title>
<g id="a_Node000004"><a xlink:title=" ">
<polygon fill="#e0e0e0" stroke="#999999" points="139.62,-76 62.12,-76 62.12,-56 139.62,-56 139.62,-76"/>
<text text-anchor="middle" x="100.88" y="-62.5" font-family="Helvetica,sans-Serif" font-size="10.00">SDL_opengl.h</text>
</a>
</g>
</g>
<!-- Node2&#45;&gt;Node4 -->
<g id="edge3_Node000002_Node000004" class="edge">
<title>Node2&#45;&gt;Node4</title>
<g id="a_edge3_Node000002_Node000004"><a xlink:title=" ">
<path fill="none" stroke="#63b8ff" d="M250.71,-114.59C223.88,-106.07 175.85,-90.82 141.39,-79.87"/>
<polygon fill="#63b8ff" stroke="#63b8ff" points="142.76,-76.63 132.17,-76.94 140.64,-83.3 142.76,-76.63"/>
</a>
</g>
</g>
<!-- Node5 -->
<g id="Node000005" class="node">
<title>Node5</title>
<g id="a_Node000005"><a xlink:title=" ">
<polygon fill="#e0e0e0" stroke="#999999" points="215.88,-76 157.88,-76 157.88,-56 215.88,-56 215.88,-76"/>
<text text-anchor="middle" x="186.88" y="-62.5" font-family="Helvetica,sans-Serif" font-size="10.00">SDL_ttf.h</text>
</a>
</g>
</g>
<!-- Node2&#45;&gt;Node5 -->
<g id="edge4_Node000002_Node000005" class="edge">
<title>Node2&#45;&gt;Node5</title>
<g id="a_edge4_Node000002_Node000005"><a xlink:title=" ">
<path fill="none" stroke="#63b8ff" d="M256.24,-111.59C243.79,-103.59 225.66,-91.93 211.05,-82.54"/>
<polygon fill="#63b8ff" stroke="#63b8ff" points="213.2,-79.76 202.89,-77.3 209.41,-85.65 213.2,-79.76"/>
</a>
</g>
</g>
<!-- Node6 -->
<g id="Node000006" class="node">
<title>Node6</title>
<g id="a_Node000006"><a xlink:title=" ">
<polygon fill="#e0e0e0" stroke="#999999" points="307.38,-76 234.38,-76 234.38,-56 307.38,-56 307.38,-76"/>
<text text-anchor="middle" x="270.88" y="-62.5" font-family="Helvetica,sans-Serif" font-size="10.00">SDL_mixer.h</text>
</a>
</g>
</g>
<!-- Node2&#45;&gt;Node6 -->
<g id="edge5_Node000002_Node000006" class="edge">
<title>Node2&#45;&gt;Node6</title>
<g id="a_edge5_Node000002_Node000006"><a xlink:title=" ">
<path fill="none" stroke="#63b8ff" d="M270.88,-111.59C270.88,-105.01 270.88,-95.96 270.88,-87.73"/>
<polygon fill="#63b8ff" stroke="#63b8ff" points="274.38,-87.81 270.88,-77.81 267.38,-87.81 274.38,-87.81"/>
</a>
</g>
</g>
<!-- Node7 -->
<g id="Node000007" class="node">
<title>Node7</title>
<g id="a_Node000007"><a xlink:title=" ">
<polygon fill="#e0e0e0" stroke="#999999" points="400.5,-76 325.25,-76 325.25,-56 400.5,-56 400.5,-76"/>
<text text-anchor="middle" x="362.88" y="-62.5" font-family="Helvetica,sans-Serif" font-size="10.00">SDL_image.h</text>
</a>
</g>
</g>
<!-- Node2&#45;&gt;Node7 -->
<g id="edge6_Node000002_Node000007" class="edge">
<title>Node2&#45;&gt;Node7</title>
<g id="a_edge6_Node000002_Node000007"><a xlink:title=" ">
<path fill="none" stroke="#63b8ff" d="M286.9,-111.59C300.67,-103.51 320.78,-91.71 336.85,-82.27"/>
<polygon fill="#63b8ff" stroke="#63b8ff" points="338.57,-85.33 345.42,-77.25 335.02,-79.29 338.57,-85.33"/>
</a>
</g>
</g>
<!-- Node8 -->
<g id="Node000008" class="node">
<title>Node8</title>
<g id="a_Node000008"><a xlink:href="structs_8h.html" target="_top" xlink:title=" ">
<polygon fill="white" stroke="#666666" points="473,-76 418.75,-76 418.75,-56 473,-56 473,-76"/>
<text text-anchor="middle" x="445.88" y="-62.5" font-family="Helvetica,sans-Serif" font-size="10.00">structs.h</text>
</a>
</g>
</g>
<!-- Node2&#45;&gt;Node8 -->
<g id="edge7_Node000002_Node000008" class="edge">
<title>Node2&#45;&gt;Node8</title>
<g id="a_edge7_Node000002_Node000008"><a xlink:title=" ">
<path fill="none" stroke="#63b8ff" d="M291.29,-114.7C319.69,-105.94 371.63,-89.91 407.42,-78.87"/>
<polygon fill="#63b8ff" stroke="#63b8ff" points="408.45,-82.21 416.97,-75.92 406.38,-75.52 408.45,-82.21"/>
</a>
</g>
</g>
<!-- Node9 -->
<g id="Node000009" class="node">
<title>Node9</title>
<g id="a_Node000009"><a xlink:title=" ">
<polygon fill="#e0e0e0" stroke="#999999" points="397.88,-20 357.88,-20 357.88,0 397.88,0 397.88,-20"/>
<text text-anchor="middle" x="377.88" y="-6.5" font-family="Helvetica,sans-Serif" font-size="10.00">string</text>
</a>
</g>
</g>
<!-- Node8&#45;&gt;Node9 -->
<g id="edge8_Node000008_Node000009" class="edge">
<title>Node8&#45;&gt;Node9</title>
<g id="a_edge8_Node000008_Node000009"><a xlink:title=" ">
<path fill="none" stroke="#63b8ff" d="M434.03,-55.59C424.18,-47.77 409.94,-36.46 398.27,-27.19"/>
<polygon fill="#63b8ff" stroke="#63b8ff" points="400.78,-24.72 390.77,-21.24 396.42,-30.2 400.78,-24.72"/>
</a>
</g>
</g>
<!-- Node10 -->
<g id="Node000010" class="node">
<title>Node10</title>
<g id="a_Node000010"><a xlink:href="_vector2f_8h.html" target="_top" xlink:title=" ">
<polygon fill="white" stroke="#666666" points="476,-20 415.75,-20 415.75,0 476,0 476,-20"/>
<text text-anchor="middle" x="445.88" y="-6.5" font-family="Helvetica,sans-Serif" font-size="10.00">Vector2f.h</text>
</a>
</g>
</g>
<!-- Node8&#45;&gt;Node10 -->
<g id="edge9_Node000008_Node000010" class="edge">
<title>Node8&#45;&gt;Node10</title>
<g id="a_edge9_Node000008_Node000010"><a xlink:title=" ">
<path fill="none" stroke="#63b8ff" d="M440.61,-55.59C439.29,-49.01 438.85,-39.96 439.29,-31.73"/>
<polygon fill="#63b8ff" stroke="#63b8ff" points="442.77,-32.14 440.45,-21.8 435.81,-31.33 442.77,-32.14"/>
</a>
</g>
</g>
<!-- Node10&#45;&gt;Node8 -->
<g id="edge10_Node000010_Node000008" class="edge">
<title>Node10&#45;&gt;Node8</title>
<g id="a_edge10_Node000010_Node000008"><a xlink:title=" ">
<path fill="none" stroke="#63b8ff" d="M451.12,-20.3C452.46,-26.93 452.91,-36.11 452.45,-44.43"/>
<polygon fill="#63b8ff" stroke="#63b8ff" points="449.01,-43.75 451.32,-54.09 455.96,-44.57 449.01,-43.75"/>
</a>
</g>
</g>
<!-- Node12 -->
<g id="Node000012" class="node">
<title>Node12</title>
<g id="a_Node000012"><a xlink:title=" ">
<polygon fill="#e0e0e0" stroke="#999999" points="534.38,-76 491.38,-76 491.38,-56 534.38,-56 534.38,-76"/>
<text text-anchor="middle" x="512.88" y="-62.5" font-family="Helvetica,sans-Serif" font-size="10.00">vector</text>
</a>
</g>
</g>
<!-- Node11&#45;&gt;Node12 -->
<g id="edge12_Node000011_Node000012" class="edge">
<title>Node11&#45;&gt;Node12</title>
<g id="a_edge12_Node000011_Node000012"><a xlink:title=" ">
<path fill="none" stroke="#63b8ff" d="M443.51,-111.59C455.96,-103.59 474.09,-91.93 488.7,-82.54"/>
<polygon fill="#63b8ff" stroke="#63b8ff" points="490.34,-85.65 496.86,-77.3 486.55,-79.76 490.34,-85.65"/>
</a>
</g>
</g>
</g>
</svg>
