<?xml version="1.0" encoding="UTF-8" standalone="no"?>
<!DOCTYPE svg PUBLIC "-//W3C//DTD SVG 1.1//EN"
 "http://www.w3.org/Graphics/SVG/1.1/DTD/svg11.dtd">
<!-- Generated by graphviz version 12.2.1 (20241206.2353)
 -->
<!-- Title: Celeste/SliderMenuItem.cpp Pages: 1 -->
<svg width="580pt" height="364pt"
 viewBox="0.00 0.00 580.00 364.00" xmlns="http://www.w3.org/2000/svg" xmlns:xlink="http://www.w3.org/1999/xlink">
<g id="graph0" class="graph" transform="scale(1 1) rotate(0) translate(4 360)">
<title>Celeste/SliderMenuItem.cpp</title>
<!-- Node1 -->
<g id="Node000001" class="node">
<title>Node1</title>
<g id="a_Node000001"><a xlink:title=" ">
<polygon fill="#999999" stroke="#666666" points="358.38,-356 218.62,-356 218.62,-336 358.38,-336 358.38,-356"/>
<text text-anchor="middle" x="288.5" y="-342.5" font-family="Helvetica,sans-Serif" font-size="10.00">Celeste/SliderMenuItem.cpp</text>
</a>
</g>
</g>
<!-- Node2 -->
<g id="Node000002" class="node">
<title>Node2</title>
<g id="a_Node000002"><a xlink:href="pch_8h.html" target="_top" xlink:title=" ">
<polygon fill="white" stroke="#666666" points="298.5,-132 258.5,-132 258.5,-112 298.5,-112 298.5,-132"/>
<text text-anchor="middle" x="278.5" y="-118.5" font-family="Helvetica,sans-Serif" font-size="10.00">pch.h</text>
</a>
</g>
</g>
<!-- Node1&#45;&gt;Node2 -->
<g id="edge1_Node000001_Node000002" class="edge">
<title>Node1&#45;&gt;Node2</title>
<g id="a_edge1_Node000001_Node000002"><a xlink:title=" ">
<path fill="none" stroke="#63b8ff" d="M288.08,-335.74C286.6,-302.74 281.53,-190.31 279.43,-143.61"/>
<polygon fill="#63b8ff" stroke="#63b8ff" points="282.93,-143.64 278.99,-133.81 275.94,-143.96 282.93,-143.64"/>
</a>
</g>
</g>
<!-- Node11 -->
<g id="Node000011" class="node">
<title>Node11</title>
<g id="a_Node000011"><a xlink:href="_slider_menu_item_8h.html" target="_top" xlink:title=" ">
<polygon fill="white" stroke="#666666" points="260.75,-300 168.25,-300 168.25,-280 260.75,-280 260.75,-300"/>
<text text-anchor="middle" x="214.5" y="-286.5" font-family="Helvetica,sans-Serif" font-size="10.00">SliderMenuItem.h</text>
</a>
</g>
</g>
<!-- Node1&#45;&gt;Node11 -->
<g id="edge11_Node000001_Node000011" class="edge">
<title>Node1&#45;&gt;Node11</title>
<g id="a_edge11_Node000001_Node000011"><a xlink:title=" ">
<path fill="none" stroke="#63b8ff" d="M275.61,-335.59C264.79,-327.7 249.09,-316.24 236.31,-306.92"/>
<polygon fill="#63b8ff" stroke="#63b8ff" points="238.61,-304.26 228.46,-301.19 234.48,-309.91 238.61,-304.26"/>
</a>
</g>
</g>
<!-- Node15 -->
<g id="Node000015" class="node">
<title>Node15</title>
<g id="a_Node000015"><a xlink:href="utils_8h.html" target="_top" xlink:title=" ">
<polygon fill="white" stroke="#666666" points="521.62,-300 479.38,-300 479.38,-280 521.62,-280 521.62,-300"/>
<text text-anchor="middle" x="500.5" y="-286.5" font-family="Helvetica,sans-Serif" font-size="10.00">utils.h</text>
</a>
</g>
</g>
<!-- Node1&#45;&gt;Node15 -->
<g id="edge21_Node000001_Node000015" class="edge">
<title>Node1&#45;&gt;Node15</title>
<g id="a_edge21_Node000001_Node000015"><a xlink:title=" ">
<path fill="none" stroke="#63b8ff" d="M325.43,-335.59C365.74,-325.32 429.67,-309.04 468.1,-299.25"/>
<polygon fill="#63b8ff" stroke="#63b8ff" points="468.87,-302.67 477.69,-296.81 467.14,-295.89 468.87,-302.67"/>
</a>
</g>
</g>
<!-- Node3 -->
<g id="Node000003" class="node">
<title>Node3</title>
<g id="a_Node000003"><a xlink:title=" ">
<polygon fill="#e0e0e0" stroke="#999999" points="300.38,-76 256.62,-76 256.62,-56 300.38,-56 300.38,-76"/>
<text text-anchor="middle" x="278.5" y="-62.5" font-family="Helvetica,sans-Serif" font-size="10.00">SDL.h</text>
</a>
</g>
</g>
<!-- Node2&#45;&gt;Node3 -->
<g id="edge2_Node000002_Node000003" class="edge">
<title>Node2&#45;&gt;Node3</title>
<g id="a_edge2_Node000002_Node000003"><a xlink:title=" ">
<path fill="none" stroke="#63b8ff" d="M278.5,-111.59C278.5,-105.01 278.5,-95.96 278.5,-87.73"/>
<polygon fill="#63b8ff" stroke="#63b8ff" points="282,-87.81 278.5,-77.81 275,-87.81 282,-87.81"/>
</a>
</g>
</g>
<!-- Node4 -->
<g id="Node000004" class="node">
<title>Node4</title>
<g id="a_Node000004"><a xlink:title=" ">
<polygon fill="#e0e0e0" stroke="#999999" points="396.25,-76 318.75,-76 318.75,-56 396.25,-56 396.25,-76"/>
<text text-anchor="middle" x="357.5" y="-62.5" font-family="Helvetica,sans-Serif" font-size="10.00">SDL_opengl.h</text>
</a>
</g>
</g>
<!-- Node2&#45;&gt;Node4 -->
<g id="edge3_Node000002_Node000004" class="edge">
<title>Node2&#45;&gt;Node4</title>
<g id="a_edge3_Node000002_Node000004"><a xlink:title=" ">
<path fill="none" stroke="#63b8ff" d="M292.26,-111.59C303.86,-103.67 320.7,-92.16 334.36,-82.82"/>
<polygon fill="#63b8ff" stroke="#63b8ff" points="336.1,-85.87 342.38,-77.33 332.15,-80.09 336.1,-85.87"/>
</a>
</g>
</g>
<!-- Node5 -->
<g id="Node000005" class="node">
<title>Node5</title>
<g id="a_Node000005"><a xlink:title=" ">
<polygon fill="#e0e0e0" stroke="#999999" points="472.5,-76 414.5,-76 414.5,-56 472.5,-56 472.5,-76"/>
<text text-anchor="middle" x="443.5" y="-62.5" font-family="Helvetica,sans-Serif" font-size="10.00">SDL_ttf.h</text>
</a>
</g>
</g>
<!-- Node2&#45;&gt;Node5 -->
<g id="edge4_Node000002_Node000005" class="edge">
<title>Node2&#45;&gt;Node5</title>
<g id="a_edge4_Node000002_Node000005"><a xlink:title=" ">
<path fill="none" stroke="#63b8ff" d="M298.73,-114.38C324.79,-105.85 370.65,-90.84 403.79,-80"/>
<polygon fill="#63b8ff" stroke="#63b8ff" points="404.63,-83.4 413.05,-76.97 402.46,-76.75 404.63,-83.4"/>
</a>
</g>
</g>
<!-- Node6 -->
<g id="Node000006" class="node">
<title>Node6</title>
<g id="a_Node000006"><a xlink:title=" ">
<polygon fill="#e0e0e0" stroke="#999999" points="73,-76 0,-76 0,-56 73,-56 73,-76"/>
<text text-anchor="middle" x="36.5" y="-62.5" font-family="Helvetica,sans-Serif" font-size="10.00">SDL_mixer.h</text>
</a>
</g>
</g>
<!-- Node2&#45;&gt;Node6 -->
<g id="edge5_Node000002_Node000006" class="edge">
<title>Node2&#45;&gt;Node6</title>
<g id="a_edge5_Node000002_Node000006"><a xlink:title=" ">
<path fill="none" stroke="#63b8ff" d="M258.24,-115.09C254.35,-114.02 250.31,-112.94 246.5,-112 216.32,-104.53 136.35,-87.7 84.26,-76.87"/>
<polygon fill="#63b8ff" stroke="#63b8ff" points="85.26,-73.5 74.76,-74.9 83.84,-80.36 85.26,-73.5"/>
</a>
</g>
</g>
<!-- Node7 -->
<g id="Node000007" class="node">
<title>Node7</title>
<g id="a_Node000007"><a xlink:title=" ">
<polygon fill="#e0e0e0" stroke="#999999" points="166.12,-76 90.88,-76 90.88,-56 166.12,-56 166.12,-76"/>
<text text-anchor="middle" x="128.5" y="-62.5" font-family="Helvetica,sans-Serif" font-size="10.00">SDL_image.h</text>
</a>
</g>
</g>
<!-- Node2&#45;&gt;Node7 -->
<g id="edge6_Node000002_Node000007" class="edge">
<title>Node2&#45;&gt;Node7</title>
<g id="a_edge6_Node000002_Node000007"><a xlink:title=" ">
<path fill="none" stroke="#63b8ff" d="M258.27,-113.72C234.52,-105.17 194.64,-90.81 165.35,-80.27"/>
<polygon fill="#63b8ff" stroke="#63b8ff" points="166.72,-77.04 156.12,-76.94 164.35,-83.62 166.72,-77.04"/>
</a>
</g>
</g>
<!-- Node8 -->
<g id="Node000008" class="node">
<title>Node8</title>
<g id="a_Node000008"><a xlink:href="structs_8h.html" target="_top" xlink:title=" ">
<polygon fill="white" stroke="#666666" points="238.62,-76 184.38,-76 184.38,-56 238.62,-56 238.62,-76"/>
<text text-anchor="middle" x="211.5" y="-62.5" font-family="Helvetica,sans-Serif" font-size="10.00">structs.h</text>
</a>
</g>
</g>
<!-- Node2&#45;&gt;Node8 -->
<g id="edge7_Node000002_Node000008" class="edge">
<title>Node2&#45;&gt;Node8</title>
<g id="a_edge7_Node000002_Node000008"><a xlink:title=" ">
<path fill="none" stroke="#63b8ff" d="M266.83,-111.59C257.22,-103.85 243.37,-92.69 231.93,-83.47"/>
<polygon fill="#63b8ff" stroke="#63b8ff" points="234.2,-80.8 224.22,-77.25 229.8,-86.25 234.2,-80.8"/>
</a>
</g>
</g>
<!-- Node9 -->
<g id="Node000009" class="node">
<title>Node9</title>
<g id="a_Node000009"><a xlink:title=" ">
<polygon fill="#e0e0e0" stroke="#999999" points="197.5,-20 157.5,-20 157.5,0 197.5,0 197.5,-20"/>
<text text-anchor="middle" x="177.5" y="-6.5" font-family="Helvetica,sans-Serif" font-size="10.00">string</text>
</a>
</g>
</g>
<!-- Node8&#45;&gt;Node9 -->
<g id="edge8_Node000008_Node000009" class="edge">
<title>Node8&#45;&gt;Node9</title>
<g id="a_edge8_Node000008_Node000009"><a xlink:title=" ">
<path fill="none" stroke="#63b8ff" d="M205.58,-55.59C201.14,-48.55 194.92,-38.67 189.46,-30"/>
<polygon fill="#63b8ff" stroke="#63b8ff" points="192.45,-28.18 184.16,-21.58 186.53,-31.91 192.45,-28.18"/>
</a>
</g>
</g>
<!-- Node10 -->
<g id="Node000010" class="node">
<title>Node10</title>
<g id="a_Node000010"><a xlink:href="_vector2f_8h.html" target="_top" xlink:title=" ">
<polygon fill="white" stroke="#666666" points="275.62,-20 215.38,-20 215.38,0 275.62,0 275.62,-20"/>
<text text-anchor="middle" x="245.5" y="-6.5" font-family="Helvetica,sans-Serif" font-size="10.00">Vector2f.h</text>
</a>
</g>
</g>
<!-- Node8&#45;&gt;Node10 -->
<g id="edge9_Node000008_Node000010" class="edge">
<title>Node8&#45;&gt;Node10</title>
<g id="a_edge9_Node000008_Node000010"><a xlink:title=" ">
<path fill="none" stroke="#63b8ff" d="M212.16,-55.59C215.25,-48.39 221.25,-38.23 227.46,-29.43"/>
<polygon fill="#63b8ff" stroke="#63b8ff" points="230.22,-31.58 233.48,-21.5 224.65,-27.35 230.22,-31.58"/>
</a>
</g>
</g>
<!-- Node10&#45;&gt;Node8 -->
<g id="edge10_Node000010_Node000008" class="edge">
<title>Node10&#45;&gt;Node8</title>
<g id="a_edge10_Node000010_Node000008"><a xlink:title=" ">
<path fill="none" stroke="#63b8ff" d="M244.89,-20.3C241.83,-27.47 235.84,-37.62 229.64,-46.44"/>
<polygon fill="#63b8ff" stroke="#63b8ff" points="226.86,-44.31 223.6,-54.39 232.44,-48.54 226.86,-44.31"/>
</a>
</g>
</g>
<!-- Node12 -->
<g id="Node000012" class="node">
<title>Node12</title>
<g id="a_Node000012"><a xlink:href="_menu_item_8h.html" target="_top" xlink:title=" ">
<polygon fill="white" stroke="#666666" points="248.38,-244 180.62,-244 180.62,-224 248.38,-224 248.38,-244"/>
<text text-anchor="middle" x="214.5" y="-230.5" font-family="Helvetica,sans-Serif" font-size="10.00">MenuItem.h</text>
</a>
</g>
</g>
<!-- Node11&#45;&gt;Node12 -->
<g id="edge12_Node000011_Node000012" class="edge">
<title>Node11&#45;&gt;Node12</title>
<g id="a_edge12_Node000011_Node000012"><a xlink:title=" ">
<path fill="none" stroke="#63b8ff" d="M214.5,-279.59C214.5,-273.01 214.5,-263.96 214.5,-255.73"/>
<polygon fill="#63b8ff" stroke="#63b8ff" points="218,-255.81 214.5,-245.81 211,-255.81 218,-255.81"/>
</a>
</g>
</g>
<!-- Node13 -->
<g id="Node000013" class="node">
<title>Node13</title>
<g id="a_Node000013"><a xlink:href="_texture_8h.html" target="_top" xlink:title=" ">
<polygon fill="white" stroke="#666666" points="242.75,-188 186.25,-188 186.25,-168 242.75,-168 242.75,-188"/>
<text text-anchor="middle" x="214.5" y="-174.5" font-family="Helvetica,sans-Serif" font-size="10.00">Texture.h</text>
</a>
</g>
</g>
<!-- Node12&#45;&gt;Node13 -->
<g id="edge13_Node000012_Node000013" class="edge">
<title>Node12&#45;&gt;Node13</title>
<g id="a_edge13_Node000012_Node000013"><a xlink:title=" ">
<path fill="none" stroke="#63b8ff" d="M214.5,-223.59C214.5,-217.01 214.5,-207.96 214.5,-199.73"/>
<polygon fill="#63b8ff" stroke="#63b8ff" points="218,-199.81 214.5,-189.81 211,-199.81 218,-199.81"/>
</a>
</g>
</g>
<!-- Node14 -->
<g id="Node000014" class="node">
<title>Node14</title>
<g id="a_Node000014"><a xlink:href="base_8h.html" target="_top" xlink:title=" ">
<polygon fill="white" stroke="#666666" points="237.12,-132 191.88,-132 191.88,-112 237.12,-112 237.12,-132"/>
<text text-anchor="middle" x="214.5" y="-118.5" font-family="Helvetica,sans-Serif" font-size="10.00">base.h</text>
</a>
</g>
</g>
<!-- Node13&#45;&gt;Node14 -->
<g id="edge14_Node000013_Node000014" class="edge">
<title>Node13&#45;&gt;Node14</title>
<g id="a_edge14_Node000013_Node000014"><a xlink:title=" ">
<path fill="none" stroke="#63b8ff" d="M214.5,-167.59C214.5,-161.01 214.5,-151.96 214.5,-143.73"/>
<polygon fill="#63b8ff" stroke="#63b8ff" points="218,-143.81 214.5,-133.81 211,-143.81 218,-143.81"/>
</a>
</g>
</g>
<!-- Node14&#45;&gt;Node3 -->
<g id="edge15_Node000014_Node000003" class="edge">
<title>Node14&#45;&gt;Node3</title>
<g id="a_edge15_Node000014_Node000003"><a xlink:title=" ">
<path fill="none" stroke="#63b8ff" d="M225.65,-111.59C234.83,-103.85 248.05,-92.69 258.98,-83.47"/>
<polygon fill="#63b8ff" stroke="#63b8ff" points="260.94,-86.4 266.32,-77.27 256.42,-81.05 260.94,-86.4"/>
</a>
</g>
</g>
<!-- Node14&#45;&gt;Node4 -->
<g id="edge16_Node000014_Node000004" class="edge">
<title>Node14&#45;&gt;Node4</title>
<g id="a_edge16_Node000014_Node000004"><a xlink:title=" ">
<path fill="none" stroke="#63b8ff" d="M237.48,-112.32C260.27,-103.72 295.53,-90.4 321.94,-80.43"/>
<polygon fill="#63b8ff" stroke="#63b8ff" points="323.13,-83.72 331.24,-76.91 320.65,-77.17 323.13,-83.72"/>
</a>
</g>
</g>
<!-- Node14&#45;&gt;Node5 -->
<g id="edge17_Node000014_Node000005" class="edge">
<title>Node14&#45;&gt;Node5</title>
<g id="a_edge17_Node000014_Node000005"><a xlink:title=" ">
<path fill="none" stroke="#63b8ff" d="M237.45,-115.01C241.46,-113.99 245.6,-112.95 249.5,-112 315.25,-95.96 334.37,-92.52 403.06,-76.55"/>
<polygon fill="#63b8ff" stroke="#63b8ff" points="403.63,-80.02 412.57,-74.34 402.04,-73.2 403.63,-80.02"/>
</a>
</g>
</g>
<!-- Node14&#45;&gt;Node6 -->
<g id="edge18_Node000014_Node000006" class="edge">
<title>Node14&#45;&gt;Node6</title>
<g id="a_edge18_Node000014_Node000006"><a xlink:title=" ">
<path fill="none" stroke="#63b8ff" d="M191.59,-114.05C163.13,-105.41 113.99,-90.51 78.64,-79.79"/>
<polygon fill="#63b8ff" stroke="#63b8ff" points="79.73,-76.46 69.14,-76.9 77.7,-83.16 79.73,-76.46"/>
</a>
</g>
</g>
<!-- Node14&#45;&gt;Node7 -->
<g id="edge19_Node000014_Node000007" class="edge">
<title>Node14&#45;&gt;Node7</title>
<g id="a_edge19_Node000014_Node000007"><a xlink:title=" ">
<path fill="none" stroke="#63b8ff" d="M199.52,-111.59C186.77,-103.59 168.21,-91.93 153.26,-82.54"/>
<polygon fill="#63b8ff" stroke="#63b8ff" points="155.21,-79.64 144.88,-77.28 151.49,-85.57 155.21,-79.64"/>
</a>
</g>
</g>
<!-- Node14&#45;&gt;Node8 -->
<g id="edge20_Node000014_Node000008" class="edge">
<title>Node14&#45;&gt;Node8</title>
<g id="a_edge20_Node000014_Node000008"><a xlink:title=" ">
<path fill="none" stroke="#63b8ff" d="M213.98,-111.59C213.61,-105.01 213.11,-95.96 212.65,-87.73"/>
<polygon fill="#63b8ff" stroke="#63b8ff" points="216.15,-87.6 212.1,-77.81 209.16,-87.99 216.15,-87.6"/>
</a>
</g>
</g>
<!-- Node15&#45;&gt;Node10 -->
<g id="edge23_Node000015_Node000010" class="edge">
<title>Node15&#45;&gt;Node10</title>
<g id="a_edge23_Node000015_Node000010"><a xlink:title=" ">
<path fill="none" stroke="#63b8ff" d="M500.5,-279.58C500.5,-260.57 500.5,-216.24 500.5,-179 500.5,-179 500.5,-179 500.5,-121 500.5,-90.9 503.78,-76.24 481.5,-56 453.57,-30.63 347.23,-18.64 287.27,-13.79"/>
<polygon fill="#63b8ff" stroke="#63b8ff" points="287.68,-10.32 277.44,-13.03 287.14,-17.29 287.68,-10.32"/>
</a>
</g>
</g>
<!-- Node16 -->
<g id="Node000016" class="node">
<title>Node16</title>
<g id="a_Node000016"><a xlink:title=" ">
<polygon fill="#e0e0e0" stroke="#999999" points="572,-244 529,-244 529,-224 572,-224 572,-244"/>
<text text-anchor="middle" x="550.5" y="-230.5" font-family="Helvetica,sans-Serif" font-size="10.00">vector</text>
</a>
</g>
</g>
<!-- Node15&#45;&gt;Node16 -->
<g id="edge22_Node000015_Node000016" class="edge">
<title>Node15&#45;&gt;Node16</title>
<g id="a_edge22_Node000015_Node000016"><a xlink:title=" ">
<path fill="none" stroke="#63b8ff" d="M509.21,-279.59C516.09,-272.16 525.89,-261.58 534.22,-252.58"/>
<polygon fill="#63b8ff" stroke="#63b8ff" points="536.64,-255.12 540.86,-245.41 531.5,-250.37 536.64,-255.12"/>
</a>
</g>
</g>
</g>
</svg>
