<?xml version="1.0" encoding="UTF-8" standalone="no"?>
<!DOCTYPE svg PUBLIC "-//W3C//DTD SVG 1.1//EN"
 "http://www.w3.org/Graphics/SVG/1.1/DTD/svg11.dtd">
<!-- Generated by graphviz version 12.2.1 (20241206.2353)
 -->
<!-- Title: Engine/SoundStream.cpp Pages: 1 -->
<svg width="544pt" height="196pt"
 viewBox="0.00 0.00 543.50 196.00" xmlns="http://www.w3.org/2000/svg" xmlns:xlink="http://www.w3.org/1999/xlink">
<g id="graph0" class="graph" transform="scale(1 1) rotate(0) translate(4 192)">
<title>Engine/SoundStream.cpp</title>
<!-- Node1 -->
<g id="Node000001" class="node">
<title>Node1</title>
<g id="a_Node000001"><a xlink:title=" ">
<polygon fill="#999999" stroke="#666666" points="457.25,-188 330.25,-188 330.25,-168 457.25,-168 457.25,-188"/>
<text text-anchor="middle" x="393.75" y="-174.5" font-family="Helvetica,sans-Serif" font-size="10.00">Engine/SoundStream.cpp</text>
</a>
</g>
</g>
<!-- Node2 -->
<g id="Node000002" class="node">
<title>Node2</title>
<g id="a_Node000002"><a xlink:href="base_8h.html" target="_top" xlink:title=" ">
<polygon fill="white" stroke="#666666" points="323.38,-132 278.12,-132 278.12,-112 323.38,-112 323.38,-132"/>
<text text-anchor="middle" x="300.75" y="-118.5" font-family="Helvetica,sans-Serif" font-size="10.00">base.h</text>
</a>
</g>
</g>
<!-- Node1&#45;&gt;Node2 -->
<g id="edge1_Node000001_Node000002" class="edge">
<title>Node1&#45;&gt;Node2</title>
<g id="a_edge1_Node000001_Node000002"><a xlink:title=" ">
<path fill="none" stroke="#63b8ff" d="M377.55,-167.59C363.5,-159.44 342.92,-147.48 326.59,-138"/>
<polygon fill="#63b8ff" stroke="#63b8ff" points="328.79,-135.23 318.38,-133.24 325.28,-141.29 328.79,-135.23"/>
</a>
</g>
</g>
<!-- Node11 -->
<g id="Node000011" class="node">
<title>Node11</title>
<g id="a_Node000011"><a xlink:title=" ">
<polygon fill="#e0e0e0" stroke="#999999" points="420.5,-132 367,-132 367,-112 420.5,-112 420.5,-132"/>
<text text-anchor="middle" x="393.75" y="-118.5" font-family="Helvetica,sans-Serif" font-size="10.00">iostream</text>
</a>
</g>
</g>
<!-- Node1&#45;&gt;Node11 -->
<g id="edge11_Node000001_Node000011" class="edge">
<title>Node1&#45;&gt;Node11</title>
<g id="a_edge11_Node000001_Node000011"><a xlink:title=" ">
<path fill="none" stroke="#63b8ff" d="M393.75,-167.59C393.75,-161.01 393.75,-151.96 393.75,-143.73"/>
<polygon fill="#63b8ff" stroke="#63b8ff" points="397.25,-143.81 393.75,-133.81 390.25,-143.81 397.25,-143.81"/>
</a>
</g>
</g>
<!-- Node12 -->
<g id="Node000012" class="node">
<title>Node12</title>
<g id="a_Node000012"><a xlink:href="_sound_stream_8h.html" target="_top" xlink:title=" ">
<polygon fill="white" stroke="#666666" points="535.5,-132 452,-132 452,-112 535.5,-112 535.5,-132"/>
<text text-anchor="middle" x="493.75" y="-118.5" font-family="Helvetica,sans-Serif" font-size="10.00">SoundStream.h</text>
</a>
</g>
</g>
<!-- Node1&#45;&gt;Node12 -->
<g id="edge12_Node000001_Node000012" class="edge">
<title>Node1&#45;&gt;Node12</title>
<g id="a_edge12_Node000001_Node000012"><a xlink:title=" ">
<path fill="none" stroke="#63b8ff" d="M411.17,-167.59C426.42,-159.36 448.83,-147.26 466.46,-137.74"/>
<polygon fill="#63b8ff" stroke="#63b8ff" points="467.73,-141.03 474.86,-133.2 464.4,-134.87 467.73,-141.03"/>
</a>
</g>
</g>
<!-- Node3 -->
<g id="Node000003" class="node">
<title>Node3</title>
<g id="a_Node000003"><a xlink:title=" ">
<polygon fill="#e0e0e0" stroke="#999999" points="400.62,-76 356.88,-76 356.88,-56 400.62,-56 400.62,-76"/>
<text text-anchor="middle" x="378.75" y="-62.5" font-family="Helvetica,sans-Serif" font-size="10.00">SDL.h</text>
</a>
</g>
</g>
<!-- Node2&#45;&gt;Node3 -->
<g id="edge2_Node000002_Node000003" class="edge">
<title>Node2&#45;&gt;Node3</title>
<g id="a_edge2_Node000002_Node000003"><a xlink:title=" ">
<path fill="none" stroke="#63b8ff" d="M314.34,-111.59C325.79,-103.67 342.41,-92.16 355.91,-82.82"/>
<polygon fill="#63b8ff" stroke="#63b8ff" points="357.58,-85.91 363.81,-77.34 353.6,-80.16 357.58,-85.91"/>
</a>
</g>
</g>
<!-- Node4 -->
<g id="Node000004" class="node">
<title>Node4</title>
<g id="a_Node000004"><a xlink:title=" ">
<polygon fill="#e0e0e0" stroke="#999999" points="77.5,-76 0,-76 0,-56 77.5,-56 77.5,-76"/>
<text text-anchor="middle" x="38.75" y="-62.5" font-family="Helvetica,sans-Serif" font-size="10.00">SDL_opengl.h</text>
</a>
</g>
</g>
<!-- Node2&#45;&gt;Node4 -->
<g id="edge3_Node000002_Node000004" class="edge">
<title>Node2&#45;&gt;Node4</title>
<g id="a_edge3_Node000002_Node000004"><a xlink:title=" ">
<path fill="none" stroke="#63b8ff" d="M277.96,-116.3C236.03,-107.66 145.75,-89.05 88.88,-77.33"/>
<polygon fill="#63b8ff" stroke="#63b8ff" points="89.61,-73.91 79.11,-75.32 88.2,-80.77 89.61,-73.91"/>
</a>
</g>
</g>
<!-- Node5 -->
<g id="Node000005" class="node">
<title>Node5</title>
<g id="a_Node000005"><a xlink:title=" ">
<polygon fill="#e0e0e0" stroke="#999999" points="153.75,-76 95.75,-76 95.75,-56 153.75,-56 153.75,-76"/>
<text text-anchor="middle" x="124.75" y="-62.5" font-family="Helvetica,sans-Serif" font-size="10.00">SDL_ttf.h</text>
</a>
</g>
</g>
<!-- Node2&#45;&gt;Node5 -->
<g id="edge4_Node000002_Node000005" class="edge">
<title>Node2&#45;&gt;Node5</title>
<g id="a_edge4_Node000002_Node000005"><a xlink:title=" ">
<path fill="none" stroke="#63b8ff" d="M277.74,-113.94C249.15,-105.17 199.89,-90.06 165,-79.35"/>
<polygon fill="#63b8ff" stroke="#63b8ff" points="166.25,-76.07 155.67,-76.49 164.2,-82.77 166.25,-76.07"/>
</a>
</g>
</g>
<!-- Node6 -->
<g id="Node000006" class="node">
<title>Node6</title>
<g id="a_Node000006"><a xlink:title=" ">
<polygon fill="#e0e0e0" stroke="#999999" points="245.25,-76 172.25,-76 172.25,-56 245.25,-56 245.25,-76"/>
<text text-anchor="middle" x="208.75" y="-62.5" font-family="Helvetica,sans-Serif" font-size="10.00">SDL_mixer.h</text>
</a>
</g>
</g>
<!-- Node2&#45;&gt;Node6 -->
<g id="edge5_Node000002_Node000006" class="edge">
<title>Node2&#45;&gt;Node6</title>
<g id="a_edge5_Node000002_Node000006"><a xlink:title=" ">
<path fill="none" stroke="#63b8ff" d="M284.72,-111.59C270.96,-103.51 250.85,-91.71 234.77,-82.27"/>
<polygon fill="#63b8ff" stroke="#63b8ff" points="236.6,-79.29 226.21,-77.25 233.06,-85.33 236.6,-79.29"/>
</a>
</g>
</g>
<!-- Node7 -->
<g id="Node000007" class="node">
<title>Node7</title>
<g id="a_Node000007"><a xlink:title=" ">
<polygon fill="#e0e0e0" stroke="#999999" points="338.38,-76 263.12,-76 263.12,-56 338.38,-56 338.38,-76"/>
<text text-anchor="middle" x="300.75" y="-62.5" font-family="Helvetica,sans-Serif" font-size="10.00">SDL_image.h</text>
</a>
</g>
</g>
<!-- Node2&#45;&gt;Node7 -->
<g id="edge6_Node000002_Node000007" class="edge">
<title>Node2&#45;&gt;Node7</title>
<g id="a_edge6_Node000002_Node000007"><a xlink:title=" ">
<path fill="none" stroke="#63b8ff" d="M300.75,-111.59C300.75,-105.01 300.75,-95.96 300.75,-87.73"/>
<polygon fill="#63b8ff" stroke="#63b8ff" points="304.25,-87.81 300.75,-77.81 297.25,-87.81 304.25,-87.81"/>
</a>
</g>
</g>
<!-- Node8 -->
<g id="Node000008" class="node">
<title>Node8</title>
<g id="a_Node000008"><a xlink:href="structs_8h.html" target="_top" xlink:title=" ">
<polygon fill="white" stroke="#666666" points="472.88,-76 418.62,-76 418.62,-56 472.88,-56 472.88,-76"/>
<text text-anchor="middle" x="445.75" y="-62.5" font-family="Helvetica,sans-Serif" font-size="10.00">structs.h</text>
</a>
</g>
</g>
<!-- Node2&#45;&gt;Node8 -->
<g id="edge7_Node000002_Node000008" class="edge">
<title>Node2&#45;&gt;Node8</title>
<g id="a_edge7_Node000002_Node000008"><a xlink:title=" ">
<path fill="none" stroke="#63b8ff" d="M323.73,-112.44C346.89,-103.82 382.97,-90.38 409.89,-80.35"/>
<polygon fill="#63b8ff" stroke="#63b8ff" points="410.88,-83.72 419.03,-76.95 408.43,-77.16 410.88,-83.72"/>
</a>
</g>
</g>
<!-- Node9 -->
<g id="Node000009" class="node">
<title>Node9</title>
<g id="a_Node000009"><a xlink:title=" ">
<polygon fill="#e0e0e0" stroke="#999999" points="529.75,-20 489.75,-20 489.75,0 529.75,0 529.75,-20"/>
<text text-anchor="middle" x="509.75" y="-6.5" font-family="Helvetica,sans-Serif" font-size="10.00">string</text>
</a>
</g>
</g>
<!-- Node8&#45;&gt;Node9 -->
<g id="edge8_Node000008_Node000009" class="edge">
<title>Node8&#45;&gt;Node9</title>
<g id="a_edge8_Node000008_Node000009"><a xlink:title=" ">
<path fill="none" stroke="#63b8ff" d="M456.9,-55.59C466.08,-47.85 479.3,-36.69 490.23,-27.47"/>
<polygon fill="#63b8ff" stroke="#63b8ff" points="492.19,-30.4 497.57,-21.27 487.67,-25.05 492.19,-30.4"/>
</a>
</g>
</g>
<!-- Node10 -->
<g id="Node000010" class="node">
<title>Node10</title>
<g id="a_Node000010"><a xlink:href="_vector2f_8h.html" target="_top" xlink:title=" ">
<polygon fill="white" stroke="#666666" points="471.88,-20 411.62,-20 411.62,0 471.88,0 471.88,-20"/>
<text text-anchor="middle" x="441.75" y="-6.5" font-family="Helvetica,sans-Serif" font-size="10.00">Vector2f.h</text>
</a>
</g>
</g>
<!-- Node8&#45;&gt;Node10 -->
<g id="edge9_Node000008_Node000010" class="edge">
<title>Node8&#45;&gt;Node10</title>
<g id="a_edge9_Node000008_Node000010"><a xlink:title=" ">
<path fill="none" stroke="#63b8ff" d="M439.79,-55.59C437.98,-49.01 436.87,-39.96 436.7,-31.73"/>
<polygon fill="#63b8ff" stroke="#63b8ff" points="440.19,-31.95 437.13,-21.81 433.2,-31.65 440.19,-31.95"/>
</a>
</g>
</g>
<!-- Node10&#45;&gt;Node8 -->
<g id="edge10_Node000010_Node000008" class="edge">
<title>Node10&#45;&gt;Node8</title>
<g id="a_edge10_Node000010_Node000008"><a xlink:title=" ">
<path fill="none" stroke="#63b8ff" d="M447.68,-20.3C449.5,-26.85 450.62,-35.9 450.8,-44.13"/>
<polygon fill="#63b8ff" stroke="#63b8ff" points="447.3,-43.94 450.38,-54.08 454.3,-44.24 447.3,-43.94"/>
</a>
</g>
</g>
<!-- Node12&#45;&gt;Node9 -->
<g id="edge13_Node000012_Node000009" class="edge">
<title>Node12&#45;&gt;Node9</title>
<g id="a_edge13_Node000012_Node000009"><a xlink:title=" ">
<path fill="none" stroke="#63b8ff" d="M495.11,-111.62C497.68,-94.01 503.26,-55.59 506.75,-31.65"/>
<polygon fill="#63b8ff" stroke="#63b8ff" points="510.2,-32.25 508.17,-21.85 503.27,-31.24 510.2,-32.25"/>
</a>
</g>
</g>
</g>
</svg>
