<?xml version="1.0" encoding="UTF-8" standalone="no"?>
<!DOCTYPE svg PUBLIC "-//W3C//DTD SVG 1.1//EN"
 "http://www.w3.org/Graphics/SVG/1.1/DTD/svg11.dtd">
<!-- Generated by graphviz version 12.2.1 (20241206.2353)
 -->
<!-- Title: Engine/SoundEffect.cpp Pages: 1 -->
<svg width="581pt" height="196pt"
 viewBox="0.00 0.00 580.50 196.00" xmlns="http://www.w3.org/2000/svg" xmlns:xlink="http://www.w3.org/1999/xlink">
<g id="graph0" class="graph" transform="scale(1 1) rotate(0) translate(4 192)">
<title>Engine/SoundEffect.cpp</title>
<!-- Node1 -->
<g id="Node000001" class="node">
<title>Node1</title>
<g id="a_Node000001"><a xlink:title=" ">
<polygon fill="#999999" stroke="#666666" points="444.5,-188 323.5,-188 323.5,-168 444.5,-168 444.5,-188"/>
<text text-anchor="middle" x="384" y="-174.5" font-family="Helvetica,sans-Serif" font-size="10.00">Engine/SoundEffect.cpp</text>
</a>
</g>
</g>
<!-- Node2 -->
<g id="Node000002" class="node">
<title>Node2</title>
<g id="a_Node000002"><a xlink:href="base_8h.html" target="_top" xlink:title=" ">
<polygon fill="white" stroke="#666666" points="305.62,-132 260.38,-132 260.38,-112 305.62,-112 305.62,-132"/>
<text text-anchor="middle" x="283" y="-118.5" font-family="Helvetica,sans-Serif" font-size="10.00">base.h</text>
</a>
</g>
</g>
<!-- Node1&#45;&gt;Node2 -->
<g id="edge1_Node000001_Node000002" class="edge">
<title>Node1&#45;&gt;Node2</title>
<g id="a_edge1_Node000001_Node000002"><a xlink:title=" ">
<path fill="none" stroke="#63b8ff" d="M366.41,-167.59C351.08,-159.4 328.58,-147.37 310.81,-137.87"/>
<polygon fill="#63b8ff" stroke="#63b8ff" points="312.53,-134.82 302.06,-133.19 309.23,-140.99 312.53,-134.82"/>
</a>
</g>
</g>
<!-- Node11 -->
<g id="Node000011" class="node">
<title>Node11</title>
<g id="a_Node000011"><a xlink:title=" ">
<polygon fill="#e0e0e0" stroke="#999999" points="410.75,-132 357.25,-132 357.25,-112 410.75,-112 410.75,-132"/>
<text text-anchor="middle" x="384" y="-118.5" font-family="Helvetica,sans-Serif" font-size="10.00">iostream</text>
</a>
</g>
</g>
<!-- Node1&#45;&gt;Node11 -->
<g id="edge11_Node000001_Node000011" class="edge">
<title>Node1&#45;&gt;Node11</title>
<g id="a_edge11_Node000001_Node000011"><a xlink:title=" ">
<path fill="none" stroke="#63b8ff" d="M384,-167.59C384,-161.01 384,-151.96 384,-143.73"/>
<polygon fill="#63b8ff" stroke="#63b8ff" points="387.5,-143.81 384,-133.81 380.5,-143.81 387.5,-143.81"/>
</a>
</g>
</g>
<!-- Node12 -->
<g id="Node000012" class="node">
<title>Node12</title>
<g id="a_Node000012"><a xlink:href="_sound_effect_8h.html" target="_top" xlink:title=" ">
<polygon fill="white" stroke="#666666" points="539.75,-132 462.25,-132 462.25,-112 539.75,-112 539.75,-132"/>
<text text-anchor="middle" x="501" y="-118.5" font-family="Helvetica,sans-Serif" font-size="10.00">SoundEffect.h</text>
</a>
</g>
</g>
<!-- Node1&#45;&gt;Node12 -->
<g id="edge12_Node000001_Node000012" class="edge">
<title>Node1&#45;&gt;Node12</title>
<g id="a_edge12_Node000001_Node000012"><a xlink:title=" ">
<path fill="none" stroke="#63b8ff" d="M404.38,-167.59C422.56,-159.21 449.43,-146.8 470.22,-137.21"/>
<polygon fill="#63b8ff" stroke="#63b8ff" points="471.47,-140.48 479.09,-133.11 468.54,-134.13 471.47,-140.48"/>
</a>
</g>
</g>
<!-- Node3 -->
<g id="Node000003" class="node">
<title>Node3</title>
<g id="a_Node000003"><a xlink:title=" ">
<polygon fill="#e0e0e0" stroke="#999999" points="304.88,-76 261.12,-76 261.12,-56 304.88,-56 304.88,-76"/>
<text text-anchor="middle" x="283" y="-62.5" font-family="Helvetica,sans-Serif" font-size="10.00">SDL.h</text>
</a>
</g>
</g>
<!-- Node2&#45;&gt;Node3 -->
<g id="edge2_Node000002_Node000003" class="edge">
<title>Node2&#45;&gt;Node3</title>
<g id="a_edge2_Node000002_Node000003"><a xlink:title=" ">
<path fill="none" stroke="#63b8ff" d="M283,-111.59C283,-105.01 283,-95.96 283,-87.73"/>
<polygon fill="#63b8ff" stroke="#63b8ff" points="286.5,-87.81 283,-77.81 279.5,-87.81 286.5,-87.81"/>
</a>
</g>
</g>
<!-- Node4 -->
<g id="Node000004" class="node">
<title>Node4</title>
<g id="a_Node000004"><a xlink:title=" ">
<polygon fill="#e0e0e0" stroke="#999999" points="472.75,-76 395.25,-76 395.25,-56 472.75,-56 472.75,-76"/>
<text text-anchor="middle" x="434" y="-62.5" font-family="Helvetica,sans-Serif" font-size="10.00">SDL_opengl.h</text>
</a>
</g>
</g>
<!-- Node2&#45;&gt;Node4 -->
<g id="edge3_Node000002_Node000004" class="edge">
<title>Node2&#45;&gt;Node4</title>
<g id="a_edge3_Node000002_Node000004"><a xlink:title=" ">
<path fill="none" stroke="#63b8ff" d="M305.93,-112.8C330.04,-104.18 368.35,-90.48 396.79,-80.31"/>
<polygon fill="#63b8ff" stroke="#63b8ff" points="397.88,-83.64 406.11,-76.97 395.52,-77.04 397.88,-83.64"/>
</a>
</g>
</g>
<!-- Node5 -->
<g id="Node000005" class="node">
<title>Node5</title>
<g id="a_Node000005"><a xlink:title=" ">
<polygon fill="#e0e0e0" stroke="#999999" points="58,-76 0,-76 0,-56 58,-56 58,-76"/>
<text text-anchor="middle" x="29" y="-62.5" font-family="Helvetica,sans-Serif" font-size="10.00">SDL_ttf.h</text>
</a>
</g>
</g>
<!-- Node2&#45;&gt;Node5 -->
<g id="edge4_Node000002_Node000005" class="edge">
<title>Node2&#45;&gt;Node5</title>
<g id="a_edge4_Node000002_Node000005"><a xlink:title=" ">
<path fill="none" stroke="#63b8ff" d="M259.94,-116.41C222.24,-108.86 144.82,-93.17 69.53,-76.52"/>
<polygon fill="#63b8ff" stroke="#63b8ff" points="70.44,-73.14 59.92,-74.38 68.92,-79.97 70.44,-73.14"/>
</a>
</g>
</g>
<!-- Node6 -->
<g id="Node000006" class="node">
<title>Node6</title>
<g id="a_Node000006"><a xlink:title=" ">
<polygon fill="#e0e0e0" stroke="#999999" points="149.5,-76 76.5,-76 76.5,-56 149.5,-56 149.5,-76"/>
<text text-anchor="middle" x="113" y="-62.5" font-family="Helvetica,sans-Serif" font-size="10.00">SDL_mixer.h</text>
</a>
</g>
</g>
<!-- Node2&#45;&gt;Node6 -->
<g id="edge5_Node000002_Node000006" class="edge">
<title>Node2&#45;&gt;Node6</title>
<g id="a_edge5_Node000002_Node000006"><a xlink:title=" ">
<path fill="none" stroke="#63b8ff" d="M260.07,-113.72C232.8,-105.05 186.77,-90.43 153.46,-79.85"/>
<polygon fill="#63b8ff" stroke="#63b8ff" points="154.73,-76.58 144.13,-76.89 152.61,-83.25 154.73,-76.58"/>
</a>
</g>
</g>
<!-- Node7 -->
<g id="Node000007" class="node">
<title>Node7</title>
<g id="a_Node000007"><a xlink:title=" ">
<polygon fill="#e0e0e0" stroke="#999999" points="242.62,-76 167.38,-76 167.38,-56 242.62,-56 242.62,-76"/>
<text text-anchor="middle" x="205" y="-62.5" font-family="Helvetica,sans-Serif" font-size="10.00">SDL_image.h</text>
</a>
</g>
</g>
<!-- Node2&#45;&gt;Node7 -->
<g id="edge6_Node000002_Node000007" class="edge">
<title>Node2&#45;&gt;Node7</title>
<g id="a_edge6_Node000002_Node000007"><a xlink:title=" ">
<path fill="none" stroke="#63b8ff" d="M269.41,-111.59C257.96,-103.67 241.34,-92.16 227.84,-82.82"/>
<polygon fill="#63b8ff" stroke="#63b8ff" points="230.15,-80.16 219.94,-77.34 226.17,-85.91 230.15,-80.16"/>
</a>
</g>
</g>
<!-- Node8 -->
<g id="Node000008" class="node">
<title>Node8</title>
<g id="a_Node000008"><a xlink:href="structs_8h.html" target="_top" xlink:title=" ">
<polygon fill="white" stroke="#666666" points="377.12,-76 322.88,-76 322.88,-56 377.12,-56 377.12,-76"/>
<text text-anchor="middle" x="350" y="-62.5" font-family="Helvetica,sans-Serif" font-size="10.00">structs.h</text>
</a>
</g>
</g>
<!-- Node2&#45;&gt;Node8 -->
<g id="edge7_Node000002_Node000008" class="edge">
<title>Node2&#45;&gt;Node8</title>
<g id="a_edge7_Node000002_Node000008"><a xlink:title=" ">
<path fill="none" stroke="#63b8ff" d="M294.67,-111.59C304.28,-103.85 318.13,-92.69 329.57,-83.47"/>
<polygon fill="#63b8ff" stroke="#63b8ff" points="331.7,-86.25 337.28,-77.25 327.3,-80.8 331.7,-86.25"/>
</a>
</g>
</g>
<!-- Node9 -->
<g id="Node000009" class="node">
<title>Node9</title>
<g id="a_Node000009"><a xlink:title=" ">
<polygon fill="#e0e0e0" stroke="#999999" points="479,-20 439,-20 439,0 479,0 479,-20"/>
<text text-anchor="middle" x="459" y="-6.5" font-family="Helvetica,sans-Serif" font-size="10.00">string</text>
</a>
</g>
</g>
<!-- Node8&#45;&gt;Node9 -->
<g id="edge8_Node000008_Node000009" class="edge">
<title>Node8&#45;&gt;Node9</title>
<g id="a_edge8_Node000008_Node000009"><a xlink:title=" ">
<path fill="none" stroke="#63b8ff" d="M368.99,-55.59C385.76,-47.28 410.49,-35.03 429.79,-25.47"/>
<polygon fill="#63b8ff" stroke="#63b8ff" points="431.1,-28.73 438.51,-21.15 427.99,-22.45 431.1,-28.73"/>
</a>
</g>
</g>
<!-- Node10 -->
<g id="Node000010" class="node">
<title>Node10</title>
<g id="a_Node000010"><a xlink:href="_vector2f_8h.html" target="_top" xlink:title=" ">
<polygon fill="white" stroke="#666666" points="380.12,-20 319.88,-20 319.88,0 380.12,0 380.12,-20"/>
<text text-anchor="middle" x="350" y="-6.5" font-family="Helvetica,sans-Serif" font-size="10.00">Vector2f.h</text>
</a>
</g>
</g>
<!-- Node8&#45;&gt;Node10 -->
<g id="edge9_Node000008_Node000010" class="edge">
<title>Node8&#45;&gt;Node10</title>
<g id="a_edge9_Node000008_Node000010"><a xlink:title=" ">
<path fill="none" stroke="#63b8ff" d="M344.73,-55.59C343.42,-49.01 342.98,-39.96 343.41,-31.73"/>
<polygon fill="#63b8ff" stroke="#63b8ff" points="346.89,-32.14 344.58,-21.8 339.94,-31.33 346.89,-32.14"/>
</a>
</g>
</g>
<!-- Node10&#45;&gt;Node8 -->
<g id="edge10_Node000010_Node000008" class="edge">
<title>Node10&#45;&gt;Node8</title>
<g id="a_edge10_Node000010_Node000008"><a xlink:title=" ">
<path fill="none" stroke="#63b8ff" d="M355.25,-20.3C356.59,-26.93 357.03,-36.11 356.58,-44.43"/>
<polygon fill="#63b8ff" stroke="#63b8ff" points="353.13,-43.75 355.44,-54.09 360.08,-44.57 353.13,-43.75"/>
</a>
</g>
</g>
<!-- Node12&#45;&gt;Node9 -->
<g id="edge13_Node000012_Node000009" class="edge">
<title>Node12&#45;&gt;Node9</title>
<g id="a_edge13_Node000012_Node000009"><a xlink:title=" ">
<path fill="none" stroke="#63b8ff" d="M498.83,-111.56C495.76,-98.74 489.65,-75.23 482,-56 478.56,-47.36 474.03,-38.15 469.89,-30.34"/>
<polygon fill="#63b8ff" stroke="#63b8ff" points="473.06,-28.84 465.2,-21.74 466.92,-32.19 473.06,-28.84"/>
</a>
</g>
</g>
<!-- Node13 -->
<g id="Node000013" class="node">
<title>Node13</title>
<g id="a_Node000013"><a xlink:title=" ">
<polygon fill="#e0e0e0" stroke="#999999" points="572.5,-76 529.5,-76 529.5,-56 572.5,-56 572.5,-76"/>
<text text-anchor="middle" x="551" y="-62.5" font-family="Helvetica,sans-Serif" font-size="10.00">vector</text>
</a>
</g>
</g>
<!-- Node12&#45;&gt;Node13 -->
<g id="edge14_Node000012_Node000013" class="edge">
<title>Node12&#45;&gt;Node13</title>
<g id="a_edge14_Node000012_Node000013"><a xlink:title=" ">
<path fill="none" stroke="#63b8ff" d="M509.71,-111.59C516.59,-104.16 526.39,-93.58 534.72,-84.58"/>
<polygon fill="#63b8ff" stroke="#63b8ff" points="537.14,-87.12 541.36,-77.41 532,-82.37 537.14,-87.12"/>
</a>
</g>
</g>
</g>
</svg>
