<?xml version="1.0" encoding="UTF-8" standalone="no"?>
<!DOCTYPE svg PUBLIC "-//W3C//DTD SVG 1.1//EN"
 "http://www.w3.org/Graphics/SVG/1.1/DTD/svg11.dtd">
<!-- Generated by graphviz version 12.2.1 (20241206.2353)
 -->
<!-- Title: Engine/SoundEffect.h Pages: 1 -->
<svg width="119pt" height="84pt"
 viewBox="0.00 0.00 118.50 84.00" xmlns="http://www.w3.org/2000/svg" xmlns:xlink="http://www.w3.org/1999/xlink">
<g id="graph0" class="graph" transform="scale(1 1) rotate(0) translate(4 80)">
<title>Engine/SoundEffect.h</title>
<!-- Node1 -->
<g id="Node000001" class="node">
<title>Node1</title>
<g id="a_Node000001"><a xlink:title=" ">
<polygon fill="#999999" stroke="#666666" points="110.5,-76 0,-76 0,-56 110.5,-56 110.5,-76"/>
<text text-anchor="middle" x="55.25" y="-62.5" font-family="Helvetica,sans-Serif" font-size="10.00">Engine/SoundEffect.h</text>
</a>
</g>
</g>
<!-- Node2 -->
<g id="Node000002" class="node">
<title>Node2</title>
<g id="a_Node000002"><a xlink:title=" ">
<polygon fill="#e0e0e0" stroke="#999999" points="45.25,-20 5.25,-20 5.25,0 45.25,0 45.25,-20"/>
<text text-anchor="middle" x="25.25" y="-6.5" font-family="Helvetica,sans-Serif" font-size="10.00">string</text>
</a>
</g>
</g>
<!-- Node1&#45;&gt;Node2 -->
<g id="edge1_Node000001_Node000002" class="edge">
<title>Node1&#45;&gt;Node2</title>
<g id="a_edge1_Node000001_Node000002"><a xlink:title=" ">
<path fill="none" stroke="#63b8ff" d="M50.02,-55.59C46.15,-48.63 40.74,-38.89 35.97,-30.29"/>
<polygon fill="#63b8ff" stroke="#63b8ff" points="39.07,-28.66 31.15,-21.62 32.95,-32.06 39.07,-28.66"/>
</a>
</g>
</g>
<!-- Node3 -->
<g id="Node000003" class="node">
<title>Node3</title>
<g id="a_Node000003"><a xlink:title=" ">
<polygon fill="#e0e0e0" stroke="#999999" points="106.75,-20 63.75,-20 63.75,0 106.75,0 106.75,-20"/>
<text text-anchor="middle" x="85.25" y="-6.5" font-family="Helvetica,sans-Serif" font-size="10.00">vector</text>
</a>
</g>
</g>
<!-- Node1&#45;&gt;Node3 -->
<g id="edge2_Node000001_Node000003" class="edge">
<title>Node1&#45;&gt;Node3</title>
<g id="a_edge2_Node000001_Node000003"><a xlink:title=" ">
<path fill="none" stroke="#63b8ff" d="M60.48,-55.59C64.35,-48.63 69.76,-38.89 74.53,-30.29"/>
<polygon fill="#63b8ff" stroke="#63b8ff" points="77.55,-32.06 79.35,-21.62 71.43,-28.66 77.55,-32.06"/>
</a>
</g>
</g>
</g>
</svg>
