<?xml version="1.0" encoding="UTF-8" standalone="no"?>
<!DOCTYPE svg PUBLIC "-//W3C//DTD SVG 1.1//EN"
 "http://www.w3.org/Graphics/SVG/1.1/DTD/svg11.dtd">
<!-- Generated by graphviz version 12.2.1 (20241206.2353)
 -->
<!-- Title: Engine/SoundEffect.h Pages: 1 -->
<svg width="1896pt" height="588pt"
 viewBox="0.00 0.00 1895.50 588.00" xmlns="http://www.w3.org/2000/svg" xmlns:xlink="http://www.w3.org/1999/xlink">
<g id="graph0" class="graph" transform="scale(1 1) rotate(0) translate(4 584)">
<title>Engine/SoundEffect.h</title>
<!-- Node1 -->
<g id="Node000001" class="node">
<title>Node1</title>
<g id="a_Node000001"><a xlink:title=" ">
<polygon fill="#999999" stroke="#666666" points="1496.25,-580 1385.75,-580 1385.75,-560 1496.25,-560 1496.25,-580"/>
<text text-anchor="middle" x="1441" y="-566.5" font-family="Helvetica,sans-Serif" font-size="10.00">Engine/SoundEffect.h</text>
</a>
</g>
</g>
<!-- Node2 -->
<g id="Node000002" class="node">
<title>Node2</title>
<g id="a_Node000002"><a xlink:href="_character_sound_manager_8h.html" target="_top" xlink:title=" ">
<polygon fill="white" stroke="#666666" points="1204.5,-524 1035.5,-524 1035.5,-504 1204.5,-504 1204.5,-524"/>
<text text-anchor="middle" x="1120" y="-510.5" font-family="Helvetica,sans-Serif" font-size="10.00">Celeste/CharacterSoundManager.h</text>
</a>
</g>
</g>
<!-- Node1&#45;&gt;Node2 -->
<g id="edge1_Node000001_Node000002" class="edge">
<title>Node1&#45;&gt;Node2</title>
<g id="a_edge1_Node000001_Node000002"><a xlink:title=" ">
<path fill="none" stroke="#63b8ff" d="M1374.46,-557.81C1315.87,-547.95 1231.49,-533.76 1176.21,-524.46"/>
<polygon fill="#63b8ff" stroke="#63b8ff" points="1373.52,-561.2 1383.96,-559.4 1374.68,-554.29 1373.52,-561.2"/>
</a>
</g>
</g>
<!-- Node14 -->
<g id="Node000014" class="node">
<title>Node14</title>
<g id="a_Node000014"><a xlink:href="_pause_menu_8cpp.html" target="_top" xlink:title=" ">
<polygon fill="white" stroke="#666666" points="1366.62,-132 1243.38,-132 1243.38,-112 1366.62,-112 1366.62,-132"/>
<text text-anchor="middle" x="1305" y="-118.5" font-family="Helvetica,sans-Serif" font-size="10.00">Celeste/PauseMenu.cpp</text>
</a>
</g>
</g>
<!-- Node1&#45;&gt;Node14 -->
<g id="edge49_Node000001_Node000014" class="edge">
<title>Node1&#45;&gt;Node14</title>
<g id="a_edge49_Node000001_Node000014"><a xlink:title=" ">
<path fill="none" stroke="#63b8ff" d="M1507.7,-558.07C1595.26,-541.8 1738,-507.79 1738,-459 1738,-459 1738,-459 1738,-289 1738,-209.3 1478.98,-153.58 1361.61,-132.43"/>
<polygon fill="#63b8ff" stroke="#63b8ff" points="1507.21,-554.6 1498,-559.84 1508.47,-561.49 1507.21,-554.6"/>
</a>
</g>
</g>
<!-- Node18 -->
<g id="Node000018" class="node">
<title>Node18</title>
<g id="a_Node000018"><a xlink:href="_crumble_block_8cpp.html" target="_top" xlink:title=" ">
<polygon fill="white" stroke="#666666" points="199.5,-300 66.5,-300 66.5,-280 199.5,-280 199.5,-300"/>
<text text-anchor="middle" x="133" y="-286.5" font-family="Helvetica,sans-Serif" font-size="10.00">Celeste/CrumbleBlock.cpp</text>
</a>
</g>
</g>
<!-- Node1&#45;&gt;Node18 -->
<g id="edge46_Node000001_Node000018" class="edge">
<title>Node1&#45;&gt;Node18</title>
<g id="a_edge46_Node000001_Node000018"><a xlink:title=" ">
<path fill="none" stroke="#63b8ff" d="M1374.44,-567.31C1095.87,-559.82 38,-526.89 38,-459 38,-459 38,-459 38,-401 38,-353.81 88.69,-316.87 116.02,-300.38"/>
<polygon fill="#63b8ff" stroke="#63b8ff" points="1373.97,-570.8 1384.06,-567.57 1374.15,-563.8 1373.97,-570.8"/>
</a>
</g>
</g>
<!-- Node20 -->
<g id="Node000020" class="node">
<title>Node20</title>
<g id="a_Node000020"><a xlink:href="_dash_crystal_8cpp.html" target="_top" xlink:title=" ">
<polygon fill="white" stroke="#666666" points="1496.12,-300 1369.88,-300 1369.88,-280 1496.12,-280 1496.12,-300"/>
<text text-anchor="middle" x="1433" y="-286.5" font-family="Helvetica,sans-Serif" font-size="10.00">Celeste/DashCrystal.cpp</text>
</a>
</g>
</g>
<!-- Node1&#45;&gt;Node20 -->
<g id="edge47_Node000001_Node000020" class="edge">
<title>Node1&#45;&gt;Node20</title>
<g id="a_edge47_Node000001_Node000020"><a xlink:title=" ">
<path fill="none" stroke="#63b8ff" d="M1441,-548.32C1441,-526.22 1441,-490.13 1441,-459 1441,-459 1441,-459 1441,-401 1441,-363.66 1436.36,-319.38 1434.15,-300.4"/>
<polygon fill="#63b8ff" stroke="#63b8ff" points="1437.5,-548.07 1441,-558.07 1444.5,-548.07 1437.5,-548.07"/>
</a>
</g>
</g>
<!-- Node30 -->
<g id="Node000030" class="node">
<title>Node30</title>
<g id="a_Node000030"><a xlink:href="_flying_strawberry_8cpp.html" target="_top" xlink:title=" ">
<polygon fill="white" stroke="#666666" points="400.12,-244 255.88,-244 255.88,-224 400.12,-224 400.12,-244"/>
<text text-anchor="middle" x="328" y="-230.5" font-family="Helvetica,sans-Serif" font-size="10.00">Celeste/FlyingStrawberry.cpp</text>
</a>
</g>
</g>
<!-- Node1&#45;&gt;Node30 -->
<g id="edge48_Node000001_Node000030" class="edge">
<title>Node1&#45;&gt;Node30</title>
<g id="a_edge48_Node000001_Node000030"><a xlink:title=" ">
<path fill="none" stroke="#63b8ff" d="M1373.8,-568.9C1150.56,-568.2 434.99,-562.89 208,-524 112.54,-507.64 0,-555.85 0,-459 0,-459 0,-459 0,-345 0,-306.58 23.42,-298.68 57,-280 90.24,-261.51 187.26,-248.59 255.68,-241.48"/>
<polygon fill="#63b8ff" stroke="#63b8ff" points="1373.78,-572.4 1383.79,-568.93 1373.8,-565.4 1373.78,-572.4"/>
</a>
</g>
</g>
<!-- Node33 -->
<g id="Node000033" class="node">
<title>Node33</title>
<g id="a_Node000033"><a xlink:href="_trampoline_8cpp.html" target="_top" xlink:title=" ">
<polygon fill="white" stroke="#666666" points="1671.75,-300 1552.25,-300 1552.25,-280 1671.75,-280 1671.75,-300"/>
<text text-anchor="middle" x="1612" y="-286.5" font-family="Helvetica,sans-Serif" font-size="10.00">Celeste/Trampoline.cpp</text>
</a>
</g>
</g>
<!-- Node1&#45;&gt;Node33 -->
<g id="edge50_Node000001_Node000033" class="edge">
<title>Node1&#45;&gt;Node33</title>
<g id="a_edge50_Node000001_Node000033"><a xlink:title=" ">
<path fill="none" stroke="#63b8ff" d="M1507.99,-560.89C1567.46,-549.52 1645,-522.51 1645,-459 1645,-459 1645,-459 1645,-401 1645,-362.32 1626.05,-319.09 1616.87,-300.42"/>
<polygon fill="#63b8ff" stroke="#63b8ff" points="1507.46,-557.43 1498.23,-562.64 1508.69,-564.32 1507.46,-557.43"/>
</a>
</g>
</g>
<!-- Node35 -->
<g id="Node000035" class="node">
<title>Node35</title>
<g id="a_Node000035"><a xlink:href="_sound_effect_8cpp.html" target="_top" xlink:title=" ">
<polygon fill="white" stroke="#666666" points="1887.5,-524 1766.5,-524 1766.5,-504 1887.5,-504 1887.5,-524"/>
<text text-anchor="middle" x="1827" y="-510.5" font-family="Helvetica,sans-Serif" font-size="10.00">Engine/SoundEffect.cpp</text>
</a>
</g>
</g>
<!-- Node1&#45;&gt;Node35 -->
<g id="edge51_Node000001_Node000035" class="edge">
<title>Node1&#45;&gt;Node35</title>
<g id="a_edge51_Node000001_Node000035"><a xlink:title=" ">
<path fill="none" stroke="#63b8ff" d="M1508.02,-559.62C1580.78,-549.45 1695.98,-533.33 1766.21,-523.5"/>
<polygon fill="#63b8ff" stroke="#63b8ff" points="1507.63,-556.14 1498.21,-561 1508.6,-563.08 1507.63,-556.14"/>
</a>
</g>
</g>
<!-- Node3 -->
<g id="Node000003" class="node">
<title>Node3</title>
<g id="a_Node000003"><a xlink:href="_character_8h.html" target="_top" xlink:title=" ">
<polygon fill="white" stroke="#666666" points="1171.88,-468 1068.12,-468 1068.12,-448 1171.88,-448 1171.88,-468"/>
<text text-anchor="middle" x="1120" y="-454.5" font-family="Helvetica,sans-Serif" font-size="10.00">Celeste/Character.h</text>
</a>
</g>
</g>
<!-- Node2&#45;&gt;Node3 -->
<g id="edge2_Node000002_Node000003" class="edge">
<title>Node2&#45;&gt;Node3</title>
<g id="a_edge2_Node000002_Node000003"><a xlink:title=" ">
<path fill="none" stroke="#63b8ff" d="M1120,-492.13C1120,-483.9 1120,-474.85 1120,-468.3"/>
<polygon fill="#63b8ff" stroke="#63b8ff" points="1116.5,-492.08 1120,-502.08 1123.5,-492.08 1116.5,-492.08"/>
</a>
</g>
</g>
<!-- Node34 -->
<g id="Node000034" class="node">
<title>Node34</title>
<g id="a_Node000034"><a xlink:href="_character_sound_manager_8cpp.html" target="_top" xlink:title=" ">
<polygon fill="white" stroke="#666666" points="1049.75,-468 870.25,-468 870.25,-448 1049.75,-448 1049.75,-468"/>
<text text-anchor="middle" x="960" y="-454.5" font-family="Helvetica,sans-Serif" font-size="10.00">Celeste/CharacterSoundManager.cpp</text>
</a>
</g>
</g>
<!-- Node2&#45;&gt;Node34 -->
<g id="edge45_Node000002_Node000034" class="edge">
<title>Node2&#45;&gt;Node34</title>
<g id="a_edge45_Node000002_Node000034"><a xlink:title=" ">
<path fill="none" stroke="#63b8ff" d="M1081.25,-499.92C1052.48,-490.21 1013.93,-477.2 988.09,-468.48"/>
<polygon fill="#63b8ff" stroke="#63b8ff" points="1080.1,-503.23 1090.7,-503.11 1082.34,-496.6 1080.1,-503.23"/>
</a>
</g>
</g>
<!-- Node4 -->
<g id="Node000004" class="node">
<title>Node4</title>
<g id="a_Node000004"><a xlink:href="_character_8cpp.html" target="_top" xlink:title=" ">
<polygon fill="white" stroke="#666666" points="1177.12,-412 1062.88,-412 1062.88,-392 1177.12,-392 1177.12,-412"/>
<text text-anchor="middle" x="1120" y="-398.5" font-family="Helvetica,sans-Serif" font-size="10.00">Celeste/Character.cpp</text>
</a>
</g>
</g>
<!-- Node3&#45;&gt;Node4 -->
<g id="edge3_Node000003_Node000004" class="edge">
<title>Node3&#45;&gt;Node4</title>
<g id="a_edge3_Node000003_Node000004"><a xlink:title=" ">
<path fill="none" stroke="#63b8ff" d="M1120,-436.13C1120,-427.9 1120,-418.85 1120,-412.3"/>
<polygon fill="#63b8ff" stroke="#63b8ff" points="1116.5,-436.08 1120,-446.08 1123.5,-436.08 1116.5,-436.08"/>
</a>
</g>
</g>
<!-- Node5 -->
<g id="Node000005" class="node">
<title>Node5</title>
<g id="a_Node000005"><a xlink:href="_game_8h.html" target="_top" xlink:title=" ">
<polygon fill="white" stroke="#666666" points="1365.62,-76 1278.38,-76 1278.38,-56 1365.62,-56 1365.62,-76"/>
<text text-anchor="middle" x="1322" y="-62.5" font-family="Helvetica,sans-Serif" font-size="10.00">Celeste/Game.h</text>
</a>
</g>
</g>
<!-- Node3&#45;&gt;Node5 -->
<g id="edge4_Node000003_Node000005" class="edge">
<title>Node3&#45;&gt;Node5</title>
<g id="a_edge4_Node000003_Node000005"><a xlink:title=" ">
<path fill="none" stroke="#63b8ff" d="M1183.5,-450.02C1275.34,-438.45 1449.42,-410.91 1588,-356 1656.13,-329 1700,-308.28 1700,-235 1700,-235 1700,-235 1700,-177 1700,-108.14 1465.81,-79.53 1366.1,-70.47"/>
<polygon fill="#63b8ff" stroke="#63b8ff" points="1183.17,-446.54 1173.68,-451.24 1184.03,-453.49 1183.17,-446.54"/>
</a>
</g>
</g>
<!-- Node8 -->
<g id="Node000008" class="node">
<title>Node8</title>
<g id="a_Node000008"><a xlink:href="_interactable_item_8h.html" target="_top" xlink:title=" ">
<polygon fill="white" stroke="#666666" points="881.75,-412 750.25,-412 750.25,-392 881.75,-392 881.75,-412"/>
<text text-anchor="middle" x="816" y="-398.5" font-family="Helvetica,sans-Serif" font-size="10.00">Celeste/InteractableItem.h</text>
</a>
</g>
</g>
<!-- Node3&#45;&gt;Node8 -->
<g id="edge7_Node000003_Node000008" class="edge">
<title>Node3&#45;&gt;Node8</title>
<g id="a_edge7_Node000003_Node000008"><a xlink:title=" ">
<path fill="none" stroke="#63b8ff" d="M1056.65,-445.75C1001.21,-435.9 921.61,-421.76 869.36,-412.48"/>
<polygon fill="#63b8ff" stroke="#63b8ff" points="1055.79,-449.15 1066.25,-447.45 1057.02,-442.26 1055.79,-449.15"/>
</a>
</g>
</g>
<!-- Node12 -->
<g id="Node000012" class="node">
<title>Node12</title>
<g id="a_Node000012"><a xlink:href="_level_manager_8h.html" target="_top" xlink:title=" ">
<polygon fill="white" stroke="#666666" points="785.88,-132 664.12,-132 664.12,-112 785.88,-112 785.88,-132"/>
<text text-anchor="middle" x="725" y="-118.5" font-family="Helvetica,sans-Serif" font-size="10.00">Celeste/LevelManager.h</text>
</a>
</g>
</g>
<!-- Node3&#45;&gt;Node12 -->
<g id="edge44_Node000003_Node000012" class="edge">
<title>Node3&#45;&gt;Node12</title>
<g id="a_edge44_Node000003_Node000012"><a xlink:title=" ">
<path fill="none" stroke="#63b8ff" d="M1056.37,-447.71C683.11,-400.82 579.82,-438.76 216,-356 142.94,-339.38 100.29,-361.15 57,-300 -16.18,-196.64 485.68,-143.38 663.87,-127.88"/>
<polygon fill="#63b8ff" stroke="#63b8ff" points="1055.91,-451.18 1066.27,-448.97 1056.79,-444.24 1055.91,-451.18"/>
</a>
</g>
</g>
<!-- Node6 -->
<g id="Node000006" class="node">
<title>Node6</title>
<g id="a_Node000006"><a xlink:href="_game_8cpp.html" target="_top" xlink:title=" ">
<polygon fill="white" stroke="#666666" points="1313.88,-20 1216.12,-20 1216.12,0 1313.88,0 1313.88,-20"/>
<text text-anchor="middle" x="1265" y="-6.5" font-family="Helvetica,sans-Serif" font-size="10.00">Celeste/Game.cpp</text>
</a>
</g>
</g>
<!-- Node5&#45;&gt;Node6 -->
<g id="edge5_Node000005_Node000006" class="edge">
<title>Node5&#45;&gt;Node6</title>
<g id="a_edge5_Node000005_Node000006"><a xlink:title=" ">
<path fill="none" stroke="#63b8ff" d="M1303.89,-47.85C1294.26,-38.72 1282.79,-27.86 1274.81,-20.3"/>
<polygon fill="#63b8ff" stroke="#63b8ff" points="1301.31,-50.22 1310.97,-54.55 1306.12,-45.13 1301.31,-50.22"/>
</a>
</g>
</g>
<!-- Node7 -->
<g id="Node000007" class="node">
<title>Node7</title>
<g id="a_Node000007"><a xlink:href="main_8cpp.html" target="_top" xlink:title=" ">
<polygon fill="white" stroke="#666666" points="1424.25,-20 1331.75,-20 1331.75,0 1424.25,0 1424.25,-20"/>
<text text-anchor="middle" x="1378" y="-6.5" font-family="Helvetica,sans-Serif" font-size="10.00">Celeste/main.cpp</text>
</a>
</g>
</g>
<!-- Node5&#45;&gt;Node7 -->
<g id="edge6_Node000005_Node000007" class="edge">
<title>Node5&#45;&gt;Node7</title>
<g id="a_edge6_Node000005_Node000007"><a xlink:title=" ">
<path fill="none" stroke="#63b8ff" d="M1339.79,-47.85C1349.25,-38.72 1360.52,-27.86 1368.36,-20.3"/>
<polygon fill="#63b8ff" stroke="#63b8ff" points="1337.61,-45.08 1332.84,-54.54 1342.47,-50.12 1337.61,-45.08"/>
</a>
</g>
</g>
<!-- Node9 -->
<g id="Node000009" class="node">
<title>Node9</title>
<g id="a_Node000009"><a xlink:href="_chapter_info_8h.html" target="_top" xlink:title=" ">
<polygon fill="white" stroke="#666666" points="855,-244 743,-244 743,-224 855,-224 855,-244"/>
<text text-anchor="middle" x="799" y="-230.5" font-family="Helvetica,sans-Serif" font-size="10.00">Celeste/ChapterInfo.h</text>
</a>
</g>
</g>
<!-- Node8&#45;&gt;Node9 -->
<g id="edge8_Node000008_Node000009" class="edge">
<title>Node8&#45;&gt;Node9</title>
<g id="a_edge8_Node000008_Node000009"><a xlink:title=" ">
<path fill="none" stroke="#63b8ff" d="M806.75,-381.19C803.63,-373.5 800.55,-364.51 799,-356 791.49,-314.88 795.66,-264.57 797.88,-244.21"/>
<polygon fill="#63b8ff" stroke="#63b8ff" points="803.5,-382.49 810.71,-390.25 809.91,-379.68 803.5,-382.49"/>
</a>
</g>
</g>
<!-- Node10 -->
<g id="Node000010" class="node">
<title>Node10</title>
<g id="a_Node000010"><a xlink:href="_chapter_loader_8h.html" target="_top" xlink:title=" ">
<polygon fill="white" stroke="#666666" points="861.38,-188 736.62,-188 736.62,-168 861.38,-168 861.38,-188"/>
<text text-anchor="middle" x="799" y="-174.5" font-family="Helvetica,sans-Serif" font-size="10.00">Celeste/ChapterLoader.h</text>
</a>
</g>
</g>
<!-- Node8&#45;&gt;Node10 -->
<g id="edge15_Node000008_Node000010" class="edge">
<title>Node8&#45;&gt;Node10</title>
<g id="a_edge15_Node000008_Node000010"><a xlink:title=" ">
<path fill="none" stroke="#63b8ff" d="M738.58,-400.74C587.83,-399.43 266.65,-392.35 233,-356 220.2,-342.18 184.66,-283.71 247,-224 281.72,-190.74 599.1,-181.98 736.3,-179.74"/>
<polygon fill="#63b8ff" stroke="#63b8ff" points="738.47,-404.24 748.49,-400.82 738.52,-397.24 738.47,-404.24"/>
</a>
</g>
</g>
<!-- Node15 -->
<g id="Node000015" class="node">
<title>Node15</title>
<g id="a_Node000015"><a xlink:href="_cog_platform_8h.html" target="_top" xlink:title=" ">
<polygon fill="white" stroke="#666666" points="1027.88,-356 912.12,-356 912.12,-336 1027.88,-336 1027.88,-356"/>
<text text-anchor="middle" x="970" y="-342.5" font-family="Helvetica,sans-Serif" font-size="10.00">Celeste/CogPlatform.h</text>
</a>
</g>
</g>
<!-- Node8&#45;&gt;Node15 -->
<g id="edge16_Node000008_Node000015" class="edge">
<title>Node8&#45;&gt;Node15</title>
<g id="a_edge16_Node000008_Node000015"><a xlink:title=" ">
<path fill="none" stroke="#63b8ff" d="M853.67,-387.79C881.31,-378.1 918.21,-365.16 942.97,-356.48"/>
<polygon fill="#63b8ff" stroke="#63b8ff" points="852.53,-384.48 844.25,-391.09 854.85,-391.09 852.53,-384.48"/>
</a>
</g>
</g>
<!-- Node17 -->
<g id="Node000017" class="node">
<title>Node17</title>
<g id="a_Node000017"><a xlink:href="_crumble_block_8h.html" target="_top" xlink:title=" ">
<polygon fill="white" stroke="#666666" points="524.25,-356 401.75,-356 401.75,-336 524.25,-336 524.25,-356"/>
<text text-anchor="middle" x="463" y="-342.5" font-family="Helvetica,sans-Serif" font-size="10.00">Celeste/CrumbleBlock.h</text>
</a>
</g>
</g>
<!-- Node8&#45;&gt;Node17 -->
<g id="edge19_Node000008_Node000017" class="edge">
<title>Node8&#45;&gt;Node17</title>
<g id="a_edge19_Node000008_Node000017"><a xlink:title=" ">
<path fill="none" stroke="#63b8ff" d="M742.8,-389.8C678.27,-379.93 585.3,-365.71 524.52,-356.41"/>
<polygon fill="#63b8ff" stroke="#63b8ff" points="742.2,-393.25 752.61,-391.3 743.26,-386.33 742.2,-393.25"/>
</a>
</g>
</g>
<!-- Node19 -->
<g id="Node000019" class="node">
<title>Node19</title>
<g id="a_Node000019"><a xlink:href="_dash_crystal_8h.html" target="_top" xlink:title=" ">
<polygon fill="white" stroke="#666666" points="1402.88,-356 1287.12,-356 1287.12,-336 1402.88,-336 1402.88,-356"/>
<text text-anchor="middle" x="1345" y="-342.5" font-family="Helvetica,sans-Serif" font-size="10.00">Celeste/DashCrystal.h</text>
</a>
</g>
</g>
<!-- Node8&#45;&gt;Node19 -->
<g id="edge22_Node000008_Node000019" class="edge">
<title>Node8&#45;&gt;Node19</title>
<g id="a_edge22_Node000008_Node000019"><a xlink:title=" ">
<path fill="none" stroke="#63b8ff" d="M893.29,-394.34C985.11,-386.22 1142.89,-371.65 1278,-356 1280.91,-355.66 1283.9,-355.3 1286.91,-354.93"/>
<polygon fill="#63b8ff" stroke="#63b8ff" points="893.04,-390.85 883.38,-395.21 893.65,-397.82 893.04,-390.85"/>
</a>
</g>
</g>
<!-- Node21 -->
<g id="Node000021" class="node">
<title>Node21</title>
<g id="a_Node000021"><a xlink:href="_interactable_item_8cpp.html" target="_top" xlink:title=" ">
<polygon fill="white" stroke="#666666" points="384,-356 242,-356 242,-336 384,-336 384,-356"/>
<text text-anchor="middle" x="313" y="-342.5" font-family="Helvetica,sans-Serif" font-size="10.00">Celeste/InteractableItem.cpp</text>
</a>
</g>
</g>
<!-- Node8&#45;&gt;Node21 -->
<g id="edge25_Node000008_Node000021" class="edge">
<title>Node8&#45;&gt;Node21</title>
<g id="a_edge25_Node000008_Node000021"><a xlink:title=" ">
<path fill="none" stroke="#63b8ff" d="M738.71,-392.92C653.89,-384.02 513.72,-369.21 393,-356 390.08,-355.68 387.11,-355.35 384.1,-355.02"/>
<polygon fill="#63b8ff" stroke="#63b8ff" points="738.23,-396.39 748.54,-393.95 738.96,-389.43 738.23,-396.39"/>
</a>
</g>
</g>
<!-- Node22 -->
<g id="Node000022" class="node">
<title>Node22</title>
<g id="a_Node000022"><a xlink:href="_level_8h.html" target="_top" xlink:title=" ">
<polygon fill="white" stroke="#666666" points="752.12,-356 667.88,-356 667.88,-336 752.12,-336 752.12,-356"/>
<text text-anchor="middle" x="710" y="-342.5" font-family="Helvetica,sans-Serif" font-size="10.00">Celeste/Level.h</text>
</a>
</g>
</g>
<!-- Node8&#45;&gt;Node22 -->
<g id="edge26_Node000008_Node000022" class="edge">
<title>Node8&#45;&gt;Node22</title>
<g id="a_edge26_Node000008_Node000022"><a xlink:title=" ">
<path fill="none" stroke="#63b8ff" d="M787.5,-386.48C768.8,-376.96 744.89,-364.78 728.61,-356.48"/>
<polygon fill="#63b8ff" stroke="#63b8ff" points="785.69,-389.49 796.19,-390.91 788.87,-383.25 785.69,-389.49"/>
</a>
</g>
</g>
<!-- Node24 -->
<g id="Node000024" class="node">
<title>Node24</title>
<g id="a_Node000024"><a xlink:href="_respawn_zone_8h.html" target="_top" xlink:title=" ">
<polygon fill="white" stroke="#666666" points="1269,-356 1145,-356 1145,-336 1269,-336 1269,-356"/>
<text text-anchor="middle" x="1207" y="-342.5" font-family="Helvetica,sans-Serif" font-size="10.00">Celeste/RespawnZone.h</text>
</a>
</g>
</g>
<!-- Node8&#45;&gt;Node24 -->
<g id="edge29_Node000008_Node000024" class="edge">
<title>Node8&#45;&gt;Node24</title>
<g id="a_edge29_Node000008_Node000024"><a xlink:title=" ">
<path fill="none" stroke="#63b8ff" d="M892.94,-390.37C966.61,-380.2 1076.38,-365.04 1144.72,-355.6"/>
<polygon fill="#63b8ff" stroke="#63b8ff" points="892.81,-386.86 883.38,-391.69 893.77,-393.79 892.81,-386.86"/>
</a>
</g>
</g>
<!-- Node26 -->
<g id="Node000026" class="node">
<title>Node26</title>
<g id="a_Node000026"><a xlink:href="_spike_8h.html" target="_top" xlink:title=" ">
<polygon fill="white" stroke="#666666" points="893.88,-356 808.12,-356 808.12,-336 893.88,-336 893.88,-356"/>
<text text-anchor="middle" x="851" y="-342.5" font-family="Helvetica,sans-Serif" font-size="10.00">Celeste/Spike.h</text>
</a>
</g>
</g>
<!-- Node8&#45;&gt;Node26 -->
<g id="edge32_Node000008_Node000026" class="edge">
<title>Node8&#45;&gt;Node26</title>
<g id="a_edge32_Node000008_Node000026"><a xlink:title=" ">
<path fill="none" stroke="#63b8ff" d="M828.22,-382.15C833.89,-373.4 840.38,-363.39 844.97,-356.3"/>
<polygon fill="#63b8ff" stroke="#63b8ff" points="825.42,-380.03 822.92,-390.32 831.3,-383.84 825.42,-380.03"/>
</a>
</g>
</g>
<!-- Node28 -->
<g id="Node000028" class="node">
<title>Node28</title>
<g id="a_Node000028"><a xlink:href="_strawberry_8h.html" target="_top" xlink:title=" ">
<polygon fill="white" stroke="#666666" points="649.75,-356 542.25,-356 542.25,-336 649.75,-336 649.75,-356"/>
<text text-anchor="middle" x="596" y="-342.5" font-family="Helvetica,sans-Serif" font-size="10.00">Celeste/Strawberry.h</text>
</a>
</g>
</g>
<!-- Node8&#45;&gt;Node28 -->
<g id="edge35_Node000008_Node000028" class="edge">
<title>Node8&#45;&gt;Node28</title>
<g id="a_edge35_Node000008_Node000028"><a xlink:title=" ">
<path fill="none" stroke="#63b8ff" d="M766.35,-388.81C726.43,-379.01 671.16,-365.45 634.53,-356.46"/>
<polygon fill="#63b8ff" stroke="#63b8ff" points="765.41,-392.19 775.96,-391.17 767.08,-385.39 765.41,-392.19"/>
</a>
</g>
</g>
<!-- Node32 -->
<g id="Node000032" class="node">
<title>Node32</title>
<g id="a_Node000032"><a xlink:href="_trampoline_8h.html" target="_top" xlink:title=" ">
<polygon fill="white" stroke="#666666" points="1578.5,-356 1469.5,-356 1469.5,-336 1578.5,-336 1578.5,-356"/>
<text text-anchor="middle" x="1524" y="-342.5" font-family="Helvetica,sans-Serif" font-size="10.00">Celeste/Trampoline.h</text>
</a>
</g>
</g>
<!-- Node8&#45;&gt;Node32 -->
<g id="edge41_Node000008_Node000032" class="edge">
<title>Node8&#45;&gt;Node32</title>
<g id="a_edge41_Node000008_Node000032"><a xlink:title=" ">
<path fill="none" stroke="#63b8ff" d="M893.49,-395.27C1007.21,-386.83 1225.97,-370.5 1412,-356 1430.57,-354.55 1450.88,-352.93 1469.03,-351.47"/>
<polygon fill="#63b8ff" stroke="#63b8ff" points="893.38,-391.77 883.66,-396 893.9,-398.75 893.38,-391.77"/>
</a>
</g>
</g>
<!-- Node9&#45;&gt;Node10 -->
<g id="edge9_Node000009_Node000010" class="edge">
<title>Node9&#45;&gt;Node10</title>
<g id="a_edge9_Node000009_Node000010"><a xlink:title=" ">
<path fill="none" stroke="#63b8ff" d="M799,-212.13C799,-203.9 799,-194.85 799,-188.3"/>
<polygon fill="#63b8ff" stroke="#63b8ff" points="795.5,-212.08 799,-222.08 802.5,-212.08 795.5,-212.08"/>
</a>
</g>
</g>
<!-- Node11 -->
<g id="Node000011" class="node">
<title>Node11</title>
<g id="a_Node000011"><a xlink:href="_chapter_loader_8cpp.html" target="_top" xlink:title=" ">
<polygon fill="white" stroke="#666666" points="939.62,-132 804.38,-132 804.38,-112 939.62,-112 939.62,-132"/>
<text text-anchor="middle" x="872" y="-118.5" font-family="Helvetica,sans-Serif" font-size="10.00">Celeste/ChapterLoader.cpp</text>
</a>
</g>
</g>
<!-- Node10&#45;&gt;Node11 -->
<g id="edge10_Node000010_Node000011" class="edge">
<title>Node10&#45;&gt;Node11</title>
<g id="a_edge10_Node000010_Node000011"><a xlink:title=" ">
<path fill="none" stroke="#63b8ff" d="M820.69,-160.95C833.32,-151.61 848.8,-140.16 859.43,-132.3"/>
<polygon fill="#63b8ff" stroke="#63b8ff" points="818.89,-157.93 812.93,-166.69 823.05,-163.56 818.89,-157.93"/>
</a>
</g>
</g>
<!-- Node10&#45;&gt;Node12 -->
<g id="edge11_Node000010_Node000012" class="edge">
<title>Node10&#45;&gt;Node12</title>
<g id="a_edge11_Node000010_Node000012"><a xlink:title=" ">
<path fill="none" stroke="#63b8ff" d="M777.01,-160.95C764.21,-151.61 748.52,-140.16 737.74,-132.3"/>
<polygon fill="#63b8ff" stroke="#63b8ff" points="774.75,-163.63 784.89,-166.7 778.87,-157.98 774.75,-163.63"/>
</a>
</g>
</g>
<!-- Node10&#45;&gt;Node14 -->
<g id="edge14_Node000010_Node000014" class="edge">
<title>Node10&#45;&gt;Node14</title>
<g id="a_edge14_Node000010_Node000014"><a xlink:title=" ">
<path fill="none" stroke="#63b8ff" d="M873.02,-169.1C973.07,-158.42 1149.65,-139.58 1243.06,-129.61"/>
<polygon fill="#63b8ff" stroke="#63b8ff" points="872.88,-165.6 863.31,-170.14 873.63,-172.56 872.88,-165.6"/>
</a>
</g>
</g>
<!-- Node12&#45;&gt;Node5 -->
<g id="edge12_Node000012_Node000005" class="edge">
<title>Node12&#45;&gt;Node5</title>
<g id="a_edge12_Node000012_Node000005"><a xlink:title=" ">
<path fill="none" stroke="#63b8ff" d="M797.38,-111.79C982.47,-92.22 1189.61,-76.52 1278.21,-70.1"/>
<polygon fill="#63b8ff" stroke="#63b8ff" points="797.14,-108.29 787.57,-112.83 797.88,-115.25 797.14,-108.29"/>
</a>
</g>
</g>
<!-- Node13 -->
<g id="Node000013" class="node">
<title>Node13</title>
<g id="a_Node000013"><a xlink:href="_level_manager_8cpp.html" target="_top" xlink:title=" ">
<polygon fill="white" stroke="#666666" points="791.12,-76 658.88,-76 658.88,-56 791.12,-56 791.12,-76"/>
<text text-anchor="middle" x="725" y="-62.5" font-family="Helvetica,sans-Serif" font-size="10.00">Celeste/LevelManager.cpp</text>
</a>
</g>
</g>
<!-- Node12&#45;&gt;Node13 -->
<g id="edge13_Node000012_Node000013" class="edge">
<title>Node12&#45;&gt;Node13</title>
<g id="a_edge13_Node000012_Node000013"><a xlink:title=" ">
<path fill="none" stroke="#63b8ff" d="M725,-100.13C725,-91.9 725,-82.85 725,-76.3"/>
<polygon fill="#63b8ff" stroke="#63b8ff" points="721.5,-100.08 725,-110.08 728.5,-100.08 721.5,-100.08"/>
</a>
</g>
</g>
<!-- Node15&#45;&gt;Node9 -->
<g id="edge17_Node000015_Node000009" class="edge">
<title>Node15&#45;&gt;Node9</title>
<g id="a_edge17_Node000015_Node000009"><a xlink:title=" ">
<path fill="none" stroke="#63b8ff" d="M969.02,-324.47C967.26,-310.21 962.68,-291.72 951,-280 925.84,-254.76 887.24,-243.54 855.24,-238.61"/>
<polygon fill="#63b8ff" stroke="#63b8ff" points="965.5,-324.46 969.82,-334.14 972.48,-323.88 965.5,-324.46"/>
</a>
</g>
</g>
<!-- Node16 -->
<g id="Node000016" class="node">
<title>Node16</title>
<g id="a_Node000016"><a xlink:href="_cog_platform_8cpp.html" target="_top" xlink:title=" ">
<polygon fill="white" stroke="#666666" points="1124.12,-300 997.88,-300 997.88,-280 1124.12,-280 1124.12,-300"/>
<text text-anchor="middle" x="1061" y="-286.5" font-family="Helvetica,sans-Serif" font-size="10.00">Celeste/CogPlatform.cpp</text>
</a>
</g>
</g>
<!-- Node15&#45;&gt;Node16 -->
<g id="edge18_Node000015_Node000016" class="edge">
<title>Node15&#45;&gt;Node16</title>
<g id="a_edge18_Node000015_Node000016"><a xlink:title=" ">
<path fill="none" stroke="#63b8ff" d="M995.6,-329.81C1011.47,-320.39 1031.37,-308.58 1045.03,-300.48"/>
<polygon fill="#63b8ff" stroke="#63b8ff" points="993.97,-326.71 987.15,-334.82 997.54,-332.73 993.97,-326.71"/>
</a>
</g>
</g>
<!-- Node17&#45;&gt;Node9 -->
<g id="edge20_Node000017_Node000009" class="edge">
<title>Node17&#45;&gt;Node9</title>
<g id="a_edge20_Node000017_Node000009"><a xlink:title=" ">
<path fill="none" stroke="#63b8ff" d="M446.27,-326.75C435.4,-312.64 425.23,-293.32 437,-280 456.89,-257.48 646.18,-243.62 742.81,-237.96"/>
<polygon fill="#63b8ff" stroke="#63b8ff" points="443.58,-328.98 452.68,-334.39 448.94,-324.48 443.58,-328.98"/>
</a>
</g>
</g>
<!-- Node17&#45;&gt;Node18 -->
<g id="edge21_Node000017_Node000018" class="edge">
<title>Node17&#45;&gt;Node18</title>
<g id="a_edge21_Node000017_Node000018"><a xlink:title=" ">
<path fill="none" stroke="#63b8ff" d="M393.84,-333.68C333.64,-323.83 247.38,-309.72 190.79,-300.46"/>
<polygon fill="#63b8ff" stroke="#63b8ff" points="393.21,-337.13 403.65,-335.29 394.34,-330.22 393.21,-337.13"/>
</a>
</g>
</g>
<!-- Node19&#45;&gt;Node9 -->
<g id="edge23_Node000019_Node000009" class="edge">
<title>Node19&#45;&gt;Node9</title>
<g id="a_edge23_Node000019_Node000009"><a xlink:title=" ">
<path fill="none" stroke="#63b8ff" d="M1337.71,-325.6C1330.92,-310.44 1319.22,-290.27 1302,-280 1264.35,-257.54 978.52,-242.71 855.27,-237.29"/>
<polygon fill="#63b8ff" stroke="#63b8ff" points="1334.36,-326.64 1341.39,-334.57 1340.83,-323.99 1334.36,-326.64"/>
</a>
</g>
</g>
<!-- Node19&#45;&gt;Node20 -->
<g id="edge24_Node000019_Node000020" class="edge">
<title>Node19&#45;&gt;Node20</title>
<g id="a_edge24_Node000019_Node000020"><a xlink:title=" ">
<path fill="none" stroke="#63b8ff" d="M1369.75,-329.81C1385.1,-320.39 1404.35,-308.58 1417.55,-300.48"/>
<polygon fill="#63b8ff" stroke="#63b8ff" points="1368.31,-326.59 1361.62,-334.8 1371.97,-332.56 1368.31,-326.59"/>
</a>
</g>
</g>
<!-- Node22&#45;&gt;Node9 -->
<g id="edge27_Node000022_Node000009" class="edge">
<title>Node22&#45;&gt;Node9</title>
<g id="a_edge27_Node000022_Node000009"><a xlink:title=" ">
<path fill="none" stroke="#63b8ff" d="M724.64,-326.9C743.8,-303.22 776.67,-262.6 791.43,-244.35"/>
<polygon fill="#63b8ff" stroke="#63b8ff" points="722.11,-324.47 718.54,-334.44 727.55,-328.87 722.11,-324.47"/>
</a>
</g>
</g>
<!-- Node23 -->
<g id="Node000023" class="node">
<title>Node23</title>
<g id="a_Node000023"><a xlink:href="_level_8cpp.html" target="_top" xlink:title=" ">
<polygon fill="white" stroke="#666666" points="714.38,-300 619.62,-300 619.62,-280 714.38,-280 714.38,-300"/>
<text text-anchor="middle" x="667" y="-286.5" font-family="Helvetica,sans-Serif" font-size="10.00">Celeste/Level.cpp</text>
</a>
</g>
</g>
<!-- Node22&#45;&gt;Node23 -->
<g id="edge28_Node000022_Node000023" class="edge">
<title>Node22&#45;&gt;Node23</title>
<g id="a_edge28_Node000022_Node000023"><a xlink:title=" ">
<path fill="none" stroke="#63b8ff" d="M695.44,-326.72C688.37,-317.84 680.18,-307.55 674.4,-300.3"/>
<polygon fill="#63b8ff" stroke="#63b8ff" points="692.6,-328.77 701.57,-334.41 698.08,-324.41 692.6,-328.77"/>
</a>
</g>
</g>
<!-- Node24&#45;&gt;Node9 -->
<g id="edge30_Node000024_Node000009" class="edge">
<title>Node24&#45;&gt;Node9</title>
<g id="a_edge30_Node000024_Node000009"><a xlink:title=" ">
<path fill="none" stroke="#63b8ff" d="M1244.55,-331.14C1272.5,-318.8 1302.95,-299.69 1285,-280 1256.53,-248.77 977.28,-238.89 855.41,-236.04"/>
<polygon fill="#63b8ff" stroke="#63b8ff" points="1243.34,-327.85 1235.46,-334.94 1246.04,-334.31 1243.34,-327.85"/>
</a>
</g>
</g>
<!-- Node25 -->
<g id="Node000025" class="node">
<title>Node25</title>
<g id="a_Node000025"><a xlink:href="_respawn_zone_8cpp.html" target="_top" xlink:title=" ">
<polygon fill="white" stroke="#666666" points="1276.25,-300 1141.75,-300 1141.75,-280 1276.25,-280 1276.25,-300"/>
<text text-anchor="middle" x="1209" y="-286.5" font-family="Helvetica,sans-Serif" font-size="10.00">Celeste/RespawnZone.cpp</text>
</a>
</g>
</g>
<!-- Node24&#45;&gt;Node25 -->
<g id="edge31_Node000024_Node000025" class="edge">
<title>Node24&#45;&gt;Node25</title>
<g id="a_edge31_Node000024_Node000025"><a xlink:title=" ">
<path fill="none" stroke="#63b8ff" d="M1207.77,-324.13C1208.08,-315.9 1208.41,-306.85 1208.66,-300.3"/>
<polygon fill="#63b8ff" stroke="#63b8ff" points="1204.28,-323.96 1207.4,-334.08 1211.27,-324.22 1204.28,-323.96"/>
</a>
</g>
</g>
<!-- Node26&#45;&gt;Node9 -->
<g id="edge33_Node000026_Node000009" class="edge">
<title>Node26&#45;&gt;Node9</title>
<g id="a_edge33_Node000026_Node000009"><a xlink:title=" ">
<path fill="none" stroke="#63b8ff" d="M841.69,-325.3C830.4,-301.43 811.86,-262.2 803.42,-244.35"/>
<polygon fill="#63b8ff" stroke="#63b8ff" points="838.48,-326.71 845.92,-334.25 844.81,-323.72 838.48,-326.71"/>
</a>
</g>
</g>
<!-- Node27 -->
<g id="Node000027" class="node">
<title>Node27</title>
<g id="a_Node000027"><a xlink:href="_spike_8cpp.html" target="_top" xlink:title=" ">
<polygon fill="white" stroke="#666666" points="942.12,-300 845.88,-300 845.88,-280 942.12,-280 942.12,-300"/>
<text text-anchor="middle" x="894" y="-286.5" font-family="Helvetica,sans-Serif" font-size="10.00">Celeste/Spike.cpp</text>
</a>
</g>
</g>
<!-- Node26&#45;&gt;Node27 -->
<g id="edge34_Node000026_Node000027" class="edge">
<title>Node26&#45;&gt;Node27</title>
<g id="a_edge34_Node000026_Node000027"><a xlink:title=" ">
<path fill="none" stroke="#63b8ff" d="M865.56,-326.72C872.63,-317.84 880.82,-307.55 886.6,-300.3"/>
<polygon fill="#63b8ff" stroke="#63b8ff" points="862.92,-324.41 859.43,-334.41 868.4,-328.77 862.92,-324.41"/>
</a>
</g>
</g>
<!-- Node28&#45;&gt;Node9 -->
<g id="edge36_Node000028_Node000009" class="edge">
<title>Node28&#45;&gt;Node9</title>
<g id="a_edge36_Node000028_Node000009"><a xlink:title=" ">
<path fill="none" stroke="#63b8ff" d="M595.4,-324.38C596.13,-310.07 599.52,-291.57 611,-280 629.32,-261.53 694.37,-248.93 742.85,-241.86"/>
<polygon fill="#63b8ff" stroke="#63b8ff" points="591.91,-324.06 595.33,-334.08 598.91,-324.11 591.91,-324.06"/>
</a>
</g>
</g>
<!-- Node29 -->
<g id="Node000029" class="node">
<title>Node29</title>
<g id="a_Node000029"><a xlink:href="_flying_strawberry_8h.html" target="_top" xlink:title=" ">
<polygon fill="white" stroke="#666666" points="389.88,-300 256.12,-300 256.12,-280 389.88,-280 389.88,-300"/>
<text text-anchor="middle" x="323" y="-286.5" font-family="Helvetica,sans-Serif" font-size="10.00">Celeste/FlyingStrawberry.h</text>
</a>
</g>
</g>
<!-- Node28&#45;&gt;Node29 -->
<g id="edge37_Node000028_Node000029" class="edge">
<title>Node28&#45;&gt;Node29</title>
<g id="a_edge37_Node000028_Node000029"><a xlink:title=" ">
<path fill="none" stroke="#63b8ff" d="M536.91,-333.31C487.21,-323.48 417.04,-309.6 370.81,-300.46"/>
<polygon fill="#63b8ff" stroke="#63b8ff" points="536.16,-336.73 546.65,-335.24 537.52,-329.86 536.16,-336.73"/>
</a>
</g>
</g>
<!-- Node31 -->
<g id="Node000031" class="node">
<title>Node31</title>
<g id="a_Node000031"><a xlink:href="_strawberry_8cpp.html" target="_top" xlink:title=" ">
<polygon fill="white" stroke="#666666" points="564,-300 446,-300 446,-280 564,-280 564,-300"/>
<text text-anchor="middle" x="505" y="-286.5" font-family="Helvetica,sans-Serif" font-size="10.00">Celeste/Strawberry.cpp</text>
</a>
</g>
</g>
<!-- Node28&#45;&gt;Node31 -->
<g id="edge40_Node000028_Node000031" class="edge">
<title>Node28&#45;&gt;Node31</title>
<g id="a_edge40_Node000028_Node000031"><a xlink:title=" ">
<path fill="none" stroke="#63b8ff" d="M570.4,-329.81C554.53,-320.39 534.63,-308.58 520.97,-300.48"/>
<polygon fill="#63b8ff" stroke="#63b8ff" points="568.46,-332.73 578.85,-334.82 572.03,-326.71 568.46,-332.73"/>
</a>
</g>
</g>
<!-- Node29&#45;&gt;Node9 -->
<g id="edge38_Node000029_Node000009" class="edge">
<title>Node29&#45;&gt;Node9</title>
<g id="a_edge38_Node000029_Node000009"><a xlink:title=" ">
<path fill="none" stroke="#63b8ff" d="M401.58,-280.09C497.65,-269.19 657.87,-251.01 742.56,-241.4"/>
<polygon fill="#63b8ff" stroke="#63b8ff" points="401.24,-276.6 391.69,-281.21 402.02,-283.56 401.24,-276.6"/>
</a>
</g>
</g>
<!-- Node29&#45;&gt;Node30 -->
<g id="edge39_Node000029_Node000030" class="edge">
<title>Node29&#45;&gt;Node30</title>
<g id="a_edge39_Node000029_Node000030"><a xlink:title=" ">
<path fill="none" stroke="#63b8ff" d="M324.93,-268.13C325.69,-259.9 326.53,-250.85 327.14,-244.3"/>
<polygon fill="#63b8ff" stroke="#63b8ff" points="321.45,-267.81 324.01,-278.09 328.42,-268.45 321.45,-267.81"/>
</a>
</g>
</g>
<!-- Node32&#45;&gt;Node9 -->
<g id="edge42_Node000032_Node000009" class="edge">
<title>Node32&#45;&gt;Node9</title>
<g id="a_edge42_Node000032_Node000009"><a xlink:title=" ">
<path fill="none" stroke="#63b8ff" d="M1523.85,-324.56C1522.56,-309.76 1518.19,-290.56 1505,-280 1454.78,-239.8 1013.94,-235.26 855.45,-234.94"/>
<polygon fill="#63b8ff" stroke="#63b8ff" points="1520.34,-324.33 1524.28,-334.16 1527.33,-324.02 1520.34,-324.33"/>
</a>
</g>
</g>
<!-- Node32&#45;&gt;Node33 -->
<g id="edge43_Node000032_Node000033" class="edge">
<title>Node32&#45;&gt;Node33</title>
<g id="a_edge43_Node000032_Node000033"><a xlink:title=" ">
<path fill="none" stroke="#63b8ff" d="M1548.75,-329.81C1564.1,-320.39 1583.35,-308.58 1596.55,-300.48"/>
<polygon fill="#63b8ff" stroke="#63b8ff" points="1547.31,-326.59 1540.62,-334.8 1550.97,-332.56 1547.31,-326.59"/>
</a>
</g>
</g>
</g>
</svg>
