<?xml version="1.0" encoding="UTF-8" standalone="no"?>
<!DOCTYPE svg PUBLIC "-//W3C//DTD SVG 1.1//EN"
 "http://www.w3.org/Graphics/SVG/1.1/DTD/svg11.dtd">
<!-- Generated by graphviz version 12.2.1 (20241206.2353)
 -->
<!-- Title: Engine/Transform.h Pages: 1 -->
<svg width="1844pt" height="656pt"
 viewBox="0.00 0.00 1844.12 656.00" xmlns="http://www.w3.org/2000/svg" xmlns:xlink="http://www.w3.org/1999/xlink">
<g id="graph0" class="graph" transform="scale(1 1) rotate(0) translate(4 652)">
<title>Engine/Transform.h</title>
<!-- Node1 -->
<g id="Node000001" class="node">
<title>Node1</title>
<g id="a_Node000001"><a xlink:title=" ">
<polygon fill="#999999" stroke="#666666" points="1255.75,-648 1154.25,-648 1154.25,-628 1255.75,-628 1255.75,-648"/>
<text text-anchor="middle" x="1205" y="-634.5" font-family="Helvetica,sans-Serif" font-size="10.00">Engine/Transform.h</text>
</a>
</g>
</g>
<!-- Node2 -->
<g id="Node000002" class="node">
<title>Node2</title>
<g id="a_Node000002"><a xlink:href="_game_object_8h.html" target="_top" xlink:title=" ">
<polygon fill="white" stroke="#666666" points="1188.88,-592 1073.12,-592 1073.12,-572 1188.88,-572 1188.88,-592"/>
<text text-anchor="middle" x="1131" y="-578.5" font-family="Helvetica,sans-Serif" font-size="10.00">Celeste/GameObject.h</text>
</a>
</g>
</g>
<!-- Node1&#45;&gt;Node2 -->
<g id="edge1_Node000001_Node000002" class="edge">
<title>Node1&#45;&gt;Node2</title>
<g id="a_edge1_Node000001_Node000002"><a xlink:title=" ">
<path fill="none" stroke="#63b8ff" d="M1183.01,-620.95C1170.21,-611.61 1154.52,-600.16 1143.74,-592.3"/>
<polygon fill="#63b8ff" stroke="#63b8ff" points="1180.75,-623.63 1190.89,-626.7 1184.87,-617.98 1180.75,-623.63"/>
</a>
</g>
</g>
<!-- Node39 -->
<g id="Node000039" class="node">
<title>Node39</title>
<g id="a_Node000039"><a xlink:href="_hair_8h.html" target="_top" xlink:title=" ">
<polygon fill="white" stroke="#666666" points="1426.5,-592 1347.5,-592 1347.5,-572 1426.5,-572 1426.5,-592"/>
<text text-anchor="middle" x="1387" y="-578.5" font-family="Helvetica,sans-Serif" font-size="10.00">Celeste/Hair.h</text>
</a>
</g>
</g>
<!-- Node1&#45;&gt;Node39 -->
<g id="edge51_Node000001_Node000039" class="edge">
<title>Node1&#45;&gt;Node39</title>
<g id="a_edge51_Node000001_Node000039"><a xlink:title=" ">
<path fill="none" stroke="#63b8ff" d="M1247.36,-624.43C1280.24,-614.67 1325.14,-601.35 1355.05,-592.48"/>
<polygon fill="#63b8ff" stroke="#63b8ff" points="1246.74,-620.96 1238.15,-627.16 1248.74,-627.67 1246.74,-620.96"/>
</a>
</g>
</g>
<!-- Node3 -->
<g id="Node000003" class="node">
<title>Node3</title>
<g id="a_Node000003"><a xlink:href="_character_controller_8h.html" target="_top" xlink:title=" ">
<polygon fill="white" stroke="#666666" points="1288.88,-530 1143.12,-530 1143.12,-510 1288.88,-510 1288.88,-530"/>
<text text-anchor="middle" x="1216" y="-516.5" font-family="Helvetica,sans-Serif" font-size="10.00">Celeste/CharacterController.h</text>
</a>
</g>
</g>
<!-- Node2&#45;&gt;Node3 -->
<g id="edge2_Node000002_Node000003" class="edge">
<title>Node2&#45;&gt;Node3</title>
<g id="a_edge2_Node000002_Node000003"><a xlink:title=" ">
<path fill="none" stroke="#63b8ff" d="M1153.35,-565.22C1169.09,-554.11 1189.62,-539.62 1202.81,-530.31"/>
<polygon fill="#63b8ff" stroke="#63b8ff" points="1151.67,-562.13 1145.52,-570.75 1155.71,-567.84 1151.67,-562.13"/>
</a>
</g>
</g>
<!-- Node36 -->
<g id="Node000036" class="node">
<title>Node36</title>
<g id="a_Node000036"><a xlink:href="_game_object_8cpp.html" target="_top" xlink:title=" ">
<polygon fill="white" stroke="#666666" points="954.12,-530 827.88,-530 827.88,-510 954.12,-510 954.12,-530"/>
<text text-anchor="middle" x="891" y="-516.5" font-family="Helvetica,sans-Serif" font-size="10.00">Celeste/GameObject.cpp</text>
</a>
</g>
</g>
<!-- Node2&#45;&gt;Node36 -->
<g id="edge47_Node000002_Node000036" class="edge">
<title>Node2&#45;&gt;Node36</title>
<g id="a_edge47_Node000002_Node000036"><a xlink:title=" ">
<path fill="none" stroke="#63b8ff" d="M1082.2,-568.8C1036.9,-557.48 970.39,-540.85 928.94,-530.48"/>
<polygon fill="#63b8ff" stroke="#63b8ff" points="1081.22,-572.16 1091.77,-571.19 1082.92,-565.37 1081.22,-572.16"/>
</a>
</g>
</g>
<!-- Node37 -->
<g id="Node000037" class="node">
<title>Node37</title>
<g id="a_Node000037"><a xlink:href="_snow_flake_manager_8h.html" target="_top" xlink:title=" ">
<polygon fill="white" stroke="#666666" points="1119.62,-530 972.38,-530 972.38,-510 1119.62,-510 1119.62,-530"/>
<text text-anchor="middle" x="1046" y="-516.5" font-family="Helvetica,sans-Serif" font-size="10.00">Celeste/SnowFlakeManager.h</text>
</a>
</g>
</g>
<!-- Node2&#45;&gt;Node37 -->
<g id="edge48_Node000002_Node000037" class="edge">
<title>Node2&#45;&gt;Node37</title>
<g id="a_edge48_Node000002_Node000037"><a xlink:title=" ">
<path fill="none" stroke="#63b8ff" d="M1108.65,-565.22C1092.91,-554.11 1072.38,-539.62 1059.19,-530.31"/>
<polygon fill="#63b8ff" stroke="#63b8ff" points="1106.29,-567.84 1116.48,-570.75 1110.33,-562.13 1106.29,-567.84"/>
</a>
</g>
</g>
<!-- Node4 -->
<g id="Node000004" class="node">
<title>Node4</title>
<g id="a_Node000004"><a xlink:href="_character_8h.html" target="_top" xlink:title=" ">
<polygon fill="white" stroke="#666666" points="1415.88,-468 1312.12,-468 1312.12,-448 1415.88,-448 1415.88,-468"/>
<text text-anchor="middle" x="1364" y="-454.5" font-family="Helvetica,sans-Serif" font-size="10.00">Celeste/Character.h</text>
</a>
</g>
</g>
<!-- Node3&#45;&gt;Node4 -->
<g id="edge3_Node000003_Node000004" class="edge">
<title>Node3&#45;&gt;Node4</title>
<g id="a_edge3_Node000003_Node000004"><a xlink:title=" ">
<path fill="none" stroke="#63b8ff" d="M1249.61,-505.38C1277.54,-494.05 1316.56,-478.23 1341.04,-468.31"/>
<polygon fill="#63b8ff" stroke="#63b8ff" points="1248.48,-502.06 1240.53,-509.06 1251.11,-508.54 1248.48,-502.06"/>
</a>
</g>
</g>
<!-- Node35 -->
<g id="Node000035" class="node">
<title>Node35</title>
<g id="a_Node000035"><a xlink:href="_character_controller_8cpp.html" target="_top" xlink:title=" ">
<polygon fill="white" stroke="#666666" points="1294.12,-468 1137.88,-468 1137.88,-448 1294.12,-448 1294.12,-468"/>
<text text-anchor="middle" x="1216" y="-454.5" font-family="Helvetica,sans-Serif" font-size="10.00">Celeste/CharacterController.cpp</text>
</a>
</g>
</g>
<!-- Node3&#45;&gt;Node35 -->
<g id="edge46_Node000003_Node000035" class="edge">
<title>Node3&#45;&gt;Node35</title>
<g id="a_edge46_Node000003_Node000035"><a xlink:title=" ">
<path fill="none" stroke="#63b8ff" d="M1216,-498.25C1216,-487.97 1216,-476.09 1216,-468.11"/>
<polygon fill="#63b8ff" stroke="#63b8ff" points="1212.5,-498.11 1216,-508.11 1219.5,-498.11 1212.5,-498.11"/>
</a>
</g>
</g>
<!-- Node5 -->
<g id="Node000005" class="node">
<title>Node5</title>
<g id="a_Node000005"><a xlink:href="_character_8cpp.html" target="_top" xlink:title=" ">
<polygon fill="white" stroke="#666666" points="1421.12,-412 1306.88,-412 1306.88,-392 1421.12,-392 1421.12,-412"/>
<text text-anchor="middle" x="1364" y="-398.5" font-family="Helvetica,sans-Serif" font-size="10.00">Celeste/Character.cpp</text>
</a>
</g>
</g>
<!-- Node4&#45;&gt;Node5 -->
<g id="edge4_Node000004_Node000005" class="edge">
<title>Node4&#45;&gt;Node5</title>
<g id="a_edge4_Node000004_Node000005"><a xlink:title=" ">
<path fill="none" stroke="#63b8ff" d="M1364,-436.13C1364,-427.9 1364,-418.85 1364,-412.3"/>
<polygon fill="#63b8ff" stroke="#63b8ff" points="1360.5,-436.08 1364,-446.08 1367.5,-436.08 1360.5,-436.08"/>
</a>
</g>
</g>
<!-- Node6 -->
<g id="Node000006" class="node">
<title>Node6</title>
<g id="a_Node000006"><a xlink:href="_game_8h.html" target="_top" xlink:title=" ">
<polygon fill="white" stroke="#666666" points="1685.62,-76 1598.38,-76 1598.38,-56 1685.62,-56 1685.62,-76"/>
<text text-anchor="middle" x="1642" y="-62.5" font-family="Helvetica,sans-Serif" font-size="10.00">Celeste/Game.h</text>
</a>
</g>
</g>
<!-- Node4&#45;&gt;Node6 -->
<g id="edge5_Node000004_Node000006" class="edge">
<title>Node4&#45;&gt;Node6</title>
<g id="a_edge5_Node000004_Node000006"><a xlink:title=" ">
<path fill="none" stroke="#63b8ff" d="M1427.39,-446.76C1514.89,-430.8 1662,-396.6 1662,-347 1662,-347 1662,-347 1662,-177 1662,-139.15 1650.4,-95.14 1644.87,-76.31"/>
<polygon fill="#63b8ff" stroke="#63b8ff" points="1426.97,-443.28 1417.74,-448.49 1428.2,-450.17 1426.97,-443.28"/>
</a>
</g>
</g>
<!-- Node9 -->
<g id="Node000009" class="node">
<title>Node9</title>
<g id="a_Node000009"><a xlink:href="_interactable_item_8h.html" target="_top" xlink:title=" ">
<polygon fill="white" stroke="#666666" points="1043.75,-412 912.25,-412 912.25,-392 1043.75,-392 1043.75,-412"/>
<text text-anchor="middle" x="978" y="-398.5" font-family="Helvetica,sans-Serif" font-size="10.00">Celeste/InteractableItem.h</text>
</a>
</g>
</g>
<!-- Node4&#45;&gt;Node9 -->
<g id="edge8_Node000004_Node000009" class="edge">
<title>Node4&#45;&gt;Node9</title>
<g id="a_edge8_Node000004_Node000009"><a xlink:title=" ">
<path fill="none" stroke="#63b8ff" d="M1300.5,-447.65C1205.5,-434.1 1107.18,-420.58 1044,-411.96"/>
<polygon fill="#63b8ff" stroke="#63b8ff" points="1299.87,-451.1 1310.26,-449.05 1300.86,-444.17 1299.87,-451.1"/>
</a>
</g>
</g>
<!-- Node13 -->
<g id="Node000013" class="node">
<title>Node13</title>
<g id="a_Node000013"><a xlink:href="_level_manager_8h.html" target="_top" xlink:title=" ">
<polygon fill="white" stroke="#666666" points="1811.88,-132 1690.12,-132 1690.12,-112 1811.88,-112 1811.88,-132"/>
<text text-anchor="middle" x="1751" y="-118.5" font-family="Helvetica,sans-Serif" font-size="10.00">Celeste/LevelManager.h</text>
</a>
</g>
</g>
<!-- Node4&#45;&gt;Node13 -->
<g id="edge45_Node000004_Node000013" class="edge">
<title>Node4&#45;&gt;Node13</title>
<g id="a_edge45_Node000004_Node000013"><a xlink:title=" ">
<path fill="none" stroke="#63b8ff" d="M1427.6,-453.46C1506.32,-448.11 1635.03,-435.96 1676,-412 1707.46,-393.6 1726,-383.45 1726,-347 1726,-347 1726,-347 1726,-233 1726,-194.81 1740.51,-150.98 1747.42,-132.26"/>
<polygon fill="#63b8ff" stroke="#63b8ff" points="1427.62,-449.95 1417.87,-454.1 1428.08,-456.93 1427.62,-449.95"/>
</a>
</g>
</g>
<!-- Node7 -->
<g id="Node000007" class="node">
<title>Node7</title>
<g id="a_Node000007"><a xlink:href="_game_8cpp.html" target="_top" xlink:title=" ">
<polygon fill="white" stroke="#666666" points="1634.88,-20 1537.12,-20 1537.12,0 1634.88,0 1634.88,-20"/>
<text text-anchor="middle" x="1586" y="-6.5" font-family="Helvetica,sans-Serif" font-size="10.00">Celeste/Game.cpp</text>
</a>
</g>
</g>
<!-- Node6&#45;&gt;Node7 -->
<g id="edge6_Node000006_Node000007" class="edge">
<title>Node6&#45;&gt;Node7</title>
<g id="a_edge6_Node000006_Node000007"><a xlink:title=" ">
<path fill="none" stroke="#63b8ff" d="M1624.21,-47.85C1614.75,-38.72 1603.48,-27.86 1595.64,-20.3"/>
<polygon fill="#63b8ff" stroke="#63b8ff" points="1621.53,-50.12 1631.16,-54.54 1626.39,-45.08 1621.53,-50.12"/>
</a>
</g>
</g>
<!-- Node8 -->
<g id="Node000008" class="node">
<title>Node8</title>
<g id="a_Node000008"><a xlink:href="main_8cpp.html" target="_top" xlink:title=" ">
<polygon fill="white" stroke="#666666" points="1745.25,-20 1652.75,-20 1652.75,0 1745.25,0 1745.25,-20"/>
<text text-anchor="middle" x="1699" y="-6.5" font-family="Helvetica,sans-Serif" font-size="10.00">Celeste/main.cpp</text>
</a>
</g>
</g>
<!-- Node6&#45;&gt;Node8 -->
<g id="edge7_Node000006_Node000008" class="edge">
<title>Node6&#45;&gt;Node8</title>
<g id="a_edge7_Node000006_Node000008"><a xlink:title=" ">
<path fill="none" stroke="#63b8ff" d="M1660.11,-47.85C1669.74,-38.72 1681.21,-27.86 1689.19,-20.3"/>
<polygon fill="#63b8ff" stroke="#63b8ff" points="1657.88,-45.13 1653.03,-54.55 1662.69,-50.22 1657.88,-45.13"/>
</a>
</g>
</g>
<!-- Node10 -->
<g id="Node000010" class="node">
<title>Node10</title>
<g id="a_Node000010"><a xlink:href="_chapter_info_8h.html" target="_top" xlink:title=" ">
<polygon fill="white" stroke="#666666" points="982,-244 870,-244 870,-224 982,-224 982,-244"/>
<text text-anchor="middle" x="926" y="-230.5" font-family="Helvetica,sans-Serif" font-size="10.00">Celeste/ChapterInfo.h</text>
</a>
</g>
</g>
<!-- Node9&#45;&gt;Node10 -->
<g id="edge9_Node000009_Node000010" class="edge">
<title>Node9&#45;&gt;Node10</title>
<g id="a_edge9_Node000009_Node000010"><a xlink:title=" ">
<path fill="none" stroke="#63b8ff" d="M970.68,-381.12C967.87,-373.32 964.7,-364.27 962,-356 948.54,-314.74 934.37,-264.92 928.63,-244.47"/>
<polygon fill="#63b8ff" stroke="#63b8ff" points="967.32,-382.12 974.03,-390.32 973.9,-379.72 967.32,-382.12"/>
</a>
</g>
</g>
<!-- Node11 -->
<g id="Node000011" class="node">
<title>Node11</title>
<g id="a_Node000011"><a xlink:href="_chapter_loader_8h.html" target="_top" xlink:title=" ">
<polygon fill="white" stroke="#666666" points="1628.38,-188 1503.62,-188 1503.62,-168 1628.38,-168 1628.38,-188"/>
<text text-anchor="middle" x="1566" y="-174.5" font-family="Helvetica,sans-Serif" font-size="10.00">Celeste/ChapterLoader.h</text>
</a>
</g>
</g>
<!-- Node9&#45;&gt;Node11 -->
<g id="edge16_Node000009_Node000011" class="edge">
<title>Node9&#45;&gt;Node11</title>
<g id="a_edge16_Node000009_Node000011"><a xlink:title=" ">
<path fill="none" stroke="#63b8ff" d="M1055.38,-398.85C1182.6,-394.59 1430.1,-383.04 1513,-356 1558.51,-341.15 1581.55,-341.73 1605,-300 1626.63,-261.52 1590.66,-209.31 1573.89,-188.31"/>
<polygon fill="#63b8ff" stroke="#63b8ff" points="1055.59,-395.34 1045.71,-399.17 1055.82,-402.34 1055.59,-395.34"/>
</a>
</g>
</g>
<!-- Node16 -->
<g id="Node000016" class="node">
<title>Node16</title>
<g id="a_Node000016"><a xlink:href="_cog_platform_8h.html" target="_top" xlink:title=" ">
<polygon fill="white" stroke="#666666" points="614.88,-356 499.12,-356 499.12,-336 614.88,-336 614.88,-356"/>
<text text-anchor="middle" x="557" y="-342.5" font-family="Helvetica,sans-Serif" font-size="10.00">Celeste/CogPlatform.h</text>
</a>
</g>
</g>
<!-- Node9&#45;&gt;Node16 -->
<g id="edge17_Node000009_Node000016" class="edge">
<title>Node9&#45;&gt;Node16</title>
<g id="a_edge17_Node000009_Node000016"><a xlink:title=" ">
<path fill="none" stroke="#63b8ff" d="M900.58,-391.32C828.85,-382.31 719.19,-368.44 624,-356 621.09,-355.62 618.11,-355.23 615.1,-354.83"/>
<polygon fill="#63b8ff" stroke="#63b8ff" points="899.9,-394.76 910.26,-392.53 900.77,-387.82 899.9,-394.76"/>
</a>
</g>
</g>
<!-- Node18 -->
<g id="Node000018" class="node">
<title>Node18</title>
<g id="a_Node000018"><a xlink:href="_crumble_block_8h.html" target="_top" xlink:title=" ">
<polygon fill="white" stroke="#666666" points="915.25,-356 792.75,-356 792.75,-336 915.25,-336 915.25,-356"/>
<text text-anchor="middle" x="854" y="-342.5" font-family="Helvetica,sans-Serif" font-size="10.00">Celeste/CrumbleBlock.h</text>
</a>
</g>
</g>
<!-- Node9&#45;&gt;Node18 -->
<g id="edge20_Node000009_Node000018" class="edge">
<title>Node9&#45;&gt;Node18</title>
<g id="a_edge20_Node000009_Node000018"><a xlink:title=" ">
<path fill="none" stroke="#63b8ff" d="M945.87,-387.01C923.83,-377.41 895.17,-364.93 875.77,-356.48"/>
<polygon fill="#63b8ff" stroke="#63b8ff" points="944.45,-390.21 955.01,-390.99 947.24,-383.79 944.45,-390.21"/>
</a>
</g>
</g>
<!-- Node20 -->
<g id="Node000020" class="node">
<title>Node20</title>
<g id="a_Node000020"><a xlink:href="_dash_crystal_8h.html" target="_top" xlink:title=" ">
<polygon fill="white" stroke="#666666" points="1226.88,-356 1111.12,-356 1111.12,-336 1226.88,-336 1226.88,-356"/>
<text text-anchor="middle" x="1169" y="-342.5" font-family="Helvetica,sans-Serif" font-size="10.00">Celeste/DashCrystal.h</text>
</a>
</g>
</g>
<!-- Node9&#45;&gt;Node20 -->
<g id="edge23_Node000009_Node000020" class="edge">
<title>Node9&#45;&gt;Node20</title>
<g id="a_edge23_Node000009_Node000020"><a xlink:title=" ">
<path fill="none" stroke="#63b8ff" d="M1022,-388.56C1056.56,-378.79 1103.94,-365.39 1135.47,-356.48"/>
<polygon fill="#63b8ff" stroke="#63b8ff" points="1021.4,-385.09 1012.73,-391.18 1023.3,-391.83 1021.4,-385.09"/>
</a>
</g>
</g>
<!-- Node22 -->
<g id="Node000022" class="node">
<title>Node22</title>
<g id="a_Node000022"><a xlink:href="_interactable_item_8cpp.html" target="_top" xlink:title=" ">
<polygon fill="white" stroke="#666666" points="775,-356 633,-356 633,-336 775,-336 775,-356"/>
<text text-anchor="middle" x="704" y="-342.5" font-family="Helvetica,sans-Serif" font-size="10.00">Celeste/InteractableItem.cpp</text>
</a>
</g>
</g>
<!-- Node9&#45;&gt;Node22 -->
<g id="edge26_Node000009_Node000022" class="edge">
<title>Node9&#45;&gt;Node22</title>
<g id="a_edge26_Node000009_Node000022"><a xlink:title=" ">
<path fill="none" stroke="#63b8ff" d="M918.7,-389.31C868.81,-379.48 798.39,-365.6 751.99,-356.46"/>
<polygon fill="#63b8ff" stroke="#63b8ff" points="917.99,-392.74 928.47,-391.24 919.34,-385.87 917.99,-392.74"/>
</a>
</g>
</g>
<!-- Node23 -->
<g id="Node000023" class="node">
<title>Node23</title>
<g id="a_Node000023"><a xlink:href="_level_8h.html" target="_top" xlink:title=" ">
<polygon fill="white" stroke="#666666" points="1376.12,-356 1291.88,-356 1291.88,-336 1376.12,-336 1376.12,-356"/>
<text text-anchor="middle" x="1334" y="-342.5" font-family="Helvetica,sans-Serif" font-size="10.00">Celeste/Level.h</text>
</a>
</g>
</g>
<!-- Node9&#45;&gt;Node23 -->
<g id="edge27_Node000009_Node000023" class="edge">
<title>Node9&#45;&gt;Node23</title>
<g id="a_edge27_Node000009_Node000023"><a xlink:title=" ">
<path fill="none" stroke="#63b8ff" d="M1051.73,-389.82C1124.21,-378.82 1232.32,-362.42 1291.5,-353.45"/>
<polygon fill="#63b8ff" stroke="#63b8ff" points="1051.28,-386.34 1041.91,-391.31 1052.33,-393.27 1051.28,-386.34"/>
</a>
</g>
</g>
<!-- Node25 -->
<g id="Node000025" class="node">
<title>Node25</title>
<g id="a_Node000025"><a xlink:href="_respawn_zone_8h.html" target="_top" xlink:title=" ">
<polygon fill="white" stroke="#666666" points="481,-356 357,-356 357,-336 481,-336 481,-356"/>
<text text-anchor="middle" x="419" y="-342.5" font-family="Helvetica,sans-Serif" font-size="10.00">Celeste/RespawnZone.h</text>
</a>
</g>
</g>
<!-- Node9&#45;&gt;Node25 -->
<g id="edge30_Node000009_Node000025" class="edge">
<title>Node9&#45;&gt;Node25</title>
<g id="a_edge30_Node000009_Node000025"><a xlink:title=" ">
<path fill="none" stroke="#63b8ff" d="M900.65,-394.69C804.35,-386.64 634.87,-371.86 490,-356 487.16,-355.69 484.26,-355.36 481.32,-355.02"/>
<polygon fill="#63b8ff" stroke="#63b8ff" points="900.26,-398.17 910.51,-395.51 900.84,-391.19 900.26,-398.17"/>
</a>
</g>
</g>
<!-- Node27 -->
<g id="Node000027" class="node">
<title>Node27</title>
<g id="a_Node000027"><a xlink:href="_spike_8h.html" target="_top" xlink:title=" ">
<polygon fill="white" stroke="#666666" points="1056.88,-356 971.12,-356 971.12,-336 1056.88,-336 1056.88,-356"/>
<text text-anchor="middle" x="1014" y="-342.5" font-family="Helvetica,sans-Serif" font-size="10.00">Celeste/Spike.h</text>
</a>
</g>
</g>
<!-- Node9&#45;&gt;Node27 -->
<g id="edge33_Node000009_Node000027" class="edge">
<title>Node9&#45;&gt;Node27</title>
<g id="a_edge33_Node000009_Node000027"><a xlink:title=" ">
<path fill="none" stroke="#63b8ff" d="M990.57,-382.15C996.4,-373.4 1003.07,-363.39 1007.8,-356.3"/>
<polygon fill="#63b8ff" stroke="#63b8ff" points="987.75,-380.07 985.11,-390.33 993.57,-383.96 987.75,-380.07"/>
</a>
</g>
</g>
<!-- Node29 -->
<g id="Node000029" class="node">
<title>Node29</title>
<g id="a_Node000029"><a xlink:href="_strawberry_8h.html" target="_top" xlink:title=" ">
<polygon fill="white" stroke="#666666" points="314.75,-356 207.25,-356 207.25,-336 314.75,-336 314.75,-356"/>
<text text-anchor="middle" x="261" y="-342.5" font-family="Helvetica,sans-Serif" font-size="10.00">Celeste/Strawberry.h</text>
</a>
</g>
</g>
<!-- Node9&#45;&gt;Node29 -->
<g id="edge36_Node000009_Node000029" class="edge">
<title>Node9&#45;&gt;Node29</title>
<g id="a_edge36_Node000009_Node000029"><a xlink:title=" ">
<path fill="none" stroke="#63b8ff" d="M900.71,-396.27C781.83,-388.82 547.01,-373.4 348,-356 337.26,-355.06 325.79,-353.95 314.81,-352.84"/>
<polygon fill="#63b8ff" stroke="#63b8ff" points="900.48,-399.77 910.68,-396.9 900.92,-392.78 900.48,-399.77"/>
</a>
</g>
</g>
<!-- Node33 -->
<g id="Node000033" class="node">
<title>Node33</title>
<g id="a_Node000033"><a xlink:href="_trampoline_8h.html" target="_top" xlink:title=" ">
<polygon fill="white" stroke="#666666" points="1503.5,-356 1394.5,-356 1394.5,-336 1503.5,-336 1503.5,-356"/>
<text text-anchor="middle" x="1449" y="-342.5" font-family="Helvetica,sans-Serif" font-size="10.00">Celeste/Trampoline.h</text>
</a>
</g>
</g>
<!-- Node9&#45;&gt;Node33 -->
<g id="edge42_Node000009_Node000033" class="edge">
<title>Node9&#45;&gt;Node33</title>
<g id="a_edge42_Node000009_Node000033"><a xlink:title=" ">
<path fill="none" stroke="#63b8ff" d="M1055.19,-393.15C1137.11,-384.66 1270.31,-370.4 1385,-356 1388.01,-355.62 1391.09,-355.22 1394.2,-354.81"/>
<polygon fill="#63b8ff" stroke="#63b8ff" points="1055.07,-389.65 1045.49,-394.16 1055.79,-396.61 1055.07,-389.65"/>
</a>
</g>
</g>
<!-- Node10&#45;&gt;Node11 -->
<g id="edge10_Node000010_Node000011" class="edge">
<title>Node10&#45;&gt;Node11</title>
<g id="a_edge10_Node000010_Node000011"><a xlink:title=" ">
<path fill="none" stroke="#63b8ff" d="M993.49,-227.31C1118.16,-216.79 1382.82,-194.46 1503.58,-184.27"/>
<polygon fill="#63b8ff" stroke="#63b8ff" points="993.41,-223.8 983.74,-228.13 994,-230.77 993.41,-223.8"/>
</a>
</g>
</g>
<!-- Node12 -->
<g id="Node000012" class="node">
<title>Node12</title>
<g id="a_Node000012"><a xlink:href="_chapter_loader_8cpp.html" target="_top" xlink:title=" ">
<polygon fill="white" stroke="#666666" points="1633.62,-132 1498.38,-132 1498.38,-112 1633.62,-112 1633.62,-132"/>
<text text-anchor="middle" x="1566" y="-118.5" font-family="Helvetica,sans-Serif" font-size="10.00">Celeste/ChapterLoader.cpp</text>
</a>
</g>
</g>
<!-- Node11&#45;&gt;Node12 -->
<g id="edge11_Node000011_Node000012" class="edge">
<title>Node11&#45;&gt;Node12</title>
<g id="a_edge11_Node000011_Node000012"><a xlink:title=" ">
<path fill="none" stroke="#63b8ff" d="M1566,-156.13C1566,-147.9 1566,-138.85 1566,-132.3"/>
<polygon fill="#63b8ff" stroke="#63b8ff" points="1562.5,-156.08 1566,-166.08 1569.5,-156.08 1562.5,-156.08"/>
</a>
</g>
</g>
<!-- Node11&#45;&gt;Node13 -->
<g id="edge12_Node000011_Node000013" class="edge">
<title>Node11&#45;&gt;Node13</title>
<g id="a_edge12_Node000011_Node000013"><a xlink:title=" ">
<path fill="none" stroke="#63b8ff" d="M1609.05,-164.43C1642.48,-154.67 1688.12,-141.35 1718.52,-132.48"/>
<polygon fill="#63b8ff" stroke="#63b8ff" points="1608.3,-161.01 1599.68,-167.17 1610.26,-167.73 1608.3,-161.01"/>
</a>
</g>
</g>
<!-- Node15 -->
<g id="Node000015" class="node">
<title>Node15</title>
<g id="a_Node000015"><a xlink:href="_pause_menu_8cpp.html" target="_top" xlink:title=" ">
<polygon fill="white" stroke="#666666" points="1480.62,-132 1357.38,-132 1357.38,-112 1480.62,-112 1480.62,-132"/>
<text text-anchor="middle" x="1419" y="-118.5" font-family="Helvetica,sans-Serif" font-size="10.00">Celeste/PauseMenu.cpp</text>
</a>
</g>
</g>
<!-- Node11&#45;&gt;Node15 -->
<g id="edge15_Node000011_Node000015" class="edge">
<title>Node11&#45;&gt;Node15</title>
<g id="a_edge15_Node000011_Node000015"><a xlink:title=" ">
<path fill="none" stroke="#63b8ff" d="M1529.69,-163.66C1503.34,-153.98 1468.33,-141.12 1444.81,-132.48"/>
<polygon fill="#63b8ff" stroke="#63b8ff" points="1528.38,-166.91 1538.97,-167.07 1530.79,-160.34 1528.38,-166.91"/>
</a>
</g>
</g>
<!-- Node13&#45;&gt;Node6 -->
<g id="edge13_Node000013_Node000006" class="edge">
<title>Node13&#45;&gt;Node6</title>
<g id="a_edge13_Node000013_Node000006"><a xlink:title=" ">
<path fill="none" stroke="#63b8ff" d="M1721.96,-106.61C1702.7,-97.07 1677.96,-84.81 1661.13,-76.48"/>
<polygon fill="#63b8ff" stroke="#63b8ff" points="1720.14,-109.62 1730.66,-110.92 1723.25,-103.35 1720.14,-109.62"/>
</a>
</g>
</g>
<!-- Node14 -->
<g id="Node000014" class="node">
<title>Node14</title>
<g id="a_Node000014"><a xlink:href="_level_manager_8cpp.html" target="_top" xlink:title=" ">
<polygon fill="white" stroke="#666666" points="1836.12,-76 1703.88,-76 1703.88,-56 1836.12,-56 1836.12,-76"/>
<text text-anchor="middle" x="1770" y="-62.5" font-family="Helvetica,sans-Serif" font-size="10.00">Celeste/LevelManager.cpp</text>
</a>
</g>
</g>
<!-- Node13&#45;&gt;Node14 -->
<g id="edge14_Node000013_Node000014" class="edge">
<title>Node13&#45;&gt;Node14</title>
<g id="a_edge14_Node000013_Node000014"><a xlink:title=" ">
<path fill="none" stroke="#63b8ff" d="M1758.04,-101C1761.01,-92.54 1764.34,-83.08 1766.73,-76.3"/>
<polygon fill="#63b8ff" stroke="#63b8ff" points="1754.83,-99.57 1754.81,-110.17 1761.43,-101.89 1754.83,-99.57"/>
</a>
</g>
</g>
<!-- Node16&#45;&gt;Node10 -->
<g id="edge18_Node000016_Node000010" class="edge">
<title>Node16&#45;&gt;Node10</title>
<g id="a_edge18_Node000016_Node000010"><a xlink:title=" ">
<path fill="none" stroke="#63b8ff" d="M556.36,-324.44C557.09,-309.86 560.65,-291.01 573,-280 615.71,-241.92 781.46,-235.39 869.8,-234.69"/>
<polygon fill="#63b8ff" stroke="#63b8ff" points="552.86,-324.31 556.31,-334.33 559.86,-324.35 552.86,-324.31"/>
</a>
</g>
</g>
<!-- Node17 -->
<g id="Node000017" class="node">
<title>Node17</title>
<g id="a_Node000017"><a xlink:href="_cog_platform_8cpp.html" target="_top" xlink:title=" ">
<polygon fill="white" stroke="#666666" points="708.12,-300 581.88,-300 581.88,-280 708.12,-280 708.12,-300"/>
<text text-anchor="middle" x="645" y="-286.5" font-family="Helvetica,sans-Serif" font-size="10.00">Celeste/CogPlatform.cpp</text>
</a>
</g>
</g>
<!-- Node16&#45;&gt;Node17 -->
<g id="edge19_Node000016_Node000017" class="edge">
<title>Node16&#45;&gt;Node17</title>
<g id="a_edge19_Node000016_Node000017"><a xlink:title=" ">
<path fill="none" stroke="#63b8ff" d="M581.75,-329.81C597.1,-320.39 616.35,-308.58 629.55,-300.48"/>
<polygon fill="#63b8ff" stroke="#63b8ff" points="580.31,-326.59 573.62,-334.8 583.97,-332.56 580.31,-326.59"/>
</a>
</g>
</g>
<!-- Node18&#45;&gt;Node10 -->
<g id="edge21_Node000018_Node000010" class="edge">
<title>Node18&#45;&gt;Node10</title>
<g id="a_edge21_Node000018_Node000010"><a xlink:title=" ">
<path fill="none" stroke="#63b8ff" d="M803.92,-332.21C770.89,-321.29 736.82,-303.58 755,-280 769.06,-261.77 825.35,-249.45 869.56,-242.38"/>
<polygon fill="#63b8ff" stroke="#63b8ff" points="802.5,-335.44 813.09,-335.07 804.59,-328.76 802.5,-335.44"/>
</a>
</g>
</g>
<!-- Node19 -->
<g id="Node000019" class="node">
<title>Node19</title>
<g id="a_Node000019"><a xlink:href="_crumble_block_8cpp.html" target="_top" xlink:title=" ">
<polygon fill="white" stroke="#666666" points="897.5,-300 764.5,-300 764.5,-280 897.5,-280 897.5,-300"/>
<text text-anchor="middle" x="831" y="-286.5" font-family="Helvetica,sans-Serif" font-size="10.00">Celeste/CrumbleBlock.cpp</text>
</a>
</g>
</g>
<!-- Node18&#45;&gt;Node19 -->
<g id="edge22_Node000018_Node000019" class="edge">
<title>Node18&#45;&gt;Node19</title>
<g id="a_edge22_Node000018_Node000019"><a xlink:title=" ">
<path fill="none" stroke="#63b8ff" d="M845.48,-325C841.88,-316.54 837.85,-307.08 834.96,-300.3"/>
<polygon fill="#63b8ff" stroke="#63b8ff" points="842.26,-326.37 849.4,-334.2 848.7,-323.63 842.26,-326.37"/>
</a>
</g>
</g>
<!-- Node20&#45;&gt;Node10 -->
<g id="edge24_Node000020_Node000010" class="edge">
<title>Node20&#45;&gt;Node10</title>
<g id="a_edge24_Node000020_Node000010"><a xlink:title=" ">
<path fill="none" stroke="#63b8ff" d="M1203.72,-330.9C1229.55,-318.42 1257.68,-299.23 1241,-280 1208.2,-242.18 1063.94,-235.36 982.5,-234.6"/>
<polygon fill="#63b8ff" stroke="#63b8ff" points="1202.32,-327.7 1194.68,-335.04 1205.23,-334.06 1202.32,-327.7"/>
</a>
</g>
</g>
<!-- Node21 -->
<g id="Node000021" class="node">
<title>Node21</title>
<g id="a_Node000021"><a xlink:href="_dash_crystal_8cpp.html" target="_top" xlink:title=" ">
<polygon fill="white" stroke="#666666" points="1232.12,-300 1105.88,-300 1105.88,-280 1232.12,-280 1232.12,-300"/>
<text text-anchor="middle" x="1169" y="-286.5" font-family="Helvetica,sans-Serif" font-size="10.00">Celeste/DashCrystal.cpp</text>
</a>
</g>
</g>
<!-- Node20&#45;&gt;Node21 -->
<g id="edge25_Node000020_Node000021" class="edge">
<title>Node20&#45;&gt;Node21</title>
<g id="a_edge25_Node000020_Node000021"><a xlink:title=" ">
<path fill="none" stroke="#63b8ff" d="M1169,-324.13C1169,-315.9 1169,-306.85 1169,-300.3"/>
<polygon fill="#63b8ff" stroke="#63b8ff" points="1165.5,-324.08 1169,-334.08 1172.5,-324.08 1165.5,-324.08"/>
</a>
</g>
</g>
<!-- Node23&#45;&gt;Node10 -->
<g id="edge28_Node000023_Node000010" class="edge">
<title>Node23&#45;&gt;Node10</title>
<g id="a_edge28_Node000023_Node000010"><a xlink:title=" ">
<path fill="none" stroke="#63b8ff" d="M1362.2,-329.88C1383.38,-316.62 1406.33,-296.88 1391,-280 1363.98,-250.24 1099.94,-239.58 982.19,-236.29"/>
<polygon fill="#63b8ff" stroke="#63b8ff" points="1360.56,-326.78 1353.73,-334.88 1364.12,-332.81 1360.56,-326.78"/>
</a>
</g>
</g>
<!-- Node24 -->
<g id="Node000024" class="node">
<title>Node24</title>
<g id="a_Node000024"><a xlink:href="_level_8cpp.html" target="_top" xlink:title=" ">
<polygon fill="white" stroke="#666666" points="1382.38,-300 1287.62,-300 1287.62,-280 1382.38,-280 1382.38,-300"/>
<text text-anchor="middle" x="1335" y="-286.5" font-family="Helvetica,sans-Serif" font-size="10.00">Celeste/Level.cpp</text>
</a>
</g>
</g>
<!-- Node23&#45;&gt;Node24 -->
<g id="edge29_Node000023_Node000024" class="edge">
<title>Node23&#45;&gt;Node24</title>
<g id="a_edge29_Node000023_Node000024"><a xlink:title=" ">
<path fill="none" stroke="#63b8ff" d="M1334.39,-324.13C1334.54,-315.9 1334.71,-306.85 1334.83,-300.3"/>
<polygon fill="#63b8ff" stroke="#63b8ff" points="1330.89,-324.02 1334.2,-334.08 1337.89,-324.15 1330.89,-324.02"/>
</a>
</g>
</g>
<!-- Node25&#45;&gt;Node10 -->
<g id="edge31_Node000025_Node000010" class="edge">
<title>Node25&#45;&gt;Node10</title>
<g id="a_edge31_Node000025_Node000010"><a xlink:title=" ">
<path fill="none" stroke="#63b8ff" d="M444.26,-330.08C471.23,-314.88 515.67,-291.92 557,-280 664.74,-248.93 796.21,-239.3 869.57,-236.33"/>
<polygon fill="#63b8ff" stroke="#63b8ff" points="442.75,-326.91 435.81,-334.92 446.23,-332.98 442.75,-326.91"/>
</a>
</g>
</g>
<!-- Node26 -->
<g id="Node000026" class="node">
<title>Node26</title>
<g id="a_Node000026"><a xlink:href="_respawn_zone_8cpp.html" target="_top" xlink:title=" ">
<polygon fill="white" stroke="#666666" points="488.25,-300 353.75,-300 353.75,-280 488.25,-280 488.25,-300"/>
<text text-anchor="middle" x="421" y="-286.5" font-family="Helvetica,sans-Serif" font-size="10.00">Celeste/RespawnZone.cpp</text>
</a>
</g>
</g>
<!-- Node25&#45;&gt;Node26 -->
<g id="edge32_Node000025_Node000026" class="edge">
<title>Node25&#45;&gt;Node26</title>
<g id="a_edge32_Node000025_Node000026"><a xlink:title=" ">
<path fill="none" stroke="#63b8ff" d="M419.77,-324.13C420.08,-315.9 420.41,-306.85 420.66,-300.3"/>
<polygon fill="#63b8ff" stroke="#63b8ff" points="416.28,-323.96 419.4,-334.08 423.27,-324.22 416.28,-323.96"/>
</a>
</g>
</g>
<!-- Node27&#45;&gt;Node10 -->
<g id="edge34_Node000027_Node000010" class="edge">
<title>Node27&#45;&gt;Node10</title>
<g id="a_edge34_Node000027_Node000010"><a xlink:title=" ">
<path fill="none" stroke="#63b8ff" d="M999.52,-326.9C980.58,-303.22 948.08,-262.6 933.48,-244.35"/>
<polygon fill="#63b8ff" stroke="#63b8ff" points="996.57,-328.82 1005.55,-334.44 1002.04,-324.44 996.57,-328.82"/>
</a>
</g>
</g>
<!-- Node28 -->
<g id="Node000028" class="node">
<title>Node28</title>
<g id="a_Node000028"><a xlink:href="_spike_8cpp.html" target="_top" xlink:title=" ">
<polygon fill="white" stroke="#666666" points="1088.12,-300 991.88,-300 991.88,-280 1088.12,-280 1088.12,-300"/>
<text text-anchor="middle" x="1040" y="-286.5" font-family="Helvetica,sans-Serif" font-size="10.00">Celeste/Spike.cpp</text>
</a>
</g>
</g>
<!-- Node27&#45;&gt;Node28 -->
<g id="edge35_Node000027_Node000028" class="edge">
<title>Node27&#45;&gt;Node28</title>
<g id="a_edge35_Node000027_Node000028"><a xlink:title=" ">
<path fill="none" stroke="#63b8ff" d="M1023.49,-325.29C1027.6,-316.75 1032.22,-307.16 1035.52,-300.3"/>
<polygon fill="#63b8ff" stroke="#63b8ff" points="1020.37,-323.7 1019.19,-334.23 1026.68,-326.74 1020.37,-323.7"/>
</a>
</g>
</g>
<!-- Node29&#45;&gt;Node10 -->
<g id="edge37_Node000029_Node000010" class="edge">
<title>Node29&#45;&gt;Node10</title>
<g id="a_edge37_Node000029_Node000010"><a xlink:title=" ">
<path fill="none" stroke="#63b8ff" d="M276.87,-328.01C292.53,-312.48 318,-290.41 345,-280 439.75,-243.47 743.18,-236.56 869.74,-235.28"/>
<polygon fill="#63b8ff" stroke="#63b8ff" points="274.76,-325.16 270.29,-334.76 279.77,-330.05 274.76,-325.16"/>
</a>
</g>
</g>
<!-- Node30 -->
<g id="Node000030" class="node">
<title>Node30</title>
<g id="a_Node000030"><a xlink:href="_flying_strawberry_8h.html" target="_top" xlink:title=" ">
<polygon fill="white" stroke="#666666" points="161.88,-300 28.12,-300 28.12,-280 161.88,-280 161.88,-300"/>
<text text-anchor="middle" x="95" y="-286.5" font-family="Helvetica,sans-Serif" font-size="10.00">Celeste/FlyingStrawberry.h</text>
</a>
</g>
</g>
<!-- Node29&#45;&gt;Node30 -->
<g id="edge38_Node000029_Node000030" class="edge">
<title>Node29&#45;&gt;Node30</title>
<g id="a_edge38_Node000029_Node000030"><a xlink:title=" ">
<path fill="none" stroke="#63b8ff" d="M221.19,-332.05C191.3,-322.33 151.07,-309.24 124.14,-300.48"/>
<polygon fill="#63b8ff" stroke="#63b8ff" points="220.05,-335.36 230.65,-335.13 222.22,-328.7 220.05,-335.36"/>
</a>
</g>
</g>
<!-- Node32 -->
<g id="Node000032" class="node">
<title>Node32</title>
<g id="a_Node000032"><a xlink:href="_strawberry_8cpp.html" target="_top" xlink:title=" ">
<polygon fill="white" stroke="#666666" points="298,-300 180,-300 180,-280 298,-280 298,-300"/>
<text text-anchor="middle" x="239" y="-286.5" font-family="Helvetica,sans-Serif" font-size="10.00">Celeste/Strawberry.cpp</text>
</a>
</g>
</g>
<!-- Node29&#45;&gt;Node32 -->
<g id="edge41_Node000029_Node000032" class="edge">
<title>Node29&#45;&gt;Node32</title>
<g id="a_edge41_Node000029_Node000032"><a xlink:title=" ">
<path fill="none" stroke="#63b8ff" d="M252.85,-325C249.4,-316.54 245.55,-307.08 242.79,-300.3"/>
<polygon fill="#63b8ff" stroke="#63b8ff" points="249.58,-326.25 256.6,-334.19 256.07,-323.61 249.58,-326.25"/>
</a>
</g>
</g>
<!-- Node30&#45;&gt;Node10 -->
<g id="edge39_Node000030_Node000010" class="edge">
<title>Node30&#45;&gt;Node10</title>
<g id="a_edge39_Node000030_Node000010"><a xlink:title=" ">
<path fill="none" stroke="#63b8ff" d="M173.19,-279.86C440.11,-256.43 745.63,-242.39 869.56,-237.24"/>
<polygon fill="#63b8ff" stroke="#63b8ff" points="173.28,-276.34 163.62,-280.7 173.89,-283.31 173.28,-276.34"/>
</a>
</g>
</g>
<!-- Node31 -->
<g id="Node000031" class="node">
<title>Node31</title>
<g id="a_Node000031"><a xlink:href="_flying_strawberry_8cpp.html" target="_top" xlink:title=" ">
<polygon fill="white" stroke="#666666" points="172.12,-244 27.88,-244 27.88,-224 172.12,-224 172.12,-244"/>
<text text-anchor="middle" x="100" y="-230.5" font-family="Helvetica,sans-Serif" font-size="10.00">Celeste/FlyingStrawberry.cpp</text>
</a>
</g>
</g>
<!-- Node30&#45;&gt;Node31 -->
<g id="edge40_Node000030_Node000031" class="edge">
<title>Node30&#45;&gt;Node31</title>
<g id="a_edge40_Node000030_Node000031"><a xlink:title=" ">
<path fill="none" stroke="#63b8ff" d="M96.93,-268.13C97.69,-259.9 98.53,-250.85 99.14,-244.3"/>
<polygon fill="#63b8ff" stroke="#63b8ff" points="93.45,-267.81 96.01,-278.09 100.42,-268.45 93.45,-267.81"/>
</a>
</g>
</g>
<!-- Node33&#45;&gt;Node10 -->
<g id="edge43_Node000033_Node000010" class="edge">
<title>Node33&#45;&gt;Node10</title>
<g id="a_edge43_Node000033_Node000010"><a xlink:title=" ">
<path fill="none" stroke="#63b8ff" d="M1441.78,-325.14C1435.17,-310.05 1423.84,-290.22 1407,-280 1336.9,-237.48 1093.35,-233.66 982.15,-234.23"/>
<polygon fill="#63b8ff" stroke="#63b8ff" points="1438.4,-326.12 1445.36,-334.1 1444.9,-323.52 1438.4,-326.12"/>
</a>
</g>
</g>
<!-- Node34 -->
<g id="Node000034" class="node">
<title>Node34</title>
<g id="a_Node000034"><a xlink:href="_trampoline_8cpp.html" target="_top" xlink:title=" ">
<polygon fill="white" stroke="#666666" points="1595.75,-300 1476.25,-300 1476.25,-280 1595.75,-280 1595.75,-300"/>
<text text-anchor="middle" x="1536" y="-286.5" font-family="Helvetica,sans-Serif" font-size="10.00">Celeste/Trampoline.cpp</text>
</a>
</g>
</g>
<!-- Node33&#45;&gt;Node34 -->
<g id="edge44_Node000033_Node000034" class="edge">
<title>Node33&#45;&gt;Node34</title>
<g id="a_edge44_Node000033_Node000034"><a xlink:title=" ">
<path fill="none" stroke="#63b8ff" d="M1473.9,-329.54C1489.01,-320.17 1507.8,-308.51 1520.73,-300.48"/>
<polygon fill="#63b8ff" stroke="#63b8ff" points="1472.09,-326.55 1465.44,-334.8 1475.78,-332.5 1472.09,-326.55"/>
</a>
</g>
</g>
<!-- Node37&#45;&gt;Node6 -->
<g id="edge49_Node000037_Node000006" class="edge">
<title>Node37&#45;&gt;Node6</title>
<g id="a_edge49_Node000037_Node000006"><a xlink:title=" ">
<path fill="none" stroke="#63b8ff" d="M985.82,-507.58C978.15,-506.29 970.4,-505.06 963,-504 856.49,-488.81 0,-510.59 0,-403 0,-403 0,-403 0,-177 0,-94.5 1336.96,-71.32 1598.08,-67.58"/>
<polygon fill="#63b8ff" stroke="#63b8ff" points="985,-510.99 995.45,-509.25 986.2,-504.09 985,-510.99"/>
</a>
</g>
</g>
<!-- Node38 -->
<g id="Node000038" class="node">
<title>Node38</title>
<g id="a_Node000038"><a xlink:href="_snow_flake_manager_8cpp.html" target="_top" xlink:title=" ">
<polygon fill="white" stroke="#666666" points="1119.88,-468 962.12,-468 962.12,-448 1119.88,-448 1119.88,-468"/>
<text text-anchor="middle" x="1041" y="-454.5" font-family="Helvetica,sans-Serif" font-size="10.00">Celeste/SnowFlakeManager.cpp</text>
</a>
</g>
</g>
<!-- Node37&#45;&gt;Node38 -->
<g id="edge50_Node000037_Node000038" class="edge">
<title>Node37&#45;&gt;Node38</title>
<g id="a_edge50_Node000037_Node000038"><a xlink:title=" ">
<path fill="none" stroke="#63b8ff" d="M1044.27,-498.25C1043.41,-487.97 1042.42,-476.09 1041.76,-468.11"/>
<polygon fill="#63b8ff" stroke="#63b8ff" points="1040.77,-498.44 1045.09,-508.12 1047.75,-497.86 1040.77,-498.44"/>
</a>
</g>
</g>
<!-- Node39&#45;&gt;Node4 -->
<g id="edge52_Node000039_Node000004" class="edge">
<title>Node39&#45;&gt;Node4</title>
<g id="a_edge52_Node000039_Node000004"><a xlink:title=" ">
<path fill="none" stroke="#63b8ff" d="M1372.69,-562.32C1367.64,-554.6 1362.57,-545.3 1360,-536 1353.43,-512.26 1358.37,-482.87 1361.67,-468.21"/>
<polygon fill="#63b8ff" stroke="#63b8ff" points="1369.83,-564.33 1378.47,-570.47 1375.54,-560.28 1369.83,-564.33"/>
</a>
</g>
</g>
<!-- Node40 -->
<g id="Node000040" class="node">
<title>Node40</title>
<g id="a_Node000040"><a xlink:href="_character_texture_manager_8cpp.html" target="_top" xlink:title=" ">
<polygon fill="white" stroke="#666666" points="1496.88,-536 1369.12,-536 1369.12,-504 1496.88,-504 1496.88,-536"/>
<text text-anchor="start" x="1377.12" y="-522.5" font-family="Helvetica,sans-Serif" font-size="10.00">Celeste/CharacterTexture</text>
<text text-anchor="middle" x="1433" y="-510.5" font-family="Helvetica,sans-Serif" font-size="10.00">Manager.cpp</text>
</a>
</g>
</g>
<!-- Node39&#45;&gt;Node40 -->
<g id="edge53_Node000039_Node000040" class="edge">
<title>Node39&#45;&gt;Node40</title>
<g id="a_edge53_Node000039_Node000040"><a xlink:title=" ">
<path fill="none" stroke="#63b8ff" d="M1401.15,-562.55C1407.64,-554.08 1415.24,-544.16 1421.39,-536.14"/>
<polygon fill="#63b8ff" stroke="#63b8ff" points="1398.42,-560.36 1395.11,-570.42 1403.97,-564.62 1398.42,-560.36"/>
</a>
</g>
</g>
<!-- Node41 -->
<g id="Node000041" class="node">
<title>Node41</title>
<g id="a_Node000041"><a xlink:href="_hair_8cpp.html" target="_top" xlink:title=" ">
<polygon fill="white" stroke="#666666" points="1604.75,-530 1515.25,-530 1515.25,-510 1604.75,-510 1604.75,-530"/>
<text text-anchor="middle" x="1560" y="-516.5" font-family="Helvetica,sans-Serif" font-size="10.00">Celeste/Hair.cpp</text>
</a>
</g>
</g>
<!-- Node39&#45;&gt;Node41 -->
<g id="edge54_Node000039_Node000041" class="edge">
<title>Node39&#45;&gt;Node41</title>
<g id="a_edge54_Node000039_Node000041"><a xlink:title=" ">
<path fill="none" stroke="#63b8ff" d="M1424.53,-567.98C1457.18,-556.66 1503.72,-540.52 1532.87,-530.41"/>
<polygon fill="#63b8ff" stroke="#63b8ff" points="1423.76,-564.55 1415.46,-571.13 1426.06,-571.16 1423.76,-564.55"/>
</a>
</g>
</g>
</g>
</svg>
