<?xml version="1.0" encoding="UTF-8" standalone="no"?>
<!DOCTYPE svg PUBLIC "-//W3C//DTD SVG 1.1//EN"
 "http://www.w3.org/Graphics/SVG/1.1/DTD/svg11.dtd">
<!-- Generated by graphviz version 12.2.1 (20241206.2353)
 -->
<!-- Title: Celeste/Trampoline.cpp Pages: 1 -->
<svg width="996pt" height="588pt"
 viewBox="0.00 0.00 996.08 588.00" xmlns="http://www.w3.org/2000/svg" xmlns:xlink="http://www.w3.org/1999/xlink">
<g id="graph0" class="graph" transform="scale(1 1) rotate(0) translate(4 584)">
<title>Celeste/Trampoline.cpp</title>
<!-- Node1 -->
<g id="Node000001" class="node">
<title>Node1</title>
<g id="a_Node000001"><a xlink:title=" ">
<polygon fill="#999999" stroke="#666666" points="601.08,-580 481.58,-580 481.58,-560 601.08,-560 601.08,-580"/>
<text text-anchor="middle" x="541.33" y="-566.5" font-family="Helvetica,sans-Serif" font-size="10.00">Celeste/Trampoline.cpp</text>
</a>
</g>
</g>
<!-- Node2 -->
<g id="Node000002" class="node">
<title>Node2</title>
<g id="a_Node000002"><a xlink:href="pch_8h.html" target="_top" xlink:title=" ">
<polygon fill="white" stroke="#666666" points="266.33,-132 226.33,-132 226.33,-112 266.33,-112 266.33,-132"/>
<text text-anchor="middle" x="246.33" y="-118.5" font-family="Helvetica,sans-Serif" font-size="10.00">pch.h</text>
</a>
</g>
</g>
<!-- Node1&#45;&gt;Node2 -->
<g id="edge1_Node000001_Node000002" class="edge">
<title>Node1&#45;&gt;Node2</title>
<g id="a_edge1_Node000001_Node000002"><a xlink:title=" ">
<path fill="none" stroke="#63b8ff" d="M481.38,-560.16C391.53,-545.2 232.33,-511.32 232.33,-459 232.33,-459 232.33,-459 232.33,-233 232.33,-201.62 238.01,-165.6 242.13,-143.58"/>
<polygon fill="#63b8ff" stroke="#63b8ff" points="245.55,-144.34 244.03,-133.85 238.68,-142.99 245.55,-144.34"/>
</a>
</g>
</g>
<!-- Node11 -->
<g id="Node000011" class="node">
<title>Node11</title>
<g id="a_Node000011"><a xlink:href="_trampoline_8h.html" target="_top" xlink:title=" ">
<polygon fill="white" stroke="#666666" points="577.45,-524 505.2,-524 505.2,-504 577.45,-504 577.45,-524"/>
<text text-anchor="middle" x="541.33" y="-510.5" font-family="Helvetica,sans-Serif" font-size="10.00">Trampoline.h</text>
</a>
</g>
</g>
<!-- Node1&#45;&gt;Node11 -->
<g id="edge11_Node000001_Node000011" class="edge">
<title>Node1&#45;&gt;Node11</title>
<g id="a_edge11_Node000001_Node000011"><a xlink:title=" ">
<path fill="none" stroke="#63b8ff" d="M541.33,-559.59C541.33,-553.01 541.33,-543.96 541.33,-535.73"/>
<polygon fill="#63b8ff" stroke="#63b8ff" points="544.83,-535.81 541.33,-525.81 537.83,-535.81 544.83,-535.81"/>
</a>
</g>
</g>
<!-- Node25 -->
<g id="Node000025" class="node">
<title>Node25</title>
<g id="a_Node000025"><a xlink:href="_animation_manager_8h.html" target="_top" xlink:title=" ">
<polygon fill="white" stroke="#666666" points="463.95,-244 358.7,-244 358.7,-224 463.95,-224 463.95,-244"/>
<text text-anchor="middle" x="411.33" y="-230.5" font-family="Helvetica,sans-Serif" font-size="10.00">AnimationManager.h</text>
</a>
</g>
</g>
<!-- Node1&#45;&gt;Node25 -->
<g id="edge53_Node000001_Node000025" class="edge">
<title>Node1&#45;&gt;Node25</title>
<g id="a_edge53_Node000001_Node000025"><a xlink:title=" ">
<path fill="none" stroke="#63b8ff" d="M512.14,-559.57C472.99,-544.86 408.33,-512.49 408.33,-459 408.33,-459 408.33,-459 408.33,-345 408.33,-313.86 409.55,-277.78 410.43,-255.67"/>
<polygon fill="#63b8ff" stroke="#63b8ff" points="413.92,-256.06 410.84,-245.93 406.92,-255.77 413.92,-256.06"/>
</a>
</g>
</g>
<!-- Node28 -->
<g id="Node000028" class="node">
<title>Node28</title>
<g id="a_Node000028"><a xlink:href="_sound_effect_8h.html" target="_top" xlink:title=" ">
<polygon fill="white" stroke="#666666" points="988.08,-244 910.58,-244 910.58,-224 988.08,-224 988.08,-244"/>
<text text-anchor="middle" x="949.33" y="-230.5" font-family="Helvetica,sans-Serif" font-size="10.00">SoundEffect.h</text>
</a>
</g>
</g>
<!-- Node1&#45;&gt;Node28 -->
<g id="edge52_Node000001_Node000028" class="edge">
<title>Node1&#45;&gt;Node28</title>
<g id="a_edge52_Node000001_Node000028"><a xlink:title=" ">
<path fill="none" stroke="#63b8ff" d="M601.52,-565.64C717,-557.55 958.33,-531.91 958.33,-459 958.33,-459 958.33,-459 958.33,-345 958.33,-313.77 954.68,-277.71 952.03,-255.63"/>
<polygon fill="#63b8ff" stroke="#63b8ff" points="955.52,-255.38 950.81,-245.9 948.58,-256.26 955.52,-255.38"/>
</a>
</g>
</g>
<!-- Node31 -->
<g id="Node000031" class="node">
<title>Node31</title>
<g id="a_Node000031"><a xlink:title=" ">
<polygon fill="#e0e0e0" stroke="#999999" points="655.08,-412 601.58,-412 601.58,-392 655.08,-392 655.08,-412"/>
<text text-anchor="middle" x="628.33" y="-398.5" font-family="Helvetica,sans-Serif" font-size="10.00">iostream</text>
</a>
</g>
</g>
<!-- Node1&#45;&gt;Node31 -->
<g id="edge54_Node000001_Node000031" class="edge">
<title>Node1&#45;&gt;Node31</title>
<g id="a_edge54_Node000001_Node000031"><a xlink:title=" ">
<path fill="none" stroke="#63b8ff" d="M556.81,-559.57C580.71,-543.98 625.68,-510.32 643.33,-468 649.47,-453.28 644.66,-435.6 638.91,-422.39"/>
<polygon fill="#63b8ff" stroke="#63b8ff" points="642.09,-420.92 634.54,-413.49 635.81,-424 642.09,-420.92"/>
</a>
</g>
</g>
<!-- Node3 -->
<g id="Node000003" class="node">
<title>Node3</title>
<g id="a_Node000003"><a xlink:title=" ">
<polygon fill="#e0e0e0" stroke="#999999" points="347.2,-76 303.45,-76 303.45,-56 347.2,-56 347.2,-76"/>
<text text-anchor="middle" x="325.33" y="-62.5" font-family="Helvetica,sans-Serif" font-size="10.00">SDL.h</text>
</a>
</g>
</g>
<!-- Node2&#45;&gt;Node3 -->
<g id="edge2_Node000002_Node000003" class="edge">
<title>Node2&#45;&gt;Node3</title>
<g id="a_edge2_Node000002_Node000003"><a xlink:title=" ">
<path fill="none" stroke="#63b8ff" d="M260.09,-111.59C271.69,-103.67 288.53,-92.16 302.19,-82.82"/>
<polygon fill="#63b8ff" stroke="#63b8ff" points="303.93,-85.87 310.21,-77.33 299.98,-80.09 303.93,-85.87"/>
</a>
</g>
</g>
<!-- Node4 -->
<g id="Node000004" class="node">
<title>Node4</title>
<g id="a_Node000004"><a xlink:title=" ">
<polygon fill="#e0e0e0" stroke="#999999" points="285.08,-76 207.58,-76 207.58,-56 285.08,-56 285.08,-76"/>
<text text-anchor="middle" x="246.33" y="-62.5" font-family="Helvetica,sans-Serif" font-size="10.00">SDL_opengl.h</text>
</a>
</g>
</g>
<!-- Node2&#45;&gt;Node4 -->
<g id="edge3_Node000002_Node000004" class="edge">
<title>Node2&#45;&gt;Node4</title>
<g id="a_edge3_Node000002_Node000004"><a xlink:title=" ">
<path fill="none" stroke="#63b8ff" d="M246.33,-111.59C246.33,-105.01 246.33,-95.96 246.33,-87.73"/>
<polygon fill="#63b8ff" stroke="#63b8ff" points="249.83,-87.81 246.33,-77.81 242.83,-87.81 249.83,-87.81"/>
</a>
</g>
</g>
<!-- Node5 -->
<g id="Node000005" class="node">
<title>Node5</title>
<g id="a_Node000005"><a xlink:title=" ">
<polygon fill="#e0e0e0" stroke="#999999" points="495.33,-76 437.33,-76 437.33,-56 495.33,-56 495.33,-76"/>
<text text-anchor="middle" x="466.33" y="-62.5" font-family="Helvetica,sans-Serif" font-size="10.00">SDL_ttf.h</text>
</a>
</g>
</g>
<!-- Node2&#45;&gt;Node5 -->
<g id="edge4_Node000002_Node000005" class="edge">
<title>Node2&#45;&gt;Node5</title>
<g id="a_edge4_Node000002_Node000005"><a xlink:title=" ">
<path fill="none" stroke="#63b8ff" d="M266.55,-115.38C270.77,-114.24 275.19,-113.06 279.33,-112 306.69,-104.98 379.54,-87.59 425.82,-76.6"/>
<polygon fill="#63b8ff" stroke="#63b8ff" points="426.58,-80.02 435.5,-74.3 424.96,-73.2 426.58,-80.02"/>
</a>
</g>
</g>
<!-- Node6 -->
<g id="Node000006" class="node">
<title>Node6</title>
<g id="a_Node000006"><a xlink:title=" ">
<polygon fill="#e0e0e0" stroke="#999999" points="96.83,-76 23.83,-76 23.83,-56 96.83,-56 96.83,-76"/>
<text text-anchor="middle" x="60.33" y="-62.5" font-family="Helvetica,sans-Serif" font-size="10.00">SDL_mixer.h</text>
</a>
</g>
</g>
<!-- Node2&#45;&gt;Node6 -->
<g id="edge5_Node000002_Node000006" class="edge">
<title>Node2&#45;&gt;Node6</title>
<g id="a_edge5_Node000002_Node000006"><a xlink:title=" ">
<path fill="none" stroke="#63b8ff" d="M226.07,-115.12C196.93,-106.66 142.47,-90.85 103.94,-79.66"/>
<polygon fill="#63b8ff" stroke="#63b8ff" points="105.07,-76.34 94.49,-76.92 103.12,-83.07 105.07,-76.34"/>
</a>
</g>
</g>
<!-- Node7 -->
<g id="Node000007" class="node">
<title>Node7</title>
<g id="a_Node000007"><a xlink:title=" ">
<polygon fill="#e0e0e0" stroke="#999999" points="189.95,-76 114.7,-76 114.7,-56 189.95,-56 189.95,-76"/>
<text text-anchor="middle" x="152.33" y="-62.5" font-family="Helvetica,sans-Serif" font-size="10.00">SDL_image.h</text>
</a>
</g>
</g>
<!-- Node2&#45;&gt;Node7 -->
<g id="edge6_Node000002_Node000007" class="edge">
<title>Node2&#45;&gt;Node7</title>
<g id="a_edge6_Node000002_Node000007"><a xlink:title=" ">
<path fill="none" stroke="#63b8ff" d="M229.96,-111.59C215.75,-103.44 194.95,-91.48 178.45,-82"/>
<polygon fill="#63b8ff" stroke="#63b8ff" points="180.56,-79.18 170.14,-77.23 177.07,-85.25 180.56,-79.18"/>
</a>
</g>
</g>
<!-- Node8 -->
<g id="Node000008" class="node">
<title>Node8</title>
<g id="a_Node000008"><a xlink:href="structs_8h.html" target="_top" xlink:title=" ">
<polygon fill="white" stroke="#666666" points="419.45,-76 365.2,-76 365.2,-56 419.45,-56 419.45,-76"/>
<text text-anchor="middle" x="392.33" y="-62.5" font-family="Helvetica,sans-Serif" font-size="10.00">structs.h</text>
</a>
</g>
</g>
<!-- Node2&#45;&gt;Node8 -->
<g id="edge7_Node000002_Node000008" class="edge">
<title>Node2&#45;&gt;Node8</title>
<g id="a_edge7_Node000002_Node000008"><a xlink:title=" ">
<path fill="none" stroke="#63b8ff" d="M266.63,-113.49C289.73,-104.95 327.91,-90.82 356.15,-80.38"/>
<polygon fill="#63b8ff" stroke="#63b8ff" points="357.22,-83.72 365.38,-76.97 354.79,-77.15 357.22,-83.72"/>
</a>
</g>
</g>
<!-- Node9 -->
<g id="Node000009" class="node">
<title>Node9</title>
<g id="a_Node000009"><a xlink:title=" ">
<polygon fill="#e0e0e0" stroke="#999999" points="899.33,-20 859.33,-20 859.33,0 899.33,0 899.33,-20"/>
<text text-anchor="middle" x="879.33" y="-6.5" font-family="Helvetica,sans-Serif" font-size="10.00">string</text>
</a>
</g>
</g>
<!-- Node8&#45;&gt;Node9 -->
<g id="edge8_Node000008_Node000009" class="edge">
<title>Node8&#45;&gt;Node9</title>
<g id="a_edge8_Node000008_Node000009"><a xlink:title=" ">
<path fill="none" stroke="#63b8ff" d="M419.76,-57.71C422.64,-57.07 425.54,-56.49 428.33,-56 584.38,-28.86 773.86,-16.58 847.72,-12.57"/>
<polygon fill="#63b8ff" stroke="#63b8ff" points="847.65,-16.08 857.45,-12.05 847.28,-9.09 847.65,-16.08"/>
</a>
</g>
</g>
<!-- Node10 -->
<g id="Node000010" class="node">
<title>Node10</title>
<g id="a_Node000010"><a xlink:href="_vector2f_8h.html" target="_top" xlink:title=" ">
<polygon fill="white" stroke="#666666" points="422.45,-20 362.2,-20 362.2,0 422.45,0 422.45,-20"/>
<text text-anchor="middle" x="392.33" y="-6.5" font-family="Helvetica,sans-Serif" font-size="10.00">Vector2f.h</text>
</a>
</g>
</g>
<!-- Node8&#45;&gt;Node10 -->
<g id="edge9_Node000008_Node000010" class="edge">
<title>Node8&#45;&gt;Node10</title>
<g id="a_edge9_Node000008_Node000010"><a xlink:title=" ">
<path fill="none" stroke="#63b8ff" d="M387.06,-55.59C385.74,-49.01 385.3,-39.96 385.74,-31.73"/>
<polygon fill="#63b8ff" stroke="#63b8ff" points="389.22,-32.14 386.91,-21.8 382.27,-31.33 389.22,-32.14"/>
</a>
</g>
</g>
<!-- Node10&#45;&gt;Node8 -->
<g id="edge10_Node000010_Node000008" class="edge">
<title>Node10&#45;&gt;Node8</title>
<g id="a_edge10_Node000010_Node000008"><a xlink:title=" ">
<path fill="none" stroke="#63b8ff" d="M397.57,-20.3C398.92,-26.93 399.36,-36.11 398.91,-44.43"/>
<polygon fill="#63b8ff" stroke="#63b8ff" points="395.46,-43.75 397.77,-54.09 402.41,-44.57 395.46,-43.75"/>
</a>
</g>
</g>
<!-- Node12 -->
<g id="Node000012" class="node">
<title>Node12</title>
<g id="a_Node000012"><a xlink:href="_interactable_item_8h.html" target="_top" xlink:title=" ">
<polygon fill="white" stroke="#666666" points="535.7,-468 440.95,-468 440.95,-448 535.7,-448 535.7,-468"/>
<text text-anchor="middle" x="488.33" y="-454.5" font-family="Helvetica,sans-Serif" font-size="10.00">InteractableItem.h</text>
</a>
</g>
</g>
<!-- Node11&#45;&gt;Node12 -->
<g id="edge12_Node000011_Node000012" class="edge">
<title>Node11&#45;&gt;Node12</title>
<g id="a_edge12_Node000011_Node000012"><a xlink:title=" ">
<path fill="none" stroke="#63b8ff" d="M532.1,-503.59C524.72,-496.08 514.2,-485.35 505.31,-476.3"/>
<polygon fill="#63b8ff" stroke="#63b8ff" points="508.02,-474.06 498.52,-469.38 503.02,-478.97 508.02,-474.06"/>
</a>
</g>
</g>
<!-- Node30 -->
<g id="Node000030" class="node">
<title>Node30</title>
<g id="a_Node000030"><a xlink:href="_counted_item_8h.html" target="_top" xlink:title=" ">
<polygon fill="white" stroke="#666666" points="634.58,-468 554.08,-468 554.08,-448 634.58,-448 634.58,-468"/>
<text text-anchor="middle" x="594.33" y="-454.5" font-family="Helvetica,sans-Serif" font-size="10.00">CountedItem.h</text>
</a>
</g>
</g>
<!-- Node11&#45;&gt;Node30 -->
<g id="edge50_Node000011_Node000030" class="edge">
<title>Node11&#45;&gt;Node30</title>
<g id="a_edge50_Node000011_Node000030"><a xlink:title=" ">
<path fill="none" stroke="#63b8ff" d="M550.56,-503.59C557.93,-496.08 568.46,-485.35 577.35,-476.3"/>
<polygon fill="#63b8ff" stroke="#63b8ff" points="579.64,-478.97 584.14,-469.38 574.64,-474.06 579.64,-478.97"/>
</a>
</g>
</g>
<!-- Node13 -->
<g id="Node000013" class="node">
<title>Node13</title>
<g id="a_Node000013"><a xlink:href="_character_8h.html" target="_top" xlink:title=" ">
<polygon fill="white" stroke="#666666" points="557.83,-412 490.83,-412 490.83,-392 557.83,-392 557.83,-412"/>
<text text-anchor="middle" x="524.33" y="-398.5" font-family="Helvetica,sans-Serif" font-size="10.00">Character.h</text>
</a>
</g>
</g>
<!-- Node12&#45;&gt;Node13 -->
<g id="edge13_Node000012_Node000013" class="edge">
<title>Node12&#45;&gt;Node13</title>
<g id="a_edge13_Node000012_Node000013"><a xlink:title=" ">
<path fill="none" stroke="#63b8ff" d="M494.6,-447.59C499.35,-440.47 506.03,-430.45 511.85,-421.72"/>
<polygon fill="#63b8ff" stroke="#63b8ff" points="514.66,-423.82 517.29,-413.56 508.83,-419.94 514.66,-423.82"/>
</a>
</g>
</g>
<!-- Node14 -->
<g id="Node000014" class="node">
<title>Node14</title>
<g id="a_Node000014"><a xlink:href="_character_controller_8h.html" target="_top" xlink:title=" ">
<polygon fill="white" stroke="#666666" points="552.83,-356 443.83,-356 443.83,-336 552.83,-336 552.83,-356"/>
<text text-anchor="middle" x="498.33" y="-342.5" font-family="Helvetica,sans-Serif" font-size="10.00">CharacterController.h</text>
</a>
</g>
</g>
<!-- Node13&#45;&gt;Node14 -->
<g id="edge14_Node000013_Node000014" class="edge">
<title>Node13&#45;&gt;Node14</title>
<g id="a_edge14_Node000013_Node000014"><a xlink:title=" ">
<path fill="none" stroke="#63b8ff" d="M519.8,-391.59C516.48,-384.7 511.86,-375.1 507.75,-366.57"/>
<polygon fill="#63b8ff" stroke="#63b8ff" points="510.95,-365.15 503.46,-357.66 504.65,-368.19 510.95,-365.15"/>
</a>
</g>
</g>
<!-- Node21 -->
<g id="Node000021" class="node">
<title>Node21</title>
<g id="a_Node000021"><a xlink:href="_hair_8h.html" target="_top" xlink:title=" ">
<polygon fill="white" stroke="#666666" points="340.45,-244 298.2,-244 298.2,-224 340.45,-224 340.45,-244"/>
<text text-anchor="middle" x="319.33" y="-230.5" font-family="Helvetica,sans-Serif" font-size="10.00">Hair.h</text>
</a>
</g>
</g>
<!-- Node13&#45;&gt;Node21 -->
<g id="edge30_Node000013_Node000021" class="edge">
<title>Node13&#45;&gt;Node21</title>
<g id="a_edge30_Node000013_Node000021"><a xlink:title=" ">
<path fill="none" stroke="#63b8ff" d="M490.4,-397.68C437.29,-390.45 335.97,-368 291.33,-300 281.58,-285.14 291.78,-266.33 302.5,-252.77"/>
<polygon fill="#63b8ff" stroke="#63b8ff" points="304.91,-255.34 308.78,-245.48 299.6,-250.77 304.91,-255.34"/>
</a>
</g>
</g>
<!-- Node23 -->
<g id="Node000023" class="node">
<title>Node23</title>
<g id="a_Node000023"><a xlink:href="_character_texture_manager_8h.html" target="_top" xlink:title=" ">
<polygon fill="white" stroke="#666666" points="708.7,-356 571.95,-356 571.95,-336 708.7,-336 708.7,-356"/>
<text text-anchor="middle" x="640.33" y="-342.5" font-family="Helvetica,sans-Serif" font-size="10.00">CharacterTextureManager.h</text>
</a>
</g>
</g>
<!-- Node13&#45;&gt;Node23 -->
<g id="edge35_Node000013_Node000023" class="edge">
<title>Node13&#45;&gt;Node23</title>
<g id="a_edge35_Node000013_Node000023"><a xlink:title=" ">
<path fill="none" stroke="#63b8ff" d="M544.53,-391.59C562.55,-383.21 589.2,-370.8 609.81,-361.21"/>
<polygon fill="#63b8ff" stroke="#63b8ff" points="611,-364.51 618.59,-357.12 608.05,-358.17 611,-364.51"/>
</a>
</g>
</g>
<!-- Node26 -->
<g id="Node000026" class="node">
<title>Node26</title>
<g id="a_Node000026"><a xlink:href="_character_state_8h.html" target="_top" xlink:title=" ">
<polygon fill="white" stroke="#666666" points="854.45,-300 764.2,-300 764.2,-280 854.45,-280 854.45,-300"/>
<text text-anchor="middle" x="809.33" y="-286.5" font-family="Helvetica,sans-Serif" font-size="10.00">CharacterState.h</text>
</a>
</g>
</g>
<!-- Node13&#45;&gt;Node26 -->
<g id="edge42_Node000013_Node000026" class="edge">
<title>Node13&#45;&gt;Node26</title>
<g id="a_edge42_Node000013_Node000026"><a xlink:title=" ">
<path fill="none" stroke="#63b8ff" d="M558.02,-397.15C597.56,-391.73 664.44,-379.75 717.33,-356 744.98,-343.58 772.87,-322.38 790.57,-307.58"/>
<polygon fill="#63b8ff" stroke="#63b8ff" points="792.37,-310.64 797.7,-301.48 787.83,-305.32 792.37,-310.64"/>
</a>
</g>
</g>
<!-- Node27 -->
<g id="Node000027" class="node">
<title>Node27</title>
<g id="a_Node000027"><a xlink:href="_character_sound_manager_8h.html" target="_top" xlink:title=" ">
<polygon fill="white" stroke="#666666" points="920.45,-356 788.2,-356 788.2,-336 920.45,-336 920.45,-356"/>
<text text-anchor="middle" x="854.33" y="-342.5" font-family="Helvetica,sans-Serif" font-size="10.00">CharacterSoundManager.h</text>
</a>
</g>
</g>
<!-- Node13&#45;&gt;Node27 -->
<g id="edge43_Node000013_Node000027" class="edge">
<title>Node13&#45;&gt;Node27</title>
<g id="a_edge43_Node000013_Node000027"><a xlink:title=" ">
<path fill="none" stroke="#63b8ff" d="M558.09,-395.47C611.23,-386.78 715.48,-369.72 785.04,-358.34"/>
<polygon fill="#63b8ff" stroke="#63b8ff" points="785.52,-361.81 794.82,-356.74 784.39,-354.9 785.52,-361.81"/>
</a>
</g>
</g>
<!-- Node15 -->
<g id="Node000015" class="node">
<title>Node15</title>
<g id="a_Node000015"><a xlink:href="_game_object_8h.html" target="_top" xlink:title=" ">
<polygon fill="white" stroke="#666666" points="379.83,-300 300.83,-300 300.83,-280 379.83,-280 379.83,-300"/>
<text text-anchor="middle" x="340.33" y="-286.5" font-family="Helvetica,sans-Serif" font-size="10.00">GameObject.h</text>
</a>
</g>
</g>
<!-- Node14&#45;&gt;Node15 -->
<g id="edge15_Node000014_Node000015" class="edge">
<title>Node14&#45;&gt;Node15</title>
<g id="a_edge15_Node000014_Node000015"><a xlink:title=" ">
<path fill="none" stroke="#63b8ff" d="M470.81,-335.59C445.36,-326.9 407.3,-313.89 378.84,-304.16"/>
<polygon fill="#63b8ff" stroke="#63b8ff" points="380.09,-300.89 369.5,-300.97 377.83,-307.52 380.09,-300.89"/>
</a>
</g>
</g>
<!-- Node18 -->
<g id="Node000018" class="node">
<title>Node18</title>
<g id="a_Node000018"><a xlink:href="_vector2x2f_8h.html" target="_top" xlink:title=" ">
<polygon fill="white" stroke="#666666" points="506.7,-300 435.95,-300 435.95,-280 506.7,-280 506.7,-300"/>
<text text-anchor="middle" x="471.33" y="-286.5" font-family="Helvetica,sans-Serif" font-size="10.00">Vector2x2f.h</text>
</a>
</g>
</g>
<!-- Node14&#45;&gt;Node18 -->
<g id="edge25_Node000014_Node000018" class="edge">
<title>Node14&#45;&gt;Node18</title>
<g id="a_edge25_Node000014_Node000018"><a xlink:title=" ">
<path fill="none" stroke="#63b8ff" d="M493.63,-335.59C490.18,-328.7 485.38,-319.1 481.12,-310.57"/>
<polygon fill="#63b8ff" stroke="#63b8ff" points="484.26,-309.03 476.65,-301.65 478,-312.16 484.26,-309.03"/>
</a>
</g>
</g>
<!-- Node20 -->
<g id="Node000020" class="node">
<title>Node20</title>
<g id="a_Node000020"><a xlink:title=" ">
<polygon fill="#e0e0e0" stroke="#999999" points="621.83,-188 578.83,-188 578.83,-168 621.83,-168 621.83,-188"/>
<text text-anchor="middle" x="600.33" y="-174.5" font-family="Helvetica,sans-Serif" font-size="10.00">vector</text>
</a>
</g>
</g>
<!-- Node14&#45;&gt;Node20 -->
<g id="edge29_Node000014_Node000020" class="edge">
<title>Node14&#45;&gt;Node20</title>
<g id="a_edge29_Node000014_Node000020"><a xlink:title=" ">
<path fill="none" stroke="#63b8ff" d="M504.1,-335.6C520.37,-309.12 566.82,-233.54 588.68,-197.96"/>
<polygon fill="#63b8ff" stroke="#63b8ff" points="591.57,-199.94 593.82,-189.59 585.61,-196.27 591.57,-199.94"/>
</a>
</g>
</g>
<!-- Node16 -->
<g id="Node000016" class="node">
<title>Node16</title>
<g id="a_Node000016"><a xlink:href="_transform_8h.html" target="_top" xlink:title=" ">
<polygon fill="white" stroke="#666666" points="328.58,-188 260.08,-188 260.08,-168 328.58,-168 328.58,-188"/>
<text text-anchor="middle" x="294.33" y="-174.5" font-family="Helvetica,sans-Serif" font-size="10.00">Transform.h</text>
</a>
</g>
</g>
<!-- Node15&#45;&gt;Node16 -->
<g id="edge16_Node000015_Node000016" class="edge">
<title>Node15&#45;&gt;Node16</title>
<g id="a_edge16_Node000015_Node000016"><a xlink:title=" ">
<path fill="none" stroke="#63b8ff" d="M323.6,-279.6C311.59,-271.8 296.32,-259.5 289.33,-244 282.98,-229.94 284.81,-212.43 287.91,-199.13"/>
<polygon fill="#63b8ff" stroke="#63b8ff" points="291.2,-200.34 290.51,-189.77 284.46,-198.47 291.2,-200.34"/>
</a>
</g>
</g>
<!-- Node16&#45;&gt;Node10 -->
<g id="edge24_Node000016_Node000010" class="edge">
<title>Node16&#45;&gt;Node10</title>
<g id="a_edge24_Node000016_Node000010"><a xlink:title=" ">
<path fill="none" stroke="#63b8ff" d="M259.81,-174.44C170.09,-166.56 -58.55,-138.06 14.33,-56 36.37,-31.18 256.63,-17.6 350.41,-12.91"/>
<polygon fill="#63b8ff" stroke="#63b8ff" points="350.39,-16.41 360.21,-12.43 350.05,-9.42 350.39,-16.41"/>
</a>
</g>
</g>
<!-- Node17 -->
<g id="Node000017" class="node">
<title>Node17</title>
<g id="a_Node000017"><a xlink:href="base_8h.html" target="_top" xlink:title=" ">
<polygon fill="white" stroke="#666666" points="333.95,-132 288.7,-132 288.7,-112 333.95,-112 333.95,-132"/>
<text text-anchor="middle" x="311.33" y="-118.5" font-family="Helvetica,sans-Serif" font-size="10.00">base.h</text>
</a>
</g>
</g>
<!-- Node16&#45;&gt;Node17 -->
<g id="edge17_Node000016_Node000017" class="edge">
<title>Node16&#45;&gt;Node17</title>
<g id="a_edge17_Node000016_Node000017"><a xlink:title=" ">
<path fill="none" stroke="#63b8ff" d="M297.29,-167.59C299.41,-160.86 302.35,-151.53 304.98,-143.15"/>
<polygon fill="#63b8ff" stroke="#63b8ff" points="308.28,-144.33 307.95,-133.74 301.61,-142.23 308.28,-144.33"/>
</a>
</g>
</g>
<!-- Node17&#45;&gt;Node3 -->
<g id="edge18_Node000017_Node000003" class="edge">
<title>Node17&#45;&gt;Node3</title>
<g id="a_edge18_Node000017_Node000003"><a xlink:title=" ">
<path fill="none" stroke="#63b8ff" d="M313.77,-111.59C315.49,-104.93 317.88,-95.75 320.03,-87.44"/>
<polygon fill="#63b8ff" stroke="#63b8ff" points="323.42,-88.32 322.54,-77.76 316.64,-86.56 323.42,-88.32"/>
</a>
</g>
</g>
<!-- Node17&#45;&gt;Node4 -->
<g id="edge19_Node000017_Node000004" class="edge">
<title>Node17&#45;&gt;Node4</title>
<g id="a_edge19_Node000017_Node000004"><a xlink:title=" ">
<path fill="none" stroke="#63b8ff" d="M300.01,-111.59C290.69,-103.85 277.25,-92.69 266.15,-83.47"/>
<polygon fill="#63b8ff" stroke="#63b8ff" points="268.61,-80.96 258.69,-77.27 264.14,-86.35 268.61,-80.96"/>
</a>
</g>
</g>
<!-- Node17&#45;&gt;Node5 -->
<g id="edge20_Node000017_Node000005" class="edge">
<title>Node17&#45;&gt;Node5</title>
<g id="a_edge20_Node000017_Node000005"><a xlink:title=" ">
<path fill="none" stroke="#63b8ff" d="M334.2,-113.03C358.99,-104.4 398.96,-90.47 428.45,-80.2"/>
<polygon fill="#63b8ff" stroke="#63b8ff" points="429.46,-83.55 437.76,-76.95 427.16,-76.94 429.46,-83.55"/>
</a>
</g>
</g>
<!-- Node17&#45;&gt;Node6 -->
<g id="edge21_Node000017_Node000006" class="edge">
<title>Node17&#45;&gt;Node6</title>
<g id="a_edge21_Node000017_Node000006"><a xlink:title=" ">
<path fill="none" stroke="#63b8ff" d="M288.51,-115.15C284.14,-114.07 279.6,-112.98 275.33,-112 244.16,-104.85 161.57,-87.75 108.3,-76.82"/>
<polygon fill="#63b8ff" stroke="#63b8ff" points="109.06,-73.4 98.56,-74.82 107.65,-80.26 109.06,-73.4"/>
</a>
</g>
</g>
<!-- Node17&#45;&gt;Node7 -->
<g id="edge22_Node000017_Node000007" class="edge">
<title>Node17&#45;&gt;Node7</title>
<g id="a_edge22_Node000017_Node000007"><a xlink:title=" ">
<path fill="none" stroke="#63b8ff" d="M288.21,-113.15C262.74,-104.5 221.37,-90.45 190.96,-80.12"/>
<polygon fill="#63b8ff" stroke="#63b8ff" points="192.33,-76.89 181.73,-76.99 190.08,-83.52 192.33,-76.89"/>
</a>
</g>
</g>
<!-- Node17&#45;&gt;Node8 -->
<g id="edge23_Node000017_Node000008" class="edge">
<title>Node17&#45;&gt;Node8</title>
<g id="a_edge23_Node000017_Node000008"><a xlink:title=" ">
<path fill="none" stroke="#63b8ff" d="M325.44,-111.59C337.33,-103.67 354.59,-92.16 368.61,-82.82"/>
<polygon fill="#63b8ff" stroke="#63b8ff" points="370.47,-85.78 376.85,-77.32 366.59,-79.95 370.47,-85.78"/>
</a>
</g>
</g>
<!-- Node19 -->
<g id="Node000019" class="node">
<title>Node19</title>
<g id="a_Node000019"><a xlink:href="utils_8h.html" target="_top" xlink:title=" ">
<polygon fill="white" stroke="#666666" points="524.45,-244 482.2,-244 482.2,-224 524.45,-224 524.45,-244"/>
<text text-anchor="middle" x="503.33" y="-230.5" font-family="Helvetica,sans-Serif" font-size="10.00">utils.h</text>
</a>
</g>
</g>
<!-- Node18&#45;&gt;Node19 -->
<g id="edge26_Node000018_Node000019" class="edge">
<title>Node18&#45;&gt;Node19</title>
<g id="a_edge26_Node000018_Node000019"><a xlink:title=" ">
<path fill="none" stroke="#63b8ff" d="M476.9,-279.59C481.08,-272.55 486.93,-262.67 492.07,-254"/>
<polygon fill="#63b8ff" stroke="#63b8ff" points="494.96,-255.99 497.05,-245.6 488.94,-252.42 494.96,-255.99"/>
</a>
</g>
</g>
<!-- Node19&#45;&gt;Node10 -->
<g id="edge28_Node000019_Node000010" class="edge">
<title>Node19&#45;&gt;Node10</title>
<g id="a_edge28_Node000019_Node000010"><a xlink:title=" ">
<path fill="none" stroke="#63b8ff" d="M506.64,-223.89C516.18,-195.94 540.81,-109.97 504.33,-56 488.66,-32.81 458.86,-21.57 433.93,-16.12"/>
<polygon fill="#63b8ff" stroke="#63b8ff" points="434.86,-12.74 424.38,-14.29 433.54,-19.61 434.86,-12.74"/>
</a>
</g>
</g>
<!-- Node19&#45;&gt;Node20 -->
<g id="edge27_Node000019_Node000020" class="edge">
<title>Node19&#45;&gt;Node20</title>
<g id="a_edge27_Node000019_Node000020"><a xlink:title=" ">
<path fill="none" stroke="#63b8ff" d="M520.22,-223.59C534.88,-215.44 556.35,-203.48 573.38,-194"/>
<polygon fill="#63b8ff" stroke="#63b8ff" points="574.94,-197.14 581.98,-189.22 571.54,-191.02 574.94,-197.14"/>
</a>
</g>
</g>
<!-- Node21&#45;&gt;Node16 -->
<g id="edge31_Node000021_Node000016" class="edge">
<title>Node21&#45;&gt;Node16</title>
<g id="a_edge31_Node000021_Node000016"><a xlink:title=" ">
<path fill="none" stroke="#63b8ff" d="M314.97,-223.59C311.78,-216.7 307.34,-207.1 303.39,-198.57"/>
<polygon fill="#63b8ff" stroke="#63b8ff" points="306.65,-197.28 299.27,-189.67 300.29,-200.22 306.65,-197.28"/>
</a>
</g>
</g>
<!-- Node21&#45;&gt;Node20 -->
<g id="edge32_Node000021_Node000020" class="edge">
<title>Node21&#45;&gt;Node20</title>
<g id="a_edge32_Node000021_Node000020"><a xlink:title=" ">
<path fill="none" stroke="#63b8ff" d="M340.88,-226.21C343.71,-225.42 346.58,-224.66 349.33,-224 426.54,-205.56 518.72,-190.88 567.03,-183.73"/>
<polygon fill="#63b8ff" stroke="#63b8ff" points="567.45,-187.21 576.83,-182.3 566.43,-180.28 567.45,-187.21"/>
</a>
</g>
</g>
<!-- Node22 -->
<g id="Node000022" class="node">
<title>Node22</title>
<g id="a_Node000022"><a xlink:href="_texture_8h.html" target="_top" xlink:title=" ">
<polygon fill="white" stroke="#666666" points="403.58,-188 347.08,-188 347.08,-168 403.58,-168 403.58,-188"/>
<text text-anchor="middle" x="375.33" y="-174.5" font-family="Helvetica,sans-Serif" font-size="10.00">Texture.h</text>
</a>
</g>
</g>
<!-- Node21&#45;&gt;Node22 -->
<g id="edge33_Node000021_Node000022" class="edge">
<title>Node21&#45;&gt;Node22</title>
<g id="a_edge33_Node000021_Node000022"><a xlink:title=" ">
<path fill="none" stroke="#63b8ff" d="M329.08,-223.59C336.95,-216.01 348.23,-205.13 357.67,-196.02"/>
<polygon fill="#63b8ff" stroke="#63b8ff" points="359.83,-198.81 364.6,-189.35 354.97,-193.77 359.83,-198.81"/>
</a>
</g>
</g>
<!-- Node22&#45;&gt;Node17 -->
<g id="edge34_Node000022_Node000017" class="edge">
<title>Node22&#45;&gt;Node17</title>
<g id="a_edge34_Node000022_Node000017"><a xlink:title=" ">
<path fill="none" stroke="#63b8ff" d="M364.18,-167.59C355,-159.85 341.77,-148.69 330.85,-139.47"/>
<polygon fill="#63b8ff" stroke="#63b8ff" points="333.41,-137.05 323.51,-133.27 328.89,-142.4 333.41,-137.05"/>
</a>
</g>
</g>
<!-- Node23&#45;&gt;Node20 -->
<g id="edge41_Node000023_Node000020" class="edge">
<title>Node23&#45;&gt;Node20</title>
<g id="a_edge41_Node000023_Node000020"><a xlink:title=" ">
<path fill="none" stroke="#63b8ff" d="M667.77,-335.7C694.04,-325.07 728.05,-305.76 716.33,-280 698.4,-240.61 656.67,-210.61 628.46,-193.9"/>
<polygon fill="#63b8ff" stroke="#63b8ff" points="630.49,-191.02 620.07,-189.1 627.02,-197.1 630.49,-191.02"/>
</a>
</g>
</g>
<!-- Node24 -->
<g id="Node000024" class="node">
<title>Node24</title>
<g id="a_Node000024"><a xlink:href="_animation_manager_a_n_d_hair_8h.html" target="_top" xlink:title=" ">
<polygon fill="white" stroke="#666666" points="707.83,-300 562.83,-300 562.83,-280 707.83,-280 707.83,-300"/>
<text text-anchor="middle" x="635.33" y="-286.5" font-family="Helvetica,sans-Serif" font-size="10.00">AnimationManagerANDHair.h</text>
</a>
</g>
</g>
<!-- Node23&#45;&gt;Node24 -->
<g id="edge36_Node000023_Node000024" class="edge">
<title>Node23&#45;&gt;Node24</title>
<g id="a_edge36_Node000023_Node000024"><a xlink:title=" ">
<path fill="none" stroke="#63b8ff" d="M639.46,-335.59C638.85,-329.01 638.01,-319.96 637.25,-311.73"/>
<polygon fill="#63b8ff" stroke="#63b8ff" points="640.74,-311.44 636.33,-301.81 633.77,-312.09 640.74,-311.44"/>
</a>
</g>
</g>
<!-- Node23&#45;&gt;Node26 -->
<g id="edge40_Node000023_Node000026" class="edge">
<title>Node23&#45;&gt;Node26</title>
<g id="a_edge40_Node000023_Node000026"><a xlink:title=" ">
<path fill="none" stroke="#63b8ff" d="M669.77,-335.59C697.22,-326.82 738.42,-313.66 768.94,-303.9"/>
<polygon fill="#63b8ff" stroke="#63b8ff" points="769.76,-307.32 778.22,-300.94 767.63,-300.65 769.76,-307.32"/>
</a>
</g>
</g>
<!-- Node24&#45;&gt;Node20 -->
<g id="edge39_Node000024_Node000020" class="edge">
<title>Node24&#45;&gt;Node20</title>
<g id="a_edge39_Node000024_Node000020"><a xlink:title=" ">
<path fill="none" stroke="#63b8ff" d="M632.34,-279.62C626.71,-261.92 614.4,-223.24 606.8,-199.32"/>
<polygon fill="#63b8ff" stroke="#63b8ff" points="610.13,-198.27 603.76,-189.8 603.46,-200.39 610.13,-198.27"/>
</a>
</g>
</g>
<!-- Node24&#45;&gt;Node25 -->
<g id="edge37_Node000024_Node000025" class="edge">
<title>Node24&#45;&gt;Node25</title>
<g id="a_edge37_Node000024_Node000025"><a xlink:title=" ">
<path fill="none" stroke="#63b8ff" d="M596.05,-279.53C558.67,-270.52 502.23,-256.91 461.58,-247.11"/>
<polygon fill="#63b8ff" stroke="#63b8ff" points="462.57,-243.75 452.03,-244.81 460.93,-250.56 462.57,-243.75"/>
</a>
</g>
</g>
<!-- Node25&#45;&gt;Node22 -->
<g id="edge38_Node000025_Node000022" class="edge">
<title>Node25&#45;&gt;Node22</title>
<g id="a_edge38_Node000025_Node000022"><a xlink:title=" ">
<path fill="none" stroke="#63b8ff" d="M405.06,-223.59C400.31,-216.47 393.63,-206.45 387.81,-197.72"/>
<polygon fill="#63b8ff" stroke="#63b8ff" points="390.83,-195.94 382.37,-189.56 385,-199.82 390.83,-195.94"/>
</a>
</g>
</g>
<!-- Node27&#45;&gt;Node26 -->
<g id="edge44_Node000027_Node000026" class="edge">
<title>Node27&#45;&gt;Node26</title>
<g id="a_edge44_Node000027_Node000026"><a xlink:title=" ">
<path fill="none" stroke="#63b8ff" d="M846.49,-335.59C840.36,-328.24 831.66,-317.8 824.22,-308.87"/>
<polygon fill="#63b8ff" stroke="#63b8ff" points="827.14,-306.9 818.05,-301.46 821.76,-311.38 827.14,-306.9"/>
</a>
</g>
</g>
<!-- Node27&#45;&gt;Node28 -->
<g id="edge45_Node000027_Node000028" class="edge">
<title>Node27&#45;&gt;Node28</title>
<g id="a_edge45_Node000027_Node000028"><a xlink:title=" ">
<path fill="none" stroke="#63b8ff" d="M863.53,-335.52C872.17,-326.52 885.37,-312.56 896.33,-300 909.76,-284.61 924.38,-266.58 934.86,-253.41"/>
<polygon fill="#63b8ff" stroke="#63b8ff" points="937.57,-255.62 941.03,-245.61 932.08,-251.28 937.57,-255.62"/>
</a>
</g>
</g>
<!-- Node29 -->
<g id="Node000029" class="node">
<title>Node29</title>
<g id="a_Node000029"><a xlink:href="_sound_stream_8h.html" target="_top" xlink:title=" ">
<polygon fill="white" stroke="#666666" points="921.08,-132 837.58,-132 837.58,-112 921.08,-112 921.08,-132"/>
<text text-anchor="middle" x="879.33" y="-118.5" font-family="Helvetica,sans-Serif" font-size="10.00">SoundStream.h</text>
</a>
</g>
</g>
<!-- Node27&#45;&gt;Node29 -->
<g id="edge48_Node000027_Node000029" class="edge">
<title>Node27&#45;&gt;Node29</title>
<g id="a_edge48_Node000027_Node000029"><a xlink:title=" ">
<path fill="none" stroke="#63b8ff" d="M856.48,-335.74C858.52,-326.68 861.53,-312.46 863.33,-300 871.49,-243.66 876.2,-176.59 878.19,-143.52"/>
<polygon fill="#63b8ff" stroke="#63b8ff" points="881.67,-143.95 878.76,-133.77 874.68,-143.55 881.67,-143.95"/>
</a>
</g>
</g>
<!-- Node28&#45;&gt;Node9 -->
<g id="edge46_Node000028_Node000009" class="edge">
<title>Node28&#45;&gt;Node9</title>
<g id="a_edge46_Node000028_Node000009"><a xlink:title=" ">
<path fill="none" stroke="#63b8ff" d="M948.85,-223.67C947.59,-203.05 943.31,-152.28 930.33,-112 920.62,-81.87 902.92,-49.65 891.14,-29.91"/>
<polygon fill="#63b8ff" stroke="#63b8ff" points="894.28,-28.33 886.09,-21.61 888.3,-31.97 894.28,-28.33"/>
</a>
</g>
</g>
<!-- Node28&#45;&gt;Node20 -->
<g id="edge47_Node000028_Node000020" class="edge">
<title>Node28&#45;&gt;Node20</title>
<g id="a_edge47_Node000028_Node000020"><a xlink:title=" ">
<path fill="none" stroke="#63b8ff" d="M910.31,-226.96C840.99,-216.24 697.58,-194.05 633.05,-184.06"/>
<polygon fill="#63b8ff" stroke="#63b8ff" points="633.87,-180.65 623.45,-182.58 632.8,-187.57 633.87,-180.65"/>
</a>
</g>
</g>
<!-- Node29&#45;&gt;Node9 -->
<g id="edge49_Node000029_Node000009" class="edge">
<title>Node29&#45;&gt;Node9</title>
<g id="a_edge49_Node000029_Node000009"><a xlink:title=" ">
<path fill="none" stroke="#63b8ff" d="M879.33,-111.62C879.33,-94.01 879.33,-55.59 879.33,-31.65"/>
<polygon fill="#63b8ff" stroke="#63b8ff" points="882.83,-31.87 879.33,-21.87 875.83,-31.87 882.83,-31.87"/>
</a>
</g>
</g>
<!-- Node30&#45;&gt;Node31 -->
<g id="edge51_Node000030_Node000031" class="edge">
<title>Node30&#45;&gt;Node31</title>
<g id="a_edge51_Node000030_Node000031"><a xlink:title=" ">
<path fill="none" stroke="#63b8ff" d="M600.25,-447.59C604.69,-440.55 610.91,-430.67 616.37,-422"/>
<polygon fill="#63b8ff" stroke="#63b8ff" points="619.3,-423.91 621.67,-413.58 613.38,-420.18 619.3,-423.91"/>
</a>
</g>
</g>
</g>
</svg>
