<?xml version="1.0" encoding="UTF-8" standalone="no"?>
<!DOCTYPE svg PUBLIC "-//W3C//DTD SVG 1.1//EN"
 "http://www.w3.org/Graphics/SVG/1.1/DTD/svg11.dtd">
<!-- Generated by graphviz version 12.2.1 (20241206.2353)
 -->
<!-- Title: Engine/Vector2f.h Pages: 1 -->
<svg width="101pt" height="140pt"
 viewBox="0.00 0.00 101.25 140.00" xmlns="http://www.w3.org/2000/svg" xmlns:xlink="http://www.w3.org/1999/xlink">
<g id="graph0" class="graph" transform="scale(1 1) rotate(0) translate(4 136)">
<title>Engine/Vector2f.h</title>
<!-- Node1 -->
<g id="Node000001" class="node">
<title>Node1</title>
<g id="a_Node000001"><a xlink:title=" ">
<polygon fill="#999999" stroke="#666666" points="93.25,-132 0,-132 0,-112 93.25,-112 93.25,-132"/>
<text text-anchor="middle" x="46.62" y="-118.5" font-family="Helvetica,sans-Serif" font-size="10.00">Engine/Vector2f.h</text>
</a>
</g>
</g>
<!-- Node2 -->
<g id="Node000002" class="node">
<title>Node2</title>
<g id="a_Node000002"><a xlink:href="structs_8h.html" target="_top" xlink:title=" ">
<polygon fill="white" stroke="#666666" points="73.75,-76 19.5,-76 19.5,-56 73.75,-56 73.75,-76"/>
<text text-anchor="middle" x="46.62" y="-62.5" font-family="Helvetica,sans-Serif" font-size="10.00">structs.h</text>
</a>
</g>
</g>
<!-- Node1&#45;&gt;Node2 -->
<g id="edge1_Node000001_Node000002" class="edge">
<title>Node1&#45;&gt;Node2</title>
<g id="a_edge1_Node000001_Node000002"><a xlink:title=" ">
<path fill="none" stroke="#63b8ff" d="M41.36,-111.59C40.04,-105.01 39.6,-95.96 40.04,-87.73"/>
<polygon fill="#63b8ff" stroke="#63b8ff" points="43.52,-88.14 41.2,-77.8 36.56,-87.33 43.52,-88.14"/>
</a>
</g>
</g>
<!-- Node2&#45;&gt;Node1 -->
<g id="edge3_Node000002_Node000001" class="edge">
<title>Node2&#45;&gt;Node1</title>
<g id="a_edge3_Node000002_Node000001"><a xlink:title=" ">
<path fill="none" stroke="#63b8ff" d="M51.87,-76.3C53.21,-82.93 53.66,-92.11 53.2,-100.43"/>
<polygon fill="#63b8ff" stroke="#63b8ff" points="49.76,-99.75 52.07,-110.09 56.71,-100.57 49.76,-99.75"/>
</a>
</g>
</g>
<!-- Node3 -->
<g id="Node000003" class="node">
<title>Node3</title>
<g id="a_Node000003"><a xlink:title=" ">
<polygon fill="#e0e0e0" stroke="#999999" points="66.62,-20 26.62,-20 26.62,0 66.62,0 66.62,-20"/>
<text text-anchor="middle" x="46.62" y="-6.5" font-family="Helvetica,sans-Serif" font-size="10.00">string</text>
</a>
</g>
</g>
<!-- Node2&#45;&gt;Node3 -->
<g id="edge2_Node000002_Node000003" class="edge">
<title>Node2&#45;&gt;Node3</title>
<g id="a_edge2_Node000002_Node000003"><a xlink:title=" ">
<path fill="none" stroke="#63b8ff" d="M46.62,-55.59C46.62,-49.01 46.62,-39.96 46.62,-31.73"/>
<polygon fill="#63b8ff" stroke="#63b8ff" points="50.13,-31.81 46.63,-21.81 43.13,-31.81 50.13,-31.81"/>
</a>
</g>
</g>
</g>
</svg>
