<?xml version="1.0" encoding="UTF-8" standalone="no"?>
<!DOCTYPE svg PUBLIC "-//W3C//DTD SVG 1.1//EN"
 "http://www.w3.org/Graphics/SVG/1.1/DTD/svg11.dtd">
<!-- Generated by graphviz version 12.2.1 (20241206.2353)
 -->
<!-- Title: Celeste/Vector2x2f.h Pages: 1 -->
<svg width="1901pt" height="588pt"
 viewBox="0.00 0.00 1901.12 588.00" xmlns="http://www.w3.org/2000/svg" xmlns:xlink="http://www.w3.org/1999/xlink">
<g id="graph0" class="graph" transform="scale(1 1) rotate(0) translate(4 584)">
<title>Celeste/Vector2x2f.h</title>
<!-- Node1 -->
<g id="Node000001" class="node">
<title>Node1</title>
<g id="a_Node000001"><a xlink:title=" ">
<polygon fill="#999999" stroke="#666666" points="181.88,-580 74.38,-580 74.38,-560 181.88,-560 181.88,-580"/>
<text text-anchor="middle" x="128.12" y="-566.5" font-family="Helvetica,sans-Serif" font-size="10.00">Celeste/Vector2x2f.h</text>
</a>
</g>
</g>
<!-- Node2 -->
<g id="Node000002" class="node">
<title>Node2</title>
<g id="a_Node000002"><a xlink:href="_character_controller_8cpp.html" target="_top" xlink:title=" ">
<polygon fill="white" stroke="#666666" points="156.25,-468 0,-468 0,-448 156.25,-448 156.25,-468"/>
<text text-anchor="middle" x="78.12" y="-454.5" font-family="Helvetica,sans-Serif" font-size="10.00">Celeste/CharacterController.cpp</text>
</a>
</g>
</g>
<!-- Node1&#45;&gt;Node2 -->
<g id="edge1_Node000001_Node000002" class="edge">
<title>Node1&#45;&gt;Node2</title>
<g id="a_edge1_Node000001_Node000002"><a xlink:title=" ">
<path fill="none" stroke="#63b8ff" d="M113.48,-550.61C107.76,-542.76 101.54,-533.28 97.12,-524 88.14,-505.1 82.46,-481.06 79.84,-468.16"/>
<polygon fill="#63b8ff" stroke="#63b8ff" points="110.52,-552.5 119.35,-558.34 116.09,-548.26 110.52,-552.5"/>
</a>
</g>
</g>
<!-- Node3 -->
<g id="Node000003" class="node">
<title>Node3</title>
<g id="a_Node000003"><a xlink:href="_character_controller_8h.html" target="_top" xlink:title=" ">
<polygon fill="white" stroke="#666666" points="252,-524 106.25,-524 106.25,-504 252,-504 252,-524"/>
<text text-anchor="middle" x="179.12" y="-510.5" font-family="Helvetica,sans-Serif" font-size="10.00">Celeste/CharacterController.h</text>
</a>
</g>
</g>
<!-- Node1&#45;&gt;Node3 -->
<g id="edge2_Node000001_Node000003" class="edge">
<title>Node1&#45;&gt;Node3</title>
<g id="a_edge2_Node000001_Node000003"><a xlink:title=" ">
<path fill="none" stroke="#63b8ff" d="M144.86,-551.29C153.36,-542.28 163.35,-531.7 170.34,-524.3"/>
<polygon fill="#63b8ff" stroke="#63b8ff" points="142.37,-548.82 138.05,-558.49 147.46,-553.63 142.37,-548.82"/>
</a>
</g>
</g>
<!-- Node3&#45;&gt;Node2 -->
<g id="edge46_Node000003_Node000002" class="edge">
<title>Node3&#45;&gt;Node2</title>
<g id="a_edge46_Node000003_Node000002"><a xlink:title=" ">
<path fill="none" stroke="#63b8ff" d="M151.72,-498.35C133.94,-488.84 111.3,-476.74 95.86,-468.48"/>
<polygon fill="#63b8ff" stroke="#63b8ff" points="149.73,-501.25 160.2,-502.88 153.03,-495.08 149.73,-501.25"/>
</a>
</g>
</g>
<!-- Node4 -->
<g id="Node000004" class="node">
<title>Node4</title>
<g id="a_Node000004"><a xlink:href="_character_8h.html" target="_top" xlink:title=" ">
<polygon fill="white" stroke="#666666" points="278,-468 174.25,-468 174.25,-448 278,-448 278,-468"/>
<text text-anchor="middle" x="226.12" y="-454.5" font-family="Helvetica,sans-Serif" font-size="10.00">Celeste/Character.h</text>
</a>
</g>
</g>
<!-- Node3&#45;&gt;Node4 -->
<g id="edge3_Node000003_Node000004" class="edge">
<title>Node3&#45;&gt;Node4</title>
<g id="a_edge3_Node000003_Node000004"><a xlink:title=" ">
<path fill="none" stroke="#63b8ff" d="M194.79,-495C202.57,-486.06 211.66,-475.62 218.03,-468.3"/>
<polygon fill="#63b8ff" stroke="#63b8ff" points="192.23,-492.61 188.31,-502.45 197.51,-497.21 192.23,-492.61"/>
</a>
</g>
</g>
<!-- Node5 -->
<g id="Node000005" class="node">
<title>Node5</title>
<g id="a_Node000005"><a xlink:href="_character_8cpp.html" target="_top" xlink:title=" ">
<polygon fill="white" stroke="#666666" points="179.25,-412 65,-412 65,-392 179.25,-392 179.25,-412"/>
<text text-anchor="middle" x="122.12" y="-398.5" font-family="Helvetica,sans-Serif" font-size="10.00">Celeste/Character.cpp</text>
</a>
</g>
</g>
<!-- Node4&#45;&gt;Node5 -->
<g id="edge4_Node000004_Node000005" class="edge">
<title>Node4&#45;&gt;Node5</title>
<g id="a_edge4_Node000004_Node000005"><a xlink:title=" ">
<path fill="none" stroke="#63b8ff" d="M197.9,-442.35C179.6,-432.84 156.29,-420.74 140.38,-412.48"/>
<polygon fill="#63b8ff" stroke="#63b8ff" points="196.18,-445.39 206.67,-446.9 199.4,-439.18 196.18,-445.39"/>
</a>
</g>
</g>
<!-- Node6 -->
<g id="Node000006" class="node">
<title>Node6</title>
<g id="a_Node000006"><a xlink:href="_game_8h.html" target="_top" xlink:title=" ">
<polygon fill="white" stroke="#666666" points="250.75,-76 163.5,-76 163.5,-56 250.75,-56 250.75,-76"/>
<text text-anchor="middle" x="207.12" y="-62.5" font-family="Helvetica,sans-Serif" font-size="10.00">Celeste/Game.h</text>
</a>
</g>
</g>
<!-- Node4&#45;&gt;Node6 -->
<g id="edge5_Node000004_Node000006" class="edge">
<title>Node4&#45;&gt;Node6</title>
<g id="a_edge5_Node000004_Node000006"><a xlink:title=" ">
<path fill="none" stroke="#63b8ff" d="M220.5,-436.81C214.9,-414.89 207.12,-378.74 207.12,-347 207.12,-347 207.12,-347 207.12,-177 207.12,-139.76 207.12,-95.43 207.12,-76.42"/>
<polygon fill="#63b8ff" stroke="#63b8ff" points="217.05,-437.46 223.01,-446.21 223.82,-435.65 217.05,-437.46"/>
</a>
</g>
</g>
<!-- Node9 -->
<g id="Node000009" class="node">
<title>Node9</title>
<g id="a_Node000009"><a xlink:href="_interactable_item_8h.html" target="_top" xlink:title=" ">
<polygon fill="white" stroke="#666666" points="932.88,-412 801.38,-412 801.38,-392 932.88,-392 932.88,-412"/>
<text text-anchor="middle" x="867.12" y="-398.5" font-family="Helvetica,sans-Serif" font-size="10.00">Celeste/InteractableItem.h</text>
</a>
</g>
</g>
<!-- Node4&#45;&gt;Node9 -->
<g id="edge8_Node000004_Node000009" class="edge">
<title>Node4&#45;&gt;Node9</title>
<g id="a_edge8_Node000004_Node000009"><a xlink:title=" ">
<path fill="none" stroke="#63b8ff" d="M289.65,-451.65C411.58,-441.38 677.27,-418.99 801.12,-408.56"/>
<polygon fill="#63b8ff" stroke="#63b8ff" points="289.49,-448.15 279.82,-452.48 290.08,-455.12 289.49,-448.15"/>
</a>
</g>
</g>
<!-- Node13 -->
<g id="Node000013" class="node">
<title>Node13</title>
<g id="a_Node000013"><a xlink:href="_level_manager_8h.html" target="_top" xlink:title=" ">
<polygon fill="white" stroke="#666666" points="357,-132 235.25,-132 235.25,-112 357,-112 357,-132"/>
<text text-anchor="middle" x="296.12" y="-118.5" font-family="Helvetica,sans-Serif" font-size="10.00">Celeste/LevelManager.h</text>
</a>
</g>
</g>
<!-- Node4&#45;&gt;Node13 -->
<g id="edge45_Node000004_Node000013" class="edge">
<title>Node4&#45;&gt;Node13</title>
<g id="a_edge45_Node000004_Node000013"><a xlink:title=" ">
<path fill="none" stroke="#63b8ff" d="M231.75,-436.81C237.35,-414.89 245.12,-378.74 245.12,-347 245.12,-347 245.12,-347 245.12,-233 245.12,-192.37 274.11,-150.48 288.38,-132.33"/>
<polygon fill="#63b8ff" stroke="#63b8ff" points="228.43,-435.65 229.24,-446.21 235.2,-437.46 228.43,-435.65"/>
</a>
</g>
</g>
<!-- Node7 -->
<g id="Node000007" class="node">
<title>Node7</title>
<g id="a_Node000007"><a xlink:href="_game_8cpp.html" target="_top" xlink:title=" ">
<polygon fill="white" stroke="#666666" points="200,-20 102.25,-20 102.25,0 200,0 200,-20"/>
<text text-anchor="middle" x="151.12" y="-6.5" font-family="Helvetica,sans-Serif" font-size="10.00">Celeste/Game.cpp</text>
</a>
</g>
</g>
<!-- Node6&#45;&gt;Node7 -->
<g id="edge6_Node000006_Node000007" class="edge">
<title>Node6&#45;&gt;Node7</title>
<g id="a_edge6_Node000006_Node000007"><a xlink:title=" ">
<path fill="none" stroke="#63b8ff" d="M189.34,-47.85C179.87,-38.72 168.6,-27.86 160.77,-20.3"/>
<polygon fill="#63b8ff" stroke="#63b8ff" points="186.65,-50.12 196.28,-54.54 191.51,-45.08 186.65,-50.12"/>
</a>
</g>
</g>
<!-- Node8 -->
<g id="Node000008" class="node">
<title>Node8</title>
<g id="a_Node000008"><a xlink:href="main_8cpp.html" target="_top" xlink:title=" ">
<polygon fill="white" stroke="#666666" points="310.38,-20 217.88,-20 217.88,0 310.38,0 310.38,-20"/>
<text text-anchor="middle" x="264.12" y="-6.5" font-family="Helvetica,sans-Serif" font-size="10.00">Celeste/main.cpp</text>
</a>
</g>
</g>
<!-- Node6&#45;&gt;Node8 -->
<g id="edge7_Node000006_Node000008" class="edge">
<title>Node6&#45;&gt;Node8</title>
<g id="a_edge7_Node000006_Node000008"><a xlink:title=" ">
<path fill="none" stroke="#63b8ff" d="M225.23,-47.85C234.86,-38.72 246.33,-27.86 254.31,-20.3"/>
<polygon fill="#63b8ff" stroke="#63b8ff" points="223,-45.13 218.15,-54.55 227.82,-50.22 223,-45.13"/>
</a>
</g>
</g>
<!-- Node10 -->
<g id="Node000010" class="node">
<title>Node10</title>
<g id="a_Node000010"><a xlink:href="_chapter_info_8h.html" target="_top" xlink:title=" ">
<polygon fill="white" stroke="#666666" points="969.12,-244 857.12,-244 857.12,-224 969.12,-224 969.12,-244"/>
<text text-anchor="middle" x="913.12" y="-230.5" font-family="Helvetica,sans-Serif" font-size="10.00">Celeste/ChapterInfo.h</text>
</a>
</g>
</g>
<!-- Node9&#45;&gt;Node10 -->
<g id="edge9_Node000009_Node000010" class="edge">
<title>Node9&#45;&gt;Node10</title>
<g id="a_edge9_Node000009_Node000010"><a xlink:title=" ">
<path fill="none" stroke="#63b8ff" d="M789.84,-398.65C660.97,-394.03 413.27,-381.88 383.12,-356 357.06,-333.63 345.86,-305.27 369.12,-280 401.7,-244.62 724.68,-237.05 857.02,-235.44"/>
<polygon fill="#63b8ff" stroke="#63b8ff" points="789.55,-402.14 799.66,-399 789.79,-395.15 789.55,-402.14"/>
</a>
</g>
</g>
<!-- Node11 -->
<g id="Node000011" class="node">
<title>Node11</title>
<g id="a_Node000011"><a xlink:href="_chapter_loader_8h.html" target="_top" xlink:title=" ">
<polygon fill="white" stroke="#666666" points="505.5,-188 380.75,-188 380.75,-168 505.5,-168 505.5,-188"/>
<text text-anchor="middle" x="443.12" y="-174.5" font-family="Helvetica,sans-Serif" font-size="10.00">Celeste/ChapterLoader.h</text>
</a>
</g>
</g>
<!-- Node9&#45;&gt;Node11 -->
<g id="edge16_Node000009_Node000011" class="edge">
<title>Node9&#45;&gt;Node11</title>
<g id="a_edge16_Node000009_Node000011"><a xlink:title=" ">
<path fill="none" stroke="#63b8ff" d="M789.5,-399.37C655.29,-395.78 391.26,-385.08 361.12,-356 336.72,-332.45 342.14,-311.73 354.12,-280 369.49,-239.33 409.51,-204.44 430.25,-188.4"/>
<polygon fill="#63b8ff" stroke="#63b8ff" points="789.3,-402.86 799.38,-399.62 789.48,-395.87 789.3,-402.86"/>
</a>
</g>
</g>
<!-- Node16 -->
<g id="Node000016" class="node">
<title>Node16</title>
<g id="a_Node000016"><a xlink:href="_cog_platform_8h.html" target="_top" xlink:title=" ">
<polygon fill="white" stroke="#666666" points="508,-356 392.25,-356 392.25,-336 508,-336 508,-356"/>
<text text-anchor="middle" x="450.12" y="-342.5" font-family="Helvetica,sans-Serif" font-size="10.00">Celeste/CogPlatform.h</text>
</a>
</g>
</g>
<!-- Node9&#45;&gt;Node16 -->
<g id="edge17_Node000009_Node000016" class="edge">
<title>Node9&#45;&gt;Node16</title>
<g id="a_edge17_Node000009_Node000016"><a xlink:title=" ">
<path fill="none" stroke="#63b8ff" d="M789.87,-391C708.43,-380.45 581.97,-364.07 508.49,-354.56"/>
<polygon fill="#63b8ff" stroke="#63b8ff" points="789.18,-394.44 799.55,-392.25 790.08,-387.49 789.18,-394.44"/>
</a>
</g>
</g>
<!-- Node18 -->
<g id="Node000018" class="node">
<title>Node18</title>
<g id="a_Node000018"><a xlink:href="_crumble_block_8h.html" target="_top" xlink:title=" ">
<polygon fill="white" stroke="#666666" points="697.38,-356 574.88,-356 574.88,-336 697.38,-336 697.38,-356"/>
<text text-anchor="middle" x="636.12" y="-342.5" font-family="Helvetica,sans-Serif" font-size="10.00">Celeste/CrumbleBlock.h</text>
</a>
</g>
</g>
<!-- Node9&#45;&gt;Node18 -->
<g id="edge20_Node000009_Node000018" class="edge">
<title>Node9&#45;&gt;Node18</title>
<g id="a_edge20_Node000009_Node000018"><a xlink:title=" ">
<path fill="none" stroke="#63b8ff" d="M815.53,-388.94C773.57,-379.13 715.2,-365.49 676.58,-356.46"/>
<polygon fill="#63b8ff" stroke="#63b8ff" points="814.62,-392.32 825.15,-391.19 816.21,-385.5 814.62,-392.32"/>
</a>
</g>
</g>
<!-- Node20 -->
<g id="Node000020" class="node">
<title>Node20</title>
<g id="a_Node000020"><a xlink:href="_dash_crystal_8h.html" target="_top" xlink:title=" ">
<polygon fill="white" stroke="#666666" points="866,-356 750.25,-356 750.25,-336 866,-336 866,-356"/>
<text text-anchor="middle" x="808.12" y="-342.5" font-family="Helvetica,sans-Serif" font-size="10.00">Celeste/DashCrystal.h</text>
</a>
</g>
</g>
<!-- Node9&#45;&gt;Node20 -->
<g id="edge23_Node000009_Node000020" class="edge">
<title>Node9&#45;&gt;Node20</title>
<g id="a_edge23_Node000009_Node000020"><a xlink:title=" ">
<path fill="none" stroke="#63b8ff" d="M848.38,-383.85C838.41,-374.72 826.54,-363.86 818.28,-356.3"/>
<polygon fill="#63b8ff" stroke="#63b8ff" points="845.99,-386.4 855.73,-390.57 850.72,-381.24 845.99,-386.4"/>
</a>
</g>
</g>
<!-- Node22 -->
<g id="Node000022" class="node">
<title>Node22</title>
<g id="a_Node000022"><a xlink:href="_interactable_item_8cpp.html" target="_top" xlink:title=" ">
<polygon fill="white" stroke="#666666" points="1893.12,-356 1751.12,-356 1751.12,-336 1893.12,-336 1893.12,-356"/>
<text text-anchor="middle" x="1822.12" y="-342.5" font-family="Helvetica,sans-Serif" font-size="10.00">Celeste/InteractableItem.cpp</text>
</a>
</g>
</g>
<!-- Node9&#45;&gt;Node22 -->
<g id="edge26_Node000009_Node000022" class="edge">
<title>Node9&#45;&gt;Node22</title>
<g id="a_edge26_Node000009_Node000022"><a xlink:title=" ">
<path fill="none" stroke="#63b8ff" d="M944.44,-398.6C1097.1,-393.51 1447.99,-380.09 1742.12,-356 1745.05,-355.76 1748.03,-355.5 1751.05,-355.22"/>
<polygon fill="#63b8ff" stroke="#63b8ff" points="944.74,-395.09 934.86,-398.92 944.97,-402.08 944.74,-395.09"/>
</a>
</g>
</g>
<!-- Node23 -->
<g id="Node000023" class="node">
<title>Node23</title>
<g id="a_Node000023"><a xlink:href="_level_8h.html" target="_top" xlink:title=" ">
<polygon fill="white" stroke="#666666" points="968.25,-356 884,-356 884,-336 968.25,-336 968.25,-356"/>
<text text-anchor="middle" x="926.12" y="-342.5" font-family="Helvetica,sans-Serif" font-size="10.00">Celeste/Level.h</text>
</a>
</g>
</g>
<!-- Node9&#45;&gt;Node23 -->
<g id="edge27_Node000009_Node000023" class="edge">
<title>Node9&#45;&gt;Node23</title>
<g id="a_edge27_Node000009_Node000023"><a xlink:title=" ">
<path fill="none" stroke="#63b8ff" d="M885.87,-383.85C895.84,-374.72 907.71,-363.86 915.97,-356.3"/>
<polygon fill="#63b8ff" stroke="#63b8ff" points="883.53,-381.24 878.52,-390.57 888.26,-386.4 883.53,-381.24"/>
</a>
</g>
</g>
<!-- Node25 -->
<g id="Node000025" class="node">
<title>Node25</title>
<g id="a_Node000025"><a xlink:href="_respawn_zone_8h.html" target="_top" xlink:title=" ">
<polygon fill="white" stroke="#666666" points="1125.12,-356 1001.12,-356 1001.12,-336 1125.12,-336 1125.12,-356"/>
<text text-anchor="middle" x="1063.12" y="-342.5" font-family="Helvetica,sans-Serif" font-size="10.00">Celeste/RespawnZone.h</text>
</a>
</g>
</g>
<!-- Node9&#45;&gt;Node25 -->
<g id="edge30_Node000009_Node000025" class="edge">
<title>Node9&#45;&gt;Node25</title>
<g id="a_edge30_Node000009_Node000025"><a xlink:title=" ">
<path fill="none" stroke="#63b8ff" d="M912.28,-388.56C947.74,-378.79 996.36,-365.39 1028.72,-356.48"/>
<polygon fill="#63b8ff" stroke="#63b8ff" points="911.44,-385.16 902.72,-391.19 913.3,-391.91 911.44,-385.16"/>
</a>
</g>
</g>
<!-- Node27 -->
<g id="Node000027" class="node">
<title>Node27</title>
<g id="a_Node000027"><a xlink:href="_spike_8h.html" target="_top" xlink:title=" ">
<polygon fill="white" stroke="#666666" points="1296,-356 1210.25,-356 1210.25,-336 1296,-336 1296,-356"/>
<text text-anchor="middle" x="1253.12" y="-342.5" font-family="Helvetica,sans-Serif" font-size="10.00">Celeste/Spike.h</text>
</a>
</g>
</g>
<!-- Node9&#45;&gt;Node27 -->
<g id="edge33_Node000009_Node000027" class="edge">
<title>Node9&#45;&gt;Node27</title>
<g id="a_edge33_Node000009_Node000027"><a xlink:title=" ">
<path fill="none" stroke="#63b8ff" d="M944.01,-390.24C1023.77,-379.09 1145.64,-362.04 1209.94,-353.04"/>
<polygon fill="#63b8ff" stroke="#63b8ff" points="943.96,-386.72 934.54,-391.57 944.93,-393.65 943.96,-386.72"/>
</a>
</g>
</g>
<!-- Node29 -->
<g id="Node000029" class="node">
<title>Node29</title>
<g id="a_Node000029"><a xlink:href="_strawberry_8h.html" target="_top" xlink:title=" ">
<polygon fill="white" stroke="#666666" points="1505.88,-356 1398.38,-356 1398.38,-336 1505.88,-336 1505.88,-356"/>
<text text-anchor="middle" x="1452.12" y="-342.5" font-family="Helvetica,sans-Serif" font-size="10.00">Celeste/Strawberry.h</text>
</a>
</g>
</g>
<!-- Node9&#45;&gt;Node29 -->
<g id="edge36_Node000009_Node000029" class="edge">
<title>Node9&#45;&gt;Node29</title>
<g id="a_edge36_Node000009_Node000029"><a xlink:title=" ">
<path fill="none" stroke="#63b8ff" d="M944.39,-393.87C1064.69,-382.76 1293.76,-361.62 1398.02,-351.99"/>
<polygon fill="#63b8ff" stroke="#63b8ff" points="944.24,-390.37 934.6,-394.77 944.88,-397.34 944.24,-390.37"/>
</a>
</g>
</g>
<!-- Node33 -->
<g id="Node000033" class="node">
<title>Node33</title>
<g id="a_Node000033"><a xlink:href="_trampoline_8h.html" target="_top" xlink:title=" ">
<polygon fill="white" stroke="#666666" points="1732.62,-356 1623.62,-356 1623.62,-336 1732.62,-336 1732.62,-356"/>
<text text-anchor="middle" x="1678.12" y="-342.5" font-family="Helvetica,sans-Serif" font-size="10.00">Celeste/Trampoline.h</text>
</a>
</g>
</g>
<!-- Node9&#45;&gt;Node33 -->
<g id="edge42_Node000009_Node000033" class="edge">
<title>Node9&#45;&gt;Node33</title>
<g id="a_edge42_Node000009_Node000033"><a xlink:title=" ">
<path fill="none" stroke="#63b8ff" d="M944.51,-395.85C1107.46,-385 1482.53,-360.02 1623.36,-350.65"/>
<polygon fill="#63b8ff" stroke="#63b8ff" points="944.4,-392.35 934.66,-396.5 944.87,-399.33 944.4,-392.35"/>
</a>
</g>
</g>
<!-- Node10&#45;&gt;Node11 -->
<g id="edge10_Node000010_Node000011" class="edge">
<title>Node10&#45;&gt;Node11</title>
<g id="a_edge10_Node000010_Node000011"><a xlink:title=" ">
<path fill="none" stroke="#63b8ff" d="M845.63,-225.24C754.7,-214.8 594.12,-196.35 505.77,-186.2"/>
<polygon fill="#63b8ff" stroke="#63b8ff" points="845.06,-228.7 855.4,-226.37 845.86,-221.75 845.06,-228.7"/>
</a>
</g>
</g>
<!-- Node12 -->
<g id="Node000012" class="node">
<title>Node12</title>
<g id="a_Node000012"><a xlink:href="_chapter_loader_8cpp.html" target="_top" xlink:title=" ">
<polygon fill="white" stroke="#666666" points="510.75,-132 375.5,-132 375.5,-112 510.75,-112 510.75,-132"/>
<text text-anchor="middle" x="443.12" y="-118.5" font-family="Helvetica,sans-Serif" font-size="10.00">Celeste/ChapterLoader.cpp</text>
</a>
</g>
</g>
<!-- Node11&#45;&gt;Node12 -->
<g id="edge11_Node000011_Node000012" class="edge">
<title>Node11&#45;&gt;Node12</title>
<g id="a_edge11_Node000011_Node000012"><a xlink:title=" ">
<path fill="none" stroke="#63b8ff" d="M443.12,-156.13C443.12,-147.9 443.12,-138.85 443.12,-132.3"/>
<polygon fill="#63b8ff" stroke="#63b8ff" points="439.63,-156.08 443.13,-166.08 446.63,-156.08 439.63,-156.08"/>
</a>
</g>
</g>
<!-- Node11&#45;&gt;Node13 -->
<g id="edge12_Node000011_Node000013" class="edge">
<title>Node11&#45;&gt;Node13</title>
<g id="a_edge12_Node000011_Node000013"><a xlink:title=" ">
<path fill="none" stroke="#63b8ff" d="M406.82,-163.66C380.47,-153.98 345.46,-141.12 321.93,-132.48"/>
<polygon fill="#63b8ff" stroke="#63b8ff" points="405.51,-166.91 416.1,-167.07 407.92,-160.34 405.51,-166.91"/>
</a>
</g>
</g>
<!-- Node15 -->
<g id="Node000015" class="node">
<title>Node15</title>
<g id="a_Node000015"><a xlink:href="_pause_menu_8cpp.html" target="_top" xlink:title=" ">
<polygon fill="white" stroke="#666666" points="651.75,-132 528.5,-132 528.5,-112 651.75,-112 651.75,-132"/>
<text text-anchor="middle" x="590.12" y="-118.5" font-family="Helvetica,sans-Serif" font-size="10.00">Celeste/PauseMenu.cpp</text>
</a>
</g>
</g>
<!-- Node11&#45;&gt;Node15 -->
<g id="edge15_Node000011_Node000015" class="edge">
<title>Node11&#45;&gt;Node15</title>
<g id="a_edge15_Node000011_Node000015"><a xlink:title=" ">
<path fill="none" stroke="#63b8ff" d="M479.43,-163.66C505.78,-153.98 540.79,-141.12 564.32,-132.48"/>
<polygon fill="#63b8ff" stroke="#63b8ff" points="478.33,-160.34 470.15,-167.07 480.74,-166.91 478.33,-160.34"/>
</a>
</g>
</g>
<!-- Node13&#45;&gt;Node6 -->
<g id="edge13_Node000013_Node000006" class="edge">
<title>Node13&#45;&gt;Node6</title>
<g id="a_edge13_Node000013_Node000006"><a xlink:title=" ">
<path fill="none" stroke="#63b8ff" d="M271.09,-105.81C255.57,-96.39 236.1,-84.58 222.75,-76.48"/>
<polygon fill="#63b8ff" stroke="#63b8ff" points="268.96,-108.61 279.33,-110.81 272.59,-102.63 268.96,-108.61"/>
</a>
</g>
</g>
<!-- Node14 -->
<g id="Node000014" class="node">
<title>Node14</title>
<g id="a_Node000014"><a xlink:href="_level_manager_8cpp.html" target="_top" xlink:title=" ">
<polygon fill="white" stroke="#666666" points="401.25,-76 269,-76 269,-56 401.25,-56 401.25,-76"/>
<text text-anchor="middle" x="335.12" y="-62.5" font-family="Helvetica,sans-Serif" font-size="10.00">Celeste/LevelManager.cpp</text>
</a>
</g>
</g>
<!-- Node13&#45;&gt;Node14 -->
<g id="edge14_Node000013_Node000014" class="edge">
<title>Node13&#45;&gt;Node14</title>
<g id="a_edge14_Node000013_Node000014"><a xlink:title=" ">
<path fill="none" stroke="#63b8ff" d="M309.53,-102.44C315.9,-93.62 323.23,-83.47 328.41,-76.3"/>
<polygon fill="#63b8ff" stroke="#63b8ff" points="306.82,-100.21 303.8,-110.37 312.5,-104.31 306.82,-100.21"/>
</a>
</g>
</g>
<!-- Node16&#45;&gt;Node10 -->
<g id="edge18_Node000016_Node000010" class="edge">
<title>Node16&#45;&gt;Node10</title>
<g id="a_edge18_Node000016_Node000010"><a xlink:title=" ">
<path fill="none" stroke="#63b8ff" d="M415.93,-331.04C389.71,-318.41 360.72,-298.93 378.12,-280 410.06,-245.26 726.23,-237.32 856.98,-235.52"/>
<polygon fill="#63b8ff" stroke="#63b8ff" points="414.18,-334.09 424.73,-335.07 417.09,-327.73 414.18,-334.09"/>
</a>
</g>
</g>
<!-- Node17 -->
<g id="Node000017" class="node">
<title>Node17</title>
<g id="a_Node000017"><a xlink:href="_cog_platform_8cpp.html" target="_top" xlink:title=" ">
<polygon fill="white" stroke="#666666" points="513.25,-300 387,-300 387,-280 513.25,-280 513.25,-300"/>
<text text-anchor="middle" x="450.12" y="-286.5" font-family="Helvetica,sans-Serif" font-size="10.00">Celeste/CogPlatform.cpp</text>
</a>
</g>
</g>
<!-- Node16&#45;&gt;Node17 -->
<g id="edge19_Node000016_Node000017" class="edge">
<title>Node16&#45;&gt;Node17</title>
<g id="a_edge19_Node000016_Node000017"><a xlink:title=" ">
<path fill="none" stroke="#63b8ff" d="M450.12,-324.13C450.12,-315.9 450.12,-306.85 450.12,-300.3"/>
<polygon fill="#63b8ff" stroke="#63b8ff" points="446.63,-324.08 450.13,-334.08 453.63,-324.08 446.63,-324.08"/>
</a>
</g>
</g>
<!-- Node18&#45;&gt;Node10 -->
<g id="edge21_Node000018_Node000010" class="edge">
<title>Node18&#45;&gt;Node10</title>
<g id="a_edge21_Node000018_Node000010"><a xlink:title=" ">
<path fill="none" stroke="#63b8ff" d="M599.25,-330.98C572.17,-318.63 542.85,-299.61 560.12,-280 579.39,-258.12 762.14,-244.04 856.83,-238.16"/>
<polygon fill="#63b8ff" stroke="#63b8ff" points="597.85,-334.18 608.42,-334.93 600.62,-327.76 597.85,-334.18"/>
</a>
</g>
</g>
<!-- Node19 -->
<g id="Node000019" class="node">
<title>Node19</title>
<g id="a_Node000019"><a xlink:href="_crumble_block_8cpp.html" target="_top" xlink:title=" ">
<polygon fill="white" stroke="#666666" points="702.62,-300 569.62,-300 569.62,-280 702.62,-280 702.62,-300"/>
<text text-anchor="middle" x="636.12" y="-286.5" font-family="Helvetica,sans-Serif" font-size="10.00">Celeste/CrumbleBlock.cpp</text>
</a>
</g>
</g>
<!-- Node18&#45;&gt;Node19 -->
<g id="edge22_Node000018_Node000019" class="edge">
<title>Node18&#45;&gt;Node19</title>
<g id="a_edge22_Node000018_Node000019"><a xlink:title=" ">
<path fill="none" stroke="#63b8ff" d="M636.12,-324.13C636.12,-315.9 636.12,-306.85 636.12,-300.3"/>
<polygon fill="#63b8ff" stroke="#63b8ff" points="632.63,-324.08 636.13,-334.08 639.63,-324.08 632.63,-324.08"/>
</a>
</g>
</g>
<!-- Node20&#45;&gt;Node10 -->
<g id="edge24_Node000020_Node000010" class="edge">
<title>Node20&#45;&gt;Node10</title>
<g id="a_edge24_Node000020_Node000010"><a xlink:title=" ">
<path fill="none" stroke="#63b8ff" d="M779.26,-329.96C758.52,-317.14 736.43,-297.99 750.12,-280 763.2,-262.83 815,-250.54 856.75,-243.19"/>
<polygon fill="#63b8ff" stroke="#63b8ff" points="777.46,-332.96 787.87,-334.95 780.97,-326.91 777.46,-332.96"/>
</a>
</g>
</g>
<!-- Node21 -->
<g id="Node000021" class="node">
<title>Node21</title>
<g id="a_Node000021"><a xlink:href="_dash_crystal_8cpp.html" target="_top" xlink:title=" ">
<polygon fill="white" stroke="#666666" points="885.25,-300 759,-300 759,-280 885.25,-280 885.25,-300"/>
<text text-anchor="middle" x="822.12" y="-286.5" font-family="Helvetica,sans-Serif" font-size="10.00">Celeste/DashCrystal.cpp</text>
</a>
</g>
</g>
<!-- Node20&#45;&gt;Node21 -->
<g id="edge25_Node000020_Node000021" class="edge">
<title>Node20&#45;&gt;Node21</title>
<g id="a_edge25_Node000020_Node000021"><a xlink:title=" ">
<path fill="none" stroke="#63b8ff" d="M813.38,-324.71C815.56,-316.32 817.98,-307.01 819.71,-300.3"/>
<polygon fill="#63b8ff" stroke="#63b8ff" points="810.07,-323.57 810.94,-334.13 816.84,-325.33 810.07,-323.57"/>
</a>
</g>
</g>
<!-- Node23&#45;&gt;Node10 -->
<g id="edge28_Node000023_Node000010" class="edge">
<title>Node23&#45;&gt;Node10</title>
<g id="a_edge28_Node000023_Node000010"><a xlink:title=" ">
<path fill="none" stroke="#63b8ff" d="M923.68,-324.31C920.85,-300.36 916.31,-261.95 914.23,-244.35"/>
<polygon fill="#63b8ff" stroke="#63b8ff" points="920.19,-324.6 924.84,-334.12 927.14,-323.78 920.19,-324.6"/>
</a>
</g>
</g>
<!-- Node24 -->
<g id="Node000024" class="node">
<title>Node24</title>
<g id="a_Node000024"><a xlink:href="_level_8cpp.html" target="_top" xlink:title=" ">
<polygon fill="white" stroke="#666666" points="1035.5,-300 940.75,-300 940.75,-280 1035.5,-280 1035.5,-300"/>
<text text-anchor="middle" x="988.12" y="-286.5" font-family="Helvetica,sans-Serif" font-size="10.00">Celeste/Level.cpp</text>
</a>
</g>
</g>
<!-- Node23&#45;&gt;Node24 -->
<g id="edge29_Node000023_Node000024" class="edge">
<title>Node23&#45;&gt;Node24</title>
<g id="a_edge29_Node000023_Node000024"><a xlink:title=" ">
<path fill="none" stroke="#63b8ff" d="M945.5,-328.13C956.04,-318.94 968.68,-307.93 977.45,-300.3"/>
<polygon fill="#63b8ff" stroke="#63b8ff" points="943.31,-325.39 938.07,-334.6 947.91,-330.67 943.31,-325.39"/>
</a>
</g>
</g>
<!-- Node25&#45;&gt;Node10 -->
<g id="edge31_Node000025_Node000010" class="edge">
<title>Node25&#45;&gt;Node10</title>
<g id="a_edge31_Node000025_Node000010"><a xlink:title=" ">
<path fill="none" stroke="#63b8ff" d="M1061.99,-324.62C1060.16,-310.43 1055.55,-291.97 1044.12,-280 1024.62,-259.56 995.42,-248.4 969.53,-242.32"/>
<polygon fill="#63b8ff" stroke="#63b8ff" points="1058.47,-324.57 1062.85,-334.22 1065.44,-323.95 1058.47,-324.57"/>
</a>
</g>
</g>
<!-- Node26 -->
<g id="Node000026" class="node">
<title>Node26</title>
<g id="a_Node000026"><a xlink:href="_respawn_zone_8cpp.html" target="_top" xlink:title=" ">
<polygon fill="white" stroke="#666666" points="1225.38,-300 1090.88,-300 1090.88,-280 1225.38,-280 1225.38,-300"/>
<text text-anchor="middle" x="1158.12" y="-286.5" font-family="Helvetica,sans-Serif" font-size="10.00">Celeste/RespawnZone.cpp</text>
</a>
</g>
</g>
<!-- Node25&#45;&gt;Node26 -->
<g id="edge32_Node000025_Node000026" class="edge">
<title>Node25&#45;&gt;Node26</title>
<g id="a_edge32_Node000025_Node000026"><a xlink:title=" ">
<path fill="none" stroke="#63b8ff" d="M1089.37,-330.08C1106.02,-320.62 1127.06,-308.66 1141.45,-300.48"/>
<polygon fill="#63b8ff" stroke="#63b8ff" points="1087.95,-326.86 1080.99,-334.85 1091.41,-332.95 1087.95,-326.86"/>
</a>
</g>
</g>
<!-- Node27&#45;&gt;Node10 -->
<g id="edge34_Node000027_Node000010" class="edge">
<title>Node27&#45;&gt;Node10</title>
<g id="a_edge34_Node000027_Node000010"><a xlink:title=" ">
<path fill="none" stroke="#63b8ff" d="M1252.7,-324.4C1251.24,-309.81 1246.78,-290.94 1234.12,-280 1195.54,-246.65 1050.69,-237.97 969.38,-235.74"/>
<polygon fill="#63b8ff" stroke="#63b8ff" points="1249.2,-324.53 1253.26,-334.31 1256.19,-324.13 1249.2,-324.53"/>
</a>
</g>
</g>
<!-- Node28 -->
<g id="Node000028" class="node">
<title>Node28</title>
<g id="a_Node000028"><a xlink:href="_spike_8cpp.html" target="_top" xlink:title=" ">
<polygon fill="white" stroke="#666666" points="1377.25,-300 1281,-300 1281,-280 1377.25,-280 1377.25,-300"/>
<text text-anchor="middle" x="1329.12" y="-286.5" font-family="Helvetica,sans-Serif" font-size="10.00">Celeste/Spike.cpp</text>
</a>
</g>
</g>
<!-- Node27&#45;&gt;Node28 -->
<g id="edge35_Node000027_Node000028" class="edge">
<title>Node27&#45;&gt;Node28</title>
<g id="a_edge35_Node000027_Node000028"><a xlink:title=" ">
<path fill="none" stroke="#63b8ff" d="M1275.65,-329C1288.7,-319.72 1304.7,-308.35 1315.78,-300.48"/>
<polygon fill="#63b8ff" stroke="#63b8ff" points="1273.72,-326.07 1267.6,-334.72 1277.78,-331.78 1273.72,-326.07"/>
</a>
</g>
</g>
<!-- Node29&#45;&gt;Node10 -->
<g id="edge37_Node000029_Node000010" class="edge">
<title>Node29&#45;&gt;Node10</title>
<g id="a_edge37_Node000029_Node000010"><a xlink:title=" ">
<path fill="none" stroke="#63b8ff" d="M1439.4,-326.82C1427.54,-311.47 1408.36,-290.37 1386.12,-280 1313.42,-246.1 1078.16,-237.74 969.32,-235.67"/>
<polygon fill="#63b8ff" stroke="#63b8ff" points="1436.45,-328.72 1445.2,-334.69 1442.09,-324.57 1436.45,-328.72"/>
</a>
</g>
</g>
<!-- Node30 -->
<g id="Node000030" class="node">
<title>Node30</title>
<g id="a_Node000030"><a xlink:href="_flying_strawberry_8h.html" target="_top" xlink:title=" ">
<polygon fill="white" stroke="#666666" points="1567,-300 1433.25,-300 1433.25,-280 1567,-280 1567,-300"/>
<text text-anchor="middle" x="1500.12" y="-286.5" font-family="Helvetica,sans-Serif" font-size="10.00">Celeste/FlyingStrawberry.h</text>
</a>
</g>
</g>
<!-- Node29&#45;&gt;Node30 -->
<g id="edge38_Node000029_Node000030" class="edge">
<title>Node29&#45;&gt;Node30</title>
<g id="a_edge38_Node000029_Node000030"><a xlink:title=" ">
<path fill="none" stroke="#63b8ff" d="M1468.12,-327C1476.07,-318.06 1485.35,-307.62 1491.86,-300.3"/>
<polygon fill="#63b8ff" stroke="#63b8ff" points="1465.52,-324.66 1461.49,-334.46 1470.75,-329.31 1465.52,-324.66"/>
</a>
</g>
</g>
<!-- Node32 -->
<g id="Node000032" class="node">
<title>Node32</title>
<g id="a_Node000032"><a xlink:href="_strawberry_8cpp.html" target="_top" xlink:title=" ">
<polygon fill="white" stroke="#666666" points="1703.12,-300 1585.12,-300 1585.12,-280 1703.12,-280 1703.12,-300"/>
<text text-anchor="middle" x="1644.12" y="-286.5" font-family="Helvetica,sans-Serif" font-size="10.00">Celeste/Strawberry.cpp</text>
</a>
</g>
</g>
<!-- Node29&#45;&gt;Node32 -->
<g id="edge41_Node000029_Node000032" class="edge">
<title>Node29&#45;&gt;Node32</title>
<g id="a_edge41_Node000029_Node000032"><a xlink:title=" ">
<path fill="none" stroke="#63b8ff" d="M1496.36,-332.56C1531.09,-322.79 1578.73,-309.39 1610.42,-300.48"/>
<polygon fill="#63b8ff" stroke="#63b8ff" points="1495.7,-329.11 1487.03,-335.18 1497.6,-335.85 1495.7,-329.11"/>
</a>
</g>
</g>
<!-- Node30&#45;&gt;Node10 -->
<g id="edge39_Node000030_Node000010" class="edge">
<title>Node30&#45;&gt;Node10</title>
<g id="a_edge39_Node000030_Node000010"><a xlink:title=" ">
<path fill="none" stroke="#63b8ff" d="M1421.67,-280.26C1420.82,-280.17 1419.97,-280.08 1419.12,-280 1255.9,-263.68 1062.75,-247.32 969.32,-239.59"/>
<polygon fill="#63b8ff" stroke="#63b8ff" points="1421.14,-283.72 1431.45,-281.27 1421.86,-276.76 1421.14,-283.72"/>
</a>
</g>
</g>
<!-- Node31 -->
<g id="Node000031" class="node">
<title>Node31</title>
<g id="a_Node000031"><a xlink:href="_flying_strawberry_8cpp.html" target="_top" xlink:title=" ">
<polygon fill="white" stroke="#666666" points="1572.25,-244 1428,-244 1428,-224 1572.25,-224 1572.25,-244"/>
<text text-anchor="middle" x="1500.12" y="-230.5" font-family="Helvetica,sans-Serif" font-size="10.00">Celeste/FlyingStrawberry.cpp</text>
</a>
</g>
</g>
<!-- Node30&#45;&gt;Node31 -->
<g id="edge40_Node000030_Node000031" class="edge">
<title>Node30&#45;&gt;Node31</title>
<g id="a_edge40_Node000030_Node000031"><a xlink:title=" ">
<path fill="none" stroke="#63b8ff" d="M1500.12,-268.13C1500.12,-259.9 1500.12,-250.85 1500.12,-244.3"/>
<polygon fill="#63b8ff" stroke="#63b8ff" points="1496.63,-268.08 1500.13,-278.08 1503.63,-268.08 1496.63,-268.08"/>
</a>
</g>
</g>
<!-- Node33&#45;&gt;Node10 -->
<g id="edge43_Node000033_Node000010" class="edge">
<title>Node33&#45;&gt;Node10</title>
<g id="a_edge43_Node000033_Node000010"><a xlink:title=" ">
<path fill="none" stroke="#63b8ff" d="M1697.79,-327.67C1711.49,-313.56 1725.17,-293.8 1712.12,-280 1686.64,-253.04 1147.31,-239.74 969.46,-236.07"/>
<polygon fill="#63b8ff" stroke="#63b8ff" points="1695.39,-325.13 1690.59,-334.57 1700.23,-330.18 1695.39,-325.13"/>
</a>
</g>
</g>
<!-- Node34 -->
<g id="Node000034" class="node">
<title>Node34</title>
<g id="a_Node000034"><a xlink:href="_trampoline_8cpp.html" target="_top" xlink:title=" ">
<polygon fill="white" stroke="#666666" points="1878.88,-300 1759.38,-300 1759.38,-280 1878.88,-280 1878.88,-300"/>
<text text-anchor="middle" x="1819.12" y="-286.5" font-family="Helvetica,sans-Serif" font-size="10.00">Celeste/Trampoline.cpp</text>
</a>
</g>
</g>
<!-- Node33&#45;&gt;Node34 -->
<g id="edge44_Node000033_Node000034" class="edge">
<title>Node33&#45;&gt;Node34</title>
<g id="a_edge44_Node000033_Node000034"><a xlink:title=" ">
<path fill="none" stroke="#63b8ff" d="M1713.29,-331.53C1738.53,-321.87 1771.9,-309.08 1794.37,-300.48"/>
<polygon fill="#63b8ff" stroke="#63b8ff" points="1712.19,-328.21 1704.1,-335.05 1714.69,-334.74 1712.19,-328.21"/>
</a>
</g>
</g>
</g>
</svg>
