<?xml version="1.0" encoding="UTF-8" standalone="no"?>
<!DOCTYPE svg PUBLIC "-//W3C//DTD SVG 1.1//EN"
 "http://www.w3.org/Graphics/SVG/1.1/DTD/svg11.dtd">
<!-- Generated by graphviz version 12.2.1 (20241206.2353)
 -->
<!-- Title: MenuItem::MenuItem Pages: 1 -->
<svg width="312pt" height="230pt"
 viewBox="0.00 0.00 311.50 230.00" xmlns="http://www.w3.org/2000/svg" xmlns:xlink="http://www.w3.org/1999/xlink">
<g id="graph0" class="graph" transform="scale(1 1) rotate(0) translate(4 226)">
<title>MenuItem::MenuItem</title>
<!-- Node1 -->
<g id="Node000001" class="node">
<title>Node1</title>
<g id="a_Node000001"><a xlink:title=" ">
<polygon fill="#999999" stroke="#666666" points="303.5,-127 194.5,-127 194.5,-107 303.5,-107 303.5,-127"/>
<text text-anchor="middle" x="249" y="-113.5" font-family="Helvetica,sans-Serif" font-size="10.00">MenuItem::MenuItem</text>
</a>
</g>
</g>
<!-- Node2 -->
<g id="Node000002" class="node">
<title>Node2</title>
<g id="a_Node000002"><a xlink:href="class_menu_item.html#a58ed9fd57ae28569d4ece70c6ab97ff5" target="_top" xlink:title=" ">
<polygon fill="white" stroke="#666666" points="133.75,-222 24.75,-222 24.75,-202 133.75,-202 133.75,-222"/>
<text text-anchor="middle" x="79.25" y="-208.5" font-family="Helvetica,sans-Serif" font-size="10.00">MenuItem::MenuItem</text>
</a>
</g>
</g>
<!-- Node1&#45;&gt;Node2 -->
<g id="edge1_Node000001_Node000002" class="edge">
<title>Node1&#45;&gt;Node2</title>
<g id="a_edge1_Node000001_Node000002"><a xlink:title=" ">
<path fill="none" stroke="#63b8ff" d="M231.16,-135.61C214.41,-153.01 187.12,-178.42 158.5,-193 150.9,-196.87 142.48,-199.98 134.06,-202.46"/>
<polygon fill="#63b8ff" stroke="#63b8ff" points="233.59,-138.14 237.88,-128.45 228.49,-133.35 233.59,-138.14"/>
</a>
</g>
</g>
<!-- Node3 -->
<g id="Node000003" class="node">
<title>Node3</title>
<g id="a_Node000003"><a xlink:href="class_menu_item.html#a21dc4f56a813a25af9be986f61cc5993" target="_top" xlink:title=" ">
<polygon fill="white" stroke="#666666" points="133.75,-184 24.75,-184 24.75,-164 133.75,-164 133.75,-184"/>
<text text-anchor="middle" x="79.25" y="-170.5" font-family="Helvetica,sans-Serif" font-size="10.00">MenuItem::MenuItem</text>
</a>
</g>
</g>
<!-- Node1&#45;&gt;Node3 -->
<g id="edge2_Node000001_Node000003" class="edge">
<title>Node1&#45;&gt;Node3</title>
<g id="a_edge2_Node000001_Node000003"><a xlink:title=" ">
<path fill="none" stroke="#63b8ff" d="M215.93,-132.12C199.09,-139.68 177.95,-148.56 158.5,-155 148.95,-158.16 138.58,-161.05 128.6,-163.57"/>
<polygon fill="#63b8ff" stroke="#63b8ff" points="217.29,-135.35 224.94,-128.02 214.39,-128.98 217.29,-135.35"/>
</a>
</g>
</g>
<!-- Node4 -->
<g id="Node000004" class="node">
<title>Node4</title>
<g id="a_Node000004"><a xlink:href="class_menu_item.html#a01018f8bda54da2c74445cfbf41fc6a1" target="_top" xlink:title=" ">
<polygon fill="white" stroke="#666666" points="132.62,-146 25.88,-146 25.88,-126 132.62,-126 132.62,-146"/>
<text text-anchor="middle" x="79.25" y="-132.5" font-family="Helvetica,sans-Serif" font-size="10.00">MenuItem::operator=</text>
</a>
</g>
</g>
<!-- Node1&#45;&gt;Node4 -->
<g id="edge3_Node000001_Node000004" class="edge">
<title>Node1&#45;&gt;Node4</title>
<g id="a_edge3_Node000001_Node000004"><a xlink:title=" ">
<path fill="none" stroke="#63b8ff" d="M183.17,-124.34C166.56,-126.22 148.91,-128.22 132.99,-130.03"/>
<polygon fill="#63b8ff" stroke="#63b8ff" points="183.42,-127.84 192.96,-123.23 182.63,-120.88 183.42,-127.84"/>
</a>
</g>
</g>
<!-- Node5 -->
<g id="Node000005" class="node">
<title>Node5</title>
<g id="a_Node000005"><a xlink:href="class_menu_item.html#ad6eaa7d8a1df9a14cf1f2c055a9ca2b7" target="_top" xlink:title=" ">
<polygon fill="white" stroke="#666666" points="132.62,-108 25.88,-108 25.88,-88 132.62,-88 132.62,-108"/>
<text text-anchor="middle" x="79.25" y="-94.5" font-family="Helvetica,sans-Serif" font-size="10.00">MenuItem::operator=</text>
</a>
</g>
</g>
<!-- Node1&#45;&gt;Node5 -->
<g id="edge4_Node000001_Node000005" class="edge">
<title>Node1&#45;&gt;Node5</title>
<g id="a_edge4_Node000001_Node000005"><a xlink:title=" ">
<path fill="none" stroke="#63b8ff" d="M183.17,-109.66C166.56,-107.78 148.91,-105.78 132.99,-103.97"/>
<polygon fill="#63b8ff" stroke="#63b8ff" points="182.63,-113.12 192.96,-110.77 183.42,-106.16 182.63,-113.12"/>
</a>
</g>
</g>
<!-- Node6 -->
<g id="Node000006" class="node">
<title>Node6</title>
<g id="a_Node000006"><a xlink:href="class_selectable_menu_item.html#ac08d8f73811f3e2103533dd45421e181" target="_top" xlink:title=" ">
<polygon fill="white" stroke="#666666" points="134.88,-70 23.62,-70 23.62,-38 134.88,-38 134.88,-70"/>
<text text-anchor="start" x="31.62" y="-56.5" font-family="Helvetica,sans-Serif" font-size="10.00">SelectableMenuItem</text>
<text text-anchor="middle" x="79.25" y="-44.5" font-family="Helvetica,sans-Serif" font-size="10.00">::SelectableMenuItem</text>
</a>
</g>
</g>
<!-- Node1&#45;&gt;Node6 -->
<g id="edge5_Node000001_Node000006" class="edge">
<title>Node1&#45;&gt;Node6</title>
<g id="a_edge5_Node000001_Node000006"><a xlink:title=" ">
<path fill="none" stroke="#63b8ff" d="M214.7,-101.99C197.98,-94.68 177.32,-85.99 158.5,-79 150.61,-76.07 142.2,-73.17 133.93,-70.43"/>
<polygon fill="#63b8ff" stroke="#63b8ff" points="213.11,-105.12 223.67,-105.96 215.94,-98.72 213.11,-105.12"/>
</a>
</g>
</g>
<!-- Node7 -->
<g id="Node000007" class="node">
<title>Node7</title>
<g id="a_Node000007"><a xlink:href="class_slider_menu_item.html#a5d9730a9d054c905745640f023718675" target="_top" xlink:title=" ">
<polygon fill="white" stroke="#666666" points="158.5,-20 0,-20 0,0 158.5,0 158.5,-20"/>
<text text-anchor="middle" x="79.25" y="-6.5" font-family="Helvetica,sans-Serif" font-size="10.00">SliderMenuItem::SliderMenuItem</text>
</a>
</g>
</g>
<!-- Node1&#45;&gt;Node7 -->
<g id="edge6_Node000001_Node000007" class="edge">
<title>Node1&#45;&gt;Node7</title>
<g id="a_edge6_Node000001_Node000007"><a xlink:title=" ">
<path fill="none" stroke="#63b8ff" d="M233.77,-97.86C217.73,-77.65 189.76,-46.39 158.5,-29 152.27,-25.53 145.42,-22.7 138.43,-20.37"/>
<polygon fill="#63b8ff" stroke="#63b8ff" points="230.85,-99.8 239.73,-105.58 236.39,-95.52 230.85,-99.8"/>
</a>
</g>
</g>
</g>
</svg>
