<?xml version="1.0" encoding="UTF-8" standalone="no"?>
<!DOCTYPE svg PUBLIC "-//W3C//DTD SVG 1.1//EN"
 "http://www.w3.org/Graphics/SVG/1.1/DTD/svg11.dtd">
<!-- Generated by graphviz version 12.2.1 (20241206.2353)
 -->
<!-- Title: DashCrystal::PlayerInteraction Pages: 1 -->
<svg width="801pt" height="142pt"
 viewBox="0.00 0.00 800.50 142.00" xmlns="http://www.w3.org/2000/svg" xmlns:xlink="http://www.w3.org/1999/xlink">
<g id="graph0" class="graph" transform="scale(1 1) rotate(0) translate(4 138)">
<title>DashCrystal::PlayerInteraction</title>
<!-- Node1 -->
<g id="Node000001" class="node">
<title>Node1</title>
<g id="a_Node000001"><a xlink:title=" ">
<polygon fill="#999999" stroke="#666666" points="150.25,-77 0,-77 0,-57 150.25,-57 150.25,-77"/>
<text text-anchor="middle" x="75.12" y="-63.5" font-family="Helvetica,sans-Serif" font-size="10.00">DashCrystal::PlayerInteraction</text>
</a>
</g>
</g>
<!-- Node2 -->
<g id="Node000002" class="node">
<title>Node2</title>
<g id="a_Node000002"><a xlink:href="class_character.html#a0b790800d6ff90eebee18bce25177fce" target="_top" xlink:title=" ">
<polygon fill="white" stroke="#666666" points="321.12,-134 210.62,-134 210.62,-114 321.12,-114 321.12,-134"/>
<text text-anchor="middle" x="265.88" y="-120.5" font-family="Helvetica,sans-Serif" font-size="10.00">Character::GetHitBox</text>
</a>
</g>
</g>
<!-- Node1&#45;&gt;Node2 -->
<g id="edge1_Node000001_Node000002" class="edge">
<title>Node1&#45;&gt;Node2</title>
<g id="a_edge1_Node000001_Node000002"><a xlink:title=" ">
<path fill="none" stroke="#63b8ff" d="M103.95,-77.42C126.08,-85.51 157.91,-96.71 186.25,-105 193.06,-106.99 200.25,-108.94 207.39,-110.78"/>
<polygon fill="#63b8ff" stroke="#63b8ff" points="206.51,-114.17 217.06,-113.21 208.22,-107.38 206.51,-114.17"/>
</a>
</g>
</g>
<!-- Node3 -->
<g id="Node000003" class="node">
<title>Node3</title>
<g id="a_Node000003"><a xlink:href="class_character.html#a5f03513497f6766307128980a7c641ce" target="_top" xlink:title=" ">
<polygon fill="white" stroke="#666666" points="345.5,-96 186.25,-96 186.25,-76 345.5,-76 345.5,-96"/>
<text text-anchor="middle" x="265.88" y="-82.5" font-family="Helvetica,sans-Serif" font-size="10.00">Character::HasCharacterDashed</text>
</a>
</g>
</g>
<!-- Node1&#45;&gt;Node3 -->
<g id="edge2_Node000001_Node000003" class="edge">
<title>Node1&#45;&gt;Node3</title>
<g id="a_edge2_Node000001_Node000003"><a xlink:title=" ">
<path fill="none" stroke="#63b8ff" d="M150.72,-74.51C158.57,-75.3 166.6,-76.11 174.6,-76.91"/>
<polygon fill="#63b8ff" stroke="#63b8ff" points="174.05,-80.37 184.35,-77.89 174.75,-73.41 174.05,-80.37"/>
</a>
</g>
</g>
<!-- Node4 -->
<g id="Node000004" class="node">
<title>Node4</title>
<g id="a_Node000004"><a xlink:href="namespaceutils.html#a11a0eb68e467a22aed74f507057c39ed" target="_top" xlink:title=" ">
<polygon fill="white" stroke="#666666" points="315.88,-58 215.88,-58 215.88,-38 315.88,-38 315.88,-58"/>
<text text-anchor="middle" x="265.88" y="-44.5" font-family="Helvetica,sans-Serif" font-size="10.00">utils::IsOverlapping</text>
</a>
</g>
</g>
<!-- Node1&#45;&gt;Node4 -->
<g id="edge3_Node000001_Node000004" class="edge">
<title>Node1&#45;&gt;Node4</title>
<g id="a_edge3_Node000001_Node000004"><a xlink:title=" ">
<path fill="none" stroke="#63b8ff" d="M150.72,-59.49C168.39,-57.71 187.02,-55.84 204,-54.13"/>
<polygon fill="#63b8ff" stroke="#63b8ff" points="204.34,-57.61 213.94,-53.13 203.64,-50.65 204.34,-57.61"/>
</a>
</g>
</g>
<!-- Node10 -->
<g id="Node000010" class="node">
<title>Node10</title>
<g id="a_Node000010"><a xlink:href="class_character.html#ad86bc482bf4f17bff08a76d3ff54749e" target="_top" xlink:title=" ">
<polygon fill="white" stroke="#666666" points="323,-20 208.75,-20 208.75,0 323,0 323,-20"/>
<text text-anchor="middle" x="265.88" y="-6.5" font-family="Helvetica,sans-Serif" font-size="10.00">Character::ResetDash</text>
</a>
</g>
</g>
<!-- Node1&#45;&gt;Node10 -->
<g id="edge12_Node000001_Node000010" class="edge">
<title>Node1&#45;&gt;Node10</title>
<g id="a_edge12_Node000001_Node000010"><a xlink:title=" ">
<path fill="none" stroke="#63b8ff" d="M103.95,-56.58C126.08,-48.49 157.91,-37.29 186.25,-29 193.06,-27.01 200.25,-25.06 207.39,-23.22"/>
<polygon fill="#63b8ff" stroke="#63b8ff" points="208.22,-26.62 217.06,-20.79 206.51,-19.83 208.22,-26.62"/>
</a>
</g>
</g>
<!-- Node5 -->
<g id="Node000005" class="node">
<title>Node5</title>
<g id="a_Node000005"><a xlink:href="namespaceutils.html#a760075559e6ab59c1daec763fab2b488" target="_top" xlink:title=" ">
<polygon fill="white" stroke="#666666" points="519,-58 381.5,-58 381.5,-38 519,-38 519,-58"/>
<text text-anchor="middle" x="450.25" y="-44.5" font-family="Helvetica,sans-Serif" font-size="10.00">utils::DistPointLineSegment</text>
</a>
</g>
</g>
<!-- Node4&#45;&gt;Node5 -->
<g id="edge4_Node000004_Node000005" class="edge">
<title>Node4&#45;&gt;Node5</title>
<g id="a_edge4_Node000004_Node000005"><a xlink:title=" ">
<path fill="none" stroke="#63b8ff" d="M316.23,-48C332.66,-48 351.41,-48 369.54,-48"/>
<polygon fill="#63b8ff" stroke="#63b8ff" points="369.52,-51.5 379.52,-48 369.52,-44.5 369.52,-51.5"/>
</a>
</g>
</g>
<!-- Node6 -->
<g id="Node000006" class="node">
<title>Node6</title>
<g id="a_Node000006"><a xlink:href="struct_vector2f.html#af8ceb9310d7065eb485e47b072a5b143" target="_top" xlink:title=" ">
<polygon fill="white" stroke="#666666" points="662.5,-96 555,-96 555,-76 662.5,-76 662.5,-96"/>
<text text-anchor="middle" x="608.75" y="-82.5" font-family="Helvetica,sans-Serif" font-size="10.00">Vector2f::DotProduct</text>
</a>
</g>
</g>
<!-- Node5&#45;&gt;Node6 -->
<g id="edge5_Node000005_Node000006" class="edge">
<title>Node5&#45;&gt;Node6</title>
<g id="a_edge5_Node000005_Node000006"><a xlink:title=" ">
<path fill="none" stroke="#63b8ff" d="M494.43,-58.48C512.73,-62.93 534.26,-68.16 553.61,-72.85"/>
<polygon fill="#63b8ff" stroke="#63b8ff" points="552.7,-76.23 563.24,-75.19 554.35,-69.43 552.7,-76.23"/>
</a>
</g>
</g>
<!-- Node8 -->
<g id="Node000008" class="node">
<title>Node8</title>
<g id="a_Node000008"><a xlink:href="struct_vector2f.html#acedb20d25ccc3009546e120eda010bf5" target="_top" xlink:title=" ">
<polygon fill="white" stroke="#666666" points="789.12,-30 701.88,-30 701.88,-10 789.12,-10 789.12,-30"/>
<text text-anchor="middle" x="745.5" y="-16.5" font-family="Helvetica,sans-Serif" font-size="10.00">Vector2f::Length</text>
</a>
</g>
</g>
<!-- Node5&#45;&gt;Node8 -->
<g id="edge8_Node000005_Node000008" class="edge">
<title>Node5&#45;&gt;Node8</title>
<g id="a_edge8_Node000005_Node000008"><a xlink:title=" ">
<path fill="none" stroke="#63b8ff" d="M500.92,-37.51C517.99,-34.28 537.26,-31.04 555,-29 600.37,-23.79 652.18,-21.59 690.15,-20.66"/>
<polygon fill="#63b8ff" stroke="#63b8ff" points="690.04,-24.16 699.96,-20.44 689.88,-17.16 690.04,-24.16"/>
</a>
</g>
</g>
<!-- Node9 -->
<g id="Node000009" class="node">
<title>Node9</title>
<g id="a_Node000009"><a xlink:href="struct_vector2f.html#aba5dd756c385551a19d36b57d8cbf629" target="_top" xlink:title=" ">
<polygon fill="white" stroke="#666666" points="662.5,-58 555,-58 555,-38 662.5,-38 662.5,-58"/>
<text text-anchor="middle" x="608.75" y="-44.5" font-family="Helvetica,sans-Serif" font-size="10.00">Vector2f::Normalized</text>
</a>
</g>
</g>
<!-- Node5&#45;&gt;Node9 -->
<g id="edge9_Node000005_Node000009" class="edge">
<title>Node5&#45;&gt;Node9</title>
<g id="a_edge9_Node000005_Node000009"><a xlink:title=" ">
<path fill="none" stroke="#63b8ff" d="M519.44,-48C527.41,-48 535.52,-48 543.43,-48"/>
<polygon fill="#63b8ff" stroke="#63b8ff" points="543.33,-51.5 553.33,-48 543.33,-44.5 543.33,-51.5"/>
</a>
</g>
</g>
<!-- Node7 -->
<g id="Node000007" class="node">
<title>Node7</title>
<g id="a_Node000007"><a xlink:href="struct_vector2f.html#a3db9a868c58bc809e5e09a88d65a77ec" target="_top" xlink:title=" ">
<polygon fill="white" stroke="#666666" points="792.5,-77 698.5,-77 698.5,-57 792.5,-57 792.5,-77"/>
<text text-anchor="middle" x="745.5" y="-63.5" font-family="Helvetica,sans-Serif" font-size="10.00">Vector2f::Vector2f</text>
</a>
</g>
</g>
<!-- Node6&#45;&gt;Node7 -->
<g id="edge6_Node000006_Node000007" class="edge">
<title>Node6&#45;&gt;Node7</title>
<g id="a_edge6_Node000006_Node000007"><a xlink:title=" ">
<path fill="none" stroke="#63b8ff" d="M662.62,-78.55C670.64,-77.41 678.94,-76.24 687.05,-75.1"/>
<polygon fill="#63b8ff" stroke="#63b8ff" points="687.43,-78.58 696.84,-73.72 686.45,-71.65 687.43,-78.58"/>
</a>
</g>
</g>
<!-- Node7&#45;&gt;Node7 -->
<g id="edge7_Node000007_Node000007" class="edge">
<title>Node7&#45;&gt;Node7</title>
<g id="a_edge7_Node000007_Node000007"><a xlink:title=" ">
<path fill="none" stroke="#63b8ff" d="M723.77,-77.34C714.49,-85.98 721.73,-95 745.5,-95 758.5,-95 766.56,-92.3 769.67,-88.44"/>
<polygon fill="#63b8ff" stroke="#63b8ff" points="773.12,-87.83 767.55,-78.82 766.28,-89.34 773.12,-87.83"/>
</a>
</g>
</g>
<!-- Node9&#45;&gt;Node7 -->
<g id="edge11_Node000009_Node000007" class="edge">
<title>Node9&#45;&gt;Node7</title>
<g id="a_edge11_Node000009_Node000007"><a xlink:title=" ">
<path fill="none" stroke="#63b8ff" d="M662.62,-55.45C670.64,-56.59 678.94,-57.76 687.05,-58.9"/>
<polygon fill="#63b8ff" stroke="#63b8ff" points="686.45,-62.35 696.84,-60.28 687.43,-55.42 686.45,-62.35"/>
</a>
</g>
</g>
<!-- Node9&#45;&gt;Node8 -->
<g id="edge10_Node000009_Node000008" class="edge">
<title>Node9&#45;&gt;Node8</title>
<g id="a_edge10_Node000009_Node000008"><a xlink:title=" ">
<path fill="none" stroke="#63b8ff" d="M659.93,-37.57C669.93,-35.5 680.47,-33.3 690.6,-31.2"/>
<polygon fill="#63b8ff" stroke="#63b8ff" points="691.23,-34.64 700.31,-29.18 689.81,-27.79 691.23,-34.64"/>
</a>
</g>
</g>
</g>
</svg>
