<?xml version="1.0" encoding="UTF-8" standalone="no"?>
<!DOCTYPE svg PUBLIC "-//W3C//DTD SVG 1.1//EN"
 "http://www.w3.org/Graphics/SVG/1.1/DTD/svg11.dtd">
<!-- Generated by graphviz version 12.2.1 (20241206.2353)
 -->
<!-- Title: SaveFileIO::SaveFileIO Pages: 1 -->
<svg width="283pt" height="142pt"
 viewBox="0.00 0.00 283.00 142.00" xmlns="http://www.w3.org/2000/svg" xmlns:xlink="http://www.w3.org/1999/xlink">
<g id="graph0" class="graph" transform="scale(1 1) rotate(0) translate(4 138)">
<title>SaveFileIO::SaveFileIO</title>
<!-- Node1 -->
<g id="Node000001" class="node">
<title>Node1</title>
<g id="a_Node000001"><a xlink:title=" ">
<polygon fill="#999999" stroke="#666666" points="275,-77 155.5,-77 155.5,-57 275,-57 275,-77"/>
<text text-anchor="middle" x="215.25" y="-63.5" font-family="Helvetica,sans-Serif" font-size="10.00">SaveFileIO::SaveFileIO</text>
</a>
</g>
</g>
<!-- Node2 -->
<g id="Node000002" class="node">
<title>Node2</title>
<g id="a_Node000002"><a xlink:href="class_save_file_i_o.html#a8edbc346e186716f67883b5a342475b7" target="_top" xlink:title=" ">
<polygon fill="white" stroke="#666666" points="115.75,-134 3.75,-134 3.75,-114 115.75,-114 115.75,-134"/>
<text text-anchor="middle" x="59.75" y="-120.5" font-family="Helvetica,sans-Serif" font-size="10.00">SaveFileIO::operator=</text>
</a>
</g>
</g>
<!-- Node1&#45;&gt;Node2 -->
<g id="edge1_Node000001_Node000002" class="edge">
<title>Node1&#45;&gt;Node2</title>
<g id="a_edge1_Node000001_Node000002"><a xlink:title=" ">
<path fill="none" stroke="#63b8ff" d="M179.04,-81.79C161.29,-89.07 139.37,-97.81 119.5,-105 111.44,-107.92 102.67,-110.87 94.44,-113.54"/>
<polygon fill="#63b8ff" stroke="#63b8ff" points="180.19,-85.1 188.09,-78.05 177.51,-78.63 180.19,-85.1"/>
</a>
</g>
</g>
<!-- Node3 -->
<g id="Node000003" class="node">
<title>Node3</title>
<g id="a_Node000003"><a xlink:href="class_save_file_i_o.html#ab60f4480be042b66050a1cf31145eb69" target="_top" xlink:title=" ">
<polygon fill="white" stroke="#666666" points="115.75,-96 3.75,-96 3.75,-76 115.75,-76 115.75,-96"/>
<text text-anchor="middle" x="59.75" y="-82.5" font-family="Helvetica,sans-Serif" font-size="10.00">SaveFileIO::operator=</text>
</a>
</g>
</g>
<!-- Node1&#45;&gt;Node3 -->
<g id="edge2_Node000001_Node000003" class="edge">
<title>Node1&#45;&gt;Node3</title>
<g id="a_edge2_Node000001_Node000003"><a xlink:title=" ">
<path fill="none" stroke="#63b8ff" d="M144.06,-75.69C134.72,-76.84 125.26,-78.02 116.22,-79.13"/>
<polygon fill="#63b8ff" stroke="#63b8ff" points="144.35,-79.18 153.84,-74.48 143.49,-72.23 144.35,-79.18"/>
</a>
</g>
</g>
<!-- Node4 -->
<g id="Node000004" class="node">
<title>Node4</title>
<g id="a_Node000004"><a xlink:href="class_save_file_i_o.html#ac9222c22b2a0cadab92da81d3aca7f28" target="_top" xlink:title=" ">
<polygon fill="white" stroke="#666666" points="119.5,-58 0,-58 0,-38 119.5,-38 119.5,-58"/>
<text text-anchor="middle" x="59.75" y="-44.5" font-family="Helvetica,sans-Serif" font-size="10.00">SaveFileIO::SaveFileIO</text>
</a>
</g>
</g>
<!-- Node1&#45;&gt;Node4 -->
<g id="edge3_Node000001_Node000004" class="edge">
<title>Node1&#45;&gt;Node4</title>
<g id="a_edge3_Node000001_Node000004"><a xlink:title=" ">
<path fill="none" stroke="#63b8ff" d="M143.99,-58.3C135.89,-57.3 127.69,-56.29 119.75,-55.3"/>
<polygon fill="#63b8ff" stroke="#63b8ff" points="143.49,-61.77 153.84,-59.52 144.35,-54.82 143.49,-61.77"/>
</a>
</g>
</g>
<!-- Node5 -->
<g id="Node000005" class="node">
<title>Node5</title>
<g id="a_Node000005"><a xlink:href="class_save_file_i_o.html#a470396ecf0a82cb108e07c9625d554de" target="_top" xlink:title=" ">
<polygon fill="white" stroke="#666666" points="119.5,-20 0,-20 0,0 119.5,0 119.5,-20"/>
<text text-anchor="middle" x="59.75" y="-6.5" font-family="Helvetica,sans-Serif" font-size="10.00">SaveFileIO::SaveFileIO</text>
</a>
</g>
</g>
<!-- Node1&#45;&gt;Node5 -->
<g id="edge4_Node000001_Node000005" class="edge">
<title>Node1&#45;&gt;Node5</title>
<g id="a_edge4_Node000001_Node000005"><a xlink:title=" ">
<path fill="none" stroke="#63b8ff" d="M179.04,-52.21C161.29,-44.93 139.37,-36.19 119.5,-29 111.44,-26.08 102.67,-23.13 94.44,-20.46"/>
<polygon fill="#63b8ff" stroke="#63b8ff" points="177.51,-55.37 188.09,-55.95 180.19,-48.9 177.51,-55.37"/>
</a>
</g>
</g>
</g>
</svg>
