<?xml version="1.0" encoding="UTF-8" standalone="no"?>
<!DOCTYPE svg PUBLIC "-//W3C//DTD SVG 1.1//EN"
 "http://www.w3.org/Graphics/SVG/1.1/DTD/svg11.dtd">
<!-- Generated by graphviz version 12.2.1 (20241206.2353)
 -->
<!-- Title: Strawberry::Draw Pages: 1 -->
<svg width="255pt" height="66pt"
 viewBox="0.00 0.00 255.25 66.00" xmlns="http://www.w3.org/2000/svg" xmlns:xlink="http://www.w3.org/1999/xlink">
<g id="graph0" class="graph" transform="scale(1 1) rotate(0) translate(4 62)">
<title>Strawberry::Draw</title>
<!-- Node1 -->
<g id="Node000001" class="node">
<title>Node1</title>
<g id="a_Node000001"><a xlink:title=" ">
<polygon fill="#999999" stroke="#666666" points="247.25,-39 154.75,-39 154.75,-19 247.25,-19 247.25,-39"/>
<text text-anchor="middle" x="201" y="-25.5" font-family="Helvetica,sans-Serif" font-size="10.00">Strawberry::Draw</text>
</a>
</g>
</g>
<!-- Node1&#45;&gt;Node1 -->
<g id="edge2_Node000001_Node000001" class="edge">
<title>Node1&#45;&gt;Node1</title>
<g id="a_edge2_Node000001_Node000001"><a xlink:title=" ">
<path fill="none" stroke="#63b8ff" d="M226.03,-50.44C222.81,-54.3 214.46,-57 201,-57 176.38,-57 168.88,-47.98 178.5,-39.34"/>
<polygon fill="#63b8ff" stroke="#63b8ff" points="229.47,-49.79 223.84,-40.81 222.65,-51.34 229.47,-49.79"/>
</a>
</g>
</g>
<!-- Node2 -->
<g id="Node000002" class="node">
<title>Node2</title>
<g id="a_Node000002"><a xlink:href="class_flying_strawberry.html#a0d9ddf2453f19d6a3e16df7fcb0f9025" target="_top" xlink:title=" ">
<polygon fill="white" stroke="#666666" points="118.75,-58 0,-58 0,-38 118.75,-38 118.75,-58"/>
<text text-anchor="middle" x="59.38" y="-44.5" font-family="Helvetica,sans-Serif" font-size="10.00">FlyingStrawberry::Draw</text>
</a>
</g>
</g>
<!-- Node1&#45;&gt;Node2 -->
<g id="edge1_Node000001_Node000002" class="edge">
<title>Node1&#45;&gt;Node2</title>
<g id="a_edge1_Node000001_Node000002"><a xlink:title=" ">
<path fill="none" stroke="#63b8ff" d="M142.9,-36.77C134.99,-37.85 126.86,-38.95 118.92,-40.03"/>
<polygon fill="#63b8ff" stroke="#63b8ff" points="143.35,-40.24 152.78,-35.43 142.4,-33.31 143.35,-40.24"/>
</a>
</g>
</g>
<!-- Node3 -->
<g id="Node000003" class="node">
<title>Node3</title>
<g id="a_Node000003"><a xlink:href="class_strawberry.html#a673f5c80b8d67a2580087a4eae0832b6" target="_top" xlink:title=" ">
<polygon fill="white" stroke="#666666" points="114.62,-20 4.12,-20 4.12,0 114.62,0 114.62,-20"/>
<text text-anchor="middle" x="59.38" y="-6.5" font-family="Helvetica,sans-Serif" font-size="10.00">Strawberry::operator=</text>
</a>
</g>
</g>
<!-- Node1&#45;&gt;Node3 -->
<g id="edge3_Node000001_Node000003" class="edge">
<title>Node1&#45;&gt;Node3</title>
<g id="a_edge3_Node000001_Node000003"><a xlink:title=" ">
<path fill="none" stroke="#63b8ff" d="M143.13,-21.26C133.83,-20 124.2,-18.69 114.95,-17.43"/>
<polygon fill="#63b8ff" stroke="#63b8ff" points="142.4,-24.69 152.78,-22.57 143.35,-17.76 142.4,-24.69"/>
</a>
</g>
</g>
</g>
</svg>
