<?xml version="1.0" encoding="UTF-8" standalone="no"?>
<!DOCTYPE svg PUBLIC "-//W3C//DTD SVG 1.1//EN"
 "http://www.w3.org/Graphics/SVG/1.1/DTD/svg11.dtd">
<!-- Generated by graphviz version 12.2.1 (20241206.2353)
 -->
<!-- Title: FlyingStrawberry::FlyingStrawberry Pages: 1 -->
<svg width="303pt" height="166pt"
 viewBox="0.00 0.00 302.50 166.00" xmlns="http://www.w3.org/2000/svg" xmlns:xlink="http://www.w3.org/1999/xlink">
<g id="graph0" class="graph" transform="scale(1 1) rotate(0) translate(4 162)">
<title>FlyingStrawberry::FlyingStrawberry</title>
<!-- Node1 -->
<g id="Node000001" class="node">
<title>Node1</title>
<g id="a_Node000001"><a xlink:title=" ">
<polygon fill="#999999" stroke="#666666" points="294.5,-86 172.75,-86 172.75,-54 294.5,-54 294.5,-86"/>
<text text-anchor="start" x="180.75" y="-72.5" font-family="Helvetica,sans-Serif" font-size="10.00">FlyingStrawberry::Flying</text>
<text text-anchor="middle" x="233.62" y="-60.5" font-family="Helvetica,sans-Serif" font-size="10.00">Strawberry</text>
</a>
</g>
</g>
<!-- Node2 -->
<g id="Node000002" class="node">
<title>Node2</title>
<g id="a_Node000002"><a xlink:href="class_flying_strawberry.html#ac1a195cd4ae7ae45963af4d7630235eb" target="_top" xlink:title=" ">
<polygon fill="white" stroke="#666666" points="129.25,-158 7.5,-158 7.5,-126 129.25,-126 129.25,-158"/>
<text text-anchor="start" x="15.5" y="-144.5" font-family="Helvetica,sans-Serif" font-size="10.00">FlyingStrawberry::Flying</text>
<text text-anchor="middle" x="68.38" y="-132.5" font-family="Helvetica,sans-Serif" font-size="10.00">Strawberry</text>
</a>
</g>
</g>
<!-- Node1&#45;&gt;Node2 -->
<g id="edge1_Node000001_Node000002" class="edge">
<title>Node1&#45;&gt;Node2</title>
<g id="a_edge1_Node000001_Node000002"><a xlink:title=" ">
<path fill="none" stroke="#63b8ff" d="M191.05,-91.51C174.35,-99.86 154.81,-109.25 136.75,-117 129.99,-119.9 122.76,-122.8 115.65,-125.53"/>
<polygon fill="#63b8ff" stroke="#63b8ff" points="192.33,-94.79 199.69,-87.16 189.18,-88.53 192.33,-94.79"/>
</a>
</g>
</g>
<!-- Node3 -->
<g id="Node000003" class="node">
<title>Node3</title>
<g id="a_Node000003"><a xlink:href="class_flying_strawberry.html#aa70131b40e4fb24eb03a9c6ecbfd2d59" target="_top" xlink:title=" ">
<polygon fill="white" stroke="#666666" points="129.25,-108 7.5,-108 7.5,-76 129.25,-76 129.25,-108"/>
<text text-anchor="start" x="15.5" y="-94.5" font-family="Helvetica,sans-Serif" font-size="10.00">FlyingStrawberry::Flying</text>
<text text-anchor="middle" x="68.38" y="-82.5" font-family="Helvetica,sans-Serif" font-size="10.00">Strawberry</text>
</a>
</g>
</g>
<!-- Node1&#45;&gt;Node3 -->
<g id="edge2_Node000001_Node000003" class="edge">
<title>Node1&#45;&gt;Node3</title>
<g id="a_edge2_Node000001_Node000003"><a xlink:title=" ">
<path fill="none" stroke="#63b8ff" d="M161.07,-79.64C150.61,-81.05 139.93,-82.49 129.72,-83.87"/>
<polygon fill="#63b8ff" stroke="#63b8ff" points="161.36,-83.14 170.8,-78.33 160.42,-76.2 161.36,-83.14"/>
</a>
</g>
</g>
<!-- Node4 -->
<g id="Node000004" class="node">
<title>Node4</title>
<g id="a_Node000004"><a xlink:href="class_flying_strawberry.html#a13e7820116a2e072653974d1cbd9496c" target="_top" xlink:title=" ">
<polygon fill="white" stroke="#666666" points="136.75,-58 0,-58 0,-38 136.75,-38 136.75,-58"/>
<text text-anchor="middle" x="68.38" y="-44.5" font-family="Helvetica,sans-Serif" font-size="10.00">FlyingStrawberry::operator=</text>
</a>
</g>
</g>
<!-- Node1&#45;&gt;Node4 -->
<g id="edge3_Node000001_Node000004" class="edge">
<title>Node1&#45;&gt;Node4</title>
<g id="a_edge3_Node000001_Node000004"><a xlink:title=" ">
<path fill="none" stroke="#63b8ff" d="M161.15,-60.37C153.18,-59.29 145.08,-58.2 137.15,-57.13"/>
<polygon fill="#63b8ff" stroke="#63b8ff" points="160.42,-63.8 170.8,-61.67 161.36,-56.86 160.42,-63.8"/>
</a>
</g>
</g>
<!-- Node5 -->
<g id="Node000005" class="node">
<title>Node5</title>
<g id="a_Node000005"><a xlink:href="class_flying_strawberry.html#a415c4868ba7ff99c77a638df1e7e0684" target="_top" xlink:title=" ">
<polygon fill="white" stroke="#666666" points="136.75,-20 0,-20 0,0 136.75,0 136.75,-20"/>
<text text-anchor="middle" x="68.38" y="-6.5" font-family="Helvetica,sans-Serif" font-size="10.00">FlyingStrawberry::operator=</text>
</a>
</g>
</g>
<!-- Node1&#45;&gt;Node5 -->
<g id="edge4_Node000001_Node000005" class="edge">
<title>Node1&#45;&gt;Node5</title>
<g id="a_edge4_Node000001_Node000005"><a xlink:title=" ">
<path fill="none" stroke="#63b8ff" d="M186.62,-48.9C170.97,-42.1 153.25,-34.83 136.75,-29 128.04,-25.92 118.56,-23 109.54,-20.41"/>
<polygon fill="#63b8ff" stroke="#63b8ff" points="185.14,-52.07 195.71,-52.9 187.96,-45.67 185.14,-52.07"/>
</a>
</g>
</g>
</g>
</svg>
