<?xml version="1.0" encoding="UTF-8" standalone="no"?>
<!DOCTYPE svg PUBLIC "-//W3C//DTD SVG 1.1//EN"
 "http://www.w3.org/Graphics/SVG/1.1/DTD/svg11.dtd">
<!-- Generated by graphviz version 12.2.1 (20241206.2353)
 -->
<!-- Title: Spike::PlayerInteraction Pages: 1 -->
<svg width="722pt" height="132pt"
 viewBox="0.00 0.00 721.75 132.00" xmlns="http://www.w3.org/2000/svg" xmlns:xlink="http://www.w3.org/1999/xlink">
<g id="graph0" class="graph" transform="scale(1 1) rotate(0) translate(4 128)">
<title>Spike::PlayerInteraction</title>
<!-- Node1 -->
<g id="Node000001" class="node">
<title>Node1</title>
<g id="a_Node000001"><a xlink:title=" ">
<polygon fill="#999999" stroke="#666666" points="120.25,-86 0,-86 0,-66 120.25,-66 120.25,-86"/>
<text text-anchor="middle" x="60.12" y="-72.5" font-family="Helvetica,sans-Serif" font-size="10.00">Spike::PlayerInteraction</text>
</a>
</g>
</g>
<!-- Node2 -->
<g id="Node000002" class="node">
<title>Node2</title>
<g id="a_Node000002"><a xlink:href="class_character.html#ad4cf75aee602249dff4bdb61f20eb5f2" target="_top" xlink:title=" ">
<polygon fill="white" stroke="#666666" points="251.38,-124 171.62,-124 171.62,-104 251.38,-104 251.38,-124"/>
<text text-anchor="middle" x="211.5" y="-110.5" font-family="Helvetica,sans-Serif" font-size="10.00">Character::Die</text>
</a>
</g>
</g>
<!-- Node1&#45;&gt;Node2 -->
<g id="edge1_Node000001_Node000002" class="edge">
<title>Node1&#45;&gt;Node2</title>
<g id="a_edge1_Node000001_Node000002"><a xlink:title=" ">
<path fill="none" stroke="#63b8ff" d="M102.34,-86.48C120.23,-91.04 141.35,-96.41 160.16,-101.19"/>
<polygon fill="#63b8ff" stroke="#63b8ff" points="159.2,-104.56 169.76,-103.63 160.93,-97.78 159.2,-104.56"/>
</a>
</g>
</g>
<!-- Node3 -->
<g id="Node000003" class="node">
<title>Node3</title>
<g id="a_Node000003"><a xlink:href="class_character.html#a0b790800d6ff90eebee18bce25177fce" target="_top" xlink:title=" ">
<polygon fill="white" stroke="#666666" points="266.75,-86 156.25,-86 156.25,-66 266.75,-66 266.75,-86"/>
<text text-anchor="middle" x="211.5" y="-72.5" font-family="Helvetica,sans-Serif" font-size="10.00">Character::GetHitBox</text>
</a>
</g>
</g>
<!-- Node1&#45;&gt;Node3 -->
<g id="edge2_Node000001_Node000003" class="edge">
<title>Node1&#45;&gt;Node3</title>
<g id="a_edge2_Node000001_Node000003"><a xlink:title=" ">
<path fill="none" stroke="#63b8ff" d="M120.59,-76C128.55,-76 136.76,-76 144.82,-76"/>
<polygon fill="#63b8ff" stroke="#63b8ff" points="144.57,-79.5 154.57,-76 144.57,-72.5 144.57,-79.5"/>
</a>
</g>
</g>
<!-- Node4 -->
<g id="Node000004" class="node">
<title>Node4</title>
<g id="a_Node000004"><a xlink:href="namespaceutils.html#a11a0eb68e467a22aed74f507057c39ed" target="_top" xlink:title=" ">
<polygon fill="white" stroke="#666666" points="261.5,-48 161.5,-48 161.5,-28 261.5,-28 261.5,-48"/>
<text text-anchor="middle" x="211.5" y="-34.5" font-family="Helvetica,sans-Serif" font-size="10.00">utils::IsOverlapping</text>
</a>
</g>
</g>
<!-- Node1&#45;&gt;Node4 -->
<g id="edge3_Node000001_Node000004" class="edge">
<title>Node1&#45;&gt;Node4</title>
<g id="a_edge3_Node000001_Node000004"><a xlink:title=" ">
<path fill="none" stroke="#63b8ff" d="M102.34,-65.52C119.64,-61.11 139.97,-55.94 158.31,-51.28"/>
<polygon fill="#63b8ff" stroke="#63b8ff" points="159.13,-54.68 167.95,-48.82 157.4,-47.9 159.13,-54.68"/>
</a>
</g>
</g>
<!-- Node5 -->
<g id="Node000005" class="node">
<title>Node5</title>
<g id="a_Node000005"><a xlink:href="namespaceutils.html#a760075559e6ab59c1daec763fab2b488" target="_top" xlink:title=" ">
<polygon fill="white" stroke="#666666" points="440.25,-48 302.75,-48 302.75,-28 440.25,-28 440.25,-48"/>
<text text-anchor="middle" x="371.5" y="-34.5" font-family="Helvetica,sans-Serif" font-size="10.00">utils::DistPointLineSegment</text>
</a>
</g>
</g>
<!-- Node4&#45;&gt;Node5 -->
<g id="edge4_Node000004_Node000005" class="edge">
<title>Node4&#45;&gt;Node5</title>
<g id="a_edge4_Node000004_Node000005"><a xlink:title=" ">
<path fill="none" stroke="#63b8ff" d="M261.63,-38C270.97,-38 280.97,-38 290.98,-38"/>
<polygon fill="#63b8ff" stroke="#63b8ff" points="290.74,-41.5 300.74,-38 290.74,-34.5 290.74,-41.5"/>
</a>
</g>
</g>
<!-- Node6 -->
<g id="Node000006" class="node">
<title>Node6</title>
<g id="a_Node000006"><a xlink:href="struct_vector2f.html#af8ceb9310d7065eb485e47b072a5b143" target="_top" xlink:title=" ">
<polygon fill="white" stroke="#666666" points="583.75,-86 476.25,-86 476.25,-66 583.75,-66 583.75,-86"/>
<text text-anchor="middle" x="530" y="-72.5" font-family="Helvetica,sans-Serif" font-size="10.00">Vector2f::DotProduct</text>
</a>
</g>
</g>
<!-- Node5&#45;&gt;Node6 -->
<g id="edge5_Node000005_Node000006" class="edge">
<title>Node5&#45;&gt;Node6</title>
<g id="a_edge5_Node000005_Node000006"><a xlink:title=" ">
<path fill="none" stroke="#63b8ff" d="M415.68,-48.48C433.98,-52.93 455.51,-58.16 474.86,-62.85"/>
<polygon fill="#63b8ff" stroke="#63b8ff" points="473.95,-66.23 484.49,-65.19 475.6,-59.43 473.95,-66.23"/>
</a>
</g>
</g>
<!-- Node8 -->
<g id="Node000008" class="node">
<title>Node8</title>
<g id="a_Node000008"><a xlink:href="struct_vector2f.html#acedb20d25ccc3009546e120eda010bf5" target="_top" xlink:title=" ">
<polygon fill="white" stroke="#666666" points="710.38,-20 623.12,-20 623.12,0 710.38,0 710.38,-20"/>
<text text-anchor="middle" x="666.75" y="-6.5" font-family="Helvetica,sans-Serif" font-size="10.00">Vector2f::Length</text>
</a>
</g>
</g>
<!-- Node5&#45;&gt;Node8 -->
<g id="edge8_Node000005_Node000008" class="edge">
<title>Node5&#45;&gt;Node8</title>
<g id="a_edge8_Node000005_Node000008"><a xlink:title=" ">
<path fill="none" stroke="#63b8ff" d="M422.17,-27.51C439.24,-24.28 458.51,-21.04 476.25,-19 521.62,-13.79 573.43,-11.59 611.4,-10.66"/>
<polygon fill="#63b8ff" stroke="#63b8ff" points="611.29,-14.16 621.21,-10.44 611.13,-7.16 611.29,-14.16"/>
</a>
</g>
</g>
<!-- Node9 -->
<g id="Node000009" class="node">
<title>Node9</title>
<g id="a_Node000009"><a xlink:href="struct_vector2f.html#aba5dd756c385551a19d36b57d8cbf629" target="_top" xlink:title=" ">
<polygon fill="white" stroke="#666666" points="583.75,-48 476.25,-48 476.25,-28 583.75,-28 583.75,-48"/>
<text text-anchor="middle" x="530" y="-34.5" font-family="Helvetica,sans-Serif" font-size="10.00">Vector2f::Normalized</text>
</a>
</g>
</g>
<!-- Node5&#45;&gt;Node9 -->
<g id="edge9_Node000005_Node000009" class="edge">
<title>Node5&#45;&gt;Node9</title>
<g id="a_edge9_Node000005_Node000009"><a xlink:title=" ">
<path fill="none" stroke="#63b8ff" d="M440.69,-38C448.66,-38 456.77,-38 464.68,-38"/>
<polygon fill="#63b8ff" stroke="#63b8ff" points="464.58,-41.5 474.58,-38 464.58,-34.5 464.58,-41.5"/>
</a>
</g>
</g>
<!-- Node7 -->
<g id="Node000007" class="node">
<title>Node7</title>
<g id="a_Node000007"><a xlink:href="struct_vector2f.html#a3db9a868c58bc809e5e09a88d65a77ec" target="_top" xlink:title=" ">
<polygon fill="white" stroke="#666666" points="713.75,-67 619.75,-67 619.75,-47 713.75,-47 713.75,-67"/>
<text text-anchor="middle" x="666.75" y="-53.5" font-family="Helvetica,sans-Serif" font-size="10.00">Vector2f::Vector2f</text>
</a>
</g>
</g>
<!-- Node6&#45;&gt;Node7 -->
<g id="edge6_Node000006_Node000007" class="edge">
<title>Node6&#45;&gt;Node7</title>
<g id="a_edge6_Node000006_Node000007"><a xlink:title=" ">
<path fill="none" stroke="#63b8ff" d="M583.87,-68.55C591.89,-67.41 600.19,-66.24 608.3,-65.1"/>
<polygon fill="#63b8ff" stroke="#63b8ff" points="608.68,-68.58 618.09,-63.72 607.7,-61.65 608.68,-68.58"/>
</a>
</g>
</g>
<!-- Node7&#45;&gt;Node7 -->
<g id="edge7_Node000007_Node000007" class="edge">
<title>Node7&#45;&gt;Node7</title>
<g id="a_edge7_Node000007_Node000007"><a xlink:title=" ">
<path fill="none" stroke="#63b8ff" d="M645.02,-67.34C635.74,-75.98 642.98,-85 666.75,-85 679.75,-85 687.81,-82.3 690.92,-78.44"/>
<polygon fill="#63b8ff" stroke="#63b8ff" points="694.37,-77.83 688.8,-68.82 687.53,-79.34 694.37,-77.83"/>
</a>
</g>
</g>
<!-- Node9&#45;&gt;Node7 -->
<g id="edge11_Node000009_Node000007" class="edge">
<title>Node9&#45;&gt;Node7</title>
<g id="a_edge11_Node000009_Node000007"><a xlink:title=" ">
<path fill="none" stroke="#63b8ff" d="M583.87,-45.45C591.89,-46.59 600.19,-47.76 608.3,-48.9"/>
<polygon fill="#63b8ff" stroke="#63b8ff" points="607.7,-52.35 618.09,-50.28 608.68,-45.42 607.7,-52.35"/>
</a>
</g>
</g>
<!-- Node9&#45;&gt;Node8 -->
<g id="edge10_Node000009_Node000008" class="edge">
<title>Node9&#45;&gt;Node8</title>
<g id="a_edge10_Node000009_Node000008"><a xlink:title=" ">
<path fill="none" stroke="#63b8ff" d="M581.18,-27.57C591.18,-25.5 601.72,-23.3 611.85,-21.2"/>
<polygon fill="#63b8ff" stroke="#63b8ff" points="612.48,-24.64 621.56,-19.18 611.06,-17.79 612.48,-24.64"/>
</a>
</g>
</g>
</g>
</svg>
