<?xml version="1.0" encoding="UTF-8" standalone="no"?>
<!DOCTYPE svg PUBLIC "-//W3C//DTD SVG 1.1//EN"
 "http://www.w3.org/Graphics/SVG/1.1/DTD/svg11.dtd">
<!-- Generated by graphviz version 12.2.1 (20241206.2353)
 -->
<!-- Title: SoundStream::SoundStream Pages: 1 -->
<svg width="325pt" height="142pt"
 viewBox="0.00 0.00 325.00 142.00" xmlns="http://www.w3.org/2000/svg" xmlns:xlink="http://www.w3.org/1999/xlink">
<g id="graph0" class="graph" transform="scale(1 1) rotate(0) translate(4 138)">
<title>SoundStream::SoundStream</title>
<!-- Node1 -->
<g id="Node000001" class="node">
<title>Node1</title>
<g id="a_Node000001"><a xlink:title=" ">
<polygon fill="#999999" stroke="#666666" points="317,-77 176.5,-77 176.5,-57 317,-57 317,-77"/>
<text text-anchor="middle" x="246.75" y="-63.5" font-family="Helvetica,sans-Serif" font-size="10.00">SoundStream::SoundStream</text>
</a>
</g>
</g>
<!-- Node2 -->
<g id="Node000002" class="node">
<title>Node2</title>
<g id="a_Node000002"><a xlink:href="class_sound_stream.html#abd3ae4811decd035fb5a7651c315ac9b" target="_top" xlink:title=" ">
<polygon fill="white" stroke="#666666" points="131.5,-134 9,-134 9,-114 131.5,-114 131.5,-134"/>
<text text-anchor="middle" x="70.25" y="-120.5" font-family="Helvetica,sans-Serif" font-size="10.00">SoundStream::operator=</text>
</a>
</g>
</g>
<!-- Node1&#45;&gt;Node2 -->
<g id="edge1_Node000001_Node000002" class="edge">
<title>Node1&#45;&gt;Node2</title>
<g id="a_edge1_Node000001_Node000002"><a xlink:title=" ">
<path fill="none" stroke="#63b8ff" d="M208.17,-81.38C188.2,-88.82 163.16,-97.81 140.5,-105 131.11,-107.98 120.92,-110.93 111.32,-113.58"/>
<polygon fill="#63b8ff" stroke="#63b8ff" points="209.14,-84.75 217.27,-77.97 206.68,-78.2 209.14,-84.75"/>
</a>
</g>
</g>
<!-- Node3 -->
<g id="Node000003" class="node">
<title>Node3</title>
<g id="a_Node000003"><a xlink:href="class_sound_stream.html#a537cd2129fd3cc7df09f625145c3465a" target="_top" xlink:title=" ">
<polygon fill="white" stroke="#666666" points="131.5,-96 9,-96 9,-76 131.5,-76 131.5,-96"/>
<text text-anchor="middle" x="70.25" y="-82.5" font-family="Helvetica,sans-Serif" font-size="10.00">SoundStream::operator=</text>
</a>
</g>
</g>
<!-- Node1&#45;&gt;Node3 -->
<g id="edge2_Node000001_Node000003" class="edge">
<title>Node1&#45;&gt;Node3</title>
<g id="a_edge2_Node000001_Node000003"><a xlink:title=" ">
<path fill="none" stroke="#63b8ff" d="M164.62,-75.83C153.59,-77.03 142.43,-78.25 131.85,-79.4"/>
<polygon fill="#63b8ff" stroke="#63b8ff" points="164.96,-79.32 174.53,-74.76 164.21,-72.36 164.96,-79.32"/>
</a>
</g>
</g>
<!-- Node4 -->
<g id="Node000004" class="node">
<title>Node4</title>
<g id="a_Node000004"><a xlink:href="class_sound_stream.html#a966f2536fc64b1ca015c985c3f546984" target="_top" xlink:title=" ">
<polygon fill="white" stroke="#666666" points="140.5,-58 0,-58 0,-38 140.5,-38 140.5,-58"/>
<text text-anchor="middle" x="70.25" y="-44.5" font-family="Helvetica,sans-Serif" font-size="10.00">SoundStream::SoundStream</text>
</a>
</g>
</g>
<!-- Node1&#45;&gt;Node4 -->
<g id="edge3_Node000001_Node000004" class="edge">
<title>Node1&#45;&gt;Node4</title>
<g id="a_edge3_Node000001_Node000004"><a xlink:title=" ">
<path fill="none" stroke="#63b8ff" d="M164.8,-58.19C156.8,-57.31 148.73,-56.44 140.86,-55.58"/>
<polygon fill="#63b8ff" stroke="#63b8ff" points="164.21,-61.64 174.53,-59.24 164.96,-54.68 164.21,-61.64"/>
</a>
</g>
</g>
<!-- Node5 -->
<g id="Node000005" class="node">
<title>Node5</title>
<g id="a_Node000005"><a xlink:href="class_sound_stream.html#af98d37be458634f8dc69e3f8e8936cd3" target="_top" xlink:title=" ">
<polygon fill="white" stroke="#666666" points="140.5,-20 0,-20 0,0 140.5,0 140.5,-20"/>
<text text-anchor="middle" x="70.25" y="-6.5" font-family="Helvetica,sans-Serif" font-size="10.00">SoundStream::SoundStream</text>
</a>
</g>
</g>
<!-- Node1&#45;&gt;Node5 -->
<g id="edge4_Node000001_Node000005" class="edge">
<title>Node1&#45;&gt;Node5</title>
<g id="a_edge4_Node000001_Node000005"><a xlink:title=" ">
<path fill="none" stroke="#63b8ff" d="M208.17,-52.62C188.2,-45.18 163.16,-36.19 140.5,-29 131.11,-26.02 120.92,-23.07 111.32,-20.42"/>
<polygon fill="#63b8ff" stroke="#63b8ff" points="206.68,-55.8 217.27,-56.03 209.14,-49.25 206.68,-55.8"/>
</a>
</g>
</g>
</g>
</svg>
