<?xml version="1.0" encoding="UTF-8" standalone="no"?>
<!DOCTYPE svg PUBLIC "-//W3C//DTD SVG 1.1//EN"
 "http://www.w3.org/Graphics/SVG/1.1/DTD/svg11.dtd">
<!-- Generated by graphviz version 12.2.1 (20241206.2353)
 -->
<!-- Title: Game::Game Pages: 1 -->
<svg width="245pt" height="66pt"
 viewBox="0.00 0.00 244.75 66.00" xmlns="http://www.w3.org/2000/svg" xmlns:xlink="http://www.w3.org/1999/xlink">
<g id="graph0" class="graph" transform="scale(1 1) rotate(0) translate(4 62)">
<title>Game::Game</title>
<!-- Node1 -->
<g id="Node000001" class="node">
<title>Node1</title>
<g id="a_Node000001"><a xlink:title=" ">
<polygon fill="#999999" stroke="#666666" points="74.5,-39 0,-39 0,-19 74.5,-19 74.5,-39"/>
<text text-anchor="middle" x="37.25" y="-25.5" font-family="Helvetica,sans-Serif" font-size="10.00">Game::Game</text>
</a>
</g>
</g>
<!-- Node2 -->
<g id="Node000002" class="node">
<title>Node2</title>
<g id="a_Node000002"><a xlink:href="class_base_game.html#a76b8f6a3eac263f5007d9851c54a6e28" target="_top" xlink:title=" ">
<polygon fill="white" stroke="#666666" points="233.38,-58 113.88,-58 113.88,-38 233.38,-38 233.38,-58"/>
<text text-anchor="middle" x="173.62" y="-44.5" font-family="Helvetica,sans-Serif" font-size="10.00">BaseGame::BaseGame</text>
</a>
</g>
</g>
<!-- Node1&#45;&gt;Node2 -->
<g id="edge1_Node000001_Node000002" class="edge">
<title>Node1&#45;&gt;Node2</title>
<g id="a_edge1_Node000001_Node000002"><a xlink:title=" ">
<path fill="none" stroke="#63b8ff" d="M74.97,-34.19C83.51,-35.4 92.89,-36.73 102.35,-38.06"/>
<polygon fill="#63b8ff" stroke="#63b8ff" points="101.56,-41.49 111.96,-39.42 102.54,-34.56 101.56,-41.49"/>
</a>
</g>
</g>
<!-- Node3 -->
<g id="Node000003" class="node">
<title>Node3</title>
<g id="a_Node000003"><a xlink:href="class_base_game.html#a3d1875a0bb6da063a0698fc25820e6fc" target="_top" xlink:title=" ">
<polygon fill="white" stroke="#666666" points="236.75,-20 110.5,-20 110.5,0 236.75,0 236.75,-20"/>
<text text-anchor="middle" x="173.62" y="-6.5" font-family="Helvetica,sans-Serif" font-size="10.00">BaseGame::GetViewPort</text>
</a>
</g>
</g>
<!-- Node1&#45;&gt;Node3 -->
<g id="edge2_Node000001_Node000003" class="edge">
<title>Node1&#45;&gt;Node3</title>
<g id="a_edge2_Node000001_Node000003"><a xlink:title=" ">
<path fill="none" stroke="#63b8ff" d="M74.97,-23.81C82.45,-22.75 90.57,-21.6 98.82,-20.44"/>
<polygon fill="#63b8ff" stroke="#63b8ff" points="99.2,-23.92 108.61,-19.05 98.22,-16.99 99.2,-23.92"/>
</a>
</g>
</g>
</g>
</svg>
