<?xml version="1.0" encoding="UTF-8" standalone="no"?>
<!DOCTYPE svg PUBLIC "-//W3C//DTD SVG 1.1//EN"
 "http://www.w3.org/Graphics/SVG/1.1/DTD/svg11.dtd">
<!-- Generated by graphviz version 12.2.1 (20241206.2353)
 -->
<!-- Title: Character::Die Pages: 1 -->
<svg width="274pt" height="66pt"
 viewBox="0.00 0.00 274.00 66.00" xmlns="http://www.w3.org/2000/svg" xmlns:xlink="http://www.w3.org/1999/xlink">
<g id="graph0" class="graph" transform="scale(1 1) rotate(0) translate(4 62)">
<title>Character::Die</title>
<!-- Node1 -->
<g id="Node000001" class="node">
<title>Node1</title>
<g id="a_Node000001"><a xlink:title=" ">
<polygon fill="#999999" stroke="#666666" points="266,-39 186.25,-39 186.25,-19 266,-19 266,-39"/>
<text text-anchor="middle" x="226.12" y="-25.5" font-family="Helvetica,sans-Serif" font-size="10.00">Character::Die</text>
</a>
</g>
</g>
<!-- Node2 -->
<g id="Node000002" class="node">
<title>Node2</title>
<g id="a_Node000002"><a xlink:href="class_cog_platform.html#afd4a86f749690313b5bd2587f15c6ce8" target="_top" xlink:title=" ">
<polygon fill="white" stroke="#666666" points="150.25,-58 0,-58 0,-38 150.25,-38 150.25,-58"/>
<text text-anchor="middle" x="75.12" y="-44.5" font-family="Helvetica,sans-Serif" font-size="10.00">CogPlatform::PlayerInteraction</text>
</a>
</g>
</g>
<!-- Node1&#45;&gt;Node2 -->
<g id="edge1_Node000001_Node000002" class="edge">
<title>Node1&#45;&gt;Node2</title>
<g id="a_edge1_Node000001_Node000002"><a xlink:title=" ">
<path fill="none" stroke="#63b8ff" d="M174.82,-35.42C166.97,-36.42 158.72,-37.47 150.48,-38.52"/>
<polygon fill="#63b8ff" stroke="#63b8ff" points="175,-38.92 184.48,-34.18 174.11,-31.98 175,-38.92"/>
</a>
</g>
</g>
<!-- Node3 -->
<g id="Node000003" class="node">
<title>Node3</title>
<g id="a_Node000003"><a xlink:href="class_spike.html#a7c79520a23045ef568326c1cedc2eba9" target="_top" xlink:title=" ">
<polygon fill="white" stroke="#666666" points="135.25,-20 15,-20 15,0 135.25,0 135.25,-20"/>
<text text-anchor="middle" x="75.12" y="-6.5" font-family="Helvetica,sans-Serif" font-size="10.00">Spike::PlayerInteraction</text>
</a>
</g>
</g>
<!-- Node1&#45;&gt;Node3 -->
<g id="edge2_Node000001_Node000003" class="edge">
<title>Node1&#45;&gt;Node3</title>
<g id="a_edge2_Node000001_Node000003"><a xlink:title=" ">
<path fill="none" stroke="#63b8ff" d="M174.74,-22.57C162.13,-20.97 148.5,-19.23 135.5,-17.57"/>
<polygon fill="#63b8ff" stroke="#63b8ff" points="174.11,-26.02 184.48,-23.82 175,-19.08 174.11,-26.02"/>
</a>
</g>
</g>
</g>
</svg>
