<?xml version="1.0" encoding="UTF-8" standalone="no"?>
<!DOCTYPE svg PUBLIC "-//W3C//DTD SVG 1.1//EN"
 "http://www.w3.org/Graphics/SVG/1.1/DTD/svg11.dtd">
<!-- Generated by graphviz version 12.2.1 (20241206.2353)
 -->
<!-- Title: MenuItem Pages: 1 -->
<svg width="216pt" height="84pt"
 viewBox="0.00 0.00 215.75 84.00" xmlns="http://www.w3.org/2000/svg" xmlns:xlink="http://www.w3.org/1999/xlink">
<g id="graph0" class="graph" transform="scale(1 1) rotate(0) translate(4 80)">
<title>MenuItem</title>
<!-- Node1 -->
<g id="Node000001" class="node">
<title>Node1</title>
<g id="a_Node000001"><a xlink:title=" ">
<polygon fill="#999999" stroke="#666666" points="138.38,-76 78.88,-76 78.88,-56 138.38,-56 138.38,-76"/>
<text text-anchor="middle" x="108.62" y="-62.5" font-family="Helvetica,sans-Serif" font-size="10.00">MenuItem</text>
</a>
</g>
</g>
<!-- Node2 -->
<g id="Node000002" class="node">
<title>Node2</title>
<g id="a_Node000002"><a xlink:href="class_selectable_menu_item.html" target="_top" xlink:title=" ">
<polygon fill="white" stroke="#666666" points="105.25,-20 0,-20 0,0 105.25,0 105.25,-20"/>
<text text-anchor="middle" x="52.62" y="-6.5" font-family="Helvetica,sans-Serif" font-size="10.00">SelectableMenuItem</text>
</a>
</g>
</g>
<!-- Node1&#45;&gt;Node2 -->
<g id="edge1_Node000001_Node000002" class="edge">
<title>Node1&#45;&gt;Node2</title>
<g id="a_edge1_Node000001_Node000002"><a xlink:title=" ">
<path fill="none" stroke="#63b8ff" d="M90.84,-47.85C81.37,-38.72 70.1,-27.86 62.27,-20.3"/>
<polygon fill="#63b8ff" stroke="#63b8ff" points="88.15,-50.12 97.78,-54.54 93.01,-45.08 88.15,-50.12"/>
</a>
</g>
</g>
<!-- Node3 -->
<g id="Node000003" class="node">
<title>Node3</title>
<g id="a_Node000003"><a xlink:href="class_slider_menu_item.html" target="_top" xlink:title=" ">
<polygon fill="white" stroke="#666666" points="207.75,-20 123.5,-20 123.5,0 207.75,0 207.75,-20"/>
<text text-anchor="middle" x="165.62" y="-6.5" font-family="Helvetica,sans-Serif" font-size="10.00">SliderMenuItem</text>
</a>
</g>
</g>
<!-- Node1&#45;&gt;Node3 -->
<g id="edge2_Node000001_Node000003" class="edge">
<title>Node1&#45;&gt;Node3</title>
<g id="a_edge2_Node000001_Node000003"><a xlink:title=" ">
<path fill="none" stroke="#63b8ff" d="M126.73,-47.85C136.36,-38.72 147.83,-27.86 155.81,-20.3"/>
<polygon fill="#63b8ff" stroke="#63b8ff" points="124.5,-45.13 119.65,-54.55 129.32,-50.22 124.5,-45.13"/>
</a>
</g>
</g>
</g>
</svg>
