<?xml version="1.0" encoding="UTF-8" standalone="no"?>
<!DOCTYPE svg PUBLIC "-//W3C//DTD SVG 1.1//EN"
 "http://www.w3.org/Graphics/SVG/1.1/DTD/svg11.dtd">
<!-- Generated by graphviz version 12.2.1 (20241206.2353)
 -->
<!-- Title: CountedItem::GetCount Pages: 1 -->
<svg width="459pt" height="166pt"
 viewBox="0.00 0.00 458.75 166.00" xmlns="http://www.w3.org/2000/svg" xmlns:xlink="http://www.w3.org/1999/xlink">
<g id="graph0" class="graph" transform="scale(1 1) rotate(0) translate(4 162)">
<title>CountedItem::GetCount</title>
<!-- Node1 -->
<g id="Node000001" class="node">
<title>Node1</title>
<g id="a_Node000001"><a xlink:title=" ">
<polygon fill="#999999" stroke="#666666" points="450.75,-55 330.5,-55 330.5,-35 450.75,-35 450.75,-55"/>
<text text-anchor="middle" x="390.62" y="-41.5" font-family="Helvetica,sans-Serif" font-size="10.00">CountedItem::GetCount</text>
</a>
</g>
</g>
<!-- Node2 -->
<g id="Node000002" class="node">
<title>Node2</title>
<g id="a_Node000002"><a xlink:href="class_flying_strawberry.html#a3603795cd3a0c20e776eafe4138f59b4" target="_top" xlink:title=" ">
<polygon fill="white" stroke="#666666" points="294.5,-86 172.75,-86 172.75,-54 294.5,-54 294.5,-86"/>
<text text-anchor="start" x="180.75" y="-72.5" font-family="Helvetica,sans-Serif" font-size="10.00">FlyingStrawberry::Flying</text>
<text text-anchor="middle" x="233.62" y="-60.5" font-family="Helvetica,sans-Serif" font-size="10.00">Strawberry</text>
</a>
</g>
</g>
<!-- Node1&#45;&gt;Node2 -->
<g id="edge1_Node000001_Node000002" class="edge">
<title>Node1&#45;&gt;Node2</title>
<g id="a_edge1_Node000001_Node000002"><a xlink:title=" ">
<path fill="none" stroke="#63b8ff" d="M318.93,-56.4C310.93,-57.69 302.83,-59 294.98,-60.27"/>
<polygon fill="#63b8ff" stroke="#63b8ff" points="319.33,-59.88 328.65,-54.84 318.22,-52.97 319.33,-59.88"/>
</a>
</g>
</g>
<!-- Node7 -->
<g id="Node000007" class="node">
<title>Node7</title>
<g id="a_Node000007"><a xlink:href="class_flying_strawberry.html#a02fcc3deef30628892f3276e004ec394" target="_top" xlink:title=" ">
<polygon fill="white" stroke="#666666" points="281.38,-36 185.88,-36 185.88,-4 281.38,-4 281.38,-36"/>
<text text-anchor="start" x="193.88" y="-22.5" font-family="Helvetica,sans-Serif" font-size="10.00">FlyingStrawberry::</text>
<text text-anchor="middle" x="233.62" y="-10.5" font-family="Helvetica,sans-Serif" font-size="10.00">~FlyingStrawberry</text>
</a>
</g>
</g>
<!-- Node1&#45;&gt;Node7 -->
<g id="edge6_Node000001_Node000007" class="edge">
<title>Node1&#45;&gt;Node7</title>
<g id="a_edge6_Node000001_Node000007"><a xlink:title=" ">
<path fill="none" stroke="#63b8ff" d="M319.1,-33.62C306.42,-31.58 293.49,-29.49 281.68,-27.59"/>
<polygon fill="#63b8ff" stroke="#63b8ff" points="318.22,-37.03 328.65,-35.16 319.33,-30.12 318.22,-37.03"/>
</a>
</g>
</g>
<!-- Node3 -->
<g id="Node000003" class="node">
<title>Node3</title>
<g id="a_Node000003"><a xlink:href="class_flying_strawberry.html#ac1a195cd4ae7ae45963af4d7630235eb" target="_top" xlink:title=" ">
<polygon fill="white" stroke="#666666" points="129.25,-158 7.5,-158 7.5,-126 129.25,-126 129.25,-158"/>
<text text-anchor="start" x="15.5" y="-144.5" font-family="Helvetica,sans-Serif" font-size="10.00">FlyingStrawberry::Flying</text>
<text text-anchor="middle" x="68.38" y="-132.5" font-family="Helvetica,sans-Serif" font-size="10.00">Strawberry</text>
</a>
</g>
</g>
<!-- Node2&#45;&gt;Node3 -->
<g id="edge2_Node000002_Node000003" class="edge">
<title>Node2&#45;&gt;Node3</title>
<g id="a_edge2_Node000002_Node000003"><a xlink:title=" ">
<path fill="none" stroke="#63b8ff" d="M191.05,-91.51C174.35,-99.86 154.81,-109.25 136.75,-117 129.99,-119.9 122.76,-122.8 115.65,-125.53"/>
<polygon fill="#63b8ff" stroke="#63b8ff" points="192.33,-94.79 199.69,-87.16 189.18,-88.53 192.33,-94.79"/>
</a>
</g>
</g>
<!-- Node4 -->
<g id="Node000004" class="node">
<title>Node4</title>
<g id="a_Node000004"><a xlink:href="class_flying_strawberry.html#aa70131b40e4fb24eb03a9c6ecbfd2d59" target="_top" xlink:title=" ">
<polygon fill="white" stroke="#666666" points="129.25,-108 7.5,-108 7.5,-76 129.25,-76 129.25,-108"/>
<text text-anchor="start" x="15.5" y="-94.5" font-family="Helvetica,sans-Serif" font-size="10.00">FlyingStrawberry::Flying</text>
<text text-anchor="middle" x="68.38" y="-82.5" font-family="Helvetica,sans-Serif" font-size="10.00">Strawberry</text>
</a>
</g>
</g>
<!-- Node2&#45;&gt;Node4 -->
<g id="edge3_Node000002_Node000004" class="edge">
<title>Node2&#45;&gt;Node4</title>
<g id="a_edge3_Node000002_Node000004"><a xlink:title=" ">
<path fill="none" stroke="#63b8ff" d="M161.07,-79.64C150.61,-81.05 139.93,-82.49 129.72,-83.87"/>
<polygon fill="#63b8ff" stroke="#63b8ff" points="161.36,-83.14 170.8,-78.33 160.42,-76.2 161.36,-83.14"/>
</a>
</g>
</g>
<!-- Node5 -->
<g id="Node000005" class="node">
<title>Node5</title>
<g id="a_Node000005"><a xlink:href="class_flying_strawberry.html#a13e7820116a2e072653974d1cbd9496c" target="_top" xlink:title=" ">
<polygon fill="white" stroke="#666666" points="136.75,-58 0,-58 0,-38 136.75,-38 136.75,-58"/>
<text text-anchor="middle" x="68.38" y="-44.5" font-family="Helvetica,sans-Serif" font-size="10.00">FlyingStrawberry::operator=</text>
</a>
</g>
</g>
<!-- Node2&#45;&gt;Node5 -->
<g id="edge4_Node000002_Node000005" class="edge">
<title>Node2&#45;&gt;Node5</title>
<g id="a_edge4_Node000002_Node000005"><a xlink:title=" ">
<path fill="none" stroke="#63b8ff" d="M161.15,-60.37C153.18,-59.29 145.08,-58.2 137.15,-57.13"/>
<polygon fill="#63b8ff" stroke="#63b8ff" points="160.42,-63.8 170.8,-61.67 161.36,-56.86 160.42,-63.8"/>
</a>
</g>
</g>
<!-- Node6 -->
<g id="Node000006" class="node">
<title>Node6</title>
<g id="a_Node000006"><a xlink:href="class_flying_strawberry.html#a415c4868ba7ff99c77a638df1e7e0684" target="_top" xlink:title=" ">
<polygon fill="white" stroke="#666666" points="136.75,-20 0,-20 0,0 136.75,0 136.75,-20"/>
<text text-anchor="middle" x="68.38" y="-6.5" font-family="Helvetica,sans-Serif" font-size="10.00">FlyingStrawberry::operator=</text>
</a>
</g>
</g>
<!-- Node2&#45;&gt;Node6 -->
<g id="edge5_Node000002_Node000006" class="edge">
<title>Node2&#45;&gt;Node6</title>
<g id="a_edge5_Node000002_Node000006"><a xlink:title=" ">
<path fill="none" stroke="#63b8ff" d="M182.45,-49.15C179.16,-47.75 175.91,-46.36 172.75,-45 156.67,-38.07 153.22,-34.95 136.75,-29 128.18,-25.9 118.84,-22.99 109.93,-20.42"/>
<polygon fill="#63b8ff" stroke="#63b8ff" points="180.99,-52.33 191.56,-53 183.71,-45.88 180.99,-52.33"/>
</a>
</g>
</g>
</g>
</svg>
