<?xml version="1.0" encoding="UTF-8" standalone="no"?>
<!DOCTYPE svg PUBLIC "-//W3C//DTD SVG 1.1//EN"
 "http://www.w3.org/Graphics/SVG/1.1/DTD/svg11.dtd">
<!-- Generated by graphviz version 12.2.1 (20241206.2353)
 -->
<!-- Title: DashCrystal Pages: 1 -->
<svg width="258pt" height="84pt"
 viewBox="0.00 0.00 257.75 84.00" xmlns="http://www.w3.org/2000/svg" xmlns:xlink="http://www.w3.org/1999/xlink">
<g id="graph0" class="graph" transform="scale(1 1) rotate(0) translate(4 80)">
<title>DashCrystal</title>
<!-- Node1 -->
<g id="Node000001" class="node">
<title>Node1</title>
<g id="a_Node000001"><a xlink:title=" ">
<polygon fill="#999999" stroke="#666666" points="145.62,-20 74.88,-20 74.88,0 145.62,0 145.62,-20"/>
<text text-anchor="middle" x="110.25" y="-6.5" font-family="Helvetica,sans-Serif" font-size="10.00">DashCrystal</text>
</a>
</g>
</g>
<!-- Node2 -->
<g id="Node000002" class="node">
<title>Node2</title>
<g id="a_Node000002"><a xlink:href="class_interactable_item.html" target="_top" xlink:title=" ">
<polygon fill="white" stroke="#666666" points="86.5,-76 0,-76 0,-56 86.5,-56 86.5,-76"/>
<text text-anchor="middle" x="43.25" y="-62.5" font-family="Helvetica,sans-Serif" font-size="10.00">InteractableItem</text>
</a>
</g>
</g>
<!-- Node2&#45;&gt;Node1 -->
<g id="edge1_Node000001_Node000002" class="edge">
<title>Node2&#45;&gt;Node1</title>
<g id="a_edge1_Node000001_Node000002"><a xlink:title=" ">
<path fill="none" stroke="#63b8ff" d="M63.84,-48.4C75.3,-39.17 89.15,-28.01 98.71,-20.3"/>
<polygon fill="#63b8ff" stroke="#63b8ff" points="61.69,-45.64 56.1,-54.64 66.08,-51.09 61.69,-45.64"/>
</a>
</g>
</g>
<!-- Node3 -->
<g id="Node000003" class="node">
<title>Node3</title>
<g id="a_Node000003"><a xlink:href="class_counted_item.html" target="_top" xlink:title=" ">
<polygon fill="white" stroke="#666666" points="249.75,-76 104.75,-76 104.75,-56 249.75,-56 249.75,-76"/>
<text text-anchor="middle" x="177.25" y="-62.5" font-family="Helvetica,sans-Serif" font-size="10.00">CountedItem&lt; DashCrystal &gt;</text>
</a>
</g>
</g>
<!-- Node3&#45;&gt;Node1 -->
<g id="edge2_Node000001_Node000003" class="edge">
<title>Node3&#45;&gt;Node1</title>
<g id="a_edge2_Node000001_Node000003"><a xlink:title=" ">
<path fill="none" stroke="darkgreen" d="M156.66,-48.4C145.2,-39.17 131.35,-28.01 121.79,-20.3"/>
<polygon fill="darkgreen" stroke="darkgreen" points="154.42,-51.09 164.4,-54.64 158.81,-45.64 154.42,-51.09"/>
</a>
</g>
</g>
</g>
</svg>
