<?xml version="1.0" encoding="UTF-8" standalone="no"?>
<!DOCTYPE svg PUBLIC "-//W3C//DTD SVG 1.1//EN"
 "http://www.w3.org/Graphics/SVG/1.1/DTD/svg11.dtd">
<!-- Generated by graphviz version 12.2.1 (20241206.2353)
 -->
<!-- Title: FlyingStrawberry Pages: 1 -->
<svg width="395pt" height="233pt"
 viewBox="0.00 0.00 395.12 233.00" xmlns="http://www.w3.org/2000/svg" xmlns:xlink="http://www.w3.org/1999/xlink">
<g id="graph0" class="graph" transform="scale(1 1) rotate(0) translate(4 229)">
<title>FlyingStrawberry</title>
<!-- Node1 -->
<g id="Node000001" class="node">
<title>Node1</title>
<g id="a_Node000001"><a xlink:title=" ">
<polygon fill="#999999" stroke="#666666" points="284,-20 194.5,-20 194.5,0 284,0 284,-20"/>
<text text-anchor="middle" x="239.25" y="-6.5" font-family="Helvetica,sans-Serif" font-size="10.00">FlyingStrawberry</text>
</a>
</g>
</g>
<!-- Node2 -->
<g id="Node000002" class="node">
<title>Node2</title>
<g id="a_Node000002"><a xlink:href="class_strawberry.html" target="_top" xlink:title=" ">
<polygon fill="white" stroke="#666666" points="204.88,-77 141.62,-77 141.62,-57 204.88,-57 204.88,-77"/>
<text text-anchor="middle" x="173.25" y="-63.5" font-family="Helvetica,sans-Serif" font-size="10.00">Strawberry</text>
</a>
</g>
</g>
<!-- Node2&#45;&gt;Node1 -->
<g id="edge1_Node000001_Node000002" class="edge">
<title>Node2&#45;&gt;Node1</title>
<g id="a_edge1_Node000001_Node000002"><a xlink:title=" ">
<path fill="none" stroke="#63b8ff" d="M193,-49.54C204.52,-39.94 218.64,-28.18 228.22,-20.19"/>
<polygon fill="#63b8ff" stroke="#63b8ff" points="191.05,-46.61 185.61,-55.7 195.53,-51.99 191.05,-46.61"/>
</a>
</g>
</g>
<!-- Node3 -->
<g id="Node000003" class="node">
<title>Node3</title>
<g id="a_Node000003"><a xlink:href="class_interactable_item.html" target="_top" xlink:title=" ">
<polygon fill="white" stroke="#666666" points="86.5,-151 0,-151 0,-131 86.5,-131 86.5,-151"/>
<text text-anchor="middle" x="43.25" y="-137.5" font-family="Helvetica,sans-Serif" font-size="10.00">InteractableItem</text>
</a>
</g>
</g>
<!-- Node3&#45;&gt;Node2 -->
<g id="edge2_Node000002_Node000003" class="edge">
<title>Node3&#45;&gt;Node2</title>
<g id="a_edge2_Node000002_Node000003"><a xlink:title=" ">
<path fill="none" stroke="#63b8ff" d="M70.16,-125.1C96.03,-110.77 134.35,-89.54 156.25,-77.42"/>
<polygon fill="#63b8ff" stroke="#63b8ff" points="68.62,-121.95 61.57,-129.85 72.01,-128.07 68.62,-121.95"/>
</a>
</g>
</g>
<!-- Node4 -->
<g id="Node000004" class="node">
<title>Node4</title>
<g id="a_Node000004"><a xlink:href="struct_rectf.html" target="_top" xlink:title=" ">
<polygon fill="white" stroke="#666666" points="63.25,-225 23.25,-225 23.25,-205 63.25,-205 63.25,-225"/>
<text text-anchor="middle" x="43.25" y="-211.5" font-family="Helvetica,sans-Serif" font-size="10.00">Rectf</text>
</a>
</g>
</g>
<!-- Node4&#45;&gt;Node3 -->
<g id="edge3_Node000003_Node000004" class="edge">
<title>Node4&#45;&gt;Node3</title>
<g id="a_edge3_Node000003_Node000004"><a xlink:title=" ">
<path fill="none" stroke="#9a32cd" stroke-dasharray="5,2" d="M43.25,-193.18C43.25,-179.29 43.25,-161.71 43.25,-151.19"/>
<polygon fill="#9a32cd" stroke="#9a32cd" points="39.75,-193.07 43.25,-203.07 46.75,-193.07 39.75,-193.07"/>
</a>
</g>
<text text-anchor="start" x="46.25" y="-174.5" font-family="Helvetica,sans-Serif" font-size="10.00" fill="grey">m_Bounds</text>
</g>
<!-- Node5 -->
<g id="Node000005" class="node">
<title>Node5</title>
<g id="a_Node000005"><a xlink:href="class_counted_item.html" target="_top" xlink:title=" ">
<polygon fill="white" stroke="#666666" points="242,-151 104.5,-151 104.5,-131 242,-131 242,-151"/>
<text text-anchor="middle" x="173.25" y="-137.5" font-family="Helvetica,sans-Serif" font-size="10.00">CountedItem&lt; Strawberry &gt;</text>
</a>
</g>
</g>
<!-- Node5&#45;&gt;Node2 -->
<g id="edge4_Node000002_Node000005" class="edge">
<title>Node5&#45;&gt;Node2</title>
<g id="a_edge4_Node000002_Node000005"><a xlink:title=" ">
<path fill="none" stroke="darkgreen" d="M173.25,-119.18C173.25,-105.29 173.25,-87.71 173.25,-77.19"/>
<polygon fill="darkgreen" stroke="darkgreen" points="169.75,-119.07 173.25,-129.07 176.75,-119.07 169.75,-119.07"/>
</a>
</g>
</g>
<!-- Node6 -->
<g id="Node000006" class="node">
<title>Node6</title>
<g id="a_Node000006"><a xlink:href="struct_vector2f.html" target="_top" xlink:title=" ">
<polygon fill="white" stroke="#666666" points="312.25,-151 260.25,-151 260.25,-131 312.25,-131 312.25,-151"/>
<text text-anchor="middle" x="286.25" y="-137.5" font-family="Helvetica,sans-Serif" font-size="10.00">Vector2f</text>
</a>
</g>
</g>
<!-- Node6&#45;&gt;Node2 -->
<g id="edge5_Node000002_Node000006" class="edge">
<title>Node6&#45;&gt;Node2</title>
<g id="a_edge5_Node000002_Node000006"><a xlink:title=" ">
<path fill="none" stroke="#9a32cd" stroke-dasharray="5,2" d="M261.96,-124.52C239.49,-110.2 206.81,-89.38 188.03,-77.42"/>
<polygon fill="#9a32cd" stroke="#9a32cd" points="259.89,-127.35 270.2,-129.77 263.65,-121.45 259.89,-127.35"/>
</a>
</g>
<text text-anchor="start" x="246.19" y="-100.5" font-family="Helvetica,sans-Serif" font-size="10.00" fill="grey">m_OriginalLocation</text>
</g>
<!-- Node7 -->
<g id="Node000007" class="node">
<title>Node7</title>
<g id="a_Node000007"><a xlink:href="class_counted_item.html" target="_top" xlink:title=" ">
<polygon fill="white" stroke="#666666" points="387.12,-77 223.38,-77 223.38,-57 387.12,-57 387.12,-77"/>
<text text-anchor="middle" x="305.25" y="-63.5" font-family="Helvetica,sans-Serif" font-size="10.00">CountedItem&lt; FlyingStrawberry &gt;</text>
</a>
</g>
</g>
<!-- Node7&#45;&gt;Node1 -->
<g id="edge6_Node000001_Node000007" class="edge">
<title>Node7&#45;&gt;Node1</title>
<g id="a_edge6_Node000001_Node000007"><a xlink:title=" ">
<path fill="none" stroke="darkgreen" d="M285.5,-49.54C273.98,-39.94 259.86,-28.18 250.28,-20.19"/>
<polygon fill="darkgreen" stroke="darkgreen" points="282.97,-51.99 292.89,-55.7 287.45,-46.61 282.97,-51.99"/>
</a>
</g>
</g>
</g>
</svg>
