<?xml version="1.0" encoding="UTF-8" standalone="no"?>
<!DOCTYPE svg PUBLIC "-//W3C//DTD SVG 1.1//EN"
 "http://www.w3.org/Graphics/SVG/1.1/DTD/svg11.dtd">
<!-- Generated by graphviz version 12.2.1 (20241206.2353)
 -->
<!-- Title: SnowFlakeManager::Draw Pages: 1 -->
<svg width="254pt" height="66pt"
 viewBox="0.00 0.00 253.75 66.00" xmlns="http://www.w3.org/2000/svg" xmlns:xlink="http://www.w3.org/1999/xlink">
<g id="graph0" class="graph" transform="scale(1 1) rotate(0) translate(4 62)">
<title>SnowFlakeManager::Draw</title>
<!-- Node1 -->
<g id="Node000001" class="node">
<title>Node1</title>
<g id="a_Node000001"><a xlink:title=" ">
<polygon fill="#999999" stroke="#666666" points="131.5,-39 0,-39 0,-19 131.5,-19 131.5,-39"/>
<text text-anchor="middle" x="65.75" y="-25.5" font-family="Helvetica,sans-Serif" font-size="10.00">SnowFlakeManager::Draw</text>
</a>
</g>
</g>
<!-- Node2 -->
<g id="Node000002" class="node">
<title>Node2</title>
<g id="a_Node000002"><a xlink:href="namespaceutils.html#a05d149f83e6b46ac17e537eccc2ab813" target="_top" xlink:title=" ">
<polygon fill="white" stroke="#666666" points="243.5,-58 169.75,-58 169.75,-38 243.5,-38 243.5,-58"/>
<text text-anchor="middle" x="206.62" y="-44.5" font-family="Helvetica,sans-Serif" font-size="10.00">utils::FillRect</text>
</a>
</g>
</g>
<!-- Node1&#45;&gt;Node2 -->
<g id="edge1_Node000001_Node000002" class="edge">
<title>Node1&#45;&gt;Node2</title>
<g id="a_edge1_Node000001_Node000002"><a xlink:title=" ">
<path fill="none" stroke="#63b8ff" d="M131.71,-37.89C140.64,-39.11 149.67,-40.35 158.21,-41.51"/>
<polygon fill="#63b8ff" stroke="#63b8ff" points="157.6,-44.96 167.98,-42.85 158.55,-38.03 157.6,-44.96"/>
</a>
</g>
</g>
<!-- Node3 -->
<g id="Node000003" class="node">
<title>Node3</title>
<g id="a_Node000003"><a xlink:href="namespaceutils.html#abc8380a69410c7b193d9d36474ae211f" target="_top" xlink:title=" ">
<polygon fill="white" stroke="#666666" points="245.75,-20 167.5,-20 167.5,0 245.75,0 245.75,-20"/>
<text text-anchor="middle" x="206.62" y="-6.5" font-family="Helvetica,sans-Serif" font-size="10.00">utils::SetColor</text>
</a>
</g>
</g>
<!-- Node1&#45;&gt;Node3 -->
<g id="edge2_Node000001_Node000003" class="edge">
<title>Node1&#45;&gt;Node3</title>
<g id="a_edge2_Node000001_Node000003"><a xlink:title=" ">
<path fill="none" stroke="#63b8ff" d="M131.71,-20.11C139.87,-19 148.11,-17.87 155.98,-16.79"/>
<polygon fill="#63b8ff" stroke="#63b8ff" points="156.26,-20.29 165.7,-15.46 155.32,-13.35 156.26,-20.29"/>
</a>
</g>
</g>
</g>
</svg>
