<?xml version="1.0" encoding="UTF-8" standalone="no"?>
<!DOCTYPE svg PUBLIC "-//W3C//DTD SVG 1.1//EN"
 "http://www.w3.org/Graphics/SVG/1.1/DTD/svg11.dtd">
<!-- Generated by graphviz version 12.2.1 (20241206.2353)
 -->
<!-- Title: InteractableItem Pages: 1 -->
<svg width="639pt" height="140pt"
 viewBox="0.00 0.00 639.38 140.00" xmlns="http://www.w3.org/2000/svg" xmlns:xlink="http://www.w3.org/1999/xlink">
<g id="graph0" class="graph" transform="scale(1 1) rotate(0) translate(4 136)">
<title>InteractableItem</title>
<!-- Node1 -->
<g id="Node000001" class="node">
<title>Node1</title>
<g id="a_Node000001"><a xlink:title=" ">
<polygon fill="#999999" stroke="#666666" points="373.62,-132 287.12,-132 287.12,-112 373.62,-112 373.62,-132"/>
<text text-anchor="middle" x="330.38" y="-118.5" font-family="Helvetica,sans-Serif" font-size="10.00">InteractableItem</text>
</a>
</g>
</g>
<!-- Node2 -->
<g id="Node000002" class="node">
<title>Node2</title>
<g id="a_Node000002"><a xlink:href="class_cog_platform.html" target="_top" xlink:title=" ">
<polygon fill="white" stroke="#666666" points="70.75,-76 0,-76 0,-56 70.75,-56 70.75,-76"/>
<text text-anchor="middle" x="35.38" y="-62.5" font-family="Helvetica,sans-Serif" font-size="10.00">CogPlatform</text>
</a>
</g>
</g>
<!-- Node1&#45;&gt;Node2 -->
<g id="edge1_Node000001_Node000002" class="edge">
<title>Node1&#45;&gt;Node2</title>
<g id="a_edge1_Node000001_Node000002"><a xlink:title=" ">
<path fill="none" stroke="#63b8ff" d="M275.72,-111.6C224.82,-102.75 146.88,-88.95 79.38,-76 76.62,-75.47 73.77,-74.91 70.9,-74.34"/>
<polygon fill="#63b8ff" stroke="#63b8ff" points="274.84,-115 285.29,-113.26 276.04,-108.1 274.84,-115"/>
</a>
</g>
</g>
<!-- Node3 -->
<g id="Node000003" class="node">
<title>Node3</title>
<g id="a_Node000003"><a xlink:href="class_crumble_block.html" target="_top" xlink:title=" ">
<polygon fill="white" stroke="#666666" points="166.12,-76 88.62,-76 88.62,-56 166.12,-56 166.12,-76"/>
<text text-anchor="middle" x="127.38" y="-62.5" font-family="Helvetica,sans-Serif" font-size="10.00">CrumbleBlock</text>
</a>
</g>
</g>
<!-- Node1&#45;&gt;Node3 -->
<g id="edge2_Node000001_Node000003" class="edge">
<title>Node1&#45;&gt;Node3</title>
<g id="a_edge2_Node000001_Node000003"><a xlink:title=" ">
<path fill="none" stroke="#63b8ff" d="M284.09,-108.69C247.32,-98.91 196.66,-85.43 163.01,-76.48"/>
<polygon fill="#63b8ff" stroke="#63b8ff" points="282.99,-112.02 293.55,-111.2 284.79,-105.25 282.99,-112.02"/>
</a>
</g>
</g>
<!-- Node4 -->
<g id="Node000004" class="node">
<title>Node4</title>
<g id="a_Node000004"><a xlink:href="class_dash_crystal.html" target="_top" xlink:title=" ">
<polygon fill="white" stroke="#666666" points="254.75,-76 184,-76 184,-56 254.75,-56 254.75,-76"/>
<text text-anchor="middle" x="219.38" y="-62.5" font-family="Helvetica,sans-Serif" font-size="10.00">DashCrystal</text>
</a>
</g>
</g>
<!-- Node1&#45;&gt;Node4 -->
<g id="edge3_Node000001_Node000004" class="edge">
<title>Node1&#45;&gt;Node4</title>
<g id="a_edge3_Node000001_Node000004"><a xlink:title=" ">
<path fill="none" stroke="#63b8ff" d="M300.8,-106.61C281.18,-97.07 255.99,-84.81 238.86,-76.48"/>
<polygon fill="#63b8ff" stroke="#63b8ff" points="299.16,-109.7 309.68,-110.93 302.22,-103.41 299.16,-109.7"/>
</a>
</g>
</g>
<!-- Node5 -->
<g id="Node000005" class="node">
<title>Node5</title>
<g id="a_Node000005"><a xlink:href="class_level.html" target="_top" xlink:title=" ">
<polygon fill="white" stroke="#666666" points="312,-76 272.75,-76 272.75,-56 312,-56 312,-76"/>
<text text-anchor="middle" x="292.38" y="-62.5" font-family="Helvetica,sans-Serif" font-size="10.00">Level</text>
</a>
</g>
</g>
<!-- Node1&#45;&gt;Node5 -->
<g id="edge4_Node000001_Node000005" class="edge">
<title>Node1&#45;&gt;Node5</title>
<g id="a_edge4_Node000001_Node000005"><a xlink:title=" ">
<path fill="none" stroke="#63b8ff" d="M317.31,-102.44C311.11,-93.62 303.96,-83.47 298.92,-76.3"/>
<polygon fill="#63b8ff" stroke="#63b8ff" points="314.27,-104.19 322.88,-110.36 319.99,-100.16 314.27,-104.19"/>
</a>
</g>
</g>
<!-- Node6 -->
<g id="Node000006" class="node">
<title>Node6</title>
<g id="a_Node000006"><a xlink:href="class_respawn_zone.html" target="_top" xlink:title=" ">
<polygon fill="white" stroke="#666666" points="408.88,-76 329.88,-76 329.88,-56 408.88,-56 408.88,-76"/>
<text text-anchor="middle" x="369.38" y="-62.5" font-family="Helvetica,sans-Serif" font-size="10.00">RespawnZone</text>
</a>
</g>
</g>
<!-- Node1&#45;&gt;Node6 -->
<g id="edge5_Node000001_Node000006" class="edge">
<title>Node1&#45;&gt;Node6</title>
<g id="a_edge5_Node000001_Node000006"><a xlink:title=" ">
<path fill="none" stroke="#63b8ff" d="M343.78,-102.44C350.15,-93.62 357.48,-83.47 362.66,-76.3"/>
<polygon fill="#63b8ff" stroke="#63b8ff" points="341.07,-100.21 338.05,-110.37 346.75,-104.31 341.07,-100.21"/>
</a>
</g>
</g>
<!-- Node7 -->
<g id="Node000007" class="node">
<title>Node7</title>
<g id="a_Node000007"><a xlink:href="class_spike.html" target="_top" xlink:title=" ">
<polygon fill="white" stroke="#666666" points="467.75,-76 427,-76 427,-56 467.75,-56 467.75,-76"/>
<text text-anchor="middle" x="447.38" y="-62.5" font-family="Helvetica,sans-Serif" font-size="10.00">Spike</text>
</a>
</g>
</g>
<!-- Node1&#45;&gt;Node7 -->
<g id="edge6_Node000001_Node000007" class="edge">
<title>Node1&#45;&gt;Node7</title>
<g id="a_edge6_Node000001_Node000007"><a xlink:title=" ">
<path fill="none" stroke="#63b8ff" d="M360.97,-106.88C381.73,-97.3 408.61,-84.89 426.84,-76.48"/>
<polygon fill="#63b8ff" stroke="#63b8ff" points="359.74,-103.59 352.13,-110.96 362.68,-109.95 359.74,-103.59"/>
</a>
</g>
</g>
<!-- Node8 -->
<g id="Node000008" class="node">
<title>Node8</title>
<g id="a_Node000008"><a xlink:href="class_strawberry.html" target="_top" xlink:title=" ">
<polygon fill="white" stroke="#666666" points="549,-76 485.75,-76 485.75,-56 549,-56 549,-76"/>
<text text-anchor="middle" x="517.38" y="-62.5" font-family="Helvetica,sans-Serif" font-size="10.00">Strawberry</text>
</a>
</g>
</g>
<!-- Node1&#45;&gt;Node8 -->
<g id="edge7_Node000001_Node000008" class="edge">
<title>Node1&#45;&gt;Node8</title>
<g id="a_edge7_Node000001_Node000008"><a xlink:title=" ">
<path fill="none" stroke="#63b8ff" d="M374,-108.4C408.13,-98.55 454.79,-85.07 485.49,-76.21"/>
<polygon fill="#63b8ff" stroke="#63b8ff" points="373.04,-105.04 364.4,-111.17 374.98,-111.76 373.04,-105.04"/>
</a>
</g>
</g>
<!-- Node10 -->
<g id="Node000010" class="node">
<title>Node10</title>
<g id="a_Node000010"><a xlink:href="class_trampoline.html" target="_top" xlink:title=" ">
<polygon fill="white" stroke="#666666" points="631.38,-76 567.38,-76 567.38,-56 631.38,-56 631.38,-76"/>
<text text-anchor="middle" x="599.38" y="-62.5" font-family="Helvetica,sans-Serif" font-size="10.00">Trampoline</text>
</a>
</g>
</g>
<!-- Node1&#45;&gt;Node10 -->
<g id="edge9_Node000001_Node000010" class="edge">
<title>Node1&#45;&gt;Node10</title>
<g id="a_edge9_Node000001_Node000010"><a xlink:title=" ">
<path fill="none" stroke="#63b8ff" d="M384.98,-110.56C431.21,-101.64 499.2,-88.33 558.38,-76 561.23,-75.41 564.19,-74.78 567.16,-74.14"/>
<polygon fill="#63b8ff" stroke="#63b8ff" points="384.36,-107.12 375.2,-112.44 385.68,-113.99 384.36,-107.12"/>
</a>
</g>
</g>
<!-- Node9 -->
<g id="Node000009" class="node">
<title>Node9</title>
<g id="a_Node000009"><a xlink:href="class_flying_strawberry.html" target="_top" xlink:title=" ">
<polygon fill="white" stroke="#666666" points="562.12,-20 472.62,-20 472.62,0 562.12,0 562.12,-20"/>
<text text-anchor="middle" x="517.38" y="-6.5" font-family="Helvetica,sans-Serif" font-size="10.00">FlyingStrawberry</text>
</a>
</g>
</g>
<!-- Node8&#45;&gt;Node9 -->
<g id="edge8_Node000008_Node000009" class="edge">
<title>Node8&#45;&gt;Node9</title>
<g id="a_edge8_Node000008_Node000009"><a xlink:title=" ">
<path fill="none" stroke="#63b8ff" d="M517.38,-44.13C517.38,-35.9 517.38,-26.85 517.38,-20.3"/>
<polygon fill="#63b8ff" stroke="#63b8ff" points="513.88,-44.08 517.38,-54.08 520.88,-44.08 513.88,-44.08"/>
</a>
</g>
</g>
</g>
</svg>
