<?xml version="1.0" encoding="UTF-8" standalone="no"?>
<!DOCTYPE svg PUBLIC "-//W3C//DTD SVG 1.1//EN"
 "http://www.w3.org/Graphics/SVG/1.1/DTD/svg11.dtd">
<!-- Generated by graphviz version 12.2.1 (20241206.2353)
 -->
<!-- Title: Character::GetHitBox Pages: 1 -->
<svg width="472pt" height="332pt"
 viewBox="0.00 0.00 472.25 332.00" xmlns="http://www.w3.org/2000/svg" xmlns:xlink="http://www.w3.org/1999/xlink">
<g id="graph0" class="graph" transform="scale(1 1) rotate(0) translate(4 328)">
<title>Character::GetHitBox</title>
<!-- Node1 -->
<g id="Node000001" class="node">
<title>Node1</title>
<g id="a_Node000001"><a xlink:title=" ">
<polygon fill="#999999" stroke="#666666" points="464.25,-172 353.75,-172 353.75,-152 464.25,-152 464.25,-172"/>
<text text-anchor="middle" x="409" y="-158.5" font-family="Helvetica,sans-Serif" font-size="10.00">Character::GetHitBox</text>
</a>
</g>
</g>
<!-- Node2 -->
<g id="Node000002" class="node">
<title>Node2</title>
<g id="a_Node000002"><a xlink:href="class_level.html#adf4233f98d55734b3862b4862ea83a27" target="_top" xlink:title=" ">
<polygon fill="white" stroke="#666666" points="287.75,-324 189.25,-324 189.25,-304 287.75,-304 287.75,-324"/>
<text text-anchor="middle" x="238.5" y="-310.5" font-family="Helvetica,sans-Serif" font-size="10.00">Level::DoesCollide</text>
</a>
</g>
</g>
<!-- Node1&#45;&gt;Node2 -->
<g id="edge1_Node000001_Node000002" class="edge">
<title>Node1&#45;&gt;Node2</title>
<g id="a_edge1_Node000001_Node000002"><a xlink:title=" ">
<path fill="none" stroke="#63b8ff" d="M399.79,-182.59C386.9,-212.19 359.04,-266.36 317.75,-295 309.02,-301.06 298.58,-305.19 288.21,-308.01"/>
<polygon fill="#63b8ff" stroke="#63b8ff" points="402.92,-184.19 403.55,-173.61 396.46,-181.49 402.92,-184.19"/>
</a>
</g>
</g>
<!-- Node3 -->
<g id="Node000003" class="node">
<title>Node3</title>
<g id="a_Node000003"><a xlink:href="class_cog_platform.html#afd4a86f749690313b5bd2587f15c6ce8" target="_top" xlink:title=" ">
<polygon fill="white" stroke="#666666" points="313.62,-286 163.38,-286 163.38,-266 313.62,-266 313.62,-286"/>
<text text-anchor="middle" x="238.5" y="-272.5" font-family="Helvetica,sans-Serif" font-size="10.00">CogPlatform::PlayerInteraction</text>
</a>
</g>
</g>
<!-- Node1&#45;&gt;Node3 -->
<g id="edge2_Node000001_Node000003" class="edge">
<title>Node1&#45;&gt;Node3</title>
<g id="a_edge2_Node000001_Node000003"><a xlink:title=" ">
<path fill="none" stroke="#63b8ff" d="M394.67,-181.71C378.89,-203.5 350.56,-238.02 317.75,-257 311.82,-260.43 305.3,-263.24 298.62,-265.55"/>
<polygon fill="#63b8ff" stroke="#63b8ff" points="397.44,-183.87 400.33,-173.67 391.71,-179.84 397.44,-183.87"/>
</a>
</g>
</g>
<!-- Node4 -->
<g id="Node000004" class="node">
<title>Node4</title>
<g id="a_Node000004"><a xlink:href="class_crumble_block.html#af211a08e47f20f7343183341611d5653" target="_top" xlink:title=" ">
<polygon fill="white" stroke="#666666" points="317,-248 160,-248 160,-228 317,-228 317,-248"/>
<text text-anchor="middle" x="238.5" y="-234.5" font-family="Helvetica,sans-Serif" font-size="10.00">CrumbleBlock::PlayerInteraction</text>
</a>
</g>
</g>
<!-- Node1&#45;&gt;Node4 -->
<g id="edge3_Node000001_Node000004" class="edge">
<title>Node1&#45;&gt;Node4</title>
<g id="a_edge3_Node000001_Node000004"><a xlink:title=" ">
<path fill="none" stroke="#63b8ff" d="M385.81,-178.91C368.2,-191.59 342.51,-208.51 317.75,-219 309.9,-222.33 301.35,-225.15 292.87,-227.51"/>
<polygon fill="#63b8ff" stroke="#63b8ff" points="387.51,-182.01 393.49,-173.26 383.36,-176.37 387.51,-182.01"/>
</a>
</g>
</g>
<!-- Node5 -->
<g id="Node000005" class="node">
<title>Node5</title>
<g id="a_Node000005"><a xlink:href="class_dash_crystal.html#ae9d188a3998de0c2de1ee162ba5e1273" target="_top" xlink:title=" ">
<polygon fill="white" stroke="#666666" points="313.62,-210 163.38,-210 163.38,-190 313.62,-190 313.62,-210"/>
<text text-anchor="middle" x="238.5" y="-196.5" font-family="Helvetica,sans-Serif" font-size="10.00">DashCrystal::PlayerInteraction</text>
</a>
</g>
</g>
<!-- Node1&#45;&gt;Node5 -->
<g id="edge4_Node000001_Node000005" class="edge">
<title>Node1&#45;&gt;Node5</title>
<g id="a_edge4_Node000001_Node000005"><a xlink:title=" ">
<path fill="none" stroke="#63b8ff" d="M350.43,-174.98C329.35,-179.74 305.8,-185.05 285.84,-189.55"/>
<polygon fill="#63b8ff" stroke="#63b8ff" points="351.05,-178.43 360.03,-172.82 349.51,-171.6 351.05,-178.43"/>
</a>
</g>
</g>
<!-- Node6 -->
<g id="Node000006" class="node">
<title>Node6</title>
<g id="a_Node000006"><a xlink:href="class_flying_strawberry.html#ada0a996bd7bd79f240b85762a24fd2ed" target="_top" xlink:title=" ">
<polygon fill="white" stroke="#666666" points="123.25,-121 0,-121 0,-89 123.25,-89 123.25,-121"/>
<text text-anchor="start" x="8" y="-107.5" font-family="Helvetica,sans-Serif" font-size="10.00">FlyingStrawberry::Player</text>
<text text-anchor="middle" x="61.62" y="-95.5" font-family="Helvetica,sans-Serif" font-size="10.00">Interaction</text>
</a>
</g>
</g>
<!-- Node1&#45;&gt;Node6 -->
<g id="edge5_Node000001_Node000006" class="edge">
<title>Node1&#45;&gt;Node6</title>
<g id="a_edge5_Node000001_Node000006"><a xlink:title=" ">
<path fill="none" stroke="#63b8ff" d="M342.01,-162.28C291.41,-161.23 220.15,-156.97 159.25,-143 137.99,-138.12 115.24,-129.37 97.16,-121.49"/>
<polygon fill="#63b8ff" stroke="#63b8ff" points="341.87,-165.78 351.93,-162.45 341.99,-158.78 341.87,-165.78"/>
</a>
</g>
</g>
<!-- Node7 -->
<g id="Node000007" class="node">
<title>Node7</title>
<g id="a_Node000007"><a xlink:href="class_respawn_zone.html#a5c821db8bbdc1da0401f633af761687c" target="_top" xlink:title=" ">
<polygon fill="white" stroke="#666666" points="317.75,-134 159.25,-134 159.25,-114 317.75,-114 317.75,-134"/>
<text text-anchor="middle" x="238.5" y="-120.5" font-family="Helvetica,sans-Serif" font-size="10.00">RespawnZone::PlayerInteraction</text>
</a>
</g>
</g>
<!-- Node1&#45;&gt;Node7 -->
<g id="edge6_Node000001_Node000007" class="edge">
<title>Node1&#45;&gt;Node7</title>
<g id="a_edge6_Node000001_Node000007"><a xlink:title=" ">
<path fill="none" stroke="#63b8ff" d="M350.43,-149.02C329.35,-144.26 305.8,-138.95 285.84,-134.45"/>
<polygon fill="#63b8ff" stroke="#63b8ff" points="349.51,-152.4 360.03,-151.18 351.05,-145.57 349.51,-152.4"/>
</a>
</g>
</g>
<!-- Node8 -->
<g id="Node000008" class="node">
<title>Node8</title>
<g id="a_Node000008"><a xlink:href="class_spike.html#a7c79520a23045ef568326c1cedc2eba9" target="_top" xlink:title=" ">
<polygon fill="white" stroke="#666666" points="298.62,-96 178.38,-96 178.38,-76 298.62,-76 298.62,-96"/>
<text text-anchor="middle" x="238.5" y="-82.5" font-family="Helvetica,sans-Serif" font-size="10.00">Spike::PlayerInteraction</text>
</a>
</g>
</g>
<!-- Node1&#45;&gt;Node8 -->
<g id="edge7_Node000001_Node000008" class="edge">
<title>Node1&#45;&gt;Node8</title>
<g id="a_edge7_Node000001_Node000008"><a xlink:title=" ">
<path fill="none" stroke="#63b8ff" d="M385.81,-145.09C368.2,-132.41 342.51,-115.49 317.75,-105 309.9,-101.67 301.35,-98.85 292.87,-96.49"/>
<polygon fill="#63b8ff" stroke="#63b8ff" points="383.36,-147.63 393.49,-150.74 387.51,-141.99 383.36,-147.63"/>
</a>
</g>
</g>
<!-- Node9 -->
<g id="Node000009" class="node">
<title>Node9</title>
<g id="a_Node000009"><a xlink:href="class_strawberry.html#a2e5468a8badbbf84cd37d12c34042061" target="_top" xlink:title=" ">
<polygon fill="white" stroke="#666666" points="309.88,-58 167.12,-58 167.12,-38 309.88,-38 309.88,-58"/>
<text text-anchor="middle" x="238.5" y="-44.5" font-family="Helvetica,sans-Serif" font-size="10.00">Strawberry::PlayerInteraction</text>
</a>
</g>
</g>
<!-- Node1&#45;&gt;Node9 -->
<g id="edge8_Node000001_Node000009" class="edge">
<title>Node1&#45;&gt;Node9</title>
<g id="a_edge8_Node000001_Node000009"><a xlink:title=" ">
<path fill="none" stroke="#63b8ff" d="M394.67,-142.29C378.89,-120.5 350.56,-85.98 317.75,-67 311.82,-63.57 305.3,-60.76 298.62,-58.45"/>
<polygon fill="#63b8ff" stroke="#63b8ff" points="391.71,-144.16 400.33,-150.33 397.44,-140.13 391.71,-144.16"/>
</a>
</g>
</g>
<!-- Node10 -->
<g id="Node000010" class="node">
<title>Node10</title>
<g id="a_Node000010"><a xlink:href="class_trampoline.html#a8c4a369bfdfba21767d45ec9f83be487" target="_top" xlink:title=" ">
<polygon fill="white" stroke="#666666" points="310.25,-20 166.75,-20 166.75,0 310.25,0 310.25,-20"/>
<text text-anchor="middle" x="238.5" y="-6.5" font-family="Helvetica,sans-Serif" font-size="10.00">Trampoline::PlayerInteraction</text>
</a>
</g>
</g>
<!-- Node1&#45;&gt;Node10 -->
<g id="edge10_Node000001_Node000010" class="edge">
<title>Node1&#45;&gt;Node10</title>
<g id="a_edge10_Node000001_Node000010"><a xlink:title=" ">
<path fill="none" stroke="#63b8ff" d="M399.79,-141.41C386.9,-111.81 359.04,-57.64 317.75,-29 312.81,-25.57 307.32,-22.76 301.61,-20.46"/>
<polygon fill="#63b8ff" stroke="#63b8ff" points="396.46,-142.51 403.55,-150.39 402.92,-139.81 396.46,-142.51"/>
</a>
</g>
</g>
<!-- Node9&#45;&gt;Node6 -->
<g id="edge9_Node000009_Node000006" class="edge">
<title>Node9&#45;&gt;Node6</title>
<g id="a_edge9_Node000009_Node000006"><a xlink:title=" ">
<path fill="none" stroke="#63b8ff" d="M179.38,-61.17C172.56,-63 165.72,-64.95 159.25,-67 139.66,-73.2 118.35,-81.41 100.75,-88.62"/>
<polygon fill="#63b8ff" stroke="#63b8ff" points="179.77,-64.69 188.57,-58.8 178.02,-57.91 179.77,-64.69"/>
</a>
</g>
</g>
</g>
</svg>
