<?xml version="1.0" encoding="UTF-8" standalone="no"?>
<!DOCTYPE svg PUBLIC "-//W3C//DTD SVG 1.1//EN"
 "http://www.w3.org/Graphics/SVG/1.1/DTD/svg11.dtd">
<!-- Generated by graphviz version 12.2.1 (20241206.2353)
 -->
<!-- Title: Trampoline::Trampoline Pages: 1 -->
<svg width="325pt" height="78pt"
 viewBox="0.00 0.00 325.00 78.00" xmlns="http://www.w3.org/2000/svg" xmlns:xlink="http://www.w3.org/1999/xlink">
<g id="graph0" class="graph" transform="scale(1 1) rotate(0) translate(4 74)">
<title>Trampoline::Trampoline</title>
<!-- Node1 -->
<g id="Node000001" class="node">
<title>Node1</title>
<g id="a_Node000001"><a xlink:title=" ">
<polygon fill="#999999" stroke="#666666" points="118,-42 0,-42 0,-22 118,-22 118,-42"/>
<text text-anchor="middle" x="59" y="-28.5" font-family="Helvetica,sans-Serif" font-size="10.00">Trampoline::Trampoline</text>
</a>
</g>
</g>
<!-- Node2 -->
<g id="Node000002" class="node">
<title>Node2</title>
<g id="a_Node000002"><a xlink:href="class_counted_item.html#a7a4f3ec5e121b459d51a818c9ed0e269" target="_top" xlink:title=" ">
<polygon fill="white" stroke="#666666" points="299.75,-70 171.25,-70 171.25,-38 299.75,-38 299.75,-70"/>
<text text-anchor="start" x="179.25" y="-56.5" font-family="Helvetica,sans-Serif" font-size="10.00">CountedItem&lt; Trampoline</text>
<text text-anchor="middle" x="235.5" y="-44.5" font-family="Helvetica,sans-Serif" font-size="10.00"> &gt;::GetCount</text>
</a>
</g>
</g>
<!-- Node1&#45;&gt;Node2 -->
<g id="edge1_Node000001_Node000002" class="edge">
<title>Node1&#45;&gt;Node2</title>
<g id="a_edge1_Node000001_Node000002"><a xlink:title=" ">
<path fill="none" stroke="#63b8ff" d="M118.11,-39.33C131.48,-41.01 145.89,-42.83 159.86,-44.59"/>
<polygon fill="#63b8ff" stroke="#63b8ff" points="159.08,-48.02 169.44,-45.8 159.96,-41.07 159.08,-48.02"/>
</a>
</g>
</g>
<!-- Node3 -->
<g id="Node000003" class="node">
<title>Node3</title>
<g id="a_Node000003"><a xlink:href="class_interactable_item.html#a5e5b9c459514e29098aaff5e62761569" target="_top" xlink:title=" ">
<polygon fill="white" stroke="#666666" points="317,-20 154,-20 154,0 317,0 317,-20"/>
<text text-anchor="middle" x="235.5" y="-6.5" font-family="Helvetica,sans-Serif" font-size="10.00">InteractableItem::InteractableItem</text>
</a>
</g>
</g>
<!-- Node1&#45;&gt;Node3 -->
<g id="edge2_Node000001_Node000003" class="edge">
<title>Node1&#45;&gt;Node3</title>
<g id="a_edge2_Node000001_Node000003"><a xlink:title=" ">
<path fill="none" stroke="#63b8ff" d="M118.11,-24.67C125.94,-23.69 134.14,-22.65 142.39,-21.61"/>
<polygon fill="#63b8ff" stroke="#63b8ff" points="142.66,-25.11 152.15,-20.38 141.79,-18.16 142.66,-25.11"/>
</a>
</g>
</g>
</g>
</svg>
