<?xml version="1.0" encoding="UTF-8" standalone="no"?>
<!DOCTYPE svg PUBLIC "-//W3C//DTD SVG 1.1//EN"
 "http://www.w3.org/Graphics/SVG/1.1/DTD/svg11.dtd">
<!-- Generated by graphviz version 12.2.1 (20241206.2353)
 -->
<!-- Title: SliderMenuItem::SliderMenuItem Pages: 1 -->
<svg width="357pt" height="104pt"
 viewBox="0.00 0.00 357.25 104.00" xmlns="http://www.w3.org/2000/svg" xmlns:xlink="http://www.w3.org/1999/xlink">
<g id="graph0" class="graph" transform="scale(1 1) rotate(0) translate(4 100)">
<title>SliderMenuItem::SliderMenuItem</title>
<!-- Node1 -->
<g id="Node000001" class="node">
<title>Node1</title>
<g id="a_Node000001"><a xlink:title=" ">
<polygon fill="#999999" stroke="#666666" points="158.5,-58 0,-58 0,-38 158.5,-38 158.5,-58"/>
<text text-anchor="middle" x="79.25" y="-44.5" font-family="Helvetica,sans-Serif" font-size="10.00">SliderMenuItem::SliderMenuItem</text>
</a>
</g>
</g>
<!-- Node2 -->
<g id="Node000002" class="node">
<title>Node2</title>
<g id="a_Node000002"><a xlink:href="class_menu_item.html#a07c8f5adc4870b53e41d24851bd33c01" target="_top" xlink:title=" ">
<polygon fill="white" stroke="#666666" points="326.75,-96 217,-96 217,-76 326.75,-76 326.75,-96"/>
<text text-anchor="middle" x="271.88" y="-82.5" font-family="Helvetica,sans-Serif" font-size="10.00">MenuItem::GetHeight</text>
</a>
</g>
</g>
<!-- Node1&#45;&gt;Node2 -->
<g id="edge1_Node000001_Node000002" class="edge">
<title>Node1&#45;&gt;Node2</title>
<g id="a_edge1_Node000001_Node000002"><a xlink:title=" ">
<path fill="none" stroke="#63b8ff" d="M132.84,-58.48C155.87,-63.07 183.08,-68.5 207.24,-73.31"/>
<polygon fill="#63b8ff" stroke="#63b8ff" points="206.48,-76.73 216.97,-75.25 207.85,-69.87 206.48,-76.73"/>
</a>
</g>
</g>
<!-- Node3 -->
<g id="Node000003" class="node">
<title>Node3</title>
<g id="a_Node000003"><a xlink:href="class_menu_item.html#a1dab15f86586e486bb0b90f3fc0db510" target="_top" xlink:title=" ">
<polygon fill="white" stroke="#666666" points="326.38,-58 217.38,-58 217.38,-38 326.38,-38 326.38,-58"/>
<text text-anchor="middle" x="271.88" y="-44.5" font-family="Helvetica,sans-Serif" font-size="10.00">MenuItem::MenuItem</text>
</a>
</g>
</g>
<!-- Node1&#45;&gt;Node3 -->
<g id="edge2_Node000001_Node000003" class="edge">
<title>Node1&#45;&gt;Node3</title>
<g id="a_edge2_Node000001_Node000003"><a xlink:title=" ">
<path fill="none" stroke="#63b8ff" d="M158.89,-48C174.49,-48 190.72,-48 205.82,-48"/>
<polygon fill="#63b8ff" stroke="#63b8ff" points="205.6,-51.5 215.6,-48 205.6,-44.5 205.6,-51.5"/>
</a>
</g>
</g>
<!-- Node4 -->
<g id="Node000004" class="node">
<title>Node4</title>
<g id="a_Node000004"><a xlink:href="class_slider_menu_item.html#a14cdb721ca4a62dcdcc0d2ea9a925384" target="_top" xlink:title=" ">
<polygon fill="white" stroke="#666666" points="349.25,-20 194.5,-20 194.5,0 349.25,0 349.25,-20"/>
<text text-anchor="middle" x="271.88" y="-6.5" font-family="Helvetica,sans-Serif" font-size="10.00">SliderMenuItem::SetPercentage</text>
</a>
</g>
</g>
<!-- Node1&#45;&gt;Node4 -->
<g id="edge3_Node000001_Node000004" class="edge">
<title>Node1&#45;&gt;Node4</title>
<g id="a_edge3_Node000001_Node000004"><a xlink:title=" ">
<path fill="none" stroke="#63b8ff" d="M132.84,-37.52C155.87,-32.93 183.08,-27.5 207.24,-22.69"/>
<polygon fill="#63b8ff" stroke="#63b8ff" points="207.85,-26.13 216.97,-20.75 206.48,-19.27 207.85,-26.13"/>
</a>
</g>
</g>
</g>
</svg>
