<?xml version="1.0" encoding="UTF-8" standalone="no"?>
<!DOCTYPE svg PUBLIC "-//W3C//DTD SVG 1.1//EN"
 "http://www.w3.org/Graphics/SVG/1.1/DTD/svg11.dtd">
<!-- Generated by graphviz version 12.2.1 (20241206.2353)
 -->
<!-- Title: Hair::SetPartOffset Pages: 1 -->
<svg width="381pt" height="84pt"
 viewBox="0.00 0.00 380.75 84.00" xmlns="http://www.w3.org/2000/svg" xmlns:xlink="http://www.w3.org/1999/xlink">
<g id="graph0" class="graph" transform="scale(1 1) rotate(0) translate(4 80)">
<title>Hair::SetPartOffset</title>
<!-- Node1 -->
<g id="Node000001" class="node">
<title>Node1</title>
<g id="a_Node000001"><a xlink:title=" ">
<polygon fill="#999999" stroke="#666666" points="99.25,-57 0,-57 0,-37 99.25,-37 99.25,-57"/>
<text text-anchor="middle" x="49.62" y="-43.5" font-family="Helvetica,sans-Serif" font-size="10.00">Hair::SetPartOffset</text>
</a>
</g>
</g>
<!-- Node2 -->
<g id="Node000002" class="node">
<title>Node2</title>
<g id="a_Node000002"><a xlink:href="struct_vector2f.html#acedb20d25ccc3009546e120eda010bf5" target="_top" xlink:title=" ">
<polygon fill="white" stroke="#666666" points="369.38,-76 282.12,-76 282.12,-56 369.38,-56 369.38,-76"/>
<text text-anchor="middle" x="325.75" y="-62.5" font-family="Helvetica,sans-Serif" font-size="10.00">Vector2f::Length</text>
</a>
</g>
</g>
<!-- Node1&#45;&gt;Node2 -->
<g id="edge1_Node000001_Node000002" class="edge">
<title>Node1&#45;&gt;Node2</title>
<g id="a_edge1_Node000001_Node000002"><a xlink:title=" ">
<path fill="none" stroke="#63b8ff" d="M99.63,-50.4C147.78,-53.73 221.07,-58.81 270.84,-62.26"/>
<polygon fill="#63b8ff" stroke="#63b8ff" points="270.29,-65.73 280.51,-62.93 270.78,-58.75 270.29,-65.73"/>
</a>
</g>
</g>
<!-- Node3 -->
<g id="Node000003" class="node">
<title>Node3</title>
<g id="a_Node000003"><a xlink:href="struct_vector2f.html#aba5dd756c385551a19d36b57d8cbf629" target="_top" xlink:title=" ">
<polygon fill="white" stroke="#666666" points="242.75,-38 135.25,-38 135.25,-18 242.75,-18 242.75,-38"/>
<text text-anchor="middle" x="189" y="-24.5" font-family="Helvetica,sans-Serif" font-size="10.00">Vector2f::Normalized</text>
</a>
</g>
</g>
<!-- Node1&#45;&gt;Node3 -->
<g id="edge2_Node000001_Node000003" class="edge">
<title>Node1&#45;&gt;Node3</title>
<g id="a_edge2_Node000001_Node000003"><a xlink:title=" ">
<path fill="none" stroke="#63b8ff" d="M99.45,-40.25C107.4,-39.15 115.74,-37.99 123.99,-36.85"/>
<polygon fill="#63b8ff" stroke="#63b8ff" points="124.22,-40.36 133.64,-35.52 123.26,-33.42 124.22,-40.36"/>
</a>
</g>
</g>
<!-- Node3&#45;&gt;Node2 -->
<g id="edge3_Node000003_Node000002" class="edge">
<title>Node3&#45;&gt;Node2</title>
<g id="a_edge3_Node000003_Node000002"><a xlink:title=" ">
<path fill="none" stroke="#63b8ff" d="M227.18,-38.48C242.49,-42.8 260.44,-47.86 276.73,-52.46"/>
<polygon fill="#63b8ff" stroke="#63b8ff" points="275.66,-55.79 286.24,-55.14 277.56,-49.06 275.66,-55.79"/>
</a>
</g>
</g>
<!-- Node4 -->
<g id="Node000004" class="node">
<title>Node4</title>
<g id="a_Node000004"><a xlink:href="struct_vector2f.html#a3db9a868c58bc809e5e09a88d65a77ec" target="_top" xlink:title=" ">
<polygon fill="white" stroke="#666666" points="372.75,-20 278.75,-20 278.75,0 372.75,0 372.75,-20"/>
<text text-anchor="middle" x="325.75" y="-6.5" font-family="Helvetica,sans-Serif" font-size="10.00">Vector2f::Vector2f</text>
</a>
</g>
</g>
<!-- Node3&#45;&gt;Node4 -->
<g id="edge4_Node000003_Node000004" class="edge">
<title>Node3&#45;&gt;Node4</title>
<g id="a_edge4_Node000003_Node000004"><a xlink:title=" ">
<path fill="none" stroke="#63b8ff" d="M242.87,-20.94C250.89,-19.87 259.19,-18.76 267.3,-17.67"/>
<polygon fill="#63b8ff" stroke="#63b8ff" points="267.64,-21.16 277.09,-16.37 266.71,-14.22 267.64,-21.16"/>
</a>
</g>
</g>
<!-- Node4&#45;&gt;Node4 -->
<g id="edge5_Node000004_Node000004" class="edge">
<title>Node4&#45;&gt;Node4</title>
<g id="a_edge5_Node000004_Node000004"><a xlink:title=" ">
<path fill="none" stroke="#63b8ff" d="M304.02,-20.34C294.74,-28.98 301.98,-38 325.75,-38 338.75,-38 346.81,-35.3 349.92,-31.44"/>
<polygon fill="#63b8ff" stroke="#63b8ff" points="353.37,-30.83 347.8,-21.82 346.53,-32.34 353.37,-30.83"/>
</a>
</g>
</g>
</g>
</svg>
