<?xml version="1.0" encoding="UTF-8" standalone="no"?>
<!DOCTYPE svg PUBLIC "-//W3C//DTD SVG 1.1//EN"
 "http://www.w3.org/Graphics/SVG/1.1/DTD/svg11.dtd">
<!-- Generated by graphviz version 12.2.1 (20241206.2353)
 -->
<!-- Title: FlyingStrawberry::PlayerInteraction Pages: 1 -->
<svg width="943pt" height="246pt"
 viewBox="0.00 0.00 943.25 246.00" xmlns="http://www.w3.org/2000/svg" xmlns:xlink="http://www.w3.org/1999/xlink">
<g id="graph0" class="graph" transform="scale(1 1) rotate(0) translate(4 242)">
<title>FlyingStrawberry::PlayerInteraction</title>
<!-- Node1 -->
<g id="Node000001" class="node">
<title>Node1</title>
<g id="a_Node000001"><a xlink:title=" ">
<polygon fill="#999999" stroke="#666666" points="123.25,-121 0,-121 0,-89 123.25,-89 123.25,-121"/>
<text text-anchor="start" x="8" y="-107.5" font-family="Helvetica,sans-Serif" font-size="10.00">FlyingStrawberry::Player</text>
<text text-anchor="middle" x="61.62" y="-95.5" font-family="Helvetica,sans-Serif" font-size="10.00">Interaction</text>
</a>
</g>
</g>
<!-- Node2 -->
<g id="Node000002" class="node">
<title>Node2</title>
<g id="a_Node000002"><a xlink:href="class_character.html#a0b790800d6ff90eebee18bce25177fce" target="_top" xlink:title=" ">
<polygon fill="white" stroke="#666666" points="476.62,-238 366.12,-238 366.12,-218 476.62,-218 476.62,-238"/>
<text text-anchor="middle" x="421.38" y="-224.5" font-family="Helvetica,sans-Serif" font-size="10.00">Character::GetHitBox</text>
</a>
</g>
</g>
<!-- Node1&#45;&gt;Node2 -->
<g id="edge1_Node000001_Node000002" class="edge">
<title>Node1&#45;&gt;Node2</title>
<g id="a_edge1_Node000001_Node000002"><a xlink:title=" ">
<path fill="none" stroke="#63b8ff" d="M80.85,-121.28C99.31,-136.91 129.34,-159.99 159.25,-173 222.41,-200.48 300.28,-214.59 354.47,-221.6"/>
<polygon fill="#63b8ff" stroke="#63b8ff" points="353.81,-225.04 364.16,-222.8 354.67,-218.09 353.81,-225.04"/>
</a>
</g>
</g>
<!-- Node3 -->
<g id="Node000003" class="node">
<title>Node3</title>
<g id="a_Node000003"><a xlink:href="class_character.html#a5f03513497f6766307128980a7c641ce" target="_top" xlink:title=" ">
<polygon fill="white" stroke="#666666" points="318.5,-20 159.25,-20 159.25,0 318.5,0 318.5,-20"/>
<text text-anchor="middle" x="238.88" y="-6.5" font-family="Helvetica,sans-Serif" font-size="10.00">Character::HasCharacterDashed</text>
</a>
</g>
</g>
<!-- Node1&#45;&gt;Node3 -->
<g id="edge2_Node000001_Node000003" class="edge">
<title>Node1&#45;&gt;Node3</title>
<g id="a_edge2_Node000001_Node000003"><a xlink:title=" ">
<path fill="none" stroke="#63b8ff" d="M80.99,-88.54C99.56,-72.64 129.67,-48.84 159.25,-34 166.88,-30.17 175.23,-26.82 183.56,-23.94"/>
<polygon fill="#63b8ff" stroke="#63b8ff" points="184.55,-27.3 192.98,-20.88 182.39,-20.64 184.55,-27.3"/>
</a>
</g>
</g>
<!-- Node4 -->
<g id="Node000004" class="node">
<title>Node4</title>
<g id="a_Node000004"><a xlink:href="namespaceutils.html#a11a0eb68e467a22aed74f507057c39ed" target="_top" xlink:title=" ">
<polygon fill="white" stroke="#666666" points="471.38,-200 371.38,-200 371.38,-180 471.38,-180 471.38,-200"/>
<text text-anchor="middle" x="421.38" y="-186.5" font-family="Helvetica,sans-Serif" font-size="10.00">utils::IsOverlapping</text>
</a>
</g>
</g>
<!-- Node1&#45;&gt;Node4 -->
<g id="edge3_Node000001_Node000004" class="edge">
<title>Node1&#45;&gt;Node4</title>
<g id="a_edge3_Node000001_Node000004"><a xlink:title=" ">
<path fill="none" stroke="#63b8ff" d="M99.2,-121.35C117.03,-128.81 138.96,-137.24 159.25,-143 226.75,-162.15 306.37,-175.15 359.79,-182.54"/>
<polygon fill="#63b8ff" stroke="#63b8ff" points="359.23,-185.99 369.61,-183.87 360.18,-179.06 359.23,-185.99"/>
</a>
</g>
</g>
<!-- Node10 -->
<g id="Node000010" class="node">
<title>Node10</title>
<g id="a_Node000010"><a xlink:href="class_character.html#a9ccad0ccca398eed8e4e2b101f47a883" target="_top" xlink:title=" ">
<polygon fill="white" stroke="#666666" points="484.88,-86 357.88,-86 357.88,-66 484.88,-66 484.88,-86"/>
<text text-anchor="middle" x="421.38" y="-72.5" font-family="Helvetica,sans-Serif" font-size="10.00">Character::IsRespawning</text>
</a>
</g>
</g>
<!-- Node1&#45;&gt;Node10 -->
<g id="edge12_Node000001_Node000010" class="edge">
<title>Node1&#45;&gt;Node10</title>
<g id="a_edge12_Node000001_Node000010"><a xlink:title=" ">
<path fill="none" stroke="#63b8ff" d="M123.72,-100.05C185.31,-95.05 280.45,-87.34 346.31,-82"/>
<polygon fill="#63b8ff" stroke="#63b8ff" points="346.24,-85.52 355.92,-81.22 345.67,-78.54 346.24,-85.52"/>
</a>
</g>
</g>
<!-- Node11 -->
<g id="Node000011" class="node">
<title>Node11</title>
<g id="a_Node000011"><a xlink:href="class_strawberry.html#a2e5468a8badbbf84cd37d12c34042061" target="_top" xlink:title=" ">
<polygon fill="white" stroke="#666666" points="310.25,-134 167.5,-134 167.5,-114 310.25,-114 310.25,-134"/>
<text text-anchor="middle" x="238.88" y="-120.5" font-family="Helvetica,sans-Serif" font-size="10.00">Strawberry::PlayerInteraction</text>
</a>
</g>
</g>
<!-- Node1&#45;&gt;Node11 -->
<g id="edge13_Node000001_Node000011" class="edge">
<title>Node1&#45;&gt;Node11</title>
<g id="a_edge13_Node000001_Node000011"><a xlink:title=" ">
<path fill="none" stroke="#63b8ff" d="M123.43,-111.59C133.92,-112.73 144.98,-113.93 155.92,-115.11"/>
<polygon fill="#63b8ff" stroke="#63b8ff" points="155.43,-118.58 165.75,-116.18 156.18,-111.62 155.43,-118.58"/>
</a>
</g>
</g>
<!-- Node14 -->
<g id="Node000014" class="node">
<title>Node14</title>
<g id="a_Node000014"><a xlink:href="class_strawberry.html#afcc525a41d07703008636397800977bb" target="_top" xlink:title=" ">
<polygon fill="white" stroke="#666666" points="469.12,-48 373.62,-48 373.62,-28 469.12,-28 469.12,-48"/>
<text text-anchor="middle" x="421.38" y="-34.5" font-family="Helvetica,sans-Serif" font-size="10.00">Strawberry::Reset</text>
</a>
</g>
</g>
<!-- Node1&#45;&gt;Node14 -->
<g id="edge20_Node000001_Node000014" class="edge">
<title>Node1&#45;&gt;Node14</title>
<g id="a_edge20_Node000001_Node000014"><a xlink:title=" ">
<path fill="none" stroke="#63b8ff" d="M123.54,-89.08C135.35,-86.22 147.65,-83.39 159.25,-81 228.63,-66.69 309.16,-54.02 362.24,-46.21"/>
<polygon fill="#63b8ff" stroke="#63b8ff" points="362.58,-49.69 371.97,-44.78 361.57,-42.77 362.58,-49.69"/>
</a>
</g>
</g>
<!-- Node5 -->
<g id="Node000005" class="node">
<title>Node5</title>
<g id="a_Node000005"><a xlink:href="namespaceutils.html#a760075559e6ab59c1daec763fab2b488" target="_top" xlink:title=" ">
<polygon fill="white" stroke="#666666" points="661.75,-200 524.25,-200 524.25,-180 661.75,-180 661.75,-200"/>
<text text-anchor="middle" x="593" y="-186.5" font-family="Helvetica,sans-Serif" font-size="10.00">utils::DistPointLineSegment</text>
</a>
</g>
</g>
<!-- Node4&#45;&gt;Node5 -->
<g id="edge4_Node000004_Node000005" class="edge">
<title>Node4&#45;&gt;Node5</title>
<g id="a_edge4_Node000004_Node000005"><a xlink:title=" ">
<path fill="none" stroke="#63b8ff" d="M471.44,-190C484.33,-190 498.57,-190 512.62,-190"/>
<polygon fill="#63b8ff" stroke="#63b8ff" points="512.29,-193.5 522.29,-190 512.29,-186.5 512.29,-193.5"/>
</a>
</g>
</g>
<!-- Node6 -->
<g id="Node000006" class="node">
<title>Node6</title>
<g id="a_Node000006"><a xlink:href="struct_vector2f.html#af8ceb9310d7065eb485e47b072a5b143" target="_top" xlink:title=" ">
<polygon fill="white" stroke="#666666" points="805.25,-238 697.75,-238 697.75,-218 805.25,-218 805.25,-238"/>
<text text-anchor="middle" x="751.5" y="-224.5" font-family="Helvetica,sans-Serif" font-size="10.00">Vector2f::DotProduct</text>
</a>
</g>
</g>
<!-- Node5&#45;&gt;Node6 -->
<g id="edge5_Node000005_Node000006" class="edge">
<title>Node5&#45;&gt;Node6</title>
<g id="a_edge5_Node000005_Node000006"><a xlink:title=" ">
<path fill="none" stroke="#63b8ff" d="M637.18,-200.48C655.48,-204.93 677.01,-210.16 696.36,-214.85"/>
<polygon fill="#63b8ff" stroke="#63b8ff" points="695.45,-218.23 705.99,-217.19 697.1,-211.43 695.45,-218.23"/>
</a>
</g>
</g>
<!-- Node8 -->
<g id="Node000008" class="node">
<title>Node8</title>
<g id="a_Node000008"><a xlink:href="struct_vector2f.html#acedb20d25ccc3009546e120eda010bf5" target="_top" xlink:title=" ">
<polygon fill="white" stroke="#666666" points="931.88,-172 844.62,-172 844.62,-152 931.88,-152 931.88,-172"/>
<text text-anchor="middle" x="888.25" y="-158.5" font-family="Helvetica,sans-Serif" font-size="10.00">Vector2f::Length</text>
</a>
</g>
</g>
<!-- Node5&#45;&gt;Node8 -->
<g id="edge8_Node000005_Node000008" class="edge">
<title>Node5&#45;&gt;Node8</title>
<g id="a_edge8_Node000005_Node000008"><a xlink:title=" ">
<path fill="none" stroke="#63b8ff" d="M643.67,-179.51C660.74,-176.28 680.01,-173.04 697.75,-171 743.12,-165.79 794.93,-163.59 832.9,-162.66"/>
<polygon fill="#63b8ff" stroke="#63b8ff" points="832.79,-166.16 842.71,-162.44 832.63,-159.16 832.79,-166.16"/>
</a>
</g>
</g>
<!-- Node9 -->
<g id="Node000009" class="node">
<title>Node9</title>
<g id="a_Node000009"><a xlink:href="struct_vector2f.html#aba5dd756c385551a19d36b57d8cbf629" target="_top" xlink:title=" ">
<polygon fill="white" stroke="#666666" points="805.25,-200 697.75,-200 697.75,-180 805.25,-180 805.25,-200"/>
<text text-anchor="middle" x="751.5" y="-186.5" font-family="Helvetica,sans-Serif" font-size="10.00">Vector2f::Normalized</text>
</a>
</g>
</g>
<!-- Node5&#45;&gt;Node9 -->
<g id="edge9_Node000005_Node000009" class="edge">
<title>Node5&#45;&gt;Node9</title>
<g id="a_edge9_Node000005_Node000009"><a xlink:title=" ">
<path fill="none" stroke="#63b8ff" d="M662.19,-190C670.16,-190 678.27,-190 686.18,-190"/>
<polygon fill="#63b8ff" stroke="#63b8ff" points="686.08,-193.5 696.08,-190 686.08,-186.5 686.08,-193.5"/>
</a>
</g>
</g>
<!-- Node7 -->
<g id="Node000007" class="node">
<title>Node7</title>
<g id="a_Node000007"><a xlink:href="struct_vector2f.html#a3db9a868c58bc809e5e09a88d65a77ec" target="_top" xlink:title=" ">
<polygon fill="white" stroke="#666666" points="935.25,-219 841.25,-219 841.25,-199 935.25,-199 935.25,-219"/>
<text text-anchor="middle" x="888.25" y="-205.5" font-family="Helvetica,sans-Serif" font-size="10.00">Vector2f::Vector2f</text>
</a>
</g>
</g>
<!-- Node6&#45;&gt;Node7 -->
<g id="edge6_Node000006_Node000007" class="edge">
<title>Node6&#45;&gt;Node7</title>
<g id="a_edge6_Node000006_Node000007"><a xlink:title=" ">
<path fill="none" stroke="#63b8ff" d="M805.37,-220.55C813.39,-219.41 821.69,-218.24 829.8,-217.1"/>
<polygon fill="#63b8ff" stroke="#63b8ff" points="830.18,-220.58 839.59,-215.72 829.2,-213.65 830.18,-220.58"/>
</a>
</g>
</g>
<!-- Node7&#45;&gt;Node7 -->
<g id="edge7_Node000007_Node000007" class="edge">
<title>Node7&#45;&gt;Node7</title>
<g id="a_edge7_Node000007_Node000007"><a xlink:title=" ">
<path fill="none" stroke="#63b8ff" d="M866.52,-219.34C857.24,-227.98 864.48,-237 888.25,-237 901.25,-237 909.31,-234.3 912.42,-230.44"/>
<polygon fill="#63b8ff" stroke="#63b8ff" points="915.87,-229.83 910.3,-220.82 909.03,-231.34 915.87,-229.83"/>
</a>
</g>
</g>
<!-- Node9&#45;&gt;Node7 -->
<g id="edge11_Node000009_Node000007" class="edge">
<title>Node9&#45;&gt;Node7</title>
<g id="a_edge11_Node000009_Node000007"><a xlink:title=" ">
<path fill="none" stroke="#63b8ff" d="M805.37,-197.45C813.39,-198.59 821.69,-199.76 829.8,-200.9"/>
<polygon fill="#63b8ff" stroke="#63b8ff" points="829.2,-204.35 839.59,-202.28 830.18,-197.42 829.2,-204.35"/>
</a>
</g>
</g>
<!-- Node9&#45;&gt;Node8 -->
<g id="edge10_Node000009_Node000008" class="edge">
<title>Node9&#45;&gt;Node8</title>
<g id="a_edge10_Node000009_Node000008"><a xlink:title=" ">
<path fill="none" stroke="#63b8ff" d="M802.68,-179.57C812.68,-177.5 823.22,-175.3 833.35,-173.2"/>
<polygon fill="#63b8ff" stroke="#63b8ff" points="833.98,-176.64 843.06,-171.18 832.56,-169.79 833.98,-176.64"/>
</a>
</g>
</g>
<!-- Node11&#45;&gt;Node2 -->
<g id="edge14_Node000011_Node000002" class="edge">
<title>Node11&#45;&gt;Node2</title>
<g id="a_edge14_Node000011_Node000002"><a xlink:title=" ">
<path fill="none" stroke="#63b8ff" d="M251,-134.43C270.5,-152.19 312.75,-188.35 354.5,-209 357.97,-210.71 361.61,-212.3 365.34,-213.76"/>
<polygon fill="#63b8ff" stroke="#63b8ff" points="363.95,-216.98 374.54,-217.05 366.3,-210.39 363.95,-216.98"/>
</a>
</g>
</g>
<!-- Node11&#45;&gt;Node4 -->
<g id="edge16_Node000011_Node000004" class="edge">
<title>Node11&#45;&gt;Node4</title>
<g id="a_edge16_Node000011_Node000004"><a xlink:title=" ">
<path fill="none" stroke="#63b8ff" d="M263.3,-134.48C286.26,-144.54 322.41,-159.83 354.5,-171 359.77,-172.84 365.33,-174.64 370.88,-176.35"/>
<polygon fill="#63b8ff" stroke="#63b8ff" points="369.46,-179.58 380.04,-179.11 371.47,-172.88 369.46,-179.58"/>
</a>
</g>
</g>
<!-- Node11&#45;&gt;Node10 -->
<g id="edge17_Node000011_Node000010" class="edge">
<title>Node11&#45;&gt;Node10</title>
<g id="a_edge17_Node000011_Node000010"><a xlink:title=" ">
<path fill="none" stroke="#63b8ff" d="M279.04,-113.58C305.68,-106.5 341.17,-97.06 369.92,-89.42"/>
<polygon fill="#63b8ff" stroke="#63b8ff" points="370.75,-92.82 379.51,-86.87 368.95,-86.05 370.75,-92.82"/>
</a>
</g>
</g>
<!-- Node12 -->
<g id="Node000012" class="node">
<title>Node12</title>
<g id="a_Node000012"><a xlink:href="class_game_object.html#ac3bd47953a5614e49e3739955fb5d669" target="_top" xlink:title=" ">
<polygon fill="white" stroke="#666666" points="485.25,-162 357.5,-162 357.5,-142 485.25,-142 485.25,-162"/>
<text text-anchor="middle" x="421.38" y="-148.5" font-family="Helvetica,sans-Serif" font-size="10.00">GameObject::GetPosition</text>
</a>
</g>
</g>
<!-- Node11&#45;&gt;Node12 -->
<g id="edge15_Node000011_Node000012" class="edge">
<title>Node11&#45;&gt;Node12</title>
<g id="a_edge15_Node000011_Node000012"><a xlink:title=" ">
<path fill="none" stroke="#63b8ff" d="M307.34,-134.47C319.97,-136.42 333.23,-138.48 346.05,-140.47"/>
<polygon fill="#63b8ff" stroke="#63b8ff" points="345.25,-143.89 355.67,-141.96 346.33,-136.97 345.25,-143.89"/>
</a>
</g>
</g>
<!-- Node13 -->
<g id="Node000013" class="node">
<title>Node13</title>
<g id="a_Node000013"><a xlink:href="class_character.html#a51c025cc2193ef3fe81395d5e85dd017" target="_top" xlink:title=" ">
<polygon fill="white" stroke="#666666" points="488.25,-124 354.5,-124 354.5,-104 488.25,-104 488.25,-124"/>
<text text-anchor="middle" x="421.38" y="-110.5" font-family="Helvetica,sans-Serif" font-size="10.00">Character::IsTouchingFloor</text>
</a>
</g>
</g>
<!-- Node11&#45;&gt;Node13 -->
<g id="edge18_Node000011_Node000013" class="edge">
<title>Node11&#45;&gt;Node13</title>
<g id="a_edge18_Node000011_Node000013"><a xlink:title=" ">
<path fill="none" stroke="#63b8ff" d="M310.7,-120.08C321.21,-119.49 332.1,-118.89 342.75,-118.3"/>
<polygon fill="#63b8ff" stroke="#63b8ff" points="342.88,-121.8 352.67,-117.75 342.49,-114.81 342.88,-121.8"/>
</a>
</g>
</g>
<!-- Node11&#45;&gt;Node14 -->
<g id="edge19_Node000011_Node000014" class="edge">
<title>Node11&#45;&gt;Node14</title>
<g id="a_edge19_Node000011_Node000014"><a xlink:title=" ">
<path fill="none" stroke="#63b8ff" d="M254.81,-113.63C276.1,-99.24 316.79,-73.16 354.5,-57 358.75,-55.18 363.22,-53.48 367.75,-51.89"/>
<polygon fill="#63b8ff" stroke="#63b8ff" points="368.51,-55.33 376.92,-48.89 366.33,-48.68 368.51,-55.33"/>
</a>
</g>
</g>
</g>
</svg>
