<?xml version="1.0" encoding="UTF-8" standalone="no"?>
<!DOCTYPE svg PUBLIC "-//W3C//DTD SVG 1.1//EN"
 "http://www.w3.org/Graphics/SVG/1.1/DTD/svg11.dtd">
<!-- Generated by graphviz version 12.2.1 (20241206.2353)
 -->
<!-- Title: Character::ResetDash Pages: 1 -->
<svg width="309pt" height="66pt"
 viewBox="0.00 0.00 308.50 66.00" xmlns="http://www.w3.org/2000/svg" xmlns:xlink="http://www.w3.org/1999/xlink">
<g id="graph0" class="graph" transform="scale(1 1) rotate(0) translate(4 62)">
<title>Character::ResetDash</title>
<!-- Node1 -->
<g id="Node000001" class="node">
<title>Node1</title>
<g id="a_Node000001"><a xlink:title=" ">
<polygon fill="#999999" stroke="#666666" points="300.5,-39 186.25,-39 186.25,-19 300.5,-19 300.5,-39"/>
<text text-anchor="middle" x="243.38" y="-25.5" font-family="Helvetica,sans-Serif" font-size="10.00">Character::ResetDash</text>
</a>
</g>
</g>
<!-- Node2 -->
<g id="Node000002" class="node">
<title>Node2</title>
<g id="a_Node000002"><a xlink:href="class_dash_crystal.html#ae9d188a3998de0c2de1ee162ba5e1273" target="_top" xlink:title=" ">
<polygon fill="white" stroke="#666666" points="150.25,-58 0,-58 0,-38 150.25,-38 150.25,-58"/>
<text text-anchor="middle" x="75.12" y="-44.5" font-family="Helvetica,sans-Serif" font-size="10.00">DashCrystal::PlayerInteraction</text>
</a>
</g>
</g>
<!-- Node1&#45;&gt;Node2 -->
<g id="edge1_Node000001_Node000002" class="edge">
<title>Node1&#45;&gt;Node2</title>
<g id="a_edge1_Node000001_Node000002"><a xlink:title=" ">
<path fill="none" stroke="#63b8ff" d="M174.66,-36.74C166.74,-37.64 158.63,-38.57 150.63,-39.49"/>
<polygon fill="#63b8ff" stroke="#63b8ff" points="175.05,-40.22 184.59,-35.6 174.25,-33.26 175.05,-40.22"/>
</a>
</g>
</g>
<!-- Node3 -->
<g id="Node000003" class="node">
<title>Node3</title>
<g id="a_Node000003"><a xlink:href="class_trampoline.html#a8c4a369bfdfba21767d45ec9f83be487" target="_top" xlink:title=" ">
<polygon fill="white" stroke="#666666" points="146.88,-20 3.38,-20 3.38,0 146.88,0 146.88,-20"/>
<text text-anchor="middle" x="75.12" y="-6.5" font-family="Helvetica,sans-Serif" font-size="10.00">Trampoline::PlayerInteraction</text>
</a>
</g>
</g>
<!-- Node1&#45;&gt;Node3 -->
<g id="edge2_Node000001_Node000003" class="edge">
<title>Node1&#45;&gt;Node3</title>
<g id="a_edge2_Node000001_Node000003"><a xlink:title=" ">
<path fill="none" stroke="#63b8ff" d="M174.73,-21.27C165.62,-20.23 156.25,-19.16 147.09,-18.11"/>
<polygon fill="#63b8ff" stroke="#63b8ff" points="174.25,-24.74 184.59,-22.4 175.05,-17.78 174.25,-24.74"/>
</a>
</g>
</g>
</g>
</svg>
