<?xml version="1.0" encoding="UTF-8" standalone="no"?>
<!DOCTYPE svg PUBLIC "-//W3C//DTD SVG 1.1//EN"
 "http://www.w3.org/Graphics/SVG/1.1/DTD/svg11.dtd">
<!-- Generated by graphviz version 12.2.1 (20241206.2353)
 -->
<!-- Title: Trampoline::PlayerInteraction Pages: 1 -->
<svg width="749pt" height="142pt"
 viewBox="0.00 0.00 748.75 142.00" xmlns="http://www.w3.org/2000/svg" xmlns:xlink="http://www.w3.org/1999/xlink">
<g id="graph0" class="graph" transform="scale(1 1) rotate(0) translate(4 138)">
<title>Trampoline::PlayerInteraction</title>
<!-- Node1 -->
<g id="Node000001" class="node">
<title>Node1</title>
<g id="a_Node000001"><a xlink:title=" ">
<polygon fill="#999999" stroke="#666666" points="143.5,-77 0,-77 0,-57 143.5,-57 143.5,-77"/>
<text text-anchor="middle" x="71.75" y="-63.5" font-family="Helvetica,sans-Serif" font-size="10.00">Trampoline::PlayerInteraction</text>
</a>
</g>
</g>
<!-- Node2 -->
<g id="Node000002" class="node">
<title>Node2</title>
<g id="a_Node000002"><a xlink:href="class_character.html#aec011c2511a78fc3e07ce424a640d633" target="_top" xlink:title=" ">
<polygon fill="white" stroke="#666666" points="293.75,-134 179.5,-134 179.5,-114 293.75,-114 293.75,-134"/>
<text text-anchor="middle" x="236.62" y="-120.5" font-family="Helvetica,sans-Serif" font-size="10.00">Character::ApplyForce</text>
</a>
</g>
</g>
<!-- Node1&#45;&gt;Node2 -->
<g id="edge1_Node000001_Node000002" class="edge">
<title>Node1&#45;&gt;Node2</title>
<g id="a_edge1_Node000001_Node000002"><a xlink:title=" ">
<path fill="none" stroke="#63b8ff" d="M101.7,-77.44C123.15,-85.15 153.11,-95.84 179.5,-105 184.16,-106.62 189.05,-108.3 193.91,-109.96"/>
<polygon fill="#63b8ff" stroke="#63b8ff" points="192.4,-113.14 202.99,-113.05 194.65,-106.51 192.4,-113.14"/>
</a>
</g>
</g>
<!-- Node3 -->
<g id="Node000003" class="node">
<title>Node3</title>
<g id="a_Node000003"><a xlink:href="class_character.html#a0b790800d6ff90eebee18bce25177fce" target="_top" xlink:title=" ">
<polygon fill="white" stroke="#666666" points="291.88,-96 181.38,-96 181.38,-76 291.88,-76 291.88,-96"/>
<text text-anchor="middle" x="236.62" y="-82.5" font-family="Helvetica,sans-Serif" font-size="10.00">Character::GetHitBox</text>
</a>
</g>
</g>
<!-- Node1&#45;&gt;Node3 -->
<g id="edge2_Node000001_Node000003" class="edge">
<title>Node1&#45;&gt;Node3</title>
<g id="a_edge2_Node000001_Node000003"><a xlink:title=" ">
<path fill="none" stroke="#63b8ff" d="M143.72,-75.28C152.42,-76.29 161.28,-77.33 169.9,-78.33"/>
<polygon fill="#63b8ff" stroke="#63b8ff" points="169.22,-81.78 179.56,-79.46 170.03,-74.82 169.22,-81.78"/>
</a>
</g>
</g>
<!-- Node4 -->
<g id="Node000004" class="node">
<title>Node4</title>
<g id="a_Node000004"><a xlink:href="namespaceutils.html#a11a0eb68e467a22aed74f507057c39ed" target="_top" xlink:title=" ">
<polygon fill="white" stroke="#666666" points="286.62,-58 186.62,-58 186.62,-38 286.62,-38 286.62,-58"/>
<text text-anchor="middle" x="236.62" y="-44.5" font-family="Helvetica,sans-Serif" font-size="10.00">utils::IsOverlapping</text>
</a>
</g>
</g>
<!-- Node1&#45;&gt;Node4 -->
<g id="edge3_Node000001_Node000004" class="edge">
<title>Node1&#45;&gt;Node4</title>
<g id="a_edge3_Node000001_Node000004"><a xlink:title=" ">
<path fill="none" stroke="#63b8ff" d="M143.72,-58.72C154.18,-57.5 164.88,-56.25 175.1,-55.06"/>
<polygon fill="#63b8ff" stroke="#63b8ff" points="175.38,-58.55 184.91,-53.92 174.57,-51.6 175.38,-58.55"/>
</a>
</g>
</g>
<!-- Node10 -->
<g id="Node000010" class="node">
<title>Node10</title>
<g id="a_Node000010"><a xlink:href="class_character.html#ad86bc482bf4f17bff08a76d3ff54749e" target="_top" xlink:title=" ">
<polygon fill="white" stroke="#666666" points="293.75,-20 179.5,-20 179.5,0 293.75,0 293.75,-20"/>
<text text-anchor="middle" x="236.62" y="-6.5" font-family="Helvetica,sans-Serif" font-size="10.00">Character::ResetDash</text>
</a>
</g>
</g>
<!-- Node1&#45;&gt;Node10 -->
<g id="edge12_Node000001_Node000010" class="edge">
<title>Node1&#45;&gt;Node10</title>
<g id="a_edge12_Node000001_Node000010"><a xlink:title=" ">
<path fill="none" stroke="#63b8ff" d="M101.7,-56.56C123.15,-48.85 153.11,-38.16 179.5,-29 184.16,-27.38 189.05,-25.7 193.91,-24.04"/>
<polygon fill="#63b8ff" stroke="#63b8ff" points="194.65,-27.49 202.99,-20.95 192.4,-20.86 194.65,-27.49"/>
</a>
</g>
</g>
<!-- Node5 -->
<g id="Node000005" class="node">
<title>Node5</title>
<g id="a_Node000005"><a xlink:href="namespaceutils.html#a760075559e6ab59c1daec763fab2b488" target="_top" xlink:title=" ">
<polygon fill="white" stroke="#666666" points="467.25,-58 329.75,-58 329.75,-38 467.25,-38 467.25,-58"/>
<text text-anchor="middle" x="398.5" y="-44.5" font-family="Helvetica,sans-Serif" font-size="10.00">utils::DistPointLineSegment</text>
</a>
</g>
</g>
<!-- Node4&#45;&gt;Node5 -->
<g id="edge4_Node000004_Node000005" class="edge">
<title>Node4&#45;&gt;Node5</title>
<g id="a_edge4_Node000004_Node000005"><a xlink:title=" ">
<path fill="none" stroke="#63b8ff" d="M286.9,-48C296.73,-48 307.3,-48 317.86,-48"/>
<polygon fill="#63b8ff" stroke="#63b8ff" points="317.77,-51.5 327.77,-48 317.77,-44.5 317.77,-51.5"/>
</a>
</g>
</g>
<!-- Node6 -->
<g id="Node000006" class="node">
<title>Node6</title>
<g id="a_Node000006"><a xlink:href="struct_vector2f.html#af8ceb9310d7065eb485e47b072a5b143" target="_top" xlink:title=" ">
<polygon fill="white" stroke="#666666" points="610.75,-96 503.25,-96 503.25,-76 610.75,-76 610.75,-96"/>
<text text-anchor="middle" x="557" y="-82.5" font-family="Helvetica,sans-Serif" font-size="10.00">Vector2f::DotProduct</text>
</a>
</g>
</g>
<!-- Node5&#45;&gt;Node6 -->
<g id="edge5_Node000005_Node000006" class="edge">
<title>Node5&#45;&gt;Node6</title>
<g id="a_edge5_Node000005_Node000006"><a xlink:title=" ">
<path fill="none" stroke="#63b8ff" d="M442.68,-58.48C460.98,-62.93 482.51,-68.16 501.86,-72.85"/>
<polygon fill="#63b8ff" stroke="#63b8ff" points="500.95,-76.23 511.49,-75.19 502.6,-69.43 500.95,-76.23"/>
</a>
</g>
</g>
<!-- Node8 -->
<g id="Node000008" class="node">
<title>Node8</title>
<g id="a_Node000008"><a xlink:href="struct_vector2f.html#acedb20d25ccc3009546e120eda010bf5" target="_top" xlink:title=" ">
<polygon fill="white" stroke="#666666" points="737.38,-30 650.12,-30 650.12,-10 737.38,-10 737.38,-30"/>
<text text-anchor="middle" x="693.75" y="-16.5" font-family="Helvetica,sans-Serif" font-size="10.00">Vector2f::Length</text>
</a>
</g>
</g>
<!-- Node5&#45;&gt;Node8 -->
<g id="edge8_Node000005_Node000008" class="edge">
<title>Node5&#45;&gt;Node8</title>
<g id="a_edge8_Node000005_Node000008"><a xlink:title=" ">
<path fill="none" stroke="#63b8ff" d="M449.17,-37.51C466.24,-34.28 485.51,-31.04 503.25,-29 548.62,-23.79 600.43,-21.59 638.4,-20.66"/>
<polygon fill="#63b8ff" stroke="#63b8ff" points="638.29,-24.16 648.21,-20.44 638.13,-17.16 638.29,-24.16"/>
</a>
</g>
</g>
<!-- Node9 -->
<g id="Node000009" class="node">
<title>Node9</title>
<g id="a_Node000009"><a xlink:href="struct_vector2f.html#aba5dd756c385551a19d36b57d8cbf629" target="_top" xlink:title=" ">
<polygon fill="white" stroke="#666666" points="610.75,-58 503.25,-58 503.25,-38 610.75,-38 610.75,-58"/>
<text text-anchor="middle" x="557" y="-44.5" font-family="Helvetica,sans-Serif" font-size="10.00">Vector2f::Normalized</text>
</a>
</g>
</g>
<!-- Node5&#45;&gt;Node9 -->
<g id="edge9_Node000005_Node000009" class="edge">
<title>Node5&#45;&gt;Node9</title>
<g id="a_edge9_Node000005_Node000009"><a xlink:title=" ">
<path fill="none" stroke="#63b8ff" d="M467.69,-48C475.66,-48 483.77,-48 491.68,-48"/>
<polygon fill="#63b8ff" stroke="#63b8ff" points="491.58,-51.5 501.58,-48 491.58,-44.5 491.58,-51.5"/>
</a>
</g>
</g>
<!-- Node7 -->
<g id="Node000007" class="node">
<title>Node7</title>
<g id="a_Node000007"><a xlink:href="struct_vector2f.html#a3db9a868c58bc809e5e09a88d65a77ec" target="_top" xlink:title=" ">
<polygon fill="white" stroke="#666666" points="740.75,-77 646.75,-77 646.75,-57 740.75,-57 740.75,-77"/>
<text text-anchor="middle" x="693.75" y="-63.5" font-family="Helvetica,sans-Serif" font-size="10.00">Vector2f::Vector2f</text>
</a>
</g>
</g>
<!-- Node6&#45;&gt;Node7 -->
<g id="edge6_Node000006_Node000007" class="edge">
<title>Node6&#45;&gt;Node7</title>
<g id="a_edge6_Node000006_Node000007"><a xlink:title=" ">
<path fill="none" stroke="#63b8ff" d="M610.87,-78.55C618.89,-77.41 627.19,-76.24 635.3,-75.1"/>
<polygon fill="#63b8ff" stroke="#63b8ff" points="635.68,-78.58 645.09,-73.72 634.7,-71.65 635.68,-78.58"/>
</a>
</g>
</g>
<!-- Node7&#45;&gt;Node7 -->
<g id="edge7_Node000007_Node000007" class="edge">
<title>Node7&#45;&gt;Node7</title>
<g id="a_edge7_Node000007_Node000007"><a xlink:title=" ">
<path fill="none" stroke="#63b8ff" d="M672.02,-77.34C662.74,-85.98 669.98,-95 693.75,-95 706.75,-95 714.81,-92.3 717.92,-88.44"/>
<polygon fill="#63b8ff" stroke="#63b8ff" points="721.37,-87.83 715.8,-78.82 714.53,-89.34 721.37,-87.83"/>
</a>
</g>
</g>
<!-- Node9&#45;&gt;Node7 -->
<g id="edge11_Node000009_Node000007" class="edge">
<title>Node9&#45;&gt;Node7</title>
<g id="a_edge11_Node000009_Node000007"><a xlink:title=" ">
<path fill="none" stroke="#63b8ff" d="M610.87,-55.45C618.89,-56.59 627.19,-57.76 635.3,-58.9"/>
<polygon fill="#63b8ff" stroke="#63b8ff" points="634.7,-62.35 645.09,-60.28 635.68,-55.42 634.7,-62.35"/>
</a>
</g>
</g>
<!-- Node9&#45;&gt;Node8 -->
<g id="edge10_Node000009_Node000008" class="edge">
<title>Node9&#45;&gt;Node8</title>
<g id="a_edge10_Node000009_Node000008"><a xlink:title=" ">
<path fill="none" stroke="#63b8ff" d="M608.18,-37.57C618.18,-35.5 628.72,-33.3 638.85,-31.2"/>
<polygon fill="#63b8ff" stroke="#63b8ff" points="639.48,-34.64 648.56,-29.18 638.06,-27.79 639.48,-34.64"/>
</a>
</g>
</g>
</g>
</svg>
