<?xml version="1.0" encoding="UTF-8" standalone="no"?>
<!DOCTYPE svg PUBLIC "-//W3C//DTD SVG 1.1//EN"
 "http://www.w3.org/Graphics/SVG/1.1/DTD/svg11.dtd">
<!-- Generated by graphviz version 12.2.1 (20241206.2353)
 -->
<!-- Title: SliderMenuItem Pages: 1 -->
<svg width="130pt" height="159pt"
 viewBox="0.00 0.00 130.18 159.00" xmlns="http://www.w3.org/2000/svg" xmlns:xlink="http://www.w3.org/1999/xlink">
<g id="graph0" class="graph" transform="scale(1 1) rotate(0) translate(4 155)">
<title>SliderMenuItem</title>
<!-- Node1 -->
<g id="Node000001" class="node">
<title>Node1</title>
<g id="a_Node000001"><a xlink:title=" ">
<polygon fill="#999999" stroke="#666666" points="100.12,-20 15.88,-20 15.88,0 100.12,0 100.12,-20"/>
<text text-anchor="middle" x="58" y="-6.5" font-family="Helvetica,sans-Serif" font-size="10.00">SliderMenuItem</text>
</a>
</g>
</g>
<!-- Node2 -->
<g id="Node000002" class="node">
<title>Node2</title>
<g id="a_Node000002"><a xlink:href="class_menu_item.html" target="_top" xlink:title=" ">
<polygon fill="white" stroke="#666666" points="87.75,-77 28.25,-77 28.25,-57 87.75,-57 87.75,-77"/>
<text text-anchor="middle" x="58" y="-63.5" font-family="Helvetica,sans-Serif" font-size="10.00">MenuItem</text>
</a>
</g>
</g>
<!-- Node2&#45;&gt;Node1 -->
<g id="edge1_Node000001_Node000002" class="edge">
<title>Node2&#45;&gt;Node1</title>
<g id="a_edge1_Node000001_Node000002"><a xlink:title=" ">
<path fill="none" stroke="#63b8ff" d="M58,-45.69C58,-36.97 58,-27.22 58,-20.28"/>
<polygon fill="#63b8ff" stroke="#63b8ff" points="54.5,-45.4 58,-55.4 61.5,-45.4 54.5,-45.4"/>
</a>
</g>
</g>
<!-- Node3 -->
<g id="Node000003" class="node">
<title>Node3</title>
<g id="a_Node000003"><a xlink:href="struct_rectf.html" target="_top" xlink:title=" ">
<polygon fill="white" stroke="#666666" points="40,-151 0,-151 0,-131 40,-131 40,-151"/>
<text text-anchor="middle" x="20" y="-137.5" font-family="Helvetica,sans-Serif" font-size="10.00">Rectf</text>
</a>
</g>
</g>
<!-- Node3&#45;&gt;Node2 -->
<g id="edge2_Node000002_Node000003" class="edge">
<title>Node3&#45;&gt;Node2</title>
<g id="a_edge2_Node000002_Node000003"><a xlink:title=" ">
<path fill="none" stroke="#9a32cd" stroke-dasharray="5,2" d="M16.68,-119.39C16.33,-111.37 17.15,-102.36 21,-95 24.83,-87.67 31.65,-81.84 38.41,-77.5"/>
<polygon fill="#9a32cd" stroke="#9a32cd" points="13.2,-119.73 17.77,-129.29 20.16,-118.97 13.2,-119.73"/>
</a>
</g>
<text text-anchor="start" x="24" y="-100.5" font-family="Helvetica,sans-Serif" font-size="10.00" fill="grey">m_dstRect</text>
</g>
<!-- Node4 -->
<g id="Node000004" class="node">
<title>Node4</title>
<g id="a_Node000004"><a xlink:href="class_texture.html" target="_top" xlink:title=" ">
<polygon fill="white" stroke="#666666" points="121.12,-151 72.88,-151 72.88,-131 121.12,-131 121.12,-151"/>
<text text-anchor="middle" x="97" y="-137.5" font-family="Helvetica,sans-Serif" font-size="10.00">Texture</text>
</a>
</g>
</g>
<!-- Node4&#45;&gt;Node2 -->
<g id="edge3_Node000002_Node000004" class="edge">
<title>Node4&#45;&gt;Node2</title>
<g id="a_edge3_Node000002_Node000004"><a xlink:title=" ">
<path fill="none" stroke="#9a32cd" stroke-dasharray="5,2" d="M87.96,-120.36C84.15,-112.39 79.55,-103.16 75,-95 71.66,-89 67.56,-82.48 64.23,-77.35"/>
<polygon fill="#9a32cd" stroke="#9a32cd" points="84.68,-121.6 92.09,-129.17 91.02,-118.63 84.68,-121.6"/>
</a>
</g>
<text text-anchor="start" x="86.93" y="-100.5" font-family="Helvetica,sans-Serif" font-size="10.00" fill="grey">m_Text</text>
</g>
</g>
</svg>
