<?xml version="1.0" encoding="UTF-8" standalone="no"?>
<!DOCTYPE svg PUBLIC "-//W3C//DTD SVG 1.1//EN"
 "http://www.w3.org/Graphics/SVG/1.1/DTD/svg11.dtd">
<!-- Generated by graphviz version 12.2.1 (20241206.2353)
 -->
<!-- Title: Strawberry Pages: 1 -->
<svg width="340pt" height="176pt"
 viewBox="0.00 0.00 340.44 176.00" xmlns="http://www.w3.org/2000/svg" xmlns:xlink="http://www.w3.org/1999/xlink">
<g id="graph0" class="graph" transform="scale(1 1) rotate(0) translate(4 172)">
<title>Strawberry</title>
<!-- Node1 -->
<g id="Node000001" class="node">
<title>Node1</title>
<g id="a_Node000001"><a xlink:title=" ">
<polygon fill="#999999" stroke="#666666" points="204.88,-20 141.62,-20 141.62,0 204.88,0 204.88,-20"/>
<text text-anchor="middle" x="173.25" y="-6.5" font-family="Helvetica,sans-Serif" font-size="10.00">Strawberry</text>
</a>
</g>
</g>
<!-- Node2 -->
<g id="Node000002" class="node">
<title>Node2</title>
<g id="a_Node000002"><a xlink:href="class_interactable_item.html" target="_top" xlink:title=" ">
<polygon fill="white" stroke="#666666" points="86.5,-94 0,-94 0,-74 86.5,-74 86.5,-94"/>
<text text-anchor="middle" x="43.25" y="-80.5" font-family="Helvetica,sans-Serif" font-size="10.00">InteractableItem</text>
</a>
</g>
</g>
<!-- Node2&#45;&gt;Node1 -->
<g id="edge1_Node000001_Node000002" class="edge">
<title>Node2&#45;&gt;Node1</title>
<g id="a_edge1_Node000001_Node000002"><a xlink:title=" ">
<path fill="none" stroke="#63b8ff" d="M70.16,-68.1C96.03,-53.77 134.35,-32.54 156.25,-20.42"/>
<polygon fill="#63b8ff" stroke="#63b8ff" points="68.62,-64.95 61.57,-72.85 72.01,-71.07 68.62,-64.95"/>
</a>
</g>
</g>
<!-- Node3 -->
<g id="Node000003" class="node">
<title>Node3</title>
<g id="a_Node000003"><a xlink:href="struct_rectf.html" target="_top" xlink:title=" ">
<polygon fill="white" stroke="#666666" points="63.25,-168 23.25,-168 23.25,-148 63.25,-148 63.25,-168"/>
<text text-anchor="middle" x="43.25" y="-154.5" font-family="Helvetica,sans-Serif" font-size="10.00">Rectf</text>
</a>
</g>
</g>
<!-- Node3&#45;&gt;Node2 -->
<g id="edge2_Node000002_Node000003" class="edge">
<title>Node3&#45;&gt;Node2</title>
<g id="a_edge2_Node000002_Node000003"><a xlink:title=" ">
<path fill="none" stroke="#9a32cd" stroke-dasharray="5,2" d="M43.25,-136.18C43.25,-122.29 43.25,-104.71 43.25,-94.19"/>
<polygon fill="#9a32cd" stroke="#9a32cd" points="39.75,-136.07 43.25,-146.07 46.75,-136.07 39.75,-136.07"/>
</a>
</g>
<text text-anchor="start" x="46.25" y="-117.5" font-family="Helvetica,sans-Serif" font-size="10.00" fill="grey">m_Bounds</text>
</g>
<!-- Node4 -->
<g id="Node000004" class="node">
<title>Node4</title>
<g id="a_Node000004"><a xlink:href="class_counted_item.html" target="_top" xlink:title=" ">
<polygon fill="white" stroke="#666666" points="242,-94 104.5,-94 104.5,-74 242,-74 242,-94"/>
<text text-anchor="middle" x="173.25" y="-80.5" font-family="Helvetica,sans-Serif" font-size="10.00">CountedItem&lt; Strawberry &gt;</text>
</a>
</g>
</g>
<!-- Node4&#45;&gt;Node1 -->
<g id="edge3_Node000001_Node000004" class="edge">
<title>Node4&#45;&gt;Node1</title>
<g id="a_edge3_Node000001_Node000004"><a xlink:title=" ">
<path fill="none" stroke="darkgreen" d="M173.25,-62.18C173.25,-48.29 173.25,-30.71 173.25,-20.19"/>
<polygon fill="darkgreen" stroke="darkgreen" points="169.75,-62.07 173.25,-72.07 176.75,-62.07 169.75,-62.07"/>
</a>
</g>
</g>
<!-- Node5 -->
<g id="Node000005" class="node">
<title>Node5</title>
<g id="a_Node000005"><a xlink:href="struct_vector2f.html" target="_top" xlink:title=" ">
<polygon fill="white" stroke="#666666" points="312.25,-94 260.25,-94 260.25,-74 312.25,-74 312.25,-94"/>
<text text-anchor="middle" x="286.25" y="-80.5" font-family="Helvetica,sans-Serif" font-size="10.00">Vector2f</text>
</a>
</g>
</g>
<!-- Node5&#45;&gt;Node1 -->
<g id="edge4_Node000001_Node000005" class="edge">
<title>Node5&#45;&gt;Node1</title>
<g id="a_edge4_Node000001_Node000005"><a xlink:title=" ">
<path fill="none" stroke="#9a32cd" stroke-dasharray="5,2" d="M261.96,-67.52C239.49,-53.2 206.81,-32.38 188.03,-20.42"/>
<polygon fill="#9a32cd" stroke="#9a32cd" points="259.89,-70.35 270.2,-72.77 263.65,-64.45 259.89,-70.35"/>
</a>
</g>
<text text-anchor="start" x="246.19" y="-43.5" font-family="Helvetica,sans-Serif" font-size="10.00" fill="grey">m_OriginalLocation</text>
</g>
</g>
</svg>
