<?xml version="1.0" encoding="UTF-8" standalone="no"?>
<!DOCTYPE svg PUBLIC "-//W3C//DTD SVG 1.1//EN"
 "http://www.w3.org/Graphics/SVG/1.1/DTD/svg11.dtd">
<!-- Generated by graphviz version 12.2.1 (20241206.2353)
 -->
<!-- Title: Strawberry::operator= Pages: 1 -->
<svg width="271pt" height="140pt"
 viewBox="0.00 0.00 271.00 140.00" xmlns="http://www.w3.org/2000/svg" xmlns:xlink="http://www.w3.org/1999/xlink">
<g id="graph0" class="graph" transform="scale(1 1) rotate(0) translate(4 136)">
<title>Strawberry::operator=</title>
<!-- Node1 -->
<g id="Node000001" class="node">
<title>Node1</title>
<g id="a_Node000001"><a xlink:title=" ">
<polygon fill="#999999" stroke="#666666" points="110.5,-76 0,-76 0,-56 110.5,-56 110.5,-76"/>
<text text-anchor="middle" x="55.25" y="-62.5" font-family="Helvetica,sans-Serif" font-size="10.00">Strawberry::operator=</text>
</a>
</g>
</g>
<!-- Node2 -->
<g id="Node000002" class="node">
<title>Node2</title>
<g id="a_Node000002"><a xlink:href="class_strawberry.html#a0fd0213e45339451f5cdf2e88e4054a4" target="_top" xlink:title=" ">
<polygon fill="white" stroke="#666666" points="251,-114 158.5,-114 158.5,-94 251,-94 251,-114"/>
<text text-anchor="middle" x="204.75" y="-100.5" font-family="Helvetica,sans-Serif" font-size="10.00">Strawberry::Draw</text>
</a>
</g>
</g>
<!-- Node1&#45;&gt;Node2 -->
<g id="edge1_Node000001_Node000002" class="edge">
<title>Node1&#45;&gt;Node2</title>
<g id="a_edge1_Node000001_Node000002"><a xlink:title=" ">
<path fill="none" stroke="#63b8ff" d="M96.95,-76.48C114.03,-80.89 134.11,-86.06 152.21,-90.72"/>
<polygon fill="#63b8ff" stroke="#63b8ff" points="151.16,-94.07 161.72,-93.17 152.91,-87.29 151.16,-94.07"/>
</a>
</g>
</g>
<!-- Node3 -->
<g id="Node000003" class="node">
<title>Node3</title>
<g id="a_Node000003"><a xlink:href="class_strawberry.html#afcc525a41d07703008636397800977bb" target="_top" xlink:title=" ">
<polygon fill="white" stroke="#666666" points="252.5,-76 157,-76 157,-56 252.5,-56 252.5,-76"/>
<text text-anchor="middle" x="204.75" y="-62.5" font-family="Helvetica,sans-Serif" font-size="10.00">Strawberry::Reset</text>
</a>
</g>
</g>
<!-- Node1&#45;&gt;Node3 -->
<g id="edge3_Node000001_Node000003" class="edge">
<title>Node1&#45;&gt;Node3</title>
<g id="a_edge3_Node000001_Node000003"><a xlink:title=" ">
<path fill="none" stroke="#63b8ff" d="M110.75,-66C122.08,-66 134.06,-66 145.51,-66"/>
<polygon fill="#63b8ff" stroke="#63b8ff" points="145.23,-69.5 155.23,-66 145.23,-62.5 145.23,-69.5"/>
</a>
</g>
</g>
<!-- Node4 -->
<g id="Node000004" class="node">
<title>Node4</title>
<g id="a_Node000004"><a xlink:href="class_strawberry.html#ab4dff64037a1d41eb23ef267eeda6510" target="_top" xlink:title=" ">
<polygon fill="white" stroke="#666666" points="263,-20 146.5,-20 146.5,0 263,0 263,-20"/>
<text text-anchor="middle" x="204.75" y="-6.5" font-family="Helvetica,sans-Serif" font-size="10.00">Strawberry::Strawberry</text>
</a>
</g>
</g>
<!-- Node1&#45;&gt;Node4 -->
<g id="edge4_Node000001_Node000004" class="edge">
<title>Node1&#45;&gt;Node4</title>
<g id="a_edge4_Node000001_Node000004"><a xlink:title=" ">
<path fill="none" stroke="#63b8ff" d="M83.65,-55.6C106.76,-46.82 140.08,-34.17 165.76,-24.42"/>
<polygon fill="#63b8ff" stroke="#63b8ff" points="166.73,-27.8 174.83,-20.98 164.24,-21.26 166.73,-27.8"/>
</a>
</g>
</g>
<!-- Node2&#45;&gt;Node2 -->
<g id="edge2_Node000002_Node000002" class="edge">
<title>Node2&#45;&gt;Node2</title>
<g id="a_edge2_Node000002_Node000002"><a xlink:title=" ">
<path fill="none" stroke="#63b8ff" d="M181,-114.34C170.84,-122.98 178.76,-132 204.75,-132 218.96,-132 227.77,-129.3 231.17,-125.44"/>
<polygon fill="#63b8ff" stroke="#63b8ff" points="234.6,-124.72 228.86,-115.81 227.79,-126.35 234.6,-124.72"/>
</a>
</g>
</g>
<!-- Node4&#45;&gt;Node4 -->
<g id="edge5_Node000004_Node000004" class="edge">
<title>Node4&#45;&gt;Node4</title>
<g id="a_edge5_Node000004_Node000004"><a xlink:title=" ">
<path fill="none" stroke="#63b8ff" d="M181,-20.34C170.84,-28.98 178.76,-38 204.75,-38 218.96,-38 227.77,-35.3 231.17,-31.44"/>
<polygon fill="#63b8ff" stroke="#63b8ff" points="234.6,-30.72 228.86,-21.81 227.79,-32.35 234.6,-30.72"/>
</a>
</g>
</g>
</g>
</svg>
