<?xml version="1.0" encoding="UTF-8" standalone="no"?>
<!DOCTYPE svg PUBLIC "-//W3C//DTD SVG 1.1//EN"
 "http://www.w3.org/Graphics/SVG/1.1/DTD/svg11.dtd">
<!-- Generated by graphviz version 12.2.1 (20241206.2353)
 -->
<!-- Title: SaveFileIO::GetInformation Pages: 1 -->
<svg width="294pt" height="66pt"
 viewBox="0.00 0.00 294.25 66.00" xmlns="http://www.w3.org/2000/svg" xmlns:xlink="http://www.w3.org/1999/xlink">
<g id="graph0" class="graph" transform="scale(1 1) rotate(0) translate(4 62)">
<title>SaveFileIO::GetInformation</title>
<!-- Node1 -->
<g id="Node000001" class="node">
<title>Node1</title>
<g id="a_Node000001"><a xlink:title=" ">
<polygon fill="#999999" stroke="#666666" points="286.25,-39 151,-39 151,-19 286.25,-19 286.25,-39"/>
<text text-anchor="middle" x="218.62" y="-25.5" font-family="Helvetica,sans-Serif" font-size="10.00">SaveFileIO::GetInformation</text>
</a>
</g>
</g>
<!-- Node2 -->
<g id="Node000002" class="node">
<title>Node2</title>
<g id="a_Node000002"><a xlink:href="class_level_manager.html#a63376e93bf312adc673dd93d5496ede4" target="_top" xlink:title=" ">
<polygon fill="white" stroke="#666666" points="112,-58 3,-58 3,-38 112,-38 112,-58"/>
<text text-anchor="middle" x="57.5" y="-44.5" font-family="Helvetica,sans-Serif" font-size="10.00">LevelManager::Reset</text>
</a>
</g>
</g>
<!-- Node1&#45;&gt;Node2 -->
<g id="edge1_Node000001_Node000002" class="edge">
<title>Node1&#45;&gt;Node2</title>
<g id="a_edge1_Node000001_Node000002"><a xlink:title=" ">
<path fill="none" stroke="#63b8ff" d="M139.17,-38.37C130.12,-39.45 121.04,-40.53 112.41,-41.56"/>
<polygon fill="#63b8ff" stroke="#63b8ff" points="139.59,-41.84 149.1,-37.18 138.76,-34.89 139.59,-41.84"/>
</a>
</g>
</g>
<!-- Node3 -->
<g id="Node000003" class="node">
<title>Node3</title>
<g id="a_Node000003"><a xlink:href="class_level_manager.html#ab6b8833b6e29154c3ad6b08a2e5b4aac" target="_top" xlink:title=" ">
<polygon fill="white" stroke="#666666" points="115,-20 0,-20 0,0 115,0 115,-20"/>
<text text-anchor="middle" x="57.5" y="-6.5" font-family="Helvetica,sans-Serif" font-size="10.00">LevelManager::Restart</text>
</a>
</g>
</g>
<!-- Node1&#45;&gt;Node3 -->
<g id="edge2_Node000001_Node000003" class="edge">
<title>Node1&#45;&gt;Node3</title>
<g id="a_edge2_Node000001_Node000003"><a xlink:title=" ">
<path fill="none" stroke="#63b8ff" d="M139.26,-19.64C131.2,-18.68 123.13,-17.72 115.37,-16.79"/>
<polygon fill="#63b8ff" stroke="#63b8ff" points="138.76,-23.11 149.1,-20.82 139.59,-16.16 138.76,-23.11"/>
</a>
</g>
</g>
</g>
</svg>
