<?xml version="1.0" encoding="UTF-8" standalone="no"?>
<!DOCTYPE svg PUBLIC "-//W3C//DTD SVG 1.1//EN"
 "http://www.w3.org/Graphics/SVG/1.1/DTD/svg11.dtd">
<!-- Generated by graphviz version 12.2.1 (20241206.2353)
 -->
<!-- Title: GameObject::GetPosition Pages: 1 -->
<svg width="474pt" height="110pt"
 viewBox="0.00 0.00 473.75 110.00" xmlns="http://www.w3.org/2000/svg" xmlns:xlink="http://www.w3.org/1999/xlink">
<g id="graph0" class="graph" transform="scale(1 1) rotate(0) translate(4 106)">
<title>GameObject::GetPosition</title>
<!-- Node1 -->
<g id="Node000001" class="node">
<title>Node1</title>
<g id="a_Node000001"><a xlink:title=" ">
<polygon fill="#999999" stroke="#666666" points="465.75,-58 338,-58 338,-38 465.75,-38 465.75,-58"/>
<text text-anchor="middle" x="401.88" y="-44.5" font-family="Helvetica,sans-Serif" font-size="10.00">GameObject::GetPosition</text>
</a>
</g>
</g>
<!-- Node2 -->
<g id="Node000002" class="node">
<title>Node2</title>
<g id="a_Node000002"><a xlink:href="class_strawberry.html#a2e5468a8badbbf84cd37d12c34042061" target="_top" xlink:title=" ">
<polygon fill="white" stroke="#666666" points="302,-96 159.25,-96 159.25,-76 302,-76 302,-96"/>
<text text-anchor="middle" x="230.62" y="-82.5" font-family="Helvetica,sans-Serif" font-size="10.00">Strawberry::PlayerInteraction</text>
</a>
</g>
</g>
<!-- Node1&#45;&gt;Node2 -->
<g id="edge1_Node000001_Node000002" class="edge">
<title>Node1&#45;&gt;Node2</title>
<g id="a_edge1_Node000001_Node000002"><a xlink:title=" ">
<path fill="none" stroke="#63b8ff" d="M343.04,-60.98C321.88,-65.74 298.22,-71.05 278.17,-75.55"/>
<polygon fill="#63b8ff" stroke="#63b8ff" points="343.71,-64.42 352.7,-58.82 342.18,-57.59 343.71,-64.42"/>
</a>
</g>
</g>
<!-- Node4 -->
<g id="Node000004" class="node">
<title>Node4</title>
<g id="a_Node000004"><a xlink:href="class_snow_flake_manager.html#a949dbbdbd107a06ef9926faa4201fcd6" target="_top" xlink:title=" ">
<polygon fill="white" stroke="#666666" points="300.5,-58 160.75,-58 160.75,-38 300.5,-38 300.5,-58"/>
<text text-anchor="middle" x="230.62" y="-44.5" font-family="Helvetica,sans-Serif" font-size="10.00">SnowFlakeManager::Update</text>
</a>
</g>
</g>
<!-- Node1&#45;&gt;Node4 -->
<g id="edge3_Node000001_Node000004" class="edge">
<title>Node1&#45;&gt;Node4</title>
<g id="a_edge3_Node000001_Node000004"><a xlink:title=" ">
<path fill="none" stroke="#63b8ff" d="M326.42,-48C317.96,-48 309.35,-48 300.95,-48"/>
<polygon fill="#63b8ff" stroke="#63b8ff" points="326.34,-51.5 336.34,-48 326.34,-44.5 326.34,-51.5"/>
</a>
</g>
</g>
<!-- Node5 -->
<g id="Node000005" class="node">
<title>Node5</title>
<g id="a_Node000005"><a xlink:href="class_game_object.html#aaea6b7e6220bbcb81311a24b07abddae" target="_top" xlink:title=" ">
<polygon fill="white" stroke="#666666" points="299.38,-20 161.88,-20 161.88,0 299.38,0 299.38,-20"/>
<text text-anchor="middle" x="230.62" y="-6.5" font-family="Helvetica,sans-Serif" font-size="10.00">GameObject::~GameObject</text>
</a>
</g>
</g>
<!-- Node1&#45;&gt;Node5 -->
<g id="edge4_Node000001_Node000005" class="edge">
<title>Node1&#45;&gt;Node5</title>
<g id="a_edge4_Node000001_Node000005"><a xlink:title=" ">
<path fill="none" stroke="#63b8ff" d="M343.04,-35.02C321.88,-30.26 298.22,-24.95 278.17,-20.45"/>
<polygon fill="#63b8ff" stroke="#63b8ff" points="342.18,-38.41 352.7,-37.18 343.71,-31.58 342.18,-38.41"/>
</a>
</g>
</g>
<!-- Node3 -->
<g id="Node000003" class="node">
<title>Node3</title>
<g id="a_Node000003"><a xlink:href="class_flying_strawberry.html#ada0a996bd7bd79f240b85762a24fd2ed" target="_top" xlink:title=" ">
<polygon fill="white" stroke="#666666" points="123.25,-102 0,-102 0,-70 123.25,-70 123.25,-102"/>
<text text-anchor="start" x="8" y="-88.5" font-family="Helvetica,sans-Serif" font-size="10.00">FlyingStrawberry::Player</text>
<text text-anchor="middle" x="61.62" y="-76.5" font-family="Helvetica,sans-Serif" font-size="10.00">Interaction</text>
</a>
</g>
</g>
<!-- Node2&#45;&gt;Node3 -->
<g id="edge2_Node000002_Node000003" class="edge">
<title>Node2&#45;&gt;Node3</title>
<g id="a_edge2_Node000002_Node000003"><a xlink:title=" ">
<path fill="none" stroke="#63b8ff" d="M147.45,-86C139.39,-86 131.32,-86 123.53,-86"/>
<polygon fill="#63b8ff" stroke="#63b8ff" points="147.29,-89.5 157.29,-86 147.29,-82.5 147.29,-89.5"/>
</a>
</g>
</g>
</g>
</svg>
