<?xml version="1.0" encoding="UTF-8" standalone="no"?>
<!DOCTYPE svg PUBLIC "-//W3C//DTD SVG 1.1//EN"
 "http://www.w3.org/Graphics/SVG/1.1/DTD/svg11.dtd">
<!-- Generated by graphviz version 12.2.1 (20241206.2353)
 -->
<!-- Title: BaseGame::Run Pages: 1 -->
<svg width="298pt" height="304pt"
 viewBox="0.00 0.00 298.00 304.00" xmlns="http://www.w3.org/2000/svg" xmlns:xlink="http://www.w3.org/1999/xlink">
<g id="graph0" class="graph" transform="scale(1 1) rotate(0) translate(4 300)">
<title>BaseGame::Run</title>
<!-- Node1 -->
<g id="Node000001" class="node">
<title>Node1</title>
<g id="a_Node000001"><a xlink:title=" ">
<polygon fill="#999999" stroke="#666666" points="88.75,-164 0,-164 0,-144 88.75,-144 88.75,-164"/>
<text text-anchor="middle" x="44.38" y="-150.5" font-family="Helvetica,sans-Serif" font-size="10.00">BaseGame::Run</text>
</a>
</g>
</g>
<!-- Node2 -->
<g id="Node000002" class="node">
<title>Node2</title>
<g id="a_Node000002"><a xlink:href="class_base_game.html#ab299454e35b27e3472b032a6bac61fbb" target="_top" xlink:title=" ">
<polygon fill="white" stroke="#666666" points="254.38,-296 160.38,-296 160.38,-276 254.38,-276 254.38,-296"/>
<text text-anchor="middle" x="207.38" y="-282.5" font-family="Helvetica,sans-Serif" font-size="10.00">BaseGame::Draw</text>
</a>
</g>
</g>
<!-- Node1&#45;&gt;Node2 -->
<g id="edge1_Node000001_Node000002" class="edge">
<title>Node1&#45;&gt;Node2</title>
<g id="a_edge1_Node000001_Node000002"><a xlink:title=" ">
<path fill="none" stroke="#63b8ff" d="M49.55,-164.34C59.18,-186.84 85.2,-240.32 124.75,-267 132.04,-271.92 140.45,-275.58 149.03,-278.29"/>
<polygon fill="#63b8ff" stroke="#63b8ff" points="147.89,-281.61 158.46,-280.85 149.72,-274.86 147.89,-281.61"/>
</a>
</g>
</g>
<!-- Node3 -->
<g id="Node000003" class="node">
<title>Node3</title>
<g id="a_Node000003"><a xlink:href="class_base_game.html#a05d771925703ab5c7a725ee77cb2cc27" target="_top" xlink:title=" ">
<polygon fill="white" stroke="#666666" points="282.12,-258 132.62,-258 132.62,-226 282.12,-226 282.12,-258"/>
<text text-anchor="start" x="140.62" y="-244.5" font-family="Helvetica,sans-Serif" font-size="10.00">BaseGame::ProcessKeyDown</text>
<text text-anchor="middle" x="207.38" y="-232.5" font-family="Helvetica,sans-Serif" font-size="10.00">Event</text>
</a>
</g>
</g>
<!-- Node1&#45;&gt;Node3 -->
<g id="edge2_Node000001_Node000003" class="edge">
<title>Node1&#45;&gt;Node3</title>
<g id="a_edge2_Node000001_Node000003"><a xlink:title=" ">
<path fill="none" stroke="#63b8ff" d="M55.76,-164.39C70.1,-178.22 97.34,-202.59 124.75,-217 127.58,-218.49 130.51,-219.9 133.51,-221.24"/>
<polygon fill="#63b8ff" stroke="#63b8ff" points="131.91,-224.37 142.49,-224.96 134.59,-217.9 131.91,-224.37"/>
</a>
</g>
</g>
<!-- Node4 -->
<g id="Node000004" class="node">
<title>Node4</title>
<g id="a_Node000004"><a xlink:href="class_base_game.html#a3965ace2f42349f8ae451aed552c8d7c" target="_top" xlink:title=" ">
<polygon fill="white" stroke="#666666" points="288.5,-208 126.25,-208 126.25,-188 288.5,-188 288.5,-208"/>
<text text-anchor="middle" x="207.38" y="-194.5" font-family="Helvetica,sans-Serif" font-size="10.00">BaseGame::ProcessKeyUpEvent</text>
</a>
</g>
</g>
<!-- Node1&#45;&gt;Node4 -->
<g id="edge3_Node000001_Node000004" class="edge">
<title>Node1&#45;&gt;Node4</title>
<g id="a_edge3_Node000001_Node000004"><a xlink:title=" ">
<path fill="none" stroke="#63b8ff" d="M76.5,-164.41C91.08,-169.13 108.72,-174.62 124.75,-179 132.11,-181.01 139.87,-183 147.57,-184.88"/>
<polygon fill="#63b8ff" stroke="#63b8ff" points="146.73,-188.28 157.27,-187.21 148.36,-181.47 146.73,-188.28"/>
</a>
</g>
</g>
<!-- Node5 -->
<g id="Node000005" class="node">
<title>Node5</title>
<g id="a_Node000005"><a xlink:href="class_base_game.html#a80fb29e3dda10ec474d386e68529c865" target="_top" xlink:title=" ">
<polygon fill="white" stroke="#666666" points="288.12,-170 126.62,-170 126.62,-138 288.12,-138 288.12,-170"/>
<text text-anchor="start" x="134.62" y="-156.5" font-family="Helvetica,sans-Serif" font-size="10.00">BaseGame::ProcessMouseDown</text>
<text text-anchor="middle" x="207.38" y="-144.5" font-family="Helvetica,sans-Serif" font-size="10.00">Event</text>
</a>
</g>
</g>
<!-- Node1&#45;&gt;Node5 -->
<g id="edge4_Node000001_Node000005" class="edge">
<title>Node1&#45;&gt;Node5</title>
<g id="a_edge4_Node000001_Node000005"><a xlink:title=" ">
<path fill="none" stroke="#63b8ff" d="M88.94,-154C97.06,-154 105.82,-154 114.77,-154"/>
<polygon fill="#63b8ff" stroke="#63b8ff" points="114.65,-157.5 124.65,-154 114.65,-150.5 114.65,-157.5"/>
</a>
</g>
</g>
<!-- Node6 -->
<g id="Node000006" class="node">
<title>Node6</title>
<g id="a_Node000006"><a xlink:href="class_base_game.html#a2fa82b132b67d0a99949b4aafa3d1c80" target="_top" xlink:title=" ">
<polygon fill="white" stroke="#666666" points="290,-120 124.75,-120 124.75,-88 290,-88 290,-120"/>
<text text-anchor="start" x="132.75" y="-106.5" font-family="Helvetica,sans-Serif" font-size="10.00">BaseGame::ProcessMouseMotion</text>
<text text-anchor="middle" x="207.38" y="-94.5" font-family="Helvetica,sans-Serif" font-size="10.00">Event</text>
</a>
</g>
</g>
<!-- Node1&#45;&gt;Node6 -->
<g id="edge5_Node000001_Node000006" class="edge">
<title>Node1&#45;&gt;Node6</title>
<g id="a_edge5_Node000001_Node000006"><a xlink:title=" ">
<path fill="none" stroke="#63b8ff" d="M78.18,-143.6C92.48,-139.09 109.43,-133.76 124.75,-129 130.18,-127.31 135.82,-125.57 141.48,-123.82"/>
<polygon fill="#63b8ff" stroke="#63b8ff" points="142.38,-127.21 150.9,-120.93 140.32,-120.52 142.38,-127.21"/>
</a>
</g>
</g>
<!-- Node7 -->
<g id="Node000007" class="node">
<title>Node7</title>
<g id="a_Node000007"><a xlink:href="class_base_game.html#a9de1f092b8ed30f30e774bec464e90e5" target="_top" xlink:title=" ">
<polygon fill="white" stroke="#666666" points="281.75,-70 133,-70 133,-38 281.75,-38 281.75,-70"/>
<text text-anchor="start" x="141" y="-56.5" font-family="Helvetica,sans-Serif" font-size="10.00">BaseGame::ProcessMouseUp</text>
<text text-anchor="middle" x="207.38" y="-44.5" font-family="Helvetica,sans-Serif" font-size="10.00">Event</text>
</a>
</g>
</g>
<!-- Node1&#45;&gt;Node7 -->
<g id="edge6_Node000001_Node000007" class="edge">
<title>Node1&#45;&gt;Node7</title>
<g id="a_edge6_Node000001_Node000007"><a xlink:title=" ">
<path fill="none" stroke="#63b8ff" d="M53.52,-143.7C66.79,-127.62 94.6,-96.55 124.75,-79 127.07,-77.65 129.48,-76.36 131.94,-75.14"/>
<polygon fill="#63b8ff" stroke="#63b8ff" points="133.26,-78.38 140.94,-71.08 130.39,-72 133.26,-78.38"/>
</a>
</g>
</g>
<!-- Node8 -->
<g id="Node000008" class="node">
<title>Node8</title>
<g id="a_Node000008"><a xlink:href="class_base_game.html#a05e785e32705834ffc85afeb0f7fd263" target="_top" xlink:title=" ">
<polygon fill="white" stroke="#666666" points="258.5,-20 156.25,-20 156.25,0 258.5,0 258.5,-20"/>
<text text-anchor="middle" x="207.38" y="-6.5" font-family="Helvetica,sans-Serif" font-size="10.00">BaseGame::Update</text>
</a>
</g>
</g>
<!-- Node1&#45;&gt;Node8 -->
<g id="edge7_Node000001_Node000008" class="edge">
<title>Node1&#45;&gt;Node8</title>
<g id="a_edge7_Node000001_Node000008"><a xlink:title=" ">
<path fill="none" stroke="#63b8ff" d="M48.83,-143.67C57.46,-119.5 82.39,-59.04 124.75,-29 130.82,-24.7 137.72,-21.35 144.88,-18.76"/>
<polygon fill="#63b8ff" stroke="#63b8ff" points="145.89,-22.11 154.42,-15.82 143.83,-15.42 145.89,-22.11"/>
</a>
</g>
</g>
</g>
</svg>
