<?xml version="1.0" encoding="UTF-8" standalone="no"?>
<!DOCTYPE svg PUBLIC "-//W3C//DTD SVG 1.1//EN"
 "http://www.w3.org/Graphics/SVG/1.1/DTD/svg11.dtd">
<!-- Generated by graphviz version 12.2.1 (20241206.2353)
 -->
<!-- Title: SnowFlakeManager Pages: 1 -->
<svg width="144pt" height="249pt"
 viewBox="0.00 0.00 143.88 249.00" xmlns="http://www.w3.org/2000/svg" xmlns:xlink="http://www.w3.org/1999/xlink">
<g id="graph0" class="graph" transform="scale(1 1) rotate(0) translate(4 245)">
<title>SnowFlakeManager</title>
<!-- Node1 -->
<g id="Node000001" class="node">
<title>Node1</title>
<g id="a_Node000001"><a xlink:title=" ">
<polygon fill="#999999" stroke="#666666" points="102.25,-20 0,-20 0,0 102.25,0 102.25,-20"/>
<text text-anchor="middle" x="51.12" y="-6.5" font-family="Helvetica,sans-Serif" font-size="10.00">SnowFlakeManager</text>
</a>
</g>
</g>
<!-- Node2 -->
<g id="Node000002" class="node">
<title>Node2</title>
<g id="a_Node000002"><a xlink:href="class_game_object.html" target="_top" xlink:title=" ">
<polygon fill="white" stroke="#666666" points="86.5,-77 15.75,-77 15.75,-57 86.5,-57 86.5,-77"/>
<text text-anchor="middle" x="51.12" y="-63.5" font-family="Helvetica,sans-Serif" font-size="10.00">GameObject</text>
</a>
</g>
</g>
<!-- Node2&#45;&gt;Node1 -->
<g id="edge1_Node000001_Node000002" class="edge">
<title>Node2&#45;&gt;Node1</title>
<g id="a_edge1_Node000001_Node000002"><a xlink:title=" ">
<path fill="none" stroke="#63b8ff" d="M51.12,-45.69C51.12,-36.97 51.12,-27.22 51.12,-20.28"/>
<polygon fill="#63b8ff" stroke="#63b8ff" points="47.63,-45.4 51.13,-55.4 54.63,-45.4 47.63,-45.4"/>
</a>
</g>
</g>
<!-- Node3 -->
<g id="Node000003" class="node">
<title>Node3</title>
<g id="a_Node000003"><a xlink:href="struct_transform.html" target="_top" xlink:title=" ">
<polygon fill="white" stroke="#666666" points="81.25,-151 21,-151 21,-131 81.25,-131 81.25,-151"/>
<text text-anchor="middle" x="51.12" y="-137.5" font-family="Helvetica,sans-Serif" font-size="10.00">Transform</text>
</a>
</g>
</g>
<!-- Node3&#45;&gt;Node2 -->
<g id="edge2_Node000002_Node000003" class="edge">
<title>Node3&#45;&gt;Node2</title>
<g id="a_edge2_Node000002_Node000003"><a xlink:title=" ">
<path fill="none" stroke="#9a32cd" stroke-dasharray="5,2" d="M51.12,-119.18C51.12,-105.29 51.12,-87.71 51.12,-77.19"/>
<polygon fill="#9a32cd" stroke="#9a32cd" points="47.63,-119.07 51.13,-129.07 54.63,-119.07 47.63,-119.07"/>
</a>
</g>
<text text-anchor="start" x="54.12" y="-100.5" font-family="Helvetica,sans-Serif" font-size="10.00" fill="grey">m_Transformation</text>
</g>
<!-- Node4 -->
<g id="Node000004" class="node">
<title>Node4</title>
<g id="a_Node000004"><a xlink:href="struct_vector2f.html" target="_top" xlink:title=" ">
<polygon fill="white" stroke="#666666" points="77.12,-241 25.12,-241 25.12,-221 77.12,-221 77.12,-241"/>
<text text-anchor="middle" x="51.12" y="-227.5" font-family="Helvetica,sans-Serif" font-size="10.00">Vector2f</text>
</a>
</g>
</g>
<!-- Node4&#45;&gt;Node3 -->
<g id="edge3_Node000003_Node000004" class="edge">
<title>Node4&#45;&gt;Node3</title>
<g id="a_edge3_Node000003_Node000004"><a xlink:title=" ">
<path fill="none" stroke="#9a32cd" stroke-dasharray="5,2" d="M51.12,-209.09C51.12,-190.77 51.12,-165.01 51.12,-151.35"/>
<polygon fill="#9a32cd" stroke="#9a32cd" points="47.63,-209.07 51.13,-219.07 54.63,-209.07 47.63,-209.07"/>
</a>
</g>
<text text-anchor="start" x="54.12" y="-190.5" font-family="Helvetica,sans-Serif" font-size="10.00" fill="grey">Position</text>
<text text-anchor="start" x="54.12" y="-174.5" font-family="Helvetica,sans-Serif" font-size="10.00" fill="grey">Scale</text>
</g>
</g>
</svg>
