<?xml version="1.0" encoding="UTF-8" standalone="no"?>
<!DOCTYPE svg PUBLIC "-//W3C//DTD SVG 1.1//EN"
 "http://www.w3.org/Graphics/SVG/1.1/DTD/svg11.dtd">
<!-- Generated by graphviz version 12.2.1 (20241206.2353)
 -->
<!-- Title: FlyingStrawberry::FlyingStrawberry Pages: 1 -->
<svg width="286pt" height="84pt"
 viewBox="0.00 0.00 286.00 84.00" xmlns="http://www.w3.org/2000/svg" xmlns:xlink="http://www.w3.org/1999/xlink">
<g id="graph0" class="graph" transform="scale(1 1) rotate(0) translate(4 80)">
<title>FlyingStrawberry::FlyingStrawberry</title>
<!-- Node1 -->
<g id="Node000001" class="node">
<title>Node1</title>
<g id="a_Node000001"><a xlink:title=" ">
<polygon fill="#999999" stroke="#666666" points="121.75,-54 0,-54 0,-22 121.75,-22 121.75,-54"/>
<text text-anchor="start" x="8" y="-40.5" font-family="Helvetica,sans-Serif" font-size="10.00">FlyingStrawberry::Flying</text>
<text text-anchor="middle" x="60.88" y="-28.5" font-family="Helvetica,sans-Serif" font-size="10.00">Strawberry</text>
</a>
</g>
</g>
<!-- Node2 -->
<g id="Node000002" class="node">
<title>Node2</title>
<g id="a_Node000002"><a xlink:href="class_counted_item.html#a7a4f3ec5e121b459d51a818c9ed0e269" target="_top" xlink:title=" ">
<polygon fill="white" stroke="#666666" points="278,-76 157.75,-76 157.75,-56 278,-56 278,-76"/>
<text text-anchor="middle" x="217.88" y="-62.5" font-family="Helvetica,sans-Serif" font-size="10.00">CountedItem::GetCount</text>
</a>
</g>
</g>
<!-- Node1&#45;&gt;Node2 -->
<g id="edge1_Node000001_Node000002" class="edge">
<title>Node1&#45;&gt;Node2</title>
<g id="a_edge1_Node000001_Node000002"><a xlink:title=" ">
<path fill="none" stroke="#63b8ff" d="M122.25,-48.91C130.64,-50.42 139.31,-51.99 147.85,-53.53"/>
<polygon fill="#63b8ff" stroke="#63b8ff" points="147,-56.93 157.47,-55.27 148.25,-50.05 147,-56.93"/>
</a>
</g>
</g>
<!-- Node3 -->
<g id="Node000003" class="node">
<title>Node3</title>
<g id="a_Node000003"><a xlink:href="class_strawberry.html#ab4dff64037a1d41eb23ef267eeda6510" target="_top" xlink:title=" ">
<polygon fill="white" stroke="#666666" points="276.12,-20 159.62,-20 159.62,0 276.12,0 276.12,-20"/>
<text text-anchor="middle" x="217.88" y="-6.5" font-family="Helvetica,sans-Serif" font-size="10.00">Strawberry::Strawberry</text>
</a>
</g>
</g>
<!-- Node1&#45;&gt;Node3 -->
<g id="edge2_Node000001_Node000003" class="edge">
<title>Node1&#45;&gt;Node3</title>
<g id="a_edge2_Node000001_Node000003"><a xlink:title=" ">
<path fill="none" stroke="#63b8ff" d="M122.25,-27.09C130.7,-25.57 139.44,-23.99 148.03,-22.44"/>
<polygon fill="#63b8ff" stroke="#63b8ff" points="148.5,-25.91 157.72,-20.69 147.26,-19.02 148.5,-25.91"/>
</a>
</g>
</g>
<!-- Node3&#45;&gt;Node3 -->
<g id="edge3_Node000003_Node000003" class="edge">
<title>Node3&#45;&gt;Node3</title>
<g id="a_edge3_Node000003_Node000003"><a xlink:title=" ">
<path fill="none" stroke="#63b8ff" d="M192.93,-20.34C182.27,-28.98 190.58,-38 217.88,-38 232.8,-38 242.05,-35.3 245.62,-31.44"/>
<polygon fill="#63b8ff" stroke="#63b8ff" points="249.03,-30.65 243.19,-21.81 242.25,-32.36 249.03,-30.65"/>
</a>
</g>
</g>
</g>
</svg>
