<?xml version="1.0" encoding="UTF-8" standalone="no"?>
<!DOCTYPE svg PUBLIC "-//W3C//DTD SVG 1.1//EN"
 "http://www.w3.org/Graphics/SVG/1.1/DTD/svg11.dtd">
<!-- Generated by graphviz version 12.2.1 (20241206.2353)
 -->
<!-- Title: CountedItem::CountedItem Pages: 1 -->
<svg width="313pt" height="142pt"
 viewBox="0.00 0.00 313.00 142.00" xmlns="http://www.w3.org/2000/svg" xmlns:xlink="http://www.w3.org/1999/xlink">
<g id="graph0" class="graph" transform="scale(1 1) rotate(0) translate(4 138)">
<title>CountedItem::CountedItem</title>
<!-- Node1 -->
<g id="Node000001" class="node">
<title>Node1</title>
<g id="a_Node000001"><a xlink:title=" ">
<polygon fill="#999999" stroke="#666666" points="305,-77 170.5,-77 170.5,-57 305,-57 305,-77"/>
<text text-anchor="middle" x="237.75" y="-63.5" font-family="Helvetica,sans-Serif" font-size="10.00">CountedItem::CountedItem</text>
</a>
</g>
</g>
<!-- Node2 -->
<g id="Node000002" class="node">
<title>Node2</title>
<g id="a_Node000002"><a xlink:href="class_counted_item.html#a1ca64d423104327ee1dc415f0c993a8b" target="_top" xlink:title=" ">
<polygon fill="white" stroke="#666666" points="134.5,-134 0,-134 0,-114 134.5,-114 134.5,-134"/>
<text text-anchor="middle" x="67.25" y="-120.5" font-family="Helvetica,sans-Serif" font-size="10.00">CountedItem::CountedItem</text>
</a>
</g>
</g>
<!-- Node1&#45;&gt;Node2 -->
<g id="edge1_Node000001_Node000002" class="edge">
<title>Node1&#45;&gt;Node2</title>
<g id="a_edge1_Node000001_Node000002"><a xlink:title=" ">
<path fill="none" stroke="#63b8ff" d="M199.97,-81.45C180.61,-88.85 156.41,-97.8 134.5,-105 125.52,-107.95 115.77,-110.89 106.59,-113.54"/>
<polygon fill="#63b8ff" stroke="#63b8ff" points="200.98,-84.81 209.05,-77.95 198.46,-78.28 200.98,-84.81"/>
</a>
</g>
</g>
<!-- Node3 -->
<g id="Node000003" class="node">
<title>Node3</title>
<g id="a_Node000003"><a xlink:href="class_counted_item.html#a2f0158d7499f2b0779dfc6a8105747f3" target="_top" xlink:title=" ">
<polygon fill="white" stroke="#666666" points="134.5,-96 0,-96 0,-76 134.5,-76 134.5,-96"/>
<text text-anchor="middle" x="67.25" y="-82.5" font-family="Helvetica,sans-Serif" font-size="10.00">CountedItem::CountedItem</text>
</a>
</g>
</g>
<!-- Node1&#45;&gt;Node3 -->
<g id="edge2_Node000001_Node000003" class="edge">
<title>Node1&#45;&gt;Node3</title>
<g id="a_edge2_Node000001_Node000003"><a xlink:title=" ">
<path fill="none" stroke="#63b8ff" d="M158.9,-75.78C150.89,-76.68 142.79,-77.59 134.91,-78.48"/>
<polygon fill="#63b8ff" stroke="#63b8ff" points="159.11,-79.28 168.65,-74.68 158.32,-72.32 159.11,-79.28"/>
</a>
</g>
</g>
<!-- Node4 -->
<g id="Node000004" class="node">
<title>Node4</title>
<g id="a_Node000004"><a xlink:href="class_counted_item.html#aa782288d34bfef1fbb3e7660f203aac5" target="_top" xlink:title=" ">
<polygon fill="white" stroke="#666666" points="127,-58 7.5,-58 7.5,-38 127,-38 127,-58"/>
<text text-anchor="middle" x="67.25" y="-44.5" font-family="Helvetica,sans-Serif" font-size="10.00">CountedItem::operator=</text>
</a>
</g>
</g>
<!-- Node1&#45;&gt;Node4 -->
<g id="edge3_Node000001_Node000004" class="edge">
<title>Node1&#45;&gt;Node4</title>
<g id="a_edge3_Node000001_Node000004"><a xlink:title=" ">
<path fill="none" stroke="#63b8ff" d="M158.75,-58.2C148.16,-57.01 137.44,-55.8 127.26,-54.65"/>
<polygon fill="#63b8ff" stroke="#63b8ff" points="158.32,-61.68 168.65,-59.32 159.11,-54.72 158.32,-61.68"/>
</a>
</g>
</g>
<!-- Node5 -->
<g id="Node000005" class="node">
<title>Node5</title>
<g id="a_Node000005"><a xlink:href="class_counted_item.html#ab4702946d4d6418d896a5411adf3427c" target="_top" xlink:title=" ">
<polygon fill="white" stroke="#666666" points="127,-20 7.5,-20 7.5,0 127,0 127,-20"/>
<text text-anchor="middle" x="67.25" y="-6.5" font-family="Helvetica,sans-Serif" font-size="10.00">CountedItem::operator=</text>
</a>
</g>
</g>
<!-- Node1&#45;&gt;Node5 -->
<g id="edge4_Node000001_Node000005" class="edge">
<title>Node1&#45;&gt;Node5</title>
<g id="a_edge4_Node000001_Node000005"><a xlink:title=" ">
<path fill="none" stroke="#63b8ff" d="M199.97,-52.55C180.61,-45.15 156.41,-36.2 134.5,-29 125.52,-26.05 115.77,-23.11 106.59,-20.46"/>
<polygon fill="#63b8ff" stroke="#63b8ff" points="198.46,-55.72 209.05,-56.05 200.98,-49.19 198.46,-55.72"/>
</a>
</g>
</g>
</g>
</svg>
