<?xml version="1.0" encoding="UTF-8" standalone="no"?>
<!DOCTYPE svg PUBLIC "-//W3C//DTD SVG 1.1//EN"
 "http://www.w3.org/Graphics/SVG/1.1/DTD/svg11.dtd">
<!-- Generated by graphviz version 12.2.1 (20241206.2353)
 -->
<!-- Title: SliderMenuItem::DrawSlider Pages: 1 -->
<svg width="306pt" height="104pt"
 viewBox="0.00 0.00 305.50 104.00" xmlns="http://www.w3.org/2000/svg" xmlns:xlink="http://www.w3.org/1999/xlink">
<g id="graph0" class="graph" transform="scale(1 1) rotate(0) translate(4 100)">
<title>SliderMenuItem::DrawSlider</title>
<!-- Node1 -->
<g id="Node000001" class="node">
<title>Node1</title>
<g id="a_Node000001"><a xlink:title=" ">
<polygon fill="#999999" stroke="#666666" points="138.25,-58 0,-58 0,-38 138.25,-38 138.25,-58"/>
<text text-anchor="middle" x="69.12" y="-44.5" font-family="Helvetica,sans-Serif" font-size="10.00">SliderMenuItem::DrawSlider</text>
</a>
</g>
</g>
<!-- Node2 -->
<g id="Node000002" class="node">
<title>Node2</title>
<g id="a_Node000002"><a xlink:href="namespaceutils.html#a4580e5c28f2812f929cdbd60059b2635" target="_top" xlink:title=" ">
<polygon fill="white" stroke="#666666" points="297.5,-96 174.25,-96 174.25,-76 297.5,-76 297.5,-96"/>
<text text-anchor="middle" x="235.88" y="-82.5" font-family="Helvetica,sans-Serif" font-size="10.00">utils::DrawRoundedRect</text>
</a>
</g>
</g>
<!-- Node1&#45;&gt;Node2 -->
<g id="edge1_Node000001_Node000002" class="edge">
<title>Node1&#45;&gt;Node2</title>
<g id="a_edge1_Node000001_Node000002"><a xlink:title=" ">
<path fill="none" stroke="#63b8ff" d="M115.58,-58.48C135.03,-62.97 157.94,-68.25 178.45,-72.99"/>
<polygon fill="#63b8ff" stroke="#63b8ff" points="177.56,-76.37 188.09,-75.21 179.14,-69.55 177.56,-76.37"/>
</a>
</g>
</g>
<!-- Node3 -->
<g id="Node000003" class="node">
<title>Node3</title>
<g id="a_Node000003"><a xlink:href="namespaceutils.html#aa8fda4c292a496aeb53a87e7b6dc32f1" target="_top" xlink:title=" ">
<polygon fill="white" stroke="#666666" points="276.88,-58 194.88,-58 194.88,-38 276.88,-38 276.88,-58"/>
<text text-anchor="middle" x="235.88" y="-44.5" font-family="Helvetica,sans-Serif" font-size="10.00">utils::FillEllipse</text>
</a>
</g>
</g>
<!-- Node1&#45;&gt;Node3 -->
<g id="edge2_Node000001_Node000003" class="edge">
<title>Node1&#45;&gt;Node3</title>
<g id="a_edge2_Node000001_Node000003"><a xlink:title=" ">
<path fill="none" stroke="#63b8ff" d="M138.56,-48C153.48,-48 169.03,-48 183.17,-48"/>
<polygon fill="#63b8ff" stroke="#63b8ff" points="183.16,-51.5 193.16,-48 183.16,-44.5 183.16,-51.5"/>
</a>
</g>
</g>
<!-- Node4 -->
<g id="Node000004" class="node">
<title>Node4</title>
<g id="a_Node000004"><a xlink:href="namespaceutils.html#abc8380a69410c7b193d9d36474ae211f" target="_top" xlink:title=" ">
<polygon fill="white" stroke="#666666" points="275,-20 196.75,-20 196.75,0 275,0 275,-20"/>
<text text-anchor="middle" x="235.88" y="-6.5" font-family="Helvetica,sans-Serif" font-size="10.00">utils::SetColor</text>
</a>
</g>
</g>
<!-- Node1&#45;&gt;Node4 -->
<g id="edge3_Node000001_Node000004" class="edge">
<title>Node1&#45;&gt;Node4</title>
<g id="a_edge3_Node000001_Node000004"><a xlink:title=" ">
<path fill="none" stroke="#63b8ff" d="M115.58,-37.52C137.15,-32.54 162.99,-26.58 185.09,-21.48"/>
<polygon fill="#63b8ff" stroke="#63b8ff" points="185.83,-24.9 194.79,-19.25 184.26,-18.08 185.83,-24.9"/>
</a>
</g>
</g>
</g>
</svg>
