<?xml version="1.0" encoding="UTF-8" standalone="no"?>
<!DOCTYPE svg PUBLIC "-//W3C//DTD SVG 1.1//EN"
 "http://www.w3.org/Graphics/SVG/1.1/DTD/svg11.dtd">
<!-- Generated by graphviz version 12.2.1 (20241206.2353)
 -->
<!-- Title: GameObject Pages: 1 -->
<svg width="128pt" height="192pt"
 viewBox="0.00 0.00 128.12 192.00" xmlns="http://www.w3.org/2000/svg" xmlns:xlink="http://www.w3.org/1999/xlink">
<g id="graph0" class="graph" transform="scale(1 1) rotate(0) translate(4 188)">
<title>GameObject</title>
<!-- Node1 -->
<g id="Node000001" class="node">
<title>Node1</title>
<g id="a_Node000001"><a xlink:title=" ">
<polygon fill="#999999" stroke="#666666" points="70.75,-20 0,-20 0,0 70.75,0 70.75,-20"/>
<text text-anchor="middle" x="35.38" y="-6.5" font-family="Helvetica,sans-Serif" font-size="10.00">GameObject</text>
</a>
</g>
</g>
<!-- Node2 -->
<g id="Node000002" class="node">
<title>Node2</title>
<g id="a_Node000002"><a xlink:href="struct_transform.html" target="_top" xlink:title=" ">
<polygon fill="white" stroke="#666666" points="65.5,-94 5.25,-94 5.25,-74 65.5,-74 65.5,-94"/>
<text text-anchor="middle" x="35.38" y="-80.5" font-family="Helvetica,sans-Serif" font-size="10.00">Transform</text>
</a>
</g>
</g>
<!-- Node2&#45;&gt;Node1 -->
<g id="edge1_Node000001_Node000002" class="edge">
<title>Node2&#45;&gt;Node1</title>
<g id="a_edge1_Node000001_Node000002"><a xlink:title=" ">
<path fill="none" stroke="#9a32cd" stroke-dasharray="5,2" d="M35.38,-62.18C35.38,-48.29 35.38,-30.71 35.38,-20.19"/>
<polygon fill="#9a32cd" stroke="#9a32cd" points="31.88,-62.07 35.38,-72.07 38.88,-62.07 31.88,-62.07"/>
</a>
</g>
<text text-anchor="start" x="38.38" y="-43.5" font-family="Helvetica,sans-Serif" font-size="10.00" fill="grey">m_Transformation</text>
</g>
<!-- Node3 -->
<g id="Node000003" class="node">
<title>Node3</title>
<g id="a_Node000003"><a xlink:href="struct_vector2f.html" target="_top" xlink:title=" ">
<polygon fill="white" stroke="#666666" points="61.38,-184 9.38,-184 9.38,-164 61.38,-164 61.38,-184"/>
<text text-anchor="middle" x="35.38" y="-170.5" font-family="Helvetica,sans-Serif" font-size="10.00">Vector2f</text>
</a>
</g>
</g>
<!-- Node3&#45;&gt;Node2 -->
<g id="edge2_Node000002_Node000003" class="edge">
<title>Node3&#45;&gt;Node2</title>
<g id="a_edge2_Node000002_Node000003"><a xlink:title=" ">
<path fill="none" stroke="#9a32cd" stroke-dasharray="5,2" d="M35.38,-152.09C35.38,-133.77 35.38,-108.01 35.38,-94.35"/>
<polygon fill="#9a32cd" stroke="#9a32cd" points="31.88,-152.07 35.38,-162.07 38.88,-152.07 31.88,-152.07"/>
</a>
</g>
<text text-anchor="start" x="38.38" y="-133.5" font-family="Helvetica,sans-Serif" font-size="10.00" fill="grey">Position</text>
<text text-anchor="start" x="38.38" y="-117.5" font-family="Helvetica,sans-Serif" font-size="10.00" fill="grey">Scale</text>
</g>
</g>
</svg>
