<?xml version="1.0" encoding="UTF-8" standalone="no"?>
<!DOCTYPE svg PUBLIC "-//W3C//DTD SVG 1.1//EN"
 "http://www.w3.org/Graphics/SVG/1.1/DTD/svg11.dtd">
<!-- Generated by graphviz version 12.2.1 (20241206.2353)
 -->
<!-- Title: SoundEffect::SoundEffect Pages: 1 -->
<svg width="301pt" height="180pt"
 viewBox="0.00 0.00 301.00 180.00" xmlns="http://www.w3.org/2000/svg" xmlns:xlink="http://www.w3.org/1999/xlink">
<g id="graph0" class="graph" transform="scale(1 1) rotate(0) translate(4 176)">
<title>SoundEffect::SoundEffect</title>
<!-- Node1 -->
<g id="Node000001" class="node">
<title>Node1</title>
<g id="a_Node000001"><a xlink:title=" ">
<polygon fill="#999999" stroke="#666666" points="293,-96 164.5,-96 164.5,-76 293,-76 293,-96"/>
<text text-anchor="middle" x="228.75" y="-82.5" font-family="Helvetica,sans-Serif" font-size="10.00">SoundEffect::SoundEffect</text>
</a>
</g>
</g>
<!-- Node2 -->
<g id="Node000002" class="node">
<title>Node2</title>
<g id="a_Node000002"><a xlink:href="class_sound_effect.html#ae448047b9961de859e265d4302a20759" target="_top" xlink:title=" ">
<polygon fill="white" stroke="#666666" points="122.5,-172 6,-172 6,-152 122.5,-152 122.5,-172"/>
<text text-anchor="middle" x="64.25" y="-158.5" font-family="Helvetica,sans-Serif" font-size="10.00">SoundEffect::operator=</text>
</a>
</g>
</g>
<!-- Node1&#45;&gt;Node2 -->
<g id="edge1_Node000001_Node000002" class="edge">
<title>Node1&#45;&gt;Node2</title>
<g id="a_edge1_Node000001_Node000002"><a xlink:title=" ">
<path fill="none" stroke="#63b8ff" d="M202.51,-102.66C182.94,-115.04 154.8,-131.68 128.5,-143 121.13,-146.17 113.06,-149.03 105.22,-151.51"/>
<polygon fill="#63b8ff" stroke="#63b8ff" points="204.38,-105.62 210.9,-97.27 200.6,-99.73 204.38,-105.62"/>
</a>
</g>
</g>
<!-- Node3 -->
<g id="Node000003" class="node">
<title>Node3</title>
<g id="a_Node000003"><a xlink:href="class_sound_effect.html#a5e0259abb5e06ead8dfc922531c21d6e" target="_top" xlink:title=" ">
<polygon fill="white" stroke="#666666" points="122.5,-134 6,-134 6,-114 122.5,-114 122.5,-134"/>
<text text-anchor="middle" x="64.25" y="-120.5" font-family="Helvetica,sans-Serif" font-size="10.00">SoundEffect::operator=</text>
</a>
</g>
</g>
<!-- Node1&#45;&gt;Node3 -->
<g id="edge2_Node000001_Node000003" class="edge">
<title>Node1&#45;&gt;Node3</title>
<g id="a_edge2_Node000001_Node000003"><a xlink:title=" ">
<path fill="none" stroke="#63b8ff" d="M171.94,-99.05C151.7,-103.78 129.1,-109.07 109.94,-113.55"/>
<polygon fill="#63b8ff" stroke="#63b8ff" points="172.5,-102.51 181.44,-96.83 170.91,-95.7 172.5,-102.51"/>
</a>
</g>
</g>
<!-- Node4 -->
<g id="Node000004" class="node">
<title>Node4</title>
<g id="a_Node000004"><a xlink:href="class_sound_effect.html#a196f69e8d3b96b39a057917c26d58d19" target="_top" xlink:title=" ">
<polygon fill="white" stroke="#666666" points="125.5,-96 3,-96 3,-76 125.5,-76 125.5,-96"/>
<text text-anchor="middle" x="64.25" y="-82.5" font-family="Helvetica,sans-Serif" font-size="10.00">SoundEffect::operator==</text>
</a>
</g>
</g>
<!-- Node1&#45;&gt;Node4 -->
<g id="edge3_Node000001_Node000004" class="edge">
<title>Node1&#45;&gt;Node4</title>
<g id="a_edge3_Node000001_Node000004"><a xlink:title=" ">
<path fill="none" stroke="#63b8ff" d="M153.06,-86C143.99,-86 134.81,-86 125.97,-86"/>
<polygon fill="#63b8ff" stroke="#63b8ff" points="152.94,-89.5 162.94,-86 152.94,-82.5 152.94,-89.5"/>
</a>
</g>
</g>
<!-- Node5 -->
<g id="Node000005" class="node">
<title>Node5</title>
<g id="a_Node000005"><a xlink:href="class_sound_effect.html#a3215a43753819020ddb7c5712cbb2a8c" target="_top" xlink:title=" ">
<polygon fill="white" stroke="#666666" points="128.5,-58 0,-58 0,-38 128.5,-38 128.5,-58"/>
<text text-anchor="middle" x="64.25" y="-44.5" font-family="Helvetica,sans-Serif" font-size="10.00">SoundEffect::SoundEffect</text>
</a>
</g>
</g>
<!-- Node1&#45;&gt;Node5 -->
<g id="edge4_Node000001_Node000005" class="edge">
<title>Node1&#45;&gt;Node5</title>
<g id="a_edge4_Node000001_Node000005"><a xlink:title=" ">
<path fill="none" stroke="#63b8ff" d="M171.94,-72.95C151.7,-68.22 129.1,-62.93 109.94,-58.45"/>
<polygon fill="#63b8ff" stroke="#63b8ff" points="170.91,-76.3 181.44,-75.17 172.5,-69.49 170.91,-76.3"/>
</a>
</g>
</g>
<!-- Node6 -->
<g id="Node000006" class="node">
<title>Node6</title>
<g id="a_Node000006"><a xlink:href="class_sound_effect.html#a0141cefbdff4e82801128081588f3731" target="_top" xlink:title=" ">
<polygon fill="white" stroke="#666666" points="128.5,-20 0,-20 0,0 128.5,0 128.5,-20"/>
<text text-anchor="middle" x="64.25" y="-6.5" font-family="Helvetica,sans-Serif" font-size="10.00">SoundEffect::SoundEffect</text>
</a>
</g>
</g>
<!-- Node1&#45;&gt;Node6 -->
<g id="edge5_Node000001_Node000006" class="edge">
<title>Node1&#45;&gt;Node6</title>
<g id="a_edge5_Node000001_Node000006"><a xlink:title=" ">
<path fill="none" stroke="#63b8ff" d="M202.51,-69.34C182.94,-56.96 154.8,-40.32 128.5,-29 121.13,-25.83 113.06,-22.97 105.22,-20.49"/>
<polygon fill="#63b8ff" stroke="#63b8ff" points="200.6,-72.27 210.9,-74.73 204.38,-66.38 200.6,-72.27"/>
</a>
</g>
</g>
</g>
</svg>
