<?xml version="1.0" encoding="UTF-8" standalone="no"?>
<!DOCTYPE svg PUBLIC "-//W3C//DTD SVG 1.1//EN"
 "http://www.w3.org/Graphics/SVG/1.1/DTD/svg11.dtd">
<!-- Generated by graphviz version 12.2.1 (20241206.2353)
 -->
<!-- Title: PauseMenu::Draw Pages: 1 -->
<svg width="219pt" height="66pt"
 viewBox="0.00 0.00 219.25 66.00" xmlns="http://www.w3.org/2000/svg" xmlns:xlink="http://www.w3.org/1999/xlink">
<g id="graph0" class="graph" transform="scale(1 1) rotate(0) translate(4 62)">
<title>PauseMenu::Draw</title>
<!-- Node1 -->
<g id="Node000001" class="node">
<title>Node1</title>
<g id="a_Node000001"><a xlink:title=" ">
<polygon fill="#999999" stroke="#666666" points="97,-39 0,-39 0,-19 97,-19 97,-39"/>
<text text-anchor="middle" x="48.5" y="-25.5" font-family="Helvetica,sans-Serif" font-size="10.00">PauseMenu::Draw</text>
</a>
</g>
</g>
<!-- Node2 -->
<g id="Node000002" class="node">
<title>Node2</title>
<g id="a_Node000002"><a xlink:href="namespaceutils.html#a05d149f83e6b46ac17e537eccc2ab813" target="_top" xlink:title=" ">
<polygon fill="white" stroke="#666666" points="209,-58 135.25,-58 135.25,-38 209,-38 209,-58"/>
<text text-anchor="middle" x="172.12" y="-44.5" font-family="Helvetica,sans-Serif" font-size="10.00">utils::FillRect</text>
</a>
</g>
</g>
<!-- Node1&#45;&gt;Node2 -->
<g id="edge1_Node000001_Node000002" class="edge">
<title>Node1&#45;&gt;Node2</title>
<g id="a_edge1_Node000001_Node000002"><a xlink:title=" ">
<path fill="none" stroke="#63b8ff" d="M97.22,-36.45C105.92,-37.81 114.99,-39.23 123.69,-40.59"/>
<polygon fill="#63b8ff" stroke="#63b8ff" points="122.91,-44.01 133.33,-42.1 123.99,-37.09 122.91,-44.01"/>
</a>
</g>
</g>
<!-- Node3 -->
<g id="Node000003" class="node">
<title>Node3</title>
<g id="a_Node000003"><a xlink:href="namespaceutils.html#abc8380a69410c7b193d9d36474ae211f" target="_top" xlink:title=" ">
<polygon fill="white" stroke="#666666" points="211.25,-20 133,-20 133,0 211.25,0 211.25,-20"/>
<text text-anchor="middle" x="172.12" y="-6.5" font-family="Helvetica,sans-Serif" font-size="10.00">utils::SetColor</text>
</a>
</g>
</g>
<!-- Node1&#45;&gt;Node3 -->
<g id="edge2_Node000001_Node000003" class="edge">
<title>Node1&#45;&gt;Node3</title>
<g id="a_edge2_Node000001_Node000003"><a xlink:title=" ">
<path fill="none" stroke="#63b8ff" d="M97.22,-21.55C105.09,-20.32 113.27,-19.04 121.19,-17.8"/>
<polygon fill="#63b8ff" stroke="#63b8ff" points="121.71,-21.26 131.05,-16.26 120.63,-14.35 121.71,-21.26"/>
</a>
</g>
</g>
</g>
</svg>
