<?xml version="1.0" encoding="UTF-8" standalone="no"?>
<!DOCTYPE svg PUBLIC "-//W3C//DTD SVG 1.1//EN"
 "http://www.w3.org/Graphics/SVG/1.1/DTD/svg11.dtd">
<!-- Generated by graphviz version 12.2.1 (20241206.2353)
 -->
<!-- Title: Character Pages: 1 -->
<svg width="128pt" height="249pt"
 viewBox="0.00 0.00 128.12 249.00" xmlns="http://www.w3.org/2000/svg" xmlns:xlink="http://www.w3.org/1999/xlink">
<g id="graph0" class="graph" transform="scale(1 1) rotate(0) translate(4 245)">
<title>Character</title>
<!-- Node1 -->
<g id="Node000001" class="node">
<title>Node1</title>
<g id="a_Node000001"><a xlink:title=" ">
<polygon fill="#999999" stroke="#666666" points="64.75,-20 6,-20 6,0 64.75,0 64.75,-20"/>
<text text-anchor="middle" x="35.38" y="-6.5" font-family="Helvetica,sans-Serif" font-size="10.00">Character</text>
</a>
</g>
</g>
<!-- Node2 -->
<g id="Node000002" class="node">
<title>Node2</title>
<g id="a_Node000002"><a xlink:href="class_game_object.html" target="_top" xlink:title=" ">
<polygon fill="white" stroke="#666666" points="70.75,-77 0,-77 0,-57 70.75,-57 70.75,-77"/>
<text text-anchor="middle" x="35.38" y="-63.5" font-family="Helvetica,sans-Serif" font-size="10.00">GameObject</text>
</a>
</g>
</g>
<!-- Node2&#45;&gt;Node1 -->
<g id="edge1_Node000001_Node000002" class="edge">
<title>Node2&#45;&gt;Node1</title>
<g id="a_edge1_Node000001_Node000002"><a xlink:title=" ">
<path fill="none" stroke="#63b8ff" d="M35.38,-45.69C35.38,-36.97 35.38,-27.22 35.38,-20.28"/>
<polygon fill="#63b8ff" stroke="#63b8ff" points="31.88,-45.4 35.38,-55.4 38.88,-45.4 31.88,-45.4"/>
</a>
</g>
</g>
<!-- Node3 -->
<g id="Node000003" class="node">
<title>Node3</title>
<g id="a_Node000003"><a xlink:href="struct_transform.html" target="_top" xlink:title=" ">
<polygon fill="white" stroke="#666666" points="65.5,-151 5.25,-151 5.25,-131 65.5,-131 65.5,-151"/>
<text text-anchor="middle" x="35.38" y="-137.5" font-family="Helvetica,sans-Serif" font-size="10.00">Transform</text>
</a>
</g>
</g>
<!-- Node3&#45;&gt;Node2 -->
<g id="edge2_Node000002_Node000003" class="edge">
<title>Node3&#45;&gt;Node2</title>
<g id="a_edge2_Node000002_Node000003"><a xlink:title=" ">
<path fill="none" stroke="#9a32cd" stroke-dasharray="5,2" d="M35.38,-119.18C35.38,-105.29 35.38,-87.71 35.38,-77.19"/>
<polygon fill="#9a32cd" stroke="#9a32cd" points="31.88,-119.07 35.38,-129.07 38.88,-119.07 31.88,-119.07"/>
</a>
</g>
<text text-anchor="start" x="38.38" y="-100.5" font-family="Helvetica,sans-Serif" font-size="10.00" fill="grey">m_Transformation</text>
</g>
<!-- Node4 -->
<g id="Node000004" class="node">
<title>Node4</title>
<g id="a_Node000004"><a xlink:href="struct_vector2f.html" target="_top" xlink:title=" ">
<polygon fill="white" stroke="#666666" points="61.38,-241 9.38,-241 9.38,-221 61.38,-221 61.38,-241"/>
<text text-anchor="middle" x="35.38" y="-227.5" font-family="Helvetica,sans-Serif" font-size="10.00">Vector2f</text>
</a>
</g>
</g>
<!-- Node4&#45;&gt;Node3 -->
<g id="edge3_Node000003_Node000004" class="edge">
<title>Node4&#45;&gt;Node3</title>
<g id="a_edge3_Node000003_Node000004"><a xlink:title=" ">
<path fill="none" stroke="#9a32cd" stroke-dasharray="5,2" d="M35.38,-209.09C35.38,-190.77 35.38,-165.01 35.38,-151.35"/>
<polygon fill="#9a32cd" stroke="#9a32cd" points="31.88,-209.07 35.38,-219.07 38.88,-209.07 31.88,-209.07"/>
</a>
</g>
<text text-anchor="start" x="38.38" y="-190.5" font-family="Helvetica,sans-Serif" font-size="10.00" fill="grey">Position</text>
<text text-anchor="start" x="38.38" y="-174.5" font-family="Helvetica,sans-Serif" font-size="10.00" fill="grey">Scale</text>
</g>
</g>
</svg>
