<?xml version="1.0" encoding="UTF-8" standalone="no"?>
<!DOCTYPE svg PUBLIC "-//W3C//DTD SVG 1.1//EN"
 "http://www.w3.org/Graphics/SVG/1.1/DTD/svg11.dtd">
<!-- Generated by graphviz version 12.2.1 (20241206.2353)
 -->
<!-- Title: CrumbleBlock::operator= Pages: 1 -->
<svg width="513pt" height="78pt"
 viewBox="0.00 0.00 512.75 78.00" xmlns="http://www.w3.org/2000/svg" xmlns:xlink="http://www.w3.org/1999/xlink">
<g id="graph0" class="graph" transform="scale(1 1) rotate(0) translate(4 74)">
<title>CrumbleBlock::operator=</title>
<!-- Node1 -->
<g id="Node000001" class="node">
<title>Node1</title>
<g id="a_Node000001"><a xlink:title=" ">
<polygon fill="#999999" stroke="#666666" points="124.75,-42 0,-42 0,-22 124.75,-22 124.75,-42"/>
<text text-anchor="middle" x="62.38" y="-28.5" font-family="Helvetica,sans-Serif" font-size="10.00">CrumbleBlock::operator=</text>
</a>
</g>
</g>
<!-- Node2 -->
<g id="Node000002" class="node">
<title>Node2</title>
<g id="a_Node000002"><a xlink:href="class_crumble_block.html#aaebd22fd4ac1c8821cfb74f7461edb4d" target="_top" xlink:title=" ">
<polygon fill="white" stroke="#666666" points="305.75,-42 160.75,-42 160.75,-22 305.75,-22 305.75,-42"/>
<text text-anchor="middle" x="233.25" y="-28.5" font-family="Helvetica,sans-Serif" font-size="10.00">CrumbleBlock::CrumbleBlock</text>
</a>
</g>
</g>
<!-- Node1&#45;&gt;Node2 -->
<g id="edge1_Node000001_Node000002" class="edge">
<title>Node1&#45;&gt;Node2</title>
<g id="a_edge1_Node000001_Node000002"><a xlink:title=" ">
<path fill="none" stroke="#63b8ff" d="M124.82,-32C132.7,-32 140.88,-32 149.04,-32"/>
<polygon fill="#63b8ff" stroke="#63b8ff" points="149.02,-35.5 159.02,-32 149.02,-28.5 149.02,-35.5"/>
</a>
</g>
</g>
<!-- Node3 -->
<g id="Node000003" class="node">
<title>Node3</title>
<g id="a_Node000003"><a xlink:href="class_counted_item.html#a7a4f3ec5e121b459d51a818c9ed0e269" target="_top" xlink:title=" ">
<polygon fill="white" stroke="#666666" points="494.62,-70 351.88,-70 351.88,-38 494.62,-38 494.62,-70"/>
<text text-anchor="start" x="359.88" y="-56.5" font-family="Helvetica,sans-Serif" font-size="10.00">CountedItem&lt; CrumbleBlock</text>
<text text-anchor="middle" x="423.25" y="-44.5" font-family="Helvetica,sans-Serif" font-size="10.00"> &gt;::GetCount</text>
</a>
</g>
</g>
<!-- Node2&#45;&gt;Node3 -->
<g id="edge2_Node000002_Node000003" class="edge">
<title>Node2&#45;&gt;Node3</title>
<g id="a_edge2_Node000002_Node000003"><a xlink:title=" ">
<path fill="none" stroke="#63b8ff" d="M306.13,-40.41C317.32,-41.72 328.96,-43.08 340.36,-44.42"/>
<polygon fill="#63b8ff" stroke="#63b8ff" points="339.81,-47.88 350.15,-45.56 340.62,-40.92 339.81,-47.88"/>
</a>
</g>
</g>
<!-- Node4 -->
<g id="Node000004" class="node">
<title>Node4</title>
<g id="a_Node000004"><a xlink:href="class_interactable_item.html#a5e5b9c459514e29098aaff5e62761569" target="_top" xlink:title=" ">
<polygon fill="white" stroke="#666666" points="504.75,-20 341.75,-20 341.75,0 504.75,0 504.75,-20"/>
<text text-anchor="middle" x="423.25" y="-6.5" font-family="Helvetica,sans-Serif" font-size="10.00">InteractableItem::InteractableItem</text>
</a>
</g>
</g>
<!-- Node2&#45;&gt;Node4 -->
<g id="edge3_Node000002_Node000004" class="edge">
<title>Node2&#45;&gt;Node4</title>
<g id="a_edge3_Node000002_Node000004"><a xlink:title=" ">
<path fill="none" stroke="#63b8ff" d="M306.13,-23.59C313.95,-22.67 321.99,-21.73 330.01,-20.79"/>
<polygon fill="#63b8ff" stroke="#63b8ff" points="330.28,-24.29 339.81,-19.65 329.47,-17.33 330.28,-24.29"/>
</a>
</g>
</g>
</g>
</svg>
