<?xml version="1.0" encoding="UTF-8" standalone="no"?>
<!DOCTYPE svg PUBLIC "-//W3C//DTD SVG 1.1//EN"
 "http://www.w3.org/Graphics/SVG/1.1/DTD/svg11.dtd">
<!-- Generated by graphviz version 12.2.1 (20241206.2353)
 -->
<!-- Title: GameObject::~GameObject Pages: 1 -->
<svg width="318pt" height="142pt"
 viewBox="0.00 0.00 318.25 142.00" xmlns="http://www.w3.org/2000/svg" xmlns:xlink="http://www.w3.org/1999/xlink">
<g id="graph0" class="graph" transform="scale(1 1) rotate(0) translate(4 138)">
<title>GameObject::~GameObject</title>
<!-- Node1 -->
<g id="Node000001" class="node">
<title>Node1</title>
<g id="a_Node000001"><a xlink:title=" ">
<polygon fill="#999999" stroke="#666666" points="137.5,-77 0,-77 0,-57 137.5,-57 137.5,-77"/>
<text text-anchor="middle" x="68.75" y="-63.5" font-family="Helvetica,sans-Serif" font-size="10.00">GameObject::~GameObject</text>
</a>
</g>
</g>
<!-- Node2 -->
<g id="Node000002" class="node">
<title>Node2</title>
<g id="a_Node000002"><a xlink:href="class_game_object.html#ac3bd47953a5614e49e3739955fb5d669" target="_top" xlink:title=" ">
<polygon fill="white" stroke="#666666" points="305.75,-134 178,-134 178,-114 305.75,-114 305.75,-134"/>
<text text-anchor="middle" x="241.88" y="-120.5" font-family="Helvetica,sans-Serif" font-size="10.00">GameObject::GetPosition</text>
</a>
</g>
</g>
<!-- Node1&#45;&gt;Node2 -->
<g id="edge1_Node000001_Node000002" class="edge">
<title>Node1&#45;&gt;Node2</title>
<g id="a_edge1_Node000001_Node000002"><a xlink:title=" ">
<path fill="none" stroke="#63b8ff" d="M96.43,-77.41C117.27,-85.38 147.04,-96.44 173.5,-105 179.21,-106.85 185.22,-108.69 191.21,-110.46"/>
<polygon fill="#63b8ff" stroke="#63b8ff" points="189.86,-113.71 200.43,-113.13 191.8,-106.99 189.86,-113.71"/>
</a>
</g>
</g>
<!-- Node3 -->
<g id="Node000003" class="node">
<title>Node3</title>
<g id="a_Node000003"><a xlink:href="class_game_object.html#a3c1f2f4d5a1e04e69f3dc22d4c573b35" target="_top" xlink:title=" ">
<polygon fill="white" stroke="#666666" points="306.5,-96 177.25,-96 177.25,-76 306.5,-76 306.5,-96"/>
<text text-anchor="middle" x="241.88" y="-82.5" font-family="Helvetica,sans-Serif" font-size="10.00">GameObject::GetRotation</text>
</a>
</g>
</g>
<!-- Node1&#45;&gt;Node3 -->
<g id="edge2_Node000001_Node000003" class="edge">
<title>Node1&#45;&gt;Node3</title>
<g id="a_edge2_Node000001_Node000003"><a xlink:title=" ">
<path fill="none" stroke="#63b8ff" d="M137.87,-74.56C147.02,-75.58 156.44,-76.63 165.7,-77.65"/>
<polygon fill="#63b8ff" stroke="#63b8ff" points="165.05,-81.1 175.37,-78.73 165.82,-74.15 165.05,-81.1"/>
</a>
</g>
</g>
<!-- Node4 -->
<g id="Node000004" class="node">
<title>Node4</title>
<g id="a_Node000004"><a xlink:href="class_game_object.html#af9f7c9015a36e47eaa60e2968e6b7279" target="_top" xlink:title=" ">
<polygon fill="white" stroke="#666666" points="300.5,-58 183.25,-58 183.25,-38 300.5,-38 300.5,-58"/>
<text text-anchor="middle" x="241.88" y="-44.5" font-family="Helvetica,sans-Serif" font-size="10.00">GameObject::GetScale</text>
</a>
</g>
</g>
<!-- Node1&#45;&gt;Node4 -->
<g id="edge3_Node000001_Node000004" class="edge">
<title>Node1&#45;&gt;Node4</title>
<g id="a_edge3_Node000001_Node000004"><a xlink:title=" ">
<path fill="none" stroke="#63b8ff" d="M137.87,-59.44C148.94,-58.21 160.42,-56.93 171.51,-55.7"/>
<polygon fill="#63b8ff" stroke="#63b8ff" points="171.85,-59.19 181.41,-54.6 171.08,-52.23 171.85,-59.19"/>
</a>
</g>
</g>
<!-- Node5 -->
<g id="Node000005" class="node">
<title>Node5</title>
<g id="a_Node000005"><a xlink:href="class_game_object.html#af379d997393035dd50549cc13fa0e807" target="_top" xlink:title=" ">
<polygon fill="white" stroke="#666666" points="310.25,-20 173.5,-20 173.5,0 310.25,0 310.25,-20"/>
<text text-anchor="middle" x="241.88" y="-6.5" font-family="Helvetica,sans-Serif" font-size="10.00">GameObject::GetTransform</text>
</a>
</g>
</g>
<!-- Node1&#45;&gt;Node5 -->
<g id="edge4_Node000001_Node000005" class="edge">
<title>Node1&#45;&gt;Node5</title>
<g id="a_edge4_Node000001_Node000005"><a xlink:title=" ">
<path fill="none" stroke="#63b8ff" d="M96.43,-56.59C117.27,-48.62 147.04,-37.56 173.5,-29 179.21,-27.15 185.22,-25.31 191.21,-23.54"/>
<polygon fill="#63b8ff" stroke="#63b8ff" points="191.8,-27.01 200.43,-20.87 189.86,-20.29 191.8,-27.01"/>
</a>
</g>
</g>
</g>
</svg>
