<?xml version="1.0" encoding="UTF-8" standalone="no"?>
<!DOCTYPE svg PUBLIC "-//W3C//DTD SVG 1.1//EN"
 "http://www.w3.org/Graphics/SVG/1.1/DTD/svg11.dtd">
<!-- Generated by graphviz version 12.2.1 (20241206.2353)
 -->
<!-- Title: Strawberry::Strawberry Pages: 1 -->
<svg width="277pt" height="46pt"
 viewBox="0.00 0.00 277.00 46.00" xmlns="http://www.w3.org/2000/svg" xmlns:xlink="http://www.w3.org/1999/xlink">
<g id="graph0" class="graph" transform="scale(1 1) rotate(0) translate(4 42)">
<title>Strawberry::Strawberry</title>
<!-- Node1 -->
<g id="Node000001" class="node">
<title>Node1</title>
<g id="a_Node000001"><a xlink:title=" ">
<polygon fill="#999999" stroke="#666666" points="116.5,-20 0,-20 0,0 116.5,0 116.5,-20"/>
<text text-anchor="middle" x="58.25" y="-6.5" font-family="Helvetica,sans-Serif" font-size="10.00">Strawberry::Strawberry</text>
</a>
</g>
</g>
<!-- Node2 -->
<g id="Node000002" class="node">
<title>Node2</title>
<g id="a_Node000002"><a xlink:href="class_strawberry.html#ab4dff64037a1d41eb23ef267eeda6510" target="_top" xlink:title=" ">
<polygon fill="white" stroke="#666666" points="269,-20 152.5,-20 152.5,0 269,0 269,-20"/>
<text text-anchor="middle" x="210.75" y="-6.5" font-family="Helvetica,sans-Serif" font-size="10.00">Strawberry::Strawberry</text>
</a>
</g>
</g>
<!-- Node1&#45;&gt;Node2 -->
<g id="edge1_Node000001_Node000002" class="edge">
<title>Node1&#45;&gt;Node2</title>
<g id="a_edge1_Node000001_Node000002"><a xlink:title=" ">
<path fill="none" stroke="#63b8ff" d="M116.58,-10C124.48,-10 132.67,-10 140.75,-10"/>
<polygon fill="#63b8ff" stroke="#63b8ff" points="140.57,-13.5 150.57,-10 140.57,-6.5 140.57,-13.5"/>
</a>
</g>
</g>
<!-- Node2&#45;&gt;Node2 -->
<g id="edge2_Node000002_Node000002" class="edge">
<title>Node2&#45;&gt;Node2</title>
<g id="a_edge2_Node000002_Node000002"><a xlink:title=" ">
<path fill="none" stroke="#63b8ff" d="M186.52,-20.34C176.16,-28.98 184.24,-38 210.75,-38 225.25,-38 234.23,-35.3 237.7,-31.44"/>
<polygon fill="#63b8ff" stroke="#63b8ff" points="241.12,-30.69 235.34,-21.81 234.32,-32.35 241.12,-30.69"/>
</a>
</g>
</g>
</g>
</svg>
