<?xml version="1.0" encoding="UTF-8" standalone="no"?>
<!DOCTYPE svg PUBLIC "-//W3C//DTD SVG 1.1//EN"
 "http://www.w3.org/Graphics/SVG/1.1/DTD/svg11.dtd">
<!-- Generated by graphviz version 12.2.1 (20241206.2353)
 -->
<!-- Title: Trampoline::Trampoline Pages: 1 -->
<svg width="280pt" height="142pt"
 viewBox="0.00 0.00 280.00 142.00" xmlns="http://www.w3.org/2000/svg" xmlns:xlink="http://www.w3.org/1999/xlink">
<g id="graph0" class="graph" transform="scale(1 1) rotate(0) translate(4 138)">
<title>Trampoline::Trampoline</title>
<!-- Node1 -->
<g id="Node000001" class="node">
<title>Node1</title>
<g id="a_Node000001"><a xlink:title=" ">
<polygon fill="#999999" stroke="#666666" points="272,-77 154,-77 154,-57 272,-57 272,-77"/>
<text text-anchor="middle" x="213" y="-63.5" font-family="Helvetica,sans-Serif" font-size="10.00">Trampoline::Trampoline</text>
</a>
</g>
</g>
<!-- Node1&#45;&gt;Node1 -->
<g id="edge4_Node000001_Node000001" class="edge">
<title>Node1&#45;&gt;Node1</title>
<g id="a_edge4_Node000001_Node000001"><a xlink:title=" ">
<path fill="none" stroke="#63b8ff" d="M240.22,-88.44C236.71,-92.3 227.64,-95 213,-95 186.23,-95 178.07,-85.98 188.53,-77.34"/>
<polygon fill="#63b8ff" stroke="#63b8ff" points="243.63,-87.67 237.83,-78.81 236.84,-89.36 243.63,-87.67"/>
</a>
</g>
</g>
<!-- Node2 -->
<g id="Node000002" class="node">
<title>Node2</title>
<g id="a_Node000002"><a xlink:href="class_trampoline.html#a9b15452cd28b86bb95ad638707af3bb0" target="_top" xlink:title=" ">
<polygon fill="white" stroke="#666666" points="114.62,-134 3.38,-134 3.38,-114 114.62,-114 114.62,-134"/>
<text text-anchor="middle" x="59" y="-120.5" font-family="Helvetica,sans-Serif" font-size="10.00">Trampoline::operator=</text>
</a>
</g>
</g>
<!-- Node1&#45;&gt;Node2 -->
<g id="edge1_Node000001_Node000002" class="edge">
<title>Node1&#45;&gt;Node2</title>
<g id="a_edge1_Node000001_Node000002"><a xlink:title=" ">
<path fill="none" stroke="#63b8ff" d="M177.07,-81.78C159.46,-89.06 137.72,-97.79 118,-105 110.04,-107.91 101.39,-110.86 93.26,-113.53"/>
<polygon fill="#63b8ff" stroke="#63b8ff" points="178.15,-85.12 186.04,-78.04 175.46,-78.65 178.15,-85.12"/>
</a>
</g>
</g>
<!-- Node3 -->
<g id="Node000003" class="node">
<title>Node3</title>
<g id="a_Node000003"><a xlink:href="class_trampoline.html#ada1743f336a2065ee4a0bd628d594a21" target="_top" xlink:title=" ">
<polygon fill="white" stroke="#666666" points="114.62,-96 3.38,-96 3.38,-76 114.62,-76 114.62,-96"/>
<text text-anchor="middle" x="59" y="-82.5" font-family="Helvetica,sans-Serif" font-size="10.00">Trampoline::operator=</text>
</a>
</g>
</g>
<!-- Node1&#45;&gt;Node3 -->
<g id="edge2_Node000001_Node000003" class="edge">
<title>Node1&#45;&gt;Node3</title>
<g id="a_edge2_Node000001_Node000003"><a xlink:title=" ">
<path fill="none" stroke="#63b8ff" d="M142.49,-75.69C133.25,-76.84 123.88,-78.02 114.93,-79.13"/>
<polygon fill="#63b8ff" stroke="#63b8ff" points="142.68,-79.19 152.17,-74.48 141.81,-72.25 142.68,-79.19"/>
</a>
</g>
</g>
<!-- Node4 -->
<g id="Node000004" class="node">
<title>Node4</title>
<g id="a_Node000004"><a xlink:href="class_trampoline.html#abe2f88eae397242bc3085a86d522a019" target="_top" xlink:title=" ">
<polygon fill="white" stroke="#666666" points="118,-58 0,-58 0,-38 118,-38 118,-58"/>
<text text-anchor="middle" x="59" y="-44.5" font-family="Helvetica,sans-Serif" font-size="10.00">Trampoline::Trampoline</text>
</a>
</g>
</g>
<!-- Node1&#45;&gt;Node4 -->
<g id="edge3_Node000001_Node000004" class="edge">
<title>Node1&#45;&gt;Node4</title>
<g id="a_edge3_Node000001_Node000004"><a xlink:title=" ">
<path fill="none" stroke="#63b8ff" d="M142.43,-58.3C134.4,-57.3 126.28,-56.29 118.43,-55.3"/>
<polygon fill="#63b8ff" stroke="#63b8ff" points="141.81,-61.75 152.17,-59.52 142.68,-54.81 141.81,-61.75"/>
</a>
</g>
</g>
<!-- Node5 -->
<g id="Node000005" class="node">
<title>Node5</title>
<g id="a_Node000005"><a xlink:href="class_trampoline.html#a36ba7988b88993ee872e412fc6e158a0" target="_top" xlink:title=" ">
<polygon fill="white" stroke="#666666" points="118,-20 0,-20 0,0 118,0 118,-20"/>
<text text-anchor="middle" x="59" y="-6.5" font-family="Helvetica,sans-Serif" font-size="10.00">Trampoline::Trampoline</text>
</a>
</g>
</g>
<!-- Node1&#45;&gt;Node5 -->
<g id="edge5_Node000001_Node000005" class="edge">
<title>Node1&#45;&gt;Node5</title>
<g id="a_edge5_Node000001_Node000005"><a xlink:title=" ">
<path fill="none" stroke="#63b8ff" d="M177.07,-52.22C159.46,-44.94 137.72,-36.21 118,-29 110.04,-26.09 101.39,-23.14 93.26,-20.47"/>
<polygon fill="#63b8ff" stroke="#63b8ff" points="175.46,-55.35 186.04,-55.96 178.15,-48.88 175.46,-55.35"/>
</a>
</g>
</g>
</g>
</svg>
