<?xml version="1.0" encoding="UTF-8" standalone="no"?>
<!DOCTYPE svg PUBLIC "-//W3C//DTD SVG 1.1//EN"
 "http://www.w3.org/Graphics/SVG/1.1/DTD/svg11.dtd">
<!-- Generated by graphviz version 12.2.1 (20241206.2353)
 -->
<!-- Title: Graphical Class Hierarchy Pages: 1 -->
<svg width="217pt" height="66pt"
 viewBox="0.00 0.00 217.00 66.00" xmlns="http://www.w3.org/2000/svg" xmlns:xlink="http://www.w3.org/1999/xlink">
<g id="graph0" class="graph" transform="scale(1 1) rotate(0) translate(4 62)">
<title>Graphical Class Hierarchy</title>
<!-- Node0 -->
<g id="Node000000" class="node">
<title>Node0</title>
<g id="a_Node000000"><a xlink:href="class_game_object.html" target="_top" xlink:title=" ">
<polygon fill="white" stroke="#666666" points="70.75,-39 0,-39 0,-19 70.75,-19 70.75,-39"/>
<text text-anchor="middle" x="35.38" y="-25.5" font-family="Helvetica,sans-Serif" font-size="10.00">GameObject</text>
</a>
</g>
</g>
<!-- Node1 -->
<g id="Node000001" class="node">
<title>Node1</title>
<g id="a_Node000001"><a xlink:href="class_character.html" target="_top" xlink:title=" ">
<polygon fill="white" stroke="#666666" points="187.25,-58 128.5,-58 128.5,-38 187.25,-38 187.25,-58"/>
<text text-anchor="middle" x="157.88" y="-44.5" font-family="Helvetica,sans-Serif" font-size="10.00">Character</text>
</a>
</g>
</g>
<!-- Node0&#45;&gt;Node1 -->
<g id="edge17_Node000000_Node000001" class="edge">
<title>Node0&#45;&gt;Node1</title>
<g id="a_edge17_Node000000_Node000001"><a xlink:title=" ">
<path fill="none" stroke="#63b8ff" d="M82.18,-36.22C97.64,-38.66 114.44,-41.31 128.19,-43.48"/>
<polygon fill="#63b8ff" stroke="#63b8ff" points="83.15,-32.83 72.72,-34.73 82.06,-39.75 83.15,-32.83"/>
</a>
</g>
</g>
<!-- Node2 -->
<g id="Node000002" class="node">
<title>Node2</title>
<g id="a_Node000002"><a xlink:href="class_snow_flake_manager.html" target="_top" xlink:title=" ">
<polygon fill="white" stroke="#666666" points="209,-20 106.75,-20 106.75,0 209,0 209,-20"/>
<text text-anchor="middle" x="157.88" y="-6.5" font-family="Helvetica,sans-Serif" font-size="10.00">SnowFlakeManager</text>
</a>
</g>
</g>
<!-- Node0&#45;&gt;Node2 -->
<g id="edge18_Node000000_Node000002" class="edge">
<title>Node0&#45;&gt;Node2</title>
<g id="a_edge18_Node000000_Node000002"><a xlink:title=" ">
<path fill="none" stroke="#63b8ff" d="M82.42,-21.74C90.27,-20.5 98.46,-19.21 106.41,-17.96"/>
<polygon fill="#63b8ff" stroke="#63b8ff" points="82.06,-18.25 72.72,-23.27 83.15,-25.17 82.06,-18.25"/>
</a>
</g>
</g>
</g>
</svg>
