<?xml version="1.0" encoding="UTF-8" standalone="no"?>
<!DOCTYPE svg PUBLIC "-//W3C//DTD SVG 1.1//EN"
 "http://www.w3.org/Graphics/SVG/1.1/DTD/svg11.dtd">
<!-- Generated by graphviz version 12.2.1 (20241206.2353)
 -->
<!-- Title: Graphical Class Hierarchy Pages: 1 -->
<svg width="485pt" height="332pt"
 viewBox="0.00 0.00 485.00 332.00" xmlns="http://www.w3.org/2000/svg" xmlns:xlink="http://www.w3.org/1999/xlink">
<g id="graph0" class="graph" transform="scale(1 1) rotate(0) translate(4 328)">
<title>Graphical Class Hierarchy</title>
<!-- Node0 -->
<g id="Node000000" class="node">
<title>Node0</title>
<g id="a_Node000000"><a xlink:href="class_counted_item.html" target="_top" xlink:title=" ">
<polygon fill="white" stroke="#666666" points="148.38,-324 3.38,-324 3.38,-304 148.38,-304 148.38,-324"/>
<text text-anchor="middle" x="75.88" y="-310.5" font-family="Helvetica,sans-Serif" font-size="10.00">CountedItem&lt; CogPlatform &gt;</text>
</a>
</g>
</g>
<!-- Node1 -->
<g id="Node000001" class="node">
<title>Node1</title>
<g id="a_Node000001"><a xlink:href="class_cog_platform.html" target="_top" xlink:title=" ">
<polygon fill="white" stroke="#666666" points="305,-324 234.25,-324 234.25,-304 305,-304 305,-324"/>
<text text-anchor="middle" x="269.62" y="-310.5" font-family="Helvetica,sans-Serif" font-size="10.00">CogPlatform</text>
</a>
</g>
</g>
<!-- Node0&#45;&gt;Node1 -->
<g id="edge2_Node000000_Node000001" class="edge">
<title>Node0&#45;&gt;Node1</title>
<g id="a_edge2_Node000000_Node000001"><a xlink:title=" ">
<path fill="none" stroke="darkgreen" d="M160.21,-314C186.11,-314 213.26,-314 233.91,-314"/>
<polygon fill="darkgreen" stroke="darkgreen" points="160.33,-310.5 150.33,-314 160.33,-317.5 160.33,-310.5"/>
</a>
</g>
</g>
<!-- Node4 -->
<g id="Node000004" class="node">
<title>Node4</title>
<g id="a_Node000004"><a xlink:href="class_counted_item.html" target="_top" xlink:title=" ">
<polygon fill="white" stroke="#666666" points="151.75,-286 0,-286 0,-266 151.75,-266 151.75,-286"/>
<text text-anchor="middle" x="75.88" y="-272.5" font-family="Helvetica,sans-Serif" font-size="10.00">CountedItem&lt; CrumbleBlock &gt;</text>
</a>
</g>
</g>
<!-- Node3 -->
<g id="Node000003" class="node">
<title>Node3</title>
<g id="a_Node000003"><a xlink:href="class_crumble_block.html" target="_top" xlink:title=" ">
<polygon fill="white" stroke="#666666" points="308.38,-286 230.88,-286 230.88,-266 308.38,-266 308.38,-286"/>
<text text-anchor="middle" x="269.62" y="-272.5" font-family="Helvetica,sans-Serif" font-size="10.00">CrumbleBlock</text>
</a>
</g>
</g>
<!-- Node4&#45;&gt;Node3 -->
<g id="edge3_Node000004_Node000003" class="edge">
<title>Node4&#45;&gt;Node3</title>
<g id="a_edge3_Node000004_Node000003"><a xlink:title=" ">
<path fill="none" stroke="darkgreen" d="M163.55,-276C187.03,-276 211.25,-276 230.51,-276"/>
<polygon fill="darkgreen" stroke="darkgreen" points="163.62,-272.5 153.62,-276 163.62,-279.5 163.62,-272.5"/>
</a>
</g>
</g>
<!-- Node6 -->
<g id="Node000006" class="node">
<title>Node6</title>
<g id="a_Node000006"><a xlink:href="class_counted_item.html" target="_top" xlink:title=" ">
<polygon fill="white" stroke="#666666" points="148.38,-248 3.38,-248 3.38,-228 148.38,-228 148.38,-248"/>
<text text-anchor="middle" x="75.88" y="-234.5" font-family="Helvetica,sans-Serif" font-size="10.00">CountedItem&lt; DashCrystal &gt;</text>
</a>
</g>
</g>
<!-- Node5 -->
<g id="Node000005" class="node">
<title>Node5</title>
<g id="a_Node000005"><a xlink:href="class_dash_crystal.html" target="_top" xlink:title=" ">
<polygon fill="white" stroke="#666666" points="305,-248 234.25,-248 234.25,-228 305,-228 305,-248"/>
<text text-anchor="middle" x="269.62" y="-234.5" font-family="Helvetica,sans-Serif" font-size="10.00">DashCrystal</text>
</a>
</g>
</g>
<!-- Node6&#45;&gt;Node5 -->
<g id="edge4_Node000006_Node000005" class="edge">
<title>Node6&#45;&gt;Node5</title>
<g id="a_edge4_Node000006_Node000005"><a xlink:title=" ">
<path fill="none" stroke="darkgreen" d="M160.21,-238C186.11,-238 213.26,-238 233.91,-238"/>
<polygon fill="darkgreen" stroke="darkgreen" points="160.33,-234.5 150.33,-238 160.33,-241.5 160.33,-234.5"/>
</a>
</g>
</g>
<!-- Node12 -->
<g id="Node000012" class="node">
<title>Node12</title>
<g id="a_Node000012"><a xlink:href="class_counted_item.html" target="_top" xlink:title=" ">
<polygon fill="white" stroke="#666666" points="351.5,-210 187.75,-210 187.75,-190 351.5,-190 351.5,-210"/>
<text text-anchor="middle" x="269.62" y="-196.5" font-family="Helvetica,sans-Serif" font-size="10.00">CountedItem&lt; FlyingStrawberry &gt;</text>
</a>
</g>
</g>
<!-- Node11 -->
<g id="Node000011" class="node">
<title>Node11</title>
<g id="a_Node000011"><a xlink:href="class_flying_strawberry.html" target="_top" xlink:title=" ">
<polygon fill="white" stroke="#666666" points="477,-134 387.5,-134 387.5,-114 477,-114 477,-134"/>
<text text-anchor="middle" x="432.25" y="-120.5" font-family="Helvetica,sans-Serif" font-size="10.00">FlyingStrawberry</text>
</a>
</g>
</g>
<!-- Node12&#45;&gt;Node11 -->
<g id="edge5_Node000012_Node000011" class="edge">
<title>Node12&#45;&gt;Node11</title>
<g id="a_edge5_Node000012_Node000011"><a xlink:title=" ">
<path fill="none" stroke="darkgreen" d="M338.34,-186.2C342.86,-184.64 347.29,-182.91 351.5,-181 378.16,-168.91 405,-147.34 419.74,-134.48"/>
<polygon fill="darkgreen" stroke="darkgreen" points="337.61,-182.76 329.13,-189.11 339.72,-189.44 337.61,-182.76"/>
</a>
</g>
</g>
<!-- Node13 -->
<g id="Node000013" class="node">
<title>Node13</title>
<g id="a_Node000013"><a xlink:href="class_counted_item.html" target="_top" xlink:title=" ">
<polygon fill="white" stroke="#666666" points="144.62,-58 7.12,-58 7.12,-38 144.62,-38 144.62,-58"/>
<text text-anchor="middle" x="75.88" y="-44.5" font-family="Helvetica,sans-Serif" font-size="10.00">CountedItem&lt; Strawberry &gt;</text>
</a>
</g>
</g>
<!-- Node10 -->
<g id="Node000010" class="node">
<title>Node10</title>
<g id="a_Node000010"><a xlink:href="class_strawberry.html" target="_top" xlink:title=" ">
<polygon fill="white" stroke="#666666" points="301.25,-58 238,-58 238,-38 301.25,-38 301.25,-58"/>
<text text-anchor="middle" x="269.62" y="-44.5" font-family="Helvetica,sans-Serif" font-size="10.00">Strawberry</text>
</a>
</g>
</g>
<!-- Node13&#45;&gt;Node10 -->
<g id="edge6_Node000013_Node000010" class="edge">
<title>Node13&#45;&gt;Node10</title>
<g id="a_edge6_Node000013_Node000010"><a xlink:title=" ">
<path fill="none" stroke="darkgreen" d="M156.3,-48C184.97,-48 215.65,-48 237.69,-48"/>
<polygon fill="darkgreen" stroke="darkgreen" points="156.53,-44.5 146.53,-48 156.53,-51.5 156.53,-44.5"/>
</a>
</g>
</g>
<!-- Node10&#45;&gt;Node11 -->
<g id="edge7_Node000010_Node000011" class="edge">
<title>Node10&#45;&gt;Node11</title>
<g id="a_edge7_Node000010_Node000011"><a xlink:title=" ">
<path fill="none" stroke="#63b8ff" d="M312.45,-54.58C325.33,-57.46 339.31,-61.47 351.5,-67 378.16,-79.09 405,-100.66 419.74,-113.52"/>
<polygon fill="#63b8ff" stroke="#63b8ff" points="313.48,-51.22 302.98,-52.64 312.08,-58.08 313.48,-51.22"/>
</a>
</g>
</g>
<!-- Node15 -->
<g id="Node000015" class="node">
<title>Node15</title>
<g id="a_Node000015"><a xlink:href="class_counted_item.html" target="_top" xlink:title=" ">
<polygon fill="white" stroke="#666666" points="144.62,-20 7.12,-20 7.12,0 144.62,0 144.62,-20"/>
<text text-anchor="middle" x="75.88" y="-6.5" font-family="Helvetica,sans-Serif" font-size="10.00">CountedItem&lt; Trampoline &gt;</text>
</a>
</g>
</g>
<!-- Node14 -->
<g id="Node000014" class="node">
<title>Node14</title>
<g id="a_Node000014"><a xlink:href="class_trampoline.html" target="_top" xlink:title=" ">
<polygon fill="white" stroke="#666666" points="301.62,-20 237.62,-20 237.62,0 301.62,0 301.62,-20"/>
<text text-anchor="middle" x="269.62" y="-6.5" font-family="Helvetica,sans-Serif" font-size="10.00">Trampoline</text>
</a>
</g>
</g>
<!-- Node15&#45;&gt;Node14 -->
<g id="edge8_Node000015_Node000014" class="edge">
<title>Node15&#45;&gt;Node14</title>
<g id="a_edge8_Node000015_Node000014"><a xlink:title=" ">
<path fill="none" stroke="darkgreen" d="M156.22,-10C184.69,-10 215.16,-10 237.18,-10"/>
<polygon fill="darkgreen" stroke="darkgreen" points="156.53,-6.5 146.53,-10 156.53,-13.5 156.53,-6.5"/>
</a>
</g>
</g>
<!-- Node2 -->
<g id="Node000002" class="node">
<title>Node2</title>
<g id="a_Node000002"><a xlink:href="class_interactable_item.html" target="_top" xlink:title=" ">
<polygon fill="white" stroke="#666666" points="119.12,-153 32.62,-153 32.62,-133 119.12,-133 119.12,-153"/>
<text text-anchor="middle" x="75.88" y="-139.5" font-family="Helvetica,sans-Serif" font-size="10.00">InteractableItem</text>
</a>
</g>
</g>
<!-- Node2&#45;&gt;Node1 -->
<g id="edge9_Node000002_Node000001" class="edge">
<title>Node2&#45;&gt;Node1</title>
<g id="a_edge9_Node000002_Node000001"><a xlink:title=" ">
<path fill="none" stroke="#63b8ff" d="M97.62,-160.52C113.83,-174.99 136.17,-196.71 151.75,-219 173.17,-249.63 158.68,-271.51 187.75,-295 200.65,-305.42 218.28,-310.32 233.79,-312.54"/>
<polygon fill="#63b8ff" stroke="#63b8ff" points="100.29,-158.21 90.46,-154.26 95.68,-163.48 100.29,-158.21"/>
</a>
</g>
</g>
<!-- Node2&#45;&gt;Node3 -->
<g id="edge10_Node000002_Node000003" class="edge">
<title>Node2&#45;&gt;Node3</title>
<g id="a_edge10_Node000002_Node000003"><a xlink:title=" ">
<path fill="none" stroke="#63b8ff" d="M95.19,-161.39C110.42,-176.72 132.6,-199.18 151.75,-219 167.91,-235.73 167.58,-245.41 187.75,-257 200.76,-264.47 216.54,-269.01 230.7,-271.76"/>
<polygon fill="#63b8ff" stroke="#63b8ff" points="97.71,-158.96 88.18,-154.34 92.75,-163.9 97.71,-158.96"/>
</a>
</g>
</g>
<!-- Node2&#45;&gt;Node5 -->
<g id="edge11_Node000002_Node000005" class="edge">
<title>Node2&#45;&gt;Node5</title>
<g id="a_edge11_Node000002_Node000005"><a xlink:title=" ">
<path fill="none" stroke="#63b8ff" d="M97.38,-160.54C118.63,-177.86 153.5,-203.88 187.75,-219 202.26,-225.41 219.24,-229.82 233.88,-232.76"/>
<polygon fill="#63b8ff" stroke="#63b8ff" points="99.71,-157.93 89.78,-154.24 95.24,-163.32 99.71,-157.93"/>
</a>
</g>
</g>
<!-- Node2&#45;&gt;Node10 -->
<g id="edge15_Node000002_Node000010" class="edge">
<title>Node2&#45;&gt;Node10</title>
<g id="a_edge15_Node000002_Node000010"><a xlink:title=" ">
<path fill="none" stroke="#63b8ff" d="M97.38,-125.46C118.63,-108.14 153.5,-82.12 187.75,-67 203.58,-60.01 222.34,-55.4 237.81,-52.47"/>
<polygon fill="#63b8ff" stroke="#63b8ff" points="95.24,-122.68 89.78,-131.76 99.71,-128.07 95.24,-122.68"/>
</a>
</g>
</g>
<!-- Node2&#45;&gt;Node14 -->
<g id="edge16_Node000002_Node000014" class="edge">
<title>Node2&#45;&gt;Node14</title>
<g id="a_edge16_Node000002_Node000014"><a xlink:title=" ">
<path fill="none" stroke="#63b8ff" d="M95.19,-124.61C110.42,-109.28 132.6,-86.82 151.75,-67 167.91,-50.27 167.58,-40.59 187.75,-29 202.88,-20.3 221.78,-15.58 237.5,-13.02"/>
<polygon fill="#63b8ff" stroke="#63b8ff" points="92.75,-122.1 88.18,-131.66 97.71,-127.04 92.75,-122.1"/>
</a>
</g>
</g>
<!-- Node7 -->
<g id="Node000007" class="node">
<title>Node7</title>
<g id="a_Node000007"><a xlink:href="class_level.html" target="_top" xlink:title=" ">
<polygon fill="white" stroke="#666666" points="289.25,-172 250,-172 250,-152 289.25,-152 289.25,-172"/>
<text text-anchor="middle" x="269.62" y="-158.5" font-family="Helvetica,sans-Serif" font-size="10.00">Level</text>
</a>
</g>
</g>
<!-- Node2&#45;&gt;Node7 -->
<g id="edge12_Node000002_Node000007" class="edge">
<title>Node2&#45;&gt;Node7</title>
<g id="a_edge12_Node000002_Node000007"><a xlink:title=" ">
<path fill="none" stroke="#63b8ff" d="M130.86,-148.35C170.75,-152.3 222.68,-157.45 249.98,-160.15"/>
<polygon fill="#63b8ff" stroke="#63b8ff" points="131.23,-144.87 120.94,-147.37 130.54,-151.84 131.23,-144.87"/>
</a>
</g>
</g>
<!-- Node8 -->
<g id="Node000008" class="node">
<title>Node8</title>
<g id="a_Node000008"><a xlink:href="class_respawn_zone.html" target="_top" xlink:title=" ">
<polygon fill="white" stroke="#666666" points="309.12,-134 230.12,-134 230.12,-114 309.12,-114 309.12,-134"/>
<text text-anchor="middle" x="269.62" y="-120.5" font-family="Helvetica,sans-Serif" font-size="10.00">RespawnZone</text>
</a>
</g>
</g>
<!-- Node2&#45;&gt;Node8 -->
<g id="edge13_Node000002_Node000008" class="edge">
<title>Node2&#45;&gt;Node8</title>
<g id="a_edge13_Node000002_Node000008"><a xlink:title=" ">
<path fill="none" stroke="#63b8ff" d="M130.66,-137.67C162.18,-134.55 201.26,-130.67 229.77,-127.85"/>
<polygon fill="#63b8ff" stroke="#63b8ff" points="130.54,-134.16 120.94,-138.63 131.23,-141.13 130.54,-134.16"/>
</a>
</g>
</g>
<!-- Node9 -->
<g id="Node000009" class="node">
<title>Node9</title>
<g id="a_Node000009"><a xlink:href="class_spike.html" target="_top" xlink:title=" ">
<polygon fill="white" stroke="#666666" points="290,-96 249.25,-96 249.25,-76 290,-76 290,-96"/>
<text text-anchor="middle" x="269.62" y="-82.5" font-family="Helvetica,sans-Serif" font-size="10.00">Spike</text>
</a>
</g>
</g>
<!-- Node2&#45;&gt;Node9 -->
<g id="edge14_Node000002_Node000009" class="edge">
<title>Node2&#45;&gt;Node9</title>
<g id="a_edge14_Node000002_Node000009"><a xlink:title=" ">
<path fill="none" stroke="#63b8ff" d="M115.7,-128.64C136.84,-121.08 163.55,-111.97 187.75,-105 208.4,-99.05 232.41,-93.59 248.87,-90.07"/>
<polygon fill="#63b8ff" stroke="#63b8ff" points="114.53,-125.34 106.31,-132.02 116.9,-131.92 114.53,-125.34"/>
</a>
</g>
</g>
</g>
</svg>
