<?xml version="1.0" encoding="UTF-8" standalone="no"?>
<!DOCTYPE svg PUBLIC "-//W3C//DTD SVG 1.1//EN"
 "http://www.w3.org/Graphics/SVG/1.1/DTD/svg11.dtd">
<!-- Generated by graphviz version 12.2.1 (20241206.2353)
 -->
<!-- Title: utils::DistPointLineSegment Pages: 1 -->
<svg width="419pt" height="94pt"
 viewBox="0.00 0.00 419.00 94.00" xmlns="http://www.w3.org/2000/svg" xmlns:xlink="http://www.w3.org/1999/xlink">
<g id="graph0" class="graph" transform="scale(1 1) rotate(0) translate(4 90)">
<title>utils::DistPointLineSegment</title>
<!-- Node1 -->
<g id="Node000001" class="node">
<title>Node1</title>
<g id="a_Node000001"><a xlink:title=" ">
<polygon fill="#999999" stroke="#666666" points="137.5,-48 0,-48 0,-28 137.5,-28 137.5,-48"/>
<text text-anchor="middle" x="68.75" y="-34.5" font-family="Helvetica,sans-Serif" font-size="10.00">utils::DistPointLineSegment</text>
</a>
</g>
</g>
<!-- Node2 -->
<g id="Node000002" class="node">
<title>Node2</title>
<g id="a_Node000002"><a xlink:href="struct_vector2f.html#af8ceb9310d7065eb485e47b072a5b143" target="_top" xlink:title=" ">
<polygon fill="white" stroke="#666666" points="281,-86 173.5,-86 173.5,-66 281,-66 281,-86"/>
<text text-anchor="middle" x="227.25" y="-72.5" font-family="Helvetica,sans-Serif" font-size="10.00">Vector2f::DotProduct</text>
</a>
</g>
</g>
<!-- Node1&#45;&gt;Node2 -->
<g id="edge1_Node000001_Node000002" class="edge">
<title>Node1&#45;&gt;Node2</title>
<g id="a_edge1_Node000001_Node000002"><a xlink:title=" ">
<path fill="none" stroke="#63b8ff" d="M112.93,-48.48C131.23,-52.93 152.76,-58.16 172.11,-62.85"/>
<polygon fill="#63b8ff" stroke="#63b8ff" points="171.2,-66.23 181.74,-65.19 172.85,-59.43 171.2,-66.23"/>
</a>
</g>
</g>
<!-- Node4 -->
<g id="Node000004" class="node">
<title>Node4</title>
<g id="a_Node000004"><a xlink:href="struct_vector2f.html#acedb20d25ccc3009546e120eda010bf5" target="_top" xlink:title=" ">
<polygon fill="white" stroke="#666666" points="407.62,-20 320.38,-20 320.38,0 407.62,0 407.62,-20"/>
<text text-anchor="middle" x="364" y="-6.5" font-family="Helvetica,sans-Serif" font-size="10.00">Vector2f::Length</text>
</a>
</g>
</g>
<!-- Node1&#45;&gt;Node4 -->
<g id="edge4_Node000001_Node000004" class="edge">
<title>Node1&#45;&gt;Node4</title>
<g id="a_edge4_Node000001_Node000004"><a xlink:title=" ">
<path fill="none" stroke="#63b8ff" d="M119.42,-27.51C136.49,-24.28 155.76,-21.04 173.5,-19 218.87,-13.79 270.68,-11.59 308.65,-10.66"/>
<polygon fill="#63b8ff" stroke="#63b8ff" points="308.54,-14.16 318.46,-10.44 308.38,-7.16 308.54,-14.16"/>
</a>
</g>
</g>
<!-- Node5 -->
<g id="Node000005" class="node">
<title>Node5</title>
<g id="a_Node000005"><a xlink:href="struct_vector2f.html#aba5dd756c385551a19d36b57d8cbf629" target="_top" xlink:title=" ">
<polygon fill="white" stroke="#666666" points="281,-48 173.5,-48 173.5,-28 281,-28 281,-48"/>
<text text-anchor="middle" x="227.25" y="-34.5" font-family="Helvetica,sans-Serif" font-size="10.00">Vector2f::Normalized</text>
</a>
</g>
</g>
<!-- Node1&#45;&gt;Node5 -->
<g id="edge5_Node000001_Node000005" class="edge">
<title>Node1&#45;&gt;Node5</title>
<g id="a_edge5_Node000001_Node000005"><a xlink:title=" ">
<path fill="none" stroke="#63b8ff" d="M137.94,-38C145.91,-38 154.02,-38 161.93,-38"/>
<polygon fill="#63b8ff" stroke="#63b8ff" points="161.83,-41.5 171.83,-38 161.83,-34.5 161.83,-41.5"/>
</a>
</g>
</g>
<!-- Node3 -->
<g id="Node000003" class="node">
<title>Node3</title>
<g id="a_Node000003"><a xlink:href="struct_vector2f.html#a3db9a868c58bc809e5e09a88d65a77ec" target="_top" xlink:title=" ">
<polygon fill="white" stroke="#666666" points="411,-67 317,-67 317,-47 411,-47 411,-67"/>
<text text-anchor="middle" x="364" y="-53.5" font-family="Helvetica,sans-Serif" font-size="10.00">Vector2f::Vector2f</text>
</a>
</g>
</g>
<!-- Node2&#45;&gt;Node3 -->
<g id="edge2_Node000002_Node000003" class="edge">
<title>Node2&#45;&gt;Node3</title>
<g id="a_edge2_Node000002_Node000003"><a xlink:title=" ">
<path fill="none" stroke="#63b8ff" d="M281.12,-68.55C289.14,-67.41 297.44,-66.24 305.55,-65.1"/>
<polygon fill="#63b8ff" stroke="#63b8ff" points="305.93,-68.58 315.34,-63.72 304.95,-61.65 305.93,-68.58"/>
</a>
</g>
</g>
<!-- Node3&#45;&gt;Node3 -->
<g id="edge3_Node000003_Node000003" class="edge">
<title>Node3&#45;&gt;Node3</title>
<g id="a_edge3_Node000003_Node000003"><a xlink:title=" ">
<path fill="none" stroke="#63b8ff" d="M342.27,-67.34C332.99,-75.98 340.23,-85 364,-85 377,-85 385.06,-82.3 388.17,-78.44"/>
<polygon fill="#63b8ff" stroke="#63b8ff" points="391.62,-77.83 386.05,-68.82 384.78,-79.34 391.62,-77.83"/>
</a>
</g>
</g>
<!-- Node5&#45;&gt;Node3 -->
<g id="edge7_Node000005_Node000003" class="edge">
<title>Node5&#45;&gt;Node3</title>
<g id="a_edge7_Node000005_Node000003"><a xlink:title=" ">
<path fill="none" stroke="#63b8ff" d="M281.12,-45.45C289.14,-46.59 297.44,-47.76 305.55,-48.9"/>
<polygon fill="#63b8ff" stroke="#63b8ff" points="304.95,-52.35 315.34,-50.28 305.93,-45.42 304.95,-52.35"/>
</a>
</g>
</g>
<!-- Node5&#45;&gt;Node4 -->
<g id="edge6_Node000005_Node000004" class="edge">
<title>Node5&#45;&gt;Node4</title>
<g id="a_edge6_Node000005_Node000004"><a xlink:title=" ">
<path fill="none" stroke="#63b8ff" d="M278.43,-27.57C288.43,-25.5 298.97,-23.3 309.1,-21.2"/>
<polygon fill="#63b8ff" stroke="#63b8ff" points="309.73,-24.64 318.81,-19.18 308.31,-17.79 309.73,-24.64"/>
</a>
</g>
</g>
</g>
</svg>
