<?xml version="1.0" encoding="UTF-8" standalone="no"?>
<!DOCTYPE svg PUBLIC "-//W3C//DTD SVG 1.1//EN"
 "http://www.w3.org/Graphics/SVG/1.1/DTD/svg11.dtd">
<!-- Generated by graphviz version 12.2.1 (20241206.2353)
 -->
<!-- Title: utils::IsPointOnLineSegment Pages: 1 -->
<svg width="433pt" height="66pt"
 viewBox="0.00 0.00 432.50 66.00" xmlns="http://www.w3.org/2000/svg" xmlns:xlink="http://www.w3.org/1999/xlink">
<g id="graph0" class="graph" transform="scale(1 1) rotate(0) translate(4 62)">
<title>utils::IsPointOnLineSegment</title>
<!-- Node1 -->
<g id="Node000001" class="node">
<title>Node1</title>
<g id="a_Node000001"><a xlink:title=" ">
<polygon fill="#999999" stroke="#666666" points="140.5,-39 0,-39 0,-19 140.5,-19 140.5,-39"/>
<text text-anchor="middle" x="70.25" y="-25.5" font-family="Helvetica,sans-Serif" font-size="10.00">utils::IsPointOnLineSegment</text>
</a>
</g>
</g>
<!-- Node2 -->
<g id="Node000002" class="node">
<title>Node2</title>
<g id="a_Node000002"><a xlink:href="struct_vector2f.html#ab99fa60e5b7af169760de9057863423b" target="_top" xlink:title=" ">
<polygon fill="white" stroke="#666666" points="294.5,-58 176.5,-58 176.5,-38 294.5,-38 294.5,-58"/>
<text text-anchor="middle" x="235.5" y="-44.5" font-family="Helvetica,sans-Serif" font-size="10.00">Vector2f::CrossProduct</text>
</a>
</g>
</g>
<!-- Node1&#45;&gt;Node2 -->
<g id="edge1_Node000001_Node000002" class="edge">
<title>Node1&#45;&gt;Node2</title>
<g id="a_edge1_Node000001_Node000002"><a xlink:title=" ">
<path fill="none" stroke="#63b8ff" d="M140.96,-37.11C148.82,-38.03 156.83,-38.96 164.69,-39.88"/>
<polygon fill="#63b8ff" stroke="#63b8ff" points="164.23,-43.34 174.56,-41.02 165.03,-36.39 164.23,-43.34"/>
</a>
</g>
</g>
<!-- Node4 -->
<g id="Node000004" class="node">
<title>Node4</title>
<g id="a_Node000004"><a xlink:href="struct_vector2f.html#af8ceb9310d7065eb485e47b072a5b143" target="_top" xlink:title=" ">
<polygon fill="white" stroke="#666666" points="289.25,-20 181.75,-20 181.75,0 289.25,0 289.25,-20"/>
<text text-anchor="middle" x="235.5" y="-6.5" font-family="Helvetica,sans-Serif" font-size="10.00">Vector2f::DotProduct</text>
</a>
</g>
</g>
<!-- Node1&#45;&gt;Node4 -->
<g id="edge4_Node000001_Node000004" class="edge">
<title>Node1&#45;&gt;Node4</title>
<g id="a_edge4_Node000001_Node000004"><a xlink:title=" ">
<path fill="none" stroke="#63b8ff" d="M140.96,-20.89C150.57,-19.77 160.4,-18.62 169.92,-17.52"/>
<polygon fill="#63b8ff" stroke="#63b8ff" points="170.29,-21 179.82,-16.36 169.48,-14.04 170.29,-21"/>
</a>
</g>
</g>
<!-- Node3 -->
<g id="Node000003" class="node">
<title>Node3</title>
<g id="a_Node000003"><a xlink:href="struct_vector2f.html#a3db9a868c58bc809e5e09a88d65a77ec" target="_top" xlink:title=" ">
<polygon fill="white" stroke="#666666" points="424.5,-39 330.5,-39 330.5,-19 424.5,-19 424.5,-39"/>
<text text-anchor="middle" x="377.5" y="-25.5" font-family="Helvetica,sans-Serif" font-size="10.00">Vector2f::Vector2f</text>
</a>
</g>
</g>
<!-- Node2&#45;&gt;Node3 -->
<g id="edge2_Node000002_Node000003" class="edge">
<title>Node2&#45;&gt;Node3</title>
<g id="a_edge2_Node000002_Node000003"><a xlink:title=" ">
<path fill="none" stroke="#63b8ff" d="M294.66,-40.11C302.72,-39.01 311.01,-37.89 319.06,-36.8"/>
<polygon fill="#63b8ff" stroke="#63b8ff" points="319.31,-40.29 328.75,-35.48 318.37,-33.36 319.31,-40.29"/>
</a>
</g>
</g>
<!-- Node3&#45;&gt;Node3 -->
<g id="edge3_Node000003_Node000003" class="edge">
<title>Node3&#45;&gt;Node3</title>
<g id="a_edge3_Node000003_Node000003"><a xlink:title=" ">
<path fill="none" stroke="#63b8ff" d="M354.94,-39.34C345.3,-47.98 352.82,-57 377.5,-57 391,-57 399.36,-54.3 402.6,-50.44"/>
<polygon fill="#63b8ff" stroke="#63b8ff" points="406.04,-49.78 400.4,-40.81 399.21,-51.34 406.04,-49.78"/>
</a>
</g>
</g>
<!-- Node4&#45;&gt;Node3 -->
<g id="edge5_Node000004_Node000003" class="edge">
<title>Node4&#45;&gt;Node3</title>
<g id="a_edge5_Node000004_Node000003"><a xlink:title=" ">
<path fill="none" stroke="#63b8ff" d="M289.43,-17.18C299.11,-18.5 309.26,-19.87 319.07,-21.21"/>
<polygon fill="#63b8ff" stroke="#63b8ff" points="318.5,-24.66 328.88,-22.54 319.44,-17.72 318.5,-24.66"/>
</a>
</g>
</g>
</g>
</svg>
