<?xml version="1.0" encoding="UTF-8" standalone="no"?>
<!DOCTYPE svg PUBLIC "-//W3C//DTD SVG 1.1//EN"
 "http://www.w3.org/Graphics/SVG/1.1/DTD/svg11.dtd">
<!-- Generated by graphviz version 12.2.1 (20241206.2353)
 -->
<!-- Title: utils::IsPointInPolygon Pages: 1 -->
<svg width="759pt" height="66pt"
 viewBox="0.00 0.00 759.25 66.00" xmlns="http://www.w3.org/2000/svg" xmlns:xlink="http://www.w3.org/1999/xlink">
<g id="graph0" class="graph" transform="scale(1 1) rotate(0) translate(4 62)">
<title>utils::IsPointInPolygon</title>
<!-- Node1 -->
<g id="Node000001" class="node">
<title>Node1</title>
<g id="a_Node000001"><a xlink:title=" ">
<polygon fill="#999999" stroke="#666666" points="114.25,-39 0,-39 0,-19 114.25,-19 114.25,-39"/>
<text text-anchor="middle" x="57.12" y="-25.5" font-family="Helvetica,sans-Serif" font-size="10.00">utils::IsPointInPolygon</text>
</a>
</g>
</g>
<!-- Node2 -->
<g id="Node000002" class="node">
<title>Node2</title>
<g id="a_Node000002"><a xlink:href="namespaceutils.html#a9ef86448634b099a56f145753593ab2f" target="_top" xlink:title=" ">
<polygon fill="white" stroke="#666666" points="290.75,-39 150.25,-39 150.25,-19 290.75,-19 290.75,-39"/>
<text text-anchor="middle" x="220.5" y="-25.5" font-family="Helvetica,sans-Serif" font-size="10.00">utils::IntersectLineSegments</text>
</a>
</g>
</g>
<!-- Node1&#45;&gt;Node2 -->
<g id="edge1_Node000001_Node000002" class="edge">
<title>Node1&#45;&gt;Node2</title>
<g id="a_edge1_Node000001_Node000002"><a xlink:title=" ">
<path fill="none" stroke="#63b8ff" d="M114.57,-29C122.35,-29 130.47,-29 138.58,-29"/>
<polygon fill="#63b8ff" stroke="#63b8ff" points="138.52,-32.5 148.52,-29 138.52,-25.5 138.52,-32.5"/>
</a>
</g>
</g>
<!-- Node3 -->
<g id="Node000003" class="node">
<title>Node3</title>
<g id="a_Node000003"><a xlink:href="struct_vector2f.html#ab99fa60e5b7af169760de9057863423b" target="_top" xlink:title=" ">
<polygon fill="white" stroke="#666666" points="621.25,-58 503.25,-58 503.25,-38 621.25,-38 621.25,-58"/>
<text text-anchor="middle" x="562.25" y="-44.5" font-family="Helvetica,sans-Serif" font-size="10.00">Vector2f::CrossProduct</text>
</a>
</g>
</g>
<!-- Node2&#45;&gt;Node3 -->
<g id="edge2_Node000002_Node000003" class="edge">
<title>Node2&#45;&gt;Node3</title>
<g id="a_edge2_Node000002_Node000003"><a xlink:title=" ">
<path fill="none" stroke="#63b8ff" d="M291.07,-32.89C349.59,-36.16 432.84,-40.82 491.42,-44.1"/>
<polygon fill="#63b8ff" stroke="#63b8ff" points="491.11,-47.58 501.29,-44.65 491.5,-40.59 491.11,-47.58"/>
</a>
</g>
</g>
<!-- Node5 -->
<g id="Node000005" class="node">
<title>Node5</title>
<g id="a_Node000005"><a xlink:href="namespaceutils.html#afa48cca7d08708b5ce3581974e9c39aa" target="_top" xlink:title=" ">
<polygon fill="white" stroke="#666666" points="467.25,-20 326.75,-20 326.75,0 467.25,0 467.25,-20"/>
<text text-anchor="middle" x="397" y="-6.5" font-family="Helvetica,sans-Serif" font-size="10.00">utils::IsPointOnLineSegment</text>
</a>
</g>
</g>
<!-- Node2&#45;&gt;Node5 -->
<g id="edge5_Node000002_Node000005" class="edge">
<title>Node2&#45;&gt;Node5</title>
<g id="a_edge5_Node000002_Node000005"><a xlink:title=" ">
<path fill="none" stroke="#63b8ff" d="M291.22,-21.41C299.09,-20.55 307.16,-19.67 315.16,-18.8"/>
<polygon fill="#63b8ff" stroke="#63b8ff" points="315.32,-22.3 324.89,-17.74 314.57,-15.35 315.32,-22.3"/>
</a>
</g>
</g>
<!-- Node4 -->
<g id="Node000004" class="node">
<title>Node4</title>
<g id="a_Node000004"><a xlink:href="struct_vector2f.html#a3db9a868c58bc809e5e09a88d65a77ec" target="_top" xlink:title=" ">
<polygon fill="white" stroke="#666666" points="751.25,-39 657.25,-39 657.25,-19 751.25,-19 751.25,-39"/>
<text text-anchor="middle" x="704.25" y="-25.5" font-family="Helvetica,sans-Serif" font-size="10.00">Vector2f::Vector2f</text>
</a>
</g>
</g>
<!-- Node3&#45;&gt;Node4 -->
<g id="edge3_Node000003_Node000004" class="edge">
<title>Node3&#45;&gt;Node4</title>
<g id="a_edge3_Node000003_Node000004"><a xlink:title=" ">
<path fill="none" stroke="#63b8ff" d="M621.41,-40.11C629.47,-39.01 637.76,-37.89 645.81,-36.8"/>
<polygon fill="#63b8ff" stroke="#63b8ff" points="646.06,-40.29 655.5,-35.48 645.12,-33.36 646.06,-40.29"/>
</a>
</g>
</g>
<!-- Node4&#45;&gt;Node4 -->
<g id="edge4_Node000004_Node000004" class="edge">
<title>Node4&#45;&gt;Node4</title>
<g id="a_edge4_Node000004_Node000004"><a xlink:title=" ">
<path fill="none" stroke="#63b8ff" d="M681.69,-39.34C672.05,-47.98 679.57,-57 704.25,-57 717.75,-57 726.11,-54.3 729.35,-50.44"/>
<polygon fill="#63b8ff" stroke="#63b8ff" points="732.79,-49.78 727.15,-40.81 725.96,-51.34 732.79,-49.78"/>
</a>
</g>
</g>
<!-- Node5&#45;&gt;Node3 -->
<g id="edge6_Node000005_Node000003" class="edge">
<title>Node5&#45;&gt;Node3</title>
<g id="a_edge6_Node000005_Node000003"><a xlink:title=" ">
<path fill="none" stroke="#63b8ff" d="M443.04,-20.48C462.31,-24.97 485.01,-30.25 505.34,-34.99"/>
<polygon fill="#63b8ff" stroke="#63b8ff" points="504.35,-38.35 514.88,-37.21 505.94,-31.53 504.35,-38.35"/>
</a>
</g>
</g>
<!-- Node6 -->
<g id="Node000006" class="node">
<title>Node6</title>
<g id="a_Node000006"><a xlink:href="struct_vector2f.html#af8ceb9310d7065eb485e47b072a5b143" target="_top" xlink:title=" ">
<polygon fill="white" stroke="#666666" points="616,-20 508.5,-20 508.5,0 616,0 616,-20"/>
<text text-anchor="middle" x="562.25" y="-6.5" font-family="Helvetica,sans-Serif" font-size="10.00">Vector2f::DotProduct</text>
</a>
</g>
</g>
<!-- Node5&#45;&gt;Node6 -->
<g id="edge7_Node000005_Node000006" class="edge">
<title>Node5&#45;&gt;Node6</title>
<g id="a_edge7_Node000005_Node000006"><a xlink:title=" ">
<path fill="none" stroke="#63b8ff" d="M467.71,-10C477.32,-10 487.15,-10 496.67,-10"/>
<polygon fill="#63b8ff" stroke="#63b8ff" points="496.56,-13.5 506.56,-10 496.56,-6.5 496.56,-13.5"/>
</a>
</g>
</g>
<!-- Node6&#45;&gt;Node4 -->
<g id="edge8_Node000006_Node000004" class="edge">
<title>Node6&#45;&gt;Node4</title>
<g id="a_edge8_Node000006_Node000004"><a xlink:title=" ">
<path fill="none" stroke="#63b8ff" d="M616.18,-17.18C625.86,-18.5 636.01,-19.87 645.82,-21.21"/>
<polygon fill="#63b8ff" stroke="#63b8ff" points="645.25,-24.66 655.63,-22.54 646.19,-17.72 645.25,-24.66"/>
</a>
</g>
</g>
</g>
</svg>
