<?xml version="1.0" encoding="UTF-8" standalone="no"?>
<!DOCTYPE svg PUBLIC "-//W3C//DTD SVG 1.1//EN"
 "http://www.w3.org/Graphics/SVG/1.1/DTD/svg11.dtd">
<!-- Generated by graphviz version 12.2.1 (20241206.2353)
 -->
<!-- Title: utils::IntersectLineSegments Pages: 1 -->
<svg width="609pt" height="66pt"
 viewBox="0.00 0.00 609.00 66.00" xmlns="http://www.w3.org/2000/svg" xmlns:xlink="http://www.w3.org/1999/xlink">
<g id="graph0" class="graph" transform="scale(1 1) rotate(0) translate(4 62)">
<title>utils::IntersectLineSegments</title>
<!-- Node1 -->
<g id="Node000001" class="node">
<title>Node1</title>
<g id="a_Node000001"><a xlink:title=" ">
<polygon fill="#999999" stroke="#666666" points="140.5,-39 0,-39 0,-19 140.5,-19 140.5,-39"/>
<text text-anchor="middle" x="70.25" y="-25.5" font-family="Helvetica,sans-Serif" font-size="10.00">utils::IntersectLineSegments</text>
</a>
</g>
</g>
<!-- Node2 -->
<g id="Node000002" class="node">
<title>Node2</title>
<g id="a_Node000002"><a xlink:href="struct_vector2f.html#ab99fa60e5b7af169760de9057863423b" target="_top" xlink:title=" ">
<polygon fill="white" stroke="#666666" points="471,-58 353,-58 353,-38 471,-38 471,-58"/>
<text text-anchor="middle" x="412" y="-44.5" font-family="Helvetica,sans-Serif" font-size="10.00">Vector2f::CrossProduct</text>
</a>
</g>
</g>
<!-- Node1&#45;&gt;Node2 -->
<g id="edge1_Node000001_Node000002" class="edge">
<title>Node1&#45;&gt;Node2</title>
<g id="a_edge1_Node000001_Node000002"><a xlink:title=" ">
<path fill="none" stroke="#63b8ff" d="M140.82,-32.89C199.34,-36.16 282.59,-40.82 341.17,-44.1"/>
<polygon fill="#63b8ff" stroke="#63b8ff" points="340.86,-47.58 351.04,-44.65 341.25,-40.59 340.86,-47.58"/>
</a>
</g>
</g>
<!-- Node4 -->
<g id="Node000004" class="node">
<title>Node4</title>
<g id="a_Node000004"><a xlink:href="namespaceutils.html#afa48cca7d08708b5ce3581974e9c39aa" target="_top" xlink:title=" ">
<polygon fill="white" stroke="#666666" points="317,-20 176.5,-20 176.5,0 317,0 317,-20"/>
<text text-anchor="middle" x="246.75" y="-6.5" font-family="Helvetica,sans-Serif" font-size="10.00">utils::IsPointOnLineSegment</text>
</a>
</g>
</g>
<!-- Node1&#45;&gt;Node4 -->
<g id="edge4_Node000001_Node000004" class="edge">
<title>Node1&#45;&gt;Node4</title>
<g id="a_edge4_Node000001_Node000004"><a xlink:title=" ">
<path fill="none" stroke="#63b8ff" d="M140.97,-21.41C148.84,-20.55 156.91,-19.67 164.91,-18.8"/>
<polygon fill="#63b8ff" stroke="#63b8ff" points="165.07,-22.3 174.64,-17.74 164.32,-15.35 165.07,-22.3"/>
</a>
</g>
</g>
<!-- Node3 -->
<g id="Node000003" class="node">
<title>Node3</title>
<g id="a_Node000003"><a xlink:href="struct_vector2f.html#a3db9a868c58bc809e5e09a88d65a77ec" target="_top" xlink:title=" ">
<polygon fill="white" stroke="#666666" points="601,-39 507,-39 507,-19 601,-19 601,-39"/>
<text text-anchor="middle" x="554" y="-25.5" font-family="Helvetica,sans-Serif" font-size="10.00">Vector2f::Vector2f</text>
</a>
</g>
</g>
<!-- Node2&#45;&gt;Node3 -->
<g id="edge2_Node000002_Node000003" class="edge">
<title>Node2&#45;&gt;Node3</title>
<g id="a_edge2_Node000002_Node000003"><a xlink:title=" ">
<path fill="none" stroke="#63b8ff" d="M471.16,-40.11C479.22,-39.01 487.51,-37.89 495.56,-36.8"/>
<polygon fill="#63b8ff" stroke="#63b8ff" points="495.81,-40.29 505.25,-35.48 494.87,-33.36 495.81,-40.29"/>
</a>
</g>
</g>
<!-- Node3&#45;&gt;Node3 -->
<g id="edge3_Node000003_Node000003" class="edge">
<title>Node3&#45;&gt;Node3</title>
<g id="a_edge3_Node000003_Node000003"><a xlink:title=" ">
<path fill="none" stroke="#63b8ff" d="M531.44,-39.34C521.8,-47.98 529.32,-57 554,-57 567.5,-57 575.86,-54.3 579.1,-50.44"/>
<polygon fill="#63b8ff" stroke="#63b8ff" points="582.54,-49.78 576.9,-40.81 575.71,-51.34 582.54,-49.78"/>
</a>
</g>
</g>
<!-- Node4&#45;&gt;Node2 -->
<g id="edge5_Node000004_Node000002" class="edge">
<title>Node4&#45;&gt;Node2</title>
<g id="a_edge5_Node000004_Node000002"><a xlink:title=" ">
<path fill="none" stroke="#63b8ff" d="M292.79,-20.48C312.06,-24.97 334.76,-30.25 355.09,-34.99"/>
<polygon fill="#63b8ff" stroke="#63b8ff" points="354.1,-38.35 364.63,-37.21 355.69,-31.53 354.1,-38.35"/>
</a>
</g>
</g>
<!-- Node5 -->
<g id="Node000005" class="node">
<title>Node5</title>
<g id="a_Node000005"><a xlink:href="struct_vector2f.html#af8ceb9310d7065eb485e47b072a5b143" target="_top" xlink:title=" ">
<polygon fill="white" stroke="#666666" points="465.75,-20 358.25,-20 358.25,0 465.75,0 465.75,-20"/>
<text text-anchor="middle" x="412" y="-6.5" font-family="Helvetica,sans-Serif" font-size="10.00">Vector2f::DotProduct</text>
</a>
</g>
</g>
<!-- Node4&#45;&gt;Node5 -->
<g id="edge6_Node000004_Node000005" class="edge">
<title>Node4&#45;&gt;Node5</title>
<g id="a_edge6_Node000004_Node000005"><a xlink:title=" ">
<path fill="none" stroke="#63b8ff" d="M317.46,-10C327.07,-10 336.9,-10 346.42,-10"/>
<polygon fill="#63b8ff" stroke="#63b8ff" points="346.31,-13.5 356.31,-10 346.31,-6.5 346.31,-13.5"/>
</a>
</g>
</g>
<!-- Node5&#45;&gt;Node3 -->
<g id="edge7_Node000005_Node000003" class="edge">
<title>Node5&#45;&gt;Node3</title>
<g id="a_edge7_Node000005_Node000003"><a xlink:title=" ">
<path fill="none" stroke="#63b8ff" d="M465.93,-17.18C475.61,-18.5 485.76,-19.87 495.57,-21.21"/>
<polygon fill="#63b8ff" stroke="#63b8ff" points="495,-24.66 505.38,-22.54 495.94,-17.72 495,-24.66"/>
</a>
</g>
</g>
</g>
</svg>
