<?xml version="1.0" encoding="UTF-8" standalone="no"?>
<!DOCTYPE svg PUBLIC "-//W3C//DTD SVG 1.1//EN"
 "http://www.w3.org/Graphics/SVG/1.1/DTD/svg11.dtd">
<!-- Generated by graphviz version 12.2.1 (20241206.2353)
 -->
<!-- Title: utils::FillRect Pages: 1 -->
<svg width="400pt" height="142pt"
 viewBox="0.00 0.00 400.25 142.00" xmlns="http://www.w3.org/2000/svg" xmlns:xlink="http://www.w3.org/1999/xlink">
<g id="graph0" class="graph" transform="scale(1 1) rotate(0) translate(4 138)">
<title>utils::FillRect</title>
<!-- Node1 -->
<g id="Node000001" class="node">
<title>Node1</title>
<g id="a_Node000001"><a xlink:title=" ">
<polygon fill="#999999" stroke="#666666" points="392.25,-77 318.5,-77 318.5,-57 392.25,-57 392.25,-77"/>
<text text-anchor="middle" x="355.38" y="-63.5" font-family="Helvetica,sans-Serif" font-size="10.00">utils::FillRect</text>
</a>
</g>
</g>
<!-- Node2 -->
<g id="Node000002" class="node">
<title>Node2</title>
<g id="a_Node000002"><a xlink:href="class_pause_menu.html#a409928f2d75d3a7f865d75d23aeb50d6" target="_top" xlink:title=" ">
<polygon fill="white" stroke="#666666" points="265.25,-134 168.25,-134 168.25,-114 265.25,-114 265.25,-134"/>
<text text-anchor="middle" x="216.75" y="-120.5" font-family="Helvetica,sans-Serif" font-size="10.00">PauseMenu::Draw</text>
</a>
</g>
</g>
<!-- Node1&#45;&gt;Node2 -->
<g id="edge1_Node000001_Node000002" class="edge">
<title>Node1&#45;&gt;Node2</title>
<g id="a_edge1_Node000001_Node000002"><a xlink:title=" ">
<path fill="none" stroke="#63b8ff" d="M327.27,-82.99C314.07,-90.34 297.77,-98.8 282.5,-105 274.69,-108.17 266.14,-111.07 257.9,-113.58"/>
<polygon fill="#63b8ff" stroke="#63b8ff" points="328.85,-86.12 335.81,-78.13 325.39,-80.03 328.85,-86.12"/>
</a>
</g>
</g>
<!-- Node4 -->
<g id="Node000004" class="node">
<title>Node4</title>
<g id="a_Node000004"><a xlink:href="class_snow_flake_manager.html#ac970433acd611cefd4db963e0b2c2fe6" target="_top" xlink:title=" ">
<polygon fill="white" stroke="#666666" points="282.5,-96 151,-96 151,-76 282.5,-76 282.5,-96"/>
<text text-anchor="middle" x="216.75" y="-82.5" font-family="Helvetica,sans-Serif" font-size="10.00">SnowFlakeManager::Draw</text>
</a>
</g>
</g>
<!-- Node1&#45;&gt;Node4 -->
<g id="edge3_Node000001_Node000004" class="edge">
<title>Node1&#45;&gt;Node4</title>
<g id="a_edge3_Node000001_Node000004"><a xlink:title=" ">
<path fill="none" stroke="#63b8ff" d="M306.79,-73.62C299.09,-74.69 291.01,-75.81 282.98,-76.93"/>
<polygon fill="#63b8ff" stroke="#63b8ff" points="307.2,-77.09 316.62,-72.25 306.23,-70.16 307.2,-77.09"/>
</a>
</g>
</g>
<!-- Node5 -->
<g id="Node000005" class="node">
<title>Node5</title>
<g id="a_Node000005"><a xlink:href="namespaceutils.html#aafcb149df86e64eaaa303e60a179f349" target="_top" xlink:title=" ">
<polygon fill="white" stroke="#666666" points="253.62,-58 179.88,-58 179.88,-38 253.62,-38 253.62,-58"/>
<text text-anchor="middle" x="216.75" y="-44.5" font-family="Helvetica,sans-Serif" font-size="10.00">utils::FillRect</text>
</a>
</g>
</g>
<!-- Node1&#45;&gt;Node5 -->
<g id="edge4_Node000001_Node000005" class="edge">
<title>Node1&#45;&gt;Node5</title>
<g id="a_edge4_Node000001_Node000005"><a xlink:title=" ">
<path fill="none" stroke="#63b8ff" d="M306.98,-60.41C289.5,-57.98 270,-55.27 253.7,-53"/>
<polygon fill="#63b8ff" stroke="#63b8ff" points="306.23,-63.84 316.62,-61.75 307.2,-56.91 306.23,-63.84"/>
</a>
</g>
</g>
<!-- Node6 -->
<g id="Node000006" class="node">
<title>Node6</title>
<g id="a_Node000006"><a xlink:href="namespaceutils.html#ab39c50fd9be52594488f59e4d381da0f" target="_top" xlink:title=" ">
<polygon fill="white" stroke="#666666" points="253.62,-20 179.88,-20 179.88,0 253.62,0 253.62,-20"/>
<text text-anchor="middle" x="216.75" y="-6.5" font-family="Helvetica,sans-Serif" font-size="10.00">utils::FillRect</text>
</a>
</g>
</g>
<!-- Node1&#45;&gt;Node6 -->
<g id="edge5_Node000001_Node000006" class="edge">
<title>Node1&#45;&gt;Node6</title>
<g id="a_edge5_Node000001_Node000006"><a xlink:title=" ">
<path fill="none" stroke="#63b8ff" d="M327.27,-51.01C314.07,-43.66 297.77,-35.2 282.5,-29 273.38,-25.3 263.28,-21.98 253.81,-19.19"/>
<polygon fill="#63b8ff" stroke="#63b8ff" points="325.39,-53.97 335.81,-55.87 328.85,-47.88 325.39,-53.97"/>
</a>
</g>
</g>
<!-- Node3 -->
<g id="Node000003" class="node">
<title>Node3</title>
<g id="a_Node000003"><a xlink:href="class_pause_menu.html#a7836f2da72d5d33788330340be6bcb0d" target="_top" xlink:title=" ">
<polygon fill="white" stroke="#666666" points="115,-134 0,-134 0,-114 115,-114 115,-134"/>
<text text-anchor="middle" x="57.5" y="-120.5" font-family="Helvetica,sans-Serif" font-size="10.00">PauseMenu::operator=</text>
</a>
</g>
</g>
<!-- Node2&#45;&gt;Node3 -->
<g id="edge2_Node000002_Node000003" class="edge">
<title>Node2&#45;&gt;Node3</title>
<g id="a_edge2_Node000002_Node000003"><a xlink:title=" ">
<path fill="none" stroke="#63b8ff" d="M156.95,-124C143.34,-124 128.89,-124 115.36,-124"/>
<polygon fill="#63b8ff" stroke="#63b8ff" points="156.63,-127.5 166.63,-124 156.63,-120.5 156.63,-127.5"/>
</a>
</g>
</g>
</g>
</svg>
