<?xml version="1.0" encoding="UTF-8" standalone="no"?>
<!DOCTYPE svg PUBLIC "-//W3C//DTD SVG 1.1//EN"
 "http://www.w3.org/Graphics/SVG/1.1/DTD/svg11.dtd">
<!-- Generated by graphviz version 12.2.1 (20241206.2353)
 -->
<!-- Title: utils::DrawLine Pages: 1 -->
<svg width="217pt" height="66pt"
 viewBox="0.00 0.00 217.00 66.00" xmlns="http://www.w3.org/2000/svg" xmlns:xlink="http://www.w3.org/1999/xlink">
<g id="graph0" class="graph" transform="scale(1 1) rotate(0) translate(4 62)">
<title>utils::DrawLine</title>
<!-- Node1 -->
<g id="Node000001" class="node">
<title>Node1</title>
<g id="a_Node000001"><a xlink:title=" ">
<polygon fill="#999999" stroke="#666666" points="209,-39 127.75,-39 127.75,-19 209,-19 209,-39"/>
<text text-anchor="middle" x="168.38" y="-25.5" font-family="Helvetica,sans-Serif" font-size="10.00">utils::DrawLine</text>
</a>
</g>
</g>
<!-- Node2 -->
<g id="Node000002" class="node">
<title>Node2</title>
<g id="a_Node000002"><a xlink:href="struct_vector2x2f.html#add10252cf42f6ff41c01f7619f1fa9c8" target="_top" xlink:title=" ">
<polygon fill="white" stroke="#666666" points="91.75,-58 0,-58 0,-38 91.75,-38 91.75,-58"/>
<text text-anchor="middle" x="45.88" y="-44.5" font-family="Helvetica,sans-Serif" font-size="10.00">Vector2x2f::Draw</text>
</a>
</g>
</g>
<!-- Node1&#45;&gt;Node2 -->
<g id="edge1_Node000001_Node000002" class="edge">
<title>Node1&#45;&gt;Node2</title>
<g id="a_edge1_Node000001_Node000002"><a xlink:title=" ">
<path fill="none" stroke="#63b8ff" d="M115.92,-37.11C108.05,-38.35 99.96,-39.63 92.23,-40.85"/>
<polygon fill="#63b8ff" stroke="#63b8ff" points="116.42,-40.58 125.76,-35.56 115.33,-33.66 116.42,-40.58"/>
</a>
</g>
</g>
<!-- Node3 -->
<g id="Node000003" class="node">
<title>Node3</title>
<g id="a_Node000003"><a xlink:href="namespaceutils.html#ab45bf1c60021490b5b9dc6b0d2f29196" target="_top" xlink:title=" ">
<polygon fill="white" stroke="#666666" points="86.5,-20 5.25,-20 5.25,0 86.5,0 86.5,-20"/>
<text text-anchor="middle" x="45.88" y="-6.5" font-family="Helvetica,sans-Serif" font-size="10.00">utils::DrawLine</text>
</a>
</g>
</g>
<!-- Node1&#45;&gt;Node3 -->
<g id="edge2_Node000001_Node000003" class="edge">
<title>Node1&#45;&gt;Node3</title>
<g id="a_edge2_Node000001_Node000003"><a xlink:title=" ">
<path fill="none" stroke="#63b8ff" d="M116,-20.9C106.24,-19.36 96.16,-17.77 86.82,-16.3"/>
<polygon fill="#63b8ff" stroke="#63b8ff" points="115.33,-24.34 125.76,-22.44 116.42,-17.42 115.33,-24.34"/>
</a>
</g>
</g>
</g>
</svg>
