<?xml version="1.0" encoding="UTF-8" standalone="no"?>
<!DOCTYPE svg PUBLIC "-//W3C//DTD SVG 1.1//EN"
 "http://www.w3.org/Graphics/SVG/1.1/DTD/svg11.dtd">
<!-- Generated by graphviz version 12.2.1 (20241206.2353)
 -->
<!-- Title: utils::IsPointInPolygon Pages: 1 -->
<svg width="258pt" height="46pt"
 viewBox="0.00 0.00 258.25 46.00" xmlns="http://www.w3.org/2000/svg" xmlns:xlink="http://www.w3.org/1999/xlink">
<g id="graph0" class="graph" transform="scale(1 1) rotate(0) translate(4 42)">
<title>utils::IsPointInPolygon</title>
<!-- Node1 -->
<g id="Node000001" class="node">
<title>Node1</title>
<g id="a_Node000001"><a xlink:title=" ">
<polygon fill="#999999" stroke="#666666" points="250.25,-20 136,-20 136,0 250.25,0 250.25,-20"/>
<text text-anchor="middle" x="193.12" y="-6.5" font-family="Helvetica,sans-Serif" font-size="10.00">utils::IsPointInPolygon</text>
</a>
</g>
</g>
<!-- Node1&#45;&gt;Node1 -->
<g id="edge2_Node000001_Node000001" class="edge">
<title>Node1&#45;&gt;Node1</title>
<g id="a_edge2_Node000001_Node000001"><a xlink:title=" ">
<path fill="none" stroke="#63b8ff" d="M218.42,-31.44C215.16,-35.3 206.73,-38 193.12,-38 168.25,-38 160.67,-28.98 170.38,-20.34"/>
<polygon fill="#63b8ff" stroke="#63b8ff" points="221.86,-30.77 216.21,-21.81 215.04,-32.34 221.86,-30.77"/>
</a>
</g>
</g>
<!-- Node2 -->
<g id="Node000002" class="node">
<title>Node2</title>
<g id="a_Node000002"><a xlink:href="namespaceutils.html#add1fefb9b373117ac9b359c75c7ea620" target="_top" xlink:title=" ">
<polygon fill="white" stroke="#666666" points="100,-20 0,-20 0,0 100,0 100,-20"/>
<text text-anchor="middle" x="50" y="-6.5" font-family="Helvetica,sans-Serif" font-size="10.00">utils::IsOverlapping</text>
</a>
</g>
</g>
<!-- Node1&#45;&gt;Node2 -->
<g id="edge1_Node000001_Node000002" class="edge">
<title>Node1&#45;&gt;Node2</title>
<g id="a_edge1_Node000001_Node000002"><a xlink:title=" ">
<path fill="none" stroke="#63b8ff" d="M124.22,-10C116.16,-10 108.05,-10 100.32,-10"/>
<polygon fill="#63b8ff" stroke="#63b8ff" points="124.02,-13.5 134.02,-10 124.02,-6.5 124.02,-13.5"/>
</a>
</g>
</g>
</g>
</svg>
