<?xml version="1.0" encoding="UTF-8" standalone="no"?>
<!DOCTYPE svg PUBLIC "-//W3C//DTD SVG 1.1//EN"
 "http://www.w3.org/Graphics/SVG/1.1/DTD/svg11.dtd">
<!-- Generated by graphviz version 12.2.1 (20241206.2353)
 -->
<!-- Title: utils::FillEllipse Pages: 1 -->
<svg width="414pt" height="154pt"
 viewBox="0.00 0.00 413.75 154.00" xmlns="http://www.w3.org/2000/svg" xmlns:xlink="http://www.w3.org/1999/xlink">
<g id="graph0" class="graph" transform="scale(1 1) rotate(0) translate(4 150)">
<title>utils::FillEllipse</title>
<!-- Node1 -->
<g id="Node000001" class="node">
<title>Node1</title>
<g id="a_Node000001"><a xlink:title=" ">
<polygon fill="#999999" stroke="#666666" points="405.75,-77 323.75,-77 323.75,-57 405.75,-57 405.75,-77"/>
<text text-anchor="middle" x="364.75" y="-63.5" font-family="Helvetica,sans-Serif" font-size="10.00">utils::FillEllipse</text>
</a>
</g>
</g>
<!-- Node2 -->
<g id="Node000002" class="node">
<title>Node2</title>
<g id="a_Node000002"><a xlink:href="class_character_texture_manager.html#a9d595fd4517d4fa5db7757c5c609a36e" target="_top" xlink:title=" ">
<polygon fill="white" stroke="#666666" points="282.88,-146 154.38,-146 154.38,-114 282.88,-114 282.88,-146"/>
<text text-anchor="start" x="162.38" y="-132.5" font-family="Helvetica,sans-Serif" font-size="10.00">CharacterTextureManager</text>
<text text-anchor="middle" x="218.62" y="-120.5" font-family="Helvetica,sans-Serif" font-size="10.00">::Draw</text>
</a>
</g>
</g>
<!-- Node1&#45;&gt;Node2 -->
<g id="edge1_Node000001_Node000002" class="edge">
<title>Node1&#45;&gt;Node2</title>
<g id="a_edge1_Node000001_Node000002"><a xlink:title=" ">
<path fill="none" stroke="#63b8ff" d="M334.35,-82.66C320.4,-89.84 303.4,-98.24 287.75,-105 280.93,-107.95 273.63,-110.86 266.44,-113.61"/>
<polygon fill="#63b8ff" stroke="#63b8ff" points="335.76,-85.88 343.01,-78.15 332.52,-79.67 335.76,-85.88"/>
</a>
</g>
</g>
<!-- Node3 -->
<g id="Node000003" class="node">
<title>Node3</title>
<g id="a_Node000003"><a xlink:href="class_slider_menu_item.html#a2e9e1a49f05d0450ef6af9ef0c31cc50" target="_top" xlink:title=" ">
<polygon fill="white" stroke="#666666" points="287.75,-96 149.5,-96 149.5,-76 287.75,-76 287.75,-96"/>
<text text-anchor="middle" x="218.62" y="-82.5" font-family="Helvetica,sans-Serif" font-size="10.00">SliderMenuItem::DrawSlider</text>
</a>
</g>
</g>
<!-- Node1&#45;&gt;Node3 -->
<g id="edge2_Node000001_Node000003" class="edge">
<title>Node1&#45;&gt;Node3</title>
<g id="a_edge2_Node000001_Node000003"><a xlink:title=" ">
<path fill="none" stroke="#63b8ff" d="M312.34,-73.78C304.44,-74.82 296.18,-75.91 287.99,-76.99"/>
<polygon fill="#63b8ff" stroke="#63b8ff" points="312.65,-77.27 322.1,-72.49 311.73,-70.33 312.65,-77.27"/>
</a>
</g>
</g>
<!-- Node5 -->
<g id="Node000005" class="node">
<title>Node5</title>
<g id="a_Node000005"><a xlink:href="namespaceutils.html#a4af415ba518cb6461cdfd54a1f058b03" target="_top" xlink:title=" ">
<polygon fill="white" stroke="#666666" points="259.62,-58 177.62,-58 177.62,-38 259.62,-38 259.62,-58"/>
<text text-anchor="middle" x="218.62" y="-44.5" font-family="Helvetica,sans-Serif" font-size="10.00">utils::FillEllipse</text>
</a>
</g>
</g>
<!-- Node1&#45;&gt;Node5 -->
<g id="edge4_Node000001_Node000005" class="edge">
<title>Node1&#45;&gt;Node5</title>
<g id="a_edge4_Node000001_Node000005"><a xlink:title=" ">
<path fill="none" stroke="#63b8ff" d="M312.57,-60.25C295.33,-57.98 276.35,-55.48 260.06,-53.33"/>
<polygon fill="#63b8ff" stroke="#63b8ff" points="311.73,-63.67 322.1,-61.51 312.65,-56.73 311.73,-63.67"/>
</a>
</g>
</g>
<!-- Node6 -->
<g id="Node000006" class="node">
<title>Node6</title>
<g id="a_Node000006"><a xlink:href="namespaceutils.html#a87c3c7652408316d13dc140d28ab9fdd" target="_top" xlink:title=" ">
<polygon fill="white" stroke="#666666" points="259.62,-20 177.62,-20 177.62,0 259.62,0 259.62,-20"/>
<text text-anchor="middle" x="218.62" y="-6.5" font-family="Helvetica,sans-Serif" font-size="10.00">utils::FillEllipse</text>
</a>
</g>
</g>
<!-- Node1&#45;&gt;Node6 -->
<g id="edge5_Node000001_Node000006" class="edge">
<title>Node1&#45;&gt;Node6</title>
<g id="a_edge5_Node000001_Node000006"><a xlink:title=" ">
<path fill="none" stroke="#63b8ff" d="M335.44,-51.22C321.39,-43.81 303.98,-35.26 287.75,-29 278.93,-25.6 269.25,-22.53 260.03,-19.89"/>
<polygon fill="#63b8ff" stroke="#63b8ff" points="333.66,-54.24 344.13,-55.89 336.98,-48.07 333.66,-54.24"/>
</a>
</g>
</g>
<!-- Node4 -->
<g id="Node000004" class="node">
<title>Node4</title>
<g id="a_Node000004"><a xlink:href="class_slider_menu_item.html#ab4a20e4b5122b3a824e797dac43eee8d" target="_top" xlink:title=" ">
<polygon fill="white" stroke="#666666" points="113.5,-96 0,-96 0,-76 113.5,-76 113.5,-96"/>
<text text-anchor="middle" x="56.75" y="-82.5" font-family="Helvetica,sans-Serif" font-size="10.00">SliderMenuItem::Draw</text>
</a>
</g>
</g>
<!-- Node3&#45;&gt;Node4 -->
<g id="edge3_Node000003_Node000004" class="edge">
<title>Node3&#45;&gt;Node4</title>
<g id="a_edge3_Node000003_Node000004"><a xlink:title=" ">
<path fill="none" stroke="#63b8ff" d="M137.87,-86C129.72,-86 121.56,-86 113.74,-86"/>
<polygon fill="#63b8ff" stroke="#63b8ff" points="137.85,-89.5 147.85,-86 137.85,-82.5 137.85,-89.5"/>
</a>
</g>
</g>
</g>
</svg>
