<?xml version="1.0" encoding="UTF-8" standalone="no"?>
<!DOCTYPE svg PUBLIC "-//W3C//DTD SVG 1.1//EN"
 "http://www.w3.org/Graphics/SVG/1.1/DTD/svg11.dtd">
<!-- Generated by graphviz version 12.2.1 (20241206.2353)
 -->
<!-- Title: utils::IsOverlapping Pages: 1 -->
<svg width="555pt" height="104pt"
 viewBox="0.00 0.00 555.00 104.00" xmlns="http://www.w3.org/2000/svg" xmlns:xlink="http://www.w3.org/1999/xlink">
<g id="graph0" class="graph" transform="scale(1 1) rotate(0) translate(4 100)">
<title>utils::IsOverlapping</title>
<!-- Node1 -->
<g id="Node000001" class="node">
<title>Node1</title>
<g id="a_Node000001"><a xlink:title=" ">
<polygon fill="#999999" stroke="#666666" points="100,-39 0,-39 0,-19 100,-19 100,-39"/>
<text text-anchor="middle" x="50" y="-25.5" font-family="Helvetica,sans-Serif" font-size="10.00">utils::IsOverlapping</text>
</a>
</g>
</g>
<!-- Node2 -->
<g id="Node000002" class="node">
<title>Node2</title>
<g id="a_Node000002"><a xlink:href="namespaceutils.html#a760075559e6ab59c1daec763fab2b488" target="_top" xlink:title=" ">
<polygon fill="white" stroke="#666666" points="273.5,-58 136,-58 136,-38 273.5,-38 273.5,-58"/>
<text text-anchor="middle" x="204.75" y="-44.5" font-family="Helvetica,sans-Serif" font-size="10.00">utils::DistPointLineSegment</text>
</a>
</g>
</g>
<!-- Node1&#45;&gt;Node2 -->
<g id="edge1_Node000001_Node000002" class="edge">
<title>Node1&#45;&gt;Node2</title>
<g id="a_edge1_Node000001_Node000002"><a xlink:title=" ">
<path fill="none" stroke="#63b8ff" d="M100.17,-35.12C107.97,-36.09 116.2,-37.11 124.47,-38.14"/>
<polygon fill="#63b8ff" stroke="#63b8ff" points="123.89,-41.59 134.25,-39.35 124.75,-34.65 123.89,-41.59"/>
</a>
</g>
</g>
<!-- Node7 -->
<g id="Node000007" class="node">
<title>Node7</title>
<g id="a_Node000007"><a xlink:href="namespaceutils.html#a7be64ef3ceca3af8e2f4c46d5fccc835" target="_top" xlink:title=" ">
<polygon fill="white" stroke="#666666" points="254.75,-20 154.75,-20 154.75,0 254.75,0 254.75,-20"/>
<text text-anchor="middle" x="204.75" y="-6.5" font-family="Helvetica,sans-Serif" font-size="10.00">utils::IsPointInRect</text>
</a>
</g>
</g>
<!-- Node1&#45;&gt;Node7 -->
<g id="edge9_Node000001_Node000007" class="edge">
<title>Node1&#45;&gt;Node7</title>
<g id="a_edge9_Node000001_Node000007"><a xlink:title=" ">
<path fill="none" stroke="#63b8ff" d="M100.17,-22.88C113.87,-21.18 128.9,-19.31 143.17,-17.54"/>
<polygon fill="#63b8ff" stroke="#63b8ff" points="143.42,-21.03 152.91,-16.32 142.55,-14.09 143.42,-21.03"/>
</a>
</g>
</g>
<!-- Node3 -->
<g id="Node000003" class="node">
<title>Node3</title>
<g id="a_Node000003"><a xlink:href="struct_vector2f.html#af8ceb9310d7065eb485e47b072a5b143" target="_top" xlink:title=" ">
<polygon fill="white" stroke="#666666" points="417,-96 309.5,-96 309.5,-76 417,-76 417,-96"/>
<text text-anchor="middle" x="363.25" y="-82.5" font-family="Helvetica,sans-Serif" font-size="10.00">Vector2f::DotProduct</text>
</a>
</g>
</g>
<!-- Node2&#45;&gt;Node3 -->
<g id="edge2_Node000002_Node000003" class="edge">
<title>Node2&#45;&gt;Node3</title>
<g id="a_edge2_Node000002_Node000003"><a xlink:title=" ">
<path fill="none" stroke="#63b8ff" d="M248.93,-58.48C267.23,-62.93 288.76,-68.16 308.11,-72.85"/>
<polygon fill="#63b8ff" stroke="#63b8ff" points="307.2,-76.23 317.74,-75.19 308.85,-69.43 307.2,-76.23"/>
</a>
</g>
</g>
<!-- Node5 -->
<g id="Node000005" class="node">
<title>Node5</title>
<g id="a_Node000005"><a xlink:href="struct_vector2f.html#acedb20d25ccc3009546e120eda010bf5" target="_top" xlink:title=" ">
<polygon fill="white" stroke="#666666" points="543.62,-30 456.38,-30 456.38,-10 543.62,-10 543.62,-30"/>
<text text-anchor="middle" x="500" y="-16.5" font-family="Helvetica,sans-Serif" font-size="10.00">Vector2f::Length</text>
</a>
</g>
</g>
<!-- Node2&#45;&gt;Node5 -->
<g id="edge5_Node000002_Node000005" class="edge">
<title>Node2&#45;&gt;Node5</title>
<g id="a_edge5_Node000002_Node000005"><a xlink:title=" ">
<path fill="none" stroke="#63b8ff" d="M255.42,-37.51C272.49,-34.28 291.76,-31.04 309.5,-29 354.87,-23.79 406.68,-21.59 444.65,-20.66"/>
<polygon fill="#63b8ff" stroke="#63b8ff" points="444.54,-24.16 454.46,-20.44 444.38,-17.16 444.54,-24.16"/>
</a>
</g>
</g>
<!-- Node6 -->
<g id="Node000006" class="node">
<title>Node6</title>
<g id="a_Node000006"><a xlink:href="struct_vector2f.html#aba5dd756c385551a19d36b57d8cbf629" target="_top" xlink:title=" ">
<polygon fill="white" stroke="#666666" points="417,-58 309.5,-58 309.5,-38 417,-38 417,-58"/>
<text text-anchor="middle" x="363.25" y="-44.5" font-family="Helvetica,sans-Serif" font-size="10.00">Vector2f::Normalized</text>
</a>
</g>
</g>
<!-- Node2&#45;&gt;Node6 -->
<g id="edge6_Node000002_Node000006" class="edge">
<title>Node2&#45;&gt;Node6</title>
<g id="a_edge6_Node000002_Node000006"><a xlink:title=" ">
<path fill="none" stroke="#63b8ff" d="M273.94,-48C281.91,-48 290.02,-48 297.93,-48"/>
<polygon fill="#63b8ff" stroke="#63b8ff" points="297.83,-51.5 307.83,-48 297.83,-44.5 297.83,-51.5"/>
</a>
</g>
</g>
<!-- Node4 -->
<g id="Node000004" class="node">
<title>Node4</title>
<g id="a_Node000004"><a xlink:href="struct_vector2f.html#a3db9a868c58bc809e5e09a88d65a77ec" target="_top" xlink:title=" ">
<polygon fill="white" stroke="#666666" points="547,-77 453,-77 453,-57 547,-57 547,-77"/>
<text text-anchor="middle" x="500" y="-63.5" font-family="Helvetica,sans-Serif" font-size="10.00">Vector2f::Vector2f</text>
</a>
</g>
</g>
<!-- Node3&#45;&gt;Node4 -->
<g id="edge3_Node000003_Node000004" class="edge">
<title>Node3&#45;&gt;Node4</title>
<g id="a_edge3_Node000003_Node000004"><a xlink:title=" ">
<path fill="none" stroke="#63b8ff" d="M417.12,-78.55C425.14,-77.41 433.44,-76.24 441.55,-75.1"/>
<polygon fill="#63b8ff" stroke="#63b8ff" points="441.93,-78.58 451.34,-73.72 440.95,-71.65 441.93,-78.58"/>
</a>
</g>
</g>
<!-- Node4&#45;&gt;Node4 -->
<g id="edge4_Node000004_Node000004" class="edge">
<title>Node4&#45;&gt;Node4</title>
<g id="a_edge4_Node000004_Node000004"><a xlink:title=" ">
<path fill="none" stroke="#63b8ff" d="M478.27,-77.34C468.99,-85.98 476.23,-95 500,-95 513,-95 521.06,-92.3 524.17,-88.44"/>
<polygon fill="#63b8ff" stroke="#63b8ff" points="527.62,-87.83 522.05,-78.82 520.78,-89.34 527.62,-87.83"/>
</a>
</g>
</g>
<!-- Node6&#45;&gt;Node4 -->
<g id="edge8_Node000006_Node000004" class="edge">
<title>Node6&#45;&gt;Node4</title>
<g id="a_edge8_Node000006_Node000004"><a xlink:title=" ">
<path fill="none" stroke="#63b8ff" d="M417.12,-55.45C425.14,-56.59 433.44,-57.76 441.55,-58.9"/>
<polygon fill="#63b8ff" stroke="#63b8ff" points="440.95,-62.35 451.34,-60.28 441.93,-55.42 440.95,-62.35"/>
</a>
</g>
</g>
<!-- Node6&#45;&gt;Node5 -->
<g id="edge7_Node000006_Node000005" class="edge">
<title>Node6&#45;&gt;Node5</title>
<g id="a_edge7_Node000006_Node000005"><a xlink:title=" ">
<path fill="none" stroke="#63b8ff" d="M414.43,-37.57C424.43,-35.5 434.97,-33.3 445.1,-31.2"/>
<polygon fill="#63b8ff" stroke="#63b8ff" points="445.73,-34.64 454.81,-29.18 444.31,-27.79 445.73,-34.64"/>
</a>
</g>
</g>
</g>
</svg>
