<?xml version="1.0" encoding="UTF-8" standalone="no"?>
<!DOCTYPE svg PUBLIC "-//W3C//DTD SVG 1.1//EN"
 "http://www.w3.org/Graphics/SVG/1.1/DTD/svg11.dtd">
<!-- Generated by graphviz version 12.2.1 (20241206.2353)
 -->
<!-- Title: utils::IsOverlapping Pages: 1 -->
<svg width="881pt" height="180pt"
 viewBox="0.00 0.00 881.00 180.00" xmlns="http://www.w3.org/2000/svg" xmlns:xlink="http://www.w3.org/1999/xlink">
<g id="graph0" class="graph" transform="scale(1 1) rotate(0) translate(4 176)">
<title>utils::IsOverlapping</title>
<!-- Node1 -->
<g id="Node000001" class="node">
<title>Node1</title>
<g id="a_Node000001"><a xlink:title=" ">
<polygon fill="#999999" stroke="#666666" points="100,-96 0,-96 0,-76 100,-76 100,-96"/>
<text text-anchor="middle" x="50" y="-82.5" font-family="Helvetica,sans-Serif" font-size="10.00">utils::IsOverlapping</text>
</a>
</g>
</g>
<!-- Node2 -->
<g id="Node000002" class="node">
<title>Node2</title>
<g id="a_Node000002"><a xlink:href="namespaceutils.html#a7be64ef3ceca3af8e2f4c46d5fccc835" target="_top" xlink:title=" ">
<polygon fill="white" stroke="#666666" points="236,-115 136,-115 136,-95 236,-95 236,-115"/>
<text text-anchor="middle" x="186" y="-101.5" font-family="Helvetica,sans-Serif" font-size="10.00">utils::IsPointInRect</text>
</a>
</g>
</g>
<!-- Node1&#45;&gt;Node2 -->
<g id="edge1_Node000001_Node000002" class="edge">
<title>Node1&#45;&gt;Node2</title>
<g id="a_edge1_Node000001_Node000002"><a xlink:title=" ">
<path fill="none" stroke="#63b8ff" d="M100.14,-92.97C108.06,-94.09 116.33,-95.26 124.48,-96.42"/>
<polygon fill="#63b8ff" stroke="#63b8ff" points="123.98,-99.88 134.37,-97.82 124.96,-92.95 123.98,-99.88"/>
</a>
</g>
</g>
<!-- Node3 -->
<g id="Node000003" class="node">
<title>Node3</title>
<g id="a_Node000003"><a xlink:href="namespaceutils.html#a907c18a579f4b5bac2aa39f8d64fa381" target="_top" xlink:title=" ">
<polygon fill="white" stroke="#666666" points="224.38,-77 147.62,-77 147.62,-57 224.38,-57 224.38,-77"/>
<text text-anchor="middle" x="186" y="-63.5" font-family="Helvetica,sans-Serif" font-size="10.00">utils::Raycast</text>
</a>
</g>
</g>
<!-- Node1&#45;&gt;Node3 -->
<g id="edge2_Node000001_Node000003" class="edge">
<title>Node1&#45;&gt;Node3</title>
<g id="a_edge2_Node000001_Node000003"><a xlink:title=" ">
<path fill="none" stroke="#63b8ff" d="M100.14,-79.03C111.79,-77.38 124.22,-75.62 135.87,-73.97"/>
<polygon fill="#63b8ff" stroke="#63b8ff" points="136.3,-77.44 145.71,-72.57 135.31,-70.51 136.3,-77.44"/>
</a>
</g>
</g>
<!-- Node4 -->
<g id="Node000004" class="node">
<title>Node4</title>
<g id="a_Node000004"><a xlink:href="namespaceutils.html#a9ef86448634b099a56f145753593ab2f" target="_top" xlink:title=" ">
<polygon fill="white" stroke="#666666" points="412.5,-96 272,-96 272,-76 412.5,-76 412.5,-96"/>
<text text-anchor="middle" x="342.25" y="-82.5" font-family="Helvetica,sans-Serif" font-size="10.00">utils::IntersectLineSegments</text>
</a>
</g>
</g>
<!-- Node3&#45;&gt;Node4 -->
<g id="edge3_Node000003_Node000004" class="edge">
<title>Node3&#45;&gt;Node4</title>
<g id="a_edge3_Node000003_Node000004"><a xlink:title=" ">
<path fill="none" stroke="#63b8ff" d="M224.73,-71.65C235.59,-72.99 247.87,-74.5 260.29,-76.03"/>
<polygon fill="#63b8ff" stroke="#63b8ff" points="259.83,-79.5 270.19,-77.25 260.69,-72.55 259.83,-79.5"/>
</a>
</g>
</g>
<!-- Node9 -->
<g id="Node000009" class="node">
<title>Node9</title>
<g id="a_Node000009"><a xlink:href="namespaceutils.html#a11a0eb68e467a22aed74f507057c39ed" target="_top" xlink:title=" ">
<polygon fill="white" stroke="#666666" points="392.25,-58 292.25,-58 292.25,-38 392.25,-38 392.25,-58"/>
<text text-anchor="middle" x="342.25" y="-44.5" font-family="Helvetica,sans-Serif" font-size="10.00">utils::IsOverlapping</text>
</a>
</g>
</g>
<!-- Node3&#45;&gt;Node9 -->
<g id="edge11_Node000003_Node000009" class="edge">
<title>Node3&#45;&gt;Node9</title>
<g id="a_edge11_Node000003_Node000009"><a xlink:title=" ">
<path fill="none" stroke="#63b8ff" d="M224.73,-62.35C241.58,-60.28 261.85,-57.78 280.73,-55.45"/>
<polygon fill="#63b8ff" stroke="#63b8ff" points="280.96,-58.95 290.45,-54.26 280.1,-52.01 280.96,-58.95"/>
</a>
</g>
</g>
<!-- Node12 -->
<g id="Node000012" class="node">
<title>Node12</title>
<g id="a_Node000012"><a xlink:href="struct_vector2f.html#aba5dd756c385551a19d36b57d8cbf629" target="_top" xlink:title=" ">
<polygon fill="white" stroke="#666666" points="737.75,-20 630.25,-20 630.25,0 737.75,0 737.75,-20"/>
<text text-anchor="middle" x="684" y="-6.5" font-family="Helvetica,sans-Serif" font-size="10.00">Vector2f::Normalized</text>
</a>
</g>
</g>
<!-- Node3&#45;&gt;Node12 -->
<g id="edge18_Node000003_Node000012" class="edge">
<title>Node3&#45;&gt;Node12</title>
<g id="a_edge18_Node000003_Node000012"><a xlink:title=" ">
<path fill="none" stroke="#63b8ff" d="M204.87,-56.63C221.61,-47.5 247.62,-34.79 272,-29 391.85,-0.52 536.74,-1.79 618.54,-5.65"/>
<polygon fill="#63b8ff" stroke="#63b8ff" points="618.23,-9.14 628.39,-6.15 618.58,-2.15 618.23,-9.14"/>
</a>
</g>
</g>
<!-- Node13 -->
<g id="Node000013" class="node">
<title>Node13</title>
<g id="a_Node000013"><a xlink:href="struct_vector2f.html#a368a0568a55e306014fc88a9720a1af2" target="_top" xlink:title=" ">
<polygon fill="white" stroke="#666666" points="571.38,-172 466.12,-172 466.12,-152 571.38,-152 571.38,-172"/>
<text text-anchor="middle" x="518.75" y="-158.5" font-family="Helvetica,sans-Serif" font-size="10.00">Vector2f::Orthogonal</text>
</a>
</g>
</g>
<!-- Node3&#45;&gt;Node13 -->
<g id="edge19_Node000003_Node000013" class="edge">
<title>Node3&#45;&gt;Node13</title>
<g id="a_edge19_Node000003_Node000013"><a xlink:title=" ">
<path fill="none" stroke="#63b8ff" d="M215.48,-77.4C222.26,-80.06 229.44,-83.01 236,-86 252.46,-93.51 255.05,-98.68 272,-105 332.28,-127.47 404.3,-142.92 454.73,-152.01"/>
<polygon fill="#63b8ff" stroke="#63b8ff" points="453.84,-155.41 464.3,-153.7 455.06,-148.51 453.84,-155.41"/>
</a>
</g>
</g>
<!-- Node5 -->
<g id="Node000005" class="node">
<title>Node5</title>
<g id="a_Node000005"><a xlink:href="struct_vector2f.html#ab99fa60e5b7af169760de9057863423b" target="_top" xlink:title=" ">
<polygon fill="white" stroke="#666666" points="743,-134 625,-134 625,-114 743,-114 743,-134"/>
<text text-anchor="middle" x="684" y="-120.5" font-family="Helvetica,sans-Serif" font-size="10.00">Vector2f::CrossProduct</text>
</a>
</g>
</g>
<!-- Node4&#45;&gt;Node5 -->
<g id="edge4_Node000004_Node000005" class="edge">
<title>Node4&#45;&gt;Node5</title>
<g id="a_edge4_Node000004_Node000005"><a xlink:title=" ">
<path fill="none" stroke="#63b8ff" d="M395.56,-96.48C412.41,-99.58 431.19,-102.74 448.5,-105 503.69,-112.2 566.57,-117.12 613.31,-120.14"/>
<polygon fill="#63b8ff" stroke="#63b8ff" points="612.82,-123.62 623.02,-120.76 613.26,-116.63 612.82,-123.62"/>
</a>
</g>
</g>
<!-- Node7 -->
<g id="Node000007" class="node">
<title>Node7</title>
<g id="a_Node000007"><a xlink:href="namespaceutils.html#afa48cca7d08708b5ce3581974e9c39aa" target="_top" xlink:title=" ">
<polygon fill="white" stroke="#666666" points="589,-96 448.5,-96 448.5,-76 589,-76 589,-96"/>
<text text-anchor="middle" x="518.75" y="-82.5" font-family="Helvetica,sans-Serif" font-size="10.00">utils::IsPointOnLineSegment</text>
</a>
</g>
</g>
<!-- Node4&#45;&gt;Node7 -->
<g id="edge7_Node000004_Node000007" class="edge">
<title>Node4&#45;&gt;Node7</title>
<g id="a_edge7_Node000004_Node000007"><a xlink:title=" ">
<path fill="none" stroke="#63b8ff" d="M412.97,-86C420.75,-86 428.73,-86 436.63,-86"/>
<polygon fill="#63b8ff" stroke="#63b8ff" points="436.63,-89.5 446.63,-86 436.63,-82.5 436.63,-89.5"/>
</a>
</g>
</g>
<!-- Node6 -->
<g id="Node000006" class="node">
<title>Node6</title>
<g id="a_Node000006"><a xlink:href="struct_vector2f.html#a3db9a868c58bc809e5e09a88d65a77ec" target="_top" xlink:title=" ">
<polygon fill="white" stroke="#666666" points="873,-105 779,-105 779,-85 873,-85 873,-105"/>
<text text-anchor="middle" x="826" y="-91.5" font-family="Helvetica,sans-Serif" font-size="10.00">Vector2f::Vector2f</text>
</a>
</g>
</g>
<!-- Node5&#45;&gt;Node6 -->
<g id="edge5_Node000005_Node000006" class="edge">
<title>Node5&#45;&gt;Node6</title>
<g id="a_edge5_Node000005_Node000006"><a xlink:title=" ">
<path fill="none" stroke="#63b8ff" d="M735.54,-113.53C746.01,-111.36 757.1,-109.06 767.78,-106.85"/>
<polygon fill="#63b8ff" stroke="#63b8ff" points="768.16,-110.35 777.24,-104.89 766.74,-103.49 768.16,-110.35"/>
</a>
</g>
</g>
<!-- Node6&#45;&gt;Node6 -->
<g id="edge6_Node000006_Node000006" class="edge">
<title>Node6&#45;&gt;Node6</title>
<g id="a_edge6_Node000006_Node000006"><a xlink:title=" ">
<path fill="none" stroke="#63b8ff" d="M803.44,-105.34C793.8,-113.98 801.32,-123 826,-123 839.5,-123 847.86,-120.3 851.1,-116.44"/>
<polygon fill="#63b8ff" stroke="#63b8ff" points="854.54,-115.78 848.9,-106.81 847.71,-117.34 854.54,-115.78"/>
</a>
</g>
</g>
<!-- Node7&#45;&gt;Node5 -->
<g id="edge8_Node000007_Node000005" class="edge">
<title>Node7&#45;&gt;Node5</title>
<g id="a_edge8_Node000007_Node000005"><a xlink:title=" ">
<path fill="none" stroke="#63b8ff" d="M564.79,-96.48C584.06,-100.97 606.76,-106.25 627.09,-110.99"/>
<polygon fill="#63b8ff" stroke="#63b8ff" points="626.1,-114.35 636.63,-113.21 627.69,-107.53 626.1,-114.35"/>
</a>
</g>
</g>
<!-- Node8 -->
<g id="Node000008" class="node">
<title>Node8</title>
<g id="a_Node000008"><a xlink:href="struct_vector2f.html#af8ceb9310d7065eb485e47b072a5b143" target="_top" xlink:title=" ">
<polygon fill="white" stroke="#666666" points="737.75,-96 630.25,-96 630.25,-76 737.75,-76 737.75,-96"/>
<text text-anchor="middle" x="684" y="-82.5" font-family="Helvetica,sans-Serif" font-size="10.00">Vector2f::DotProduct</text>
</a>
</g>
</g>
<!-- Node7&#45;&gt;Node8 -->
<g id="edge9_Node000007_Node000008" class="edge">
<title>Node7&#45;&gt;Node8</title>
<g id="a_edge9_Node000007_Node000008"><a xlink:title=" ">
<path fill="none" stroke="#63b8ff" d="M589.46,-86C599.07,-86 608.9,-86 618.42,-86"/>
<polygon fill="#63b8ff" stroke="#63b8ff" points="618.31,-89.5 628.31,-86 618.31,-82.5 618.31,-89.5"/>
</a>
</g>
</g>
<!-- Node8&#45;&gt;Node6 -->
<g id="edge10_Node000008_Node000006" class="edge">
<title>Node8&#45;&gt;Node6</title>
<g id="a_edge10_Node000008_Node000006"><a xlink:title=" ">
<path fill="none" stroke="#63b8ff" d="M737.93,-89.4C747.61,-90.03 757.76,-90.68 767.57,-91.31"/>
<polygon fill="#63b8ff" stroke="#63b8ff" points="767.16,-94.79 777.37,-91.94 767.61,-87.8 767.16,-94.79"/>
</a>
</g>
</g>
<!-- Node10 -->
<g id="Node000010" class="node">
<title>Node10</title>
<g id="a_Node000010"><a xlink:href="namespaceutils.html#a760075559e6ab59c1daec763fab2b488" target="_top" xlink:title=" ">
<polygon fill="white" stroke="#666666" points="587.5,-58 450,-58 450,-38 587.5,-38 587.5,-58"/>
<text text-anchor="middle" x="518.75" y="-44.5" font-family="Helvetica,sans-Serif" font-size="10.00">utils::DistPointLineSegment</text>
</a>
</g>
</g>
<!-- Node9&#45;&gt;Node10 -->
<g id="edge12_Node000009_Node000010" class="edge">
<title>Node9&#45;&gt;Node10</title>
<g id="a_edge12_Node000009_Node000010"><a xlink:title=" ">
<path fill="none" stroke="#63b8ff" d="M392.32,-48C406.6,-48 422.57,-48 438.22,-48"/>
<polygon fill="#63b8ff" stroke="#63b8ff" points="438,-51.5 448,-48 438,-44.5 438,-51.5"/>
</a>
</g>
</g>
<!-- Node10&#45;&gt;Node8 -->
<g id="edge13_Node000010_Node000008" class="edge">
<title>Node10&#45;&gt;Node8</title>
<g id="a_edge13_Node000010_Node000008"><a xlink:title=" ">
<path fill="none" stroke="#63b8ff" d="M564.79,-58.48C584.06,-62.97 606.76,-68.25 627.09,-72.99"/>
<polygon fill="#63b8ff" stroke="#63b8ff" points="626.1,-76.35 636.63,-75.21 627.69,-69.53 626.1,-76.35"/>
</a>
</g>
</g>
<!-- Node11 -->
<g id="Node000011" class="node">
<title>Node11</title>
<g id="a_Node000011"><a xlink:href="struct_vector2f.html#acedb20d25ccc3009546e120eda010bf5" target="_top" xlink:title=" ">
<polygon fill="white" stroke="#666666" points="869.62,-48 782.38,-48 782.38,-28 869.62,-28 869.62,-48"/>
<text text-anchor="middle" x="826" y="-34.5" font-family="Helvetica,sans-Serif" font-size="10.00">Vector2f::Length</text>
</a>
</g>
</g>
<!-- Node10&#45;&gt;Node11 -->
<g id="edge14_Node000010_Node000011" class="edge">
<title>Node10&#45;&gt;Node11</title>
<g id="a_edge14_Node000010_Node000011"><a xlink:title=" ">
<path fill="none" stroke="#63b8ff" d="M587.87,-45.77C642.97,-43.96 719.53,-41.46 770.59,-39.78"/>
<polygon fill="#63b8ff" stroke="#63b8ff" points="770.64,-43.28 780.52,-39.46 770.41,-36.29 770.64,-43.28"/>
</a>
</g>
</g>
<!-- Node10&#45;&gt;Node12 -->
<g id="edge15_Node000010_Node000012" class="edge">
<title>Node10&#45;&gt;Node12</title>
<g id="a_edge15_Node000010_Node000012"><a xlink:title=" ">
<path fill="none" stroke="#63b8ff" d="M564.79,-37.52C584.06,-33.03 606.76,-27.75 627.09,-23.01"/>
<polygon fill="#63b8ff" stroke="#63b8ff" points="627.69,-26.47 636.63,-20.79 626.1,-19.65 627.69,-26.47"/>
</a>
</g>
</g>
<!-- Node12&#45;&gt;Node6 -->
<g id="edge17_Node000012_Node000006" class="edge">
<title>Node12&#45;&gt;Node6</title>
<g id="a_edge17_Node000012_Node000006"><a xlink:title=" ">
<path fill="none" stroke="#63b8ff" d="M702.17,-20.42C726.23,-35.03 770.2,-61.73 798.48,-78.9"/>
<polygon fill="#63b8ff" stroke="#63b8ff" points="796.47,-81.77 806.84,-83.97 800.1,-75.79 796.47,-81.77"/>
</a>
</g>
</g>
<!-- Node12&#45;&gt;Node11 -->
<g id="edge16_Node000012_Node000011" class="edge">
<title>Node12&#45;&gt;Node11</title>
<g id="a_edge16_Node000012_Node000011"><a xlink:title=" ">
<path fill="none" stroke="#63b8ff" d="M737.13,-20.43C748.09,-22.62 759.68,-24.94 770.72,-27.14"/>
<polygon fill="#63b8ff" stroke="#63b8ff" points="770,-30.57 780.49,-29.1 771.37,-23.71 770,-30.57"/>
</a>
</g>
</g>
<!-- Node13&#45;&gt;Node6 -->
<g id="edge20_Node000013_Node000006" class="edge">
<title>Node13&#45;&gt;Node6</title>
<g id="a_edge20_Node000013_Node000006"><a xlink:title=" ">
<path fill="none" stroke="#63b8ff" d="M571.54,-163.99C617.61,-164.27 686.27,-161 743,-143 764.74,-136.1 786.93,-122.65 802.73,-111.73"/>
<polygon fill="#63b8ff" stroke="#63b8ff" points="804.34,-114.88 810.45,-106.23 800.27,-109.19 804.34,-114.88"/>
</a>
</g>
</g>
</g>
</svg>
