<?xml version="1.0" encoding="UTF-8" standalone="no"?>
<!DOCTYPE svg PUBLIC "-//W3C//DTD SVG 1.1//EN"
 "http://www.w3.org/Graphics/SVG/1.1/DTD/svg11.dtd">
<!-- Generated by graphviz version 12.2.1 (20241206.2353)
 -->
<!-- Title: utils::IsOverlapping Pages: 1 -->
<svg width="462pt" height="452pt"
 viewBox="0.00 0.00 461.75 452.00" xmlns="http://www.w3.org/2000/svg" xmlns:xlink="http://www.w3.org/1999/xlink">
<g id="graph0" class="graph" transform="scale(1 1) rotate(0) translate(4 448)">
<title>utils::IsOverlapping</title>
<!-- Node1 -->
<g id="Node000001" class="node">
<title>Node1</title>
<g id="a_Node000001"><a xlink:title=" ">
<polygon fill="#999999" stroke="#666666" points="453.75,-254 353.75,-254 353.75,-234 453.75,-234 453.75,-254"/>
<text text-anchor="middle" x="403.75" y="-240.5" font-family="Helvetica,sans-Serif" font-size="10.00">utils::IsOverlapping</text>
</a>
</g>
</g>
<!-- Node2 -->
<g id="Node000002" class="node">
<title>Node2</title>
<g id="a_Node000002"><a xlink:href="class_level.html#adf4233f98d55734b3862b4862ea83a27" target="_top" xlink:title=" ">
<polygon fill="white" stroke="#666666" points="287.75,-444 189.25,-444 189.25,-424 287.75,-424 287.75,-444"/>
<text text-anchor="middle" x="238.5" y="-430.5" font-family="Helvetica,sans-Serif" font-size="10.00">Level::DoesCollide</text>
</a>
</g>
</g>
<!-- Node1&#45;&gt;Node2 -->
<g id="edge1_Node000001_Node000002" class="edge">
<title>Node1&#45;&gt;Node2</title>
<g id="a_edge1_Node000001_Node000002"><a xlink:title=" ">
<path fill="none" stroke="#63b8ff" d="M398.35,-265.16C389.63,-301.59 366.63,-375.97 317.75,-415 309.23,-421.8 298.64,-426.23 288.03,-429.09"/>
<polygon fill="#63b8ff" stroke="#63b8ff" points="401.66,-266.37 400.44,-255.85 394.83,-264.84 401.66,-266.37"/>
</a>
</g>
</g>
<!-- Node3 -->
<g id="Node000003" class="node">
<title>Node3</title>
<g id="a_Node000003"><a xlink:href="namespaceutils.html#a334b78639099b0610f28ab357af9da19" target="_top" xlink:title=" ">
<polygon fill="white" stroke="#666666" points="288.5,-406 188.5,-406 188.5,-386 288.5,-386 288.5,-406"/>
<text text-anchor="middle" x="238.5" y="-392.5" font-family="Helvetica,sans-Serif" font-size="10.00">utils::IsOverlapping</text>
</a>
</g>
</g>
<!-- Node1&#45;&gt;Node3 -->
<g id="edge2_Node000001_Node000003" class="edge">
<title>Node1&#45;&gt;Node3</title>
<g id="a_edge2_Node000001_Node000003"><a xlink:title=" ">
<path fill="none" stroke="#63b8ff" d="M395.2,-264.97C383.4,-294.65 357.73,-348.45 317.75,-377 309.22,-383.09 298.97,-387.25 288.74,-390.08"/>
<polygon fill="#63b8ff" stroke="#63b8ff" points="398.47,-266.22 398.75,-255.63 391.93,-263.73 398.47,-266.22"/>
</a>
</g>
</g>
<!-- Node4 -->
<g id="Node000004" class="node">
<title>Node4</title>
<g id="a_Node000004"><a xlink:href="class_cog_platform.html#afd4a86f749690313b5bd2587f15c6ce8" target="_top" xlink:title=" ">
<polygon fill="white" stroke="#666666" points="313.62,-368 163.38,-368 163.38,-348 313.62,-348 313.62,-368"/>
<text text-anchor="middle" x="238.5" y="-354.5" font-family="Helvetica,sans-Serif" font-size="10.00">CogPlatform::PlayerInteraction</text>
</a>
</g>
</g>
<!-- Node1&#45;&gt;Node4 -->
<g id="edge3_Node000001_Node000004" class="edge">
<title>Node1&#45;&gt;Node4</title>
<g id="a_edge3_Node000001_Node000004"><a xlink:title=" ">
<path fill="none" stroke="#63b8ff" d="M390.27,-264.03C375.61,-285.84 349.24,-320.14 317.75,-339 311.99,-342.45 305.64,-345.27 299.13,-347.58"/>
<polygon fill="#63b8ff" stroke="#63b8ff" points="393.16,-266 395.67,-255.71 387.29,-262.19 393.16,-266"/>
</a>
</g>
</g>
<!-- Node5 -->
<g id="Node000005" class="node">
<title>Node5</title>
<g id="a_Node000005"><a xlink:href="class_crumble_block.html#af211a08e47f20f7343183341611d5653" target="_top" xlink:title=" ">
<polygon fill="white" stroke="#666666" points="317,-330 160,-330 160,-310 317,-310 317,-330"/>
<text text-anchor="middle" x="238.5" y="-316.5" font-family="Helvetica,sans-Serif" font-size="10.00">CrumbleBlock::PlayerInteraction</text>
</a>
</g>
</g>
<!-- Node1&#45;&gt;Node5 -->
<g id="edge4_Node000001_Node000005" class="edge">
<title>Node1&#45;&gt;Node5</title>
<g id="a_edge4_Node000001_Node000005"><a xlink:title=" ">
<path fill="none" stroke="#63b8ff" d="M381.55,-261.33C365.06,-274 341.13,-290.71 317.75,-301 310.07,-304.38 301.7,-307.22 293.37,-309.58"/>
<polygon fill="#63b8ff" stroke="#63b8ff" points="383.45,-264.28 389.15,-255.34 379.12,-258.78 383.45,-264.28"/>
</a>
</g>
</g>
<!-- Node6 -->
<g id="Node000006" class="node">
<title>Node6</title>
<g id="a_Node000006"><a xlink:href="class_dash_crystal.html#ae9d188a3998de0c2de1ee162ba5e1273" target="_top" xlink:title=" ">
<polygon fill="white" stroke="#666666" points="313.62,-292 163.38,-292 163.38,-272 313.62,-272 313.62,-292"/>
<text text-anchor="middle" x="238.5" y="-278.5" font-family="Helvetica,sans-Serif" font-size="10.00">DashCrystal::PlayerInteraction</text>
</a>
</g>
</g>
<!-- Node1&#45;&gt;Node6 -->
<g id="edge5_Node000001_Node000006" class="edge">
<title>Node1&#45;&gt;Node6</title>
<g id="a_edge5_Node000001_Node000006"><a xlink:title=" ">
<path fill="none" stroke="#63b8ff" d="M346.69,-257.05C326.35,-261.78 303.65,-267.07 284.39,-271.55"/>
<polygon fill="#63b8ff" stroke="#63b8ff" points="347.29,-260.5 356.23,-254.83 345.7,-253.69 347.29,-260.5"/>
</a>
</g>
</g>
<!-- Node7 -->
<g id="Node000007" class="node">
<title>Node7</title>
<g id="a_Node000007"><a xlink:href="class_flying_strawberry.html#ada0a996bd7bd79f240b85762a24fd2ed" target="_top" xlink:title=" ">
<polygon fill="white" stroke="#666666" points="123.25,-209 0,-209 0,-177 123.25,-177 123.25,-209"/>
<text text-anchor="start" x="8" y="-195.5" font-family="Helvetica,sans-Serif" font-size="10.00">FlyingStrawberry::Player</text>
<text text-anchor="middle" x="61.62" y="-183.5" font-family="Helvetica,sans-Serif" font-size="10.00">Interaction</text>
</a>
</g>
</g>
<!-- Node1&#45;&gt;Node7 -->
<g id="edge6_Node000001_Node000007" class="edge">
<title>Node1&#45;&gt;Node7</title>
<g id="a_edge6_Node000001_Node000007"><a xlink:title=" ">
<path fill="none" stroke="#63b8ff" d="M341.81,-243.32C292.21,-241.79 220.63,-237.37 159.25,-225 141.06,-221.33 121.54,-215.29 104.83,-209.44"/>
<polygon fill="#63b8ff" stroke="#63b8ff" points="341.69,-246.81 351.78,-243.59 341.88,-239.82 341.69,-246.81"/>
</a>
</g>
</g>
<!-- Node8 -->
<g id="Node000008" class="node">
<title>Node8</title>
<g id="a_Node000008"><a xlink:href="class_respawn_zone.html#a5c821db8bbdc1da0401f633af761687c" target="_top" xlink:title=" ">
<polygon fill="white" stroke="#666666" points="317.75,-216 159.25,-216 159.25,-196 317.75,-196 317.75,-216"/>
<text text-anchor="middle" x="238.5" y="-202.5" font-family="Helvetica,sans-Serif" font-size="10.00">RespawnZone::PlayerInteraction</text>
</a>
</g>
</g>
<!-- Node1&#45;&gt;Node8 -->
<g id="edge7_Node000001_Node000008" class="edge">
<title>Node1&#45;&gt;Node8</title>
<g id="a_edge7_Node000001_Node000008"><a xlink:title=" ">
<path fill="none" stroke="#63b8ff" d="M346.69,-230.95C326.35,-226.22 303.65,-220.93 284.39,-216.45"/>
<polygon fill="#63b8ff" stroke="#63b8ff" points="345.7,-234.31 356.23,-233.17 347.29,-227.5 345.7,-234.31"/>
</a>
</g>
</g>
<!-- Node9 -->
<g id="Node000009" class="node">
<title>Node9</title>
<g id="a_Node000009"><a xlink:href="class_spike.html#a7c79520a23045ef568326c1cedc2eba9" target="_top" xlink:title=" ">
<polygon fill="white" stroke="#666666" points="298.62,-178 178.38,-178 178.38,-158 298.62,-158 298.62,-178"/>
<text text-anchor="middle" x="238.5" y="-164.5" font-family="Helvetica,sans-Serif" font-size="10.00">Spike::PlayerInteraction</text>
</a>
</g>
</g>
<!-- Node1&#45;&gt;Node9 -->
<g id="edge8_Node000001_Node000009" class="edge">
<title>Node1&#45;&gt;Node9</title>
<g id="a_edge8_Node000001_Node000009"><a xlink:title=" ">
<path fill="none" stroke="#63b8ff" d="M381.55,-226.67C365.06,-214 341.13,-197.29 317.75,-187 310.07,-183.62 301.7,-180.78 293.37,-178.42"/>
<polygon fill="#63b8ff" stroke="#63b8ff" points="379.12,-229.22 389.15,-232.66 383.45,-223.72 379.12,-229.22"/>
</a>
</g>
</g>
<!-- Node10 -->
<g id="Node000010" class="node">
<title>Node10</title>
<g id="a_Node000010"><a xlink:href="class_strawberry.html#a2e5468a8badbbf84cd37d12c34042061" target="_top" xlink:title=" ">
<polygon fill="white" stroke="#666666" points="309.88,-140 167.12,-140 167.12,-120 309.88,-120 309.88,-140"/>
<text text-anchor="middle" x="238.5" y="-126.5" font-family="Helvetica,sans-Serif" font-size="10.00">Strawberry::PlayerInteraction</text>
</a>
</g>
</g>
<!-- Node1&#45;&gt;Node10 -->
<g id="edge9_Node000001_Node000010" class="edge">
<title>Node1&#45;&gt;Node10</title>
<g id="a_edge9_Node000001_Node000010"><a xlink:title=" ">
<path fill="none" stroke="#63b8ff" d="M390.27,-223.97C375.61,-202.16 349.24,-167.86 317.75,-149 311.99,-145.55 305.64,-142.73 299.13,-140.42"/>
<polygon fill="#63b8ff" stroke="#63b8ff" points="387.29,-225.81 395.67,-232.29 393.16,-222 387.29,-225.81"/>
</a>
</g>
</g>
<!-- Node11 -->
<g id="Node000011" class="node">
<title>Node11</title>
<g id="a_Node000011"><a xlink:href="class_trampoline.html#a8c4a369bfdfba21767d45ec9f83be487" target="_top" xlink:title=" ">
<polygon fill="white" stroke="#666666" points="310.25,-102 166.75,-102 166.75,-82 310.25,-82 310.25,-102"/>
<text text-anchor="middle" x="238.5" y="-88.5" font-family="Helvetica,sans-Serif" font-size="10.00">Trampoline::PlayerInteraction</text>
</a>
</g>
</g>
<!-- Node1&#45;&gt;Node11 -->
<g id="edge11_Node000001_Node000011" class="edge">
<title>Node1&#45;&gt;Node11</title>
<g id="a_edge11_Node000001_Node000011"><a xlink:title=" ">
<path fill="none" stroke="#63b8ff" d="M395.2,-223.03C383.4,-193.35 357.73,-139.55 317.75,-111 312.97,-107.59 307.66,-104.78 302.11,-102.48"/>
<polygon fill="#63b8ff" stroke="#63b8ff" points="391.93,-224.27 398.75,-232.37 398.47,-221.78 391.93,-224.27"/>
</a>
</g>
</g>
<!-- Node12 -->
<g id="Node000012" class="node">
<title>Node12</title>
<g id="a_Node000012"><a xlink:href="namespaceutils.html#a907c18a579f4b5bac2aa39f8d64fa381" target="_top" xlink:title=" ">
<polygon fill="white" stroke="#666666" points="276.88,-64 200.12,-64 200.12,-44 276.88,-44 276.88,-64"/>
<text text-anchor="middle" x="238.5" y="-50.5" font-family="Helvetica,sans-Serif" font-size="10.00">utils::Raycast</text>
</a>
</g>
</g>
<!-- Node1&#45;&gt;Node12 -->
<g id="edge12_Node000001_Node000012" class="edge">
<title>Node1&#45;&gt;Node12</title>
<g id="a_edge12_Node000001_Node000012"><a xlink:title=" ">
<path fill="none" stroke="#63b8ff" d="M398.35,-222.84C389.63,-186.41 366.63,-112.03 317.75,-73 306.28,-63.84 291.05,-59 277.08,-56.47"/>
<polygon fill="#63b8ff" stroke="#63b8ff" points="394.83,-223.16 400.44,-232.15 401.66,-221.63 394.83,-223.16"/>
</a>
</g>
</g>
<!-- Node10&#45;&gt;Node7 -->
<g id="edge10_Node000010_Node000007" class="edge">
<title>Node10&#45;&gt;Node7</title>
<g id="a_edge10_Node000010_Node000007"><a xlink:title=" ">
<path fill="none" stroke="#63b8ff" d="M177.25,-143.4C171.12,-145.13 165.03,-147 159.25,-149 137.12,-156.65 113.17,-167.54 94.65,-176.57"/>
<polygon fill="#63b8ff" stroke="#63b8ff" points="178.04,-146.82 186.79,-140.85 176.22,-140.06 178.04,-146.82"/>
</a>
</g>
</g>
<!-- Node13 -->
<g id="Node000013" class="node">
<title>Node13</title>
<g id="a_Node000013"><a xlink:href="namespaceutils.html#aa1e275621728260abad0345dfb5ed70e" target="_top" xlink:title=" ">
<polygon fill="white" stroke="#666666" points="111.62,-108 11.62,-108 11.62,-88 111.62,-88 111.62,-108"/>
<text text-anchor="middle" x="61.62" y="-94.5" font-family="Helvetica,sans-Serif" font-size="10.00">utils::IsOverlapping</text>
</a>
</g>
</g>
<!-- Node12&#45;&gt;Node13 -->
<g id="edge13_Node000012_Node000013" class="edge">
<title>Node12&#45;&gt;Node13</title>
<g id="a_edge13_Node000012_Node000013"><a xlink:title=" ">
<path fill="none" stroke="#63b8ff" d="M188.52,-65.77C178.81,-68.14 168.7,-70.63 159.25,-73 140.59,-77.68 119.95,-83 102.55,-87.53"/>
<polygon fill="#63b8ff" stroke="#63b8ff" points="189.3,-69.19 198.19,-63.42 187.65,-62.38 189.3,-69.19"/>
</a>
</g>
</g>
<!-- Node14 -->
<g id="Node000014" class="node">
<title>Node14</title>
<g id="a_Node000014"><a xlink:href="class_character_controller.html#ad8b0a065cb10e6a2b1900057648ab4d9" target="_top" xlink:title=" ">
<polygon fill="white" stroke="#666666" points="112,-70 11.25,-70 11.25,-38 112,-38 112,-70"/>
<text text-anchor="start" x="19.25" y="-56.5" font-family="Helvetica,sans-Serif" font-size="10.00">CharacterController</text>
<text text-anchor="middle" x="61.62" y="-44.5" font-family="Helvetica,sans-Serif" font-size="10.00">::Move</text>
</a>
</g>
</g>
<!-- Node12&#45;&gt;Node14 -->
<g id="edge14_Node000012_Node000014" class="edge">
<title>Node12&#45;&gt;Node14</title>
<g id="a_edge14_Node000012_Node000014"><a xlink:title=" ">
<path fill="none" stroke="#63b8ff" d="M188.72,-54C164.91,-54 136.3,-54 112.36,-54"/>
<polygon fill="#63b8ff" stroke="#63b8ff" points="188.47,-57.5 198.47,-54 188.47,-50.5 188.47,-57.5"/>
</a>
</g>
</g>
<!-- Node15 -->
<g id="Node000015" class="node">
<title>Node15</title>
<g id="a_Node000015"><a xlink:href="namespaceutils.html#aaa39be44524c9229c357e1e9505d2667" target="_top" xlink:title=" ">
<polygon fill="white" stroke="#666666" points="100,-20 23.25,-20 23.25,0 100,0 100,-20"/>
<text text-anchor="middle" x="61.62" y="-6.5" font-family="Helvetica,sans-Serif" font-size="10.00">utils::Raycast</text>
</a>
</g>
</g>
<!-- Node12&#45;&gt;Node15 -->
<g id="edge15_Node000012_Node000015" class="edge">
<title>Node12&#45;&gt;Node15</title>
<g id="a_edge15_Node000012_Node000015"><a xlink:title=" ">
<path fill="none" stroke="#63b8ff" d="M188.84,-41.76C160.88,-34.72 126.28,-26.02 100.38,-19.5"/>
<polygon fill="#63b8ff" stroke="#63b8ff" points="187.97,-45.15 198.52,-44.19 189.67,-38.36 187.97,-45.15"/>
</a>
</g>
</g>
</g>
</svg>
