<?xml version="1.0" encoding="UTF-8" standalone="no"?>
<!DOCTYPE svg PUBLIC "-//W3C//DTD SVG 1.1//EN"
 "http://www.w3.org/Graphics/SVG/1.1/DTD/svg11.dtd">
<!-- Generated by graphviz version 12.2.1 (20241206.2353)
 -->
<!-- Title: Celeste/pch.h Pages: 1 -->
<svg width="4163pt" height="96pt"
 viewBox="0.00 0.00 4162.88 96.00" xmlns="http://www.w3.org/2000/svg" xmlns:xlink="http://www.w3.org/1999/xlink">
<g id="graph0" class="graph" transform="scale(1 1) rotate(0) translate(4 92)">
<title>Celeste/pch.h</title>
<!-- Node1 -->
<g id="Node000001" class="node">
<title>Node1</title>
<g id="a_Node000001"><a xlink:title=" ">
<polygon fill="#999999" stroke="#666666" points="2177.62,-88 2100.88,-88 2100.88,-68 2177.62,-68 2177.62,-88"/>
<text text-anchor="middle" x="2139.25" y="-74.5" font-family="Helvetica,sans-Serif" font-size="10.00">Celeste/pch.h</text>
</a>
</g>
</g>
<!-- Node2 -->
<g id="Node000002" class="node">
<title>Node2</title>
<g id="a_Node000002"><a xlink:href="_animation_manager_8cpp.html" target="_top" xlink:title=" ">
<polygon fill="white" stroke="#666666" points="152.5,-26 0,-26 0,-6 152.5,-6 152.5,-26"/>
<text text-anchor="middle" x="76.25" y="-12.5" font-family="Helvetica,sans-Serif" font-size="10.00">Celeste/AnimationManager.cpp</text>
</a>
</g>
</g>
<!-- Node1&#45;&gt;Node2 -->
<g id="edge1_Node000001_Node000002" class="edge">
<title>Node1&#45;&gt;Node2</title>
<g id="a_edge1_Node000001_Node000002"><a xlink:title=" ">
<path fill="none" stroke="#63b8ff" d="M2089.12,-76.89C1820.78,-76.16 551.74,-70.67 161.25,-32 148.57,-30.74 134.95,-28.67 122.39,-26.46"/>
<polygon fill="#63b8ff" stroke="#63b8ff" points="2088.9,-80.39 2098.91,-76.92 2088.92,-73.39 2088.9,-80.39"/>
</a>
</g>
</g>
<!-- Node3 -->
<g id="Node000003" class="node">
<title>Node3</title>
<g id="a_Node000003"><a xlink:href="_camera_8cpp.html" target="_top" xlink:title=" ">
<polygon fill="white" stroke="#666666" points="276.25,-26 170.25,-26 170.25,-6 276.25,-6 276.25,-26"/>
<text text-anchor="middle" x="223.25" y="-12.5" font-family="Helvetica,sans-Serif" font-size="10.00">Celeste/Camera.cpp</text>
</a>
</g>
</g>
<!-- Node1&#45;&gt;Node3 -->
<g id="edge2_Node000001_Node000003" class="edge">
<title>Node1&#45;&gt;Node3</title>
<g id="a_edge2_Node000001_Node000003"><a xlink:title=" ">
<path fill="none" stroke="#63b8ff" d="M2089.36,-77.23C1831.59,-78.17 648.56,-79.8 285.25,-32 275.92,-30.77 265.95,-28.71 256.79,-26.49"/>
<polygon fill="#63b8ff" stroke="#63b8ff" points="2089.09,-80.73 2099.07,-77.19 2089.06,-73.73 2089.09,-80.73"/>
</a>
</g>
</g>
<!-- Node4 -->
<g id="Node000004" class="node">
<title>Node4</title>
<g id="a_Node000004"><a xlink:href="_chapter_loader_8cpp.html" target="_top" xlink:title=" ">
<polygon fill="white" stroke="#666666" points="429.88,-26 294.62,-26 294.62,-6 429.88,-6 429.88,-26"/>
<text text-anchor="middle" x="362.25" y="-12.5" font-family="Helvetica,sans-Serif" font-size="10.00">Celeste/ChapterLoader.cpp</text>
</a>
</g>
</g>
<!-- Node1&#45;&gt;Node4 -->
<g id="edge3_Node000001_Node000004" class="edge">
<title>Node1&#45;&gt;Node4</title>
<g id="a_edge3_Node000001_Node000004"><a xlink:title=" ">
<path fill="none" stroke="#63b8ff" d="M2089.3,-76.8C1844.67,-75.63 771.31,-68.48 439.25,-32 427.74,-30.74 415.39,-28.66 404.02,-26.44"/>
<polygon fill="#63b8ff" stroke="#63b8ff" points="2089.12,-80.3 2099.14,-76.84 2089.15,-73.3 2089.12,-80.3"/>
</a>
</g>
</g>
<!-- Node5 -->
<g id="Node000005" class="node">
<title>Node5</title>
<g id="a_Node000005"><a xlink:href="_character_8cpp.html" target="_top" xlink:title=" ">
<polygon fill="white" stroke="#666666" points="562.38,-26 448.12,-26 448.12,-6 562.38,-6 562.38,-26"/>
<text text-anchor="middle" x="505.25" y="-12.5" font-family="Helvetica,sans-Serif" font-size="10.00">Celeste/Character.cpp</text>
</a>
</g>
</g>
<!-- Node1&#45;&gt;Node5 -->
<g id="edge4_Node000001_Node000005" class="edge">
<title>Node1&#45;&gt;Node5</title>
<g id="a_edge4_Node000001_Node000005"><a xlink:title=" ">
<path fill="none" stroke="#63b8ff" d="M2089.1,-76.87C1855.79,-76.09 875.14,-70.52 571.25,-32 561.34,-30.74 550.74,-28.67 540.99,-26.46"/>
<polygon fill="#63b8ff" stroke="#63b8ff" points="2089.06,-80.37 2099.07,-76.91 2089.08,-73.37 2089.06,-80.37"/>
</a>
</g>
</g>
<!-- Node6 -->
<g id="Node000006" class="node">
<title>Node6</title>
<g id="a_Node000006"><a xlink:href="_character_controller_8cpp.html" target="_top" xlink:title=" ">
<polygon fill="white" stroke="#666666" points="736.38,-26 580.12,-26 580.12,-6 736.38,-6 736.38,-26"/>
<text text-anchor="middle" x="658.25" y="-12.5" font-family="Helvetica,sans-Serif" font-size="10.00">Celeste/CharacterController.cpp</text>
</a>
</g>
</g>
<!-- Node1&#45;&gt;Node6 -->
<g id="edge5_Node000001_Node000006" class="edge">
<title>Node1&#45;&gt;Node6</title>
<g id="a_edge5_Node000001_Node000006"><a xlink:title=" ">
<path fill="none" stroke="#63b8ff" d="M2089.18,-76.31C1872.44,-73.2 1013.87,-59.36 745.25,-32 732.44,-30.7 718.67,-28.63 705.95,-26.45"/>
<polygon fill="#63b8ff" stroke="#63b8ff" points="2088.93,-79.81 2098.97,-76.45 2089.02,-72.81 2088.93,-79.81"/>
</a>
</g>
</g>
<!-- Node7 -->
<g id="Node000007" class="node">
<title>Node7</title>
<g id="a_Node000007"><a xlink:href="_character_sound_manager_8cpp.html" target="_top" xlink:title=" ">
<polygon fill="white" stroke="#666666" points="934,-26 754.5,-26 754.5,-6 934,-6 934,-26"/>
<text text-anchor="middle" x="844.25" y="-12.5" font-family="Helvetica,sans-Serif" font-size="10.00">Celeste/CharacterSoundManager.cpp</text>
</a>
</g>
</g>
<!-- Node1&#45;&gt;Node7 -->
<g id="edge6_Node000001_Node000007" class="edge">
<title>Node1&#45;&gt;Node7</title>
<g id="a_edge6_Node000001_Node000007"><a xlink:title=" ">
<path fill="none" stroke="#63b8ff" d="M2089.24,-77.13C1924.83,-77.14 1386.18,-73.75 943.25,-32 928.97,-30.65 913.61,-28.62 899.36,-26.48"/>
<polygon fill="#63b8ff" stroke="#63b8ff" points="2088.91,-80.63 2098.91,-77.13 2088.91,-73.63 2088.91,-80.63"/>
</a>
</g>
</g>
<!-- Node8 -->
<g id="Node000008" class="node">
<title>Node8</title>
<g id="a_Node000008"><a xlink:href="_character_texture_manager_8cpp.html" target="_top" xlink:title=" ">
<polygon fill="white" stroke="#666666" points="1080.12,-32 952.38,-32 952.38,0 1080.12,0 1080.12,-32"/>
<text text-anchor="start" x="960.38" y="-18.5" font-family="Helvetica,sans-Serif" font-size="10.00">Celeste/CharacterTexture</text>
<text text-anchor="middle" x="1016.25" y="-6.5" font-family="Helvetica,sans-Serif" font-size="10.00">Manager.cpp</text>
</a>
</g>
</g>
<!-- Node1&#45;&gt;Node8 -->
<g id="edge7_Node000001_Node000008" class="edge">
<title>Node1&#45;&gt;Node8</title>
<g id="a_edge7_Node000001_Node000008"><a xlink:title=" ">
<path fill="none" stroke="#63b8ff" d="M2089.37,-75.92C1908.36,-71.84 1286.49,-56.33 1089.25,-32 1086.3,-31.64 1083.28,-31.22 1080.25,-30.75"/>
<polygon fill="#63b8ff" stroke="#63b8ff" points="2089.05,-79.41 2099.13,-76.14 2089.21,-72.42 2089.05,-79.41"/>
</a>
</g>
</g>
<!-- Node9 -->
<g id="Node000009" class="node">
<title>Node9</title>
<g id="a_Node000009"><a xlink:href="_cog_platform_8cpp.html" target="_top" xlink:title=" ">
<polygon fill="white" stroke="#666666" points="1224.38,-26 1098.12,-26 1098.12,-6 1224.38,-6 1224.38,-26"/>
<text text-anchor="middle" x="1161.25" y="-12.5" font-family="Helvetica,sans-Serif" font-size="10.00">Celeste/CogPlatform.cpp</text>
</a>
</g>
</g>
<!-- Node1&#45;&gt;Node9 -->
<g id="edge8_Node000001_Node000009" class="edge">
<title>Node1&#45;&gt;Node9</title>
<g id="a_edge8_Node000001_Node000009"><a xlink:title=" ">
<path fill="none" stroke="#63b8ff" d="M2089.31,-77.24C1952.04,-77.32 1557.69,-73.6 1233.25,-32 1222.74,-30.65 1211.47,-28.6 1201.05,-26.45"/>
<polygon fill="#63b8ff" stroke="#63b8ff" points="2089.14,-80.74 2099.13,-77.23 2089.13,-73.74 2089.14,-80.74"/>
</a>
</g>
</g>
<!-- Node10 -->
<g id="Node000010" class="node">
<title>Node10</title>
<g id="a_Node000010"><a xlink:href="_crumble_block_8cpp.html" target="_top" xlink:title=" ">
<polygon fill="white" stroke="#666666" points="1375.75,-26 1242.75,-26 1242.75,-6 1375.75,-6 1375.75,-26"/>
<text text-anchor="middle" x="1309.25" y="-12.5" font-family="Helvetica,sans-Serif" font-size="10.00">Celeste/CrumbleBlock.cpp</text>
</a>
</g>
</g>
<!-- Node1&#45;&gt;Node10 -->
<g id="edge9_Node000001_Node000010" class="edge">
<title>Node1&#45;&gt;Node10</title>
<g id="a_edge9_Node000001_Node000010"><a xlink:title=" ">
<path fill="none" stroke="#63b8ff" d="M2089.18,-76.35C1967.91,-74.26 1648.98,-65.74 1385.25,-32 1374.31,-30.6 1362.58,-28.56 1351.69,-26.43"/>
<polygon fill="#63b8ff" stroke="#63b8ff" points="2089.06,-79.85 2099.12,-76.51 2089.17,-72.85 2089.06,-79.85"/>
</a>
</g>
</g>
<!-- Node11 -->
<g id="Node000011" class="node">
<title>Node11</title>
<g id="a_Node000011"><a xlink:href="_dash_crystal_8cpp.html" target="_top" xlink:title=" ">
<polygon fill="white" stroke="#666666" points="1520.38,-26 1394.12,-26 1394.12,-6 1520.38,-6 1520.38,-26"/>
<text text-anchor="middle" x="1457.25" y="-12.5" font-family="Helvetica,sans-Serif" font-size="10.00">Celeste/DashCrystal.cpp</text>
</a>
</g>
</g>
<!-- Node1&#45;&gt;Node11 -->
<g id="edge10_Node000001_Node000011" class="edge">
<title>Node1&#45;&gt;Node11</title>
<g id="a_edge10_Node000001_Node000011"><a xlink:title=" ">
<path fill="none" stroke="#63b8ff" d="M2089.09,-75.54C1984.52,-71.99 1735.81,-61.01 1529.25,-32 1519.01,-30.56 1508.04,-28.53 1497.83,-26.43"/>
<polygon fill="#63b8ff" stroke="#63b8ff" points="2088.9,-79.03 2099.01,-75.86 2089.13,-72.04 2088.9,-79.03"/>
</a>
</g>
</g>
<!-- Node12 -->
<g id="Node000012" class="node">
<title>Node12</title>
<g id="a_Node000012"><a xlink:href="_flying_strawberry_8cpp.html" target="_top" xlink:title=" ">
<polygon fill="white" stroke="#666666" points="1682.38,-26 1538.12,-26 1538.12,-6 1682.38,-6 1682.38,-26"/>
<text text-anchor="middle" x="1610.25" y="-12.5" font-family="Helvetica,sans-Serif" font-size="10.00">Celeste/FlyingStrawberry.cpp</text>
</a>
</g>
</g>
<!-- Node1&#45;&gt;Node12 -->
<g id="edge11_Node000001_Node000012" class="edge">
<title>Node1&#45;&gt;Node12</title>
<g id="a_edge11_Node000001_Node000012"><a xlink:title=" ">
<path fill="none" stroke="#63b8ff" d="M2089.11,-73.33C2006.12,-66.95 1835.04,-52.5 1691.25,-32 1680.35,-30.45 1668.68,-28.47 1657.68,-26.47"/>
<polygon fill="#63b8ff" stroke="#63b8ff" points="2088.72,-76.81 2098.96,-74.08 2089.25,-69.83 2088.72,-76.81"/>
</a>
</g>
</g>
<!-- Node13 -->
<g id="Node000013" class="node">
<title>Node13</title>
<g id="a_Node000013"><a xlink:href="_game_8cpp.html" target="_top" xlink:title=" ">
<polygon fill="white" stroke="#666666" points="1798.12,-26 1700.38,-26 1700.38,-6 1798.12,-6 1798.12,-26"/>
<text text-anchor="middle" x="1749.25" y="-12.5" font-family="Helvetica,sans-Serif" font-size="10.00">Celeste/Game.cpp</text>
</a>
</g>
</g>
<!-- Node1&#45;&gt;Node13 -->
<g id="edge12_Node000001_Node000013" class="edge">
<title>Node1&#45;&gt;Node13</title>
<g id="a_edge12_Node000001_Node000013"><a xlink:title=" ">
<path fill="none" stroke="#63b8ff" d="M2089.24,-72.09C2024,-65.25 1906.46,-51.48 1807.25,-32 1799.39,-30.46 1791.01,-28.48 1783.14,-26.48"/>
<polygon fill="#63b8ff" stroke="#63b8ff" points="2088.6,-75.54 2098.91,-73.09 2089.32,-68.58 2088.6,-75.54"/>
</a>
</g>
</g>
<!-- Node14 -->
<g id="Node000014" class="node">
<title>Node14</title>
<g id="a_Node000014"><a xlink:href="_game_object_8cpp.html" target="_top" xlink:title=" ">
<polygon fill="white" stroke="#666666" points="1942.38,-26 1816.12,-26 1816.12,-6 1942.38,-6 1942.38,-26"/>
<text text-anchor="middle" x="1879.25" y="-12.5" font-family="Helvetica,sans-Serif" font-size="10.00">Celeste/GameObject.cpp</text>
</a>
</g>
</g>
<!-- Node1&#45;&gt;Node14 -->
<g id="edge13_Node000001_Node000014" class="edge">
<title>Node1&#45;&gt;Node14</title>
<g id="a_edge13_Node000001_Node000014"><a xlink:title=" ">
<path fill="none" stroke="#63b8ff" d="M2089.61,-65.54C2040.47,-54.21 1966.14,-37.05 1920.25,-26.46"/>
<polygon fill="#63b8ff" stroke="#63b8ff" points="2088.6,-68.9 2099.13,-67.74 2090.17,-62.08 2088.6,-68.9"/>
</a>
</g>
</g>
<!-- Node15 -->
<g id="Node000015" class="node">
<title>Node15</title>
<g id="a_Node000015"><a xlink:href="_hair_8cpp.html" target="_top" xlink:title=" ">
<polygon fill="white" stroke="#666666" points="2050,-26 1960.5,-26 1960.5,-6 2050,-6 2050,-26"/>
<text text-anchor="middle" x="2005.25" y="-12.5" font-family="Helvetica,sans-Serif" font-size="10.00">Celeste/Hair.cpp</text>
</a>
</g>
</g>
<!-- Node1&#45;&gt;Node15 -->
<g id="edge14_Node000001_Node000015" class="edge">
<title>Node1&#45;&gt;Node15</title>
<g id="a_edge14_Node000001_Node000015"><a xlink:title=" ">
<path fill="none" stroke="#63b8ff" d="M2107.81,-62.92C2082.59,-51.63 2047.91,-36.1 2026.04,-26.31"/>
<polygon fill="#63b8ff" stroke="#63b8ff" points="2106.37,-66.11 2116.93,-67.01 2109.23,-59.73 2106.37,-66.11"/>
</a>
</g>
</g>
<!-- Node16 -->
<g id="Node000016" class="node">
<title>Node16</title>
<g id="a_Node000016"><a xlink:href="_interactable_item_8cpp.html" target="_top" xlink:title=" ">
<polygon fill="white" stroke="#666666" points="2210.25,-26 2068.25,-26 2068.25,-6 2210.25,-6 2210.25,-26"/>
<text text-anchor="middle" x="2139.25" y="-12.5" font-family="Helvetica,sans-Serif" font-size="10.00">Celeste/InteractableItem.cpp</text>
</a>
</g>
</g>
<!-- Node1&#45;&gt;Node16 -->
<g id="edge15_Node000001_Node000016" class="edge">
<title>Node1&#45;&gt;Node16</title>
<g id="a_edge15_Node000001_Node000016"><a xlink:title=" ">
<path fill="none" stroke="#63b8ff" d="M2139.25,-56.25C2139.25,-45.97 2139.25,-34.09 2139.25,-26.11"/>
<polygon fill="#63b8ff" stroke="#63b8ff" points="2135.75,-56.11 2139.25,-66.11 2142.75,-56.11 2135.75,-56.11"/>
</a>
</g>
</g>
<!-- Node17 -->
<g id="Node000017" class="node">
<title>Node17</title>
<g id="a_Node000017"><a xlink:href="_level_8cpp.html" target="_top" xlink:title=" ">
<polygon fill="white" stroke="#666666" points="2322.62,-26 2227.88,-26 2227.88,-6 2322.62,-6 2322.62,-26"/>
<text text-anchor="middle" x="2275.25" y="-12.5" font-family="Helvetica,sans-Serif" font-size="10.00">Celeste/Level.cpp</text>
</a>
</g>
</g>
<!-- Node1&#45;&gt;Node17 -->
<g id="edge16_Node000001_Node000017" class="edge">
<title>Node1&#45;&gt;Node17</title>
<g id="a_edge16_Node000001_Node000017"><a xlink:title=" ">
<path fill="none" stroke="#63b8ff" d="M2170.81,-63.07C2196.44,-51.77 2231.85,-36.15 2254.15,-26.31"/>
<polygon fill="#63b8ff" stroke="#63b8ff" points="2169.62,-59.78 2161.88,-67.01 2172.45,-66.18 2169.62,-59.78"/>
</a>
</g>
</g>
<!-- Node18 -->
<g id="Node000018" class="node">
<title>Node18</title>
<g id="a_Node000018"><a xlink:href="_level_manager_8cpp.html" target="_top" xlink:title=" ">
<polygon fill="white" stroke="#666666" points="2473.38,-26 2341.12,-26 2341.12,-6 2473.38,-6 2473.38,-26"/>
<text text-anchor="middle" x="2407.25" y="-12.5" font-family="Helvetica,sans-Serif" font-size="10.00">Celeste/LevelManager.cpp</text>
</a>
</g>
</g>
<!-- Node1&#45;&gt;Node18 -->
<g id="edge17_Node000001_Node000018" class="edge">
<title>Node1&#45;&gt;Node18</title>
<g id="a_edge17_Node000001_Node000018"><a xlink:title=" ">
<path fill="none" stroke="#63b8ff" d="M2188.93,-65.88C2239.58,-54.54 2317.28,-37.14 2365.04,-26.45"/>
<polygon fill="#63b8ff" stroke="#63b8ff" points="2188.4,-62.41 2179.41,-68.01 2189.93,-69.24 2188.4,-62.41"/>
</a>
</g>
</g>
<!-- Node19 -->
<g id="Node000019" class="node">
<title>Node19</title>
<g id="a_Node000019"><a xlink:href="_menu_item_8cpp.html" target="_top" xlink:title=" ">
<polygon fill="white" stroke="#666666" points="2606.75,-26 2491.75,-26 2491.75,-6 2606.75,-6 2606.75,-26"/>
<text text-anchor="middle" x="2549.25" y="-12.5" font-family="Helvetica,sans-Serif" font-size="10.00">Celeste/MenuItem.cpp</text>
</a>
</g>
</g>
<!-- Node1&#45;&gt;Node19 -->
<g id="edge18_Node000001_Node000019" class="edge">
<title>Node1&#45;&gt;Node19</title>
<g id="a_edge18_Node000001_Node000019"><a xlink:title=" ">
<path fill="none" stroke="#63b8ff" d="M2189.05,-71.89C2255.98,-64.69 2378.55,-50.37 2482.25,-32 2491.17,-30.42 2500.7,-28.46 2509.69,-26.47"/>
<polygon fill="#63b8ff" stroke="#63b8ff" points="2189.08,-68.36 2179.51,-72.9 2189.82,-75.32 2189.08,-68.36"/>
</a>
</g>
</g>
<!-- Node20 -->
<g id="Node000020" class="node">
<title>Node20</title>
<g id="a_Node000020"><a xlink:href="_pause_menu_8cpp.html" target="_top" xlink:title=" ">
<polygon fill="white" stroke="#666666" points="2747.88,-26 2624.62,-26 2624.62,-6 2747.88,-6 2747.88,-26"/>
<text text-anchor="middle" x="2686.25" y="-12.5" font-family="Helvetica,sans-Serif" font-size="10.00">Celeste/PauseMenu.cpp</text>
</a>
</g>
</g>
<!-- Node1&#45;&gt;Node20 -->
<g id="edge19_Node000001_Node000020" class="edge">
<title>Node1&#45;&gt;Node20</title>
<g id="a_edge19_Node000001_Node000020"><a xlink:title=" ">
<path fill="none" stroke="#63b8ff" d="M2189.48,-74.2C2276.69,-68.91 2461.6,-55.78 2616.25,-32 2625.95,-30.51 2636.34,-28.51 2646.05,-26.46"/>
<polygon fill="#63b8ff" stroke="#63b8ff" points="2189.37,-70.7 2179.59,-74.79 2189.78,-77.69 2189.37,-70.7"/>
</a>
</g>
</g>
<!-- Node21 -->
<g id="Node000021" class="node">
<title>Node21</title>
<g id="a_Node000021"><a xlink:href="_respawn_zone_8cpp.html" target="_top" xlink:title=" ">
<polygon fill="white" stroke="#666666" points="2900.5,-26 2766,-26 2766,-6 2900.5,-6 2900.5,-26"/>
<text text-anchor="middle" x="2833.25" y="-12.5" font-family="Helvetica,sans-Serif" font-size="10.00">Celeste/RespawnZone.cpp</text>
</a>
</g>
</g>
<!-- Node1&#45;&gt;Node21 -->
<g id="edge20_Node000001_Node000021" class="edge">
<title>Node1&#45;&gt;Node21</title>
<g id="a_edge20_Node000001_Node000021"><a xlink:title=" ">
<path fill="none" stroke="#63b8ff" d="M2189.34,-75.43C2294.81,-71.66 2547.36,-60.25 2757.25,-32 2767.91,-30.56 2779.33,-28.56 2790,-26.49"/>
<polygon fill="#63b8ff" stroke="#63b8ff" points="2189.49,-71.92 2179.62,-75.77 2189.73,-78.92 2189.49,-71.92"/>
</a>
</g>
</g>
<!-- Node22 -->
<g id="Node000022" class="node">
<title>Node22</title>
<g id="a_Node000022"><a xlink:href="_save_file_i_o_8cpp.html" target="_top" xlink:title=" ">
<polygon fill="white" stroke="#666666" points="3038.38,-26 2918.12,-26 2918.12,-6 3038.38,-6 3038.38,-26"/>
<text text-anchor="middle" x="2978.25" y="-12.5" font-family="Helvetica,sans-Serif" font-size="10.00">Celeste/SaveFileIO.cpp</text>
</a>
</g>
</g>
<!-- Node1&#45;&gt;Node22 -->
<g id="edge21_Node000001_Node000022" class="edge">
<title>Node1&#45;&gt;Node22</title>
<g id="a_edge21_Node000001_Node000022"><a xlink:title=" ">
<path fill="none" stroke="#63b8ff" d="M2189.17,-76.77C2312.15,-75.61 2639.35,-68.99 2909.25,-32 2919.21,-30.63 2929.87,-28.61 2939.76,-26.48"/>
<polygon fill="#63b8ff" stroke="#63b8ff" points="2189.4,-73.26 2179.43,-76.85 2189.46,-80.26 2189.4,-73.26"/>
</a>
</g>
</g>
<!-- Node23 -->
<g id="Node000023" class="node">
<title>Node23</title>
<g id="a_Node000023"><a xlink:href="_selectable_menu_item_8cpp.html" target="_top" xlink:title=" ">
<polygon fill="white" stroke="#666666" points="3217.62,-26 3056.88,-26 3056.88,-6 3217.62,-6 3217.62,-26"/>
<text text-anchor="middle" x="3137.25" y="-12.5" font-family="Helvetica,sans-Serif" font-size="10.00">Celeste/SelectableMenuItem.cpp</text>
</a>
</g>
</g>
<!-- Node1&#45;&gt;Node23 -->
<g id="edge22_Node000001_Node000023" class="edge">
<title>Node1&#45;&gt;Node23</title>
<g id="a_edge22_Node000001_Node000023"><a xlink:title=" ">
<path fill="none" stroke="#63b8ff" d="M2189.22,-76.55C2326.58,-74.87 2721.32,-67.12 3047.25,-32 3060.16,-30.61 3074.04,-28.57 3086.93,-26.44"/>
<polygon fill="#63b8ff" stroke="#63b8ff" points="2189.35,-73.05 2179.39,-76.66 2189.43,-80.05 2189.35,-73.05"/>
</a>
</g>
</g>
<!-- Node24 -->
<g id="Node000024" class="node">
<title>Node24</title>
<g id="a_Node000024"><a xlink:href="_slider_menu_item_8cpp.html" target="_top" xlink:title=" ">
<polygon fill="white" stroke="#666666" points="3375.12,-26 3235.38,-26 3235.38,-6 3375.12,-6 3375.12,-26"/>
<text text-anchor="middle" x="3305.25" y="-12.5" font-family="Helvetica,sans-Serif" font-size="10.00">Celeste/SliderMenuItem.cpp</text>
</a>
</g>
</g>
<!-- Node1&#45;&gt;Node24 -->
<g id="edge23_Node000001_Node000024" class="edge">
<title>Node1&#45;&gt;Node24</title>
<g id="a_edge23_Node000001_Node000024"><a xlink:title=" ">
<path fill="none" stroke="#63b8ff" d="M2189.34,-77.52C2344.16,-78.59 2828.5,-77.75 3226.25,-32 3237.76,-30.68 3250.11,-28.63 3261.55,-26.48"/>
<polygon fill="#63b8ff" stroke="#63b8ff" points="2189.46,-74.02 2179.43,-77.45 2189.41,-81.02 2189.46,-74.02"/>
</a>
</g>
</g>
<!-- Node25 -->
<g id="Node000025" class="node">
<title>Node25</title>
<g id="a_Node000025"><a xlink:href="_snow_flake_manager_8cpp.html" target="_top" xlink:title=" ">
<polygon fill="white" stroke="#666666" points="3551.12,-26 3393.38,-26 3393.38,-6 3551.12,-6 3551.12,-26"/>
<text text-anchor="middle" x="3472.25" y="-12.5" font-family="Helvetica,sans-Serif" font-size="10.00">Celeste/SnowFlakeManager.cpp</text>
</a>
</g>
</g>
<!-- Node1&#45;&gt;Node25 -->
<g id="edge24_Node000001_Node000025" class="edge">
<title>Node1&#45;&gt;Node25</title>
<g id="a_edge24_Node000001_Node000025"><a xlink:title=" ">
<path fill="none" stroke="#63b8ff" d="M2189.6,-77.57C2358.75,-78.98 2922.01,-79.54 3384.25,-32 3397.05,-30.68 3410.79,-28.64 3423.53,-26.49"/>
<polygon fill="#63b8ff" stroke="#63b8ff" points="2189.65,-74.07 2179.62,-77.48 2189.59,-81.07 2189.65,-74.07"/>
</a>
</g>
</g>
<!-- Node26 -->
<g id="Node000026" class="node">
<title>Node26</title>
<g id="a_Node000026"><a xlink:href="_spike_8cpp.html" target="_top" xlink:title=" ">
<polygon fill="white" stroke="#666666" points="3665.38,-26 3569.12,-26 3569.12,-6 3665.38,-6 3665.38,-26"/>
<text text-anchor="middle" x="3617.25" y="-12.5" font-family="Helvetica,sans-Serif" font-size="10.00">Celeste/Spike.cpp</text>
</a>
</g>
</g>
<!-- Node1&#45;&gt;Node26 -->
<g id="edge25_Node000001_Node000026" class="edge">
<title>Node1&#45;&gt;Node26</title>
<g id="a_edge25_Node000001_Node000026"><a xlink:title=" ">
<path fill="none" stroke="#63b8ff" d="M2189.27,-76.93C2408.71,-76.38 3287.43,-71.7 3560.25,-32 3568.86,-30.75 3578.03,-28.67 3586.45,-26.46"/>
<polygon fill="#63b8ff" stroke="#63b8ff" points="2189.34,-73.43 2179.35,-76.95 2189.36,-80.43 2189.34,-73.43"/>
</a>
</g>
</g>
<!-- Node27 -->
<g id="Node000027" class="node">
<title>Node27</title>
<g id="a_Node000027"><a xlink:href="_strawberry_8cpp.html" target="_top" xlink:title=" ">
<polygon fill="white" stroke="#666666" points="3801.25,-26 3683.25,-26 3683.25,-6 3801.25,-6 3801.25,-26"/>
<text text-anchor="middle" x="3742.25" y="-12.5" font-family="Helvetica,sans-Serif" font-size="10.00">Celeste/Strawberry.cpp</text>
</a>
</g>
</g>
<!-- Node1&#45;&gt;Node27 -->
<g id="edge26_Node000001_Node000027" class="edge">
<title>Node1&#45;&gt;Node27</title>
<g id="a_edge26_Node000001_Node000027"><a xlink:title=" ">
<path fill="none" stroke="#63b8ff" d="M2189.47,-76.8C2419.86,-75.66 3377.13,-68.79 3674.25,-32 3684.45,-30.74 3695.37,-28.66 3705.41,-26.45"/>
<polygon fill="#63b8ff" stroke="#63b8ff" points="2189.62,-73.29 2179.63,-76.84 2189.65,-80.29 2189.62,-73.29"/>
</a>
</g>
</g>
<!-- Node28 -->
<g id="Node000028" class="node">
<title>Node28</title>
<g id="a_Node000028"><a xlink:href="_trampoline_8cpp.html" target="_top" xlink:title=" ">
<polygon fill="white" stroke="#666666" points="3939,-26 3819.5,-26 3819.5,-6 3939,-6 3939,-26"/>
<text text-anchor="middle" x="3879.25" y="-12.5" font-family="Helvetica,sans-Serif" font-size="10.00">Celeste/Trampoline.cpp</text>
</a>
</g>
</g>
<!-- Node1&#45;&gt;Node28 -->
<g id="edge27_Node000001_Node000028" class="edge">
<title>Node1&#45;&gt;Node28</title>
<g id="a_edge27_Node000001_Node000028"><a xlink:title=" ">
<path fill="none" stroke="#63b8ff" d="M2189.15,-76.92C2431.19,-76.31 3484.62,-71.43 3810.25,-32 3820.59,-30.75 3831.68,-28.67 3841.87,-26.46"/>
<polygon fill="#63b8ff" stroke="#63b8ff" points="2189.42,-73.41 2179.43,-76.94 2189.44,-80.41 2189.42,-73.41"/>
</a>
</g>
</g>
<!-- Node29 -->
<g id="Node000029" class="node">
<title>Node29</title>
<g id="a_Node000029"><a xlink:href="main_8cpp.html" target="_top" xlink:title=" ">
<polygon fill="white" stroke="#666666" points="4049.5,-26 3957,-26 3957,-6 4049.5,-6 4049.5,-26"/>
<text text-anchor="middle" x="4003.25" y="-12.5" font-family="Helvetica,sans-Serif" font-size="10.00">Celeste/main.cpp</text>
</a>
</g>
</g>
<!-- Node1&#45;&gt;Node29 -->
<g id="edge28_Node000001_Node000029" class="edge">
<title>Node1&#45;&gt;Node29</title>
<g id="a_edge28_Node000001_Node000029"><a xlink:title=" ">
<path fill="none" stroke="#63b8ff" d="M2189.13,-76.48C2462.21,-73.52 3770.23,-58.1 3948.25,-32 3956.67,-30.77 3965.64,-28.67 3973.84,-26.43"/>
<polygon fill="#63b8ff" stroke="#63b8ff" points="2189.49,-72.97 2179.53,-76.58 2189.56,-79.97 2189.49,-72.97"/>
</a>
</g>
</g>
<!-- Node30 -->
<g id="Node000030" class="node">
<title>Node30</title>
<g id="a_Node000030"><a xlink:href="pch_8cpp.html" target="_top" xlink:title=" ">
<polygon fill="white" stroke="#666666" points="4154.88,-26 4067.62,-26 4067.62,-6 4154.88,-6 4154.88,-26"/>
<text text-anchor="middle" x="4111.25" y="-12.5" font-family="Helvetica,sans-Serif" font-size="10.00">Celeste/pch.cpp</text>
</a>
</g>
</g>
<!-- Node1&#45;&gt;Node30 -->
<g id="edge29_Node000001_Node000030" class="edge">
<title>Node1&#45;&gt;Node30</title>
<g id="a_edge29_Node000001_Node000030"><a xlink:title=" ">
<path fill="none" stroke="#63b8ff" d="M2188.98,-76.58C2471.52,-74.12 3868.82,-60.56 4058.25,-32 4066.38,-30.77 4075.03,-28.68 4082.93,-26.44"/>
<polygon fill="#63b8ff" stroke="#63b8ff" points="2189.36,-73.08 2179.39,-76.67 2189.42,-80.08 2189.36,-73.08"/>
</a>
</g>
</g>
</g>
</svg>
