<?xml version="1.0" encoding="UTF-8" standalone="no"?>
<!DOCTYPE svg PUBLIC "-//W3C//DTD SVG 1.1//EN"
 "http://www.w3.org/Graphics/SVG/1.1/DTD/svg11.dtd">
<!-- Generated by graphviz version 12.2.1 (20241206.2353)
 -->
<!-- Title: Matrix2x3::Matrix2x3 Pages: 1 -->
<svg width="472pt" height="448pt"
 viewBox="0.00 0.00 471.50 448.00" xmlns="http://www.w3.org/2000/svg" xmlns:xlink="http://www.w3.org/1999/xlink">
<g id="graph0" class="graph" transform="scale(1 1) rotate(0) translate(4 444)">
<title>Matrix2x3::Matrix2x3</title>
<!-- Node1 -->
<g id="Node000001" class="node">
<title>Node1</title>
<g id="a_Node000001"><a xlink:title=" ">
<polygon fill="#999999" stroke="#666666" points="463.5,-206 356,-206 356,-186 463.5,-186 463.5,-206"/>
<text text-anchor="middle" x="409.75" y="-192.5" font-family="Helvetica,sans-Serif" font-size="10.00">Matrix2x3::Matrix2x3</text>
</a>
</g>
</g>
<!-- Node2 -->
<g id="Node000002" class="node">
<title>Node2</title>
<g id="a_Node000002"><a xlink:href="struct_matrix2x3.html#abb909426e18e4ee36d71303dfb19180c" target="_top" xlink:title=" ">
<polygon fill="white" stroke="#666666" points="312.12,-440 185.88,-440 185.88,-408 312.12,-408 312.12,-440"/>
<text text-anchor="start" x="193.88" y="-426.5" font-family="Helvetica,sans-Serif" font-size="10.00">Matrix2x3::CreateIdentity</text>
<text text-anchor="middle" x="249" y="-414.5" font-family="Helvetica,sans-Serif" font-size="10.00">Matrix</text>
</a>
</g>
</g>
<!-- Node1&#45;&gt;Node2 -->
<g id="edge1_Node000001_Node000002" class="edge">
<title>Node1&#45;&gt;Node2</title>
<g id="a_edge1_Node000001_Node000002"><a xlink:title=" ">
<path fill="none" stroke="#63b8ff" d="M405.2,-217.3C397.28,-258.21 374.42,-348.22 320,-399 316.51,-402.26 312.57,-405.1 308.37,-407.57"/>
<polygon fill="#63b8ff" stroke="#63b8ff" points="408.62,-218.02 406.96,-207.55 401.73,-216.77 408.62,-218.02"/>
</a>
</g>
</g>
<!-- Node3 -->
<g id="Node000003" class="node">
<title>Node3</title>
<g id="a_Node000003"><a xlink:href="struct_matrix2x3.html#aed0a26eca83d2ddf32e6cfb598e6b736" target="_top" xlink:title=" ">
<polygon fill="white" stroke="#666666" points="314.38,-390 183.62,-390 183.62,-358 314.38,-358 314.38,-390"/>
<text text-anchor="start" x="191.62" y="-376.5" font-family="Helvetica,sans-Serif" font-size="10.00">Matrix2x3::CreateRotation</text>
<text text-anchor="middle" x="249" y="-364.5" font-family="Helvetica,sans-Serif" font-size="10.00">Matrix</text>
</a>
</g>
</g>
<!-- Node1&#45;&gt;Node3 -->
<g id="edge2_Node000001_Node000003" class="edge">
<title>Node1&#45;&gt;Node3</title>
<g id="a_edge2_Node000001_Node000003"><a xlink:title=" ">
<path fill="none" stroke="#63b8ff" d="M402.01,-216.73C390.38,-249.38 363.51,-312.79 320,-349 316.13,-352.22 311.82,-355.04 307.28,-357.5"/>
<polygon fill="#63b8ff" stroke="#63b8ff" points="405.2,-218.23 405.12,-207.63 398.58,-215.96 405.2,-218.23"/>
</a>
</g>
</g>
<!-- Node4 -->
<g id="Node000004" class="node">
<title>Node4</title>
<g id="a_Node000004"><a xlink:href="struct_matrix2x3.html#a711d56903759860eeb07792c0a18accf" target="_top" xlink:title=" ">
<polygon fill="white" stroke="#666666" points="312.12,-322 185.88,-322 185.88,-290 312.12,-290 312.12,-322"/>
<text text-anchor="start" x="193.88" y="-308.5" font-family="Helvetica,sans-Serif" font-size="10.00">Matrix2x3::CreateScaling</text>
<text text-anchor="middle" x="249" y="-296.5" font-family="Helvetica,sans-Serif" font-size="10.00">Matrix</text>
</a>
</g>
</g>
<!-- Node1&#45;&gt;Node4 -->
<g id="edge3_Node000001_Node000004" class="edge">
<title>Node1&#45;&gt;Node4</title>
<g id="a_edge3_Node000001_Node000004"><a xlink:title=" ">
<path fill="none" stroke="#63b8ff" d="M391.68,-214.58C374.78,-232.15 347.53,-258.39 320,-276 312.09,-281.06 303.19,-285.62 294.45,-289.57"/>
<polygon fill="#63b8ff" stroke="#63b8ff" points="394.16,-217.05 398.48,-207.38 389.07,-212.25 394.16,-217.05"/>
</a>
</g>
</g>
<!-- Node5 -->
<g id="Node000005" class="node">
<title>Node5</title>
<g id="a_Node000005"><a xlink:href="struct_matrix2x3.html#a52cc47e552aaae1d30e48ecb5843fb65" target="_top" xlink:title=" ">
<polygon fill="white" stroke="#666666" points="134.12,-300 7.88,-300 7.88,-268 134.12,-268 134.12,-300"/>
<text text-anchor="start" x="15.88" y="-286.5" font-family="Helvetica,sans-Serif" font-size="10.00">Matrix2x3::CreateScaling</text>
<text text-anchor="middle" x="71" y="-274.5" font-family="Helvetica,sans-Serif" font-size="10.00">Matrix</text>
</a>
</g>
</g>
<!-- Node1&#45;&gt;Node5 -->
<g id="edge7_Node000001_Node000005" class="edge">
<title>Node1&#45;&gt;Node5</title>
<g id="a_edge7_Node000001_Node000005"><a xlink:title=" ">
<path fill="none" stroke="#63b8ff" d="M383.75,-212.05C366.49,-222.42 342.65,-235.36 320,-243 258.8,-263.65 185.48,-274.13 134.5,-279.29"/>
<polygon fill="#63b8ff" stroke="#63b8ff" points="385.13,-215.32 391.81,-207.1 381.46,-209.36 385.13,-215.32"/>
</a>
</g>
</g>
<!-- Node6 -->
<g id="Node000006" class="node">
<title>Node6</title>
<g id="a_Node000006"><a xlink:href="struct_matrix2x3.html#a10c5c5cfdc51677cb9fec037f77039a7" target="_top" xlink:title=" ">
<polygon fill="white" stroke="#666666" points="312.12,-234 185.88,-234 185.88,-202 312.12,-202 312.12,-234"/>
<text text-anchor="start" x="193.88" y="-220.5" font-family="Helvetica,sans-Serif" font-size="10.00">Matrix2x3::CreateScaling</text>
<text text-anchor="middle" x="249" y="-208.5" font-family="Helvetica,sans-Serif" font-size="10.00">Matrix</text>
</a>
</g>
</g>
<!-- Node1&#45;&gt;Node6 -->
<g id="edge6_Node000001_Node000006" class="edge">
<title>Node1&#45;&gt;Node6</title>
<g id="a_edge6_Node000001_Node000006"><a xlink:title=" ">
<path fill="none" stroke="#63b8ff" d="M344.6,-204.89C334.02,-206.36 323.07,-207.87 312.54,-209.33"/>
<polygon fill="#63b8ff" stroke="#63b8ff" points="344.96,-208.37 354.39,-203.53 344,-201.44 344.96,-208.37"/>
</a>
</g>
</g>
<!-- Node7 -->
<g id="Node000007" class="node">
<title>Node7</title>
<g id="a_Node000007"><a xlink:href="struct_matrix2x3.html#a69d1d84a3f032ee6954683c4eefdff16" target="_top" xlink:title=" ">
<polygon fill="white" stroke="#666666" points="142,-168 0,-168 0,-136 142,-136 142,-168"/>
<text text-anchor="start" x="8" y="-154.5" font-family="Helvetica,sans-Serif" font-size="10.00">Matrix2x3::CreateTranslation</text>
<text text-anchor="middle" x="71" y="-142.5" font-family="Helvetica,sans-Serif" font-size="10.00">Matrix</text>
</a>
</g>
</g>
<!-- Node1&#45;&gt;Node7 -->
<g id="edge8_Node000001_Node000007" class="edge">
<title>Node1&#45;&gt;Node7</title>
<g id="a_edge8_Node000001_Node000007"><a xlink:title=" ">
<path fill="none" stroke="#63b8ff" d="M344.57,-187.61C286.73,-180.06 201.86,-168.97 142.23,-161.18"/>
<polygon fill="#63b8ff" stroke="#63b8ff" points="343.89,-191.06 354.26,-188.88 344.8,-184.11 343.89,-191.06"/>
</a>
</g>
</g>
<!-- Node8 -->
<g id="Node000008" class="node">
<title>Node8</title>
<g id="a_Node000008"><a xlink:href="struct_matrix2x3.html#ac8a950cb3a25ebf8938678a010bd88d3" target="_top" xlink:title=" ">
<polygon fill="white" stroke="#666666" points="320,-146 178,-146 178,-114 320,-114 320,-146"/>
<text text-anchor="start" x="186" y="-132.5" font-family="Helvetica,sans-Serif" font-size="10.00">Matrix2x3::CreateTranslation</text>
<text text-anchor="middle" x="249" y="-120.5" font-family="Helvetica,sans-Serif" font-size="10.00">Matrix</text>
</a>
</g>
</g>
<!-- Node1&#45;&gt;Node8 -->
<g id="edge9_Node000001_Node000008" class="edge">
<title>Node1&#45;&gt;Node8</title>
<g id="a_edge9_Node000001_Node000008"><a xlink:title=" ">
<path fill="none" stroke="#63b8ff" d="M373.18,-181.21C348.36,-170.89 315.23,-157.12 289.57,-146.45"/>
<polygon fill="#63b8ff" stroke="#63b8ff" points="371.62,-184.35 382.2,-184.96 374.31,-177.89 371.62,-184.35"/>
</a>
</g>
</g>
<!-- Node9 -->
<g id="Node000009" class="node">
<title>Node9</title>
<g id="a_Node000009"><a xlink:href="struct_matrix2x3.html#a456cb41dbb6f08aa55abe26c1485e693" target="_top" xlink:title=" ">
<polygon fill="white" stroke="#666666" points="296.38,-96 201.62,-96 201.62,-76 296.38,-76 296.38,-96"/>
<text text-anchor="middle" x="249" y="-82.5" font-family="Helvetica,sans-Serif" font-size="10.00">Matrix2x3::Equals</text>
</a>
</g>
</g>
<!-- Node1&#45;&gt;Node9 -->
<g id="edge11_Node000001_Node000009" class="edge">
<title>Node1&#45;&gt;Node9</title>
<g id="a_edge11_Node000001_Node000009"><a xlink:title=" ">
<path fill="none" stroke="#63b8ff" d="M394.73,-176.35C378.9,-155.59 351.23,-123.36 320,-105 312.84,-100.79 304.71,-97.48 296.6,-94.9"/>
<polygon fill="#63b8ff" stroke="#63b8ff" points="391.85,-178.34 400.62,-184.29 397.48,-174.18 391.85,-178.34"/>
</a>
</g>
</g>
<!-- Node11 -->
<g id="Node000011" class="node">
<title>Node11</title>
<g id="a_Node000011"><a xlink:href="struct_matrix2x3.html#afbc3e76d9ad6b4520701d32c5927db21" target="_top" xlink:title=" ">
<polygon fill="white" stroke="#666666" points="297.5,-58 200.5,-58 200.5,-38 297.5,-38 297.5,-58"/>
<text text-anchor="middle" x="249" y="-44.5" font-family="Helvetica,sans-Serif" font-size="10.00">Matrix2x3::Inverse</text>
</a>
</g>
</g>
<!-- Node1&#45;&gt;Node11 -->
<g id="edge13_Node000001_Node000011" class="edge">
<title>Node1&#45;&gt;Node11</title>
<g id="a_edge13_Node000001_Node000011"><a xlink:title=" ">
<path fill="none" stroke="#63b8ff" d="M400.14,-175.37C387.09,-146.66 359.57,-95.05 320,-67 313.42,-62.34 305.76,-58.82 297.97,-56.17"/>
<polygon fill="#63b8ff" stroke="#63b8ff" points="396.88,-176.66 404.1,-184.42 403.3,-173.85 396.88,-176.66"/>
</a>
</g>
</g>
<!-- Node12 -->
<g id="Node000012" class="node">
<title>Node12</title>
<g id="a_Node000012"><a xlink:href="struct_matrix2x3.html#a4647422b0dcba6fba9c65375f899ec88" target="_top" xlink:title=" ">
<polygon fill="white" stroke="#666666" points="302.75,-20 195.25,-20 195.25,0 302.75,0 302.75,-20"/>
<text text-anchor="middle" x="249" y="-6.5" font-family="Helvetica,sans-Serif" font-size="10.00">Matrix2x3::Matrix2x3</text>
</a>
</g>
</g>
<!-- Node1&#45;&gt;Node12 -->
<g id="edge14_Node000001_Node000012" class="edge">
<title>Node1&#45;&gt;Node12</title>
<g id="a_edge14_Node000001_Node000012"><a xlink:title=" ">
<path fill="none" stroke="#63b8ff" d="M403.33,-174.47C393.21,-138.72 367.97,-67.3 320,-29 314.98,-24.99 309.18,-21.83 303.12,-19.33"/>
<polygon fill="#63b8ff" stroke="#63b8ff" points="399.93,-175.3 405.9,-184.05 406.69,-173.48 399.93,-175.3"/>
</a>
</g>
</g>
<!-- Node4&#45;&gt;Node4 -->
<g id="edge4_Node000004_Node000004" class="edge">
<title>Node4&#45;&gt;Node4</title>
<g id="a_edge4_Node000004_Node000004"><a xlink:title=" ">
<path fill="none" stroke="#63b8ff" d="M275.79,-333.71C271.32,-337.48 262.39,-340 249,-340 224.51,-340 214.94,-331.58 220.3,-322.44"/>
<polygon fill="#63b8ff" stroke="#63b8ff" points="279.22,-334.38 277.45,-323.93 272.32,-333.21 279.22,-334.38"/>
</a>
</g>
</g>
<!-- Node4&#45;&gt;Node5 -->
<g id="edge5_Node000004_Node000005" class="edge">
<title>Node4&#45;&gt;Node5</title>
<g id="a_edge5_Node000004_Node000005"><a xlink:title=" ">
<path fill="none" stroke="#63b8ff" d="M174.4,-296.8C161.08,-295.13 147.3,-293.41 134.35,-291.79"/>
<polygon fill="#63b8ff" stroke="#63b8ff" points="173.59,-300.23 183.95,-297.99 174.46,-293.28 173.59,-300.23"/>
</a>
</g>
</g>
<!-- Node8&#45;&gt;Node7 -->
<g id="edge10_Node000008_Node000007" class="edge">
<title>Node8&#45;&gt;Node7</title>
<g id="a_edge10_Node000008_Node000007"><a xlink:title=" ">
<path fill="none" stroke="#63b8ff" d="M166.45,-140.19C158.44,-141.19 150.37,-142.2 142.49,-143.19"/>
<polygon fill="#63b8ff" stroke="#63b8ff" points="166.69,-143.69 176.18,-138.98 165.82,-136.75 166.69,-143.69"/>
</a>
</g>
</g>
<!-- Node10 -->
<g id="Node000010" class="node">
<title>Node10</title>
<g id="a_Node000010"><a xlink:href="_matrix2x3_8cpp.html#ac147f8f50020921bd439e7f8d3a2ba25" target="_top" xlink:title=" ">
<polygon fill="white" stroke="#666666" points="102.62,-96 39.38,-96 39.38,-76 102.62,-76 102.62,-96"/>
<text text-anchor="middle" x="71" y="-82.5" font-family="Helvetica,sans-Serif" font-size="10.00">operator==</text>
</a>
</g>
</g>
<!-- Node9&#45;&gt;Node10 -->
<g id="edge12_Node000009_Node000010" class="edge">
<title>Node9&#45;&gt;Node10</title>
<g id="a_edge12_Node000009_Node000010"><a xlink:title=" ">
<path fill="none" stroke="#63b8ff" d="M190.05,-86C161.05,-86 127.11,-86 103.08,-86"/>
<polygon fill="#63b8ff" stroke="#63b8ff" points="189.78,-89.5 199.78,-86 189.78,-82.5 189.78,-89.5"/>
</a>
</g>
</g>
</g>
</svg>
