<?xml version="1.0" encoding="UTF-8" standalone="no"?>
<!DOCTYPE svg PUBLIC "-//W3C//DTD SVG 1.1//EN"
 "http://www.w3.org/Graphics/SVG/1.1/DTD/svg11.dtd">
<!-- Generated by graphviz version 12.2.1 (20241206.2353)
 -->
<!-- Title: Vector2x2f::Draw Pages: 1 -->
<svg width="217pt" height="66pt"
 viewBox="0.00 0.00 217.00 66.00" xmlns="http://www.w3.org/2000/svg" xmlns:xlink="http://www.w3.org/1999/xlink">
<g id="graph0" class="graph" transform="scale(1 1) rotate(0) translate(4 62)">
<title>Vector2x2f::Draw</title>
<!-- Node1 -->
<g id="Node000001" class="node">
<title>Node1</title>
<g id="a_Node000001"><a xlink:title=" ">
<polygon fill="#999999" stroke="#666666" points="91.75,-39 0,-39 0,-19 91.75,-19 91.75,-39"/>
<text text-anchor="middle" x="45.88" y="-25.5" font-family="Helvetica,sans-Serif" font-size="10.00">Vector2x2f::Draw</text>
</a>
</g>
</g>
<!-- Node2 -->
<g id="Node000002" class="node">
<title>Node2</title>
<g id="a_Node000002"><a xlink:href="namespaceutils.html#a520daf5b44f3927437d3f2d69c590d71" target="_top" xlink:title=" ">
<polygon fill="white" stroke="#666666" points="209,-58 127.75,-58 127.75,-38 209,-38 209,-58"/>
<text text-anchor="middle" x="168.38" y="-44.5" font-family="Helvetica,sans-Serif" font-size="10.00">utils::DrawLine</text>
</a>
</g>
</g>
<!-- Node1&#45;&gt;Node2 -->
<g id="edge1_Node000001_Node000002" class="edge">
<title>Node1&#45;&gt;Node2</title>
<g id="a_edge1_Node000001_Node000002"><a xlink:title=" ">
<path fill="none" stroke="#63b8ff" d="M92.09,-36.13C99.99,-37.37 108.25,-38.68 116.29,-39.95"/>
<polygon fill="#63b8ff" stroke="#63b8ff" points="115.54,-43.37 125.96,-41.47 116.63,-36.46 115.54,-43.37"/>
</a>
</g>
</g>
<!-- Node3 -->
<g id="Node000003" class="node">
<title>Node3</title>
<g id="a_Node000003"><a xlink:href="namespaceutils.html#abc8380a69410c7b193d9d36474ae211f" target="_top" xlink:title=" ">
<polygon fill="white" stroke="#666666" points="207.5,-20 129.25,-20 129.25,0 207.5,0 207.5,-20"/>
<text text-anchor="middle" x="168.38" y="-6.5" font-family="Helvetica,sans-Serif" font-size="10.00">utils::SetColor</text>
</a>
</g>
</g>
<!-- Node1&#45;&gt;Node3 -->
<g id="edge2_Node000001_Node000003" class="edge">
<title>Node1&#45;&gt;Node3</title>
<g id="a_edge2_Node000001_Node000003"><a xlink:title=" ">
<path fill="none" stroke="#63b8ff" d="M92.09,-21.87C100.44,-20.55 109.21,-19.17 117.69,-17.83"/>
<polygon fill="#63b8ff" stroke="#63b8ff" points="118.18,-21.3 127.52,-16.28 117.09,-14.39 118.18,-21.3"/>
</a>
</g>
</g>
</g>
</svg>
