<?xml version="1.0" encoding="UTF-8" standalone="no"?>
<!DOCTYPE svg PUBLIC "-//W3C//DTD SVG 1.1//EN"
 "http://www.w3.org/Graphics/SVG/1.1/DTD/svg11.dtd">
<!-- Generated by graphviz version 12.2.1 (20241206.2353)
 -->
<!-- Title: SnowFlake Pages: 1 -->
<svg width="126pt" height="118pt"
 viewBox="0.00 0.00 125.75 118.00" xmlns="http://www.w3.org/2000/svg" xmlns:xlink="http://www.w3.org/1999/xlink">
<g id="graph0" class="graph" transform="scale(1 1) rotate(0) translate(4 114)">
<title>SnowFlake</title>
<!-- Node1 -->
<g id="Node000001" class="node">
<title>Node1</title>
<g id="a_Node000001"><a xlink:title=" ">
<polygon fill="#999999" stroke="#666666" points="92.38,-20 27.62,-20 27.62,0 92.38,0 92.38,-20"/>
<text text-anchor="middle" x="60" y="-6.5" font-family="Helvetica,sans-Serif" font-size="10.00">SnowFlake</text>
</a>
</g>
</g>
<!-- Node2 -->
<g id="Node000002" class="node">
<title>Node2</title>
<g id="a_Node000002"><a xlink:href="struct_vector2f.html" target="_top" xlink:title=" ">
<polygon fill="white" stroke="#666666" points="52,-110 0,-110 0,-90 52,-90 52,-110"/>
<text text-anchor="middle" x="26" y="-96.5" font-family="Helvetica,sans-Serif" font-size="10.00">Vector2f</text>
</a>
</g>
</g>
<!-- Node2&#45;&gt;Node1 -->
<g id="edge1_Node000001_Node000002" class="edge">
<title>Node2&#45;&gt;Node1</title>
<g id="a_edge1_Node000001_Node000002"><a xlink:title=" ">
<path fill="none" stroke="#9a32cd" stroke-dasharray="5,2" d="M24.67,-78.45C24.69,-66.14 26.19,-50.52 32.25,-38 35.59,-31.1 41.46,-24.99 46.94,-20.34"/>
<polygon fill="#9a32cd" stroke="#9a32cd" points="21.17,-78.41 25.01,-88.28 28.16,-78.17 21.17,-78.41"/>
</a>
</g>
<text text-anchor="start" x="35.25" y="-59.5" font-family="Helvetica,sans-Serif" font-size="10.00" fill="grey">position</text>
<text text-anchor="start" x="35.25" y="-43.5" font-family="Helvetica,sans-Serif" font-size="10.00" fill="grey">velocity</text>
</g>
<!-- Node3 -->
<g id="Node000003" class="node">
<title>Node3</title>
<g id="a_Node000003"><a xlink:href="struct_color4f.html" target="_top" xlink:title=" ">
<polygon fill="white" stroke="#666666" points="117.75,-110 70.25,-110 70.25,-90 117.75,-90 117.75,-110"/>
<text text-anchor="middle" x="94" y="-96.5" font-family="Helvetica,sans-Serif" font-size="10.00">Color4f</text>
</a>
</g>
</g>
<!-- Node3&#45;&gt;Node1 -->
<g id="edge2_Node000001_Node000003" class="edge">
<title>Node3&#45;&gt;Node1</title>
<g id="a_edge2_Node000001_Node000003"><a xlink:title=" ">
<path fill="none" stroke="#9a32cd" stroke-dasharray="5,2" d="M87.27,-79.22C83.09,-67.22 77.48,-51.63 72,-38 69.63,-32.1 66.74,-25.58 64.39,-20.43"/>
<polygon fill="#9a32cd" stroke="#9a32cd" points="83.87,-80.08 90.43,-88.4 90.49,-77.8 83.87,-80.08"/>
</a>
</g>
<text text-anchor="start" x="87.39" y="-51.5" font-family="Helvetica,sans-Serif" font-size="10.00" fill="grey">color</text>
</g>
</g>
</svg>
