<?xml version="1.0" encoding="UTF-8" standalone="no"?>
<!DOCTYPE svg PUBLIC "-//W3C//DTD SVG 1.1//EN"
 "http://www.w3.org/Graphics/SVG/1.1/DTD/svg11.dtd">
<!-- Generated by graphviz version 12.2.1 (20241206.2353)
 -->
<!-- Title: Vector2f::Normalized Pages: 1 -->
<svg width="246pt" height="84pt"
 viewBox="0.00 0.00 245.50 84.00" xmlns="http://www.w3.org/2000/svg" xmlns:xlink="http://www.w3.org/1999/xlink">
<g id="graph0" class="graph" transform="scale(1 1) rotate(0) translate(4 80)">
<title>Vector2f::Normalized</title>
<!-- Node1 -->
<g id="Node000001" class="node">
<title>Node1</title>
<g id="a_Node000001"><a xlink:title=" ">
<polygon fill="#999999" stroke="#666666" points="107.5,-48 0,-48 0,-28 107.5,-28 107.5,-48"/>
<text text-anchor="middle" x="53.75" y="-34.5" font-family="Helvetica,sans-Serif" font-size="10.00">Vector2f::Normalized</text>
</a>
</g>
</g>
<!-- Node2 -->
<g id="Node000002" class="node">
<title>Node2</title>
<g id="a_Node000002"><a xlink:href="struct_vector2f.html#acedb20d25ccc3009546e120eda010bf5" target="_top" xlink:title=" ">
<polygon fill="white" stroke="#666666" points="234.12,-76 146.88,-76 146.88,-56 234.12,-56 234.12,-76"/>
<text text-anchor="middle" x="190.5" y="-62.5" font-family="Helvetica,sans-Serif" font-size="10.00">Vector2f::Length</text>
</a>
</g>
</g>
<!-- Node1&#45;&gt;Node2 -->
<g id="edge1_Node000001_Node000002" class="edge">
<title>Node1&#45;&gt;Node2</title>
<g id="a_edge1_Node000001_Node000002"><a xlink:title=" ">
<path fill="none" stroke="#63b8ff" d="M104.93,-48.43C114.93,-50.5 125.47,-52.7 135.6,-54.8"/>
<polygon fill="#63b8ff" stroke="#63b8ff" points="134.81,-58.21 145.31,-56.82 136.23,-51.36 134.81,-58.21"/>
</a>
</g>
</g>
<!-- Node3 -->
<g id="Node000003" class="node">
<title>Node3</title>
<g id="a_Node000003"><a xlink:href="struct_vector2f.html#a3db9a868c58bc809e5e09a88d65a77ec" target="_top" xlink:title=" ">
<polygon fill="white" stroke="#666666" points="237.5,-20 143.5,-20 143.5,0 237.5,0 237.5,-20"/>
<text text-anchor="middle" x="190.5" y="-6.5" font-family="Helvetica,sans-Serif" font-size="10.00">Vector2f::Vector2f</text>
</a>
</g>
</g>
<!-- Node1&#45;&gt;Node3 -->
<g id="edge2_Node000001_Node000003" class="edge">
<title>Node1&#45;&gt;Node3</title>
<g id="a_edge2_Node000001_Node000003"><a xlink:title=" ">
<path fill="none" stroke="#63b8ff" d="M104.93,-27.57C113.76,-25.74 123.03,-23.81 132.05,-21.94"/>
<polygon fill="#63b8ff" stroke="#63b8ff" points="132.73,-25.37 141.81,-19.91 131.31,-18.52 132.73,-25.37"/>
</a>
</g>
</g>
<!-- Node3&#45;&gt;Node3 -->
<g id="edge3_Node000003_Node000003" class="edge">
<title>Node3&#45;&gt;Node3</title>
<g id="a_edge3_Node000003_Node000003"><a xlink:title=" ">
<path fill="none" stroke="#63b8ff" d="M168.77,-20.34C159.49,-28.98 166.73,-38 190.5,-38 203.5,-38 211.56,-35.3 214.67,-31.44"/>
<polygon fill="#63b8ff" stroke="#63b8ff" points="218.12,-30.83 212.55,-21.82 211.28,-32.34 218.12,-30.83"/>
</a>
</g>
</g>
</g>
</svg>
