<?xml version="1.0" encoding="UTF-8" standalone="no"?>
<!DOCTYPE svg PUBLIC "-//W3C//DTD SVG 1.1//EN"
 "http://www.w3.org/Graphics/SVG/1.1/DTD/svg11.dtd">
<!-- Generated by graphviz version 12.2.1 (20241206.2353)
 -->
<!-- Title: Vector2f::Vector2f Pages: 1 -->
<svg width="963pt" height="695pt"
 viewBox="0.00 0.00 962.75 695.00" xmlns="http://www.w3.org/2000/svg" xmlns:xlink="http://www.w3.org/1999/xlink">
<g id="graph0" class="graph" transform="scale(1 1) rotate(0) translate(4 691)">
<title>Vector2f::Vector2f</title>
<!-- Node1 -->
<g id="Node000001" class="node">
<title>Node1</title>
<g id="a_Node000001"><a xlink:title=" ">
<polygon fill="#999999" stroke="#666666" points="954.75,-292 860.75,-292 860.75,-272 954.75,-272 954.75,-292"/>
<text text-anchor="middle" x="907.75" y="-278.5" font-family="Helvetica,sans-Serif" font-size="10.00">Vector2f::Vector2f</text>
</a>
</g>
</g>
<!-- Node1&#45;&gt;Node1 -->
<g id="edge48_Node000001_Node000001" class="edge">
<title>Node1&#45;&gt;Node1</title>
<g id="a_edge48_Node000001_Node000001"><a xlink:title=" ">
<path fill="none" stroke="#63b8ff" d="M932.85,-303.44C929.61,-307.3 921.25,-310 907.75,-310 883.07,-310 875.55,-300.98 885.19,-292.34"/>
<polygon fill="#63b8ff" stroke="#63b8ff" points="936.29,-302.78 930.65,-293.81 929.46,-304.34 936.29,-302.78"/>
</a>
</g>
</g>
<!-- Node2 -->
<g id="Node000002" class="node">
<title>Node2</title>
<g id="a_Node000002"><a xlink:href="struct_vector2f.html#a8745614603814f985431ba7b8a6edd75" target="_top" xlink:title=" ">
<polygon fill="white" stroke="#666666" points="817.25,-573 714.25,-573 714.25,-553 817.25,-553 817.25,-573"/>
<text text-anchor="middle" x="765.75" y="-559.5" font-family="Helvetica,sans-Serif" font-size="10.00">Vector2f::AngleWith</text>
</a>
</g>
</g>
<!-- Node1&#45;&gt;Node2 -->
<g id="edge1_Node000001_Node000002" class="edge">
<title>Node1&#45;&gt;Node2</title>
<g id="a_edge1_Node000001_Node000002"><a xlink:title=" ">
<path fill="none" stroke="#63b8ff" d="M906.34,-303.64C904.21,-353.18 892.04,-475.81 824.75,-544 821.33,-547.47 817.26,-550.31 812.89,-552.62"/>
<polygon fill="#63b8ff" stroke="#63b8ff" points="909.83,-304.07 906.65,-293.96 902.83,-303.84 909.83,-304.07"/>
</a>
</g>
</g>
<!-- Node3 -->
<g id="Node000003" class="node">
<title>Node3</title>
<g id="a_Node000003"><a xlink:href="struct_vector2f.html#ab99fa60e5b7af169760de9057863423b" target="_top" xlink:title=" ">
<polygon fill="white" stroke="#666666" points="824.75,-535 706.75,-535 706.75,-515 824.75,-515 824.75,-535"/>
<text text-anchor="middle" x="765.75" y="-521.5" font-family="Helvetica,sans-Serif" font-size="10.00">Vector2f::CrossProduct</text>
</a>
</g>
</g>
<!-- Node1&#45;&gt;Node3 -->
<g id="edge2_Node000001_Node000003" class="edge">
<title>Node1&#45;&gt;Node3</title>
<g id="a_edge2_Node000001_Node000003"><a xlink:title=" ">
<path fill="none" stroke="#63b8ff" d="M903.87,-303.72C897.22,-345.94 877.15,-439.93 824.75,-497 817.79,-504.58 808.35,-510.33 799.1,-514.58"/>
<polygon fill="#63b8ff" stroke="#63b8ff" points="907.32,-304.28 905.3,-293.87 900.4,-303.26 907.32,-304.28"/>
</a>
</g>
</g>
<!-- Node11 -->
<g id="Node000011" class="node">
<title>Node11</title>
<g id="a_Node000011"><a xlink:href="struct_vector2f.html#af8ceb9310d7065eb485e47b072a5b143" target="_top" xlink:title=" ">
<polygon fill="white" stroke="#666666" points="819.5,-488 712,-488 712,-468 819.5,-468 819.5,-488"/>
<text text-anchor="middle" x="765.75" y="-474.5" font-family="Helvetica,sans-Serif" font-size="10.00">Vector2f::DotProduct</text>
</a>
</g>
</g>
<!-- Node1&#45;&gt;Node11 -->
<g id="edge11_Node000001_Node000011" class="edge">
<title>Node1&#45;&gt;Node11</title>
<g id="a_edge11_Node000001_Node000011"><a xlink:title=" ">
<path fill="none" stroke="#63b8ff" d="M901.86,-303.5C892.68,-339.3 869.62,-411.43 824.75,-454 818.74,-459.7 811.19,-464.13 803.54,-467.54"/>
<polygon fill="#63b8ff" stroke="#63b8ff" points="905.23,-304.47 904.19,-293.92 898.43,-302.81 905.23,-304.47"/>
</a>
</g>
</g>
<!-- Node26 -->
<g id="Node000026" class="node">
<title>Node26</title>
<g id="a_Node000026"><a xlink:href="struct_vector2f.html#a2e6e32fa2f3c66edd27d696938b1cf47" target="_top" xlink:title=" ">
<polygon fill="white" stroke="#666666" points="645.25,-478 555.75,-478 555.75,-458 645.25,-458 645.25,-478"/>
<text text-anchor="middle" x="600.5" y="-464.5" font-family="Helvetica,sans-Serif" font-size="10.00">Vector2f::Reflect</text>
</a>
</g>
</g>
<!-- Node1&#45;&gt;Node26 -->
<g id="edge47_Node000001_Node000026" class="edge">
<title>Node1&#45;&gt;Node26</title>
<g id="a_edge47_Node000001_Node000026"><a xlink:title=" ">
<path fill="none" stroke="#63b8ff" d="M900.36,-303.2C889.87,-334.2 865.94,-391.43 824.75,-421 796.52,-441.27 702.07,-455.84 645.47,-462.99"/>
<polygon fill="#63b8ff" stroke="#63b8ff" points="903.65,-304.4 903.38,-293.8 896.99,-302.26 903.65,-304.4"/>
</a>
</g>
</g>
<!-- Node27 -->
<g id="Node000027" class="node">
<title>Node27</title>
<g id="a_Node000027"><a xlink:href="struct_vector2f.html#ac322ec5721fe544cbcfa51e821a6e5ef" target="_top" xlink:title=" ">
<polygon fill="white" stroke="#666666" points="809.75,-336 721.75,-336 721.75,-316 809.75,-316 809.75,-336"/>
<text text-anchor="middle" x="765.75" y="-322.5" font-family="Helvetica,sans-Serif" font-size="10.00">Vector2f::Equals</text>
</a>
</g>
</g>
<!-- Node1&#45;&gt;Node27 -->
<g id="edge31_Node000001_Node000027" class="edge">
<title>Node1&#45;&gt;Node27</title>
<g id="a_edge31_Node000001_Node000027"><a xlink:title=" ">
<path fill="none" stroke="#63b8ff" d="M862.65,-295.86C842.27,-302.26 818.48,-309.74 799.69,-315.65"/>
<polygon fill="#63b8ff" stroke="#63b8ff" points="863.64,-299.22 872.13,-292.88 861.54,-292.54 863.64,-299.22"/>
</a>
</g>
</g>
<!-- Node28 -->
<g id="Node000028" class="node">
<title>Node28</title>
<g id="a_Node000028"><a xlink:href="struct_vector2f.html#aba5dd756c385551a19d36b57d8cbf629" target="_top" xlink:title=" ">
<polygon fill="white" stroke="#666666" points="819.5,-412 712,-412 712,-392 819.5,-392 819.5,-412"/>
<text text-anchor="middle" x="765.75" y="-398.5" font-family="Helvetica,sans-Serif" font-size="10.00">Vector2f::Normalized</text>
</a>
</g>
</g>
<!-- Node1&#45;&gt;Node28 -->
<g id="edge32_Node000001_Node000028" class="edge">
<title>Node1&#45;&gt;Node28</title>
<g id="a_edge32_Node000001_Node000028"><a xlink:title=" ">
<path fill="none" stroke="#63b8ff" d="M894.13,-301.71C879.62,-323.01 854.01,-356.75 824.75,-378 817.17,-383.51 808.13,-388.02 799.48,-391.59"/>
<polygon fill="#63b8ff" stroke="#63b8ff" points="896.88,-303.89 899.49,-293.62 891.04,-300.03 896.88,-303.89"/>
</a>
</g>
</g>
<!-- Node32 -->
<g id="Node000032" class="node">
<title>Node32</title>
<g id="a_Node000032"><a xlink:href="struct_vector2f.html#a99b0fcca7752e79251dae4107bc75551" target="_top" xlink:title=" ">
<polygon fill="white" stroke="#666666" points="812.38,-298 719.12,-298 719.12,-266 812.38,-266 812.38,-298"/>
<text text-anchor="start" x="727.12" y="-284.5" font-family="Helvetica,sans-Serif" font-size="10.00">Vector2f::operator</text>
<text text-anchor="middle" x="765.75" y="-272.5" font-family="Helvetica,sans-Serif" font-size="10.00"> Vector2f</text>
</a>
</g>
</g>
<!-- Node1&#45;&gt;Node32 -->
<g id="edge38_Node000001_Node000032" class="edge">
<title>Node1&#45;&gt;Node32</title>
<g id="a_edge38_Node000001_Node000032"><a xlink:title=" ">
<path fill="none" stroke="#63b8ff" d="M849.04,-282C836.84,-282 824.13,-282 812.45,-282"/>
<polygon fill="#63b8ff" stroke="#63b8ff" points="849.01,-285.5 859.01,-282 849.01,-278.5 849.01,-285.5"/>
</a>
</g>
</g>
<!-- Node33 -->
<g id="Node000033" class="node">
<title>Node33</title>
<g id="a_Node000033"><a xlink:href="struct_vector2f.html#a3a8bbf7e5231b7eaea34f6e837bfe1e6" target="_top" xlink:title=" ">
<polygon fill="white" stroke="#666666" points="817.25,-248 714.25,-248 714.25,-228 817.25,-228 817.25,-248"/>
<text text-anchor="middle" x="765.75" y="-234.5" font-family="Helvetica,sans-Serif" font-size="10.00">Vector2f::operator*=</text>
</a>
</g>
</g>
<!-- Node1&#45;&gt;Node33 -->
<g id="edge39_Node000001_Node000033" class="edge">
<title>Node1&#45;&gt;Node33</title>
<g id="a_edge39_Node000001_Node000033"><a xlink:title=" ">
<path fill="none" stroke="#63b8ff" d="M862.65,-268.14C842.27,-261.74 818.48,-254.26 799.69,-248.35"/>
<polygon fill="#63b8ff" stroke="#63b8ff" points="861.54,-271.46 872.13,-271.12 863.64,-264.78 861.54,-271.46"/>
</a>
</g>
</g>
<!-- Node34 -->
<g id="Node000034" class="node">
<title>Node34</title>
<g id="a_Node000034"><a xlink:href="struct_vector2f.html#a6f4036a9001a257808e2f7d5509cbe26" target="_top" xlink:title=" ">
<polygon fill="white" stroke="#666666" points="815.38,-210 716.12,-210 716.12,-190 815.38,-190 815.38,-210"/>
<text text-anchor="middle" x="765.75" y="-196.5" font-family="Helvetica,sans-Serif" font-size="10.00">Vector2f::operator+</text>
</a>
</g>
</g>
<!-- Node1&#45;&gt;Node34 -->
<g id="edge40_Node000001_Node000034" class="edge">
<title>Node1&#45;&gt;Node34</title>
<g id="a_edge40_Node000001_Node000034"><a xlink:title=" ">
<path fill="none" stroke="#63b8ff" d="M887.54,-264.2C871.7,-250.3 848.11,-231.33 824.75,-219 818.57,-215.73 811.72,-212.89 804.95,-210.47"/>
<polygon fill="#63b8ff" stroke="#63b8ff" points="885.01,-266.63 894.79,-270.7 889.68,-261.42 885.01,-266.63"/>
</a>
</g>
</g>
<!-- Node35 -->
<g id="Node000035" class="node">
<title>Node35</title>
<g id="a_Node000035"><a xlink:href="struct_vector2f.html#a1ede6ae22da4c7587db55e1317e68c11" target="_top" xlink:title=" ">
<polygon fill="white" stroke="#666666" points="818.38,-172 713.12,-172 713.12,-152 818.38,-152 818.38,-172"/>
<text text-anchor="middle" x="765.75" y="-158.5" font-family="Helvetica,sans-Serif" font-size="10.00">Vector2f::operator+=</text>
</a>
</g>
</g>
<!-- Node1&#45;&gt;Node35 -->
<g id="edge41_Node000001_Node000035" class="edge">
<title>Node1&#45;&gt;Node35</title>
<g id="a_edge41_Node000001_Node000035"><a xlink:title=" ">
<path fill="none" stroke="#63b8ff" d="M895.51,-262.16C881.66,-239.43 856.07,-202.55 824.75,-181 819.77,-177.58 814.14,-174.74 808.38,-172.39"/>
<polygon fill="#63b8ff" stroke="#63b8ff" points="892.32,-263.64 900.41,-270.48 898.35,-260.09 892.32,-263.64"/>
</a>
</g>
</g>
<!-- Node36 -->
<g id="Node000036" class="node">
<title>Node36</title>
<g id="a_Node000036"><a xlink:href="struct_vector2f.html#ab505d08473dd8b6d252ba02cf286487a" target="_top" xlink:title=" ">
<polygon fill="white" stroke="#666666" points="813.88,-134 717.62,-134 717.62,-114 813.88,-114 813.88,-134"/>
<text text-anchor="middle" x="765.75" y="-120.5" font-family="Helvetica,sans-Serif" font-size="10.00">Vector2f::operator&#45;</text>
</a>
</g>
</g>
<!-- Node1&#45;&gt;Node36 -->
<g id="edge42_Node000001_Node000036" class="edge">
<title>Node1&#45;&gt;Node36</title>
<g id="a_edge42_Node000001_Node000036"><a xlink:title=" ">
<path fill="none" stroke="#63b8ff" d="M899.77,-260.92C888.65,-230.54 864.07,-174.62 824.75,-143 820.46,-139.55 815.51,-136.71 810.36,-134.39"/>
<polygon fill="#63b8ff" stroke="#63b8ff" points="896.38,-261.85 902.99,-270.13 902.99,-259.53 896.38,-261.85"/>
</a>
</g>
</g>
<!-- Node37 -->
<g id="Node000037" class="node">
<title>Node37</title>
<g id="a_Node000037"><a xlink:href="struct_vector2f.html#a9bc5443d2bde26493884c21083d17218" target="_top" xlink:title=" ">
<polygon fill="white" stroke="#666666" points="816.88,-96 714.62,-96 714.62,-76 816.88,-76 816.88,-96"/>
<text text-anchor="middle" x="765.75" y="-82.5" font-family="Helvetica,sans-Serif" font-size="10.00">Vector2f::operator&#45;=</text>
</a>
</g>
</g>
<!-- Node1&#45;&gt;Node37 -->
<g id="edge43_Node000001_Node000037" class="edge">
<title>Node1&#45;&gt;Node37</title>
<g id="a_edge43_Node000001_Node000037"><a xlink:title=" ">
<path fill="none" stroke="#63b8ff" d="M902.74,-261.05C894.62,-224.2 872.73,-147.66 824.75,-105 820.87,-101.55 816.35,-98.72 811.58,-96.41"/>
<polygon fill="#63b8ff" stroke="#63b8ff" points="899.23,-261.35 904.68,-270.43 906.09,-259.93 899.23,-261.35"/>
</a>
</g>
</g>
<!-- Node38 -->
<g id="Node000038" class="node">
<title>Node38</title>
<g id="a_Node000038"><a xlink:href="struct_vector2f.html#aa6b1edcb36e0e29954650737d9323f6d" target="_top" xlink:title=" ">
<polygon fill="white" stroke="#666666" points="816.88,-58 714.62,-58 714.62,-38 816.88,-38 816.88,-58"/>
<text text-anchor="middle" x="765.75" y="-44.5" font-family="Helvetica,sans-Serif" font-size="10.00">Vector2f::operator/=</text>
</a>
</g>
</g>
<!-- Node1&#45;&gt;Node38 -->
<g id="edge44_Node000001_Node000038" class="edge">
<title>Node1&#45;&gt;Node38</title>
<g id="a_edge44_Node000001_Node000038"><a xlink:title=" ">
<path fill="none" stroke="#63b8ff" d="M904.63,-260.53C899.25,-217.62 881.21,-120.82 824.75,-67 821.15,-63.56 816.91,-60.75 812.4,-58.44"/>
<polygon fill="#63b8ff" stroke="#63b8ff" points="901.13,-260.73 905.73,-270.28 908.08,-259.95 901.13,-260.73"/>
</a>
</g>
</g>
<!-- Node39 -->
<g id="Node000039" class="node">
<title>Node39</title>
<g id="a_Node000039"><a xlink:href="struct_vector2f.html#a368a0568a55e306014fc88a9720a1af2" target="_top" xlink:title=" ">
<polygon fill="white" stroke="#666666" points="653.12,-259 547.88,-259 547.88,-239 653.12,-239 653.12,-259"/>
<text text-anchor="middle" x="600.5" y="-245.5" font-family="Helvetica,sans-Serif" font-size="10.00">Vector2f::Orthogonal</text>
</a>
</g>
</g>
<!-- Node1&#45;&gt;Node39 -->
<g id="edge45_Node000001_Node000039" class="edge">
<title>Node1&#45;&gt;Node39</title>
<g id="a_edge45_Node000001_Node000039"><a xlink:title=" ">
<path fill="none" stroke="#63b8ff" d="M889.98,-300.36C874.7,-315.62 850.61,-336.21 824.75,-345 775.09,-361.87 751.76,-371.91 706.75,-345 677.74,-327.65 695.78,-300.72 670.75,-278 661.78,-269.85 650.18,-263.8 639.06,-259.39"/>
<polygon fill="#63b8ff" stroke="#63b8ff" points="892.45,-302.84 896.86,-293.2 887.41,-297.98 892.45,-302.84"/>
</a>
</g>
</g>
<!-- Node40 -->
<g id="Node000040" class="node">
<title>Node40</title>
<g id="a_Node000040"><a xlink:href="struct_vector2f.html#a17a8e3d511e56249e37ddfcf7e85509b" target="_top" xlink:title=" ">
<polygon fill="white" stroke="#666666" points="812.75,-20 718.75,-20 718.75,0 812.75,0 812.75,-20"/>
<text text-anchor="middle" x="765.75" y="-6.5" font-family="Helvetica,sans-Serif" font-size="10.00">Vector2f::Vector2f</text>
</a>
</g>
</g>
<!-- Node1&#45;&gt;Node40 -->
<g id="edge49_Node000001_Node000040" class="edge">
<title>Node1&#45;&gt;Node40</title>
<g id="a_edge49_Node000001_Node000040"><a xlink:title=" ">
<path fill="none" stroke="#63b8ff" d="M906.06,-260.45C903.34,-212.17 889.98,-94.44 824.75,-29 821.31,-25.55 817.23,-22.72 812.86,-20.41"/>
<polygon fill="#63b8ff" stroke="#63b8ff" points="902.55,-260.3 906.5,-270.13 909.54,-259.98 902.55,-260.3"/>
</a>
</g>
</g>
<!-- Node4 -->
<g id="Node000004" class="node">
<title>Node4</title>
<g id="a_Node000004"><a xlink:href="namespaceutils.html#a9ef86448634b099a56f145753593ab2f" target="_top" xlink:title=" ">
<polygon fill="white" stroke="#666666" points="494.25,-582 353.75,-582 353.75,-562 494.25,-562 494.25,-582"/>
<text text-anchor="middle" x="424" y="-568.5" font-family="Helvetica,sans-Serif" font-size="10.00">utils::IntersectLineSegments</text>
</a>
</g>
</g>
<!-- Node3&#45;&gt;Node4 -->
<g id="edge3_Node000003_Node000004" class="edge">
<title>Node3&#45;&gt;Node4</title>
<g id="a_edge3_Node000003_Node000004"><a xlink:title=" ">
<path fill="none" stroke="#63b8ff" d="M719.2,-539.1C714.96,-540.66 710.75,-542.3 706.75,-544 690.09,-551.06 688.23,-558.33 670.75,-563 612.8,-578.49 544.44,-579.68 494.54,-577.61"/>
<polygon fill="#63b8ff" stroke="#63b8ff" points="720.03,-542.52 728.31,-535.91 717.72,-535.92 720.03,-542.52"/>
</a>
</g>
</g>
<!-- Node10 -->
<g id="Node000010" class="node">
<title>Node10</title>
<g id="a_Node000010"><a xlink:href="namespaceutils.html#afa48cca7d08708b5ce3581974e9c39aa" target="_top" xlink:title=" ">
<polygon fill="white" stroke="#666666" points="670.75,-554 530.25,-554 530.25,-534 670.75,-534 670.75,-554"/>
<text text-anchor="middle" x="600.5" y="-540.5" font-family="Helvetica,sans-Serif" font-size="10.00">utils::IsPointOnLineSegment</text>
</a>
</g>
</g>
<!-- Node3&#45;&gt;Node10 -->
<g id="edge9_Node000003_Node000010" class="edge">
<title>Node3&#45;&gt;Node10</title>
<g id="a_edge9_Node000003_Node000010"><a xlink:title=" ">
<path fill="none" stroke="#63b8ff" d="M694.84,-533.14C686.94,-534.06 678.88,-534.99 670.99,-535.91"/>
<polygon fill="#63b8ff" stroke="#63b8ff" points="695.24,-536.61 704.77,-531.98 694.43,-529.66 695.24,-536.61"/>
</a>
</g>
</g>
<!-- Node5 -->
<g id="Node000005" class="node">
<title>Node5</title>
<g id="a_Node000005"><a xlink:href="namespaceutils.html#af8fae86290b2ddb0910a33d86b470cb6" target="_top" xlink:title=" ">
<polygon fill="white" stroke="#666666" points="295.62,-687 181.38,-687 181.38,-667 295.62,-667 295.62,-687"/>
<text text-anchor="middle" x="238.5" y="-673.5" font-family="Helvetica,sans-Serif" font-size="10.00">utils::IsPointInPolygon</text>
</a>
</g>
</g>
<!-- Node4&#45;&gt;Node5 -->
<g id="edge4_Node000004_Node000005" class="edge">
<title>Node4&#45;&gt;Node5</title>
<g id="a_edge4_Node000004_Node000005"><a xlink:title=" ">
<path fill="none" stroke="#63b8ff" d="M404.01,-590.05C383.98,-608.22 350.79,-635.93 317.75,-653 307.02,-658.54 294.79,-663.05 283.23,-666.6"/>
<polygon fill="#63b8ff" stroke="#63b8ff" points="406.16,-592.83 411.13,-583.47 401.41,-587.68 406.16,-592.83"/>
</a>
</g>
</g>
<!-- Node6 -->
<g id="Node000006" class="node">
<title>Node6</title>
<g id="a_Node000006"><a xlink:href="namespaceutils.html#a907c18a579f4b5bac2aa39f8d64fa381" target="_top" xlink:title=" ">
<polygon fill="white" stroke="#666666" points="276.88,-231 200.12,-231 200.12,-211 276.88,-211 276.88,-231"/>
<text text-anchor="middle" x="238.5" y="-217.5" font-family="Helvetica,sans-Serif" font-size="10.00">utils::Raycast</text>
</a>
</g>
</g>
<!-- Node4&#45;&gt;Node6 -->
<g id="edge5_Node000004_Node000006" class="edge">
<title>Node4&#45;&gt;Node6</title>
<g id="a_edge5_Node000004_Node000006"><a xlink:title=" ">
<path fill="none" stroke="#63b8ff" d="M406.62,-553C390.47,-533.16 366.42,-500.48 353.75,-468 316.46,-372.43 387.27,-315.44 317.75,-240 307.42,-228.79 291.7,-223.69 277.06,-221.52"/>
<polygon fill="#63b8ff" stroke="#63b8ff" points="403.77,-555.04 412.86,-560.48 409.15,-550.56 403.77,-555.04"/>
</a>
</g>
</g>
<!-- Node7 -->
<g id="Node000007" class="node">
<title>Node7</title>
<g id="a_Node000007"><a xlink:href="namespaceutils.html#aa1e275621728260abad0345dfb5ed70e" target="_top" xlink:title=" ">
<polygon fill="white" stroke="#666666" points="111.62,-250 11.62,-250 11.62,-230 111.62,-230 111.62,-250"/>
<text text-anchor="middle" x="61.62" y="-236.5" font-family="Helvetica,sans-Serif" font-size="10.00">utils::IsOverlapping</text>
</a>
</g>
</g>
<!-- Node6&#45;&gt;Node7 -->
<g id="edge6_Node000006_Node000007" class="edge">
<title>Node6&#45;&gt;Node7</title>
<g id="a_edge6_Node000006_Node000007"><a xlink:title=" ">
<path fill="none" stroke="#63b8ff" d="M188.67,-226.3C164.76,-228.9 136.03,-232.02 112.04,-234.63"/>
<polygon fill="#63b8ff" stroke="#63b8ff" points="188.92,-229.8 198.48,-225.24 188.16,-222.84 188.92,-229.8"/>
</a>
</g>
</g>
<!-- Node8 -->
<g id="Node000008" class="node">
<title>Node8</title>
<g id="a_Node000008"><a xlink:href="class_character_controller.html#ad8b0a065cb10e6a2b1900057648ab4d9" target="_top" xlink:title=" ">
<polygon fill="white" stroke="#666666" points="112,-453 11.25,-453 11.25,-421 112,-421 112,-453"/>
<text text-anchor="start" x="19.25" y="-439.5" font-family="Helvetica,sans-Serif" font-size="10.00">CharacterController</text>
<text text-anchor="middle" x="61.62" y="-427.5" font-family="Helvetica,sans-Serif" font-size="10.00">::Move</text>
</a>
</g>
</g>
<!-- Node6&#45;&gt;Node8 -->
<g id="edge7_Node000006_Node000008" class="edge">
<title>Node6&#45;&gt;Node8</title>
<g id="a_edge7_Node000006_Node000008"><a xlink:title=" ">
<path fill="none" stroke="#63b8ff" d="M188.92,-225.89C178.32,-228.75 167.75,-233.18 159.25,-240 99.4,-288.06 73.9,-382.51 65.76,-420.55"/>
<polygon fill="#63b8ff" stroke="#63b8ff" points="189.42,-229.37 198.41,-223.77 187.89,-222.53 189.42,-229.37"/>
</a>
</g>
</g>
<!-- Node9 -->
<g id="Node000009" class="node">
<title>Node9</title>
<g id="a_Node000009"><a xlink:href="namespaceutils.html#aaa39be44524c9229c357e1e9505d2667" target="_top" xlink:title=" ">
<polygon fill="white" stroke="#666666" points="100,-212 23.25,-212 23.25,-192 100,-192 100,-212"/>
<text text-anchor="middle" x="61.62" y="-198.5" font-family="Helvetica,sans-Serif" font-size="10.00">utils::Raycast</text>
</a>
</g>
</g>
<!-- Node6&#45;&gt;Node9 -->
<g id="edge8_Node000006_Node000009" class="edge">
<title>Node6&#45;&gt;Node9</title>
<g id="a_edge8_Node000006_Node000009"><a xlink:title=" ">
<path fill="none" stroke="#63b8ff" d="M188.84,-215.71C160.88,-212.68 126.28,-208.92 100.38,-206.1"/>
<polygon fill="#63b8ff" stroke="#63b8ff" points="188.16,-219.16 198.48,-216.76 188.92,-212.2 188.16,-219.16"/>
</a>
</g>
</g>
<!-- Node10&#45;&gt;Node4 -->
<g id="edge10_Node000010_Node000004" class="edge">
<title>Node10&#45;&gt;Node4</title>
<g id="a_edge10_Node000010_Node000004"><a xlink:title=" ">
<path fill="none" stroke="#63b8ff" d="M523.21,-556.24C512.25,-558 501.05,-559.8 490.32,-561.52"/>
<polygon fill="#63b8ff" stroke="#63b8ff" points="523.71,-559.71 533.03,-554.67 522.6,-552.79 523.71,-559.71"/>
</a>
</g>
</g>
<!-- Node11&#45;&gt;Node8 -->
<g id="edge29_Node000011_Node000008" class="edge">
<title>Node11&#45;&gt;Node8</title>
<g id="a_edge29_Node000011_Node000008"><a xlink:title=" ">
<path fill="none" stroke="#63b8ff" d="M700.24,-485.83C600.62,-498.57 414.49,-525.19 353.75,-553 335.07,-561.55 337.13,-575.17 317.75,-582 251.32,-605.43 221.36,-615.25 159.25,-582 107.24,-554.16 78.4,-484.6 67.61,-453.03"/>
<polygon fill="#63b8ff" stroke="#63b8ff" points="700.67,-489.3 710.15,-484.57 699.79,-482.36 700.67,-489.3"/>
</a>
</g>
</g>
<!-- Node11&#45;&gt;Node10 -->
<g id="edge28_Node000011_Node000010" class="edge">
<title>Node11&#45;&gt;Node10</title>
<g id="a_edge28_Node000011_Node000010"><a xlink:title=" ">
<path fill="none" stroke="#63b8ff" d="M732.69,-493.15C714.66,-501.47 691.63,-511.73 670.75,-520 658.68,-524.78 645.24,-529.56 633.43,-533.58"/>
<polygon fill="#63b8ff" stroke="#63b8ff" points="733.98,-496.41 741.57,-489.03 731.03,-490.06 733.98,-496.41"/>
</a>
</g>
</g>
<!-- Node12 -->
<g id="Node000012" class="node">
<title>Node12</title>
<g id="a_Node000012"><a xlink:href="namespaceutils.html#a760075559e6ab59c1daec763fab2b488" target="_top" xlink:title=" ">
<polygon fill="white" stroke="#666666" points="669.25,-440 531.75,-440 531.75,-420 669.25,-420 669.25,-440"/>
<text text-anchor="middle" x="600.5" y="-426.5" font-family="Helvetica,sans-Serif" font-size="10.00">utils::DistPointLineSegment</text>
</a>
</g>
</g>
<!-- Node11&#45;&gt;Node12 -->
<g id="edge12_Node000011_Node000012" class="edge">
<title>Node11&#45;&gt;Node12</title>
<g id="a_edge12_Node000011_Node000012"><a xlink:title=" ">
<path fill="none" stroke="#63b8ff" d="M721.19,-464.25C705.35,-459.33 687.27,-453.81 670.75,-449 660.94,-446.14 650.3,-443.16 640.38,-440.44"/>
<polygon fill="#63b8ff" stroke="#63b8ff" points="719.73,-467.46 730.32,-467.09 721.81,-460.78 719.73,-467.46"/>
</a>
</g>
</g>
<!-- Node11&#45;&gt;Node26 -->
<g id="edge30_Node000011_Node000026" class="edge">
<title>Node11&#45;&gt;Node26</title>
<g id="a_edge30_Node000011_Node000026"><a xlink:title=" ">
<path fill="none" stroke="#63b8ff" d="M700.48,-474.06C682.06,-472.93 662.4,-471.73 645.5,-470.7"/>
<polygon fill="#63b8ff" stroke="#63b8ff" points="700.04,-477.54 710.24,-474.66 700.47,-470.56 700.04,-477.54"/>
</a>
</g>
</g>
<!-- Node13 -->
<g id="Node000013" class="node">
<title>Node13</title>
<g id="a_Node000013"><a xlink:href="namespaceutils.html#aa3cf9ab3831043ef5d09bb2a1a3508df" target="_top" xlink:title=" ">
<polygon fill="white" stroke="#666666" points="474,-421 374,-421 374,-401 474,-401 474,-421"/>
<text text-anchor="middle" x="424" y="-407.5" font-family="Helvetica,sans-Serif" font-size="10.00">utils::IsOverlapping</text>
</a>
</g>
</g>
<!-- Node12&#45;&gt;Node13 -->
<g id="edge13_Node000012_Node000013" class="edge">
<title>Node12&#45;&gt;Node13</title>
<g id="a_edge13_Node000012_Node000013"><a xlink:title=" ">
<path fill="none" stroke="#63b8ff" d="M520.02,-421.35C504.43,-419.65 488.51,-417.92 474.27,-416.36"/>
<polygon fill="#63b8ff" stroke="#63b8ff" points="519.46,-424.81 529.78,-422.41 520.22,-417.85 519.46,-424.81"/>
</a>
</g>
</g>
<!-- Node14 -->
<g id="Node000014" class="node">
<title>Node14</title>
<g id="a_Node000014"><a xlink:href="namespaceutils.html#a11a0eb68e467a22aed74f507057c39ed" target="_top" xlink:title=" ">
<polygon fill="white" stroke="#666666" points="474,-459 374,-459 374,-439 474,-439 474,-459"/>
<text text-anchor="middle" x="424" y="-445.5" font-family="Helvetica,sans-Serif" font-size="10.00">utils::IsOverlapping</text>
</a>
</g>
</g>
<!-- Node12&#45;&gt;Node14 -->
<g id="edge14_Node000012_Node000014" class="edge">
<title>Node12&#45;&gt;Node14</title>
<g id="a_edge14_Node000012_Node000014"><a xlink:title=" ">
<path fill="none" stroke="#63b8ff" d="M520.02,-438.65C504.43,-440.35 488.51,-442.08 474.27,-443.64"/>
<polygon fill="#63b8ff" stroke="#63b8ff" points="520.22,-442.15 529.78,-437.59 519.46,-435.19 520.22,-442.15"/>
</a>
</g>
</g>
<!-- Node25 -->
<g id="Node000025" class="node">
<title>Node25</title>
<g id="a_Node000025"><a xlink:href="namespaceutils.html#add1fefb9b373117ac9b359c75c7ea620" target="_top" xlink:title=" ">
<polygon fill="white" stroke="#666666" points="474,-383 374,-383 374,-363 474,-363 474,-383"/>
<text text-anchor="middle" x="424" y="-369.5" font-family="Helvetica,sans-Serif" font-size="10.00">utils::IsOverlapping</text>
</a>
</g>
</g>
<!-- Node12&#45;&gt;Node25 -->
<g id="edge27_Node000012_Node000025" class="edge">
<title>Node12&#45;&gt;Node25</title>
<g id="a_edge27_Node000012_Node000025"><a xlink:title=" ">
<path fill="none" stroke="#63b8ff" d="M544.87,-416.22C539.88,-414.6 534.94,-412.86 530.25,-411 513.43,-404.34 511.07,-398.66 494.25,-392 486.14,-388.79 477.28,-385.91 468.7,-383.43"/>
<polygon fill="#63b8ff" stroke="#63b8ff" points="543.77,-419.54 554.36,-419.13 545.82,-412.85 543.77,-419.54"/>
</a>
</g>
</g>
<!-- Node14&#45;&gt;Node6 -->
<g id="edge26_Node000014_Node000006" class="edge">
<title>Node14&#45;&gt;Node6</title>
<g id="a_edge26_Node000014_Node000006"><a xlink:title=" ">
<path fill="none" stroke="#63b8ff" d="M363.57,-437.95C359.96,-435.74 356.62,-433.12 353.75,-430 295.47,-366.83 376.96,-302.3 317.75,-240 307.35,-229.06 291.8,-223.96 277.29,-221.73"/>
<polygon fill="#63b8ff" stroke="#63b8ff" points="361.81,-440.98 372.34,-442.2 364.87,-434.69 361.81,-440.98"/>
</a>
</g>
</g>
<!-- Node15 -->
<g id="Node000015" class="node">
<title>Node15</title>
<g id="a_Node000015"><a xlink:href="class_level.html#adf4233f98d55734b3862b4862ea83a27" target="_top" xlink:title=" ">
<polygon fill="white" stroke="#666666" points="287.75,-307 189.25,-307 189.25,-287 287.75,-287 287.75,-307"/>
<text text-anchor="middle" x="238.5" y="-293.5" font-family="Helvetica,sans-Serif" font-size="10.00">Level::DoesCollide</text>
</a>
</g>
</g>
<!-- Node14&#45;&gt;Node15 -->
<g id="edge15_Node000014_Node000015" class="edge">
<title>Node14&#45;&gt;Node15</title>
<g id="a_edge15_Node000014_Node000015"><a xlink:title=" ">
<path fill="none" stroke="#63b8ff" d="M363.32,-437.17C359.86,-435.13 356.62,-432.76 353.75,-430 315.47,-393.15 356.57,-352.28 317.75,-316 309.58,-308.36 298.87,-303.64 288.01,-300.77"/>
<polygon fill="#63b8ff" stroke="#63b8ff" points="361.66,-440.25 372.2,-441.39 364.67,-433.93 361.66,-440.25"/>
</a>
</g>
</g>
<!-- Node16 -->
<g id="Node000016" class="node">
<title>Node16</title>
<g id="a_Node000016"><a xlink:href="namespaceutils.html#a334b78639099b0610f28ab357af9da19" target="_top" xlink:title=" ">
<polygon fill="white" stroke="#666666" points="288.5,-269 188.5,-269 188.5,-249 288.5,-249 288.5,-269"/>
<text text-anchor="middle" x="238.5" y="-255.5" font-family="Helvetica,sans-Serif" font-size="10.00">utils::IsOverlapping</text>
</a>
</g>
</g>
<!-- Node14&#45;&gt;Node16 -->
<g id="edge16_Node000014_Node000016" class="edge">
<title>Node14&#45;&gt;Node16</title>
<g id="a_edge16_Node000014_Node000016"><a xlink:title=" ">
<path fill="none" stroke="#63b8ff" d="M363.24,-437.5C359.78,-435.39 356.56,-432.91 353.75,-430 305.53,-380.05 366.7,-327.23 317.75,-278 309.96,-270.17 299.53,-265.36 288.83,-262.46"/>
<polygon fill="#63b8ff" stroke="#63b8ff" points="361.68,-440.64 372.21,-441.86 364.74,-434.34 361.68,-440.64"/>
</a>
</g>
</g>
<!-- Node17 -->
<g id="Node000017" class="node">
<title>Node17</title>
<g id="a_Node000017"><a xlink:href="class_cog_platform.html#afd4a86f749690313b5bd2587f15c6ce8" target="_top" xlink:title=" ">
<polygon fill="white" stroke="#666666" points="313.62,-535 163.38,-535 163.38,-515 313.62,-515 313.62,-535"/>
<text text-anchor="middle" x="238.5" y="-521.5" font-family="Helvetica,sans-Serif" font-size="10.00">CogPlatform::PlayerInteraction</text>
</a>
</g>
</g>
<!-- Node14&#45;&gt;Node17 -->
<g id="edge17_Node000014_Node000017" class="edge">
<title>Node14&#45;&gt;Node17</title>
<g id="a_edge17_Node000014_Node000017"><a xlink:title=" ">
<path fill="none" stroke="#63b8ff" d="M397.21,-465.42C376.44,-478.03 346.12,-495.08 317.75,-506 309.27,-509.26 300.05,-512.09 291.02,-514.5"/>
<polygon fill="#63b8ff" stroke="#63b8ff" points="398.91,-468.49 405.58,-460.25 395.23,-462.53 398.91,-468.49"/>
</a>
</g>
</g>
<!-- Node18 -->
<g id="Node000018" class="node">
<title>Node18</title>
<g id="a_Node000018"><a xlink:href="class_crumble_block.html#af211a08e47f20f7343183341611d5653" target="_top" xlink:title=" ">
<polygon fill="white" stroke="#666666" points="317,-497 160,-497 160,-477 317,-477 317,-497"/>
<text text-anchor="middle" x="238.5" y="-483.5" font-family="Helvetica,sans-Serif" font-size="10.00">CrumbleBlock::PlayerInteraction</text>
</a>
</g>
</g>
<!-- Node14&#45;&gt;Node18 -->
<g id="edge18_Node000014_Node000018" class="edge">
<title>Node14&#45;&gt;Node18</title>
<g id="a_edge18_Node000014_Node000018"><a xlink:title=" ">
<path fill="none" stroke="#63b8ff" d="M362.58,-461.51C339.11,-466.37 312.53,-471.88 290.09,-476.52"/>
<polygon fill="#63b8ff" stroke="#63b8ff" points="363.26,-464.95 372.34,-459.49 361.84,-458.09 363.26,-464.95"/>
</a>
</g>
</g>
<!-- Node19 -->
<g id="Node000019" class="node">
<title>Node19</title>
<g id="a_Node000019"><a xlink:href="class_dash_crystal.html#ae9d188a3998de0c2de1ee162ba5e1273" target="_top" xlink:title=" ">
<polygon fill="white" stroke="#666666" points="313.62,-459 163.38,-459 163.38,-439 313.62,-439 313.62,-459"/>
<text text-anchor="middle" x="238.5" y="-445.5" font-family="Helvetica,sans-Serif" font-size="10.00">DashCrystal::PlayerInteraction</text>
</a>
</g>
</g>
<!-- Node14&#45;&gt;Node19 -->
<g id="edge19_Node000014_Node000019" class="edge">
<title>Node14&#45;&gt;Node19</title>
<g id="a_edge19_Node000014_Node000019"><a xlink:title=" ">
<path fill="none" stroke="#63b8ff" d="M362.76,-449C347.19,-449 330.23,-449 314.03,-449"/>
<polygon fill="#63b8ff" stroke="#63b8ff" points="362.31,-452.5 372.31,-449 362.31,-445.5 362.31,-452.5"/>
</a>
</g>
</g>
<!-- Node20 -->
<g id="Node000020" class="node">
<title>Node20</title>
<g id="a_Node000020"><a xlink:href="class_flying_strawberry.html#ada0a996bd7bd79f240b85762a24fd2ed" target="_top" xlink:title=" ">
<polygon fill="white" stroke="#666666" points="123.25,-617 0,-617 0,-585 123.25,-585 123.25,-617"/>
<text text-anchor="start" x="8" y="-603.5" font-family="Helvetica,sans-Serif" font-size="10.00">FlyingStrawberry::Player</text>
<text text-anchor="middle" x="61.62" y="-591.5" font-family="Helvetica,sans-Serif" font-size="10.00">Interaction</text>
</a>
</g>
</g>
<!-- Node14&#45;&gt;Node20 -->
<g id="edge20_Node000014_Node000020" class="edge">
<title>Node14&#45;&gt;Node20</title>
<g id="a_edge20_Node000014_Node000020"><a xlink:title=" ">
<path fill="none" stroke="#63b8ff" d="M410.34,-468.66C388.18,-502.39 342.38,-568.93 317.75,-582 257.53,-613.96 177.8,-614.42 123.61,-609.67"/>
<polygon fill="#63b8ff" stroke="#63b8ff" points="413.06,-470.9 415.58,-460.61 407.19,-467.08 413.06,-470.9"/>
</a>
</g>
</g>
<!-- Node21 -->
<g id="Node000021" class="node">
<title>Node21</title>
<g id="a_Node000021"><a xlink:href="class_respawn_zone.html#a5c821db8bbdc1da0401f633af761687c" target="_top" xlink:title=" ">
<polygon fill="white" stroke="#666666" points="317.75,-383 159.25,-383 159.25,-363 317.75,-363 317.75,-383"/>
<text text-anchor="middle" x="238.5" y="-369.5" font-family="Helvetica,sans-Serif" font-size="10.00">RespawnZone::PlayerInteraction</text>
</a>
</g>
</g>
<!-- Node14&#45;&gt;Node21 -->
<g id="edge21_Node000014_Node000021" class="edge">
<title>Node14&#45;&gt;Node21</title>
<g id="a_edge21_Node000014_Node000021"><a xlink:title=" ">
<path fill="none" stroke="#63b8ff" d="M363.04,-434.84C359.82,-433.38 356.7,-431.77 353.75,-430 333.8,-418.04 337.88,-403.67 317.75,-392 311.82,-388.56 305.3,-385.75 298.62,-383.44"/>
<polygon fill="#63b8ff" stroke="#63b8ff" points="361.58,-438.03 372.16,-438.47 364.17,-431.52 361.58,-438.03"/>
</a>
</g>
</g>
<!-- Node22 -->
<g id="Node000022" class="node">
<title>Node22</title>
<g id="a_Node000022"><a xlink:href="class_spike.html#a7c79520a23045ef568326c1cedc2eba9" target="_top" xlink:title=" ">
<polygon fill="white" stroke="#666666" points="298.62,-345 178.38,-345 178.38,-325 298.62,-325 298.62,-345"/>
<text text-anchor="middle" x="238.5" y="-331.5" font-family="Helvetica,sans-Serif" font-size="10.00">Spike::PlayerInteraction</text>
</a>
</g>
</g>
<!-- Node14&#45;&gt;Node22 -->
<g id="edge22_Node000014_Node000022" class="edge">
<title>Node14&#45;&gt;Node22</title>
<g id="a_edge22_Node000014_Node000022"><a xlink:title=" ">
<path fill="none" stroke="#63b8ff" d="M363.56,-436.61C360.07,-434.71 356.75,-432.52 353.75,-430 325.12,-405.98 346.73,-377.6 317.75,-354 312.22,-349.5 305.79,-346.04 299.03,-343.38"/>
<polygon fill="#63b8ff" stroke="#63b8ff" points="361.88,-439.69 372.43,-440.61 364.76,-433.31 361.88,-439.69"/>
</a>
</g>
</g>
<!-- Node23 -->
<g id="Node000023" class="node">
<title>Node23</title>
<g id="a_Node000023"><a xlink:href="class_strawberry.html#a2e5468a8badbbf84cd37d12c34042061" target="_top" xlink:title=" ">
<polygon fill="white" stroke="#666666" points="309.88,-573 167.12,-573 167.12,-553 309.88,-553 309.88,-573"/>
<text text-anchor="middle" x="238.5" y="-559.5" font-family="Helvetica,sans-Serif" font-size="10.00">Strawberry::PlayerInteraction</text>
</a>
</g>
</g>
<!-- Node14&#45;&gt;Node23 -->
<g id="edge23_Node000014_Node000023" class="edge">
<title>Node14&#45;&gt;Node23</title>
<g id="a_edge23_Node000014_Node000023"><a xlink:title=" ">
<path fill="none" stroke="#63b8ff" d="M402.89,-466.9C389.04,-479.25 370.23,-496.07 353.75,-511 337.66,-525.57 336.9,-533.78 317.75,-544 311.34,-547.42 304.3,-550.24 297.16,-552.55"/>
<polygon fill="#63b8ff" stroke="#63b8ff" points="404.93,-469.76 410.07,-460.5 400.27,-464.54 404.93,-469.76"/>
</a>
</g>
</g>
<!-- Node24 -->
<g id="Node000024" class="node">
<title>Node24</title>
<g id="a_Node000024"><a xlink:href="class_trampoline.html#a8c4a369bfdfba21767d45ec9f83be487" target="_top" xlink:title=" ">
<polygon fill="white" stroke="#666666" points="310.25,-421 166.75,-421 166.75,-401 310.25,-401 310.25,-421"/>
<text text-anchor="middle" x="238.5" y="-407.5" font-family="Helvetica,sans-Serif" font-size="10.00">Trampoline::PlayerInteraction</text>
</a>
</g>
</g>
<!-- Node14&#45;&gt;Node24 -->
<g id="edge25_Node000014_Node000024" class="edge">
<title>Node14&#45;&gt;Node24</title>
<g id="a_edge25_Node000014_Node000024"><a xlink:title=" ">
<path fill="none" stroke="#63b8ff" d="M362.58,-436.49C339.11,-431.63 312.53,-426.12 290.09,-421.48"/>
<polygon fill="#63b8ff" stroke="#63b8ff" points="361.84,-439.91 372.34,-438.51 363.26,-433.05 361.84,-439.91"/>
</a>
</g>
</g>
<!-- Node23&#45;&gt;Node20 -->
<g id="edge24_Node000023_Node000020" class="edge">
<title>Node23&#45;&gt;Node20</title>
<g id="a_edge24_Node000023_Node000020"><a xlink:title=" ">
<path fill="none" stroke="#63b8ff" d="M178.24,-575.88C160.61,-579.71 141.27,-583.91 123.54,-587.76"/>
<polygon fill="#63b8ff" stroke="#63b8ff" points="178.74,-579.35 187.77,-573.81 177.26,-572.51 178.74,-579.35"/>
</a>
</g>
</g>
<!-- Node28&#45;&gt;Node6 -->
<g id="edge35_Node000028_Node000006" class="edge">
<title>Node28&#45;&gt;Node6</title>
<g id="a_edge35_Node000028_Node000006"><a xlink:title=" ">
<path fill="none" stroke="#63b8ff" d="M735.82,-385.96C726.31,-380.32 715.86,-373.71 706.75,-367 689.51,-354.31 689.59,-345.16 670.75,-335 652.88,-325.36 337.42,-245.04 317.75,-240 304.61,-236.64 290.2,-233.1 277.36,-229.99"/>
<polygon fill="#63b8ff" stroke="#63b8ff" points="733.93,-388.91 744.33,-390.89 737.43,-382.85 733.93,-388.91"/>
</a>
</g>
</g>
<!-- Node28&#45;&gt;Node12 -->
<g id="edge34_Node000028_Node000012" class="edge">
<title>Node28&#45;&gt;Node12</title>
<g id="a_edge34_Node000028_Node000012"><a xlink:title=" ">
<path fill="none" stroke="#63b8ff" d="M700.45,-413.03C687.94,-415.17 674.86,-417.42 662.46,-419.54"/>
<polygon fill="#63b8ff" stroke="#63b8ff" points="700.99,-416.49 710.26,-411.35 699.81,-409.59 700.99,-416.49"/>
</a>
</g>
</g>
<!-- Node29 -->
<g id="Node000029" class="node">
<title>Node29</title>
<g id="a_Node000029"><a xlink:href="class_character.html#ae8854087590df625de84d5dd47ac9cd8" target="_top" xlink:title=" ">
<polygon fill="white" stroke="#666666" points="644.5,-364 556.5,-364 556.5,-344 644.5,-344 644.5,-364"/>
<text text-anchor="middle" x="600.5" y="-350.5" font-family="Helvetica,sans-Serif" font-size="10.00">Character::Dash</text>
</a>
</g>
</g>
<!-- Node28&#45;&gt;Node29 -->
<g id="edge33_Node000028_Node000029" class="edge">
<title>Node28&#45;&gt;Node29</title>
<g id="a_edge33_Node000028_Node000029"><a xlink:title=" ">
<path fill="none" stroke="#63b8ff" d="M721.19,-388.25C705.35,-383.33 687.27,-377.81 670.75,-373 660.94,-370.14 650.3,-367.16 640.38,-364.44"/>
<polygon fill="#63b8ff" stroke="#63b8ff" points="719.73,-391.46 730.32,-391.09 721.81,-384.78 719.73,-391.46"/>
</a>
</g>
</g>
<!-- Node30 -->
<g id="Node000030" class="node">
<title>Node30</title>
<g id="a_Node000030"><a xlink:href="class_hair.html#ac5b20368fbcda3f186dc37e3f6d17be1" target="_top" xlink:title=" ">
<polygon fill="white" stroke="#666666" points="650.12,-402 550.88,-402 550.88,-382 650.12,-382 650.12,-402"/>
<text text-anchor="middle" x="600.5" y="-388.5" font-family="Helvetica,sans-Serif" font-size="10.00">Hair::SetPartOffset</text>
</a>
</g>
</g>
<!-- Node28&#45;&gt;Node30 -->
<g id="edge36_Node000028_Node000030" class="edge">
<title>Node28&#45;&gt;Node30</title>
<g id="a_edge36_Node000028_Node000030"><a xlink:title=" ">
<path fill="none" stroke="#63b8ff" d="M700.41,-398.06C683.75,-397.04 666.09,-395.96 650.37,-394.99"/>
<polygon fill="#63b8ff" stroke="#63b8ff" points="700.04,-401.54 710.24,-398.66 700.47,-394.56 700.04,-401.54"/>
</a>
</g>
</g>
<!-- Node31 -->
<g id="Node000031" class="node">
<title>Node31</title>
<g id="a_Node000031"><a xlink:href="class_hair.html#a0b22dc1cb67f2d72c149b360f7e7f807" target="_top" xlink:title=" ">
<polygon fill="white" stroke="#666666" points="459.75,-345 388.25,-345 388.25,-325 459.75,-325 459.75,-345"/>
<text text-anchor="middle" x="424" y="-331.5" font-family="Helvetica,sans-Serif" font-size="10.00">Hair::Update</text>
</a>
</g>
</g>
<!-- Node30&#45;&gt;Node31 -->
<g id="edge37_Node000030_Node000031" class="edge">
<title>Node30&#45;&gt;Node31</title>
<g id="a_edge37_Node000030_Node000031"><a xlink:title=" ">
<path fill="none" stroke="#63b8ff" d="M544.87,-378.22C539.88,-376.6 534.94,-374.86 530.25,-373 513.43,-366.34 511.07,-360.66 494.25,-354 483.35,-349.69 471.12,-345.98 460.01,-343.02"/>
<polygon fill="#63b8ff" stroke="#63b8ff" points="543.77,-381.54 554.36,-381.13 545.82,-374.85 543.77,-381.54"/>
</a>
</g>
</g>
<!-- Node39&#45;&gt;Node6 -->
<g id="edge46_Node000039_Node000006" class="edge">
<title>Node39&#45;&gt;Node6</title>
<g id="a_edge46_Node000039_Node000006"><a xlink:title=" ">
<path fill="none" stroke="#63b8ff" d="M536.38,-244.09C461.37,-238.26 338.66,-228.71 277.14,-223.93"/>
<polygon fill="#63b8ff" stroke="#63b8ff" points="535.79,-247.56 546.03,-244.84 536.33,-240.58 535.79,-247.56"/>
</a>
</g>
</g>
</g>
</svg>
