<?xml version="1.0" encoding="UTF-8" standalone="no"?>
<!DOCTYPE svg PUBLIC "-//W3C//DTD SVG 1.1//EN"
 "http://www.w3.org/Graphics/SVG/1.1/DTD/svg11.dtd">
<!-- Generated by graphviz version 12.2.1 (20241206.2353)
 -->
<!-- Title: Matrix2x3::Inverse Pages: 1 -->
<svg width="259pt" height="66pt"
 viewBox="0.00 0.00 259.00 66.00" xmlns="http://www.w3.org/2000/svg" xmlns:xlink="http://www.w3.org/1999/xlink">
<g id="graph0" class="graph" transform="scale(1 1) rotate(0) translate(4 62)">
<title>Matrix2x3::Inverse</title>
<!-- Node1 -->
<g id="Node000001" class="node">
<title>Node1</title>
<g id="a_Node000001"><a xlink:title=" ">
<polygon fill="#999999" stroke="#666666" points="97,-39 0,-39 0,-19 97,-19 97,-39"/>
<text text-anchor="middle" x="48.5" y="-25.5" font-family="Helvetica,sans-Serif" font-size="10.00">Matrix2x3::Inverse</text>
</a>
</g>
</g>
<!-- Node2 -->
<g id="Node000002" class="node">
<title>Node2</title>
<g id="a_Node000002"><a xlink:href="struct_matrix2x3.html#a7b1c010c0ce6a5752fc1536de34e6296" target="_top" xlink:title=" ">
<polygon fill="white" stroke="#666666" points="251,-58 133,-58 133,-38 251,-38 251,-58"/>
<text text-anchor="middle" x="192" y="-44.5" font-family="Helvetica,sans-Serif" font-size="10.00">Matrix2x3::Determinant</text>
</a>
</g>
</g>
<!-- Node1&#45;&gt;Node2 -->
<g id="edge1_Node000001_Node000002" class="edge">
<title>Node1&#45;&gt;Node2</title>
<g id="a_edge1_Node000001_Node000002"><a xlink:title=" ">
<path fill="none" stroke="#63b8ff" d="M97.41,-35.43C105.23,-36.48 113.48,-37.59 121.7,-38.69"/>
<polygon fill="#63b8ff" stroke="#63b8ff" points="120.97,-42.13 131.35,-39.99 121.9,-35.19 120.97,-42.13"/>
</a>
</g>
</g>
<!-- Node3 -->
<g id="Node000003" class="node">
<title>Node3</title>
<g id="a_Node000003"><a xlink:href="struct_matrix2x3.html#ad61ccbaf21b4a72f770f203d06fbf1cd" target="_top" xlink:title=" ">
<polygon fill="white" stroke="#666666" points="245.75,-20 138.25,-20 138.25,0 245.75,0 245.75,-20"/>
<text text-anchor="middle" x="192" y="-6.5" font-family="Helvetica,sans-Serif" font-size="10.00">Matrix2x3::Matrix2x3</text>
</a>
</g>
</g>
<!-- Node1&#45;&gt;Node3 -->
<g id="edge2_Node000001_Node000003" class="edge">
<title>Node1&#45;&gt;Node3</title>
<g id="a_edge2_Node000001_Node000003"><a xlink:title=" ">
<path fill="none" stroke="#63b8ff" d="M97.41,-22.57C106.74,-21.31 116.67,-19.98 126.44,-18.67"/>
<polygon fill="#63b8ff" stroke="#63b8ff" points="126.85,-22.15 136.29,-17.35 125.92,-15.21 126.85,-22.15"/>
</a>
</g>
</g>
</g>
</svg>
