<?xml version="1.0" encoding="UTF-8" standalone="no"?>
<!DOCTYPE svg PUBLIC "-//W3C//DTD SVG 1.1//EN"
 "http://www.w3.org/Graphics/SVG/1.1/DTD/svg11.dtd">
<!-- Generated by graphviz version 12.2.1 (20241206.2353)
 -->
<!-- Title: Engine/utils.h Pages: 1 -->
<svg width="2267pt" height="656pt"
 viewBox="0.00 0.00 2266.88 656.00" xmlns="http://www.w3.org/2000/svg" xmlns:xlink="http://www.w3.org/1999/xlink">
<g id="graph0" class="graph" transform="scale(1 1) rotate(0) translate(4 652)">
<title>Engine/utils.h</title>
<!-- Node1 -->
<g id="Node000001" class="node">
<title>Node1</title>
<g id="a_Node000001"><a xlink:title=" ">
<polygon fill="#999999" stroke="#666666" points="1645.62,-648 1570.38,-648 1570.38,-628 1645.62,-628 1645.62,-648"/>
<text text-anchor="middle" x="1608" y="-634.5" font-family="Helvetica,sans-Serif" font-size="10.00">Engine/utils.h</text>
</a>
</g>
</g>
<!-- Node2 -->
<g id="Node000002" class="node">
<title>Node2</title>
<g id="a_Node000002"><a xlink:href="_character_8cpp.html" target="_top" xlink:title=" ">
<polygon fill="white" stroke="#666666" points="142.12,-412 27.87,-412 27.87,-392 142.12,-392 142.12,-412"/>
<text text-anchor="middle" x="85" y="-398.5" font-family="Helvetica,sans-Serif" font-size="10.00">Celeste/Character.cpp</text>
</a>
</g>
</g>
<!-- Node1&#45;&gt;Node2 -->
<g id="edge1_Node000001_Node000002" class="edge">
<title>Node1&#45;&gt;Node2</title>
<g id="a_edge1_Node000001_Node000002"><a xlink:title=" ">
<path fill="none" stroke="#63b8ff" d="M1558.79,-629.44C1331.74,-594.55 386.05,-449.25 142.44,-411.83"/>
<polygon fill="#63b8ff" stroke="#63b8ff" points="1558.06,-632.87 1568.48,-630.93 1559.12,-625.95 1558.06,-632.87"/>
</a>
</g>
</g>
<!-- Node3 -->
<g id="Node000003" class="node">
<title>Node3</title>
<g id="a_Node000003"><a xlink:href="_character_controller_8cpp.html" target="_top" xlink:title=" ">
<polygon fill="white" stroke="#666666" points="1489.12,-468 1332.88,-468 1332.88,-448 1489.12,-448 1489.12,-468"/>
<text text-anchor="middle" x="1411" y="-454.5" font-family="Helvetica,sans-Serif" font-size="10.00">Celeste/CharacterController.cpp</text>
</a>
</g>
</g>
<!-- Node1&#45;&gt;Node3 -->
<g id="edge2_Node000001_Node000003" class="edge">
<title>Node1&#45;&gt;Node3</title>
<g id="a_edge2_Node000001_Node000003"><a xlink:title=" ">
<path fill="none" stroke="#63b8ff" d="M1567.37,-623.65C1548.65,-616.22 1526.91,-605.69 1510,-592 1464.14,-554.86 1428.24,-491.92 1415.76,-468.31"/>
<polygon fill="#63b8ff" stroke="#63b8ff" points="1565.97,-626.86 1576.56,-627.12 1568.44,-620.31 1565.97,-626.86"/>
</a>
</g>
</g>
<!-- Node4 -->
<g id="Node000004" class="node">
<title>Node4</title>
<g id="a_Node000004"><a xlink:href="_character_texture_manager_8cpp.html" target="_top" xlink:title=" ">
<polygon fill="white" stroke="#666666" points="1888.88,-592 1761.12,-592 1761.12,-560 1888.88,-560 1888.88,-592"/>
<text text-anchor="start" x="1769.12" y="-578.5" font-family="Helvetica,sans-Serif" font-size="10.00">Celeste/CharacterTexture</text>
<text text-anchor="middle" x="1825" y="-566.5" font-family="Helvetica,sans-Serif" font-size="10.00">Manager.cpp</text>
</a>
</g>
</g>
<!-- Node1&#45;&gt;Node4 -->
<g id="edge3_Node000001_Node000004" class="edge">
<title>Node1&#45;&gt;Node4</title>
<g id="a_edge3_Node000001_Node000004"><a xlink:title=" ">
<path fill="none" stroke="#63b8ff" d="M1652.81,-624.61C1686.49,-615.3 1732.85,-602.48 1768.98,-592.49"/>
<polygon fill="#63b8ff" stroke="#63b8ff" points="1652.07,-621.18 1643.37,-627.22 1653.94,-627.93 1652.07,-621.18"/>
</a>
</g>
</g>
<!-- Node5 -->
<g id="Node000005" class="node">
<title>Node5</title>
<g id="a_Node000005"><a xlink:href="_cog_platform_8cpp.html" target="_top" xlink:title=" ">
<polygon fill="white" stroke="#666666" points="1634.12,-300 1507.88,-300 1507.88,-280 1634.12,-280 1634.12,-300"/>
<text text-anchor="middle" x="1571" y="-286.5" font-family="Helvetica,sans-Serif" font-size="10.00">Celeste/CogPlatform.cpp</text>
</a>
</g>
</g>
<!-- Node1&#45;&gt;Node5 -->
<g id="edge4_Node000001_Node000005" class="edge">
<title>Node1&#45;&gt;Node5</title>
<g id="a_edge4_Node000001_Node000005"><a xlink:title=" ">
<path fill="none" stroke="#63b8ff" d="M1592.21,-618.81C1586.09,-610.99 1579.49,-601.48 1575,-592 1550.62,-540.57 1550.17,-524.46 1543,-468 1534.81,-403.5 1558.66,-326.34 1567.69,-300.18"/>
<polygon fill="#63b8ff" stroke="#63b8ff" points="1589.49,-621.01 1598.54,-626.51 1594.89,-616.57 1589.49,-621.01"/>
</a>
</g>
</g>
<!-- Node6 -->
<g id="Node000006" class="node">
<title>Node6</title>
<g id="a_Node000006"><a xlink:href="_hair_8cpp.html" target="_top" xlink:title=" ">
<polygon fill="white" stroke="#666666" points="1996.75,-586 1907.25,-586 1907.25,-566 1996.75,-566 1996.75,-586"/>
<text text-anchor="middle" x="1952" y="-572.5" font-family="Helvetica,sans-Serif" font-size="10.00">Celeste/Hair.cpp</text>
</a>
</g>
</g>
<!-- Node1&#45;&gt;Node6 -->
<g id="edge5_Node000001_Node000006" class="edge">
<title>Node1&#45;&gt;Node6</title>
<g id="a_edge5_Node000001_Node000006"><a xlink:title=" ">
<path fill="none" stroke="#63b8ff" d="M1657.17,-631.15C1715.11,-623.85 1814.13,-610.09 1898,-592 1905.32,-590.42 1913.13,-588.43 1920.46,-586.43"/>
<polygon fill="#63b8ff" stroke="#63b8ff" points="1656.79,-627.67 1647.3,-632.38 1657.66,-634.62 1656.79,-627.67"/>
</a>
</g>
</g>
<!-- Node7 -->
<g id="Node000007" class="node">
<title>Node7</title>
<g id="a_Node000007"><a xlink:href="_level_manager_8h.html" target="_top" xlink:title=" ">
<polygon fill="white" stroke="#666666" points="453.88,-132 332.12,-132 332.12,-112 453.88,-112 453.88,-132"/>
<text text-anchor="middle" x="393" y="-118.5" font-family="Helvetica,sans-Serif" font-size="10.00">Celeste/LevelManager.h</text>
</a>
</g>
</g>
<!-- Node1&#45;&gt;Node7 -->
<g id="edge6_Node000001_Node000007" class="edge">
<title>Node1&#45;&gt;Node7</title>
<g id="a_edge6_Node000001_Node000007"><a xlink:title=" ">
<path fill="none" stroke="#63b8ff" d="M1558.88,-635.91C1289.14,-629.59 0,-595.22 0,-515 0,-515 0,-515 0,-233 0,-164.89 221.64,-137.04 332.02,-127.4"/>
<polygon fill="#63b8ff" stroke="#63b8ff" points="1558.64,-639.4 1568.72,-636.14 1558.8,-632.4 1558.64,-639.4"/>
</a>
</g>
</g>
<!-- Node12 -->
<g id="Node000012" class="node">
<title>Node12</title>
<g id="a_Node000012"><a xlink:href="_pause_menu_8cpp.html" target="_top" xlink:title=" ">
<polygon fill="white" stroke="#666666" points="1889.62,-132 1766.38,-132 1766.38,-112 1889.62,-112 1889.62,-132"/>
<text text-anchor="middle" x="1828" y="-118.5" font-family="Helvetica,sans-Serif" font-size="10.00">Celeste/PauseMenu.cpp</text>
</a>
</g>
</g>
<!-- Node1&#45;&gt;Node12 -->
<g id="edge11_Node000001_Node000012" class="edge">
<title>Node1&#45;&gt;Node12</title>
<g id="a_edge11_Node000001_Node000012"><a xlink:title=" ">
<path fill="none" stroke="#63b8ff" d="M1656.8,-623.88C1676.25,-616.83 1697.82,-606.52 1714,-592 1779.8,-532.96 1776,-491.4 1776,-403 1776,-403 1776,-403 1776,-233 1776,-192.23 1805.56,-150.41 1820.1,-132.3"/>
<polygon fill="#63b8ff" stroke="#63b8ff" points="1655.73,-620.54 1647.39,-627.07 1657.98,-627.17 1655.73,-620.54"/>
</a>
</g>
</g>
<!-- Node13 -->
<g id="Node000013" class="node">
<title>Node13</title>
<g id="a_Node000013"><a xlink:href="_slider_menu_item_8cpp.html" target="_top" xlink:title=" ">
<polygon fill="white" stroke="#666666" points="2154.88,-586 2015.12,-586 2015.12,-566 2154.88,-566 2154.88,-586"/>
<text text-anchor="middle" x="2085" y="-572.5" font-family="Helvetica,sans-Serif" font-size="10.00">Celeste/SliderMenuItem.cpp</text>
</a>
</g>
</g>
<!-- Node1&#45;&gt;Node13 -->
<g id="edge12_Node000001_Node000013" class="edge">
<title>Node1&#45;&gt;Node13</title>
<g id="a_edge12_Node000001_Node000013"><a xlink:title=" ">
<path fill="none" stroke="#63b8ff" d="M1657.45,-632.61C1732.86,-625.65 1881.02,-610.9 2006,-592 2016.49,-590.41 2027.71,-588.45 2038.31,-586.47"/>
<polygon fill="#63b8ff" stroke="#63b8ff" points="1657.14,-629.13 1647.5,-633.52 1657.77,-636.1 1657.14,-629.13"/>
</a>
</g>
</g>
<!-- Node14 -->
<g id="Node000014" class="node">
<title>Node14</title>
<g id="a_Node000014"><a xlink:href="_snow_flake_8h.html" target="_top" xlink:title=" ">
<polygon fill="white" stroke="#666666" points="1704.88,-586 1595.12,-586 1595.12,-566 1704.88,-566 1704.88,-586"/>
<text text-anchor="middle" x="1650" y="-572.5" font-family="Helvetica,sans-Serif" font-size="10.00">Celeste/SnowFlake.h</text>
</a>
</g>
</g>
<!-- Node1&#45;&gt;Node14 -->
<g id="edge13_Node000001_Node000014" class="edge">
<title>Node1&#45;&gt;Node14</title>
<g id="a_edge13_Node000001_Node000014"><a xlink:title=" ">
<path fill="none" stroke="#63b8ff" d="M1621.11,-618.26C1628.61,-607.56 1637.67,-594.61 1643.62,-586.11"/>
<polygon fill="#63b8ff" stroke="#63b8ff" points="1618.3,-616.19 1615.43,-626.39 1624.03,-620.2 1618.3,-616.19"/>
</a>
</g>
</g>
<!-- Node16 -->
<g id="Node000016" class="node">
<title>Node16</title>
<g id="a_Node000016"><a xlink:href="_snow_flake_manager_8cpp.html" target="_top" xlink:title=" ">
<polygon fill="white" stroke="#666666" points="1709.88,-468 1552.12,-468 1552.12,-448 1709.88,-448 1709.88,-468"/>
<text text-anchor="middle" x="1631" y="-454.5" font-family="Helvetica,sans-Serif" font-size="10.00">Celeste/SnowFlakeManager.cpp</text>
</a>
</g>
</g>
<!-- Node1&#45;&gt;Node16 -->
<g id="edge17_Node000001_Node000016" class="edge">
<title>Node1&#45;&gt;Node16</title>
<g id="a_edge17_Node000001_Node000016"><a xlink:title=" ">
<path fill="none" stroke="#63b8ff" d="M1596.34,-618.01C1592.21,-610.24 1588.08,-600.98 1586,-592 1577.18,-553.9 1571.03,-540.13 1586,-504 1592.26,-488.89 1606.32,-476.21 1617.07,-468.2"/>
<polygon fill="#63b8ff" stroke="#63b8ff" points="1593.19,-619.57 1601.2,-626.5 1599.26,-616.09 1593.19,-619.57"/>
</a>
</g>
</g>
<!-- Node17 -->
<g id="Node000017" class="node">
<title>Node17</title>
<g id="a_Node000017"><a xlink:href="_vector2x2f_8h.html" target="_top" xlink:title=" ">
<polygon fill="white" stroke="#666666" points="1457.75,-586 1350.25,-586 1350.25,-566 1457.75,-566 1457.75,-586"/>
<text text-anchor="middle" x="1404" y="-572.5" font-family="Helvetica,sans-Serif" font-size="10.00">Celeste/Vector2x2f.h</text>
</a>
</g>
</g>
<!-- Node1&#45;&gt;Node17 -->
<g id="edge18_Node000001_Node000017" class="edge">
<title>Node1&#45;&gt;Node17</title>
<g id="a_edge18_Node000001_Node000017"><a xlink:title=" ">
<path fill="none" stroke="#63b8ff" d="M1565.25,-624.43C1526.68,-613.08 1470.81,-596.65 1435.99,-586.41"/>
<polygon fill="#63b8ff" stroke="#63b8ff" points="1564.09,-627.73 1574.67,-627.2 1566.07,-621.02 1564.09,-627.73"/>
</a>
</g>
</g>
<!-- Node42 -->
<g id="Node000042" class="node">
<title>Node42</title>
<g id="a_Node000042"><a xlink:href="utils_8cpp.html" target="_top" xlink:title=" ">
<polygon fill="white" stroke="#666666" points="2258.88,-586 2173.12,-586 2173.12,-566 2258.88,-566 2258.88,-586"/>
<text text-anchor="middle" x="2216" y="-572.5" font-family="Helvetica,sans-Serif" font-size="10.00">Engine/utils.cpp</text>
</a>
</g>
</g>
<!-- Node1&#45;&gt;Node42 -->
<g id="edge61_Node000001_Node000042" class="edge">
<title>Node1&#45;&gt;Node42</title>
<g id="a_edge61_Node000001_Node000042"><a xlink:title=" ">
<path fill="none" stroke="#63b8ff" d="M1657.35,-636.31C1754.93,-634.22 1979.08,-625.8 2164,-592 2171.58,-590.61 2179.64,-588.58 2187.09,-586.45"/>
<polygon fill="#63b8ff" stroke="#63b8ff" points="1657.53,-632.8 1647.61,-636.5 1657.67,-639.8 1657.53,-632.8"/>
</a>
</g>
</g>
<!-- Node8 -->
<g id="Node000008" class="node">
<title>Node8</title>
<g id="a_Node000008"><a xlink:href="_game_8h.html" target="_top" xlink:title=" ">
<polygon fill="white" stroke="#666666" points="1743.62,-76 1656.38,-76 1656.38,-56 1743.62,-56 1743.62,-76"/>
<text text-anchor="middle" x="1700" y="-62.5" font-family="Helvetica,sans-Serif" font-size="10.00">Celeste/Game.h</text>
</a>
</g>
</g>
<!-- Node7&#45;&gt;Node8 -->
<g id="edge7_Node000007_Node000008" class="edge">
<title>Node7&#45;&gt;Node8</title>
<g id="a_edge7_Node000007_Node000008"><a xlink:title=" ">
<path fill="none" stroke="#63b8ff" d="M465.63,-118C705.05,-108.11 1465.07,-76.71 1656.1,-68.81"/>
<polygon fill="#63b8ff" stroke="#63b8ff" points="465.65,-114.5 455.8,-118.41 465.93,-121.49 465.65,-114.5"/>
</a>
</g>
</g>
<!-- Node11 -->
<g id="Node000011" class="node">
<title>Node11</title>
<g id="a_Node000011"><a xlink:href="_level_manager_8cpp.html" target="_top" xlink:title=" ">
<polygon fill="white" stroke="#666666" points="459.12,-76 326.88,-76 326.88,-56 459.12,-56 459.12,-76"/>
<text text-anchor="middle" x="393" y="-62.5" font-family="Helvetica,sans-Serif" font-size="10.00">Celeste/LevelManager.cpp</text>
</a>
</g>
</g>
<!-- Node7&#45;&gt;Node11 -->
<g id="edge10_Node000007_Node000011" class="edge">
<title>Node7&#45;&gt;Node11</title>
<g id="a_edge10_Node000007_Node000011"><a xlink:title=" ">
<path fill="none" stroke="#63b8ff" d="M393,-100.13C393,-91.9 393,-82.85 393,-76.3"/>
<polygon fill="#63b8ff" stroke="#63b8ff" points="389.5,-100.08 393,-110.08 396.5,-100.08 389.5,-100.08"/>
</a>
</g>
</g>
<!-- Node9 -->
<g id="Node000009" class="node">
<title>Node9</title>
<g id="a_Node000009"><a xlink:href="_game_8cpp.html" target="_top" xlink:title=" ">
<polygon fill="white" stroke="#666666" points="1691.88,-20 1594.12,-20 1594.12,0 1691.88,0 1691.88,-20"/>
<text text-anchor="middle" x="1643" y="-6.5" font-family="Helvetica,sans-Serif" font-size="10.00">Celeste/Game.cpp</text>
</a>
</g>
</g>
<!-- Node8&#45;&gt;Node9 -->
<g id="edge8_Node000008_Node000009" class="edge">
<title>Node8&#45;&gt;Node9</title>
<g id="a_edge8_Node000008_Node000009"><a xlink:title=" ">
<path fill="none" stroke="#63b8ff" d="M1681.89,-47.85C1672.26,-38.72 1660.79,-27.86 1652.81,-20.3"/>
<polygon fill="#63b8ff" stroke="#63b8ff" points="1679.31,-50.22 1688.97,-54.55 1684.12,-45.13 1679.31,-50.22"/>
</a>
</g>
</g>
<!-- Node10 -->
<g id="Node000010" class="node">
<title>Node10</title>
<g id="a_Node000010"><a xlink:href="main_8cpp.html" target="_top" xlink:title=" ">
<polygon fill="white" stroke="#666666" points="1802.25,-20 1709.75,-20 1709.75,0 1802.25,0 1802.25,-20"/>
<text text-anchor="middle" x="1756" y="-6.5" font-family="Helvetica,sans-Serif" font-size="10.00">Celeste/main.cpp</text>
</a>
</g>
</g>
<!-- Node8&#45;&gt;Node10 -->
<g id="edge9_Node000008_Node000010" class="edge">
<title>Node8&#45;&gt;Node10</title>
<g id="a_edge9_Node000008_Node000010"><a xlink:title=" ">
<path fill="none" stroke="#63b8ff" d="M1717.79,-47.85C1727.25,-38.72 1738.52,-27.86 1746.36,-20.3"/>
<polygon fill="#63b8ff" stroke="#63b8ff" points="1715.61,-45.08 1710.84,-54.54 1720.47,-50.12 1715.61,-45.08"/>
</a>
</g>
</g>
<!-- Node15 -->
<g id="Node000015" class="node">
<title>Node15</title>
<g id="a_Node000015"><a xlink:href="_snow_flake_manager_8h.html" target="_top" xlink:title=" ">
<polygon fill="white" stroke="#666666" points="1742.62,-524 1595.38,-524 1595.38,-504 1742.62,-504 1742.62,-524"/>
<text text-anchor="middle" x="1669" y="-510.5" font-family="Helvetica,sans-Serif" font-size="10.00">Celeste/SnowFlakeManager.h</text>
</a>
</g>
</g>
<!-- Node14&#45;&gt;Node15 -->
<g id="edge14_Node000014_Node000015" class="edge">
<title>Node14&#45;&gt;Node15</title>
<g id="a_edge14_Node000014_Node000015"><a xlink:title=" ">
<path fill="none" stroke="#63b8ff" d="M1656.36,-554.93C1659.66,-544.5 1663.53,-532.26 1666.11,-524.11"/>
<polygon fill="#63b8ff" stroke="#63b8ff" points="1653.11,-553.59 1653.43,-564.18 1659.78,-555.71 1653.11,-553.59"/>
</a>
</g>
</g>
<!-- Node15&#45;&gt;Node8 -->
<g id="edge15_Node000015_Node000008" class="edge">
<title>Node15&#45;&gt;Node8</title>
<g id="a_edge15_Node000015_Node000008"><a xlink:title=" ">
<path fill="none" stroke="#63b8ff" d="M1692.31,-496.61C1701.78,-488.89 1712.1,-478.97 1719,-468 1735.02,-442.52 1738,-433.1 1738,-403 1738,-403 1738,-403 1738,-177 1738,-137.8 1716.18,-94.84 1705.61,-76.33"/>
<polygon fill="#63b8ff" stroke="#63b8ff" points="1690.28,-493.76 1684.48,-502.62 1694.54,-499.31 1690.28,-493.76"/>
</a>
</g>
</g>
<!-- Node15&#45;&gt;Node16 -->
<g id="edge16_Node000015_Node000016" class="edge">
<title>Node15&#45;&gt;Node16</title>
<g id="a_edge16_Node000015_Node000016"><a xlink:title=" ">
<path fill="none" stroke="#63b8ff" d="M1655.94,-494.44C1649.73,-485.62 1642.59,-475.47 1637.54,-468.3"/>
<polygon fill="#63b8ff" stroke="#63b8ff" points="1652.89,-496.19 1661.51,-502.36 1658.62,-492.16 1652.89,-496.19"/>
</a>
</g>
</g>
<!-- Node17&#45;&gt;Node3 -->
<g id="edge19_Node000017_Node000003" class="edge">
<title>Node17&#45;&gt;Node3</title>
<g id="a_edge19_Node000017_Node000003"><a xlink:title=" ">
<path fill="none" stroke="#63b8ff" d="M1405.25,-554.23C1406.79,-528.8 1409.32,-486.84 1410.44,-468.3"/>
<polygon fill="#63b8ff" stroke="#63b8ff" points="1401.77,-553.8 1404.66,-564 1408.76,-554.23 1401.77,-553.8"/>
</a>
</g>
</g>
<!-- Node18 -->
<g id="Node000018" class="node">
<title>Node18</title>
<g id="a_Node000018"><a xlink:href="_character_controller_8h.html" target="_top" xlink:title=" ">
<polygon fill="white" stroke="#666666" points="1382.88,-524 1237.12,-524 1237.12,-504 1382.88,-504 1382.88,-524"/>
<text text-anchor="middle" x="1310" y="-510.5" font-family="Helvetica,sans-Serif" font-size="10.00">Celeste/CharacterController.h</text>
</a>
</g>
</g>
<!-- Node17&#45;&gt;Node18 -->
<g id="edge20_Node000017_Node000018" class="edge">
<title>Node17&#45;&gt;Node18</title>
<g id="a_edge20_Node000017_Node000018"><a xlink:title=" ">
<path fill="none" stroke="#63b8ff" d="M1379.77,-559.54C1362.31,-548.39 1339.31,-533.71 1324.58,-524.31"/>
<polygon fill="#63b8ff" stroke="#63b8ff" points="1377.72,-562.38 1388.04,-564.81 1381.49,-556.48 1377.72,-562.38"/>
</a>
</g>
</g>
<!-- Node18&#45;&gt;Node3 -->
<g id="edge60_Node000018_Node000003" class="edge">
<title>Node18&#45;&gt;Node3</title>
<g id="a_edge60_Node000018_Node000003"><a xlink:title=" ">
<path fill="none" stroke="#63b8ff" d="M1337.41,-498.35C1355.18,-488.84 1377.83,-476.74 1393.27,-468.48"/>
<polygon fill="#63b8ff" stroke="#63b8ff" points="1336.1,-495.08 1328.93,-502.88 1339.4,-501.25 1336.1,-495.08"/>
</a>
</g>
</g>
<!-- Node19 -->
<g id="Node000019" class="node">
<title>Node19</title>
<g id="a_Node000019"><a xlink:href="_character_8h.html" target="_top" xlink:title=" ">
<polygon fill="white" stroke="#666666" points="927.88,-468 824.12,-468 824.12,-448 927.88,-448 927.88,-468"/>
<text text-anchor="middle" x="876" y="-454.5" font-family="Helvetica,sans-Serif" font-size="10.00">Celeste/Character.h</text>
</a>
</g>
</g>
<!-- Node18&#45;&gt;Node19 -->
<g id="edge21_Node000018_Node000019" class="edge">
<title>Node18&#45;&gt;Node19</title>
<g id="a_edge21_Node000018_Node000019"><a xlink:title=" ">
<path fill="none" stroke="#63b8ff" d="M1225.56,-502.49C1137.43,-491.53 1002,-474.68 928.25,-465.5"/>
<polygon fill="#63b8ff" stroke="#63b8ff" points="1225.01,-505.95 1235.37,-503.71 1225.88,-499.01 1225.01,-505.95"/>
</a>
</g>
</g>
<!-- Node19&#45;&gt;Node2 -->
<g id="edge22_Node000019_Node000002" class="edge">
<title>Node19&#45;&gt;Node2</title>
<g id="a_edge22_Node000019_Node000002"><a xlink:title=" ">
<path fill="none" stroke="#63b8ff" d="M812.69,-454.4C687.21,-448.95 398.13,-434.89 156,-412 151.55,-411.58 146.94,-411.1 142.32,-410.58"/>
<polygon fill="#63b8ff" stroke="#63b8ff" points="812.3,-457.89 822.45,-454.82 812.61,-450.89 812.3,-457.89"/>
</a>
</g>
</g>
<!-- Node19&#45;&gt;Node7 -->
<g id="edge59_Node000019_Node000007" class="edge">
<title>Node19&#45;&gt;Node7</title>
<g id="a_edge59_Node000019_Node000007"><a xlink:title=" ">
<path fill="none" stroke="#63b8ff" d="M812.27,-455.58C635.14,-450.06 144.2,-423.68 57,-300 37.54,-272.39 36.84,-251.11 57,-224 89.94,-179.7 244.66,-147.5 332.21,-132.47"/>
<polygon fill="#63b8ff" stroke="#63b8ff" points="812.11,-459.07 822.21,-455.87 812.32,-452.07 812.11,-459.07"/>
</a>
</g>
</g>
<!-- Node19&#45;&gt;Node8 -->
<g id="edge23_Node000019_Node000008" class="edge">
<title>Node19&#45;&gt;Node8</title>
<g id="a_edge23_Node000019_Node000008"><a xlink:title=" ">
<path fill="none" stroke="#63b8ff" d="M939.53,-455.18C1132.72,-448.83 1700,-423.64 1700,-347 1700,-347 1700,-347 1700,-177 1700,-139.76 1700,-95.43 1700,-76.42"/>
<polygon fill="#63b8ff" stroke="#63b8ff" points="939.56,-451.68 929.68,-455.5 939.79,-458.68 939.56,-451.68"/>
</a>
</g>
</g>
<!-- Node20 -->
<g id="Node000020" class="node">
<title>Node20</title>
<g id="a_Node000020"><a xlink:href="_interactable_item_8h.html" target="_top" xlink:title=" ">
<polygon fill="white" stroke="#666666" points="941.75,-412 810.25,-412 810.25,-392 941.75,-392 941.75,-412"/>
<text text-anchor="middle" x="876" y="-398.5" font-family="Helvetica,sans-Serif" font-size="10.00">Celeste/InteractableItem.h</text>
</a>
</g>
</g>
<!-- Node19&#45;&gt;Node20 -->
<g id="edge24_Node000019_Node000020" class="edge">
<title>Node19&#45;&gt;Node20</title>
<g id="a_edge24_Node000019_Node000020"><a xlink:title=" ">
<path fill="none" stroke="#63b8ff" d="M876,-436.13C876,-427.9 876,-418.85 876,-412.3"/>
<polygon fill="#63b8ff" stroke="#63b8ff" points="872.5,-436.08 876,-446.08 879.5,-436.08 872.5,-436.08"/>
</a>
</g>
</g>
<!-- Node21 -->
<g id="Node000021" class="node">
<title>Node21</title>
<g id="a_Node000021"><a xlink:href="_chapter_info_8h.html" target="_top" xlink:title=" ">
<polygon fill="white" stroke="#666666" points="861,-244 749,-244 749,-224 861,-224 861,-244"/>
<text text-anchor="middle" x="805" y="-230.5" font-family="Helvetica,sans-Serif" font-size="10.00">Celeste/ChapterInfo.h</text>
</a>
</g>
</g>
<!-- Node20&#45;&gt;Node21 -->
<g id="edge25_Node000020_Node000021" class="edge">
<title>Node20&#45;&gt;Node21</title>
<g id="a_edge25_Node000020_Node000021"><a xlink:title=" ">
<path fill="none" stroke="#63b8ff" d="M839.11,-386.71C825.91,-379.6 812.46,-369.55 805,-356 784.65,-319 796.25,-265.51 802.18,-244.23"/>
<polygon fill="#63b8ff" stroke="#63b8ff" points="837.18,-389.66 847.7,-390.93 840.26,-383.38 837.18,-389.66"/>
</a>
</g>
</g>
<!-- Node22 -->
<g id="Node000022" class="node">
<title>Node22</title>
<g id="a_Node000022"><a xlink:href="_chapter_loader_8h.html" target="_top" xlink:title=" ">
<polygon fill="white" stroke="#666666" points="1311.38,-188 1186.62,-188 1186.62,-168 1311.38,-168 1311.38,-188"/>
<text text-anchor="middle" x="1249" y="-174.5" font-family="Helvetica,sans-Serif" font-size="10.00">Celeste/ChapterLoader.h</text>
</a>
</g>
</g>
<!-- Node20&#45;&gt;Node22 -->
<g id="edge30_Node000020_Node000022" class="edge">
<title>Node20&#45;&gt;Node22</title>
<g id="a_edge30_Node000020_Node000022"><a xlink:title=" ">
<path fill="none" stroke="#63b8ff" d="M953.44,-399.49C1102.55,-395.95 1424.22,-385.11 1531,-356 1584.69,-341.36 1613.74,-347.34 1643,-300 1679.68,-240.65 1431.87,-201.51 1311.7,-186.23"/>
<polygon fill="#63b8ff" stroke="#63b8ff" points="953.57,-395.98 943.65,-399.71 953.73,-402.98 953.57,-395.98"/>
</a>
</g>
</g>
<!-- Node24 -->
<g id="Node000024" class="node">
<title>Node24</title>
<g id="a_Node000024"><a xlink:href="_cog_platform_8h.html" target="_top" xlink:title=" ">
<polygon fill="white" stroke="#666666" points="1521.88,-356 1406.12,-356 1406.12,-336 1521.88,-336 1521.88,-356"/>
<text text-anchor="middle" x="1464" y="-342.5" font-family="Helvetica,sans-Serif" font-size="10.00">Celeste/CogPlatform.h</text>
</a>
</g>
</g>
<!-- Node20&#45;&gt;Node24 -->
<g id="edge31_Node000020_Node000024" class="edge">
<title>Node20&#45;&gt;Node24</title>
<g id="a_edge31_Node000020_Node000024"><a xlink:title=" ">
<path fill="none" stroke="#63b8ff" d="M953.29,-395.47C1055.12,-387.93 1239.73,-373.35 1397,-356 1399.92,-355.68 1402.9,-355.33 1405.92,-354.97"/>
<polygon fill="#63b8ff" stroke="#63b8ff" points="953.12,-391.98 943.4,-396.2 953.63,-398.96 953.12,-391.98"/>
</a>
</g>
</g>
<!-- Node25 -->
<g id="Node000025" class="node">
<title>Node25</title>
<g id="a_Node000025"><a xlink:href="_crumble_block_8h.html" target="_top" xlink:title=" ">
<polygon fill="white" stroke="#666666" points="758.25,-356 635.75,-356 635.75,-336 758.25,-336 758.25,-356"/>
<text text-anchor="middle" x="697" y="-342.5" font-family="Helvetica,sans-Serif" font-size="10.00">Celeste/CrumbleBlock.h</text>
</a>
</g>
</g>
<!-- Node20&#45;&gt;Node25 -->
<g id="edge34_Node000020_Node000025" class="edge">
<title>Node20&#45;&gt;Node25</title>
<g id="a_edge34_Node000020_Node000025"><a xlink:title=" ">
<path fill="none" stroke="#63b8ff" d="M833.92,-388.31C801.61,-378.56 757.71,-365.32 728.42,-356.48"/>
<polygon fill="#63b8ff" stroke="#63b8ff" points="832.79,-391.62 843.37,-391.16 834.81,-384.92 832.79,-391.62"/>
</a>
</g>
</g>
<!-- Node27 -->
<g id="Node000027" class="node">
<title>Node27</title>
<g id="a_Node000027"><a xlink:href="_dash_crystal_8h.html" target="_top" xlink:title=" ">
<polygon fill="white" stroke="#666666" points="1387.88,-356 1272.12,-356 1272.12,-336 1387.88,-336 1387.88,-356"/>
<text text-anchor="middle" x="1330" y="-342.5" font-family="Helvetica,sans-Serif" font-size="10.00">Celeste/DashCrystal.h</text>
</a>
</g>
</g>
<!-- Node20&#45;&gt;Node27 -->
<g id="edge37_Node000020_Node000027" class="edge">
<title>Node20&#45;&gt;Node27</title>
<g id="a_edge37_Node000020_Node000027"><a xlink:title=" ">
<path fill="none" stroke="#63b8ff" d="M953.27,-391.81C1043.51,-381.08 1190.73,-363.56 1271.83,-353.92"/>
<polygon fill="#63b8ff" stroke="#63b8ff" points="953.04,-388.31 943.52,-392.97 953.86,-395.26 953.04,-388.31"/>
</a>
</g>
</g>
<!-- Node29 -->
<g id="Node000029" class="node">
<title>Node29</title>
<g id="a_Node000029"><a xlink:href="_interactable_item_8cpp.html" target="_top" xlink:title=" ">
<polygon fill="white" stroke="#666666" points="618,-356 476,-356 476,-336 618,-336 618,-356"/>
<text text-anchor="middle" x="547" y="-342.5" font-family="Helvetica,sans-Serif" font-size="10.00">Celeste/InteractableItem.cpp</text>
</a>
</g>
</g>
<!-- Node20&#45;&gt;Node29 -->
<g id="edge40_Node000020_Node000029" class="edge">
<title>Node20&#45;&gt;Node29</title>
<g id="a_edge40_Node000020_Node000029"><a xlink:title=" ">
<path fill="none" stroke="#63b8ff" d="M807.05,-389.68C747.03,-379.83 661.04,-365.72 604.62,-356.46"/>
<polygon fill="#63b8ff" stroke="#63b8ff" points="806.39,-393.12 816.82,-391.29 807.52,-386.21 806.39,-393.12"/>
</a>
</g>
</g>
<!-- Node30 -->
<g id="Node000030" class="node">
<title>Node30</title>
<g id="a_Node000030"><a xlink:href="_level_8h.html" target="_top" xlink:title=" ">
<polygon fill="white" stroke="#666666" points="1189.12,-356 1104.88,-356 1104.88,-336 1189.12,-336 1189.12,-356"/>
<text text-anchor="middle" x="1147" y="-342.5" font-family="Helvetica,sans-Serif" font-size="10.00">Celeste/Level.h</text>
</a>
</g>
</g>
<!-- Node20&#45;&gt;Node30 -->
<g id="edge41_Node000020_Node000030" class="edge">
<title>Node20&#45;&gt;Node30</title>
<g id="a_edge41_Node000020_Node000030"><a xlink:title=" ">
<path fill="none" stroke="#63b8ff" d="M934.72,-389.3C985.85,-379.11 1058.76,-364.58 1104.45,-355.48"/>
<polygon fill="#63b8ff" stroke="#63b8ff" points="934.12,-385.85 925,-391.24 935.49,-392.71 934.12,-385.85"/>
</a>
</g>
</g>
<!-- Node32 -->
<g id="Node000032" class="node">
<title>Node32</title>
<g id="a_Node000032"><a xlink:href="_respawn_zone_8h.html" target="_top" xlink:title=" ">
<polygon fill="white" stroke="#666666" points="938,-356 814,-356 814,-336 938,-336 938,-356"/>
<text text-anchor="middle" x="876" y="-342.5" font-family="Helvetica,sans-Serif" font-size="10.00">Celeste/RespawnZone.h</text>
</a>
</g>
</g>
<!-- Node20&#45;&gt;Node32 -->
<g id="edge44_Node000020_Node000032" class="edge">
<title>Node20&#45;&gt;Node32</title>
<g id="a_edge44_Node000020_Node000032"><a xlink:title=" ">
<path fill="none" stroke="#63b8ff" d="M876,-380.13C876,-371.9 876,-362.85 876,-356.3"/>
<polygon fill="#63b8ff" stroke="#63b8ff" points="872.5,-380.08 876,-390.08 879.5,-380.08 872.5,-380.08"/>
</a>
</g>
</g>
<!-- Node34 -->
<g id="Node000034" class="node">
<title>Node34</title>
<g id="a_Node000034"><a xlink:href="_spike_8h.html" target="_top" xlink:title=" ">
<polygon fill="white" stroke="#666666" points="1041.88,-356 956.12,-356 956.12,-336 1041.88,-336 1041.88,-356"/>
<text text-anchor="middle" x="999" y="-342.5" font-family="Helvetica,sans-Serif" font-size="10.00">Celeste/Spike.h</text>
</a>
</g>
</g>
<!-- Node20&#45;&gt;Node34 -->
<g id="edge47_Node000020_Node000034" class="edge">
<title>Node20&#45;&gt;Node34</title>
<g id="a_edge47_Node000020_Node000034"><a xlink:title=" ">
<path fill="none" stroke="#63b8ff" d="M907.87,-387.01C929.73,-377.41 958.16,-364.93 977.41,-356.48"/>
<polygon fill="#63b8ff" stroke="#63b8ff" points="906.56,-383.76 898.81,-390.99 909.37,-390.17 906.56,-383.76"/>
</a>
</g>
</g>
<!-- Node36 -->
<g id="Node000036" class="node">
<title>Node36</title>
<g id="a_Node000036"><a xlink:href="_strawberry_8h.html" target="_top" xlink:title=" ">
<polygon fill="white" stroke="#666666" points="330.75,-356 223.25,-356 223.25,-336 330.75,-336 330.75,-356"/>
<text text-anchor="middle" x="277" y="-342.5" font-family="Helvetica,sans-Serif" font-size="10.00">Celeste/Strawberry.h</text>
</a>
</g>
</g>
<!-- Node20&#45;&gt;Node36 -->
<g id="edge50_Node000020_Node000036" class="edge">
<title>Node20&#45;&gt;Node36</title>
<g id="a_edge50_Node000020_Node000036"><a xlink:title=" ">
<path fill="none" stroke="#63b8ff" d="M798.78,-396C694.33,-388.91 502.28,-374.67 339,-356 336.41,-355.7 333.75,-355.38 331.08,-355.05"/>
<polygon fill="#63b8ff" stroke="#63b8ff" points="798.43,-399.49 808.64,-396.67 798.9,-392.5 798.43,-399.49"/>
</a>
</g>
</g>
<!-- Node40 -->
<g id="Node000040" class="node">
<title>Node40</title>
<g id="a_Node000040"><a xlink:href="_trampoline_8h.html" target="_top" xlink:title=" ">
<polygon fill="white" stroke="#666666" points="457.5,-356 348.5,-356 348.5,-336 457.5,-336 457.5,-356"/>
<text text-anchor="middle" x="403" y="-342.5" font-family="Helvetica,sans-Serif" font-size="10.00">Celeste/Trampoline.h</text>
</a>
</g>
</g>
<!-- Node20&#45;&gt;Node40 -->
<g id="edge56_Node000020_Node000040" class="edge">
<title>Node20&#45;&gt;Node40</title>
<g id="a_edge56_Node000020_Node000040"><a xlink:title=" ">
<path fill="none" stroke="#63b8ff" d="M798.79,-393.21C716.5,-384.73 582.42,-370.46 467,-356 463.99,-355.62 460.91,-355.23 457.8,-354.82"/>
<polygon fill="#63b8ff" stroke="#63b8ff" points="798.24,-396.67 808.54,-394.21 798.95,-389.7 798.24,-396.67"/>
</a>
</g>
</g>
<!-- Node21&#45;&gt;Node22 -->
<g id="edge26_Node000021_Node000022" class="edge">
<title>Node21&#45;&gt;Node22</title>
<g id="a_edge26_Node000021_Node000022"><a xlink:title=" ">
<path fill="none" stroke="#63b8ff" d="M872.61,-224.78C957.94,-214.4 1103.57,-196.69 1186.44,-186.61"/>
<polygon fill="#63b8ff" stroke="#63b8ff" points="872.24,-221.3 862.74,-225.98 873.08,-228.25 872.24,-221.3"/>
</a>
</g>
</g>
<!-- Node22&#45;&gt;Node7 -->
<g id="edge28_Node000022_Node000007" class="edge">
<title>Node22&#45;&gt;Node7</title>
<g id="a_edge28_Node000022_Node000007"><a xlink:title=" ">
<path fill="none" stroke="#63b8ff" d="M1175.33,-172.35C1009.13,-161.87 607.61,-136.54 454.09,-126.85"/>
<polygon fill="#63b8ff" stroke="#63b8ff" points="1174.69,-175.82 1184.89,-172.96 1175.13,-168.83 1174.69,-175.82"/>
</a>
</g>
</g>
<!-- Node22&#45;&gt;Node12 -->
<g id="edge29_Node000022_Node000012" class="edge">
<title>Node22&#45;&gt;Node12</title>
<g id="a_edge29_Node000022_Node000012"><a xlink:title=" ">
<path fill="none" stroke="#63b8ff" d="M1322.95,-170.1C1438.29,-159.35 1658.9,-138.77 1766.26,-128.76"/>
<polygon fill="#63b8ff" stroke="#63b8ff" points="1322.93,-166.59 1313.3,-171 1323.58,-173.56 1322.93,-166.59"/>
</a>
</g>
</g>
<!-- Node23 -->
<g id="Node000023" class="node">
<title>Node23</title>
<g id="a_Node000023"><a xlink:href="_chapter_loader_8cpp.html" target="_top" xlink:title=" ">
<polygon fill="white" stroke="#666666" points="1316.62,-132 1181.38,-132 1181.38,-112 1316.62,-112 1316.62,-132"/>
<text text-anchor="middle" x="1249" y="-118.5" font-family="Helvetica,sans-Serif" font-size="10.00">Celeste/ChapterLoader.cpp</text>
</a>
</g>
</g>
<!-- Node22&#45;&gt;Node23 -->
<g id="edge27_Node000022_Node000023" class="edge">
<title>Node22&#45;&gt;Node23</title>
<g id="a_edge27_Node000022_Node000023"><a xlink:title=" ">
<path fill="none" stroke="#63b8ff" d="M1249,-156.13C1249,-147.9 1249,-138.85 1249,-132.3"/>
<polygon fill="#63b8ff" stroke="#63b8ff" points="1245.5,-156.08 1249,-166.08 1252.5,-156.08 1245.5,-156.08"/>
</a>
</g>
</g>
<!-- Node24&#45;&gt;Node5 -->
<g id="edge33_Node000024_Node000005" class="edge">
<title>Node24&#45;&gt;Node5</title>
<g id="a_edge33_Node000024_Node000005"><a xlink:title=" ">
<path fill="none" stroke="#63b8ff" d="M1492.77,-330.48C1511.64,-320.96 1535.78,-308.78 1552.22,-300.48"/>
<polygon fill="#63b8ff" stroke="#63b8ff" points="1491.34,-327.28 1483.99,-334.91 1494.49,-333.53 1491.34,-327.28"/>
</a>
</g>
</g>
<!-- Node24&#45;&gt;Node21 -->
<g id="edge32_Node000024_Node000021" class="edge">
<title>Node24&#45;&gt;Node21</title>
<g id="a_edge32_Node000024_Node000021"><a xlink:title=" ">
<path fill="none" stroke="#63b8ff" d="M1462.18,-324.46C1459.7,-309.6 1453.83,-290.38 1440,-280 1394.31,-245.71 1008.25,-237.45 861.39,-235.55"/>
<polygon fill="#63b8ff" stroke="#63b8ff" points="1458.67,-324.63 1463.39,-334.12 1465.62,-323.76 1458.67,-324.63"/>
</a>
</g>
</g>
<!-- Node25&#45;&gt;Node21 -->
<g id="edge35_Node000025_Node000021" class="edge">
<title>Node25&#45;&gt;Node21</title>
<g id="a_edge35_Node000025_Node000021"><a xlink:title=" ">
<path fill="none" stroke="#63b8ff" d="M711.25,-327.07C722.19,-313.65 737.93,-295.1 753,-280 766.16,-266.82 782.59,-252.99 793.42,-244.2"/>
<polygon fill="#63b8ff" stroke="#63b8ff" points="708.71,-324.64 705.16,-334.62 714.16,-329.03 708.71,-324.64"/>
</a>
</g>
</g>
<!-- Node26 -->
<g id="Node000026" class="node">
<title>Node26</title>
<g id="a_Node000026"><a xlink:href="_crumble_block_8cpp.html" target="_top" xlink:title=" ">
<polygon fill="white" stroke="#666666" points="700.5,-300 567.5,-300 567.5,-280 700.5,-280 700.5,-300"/>
<text text-anchor="middle" x="634" y="-286.5" font-family="Helvetica,sans-Serif" font-size="10.00">Celeste/CrumbleBlock.cpp</text>
</a>
</g>
</g>
<!-- Node25&#45;&gt;Node26 -->
<g id="edge36_Node000025_Node000026" class="edge">
<title>Node25&#45;&gt;Node26</title>
<g id="a_edge36_Node000025_Node000026"><a xlink:title=" ">
<path fill="none" stroke="#63b8ff" d="M677.31,-328.13C666.6,-318.94 653.75,-307.93 644.85,-300.3"/>
<polygon fill="#63b8ff" stroke="#63b8ff" points="675.01,-330.76 684.88,-334.61 679.56,-325.44 675.01,-330.76"/>
</a>
</g>
</g>
<!-- Node27&#45;&gt;Node21 -->
<g id="edge38_Node000027_Node000021" class="edge">
<title>Node27&#45;&gt;Node21</title>
<g id="a_edge38_Node000027_Node000021"><a xlink:title=" ">
<path fill="none" stroke="#63b8ff" d="M1374.82,-331.98C1407.62,-320.3 1443.15,-301.67 1423,-280 1385.21,-239.35 1006.72,-235 861.4,-234.84"/>
<polygon fill="#63b8ff" stroke="#63b8ff" points="1374.13,-328.52 1365.78,-335.04 1376.37,-335.15 1374.13,-328.52"/>
</a>
</g>
</g>
<!-- Node28 -->
<g id="Node000028" class="node">
<title>Node28</title>
<g id="a_Node000028"><a xlink:href="_dash_crystal_8cpp.html" target="_top" xlink:title=" ">
<polygon fill="white" stroke="#666666" points="1414.12,-300 1287.88,-300 1287.88,-280 1414.12,-280 1414.12,-300"/>
<text text-anchor="middle" x="1351" y="-286.5" font-family="Helvetica,sans-Serif" font-size="10.00">Celeste/DashCrystal.cpp</text>
</a>
</g>
</g>
<!-- Node27&#45;&gt;Node28 -->
<g id="edge39_Node000027_Node000028" class="edge">
<title>Node27&#45;&gt;Node28</title>
<g id="a_edge39_Node000027_Node000028"><a xlink:title=" ">
<path fill="none" stroke="#63b8ff" d="M1337.78,-325C1341.07,-316.54 1344.75,-307.08 1347.38,-300.3"/>
<polygon fill="#63b8ff" stroke="#63b8ff" points="1334.57,-323.59 1334.21,-334.18 1341.09,-326.13 1334.57,-323.59"/>
</a>
</g>
</g>
<!-- Node30&#45;&gt;Node21 -->
<g id="edge42_Node000030_Node000021" class="edge">
<title>Node30&#45;&gt;Node21</title>
<g id="a_edge42_Node000030_Node000021"><a xlink:title=" ">
<path fill="none" stroke="#63b8ff" d="M1146.58,-324.4C1145.12,-309.8 1140.66,-290.94 1128,-280 1089.12,-246.41 943.01,-237.83 861.26,-235.68"/>
<polygon fill="#63b8ff" stroke="#63b8ff" points="1143.08,-324.52 1147.14,-334.31 1150.07,-324.13 1143.08,-324.52"/>
</a>
</g>
</g>
<!-- Node31 -->
<g id="Node000031" class="node">
<title>Node31</title>
<g id="a_Node000031"><a xlink:href="_level_8cpp.html" target="_top" xlink:title=" ">
<polygon fill="white" stroke="#666666" points="1269.38,-300 1174.62,-300 1174.62,-280 1269.38,-280 1269.38,-300"/>
<text text-anchor="middle" x="1222" y="-286.5" font-family="Helvetica,sans-Serif" font-size="10.00">Celeste/Level.cpp</text>
</a>
</g>
</g>
<!-- Node30&#45;&gt;Node31 -->
<g id="edge43_Node000030_Node000031" class="edge">
<title>Node30&#45;&gt;Node31</title>
<g id="a_edge43_Node000030_Node000031"><a xlink:title=" ">
<path fill="none" stroke="#63b8ff" d="M1169.22,-329C1182.11,-319.72 1197.9,-308.35 1208.83,-300.48"/>
<polygon fill="#63b8ff" stroke="#63b8ff" points="1167.36,-326.03 1161.29,-334.71 1171.45,-331.71 1167.36,-326.03"/>
</a>
</g>
</g>
<!-- Node32&#45;&gt;Node21 -->
<g id="edge45_Node000032_Node000021" class="edge">
<title>Node32&#45;&gt;Node21</title>
<g id="a_edge45_Node000032_Node000021"><a xlink:title=" ">
<path fill="none" stroke="#63b8ff" d="M852.05,-329.02C842.11,-321.3 831.24,-311.27 824,-300 812.56,-282.19 807.82,-257.29 806.01,-244.08"/>
<polygon fill="#63b8ff" stroke="#63b8ff" points="849.78,-331.69 859.92,-334.77 853.92,-326.04 849.78,-331.69"/>
</a>
</g>
</g>
<!-- Node33 -->
<g id="Node000033" class="node">
<title>Node33</title>
<g id="a_Node000033"><a xlink:href="_respawn_zone_8cpp.html" target="_top" xlink:title=" ">
<polygon fill="white" stroke="#666666" points="967.25,-300 832.75,-300 832.75,-280 967.25,-280 967.25,-300"/>
<text text-anchor="middle" x="900" y="-286.5" font-family="Helvetica,sans-Serif" font-size="10.00">Celeste/RespawnZone.cpp</text>
</a>
</g>
</g>
<!-- Node32&#45;&gt;Node33 -->
<g id="edge46_Node000032_Node000033" class="edge">
<title>Node32&#45;&gt;Node33</title>
<g id="a_edge46_Node000032_Node000033"><a xlink:title=" ">
<path fill="none" stroke="#63b8ff" d="M884.76,-325.29C888.55,-316.75 892.82,-307.16 895.87,-300.3"/>
<polygon fill="#63b8ff" stroke="#63b8ff" points="881.66,-323.65 880.8,-334.21 888.05,-326.49 881.66,-323.65"/>
</a>
</g>
</g>
<!-- Node34&#45;&gt;Node21 -->
<g id="edge48_Node000034_Node000021" class="edge">
<title>Node34&#45;&gt;Node21</title>
<g id="a_edge48_Node000034_Node000021"><a xlink:title=" ">
<path fill="none" stroke="#63b8ff" d="M996.75,-324.28C994.12,-309.93 988.4,-291.41 976,-280 945.06,-251.52 898.26,-240.63 861.44,-236.67"/>
<polygon fill="#63b8ff" stroke="#63b8ff" points="993.27,-324.64 998.15,-334.05 1000.2,-323.65 993.27,-324.64"/>
</a>
</g>
</g>
<!-- Node35 -->
<g id="Node000035" class="node">
<title>Node35</title>
<g id="a_Node000035"><a xlink:href="_spike_8cpp.html" target="_top" xlink:title=" ">
<polygon fill="white" stroke="#666666" points="1119.12,-300 1022.88,-300 1022.88,-280 1119.12,-280 1119.12,-300"/>
<text text-anchor="middle" x="1071" y="-286.5" font-family="Helvetica,sans-Serif" font-size="10.00">Celeste/Spike.cpp</text>
</a>
</g>
</g>
<!-- Node34&#45;&gt;Node35 -->
<g id="edge49_Node000034_Node000035" class="edge">
<title>Node34&#45;&gt;Node35</title>
<g id="a_edge49_Node000034_Node000035"><a xlink:title=" ">
<path fill="none" stroke="#63b8ff" d="M1020.39,-328.95C1032.85,-319.61 1048.11,-308.16 1058.6,-300.3"/>
<polygon fill="#63b8ff" stroke="#63b8ff" points="1018.65,-325.89 1012.75,-334.69 1022.85,-331.49 1018.65,-325.89"/>
</a>
</g>
</g>
<!-- Node36&#45;&gt;Node21 -->
<g id="edge51_Node000036_Node000021" class="edge">
<title>Node36&#45;&gt;Node21</title>
<g id="a_edge51_Node000036_Node000021"><a xlink:title=" ">
<path fill="none" stroke="#63b8ff" d="M300.71,-329.54C325.43,-314.24 365.82,-291.49 404,-280 523.07,-244.16 669.8,-236.38 748.6,-234.99"/>
<polygon fill="#63b8ff" stroke="#63b8ff" points="299,-326.48 292.41,-334.78 302.74,-332.4 299,-326.48"/>
</a>
</g>
</g>
<!-- Node37 -->
<g id="Node000037" class="node">
<title>Node37</title>
<g id="a_Node000037"><a xlink:href="_flying_strawberry_8h.html" target="_top" xlink:title=" ">
<polygon fill="white" stroke="#666666" points="199.88,-300 66.12,-300 66.12,-280 199.88,-280 199.88,-300"/>
<text text-anchor="middle" x="133" y="-286.5" font-family="Helvetica,sans-Serif" font-size="10.00">Celeste/FlyingStrawberry.h</text>
</a>
</g>
</g>
<!-- Node36&#45;&gt;Node37 -->
<g id="edge52_Node000036_Node000037" class="edge">
<title>Node36&#45;&gt;Node37</title>
<g id="a_edge52_Node000036_Node000037"><a xlink:title=" ">
<path fill="none" stroke="#63b8ff" d="M241.43,-331.66C215.62,-321.98 181.33,-309.12 158.28,-300.48"/>
<polygon fill="#63b8ff" stroke="#63b8ff" points="239.91,-334.83 250.5,-335.06 242.37,-328.27 239.91,-334.83"/>
</a>
</g>
</g>
<!-- Node39 -->
<g id="Node000039" class="node">
<title>Node39</title>
<g id="a_Node000039"><a xlink:href="_strawberry_8cpp.html" target="_top" xlink:title=" ">
<polygon fill="white" stroke="#666666" points="336,-300 218,-300 218,-280 336,-280 336,-300"/>
<text text-anchor="middle" x="277" y="-286.5" font-family="Helvetica,sans-Serif" font-size="10.00">Celeste/Strawberry.cpp</text>
</a>
</g>
</g>
<!-- Node36&#45;&gt;Node39 -->
<g id="edge55_Node000036_Node000039" class="edge">
<title>Node36&#45;&gt;Node39</title>
<g id="a_edge55_Node000036_Node000039"><a xlink:title=" ">
<path fill="none" stroke="#63b8ff" d="M277,-324.13C277,-315.9 277,-306.85 277,-300.3"/>
<polygon fill="#63b8ff" stroke="#63b8ff" points="273.5,-324.08 277,-334.08 280.5,-324.08 273.5,-324.08"/>
</a>
</g>
</g>
<!-- Node37&#45;&gt;Node21 -->
<g id="edge53_Node000037_Node000021" class="edge">
<title>Node37&#45;&gt;Node21</title>
<g id="a_edge53_Node000037_Node000021"><a xlink:title=" ">
<path fill="none" stroke="#63b8ff" d="M211.36,-279.81C415.52,-260.24 644.7,-245 748.64,-238.45"/>
<polygon fill="#63b8ff" stroke="#63b8ff" points="211.24,-276.31 201.63,-280.75 211.92,-283.27 211.24,-276.31"/>
</a>
</g>
</g>
<!-- Node38 -->
<g id="Node000038" class="node">
<title>Node38</title>
<g id="a_Node000038"><a xlink:href="_flying_strawberry_8cpp.html" target="_top" xlink:title=" ">
<polygon fill="white" stroke="#666666" points="210.12,-244 65.88,-244 65.88,-224 210.12,-224 210.12,-244"/>
<text text-anchor="middle" x="138" y="-230.5" font-family="Helvetica,sans-Serif" font-size="10.00">Celeste/FlyingStrawberry.cpp</text>
</a>
</g>
</g>
<!-- Node37&#45;&gt;Node38 -->
<g id="edge54_Node000037_Node000038" class="edge">
<title>Node37&#45;&gt;Node38</title>
<g id="a_edge54_Node000037_Node000038"><a xlink:title=" ">
<path fill="none" stroke="#63b8ff" d="M134.93,-268.13C135.69,-259.9 136.53,-250.85 137.14,-244.3"/>
<polygon fill="#63b8ff" stroke="#63b8ff" points="131.45,-267.81 134.01,-278.09 138.42,-268.45 131.45,-267.81"/>
</a>
</g>
</g>
<!-- Node40&#45;&gt;Node21 -->
<g id="edge57_Node000040_Node000021" class="edge">
<title>Node40&#45;&gt;Node21</title>
<g id="a_edge57_Node000040_Node000021"><a xlink:title=" ">
<path fill="none" stroke="#63b8ff" d="M403.01,-324.34C404.2,-309.72 408.35,-290.85 421,-280 468.97,-238.88 654.03,-233.9 748.63,-234.15"/>
<polygon fill="#63b8ff" stroke="#63b8ff" points="399.52,-324.16 402.64,-334.28 406.51,-324.42 399.52,-324.16"/>
</a>
</g>
</g>
<!-- Node41 -->
<g id="Node000041" class="node">
<title>Node41</title>
<g id="a_Node000041"><a xlink:href="_trampoline_8cpp.html" target="_top" xlink:title=" ">
<polygon fill="white" stroke="#666666" points="549.75,-300 430.25,-300 430.25,-280 549.75,-280 549.75,-300"/>
<text text-anchor="middle" x="490" y="-286.5" font-family="Helvetica,sans-Serif" font-size="10.00">Celeste/Trampoline.cpp</text>
</a>
</g>
</g>
<!-- Node40&#45;&gt;Node41 -->
<g id="edge58_Node000040_Node000041" class="edge">
<title>Node40&#45;&gt;Node41</title>
<g id="a_edge58_Node000040_Node000041"><a xlink:title=" ">
<path fill="none" stroke="#63b8ff" d="M427.9,-329.54C443.01,-320.17 461.8,-308.51 474.73,-300.48"/>
<polygon fill="#63b8ff" stroke="#63b8ff" points="426.09,-326.55 419.44,-334.8 429.78,-332.5 426.09,-326.55"/>
</a>
</g>
</g>
</g>
</svg>
