<?xml version="1.0" encoding="UTF-8" standalone="no"?>
<!DOCTYPE svg PUBLIC "-//W3C//DTD SVG 1.1//EN"
 "http://www.w3.org/Graphics/SVG/1.1/DTD/svg11.dtd">
<!-- Generated by graphviz version 12.2.1 (20241206.2353)
 -->
<!-- Title: Celeste/AnimationManager.cpp Pages: 1 -->
<svg width="484pt" height="308pt"
 viewBox="0.00 0.00 484.00 308.00" xmlns="http://www.w3.org/2000/svg" xmlns:xlink="http://www.w3.org/1999/xlink">
<g id="graph0" class="graph" transform="scale(1 1) rotate(0) translate(4 304)">
<title>Celeste/AnimationManager.cpp</title>
<!-- Node1 -->
<g id="Node000001" class="node">
<title>Node1</title>
<g id="a_Node000001"><a xlink:title=" ">
<polygon fill="#999999" stroke="#666666" points="304.12,-300 151.62,-300 151.62,-280 304.12,-280 304.12,-300"/>
<text text-anchor="middle" x="227.88" y="-286.5" font-family="Helvetica,sans-Serif" font-size="10.00">Celeste/AnimationManager.cpp</text>
</a>
</g>
</g>
<!-- Node2 -->
<g id="Node000002" class="node">
<title>Node2</title>
<g id="a_Node000002"><a xlink:href="pch_8h.html" target="_top" xlink:title=" ">
<polygon fill="white" stroke="#666666" points="207.88,-132 167.88,-132 167.88,-112 207.88,-112 207.88,-132"/>
<text text-anchor="middle" x="187.88" y="-118.5" font-family="Helvetica,sans-Serif" font-size="10.00">pch.h</text>
</a>
</g>
</g>
<!-- Node1&#45;&gt;Node2 -->
<g id="edge1_Node000001_Node000002" class="edge">
<title>Node1&#45;&gt;Node2</title>
<g id="a_edge1_Node000001_Node000002"><a xlink:title=" ">
<path fill="none" stroke="#63b8ff" d="M222.56,-279.65C217.74,-270.76 210.8,-256.86 206.88,-244 196.41,-209.69 191.48,-168.06 189.34,-143.65"/>
<polygon fill="#63b8ff" stroke="#63b8ff" points="192.84,-143.51 188.56,-133.81 185.87,-144.06 192.84,-143.51"/>
</a>
</g>
</g>
<!-- Node11 -->
<g id="Node000011" class="node">
<title>Node11</title>
<g id="a_Node000011"><a xlink:href="_animation_manager_8h.html" target="_top" xlink:title=" ">
<polygon fill="white" stroke="#666666" points="321.5,-244 216.25,-244 216.25,-224 321.5,-224 321.5,-244"/>
<text text-anchor="middle" x="268.88" y="-230.5" font-family="Helvetica,sans-Serif" font-size="10.00">AnimationManager.h</text>
</a>
</g>
</g>
<!-- Node1&#45;&gt;Node11 -->
<g id="edge11_Node000001_Node000011" class="edge">
<title>Node1&#45;&gt;Node11</title>
<g id="a_edge11_Node000001_Node000011"><a xlink:title=" ">
<path fill="none" stroke="#63b8ff" d="M235.02,-279.59C240.48,-272.39 248.2,-262.23 254.88,-253.43"/>
<polygon fill="#63b8ff" stroke="#63b8ff" points="257.64,-255.58 260.9,-245.5 252.07,-251.35 257.64,-255.58"/>
</a>
</g>
</g>
<!-- Node3 -->
<g id="Node000003" class="node">
<title>Node3</title>
<g id="a_Node000003"><a xlink:title=" ">
<polygon fill="#e0e0e0" stroke="#999999" points="43.75,-76 0,-76 0,-56 43.75,-56 43.75,-76"/>
<text text-anchor="middle" x="21.88" y="-62.5" font-family="Helvetica,sans-Serif" font-size="10.00">SDL.h</text>
</a>
</g>
</g>
<!-- Node2&#45;&gt;Node3 -->
<g id="edge2_Node000002_Node000003" class="edge">
<title>Node2&#45;&gt;Node3</title>
<g id="a_edge2_Node000002_Node000003"><a xlink:title=" ">
<path fill="none" stroke="#63b8ff" d="M167.52,-114.38C139.36,-105.22 88.21,-88.58 54.64,-77.66"/>
<polygon fill="#63b8ff" stroke="#63b8ff" points="56.01,-74.43 45.42,-74.66 53.85,-81.08 56.01,-74.43"/>
</a>
</g>
</g>
<!-- Node4 -->
<g id="Node000004" class="node">
<title>Node4</title>
<g id="a_Node000004"><a xlink:title=" ">
<polygon fill="#e0e0e0" stroke="#999999" points="139.62,-76 62.12,-76 62.12,-56 139.62,-56 139.62,-76"/>
<text text-anchor="middle" x="100.88" y="-62.5" font-family="Helvetica,sans-Serif" font-size="10.00">SDL_opengl.h</text>
</a>
</g>
</g>
<!-- Node2&#45;&gt;Node4 -->
<g id="edge3_Node000002_Node000004" class="edge">
<title>Node2&#45;&gt;Node4</title>
<g id="a_edge3_Node000002_Node000004"><a xlink:title=" ">
<path fill="none" stroke="#63b8ff" d="M172.72,-111.59C159.83,-103.59 141.04,-91.93 125.92,-82.54"/>
<polygon fill="#63b8ff" stroke="#63b8ff" points="127.78,-79.58 117.43,-77.28 124.08,-85.53 127.78,-79.58"/>
</a>
</g>
</g>
<!-- Node5 -->
<g id="Node000005" class="node">
<title>Node5</title>
<g id="a_Node000005"><a xlink:title=" ">
<polygon fill="#e0e0e0" stroke="#999999" points="215.88,-76 157.88,-76 157.88,-56 215.88,-56 215.88,-76"/>
<text text-anchor="middle" x="186.88" y="-62.5" font-family="Helvetica,sans-Serif" font-size="10.00">SDL_ttf.h</text>
</a>
</g>
</g>
<!-- Node2&#45;&gt;Node5 -->
<g id="edge4_Node000002_Node000005" class="edge">
<title>Node2&#45;&gt;Node5</title>
<g id="a_edge4_Node000002_Node000005"><a xlink:title=" ">
<path fill="none" stroke="#63b8ff" d="M187.7,-111.59C187.58,-105.01 187.41,-95.96 187.26,-87.73"/>
<polygon fill="#63b8ff" stroke="#63b8ff" points="190.76,-87.75 187.08,-77.81 183.76,-87.87 190.76,-87.75"/>
</a>
</g>
</g>
<!-- Node6 -->
<g id="Node000006" class="node">
<title>Node6</title>
<g id="a_Node000006"><a xlink:title=" ">
<polygon fill="#e0e0e0" stroke="#999999" points="307.38,-76 234.38,-76 234.38,-56 307.38,-56 307.38,-76"/>
<text text-anchor="middle" x="270.88" y="-62.5" font-family="Helvetica,sans-Serif" font-size="10.00">SDL_mixer.h</text>
</a>
</g>
</g>
<!-- Node2&#45;&gt;Node6 -->
<g id="edge5_Node000002_Node000006" class="edge">
<title>Node2&#45;&gt;Node6</title>
<g id="a_edge5_Node000002_Node000006"><a xlink:title=" ">
<path fill="none" stroke="#63b8ff" d="M202.33,-111.59C214.63,-103.59 232.55,-91.93 246.98,-82.54"/>
<polygon fill="#63b8ff" stroke="#63b8ff" points="248.56,-85.69 255.04,-77.3 244.75,-79.82 248.56,-85.69"/>
</a>
</g>
</g>
<!-- Node7 -->
<g id="Node000007" class="node">
<title>Node7</title>
<g id="a_Node000007"><a xlink:title=" ">
<polygon fill="#e0e0e0" stroke="#999999" points="400.5,-76 325.25,-76 325.25,-56 400.5,-56 400.5,-76"/>
<text text-anchor="middle" x="362.88" y="-62.5" font-family="Helvetica,sans-Serif" font-size="10.00">SDL_image.h</text>
</a>
</g>
</g>
<!-- Node2&#45;&gt;Node7 -->
<g id="edge6_Node000002_Node000007" class="edge">
<title>Node2&#45;&gt;Node7</title>
<g id="a_edge6_Node000002_Node000007"><a xlink:title=" ">
<path fill="none" stroke="#63b8ff" d="M208.29,-114.7C235.99,-106.15 286.11,-90.69 321.76,-79.69"/>
<polygon fill="#63b8ff" stroke="#63b8ff" points="322.35,-83.17 330.88,-76.87 320.29,-76.48 322.35,-83.17"/>
</a>
</g>
</g>
<!-- Node8 -->
<g id="Node000008" class="node">
<title>Node8</title>
<g id="a_Node000008"><a xlink:href="structs_8h.html" target="_top" xlink:title=" ">
<polygon fill="white" stroke="#666666" points="473,-76 418.75,-76 418.75,-56 473,-56 473,-76"/>
<text text-anchor="middle" x="445.88" y="-62.5" font-family="Helvetica,sans-Serif" font-size="10.00">structs.h</text>
</a>
</g>
</g>
<!-- Node2&#45;&gt;Node8 -->
<g id="edge7_Node000002_Node000008" class="edge">
<title>Node2&#45;&gt;Node8</title>
<g id="a_edge7_Node000002_Node000008"><a xlink:title=" ">
<path fill="none" stroke="#63b8ff" d="M208.14,-117.21C245.5,-110.15 327.99,-94.26 407.23,-76.52"/>
<polygon fill="#63b8ff" stroke="#63b8ff" points="407.93,-79.95 416.91,-74.34 406.39,-73.12 407.93,-79.95"/>
</a>
</g>
</g>
<!-- Node9 -->
<g id="Node000009" class="node">
<title>Node9</title>
<g id="a_Node000009"><a xlink:title=" ">
<polygon fill="#e0e0e0" stroke="#999999" points="397.88,-20 357.88,-20 357.88,0 397.88,0 397.88,-20"/>
<text text-anchor="middle" x="377.88" y="-6.5" font-family="Helvetica,sans-Serif" font-size="10.00">string</text>
</a>
</g>
</g>
<!-- Node8&#45;&gt;Node9 -->
<g id="edge8_Node000008_Node000009" class="edge">
<title>Node8&#45;&gt;Node9</title>
<g id="a_edge8_Node000008_Node000009"><a xlink:title=" ">
<path fill="none" stroke="#63b8ff" d="M434.03,-55.59C424.18,-47.77 409.94,-36.46 398.27,-27.19"/>
<polygon fill="#63b8ff" stroke="#63b8ff" points="400.78,-24.72 390.77,-21.24 396.42,-30.2 400.78,-24.72"/>
</a>
</g>
</g>
<!-- Node10 -->
<g id="Node000010" class="node">
<title>Node10</title>
<g id="a_Node000010"><a xlink:href="_vector2f_8h.html" target="_top" xlink:title=" ">
<polygon fill="white" stroke="#666666" points="476,-20 415.75,-20 415.75,0 476,0 476,-20"/>
<text text-anchor="middle" x="445.88" y="-6.5" font-family="Helvetica,sans-Serif" font-size="10.00">Vector2f.h</text>
</a>
</g>
</g>
<!-- Node8&#45;&gt;Node10 -->
<g id="edge9_Node000008_Node000010" class="edge">
<title>Node8&#45;&gt;Node10</title>
<g id="a_edge9_Node000008_Node000010"><a xlink:title=" ">
<path fill="none" stroke="#63b8ff" d="M440.61,-55.59C439.29,-49.01 438.85,-39.96 439.29,-31.73"/>
<polygon fill="#63b8ff" stroke="#63b8ff" points="442.77,-32.14 440.45,-21.8 435.81,-31.33 442.77,-32.14"/>
</a>
</g>
</g>
<!-- Node10&#45;&gt;Node8 -->
<g id="edge10_Node000010_Node000008" class="edge">
<title>Node10&#45;&gt;Node8</title>
<g id="a_edge10_Node000010_Node000008"><a xlink:title=" ">
<path fill="none" stroke="#63b8ff" d="M451.12,-20.3C452.46,-26.93 452.91,-36.11 452.45,-44.43"/>
<polygon fill="#63b8ff" stroke="#63b8ff" points="449.01,-43.75 451.32,-54.09 455.96,-44.57 449.01,-43.75"/>
</a>
</g>
</g>
<!-- Node12 -->
<g id="Node000012" class="node">
<title>Node12</title>
<g id="a_Node000012"><a xlink:href="_texture_8h.html" target="_top" xlink:title=" ">
<polygon fill="white" stroke="#666666" points="297.12,-188 240.62,-188 240.62,-168 297.12,-168 297.12,-188"/>
<text text-anchor="middle" x="268.88" y="-174.5" font-family="Helvetica,sans-Serif" font-size="10.00">Texture.h</text>
</a>
</g>
</g>
<!-- Node11&#45;&gt;Node12 -->
<g id="edge12_Node000011_Node000012" class="edge">
<title>Node11&#45;&gt;Node12</title>
<g id="a_edge12_Node000011_Node000012"><a xlink:title=" ">
<path fill="none" stroke="#63b8ff" d="M268.88,-223.59C268.88,-217.01 268.88,-207.96 268.88,-199.73"/>
<polygon fill="#63b8ff" stroke="#63b8ff" points="272.38,-199.81 268.88,-189.81 265.38,-199.81 272.38,-199.81"/>
</a>
</g>
</g>
<!-- Node13 -->
<g id="Node000013" class="node">
<title>Node13</title>
<g id="a_Node000013"><a xlink:href="base_8h.html" target="_top" xlink:title=" ">
<polygon fill="white" stroke="#666666" points="291.5,-132 246.25,-132 246.25,-112 291.5,-112 291.5,-132"/>
<text text-anchor="middle" x="268.88" y="-118.5" font-family="Helvetica,sans-Serif" font-size="10.00">base.h</text>
</a>
</g>
</g>
<!-- Node12&#45;&gt;Node13 -->
<g id="edge13_Node000012_Node000013" class="edge">
<title>Node12&#45;&gt;Node13</title>
<g id="a_edge13_Node000012_Node000013"><a xlink:title=" ">
<path fill="none" stroke="#63b8ff" d="M268.88,-167.59C268.88,-161.01 268.88,-151.96 268.88,-143.73"/>
<polygon fill="#63b8ff" stroke="#63b8ff" points="272.38,-143.81 268.88,-133.81 265.38,-143.81 272.38,-143.81"/>
</a>
</g>
</g>
<!-- Node13&#45;&gt;Node3 -->
<g id="edge14_Node000013_Node000003" class="edge">
<title>Node13&#45;&gt;Node3</title>
<g id="a_edge14_Node000013_Node000003"><a xlink:title=" ">
<path fill="none" stroke="#63b8ff" d="M246.04,-116.84C208.34,-109.85 130.51,-94.89 55.25,-76.44"/>
<polygon fill="#63b8ff" stroke="#63b8ff" points="56.19,-73.07 45.64,-74.06 54.5,-79.86 56.19,-73.07"/>
</a>
</g>
</g>
<!-- Node13&#45;&gt;Node4 -->
<g id="edge15_Node000013_Node000004" class="edge">
<title>Node13&#45;&gt;Node4</title>
<g id="a_edge15_Node000013_Node000004"><a xlink:title=" ">
<path fill="none" stroke="#63b8ff" d="M245.87,-113.6C218.9,-104.94 173.74,-90.42 140.97,-79.89"/>
<polygon fill="#63b8ff" stroke="#63b8ff" points="142.41,-76.68 131.82,-76.95 140.27,-83.34 142.41,-76.68"/>
</a>
</g>
</g>
<!-- Node13&#45;&gt;Node5 -->
<g id="edge16_Node000013_Node000005" class="edge">
<title>Node13&#45;&gt;Node5</title>
<g id="a_edge16_Node000013_Node000005"><a xlink:title=" ">
<path fill="none" stroke="#63b8ff" d="M254.59,-111.59C242.44,-103.59 224.74,-91.93 210.48,-82.54"/>
<polygon fill="#63b8ff" stroke="#63b8ff" points="212.81,-79.89 202.53,-77.31 208.96,-85.73 212.81,-79.89"/>
</a>
</g>
</g>
<!-- Node13&#45;&gt;Node6 -->
<g id="edge17_Node000013_Node000006" class="edge">
<title>Node13&#45;&gt;Node6</title>
<g id="a_edge17_Node000013_Node000006"><a xlink:title=" ">
<path fill="none" stroke="#63b8ff" d="M269.22,-111.59C269.47,-105.01 269.8,-95.96 270.11,-87.73"/>
<polygon fill="#63b8ff" stroke="#63b8ff" points="273.6,-87.93 270.47,-77.81 266.61,-87.67 273.6,-87.93"/>
</a>
</g>
</g>
<!-- Node13&#45;&gt;Node7 -->
<g id="edge18_Node000013_Node000007" class="edge">
<title>Node13&#45;&gt;Node7</title>
<g id="a_edge18_Node000013_Node000007"><a xlink:title=" ">
<path fill="none" stroke="#63b8ff" d="M285.25,-111.59C299.45,-103.44 320.26,-91.48 336.76,-82"/>
<polygon fill="#63b8ff" stroke="#63b8ff" points="338.13,-85.25 345.06,-77.23 334.65,-79.18 338.13,-85.25"/>
</a>
</g>
</g>
<!-- Node13&#45;&gt;Node8 -->
<g id="edge19_Node000013_Node000008" class="edge">
<title>Node13&#45;&gt;Node8</title>
<g id="a_edge19_Node000013_Node000008"><a xlink:title=" ">
<path fill="none" stroke="#63b8ff" d="M291.65,-114.05C320.97,-105.11 372.34,-89.43 407.68,-78.65"/>
<polygon fill="#63b8ff" stroke="#63b8ff" points="408.55,-82.05 417.1,-75.78 406.51,-75.35 408.55,-82.05"/>
</a>
</g>
</g>
</g>
</svg>
