<?xml version="1.0" encoding="UTF-8" standalone="no"?>
<!DOCTYPE svg PUBLIC "-//W3C//DTD SVG 1.1//EN"
 "http://www.w3.org/Graphics/SVG/1.1/DTD/svg11.dtd">
<!-- Generated by graphviz version 12.2.1 (20241206.2353)
 -->
<!-- Title: Engine/BaseGame.cpp Pages: 1 -->
<svg width="541pt" height="196pt"
 viewBox="0.00 0.00 540.75 196.00" xmlns="http://www.w3.org/2000/svg" xmlns:xlink="http://www.w3.org/1999/xlink">
<g id="graph0" class="graph" transform="scale(1 1) rotate(0) translate(4 192)">
<title>Engine/BaseGame.cpp</title>
<!-- Node1 -->
<g id="Node000001" class="node">
<title>Node1</title>
<g id="a_Node000001"><a xlink:title=" ">
<polygon fill="#999999" stroke="#666666" points="349.25,-188 232.75,-188 232.75,-168 349.25,-168 349.25,-188"/>
<text text-anchor="middle" x="291" y="-174.5" font-family="Helvetica,sans-Serif" font-size="10.00">Engine/BaseGame.cpp</text>
</a>
</g>
</g>
<!-- Node2 -->
<g id="Node000002" class="node">
<title>Node2</title>
<g id="a_Node000002"><a xlink:href="base_8h.html" target="_top" xlink:title=" ">
<polygon fill="white" stroke="#666666" points="246.62,-132 201.38,-132 201.38,-112 246.62,-112 246.62,-132"/>
<text text-anchor="middle" x="224" y="-118.5" font-family="Helvetica,sans-Serif" font-size="10.00">base.h</text>
</a>
</g>
</g>
<!-- Node1&#45;&gt;Node2 -->
<g id="edge1_Node000001_Node000002" class="edge">
<title>Node1&#45;&gt;Node2</title>
<g id="a_edge1_Node000001_Node000002"><a xlink:title=" ">
<path fill="none" stroke="#63b8ff" d="M279.33,-167.59C269.72,-159.85 255.87,-148.69 244.43,-139.47"/>
<polygon fill="#63b8ff" stroke="#63b8ff" points="246.7,-136.8 236.72,-133.25 242.3,-142.25 246.7,-136.8"/>
</a>
</g>
</g>
<!-- Node11 -->
<g id="Node000011" class="node">
<title>Node11</title>
<g id="a_Node000011"><a xlink:title=" ">
<polygon fill="#e0e0e0" stroke="#999999" points="317.75,-132 264.25,-132 264.25,-112 317.75,-112 317.75,-132"/>
<text text-anchor="middle" x="291" y="-118.5" font-family="Helvetica,sans-Serif" font-size="10.00">iostream</text>
</a>
</g>
</g>
<!-- Node1&#45;&gt;Node11 -->
<g id="edge11_Node000001_Node000011" class="edge">
<title>Node1&#45;&gt;Node11</title>
<g id="a_edge11_Node000001_Node000011"><a xlink:title=" ">
<path fill="none" stroke="#63b8ff" d="M291,-167.59C291,-161.01 291,-151.96 291,-143.73"/>
<polygon fill="#63b8ff" stroke="#63b8ff" points="294.5,-143.81 291,-133.81 287.5,-143.81 294.5,-143.81"/>
</a>
</g>
</g>
<!-- Node12 -->
<g id="Node000012" class="node">
<title>Node12</title>
<g id="a_Node000012"><a xlink:title=" ">
<polygon fill="#e0e0e0" stroke="#999999" points="391.88,-132 336.12,-132 336.12,-112 391.88,-112 391.88,-132"/>
<text text-anchor="middle" x="364" y="-118.5" font-family="Helvetica,sans-Serif" font-size="10.00">algorithm</text>
</a>
</g>
</g>
<!-- Node1&#45;&gt;Node12 -->
<g id="edge12_Node000001_Node000012" class="edge">
<title>Node1&#45;&gt;Node12</title>
<g id="a_edge12_Node000001_Node000012"><a xlink:title=" ">
<path fill="none" stroke="#63b8ff" d="M303.72,-167.59C314.39,-159.7 329.88,-148.24 342.48,-138.92"/>
<polygon fill="#63b8ff" stroke="#63b8ff" points="344.26,-141.96 350.21,-133.2 340.09,-136.33 344.26,-141.96"/>
</a>
</g>
</g>
<!-- Node13 -->
<g id="Node000013" class="node">
<title>Node13</title>
<g id="a_Node000013"><a xlink:title=" ">
<polygon fill="#e0e0e0" stroke="#999999" points="455.62,-132 410.38,-132 410.38,-112 455.62,-112 455.62,-132"/>
<text text-anchor="middle" x="433" y="-118.5" font-family="Helvetica,sans-Serif" font-size="10.00">chrono</text>
</a>
</g>
</g>
<!-- Node1&#45;&gt;Node13 -->
<g id="edge13_Node000001_Node000013" class="edge">
<title>Node1&#45;&gt;Node13</title>
<g id="a_edge13_Node000001_Node000013"><a xlink:title=" ">
<path fill="none" stroke="#63b8ff" d="M315.73,-167.59C338.85,-158.8 373.56,-145.6 399.23,-135.84"/>
<polygon fill="#63b8ff" stroke="#63b8ff" points="400.44,-139.13 408.54,-132.3 397.95,-132.58 400.44,-139.13"/>
</a>
</g>
</g>
<!-- Node14 -->
<g id="Node000014" class="node">
<title>Node14</title>
<g id="a_Node000014"><a xlink:href="_base_game_8h.html" target="_top" xlink:title=" ">
<polygon fill="white" stroke="#666666" points="154.5,-132 81.5,-132 81.5,-112 154.5,-112 154.5,-132"/>
<text text-anchor="middle" x="118" y="-118.5" font-family="Helvetica,sans-Serif" font-size="10.00">BaseGame.h</text>
</a>
</g>
</g>
<!-- Node1&#45;&gt;Node14 -->
<g id="edge14_Node000001_Node000014" class="edge">
<title>Node1&#45;&gt;Node14</title>
<g id="a_edge14_Node000001_Node000014"><a xlink:title=" ">
<path fill="none" stroke="#63b8ff" d="M260.87,-167.59C232.76,-158.82 190.59,-145.66 159.34,-135.9"/>
<polygon fill="#63b8ff" stroke="#63b8ff" points="160.4,-132.57 149.81,-132.93 158.32,-139.25 160.4,-132.57"/>
</a>
</g>
</g>
<!-- Node3 -->
<g id="Node000003" class="node">
<title>Node3</title>
<g id="a_Node000003"><a xlink:title=" ">
<polygon fill="#e0e0e0" stroke="#999999" points="176.88,-76 133.12,-76 133.12,-56 176.88,-56 176.88,-76"/>
<text text-anchor="middle" x="155" y="-62.5" font-family="Helvetica,sans-Serif" font-size="10.00">SDL.h</text>
</a>
</g>
</g>
<!-- Node2&#45;&gt;Node3 -->
<g id="edge2_Node000002_Node000003" class="edge">
<title>Node2&#45;&gt;Node3</title>
<g id="a_edge2_Node000002_Node000003"><a xlink:title=" ">
<path fill="none" stroke="#63b8ff" d="M211.98,-111.59C201.99,-103.77 187.54,-92.46 175.69,-83.19"/>
<polygon fill="#63b8ff" stroke="#63b8ff" points="178.11,-80.64 168.07,-77.23 173.79,-86.15 178.11,-80.64"/>
</a>
</g>
</g>
<!-- Node4 -->
<g id="Node000004" class="node">
<title>Node4</title>
<g id="a_Node000004"><a xlink:title=" ">
<polygon fill="#e0e0e0" stroke="#999999" points="532.75,-76 455.25,-76 455.25,-56 532.75,-56 532.75,-76"/>
<text text-anchor="middle" x="494" y="-62.5" font-family="Helvetica,sans-Serif" font-size="10.00">SDL_opengl.h</text>
</a>
</g>
</g>
<!-- Node2&#45;&gt;Node4 -->
<g id="edge3_Node000002_Node000004" class="edge">
<title>Node2&#45;&gt;Node4</title>
<g id="a_edge3_Node000002_Node000004"><a xlink:title=" ">
<path fill="none" stroke="#63b8ff" d="M246.96,-114.07C249.66,-113.33 252.38,-112.62 255,-112 335.99,-92.7 359.77,-92.17 443.66,-76.61"/>
<polygon fill="#63b8ff" stroke="#63b8ff" points="444.09,-80.09 453.28,-74.8 442.8,-73.21 444.09,-80.09"/>
</a>
</g>
</g>
<!-- Node5 -->
<g id="Node000005" class="node">
<title>Node5</title>
<g id="a_Node000005"><a xlink:title=" ">
<polygon fill="#e0e0e0" stroke="#999999" points="253,-76 195,-76 195,-56 253,-56 253,-76"/>
<text text-anchor="middle" x="224" y="-62.5" font-family="Helvetica,sans-Serif" font-size="10.00">SDL_ttf.h</text>
</a>
</g>
</g>
<!-- Node2&#45;&gt;Node5 -->
<g id="edge4_Node000002_Node000005" class="edge">
<title>Node2&#45;&gt;Node5</title>
<g id="a_edge4_Node000002_Node000005"><a xlink:title=" ">
<path fill="none" stroke="#63b8ff" d="M224,-111.59C224,-105.01 224,-95.96 224,-87.73"/>
<polygon fill="#63b8ff" stroke="#63b8ff" points="227.5,-87.81 224,-77.81 220.5,-87.81 227.5,-87.81"/>
</a>
</g>
</g>
<!-- Node6 -->
<g id="Node000006" class="node">
<title>Node6</title>
<g id="a_Node000006"><a xlink:title=" ">
<polygon fill="#e0e0e0" stroke="#999999" points="344.5,-76 271.5,-76 271.5,-56 344.5,-56 344.5,-76"/>
<text text-anchor="middle" x="308" y="-62.5" font-family="Helvetica,sans-Serif" font-size="10.00">SDL_mixer.h</text>
</a>
</g>
</g>
<!-- Node2&#45;&gt;Node6 -->
<g id="edge5_Node000002_Node000006" class="edge">
<title>Node2&#45;&gt;Node6</title>
<g id="a_edge5_Node000002_Node000006"><a xlink:title=" ">
<path fill="none" stroke="#63b8ff" d="M238.63,-111.59C251.08,-103.59 269.22,-91.93 283.82,-82.54"/>
<polygon fill="#63b8ff" stroke="#63b8ff" points="285.46,-85.65 291.98,-77.3 281.68,-79.76 285.46,-85.65"/>
</a>
</g>
</g>
<!-- Node7 -->
<g id="Node000007" class="node">
<title>Node7</title>
<g id="a_Node000007"><a xlink:title=" ">
<polygon fill="#e0e0e0" stroke="#999999" points="437.62,-76 362.38,-76 362.38,-56 437.62,-56 437.62,-76"/>
<text text-anchor="middle" x="400" y="-62.5" font-family="Helvetica,sans-Serif" font-size="10.00">SDL_image.h</text>
</a>
</g>
</g>
<!-- Node2&#45;&gt;Node7 -->
<g id="edge6_Node000002_Node000007" class="edge">
<title>Node2&#45;&gt;Node7</title>
<g id="a_edge6_Node000002_Node000007"><a xlink:title=" ">
<path fill="none" stroke="#63b8ff" d="M247.01,-113.94C275.26,-105.27 323.7,-90.41 358.51,-79.73"/>
<polygon fill="#63b8ff" stroke="#63b8ff" points="359.31,-83.14 367.85,-76.87 357.26,-76.45 359.31,-83.14"/>
</a>
</g>
</g>
<!-- Node8 -->
<g id="Node000008" class="node">
<title>Node8</title>
<g id="a_Node000008"><a xlink:href="structs_8h.html" target="_top" xlink:title=" ">
<polygon fill="white" stroke="#666666" points="115.12,-76 60.88,-76 60.88,-56 115.12,-56 115.12,-76"/>
<text text-anchor="middle" x="88" y="-62.5" font-family="Helvetica,sans-Serif" font-size="10.00">structs.h</text>
</a>
</g>
</g>
<!-- Node2&#45;&gt;Node8 -->
<g id="edge7_Node000002_Node000008" class="edge">
<title>Node2&#45;&gt;Node8</title>
<g id="a_edge7_Node000002_Node000008"><a xlink:title=" ">
<path fill="none" stroke="#63b8ff" d="M200.93,-111.84C179.37,-103.28 146.92,-90.39 122.32,-80.63"/>
<polygon fill="#63b8ff" stroke="#63b8ff" points="123.63,-77.38 113.05,-76.95 121.05,-83.89 123.63,-77.38"/>
</a>
</g>
</g>
<!-- Node9 -->
<g id="Node000009" class="node">
<title>Node9</title>
<g id="a_Node000009"><a xlink:title=" ">
<polygon fill="#e0e0e0" stroke="#999999" points="40,-20 0,-20 0,0 40,0 40,-20"/>
<text text-anchor="middle" x="20" y="-6.5" font-family="Helvetica,sans-Serif" font-size="10.00">string</text>
</a>
</g>
</g>
<!-- Node8&#45;&gt;Node9 -->
<g id="edge8_Node000008_Node000009" class="edge">
<title>Node8&#45;&gt;Node9</title>
<g id="a_edge8_Node000008_Node000009"><a xlink:title=" ">
<path fill="none" stroke="#63b8ff" d="M76.16,-55.59C66.31,-47.77 52.07,-36.46 40.39,-27.19"/>
<polygon fill="#63b8ff" stroke="#63b8ff" points="42.9,-24.72 32.89,-21.24 38.55,-30.2 42.9,-24.72"/>
</a>
</g>
</g>
<!-- Node10 -->
<g id="Node000010" class="node">
<title>Node10</title>
<g id="a_Node000010"><a xlink:href="_vector2f_8h.html" target="_top" xlink:title=" ">
<polygon fill="white" stroke="#666666" points="118.12,-20 57.88,-20 57.88,0 118.12,0 118.12,-20"/>
<text text-anchor="middle" x="88" y="-6.5" font-family="Helvetica,sans-Serif" font-size="10.00">Vector2f.h</text>
</a>
</g>
</g>
<!-- Node8&#45;&gt;Node10 -->
<g id="edge9_Node000008_Node000010" class="edge">
<title>Node8&#45;&gt;Node10</title>
<g id="a_edge9_Node000008_Node000010"><a xlink:title=" ">
<path fill="none" stroke="#63b8ff" d="M82.73,-55.59C81.42,-49.01 80.98,-39.96 81.41,-31.73"/>
<polygon fill="#63b8ff" stroke="#63b8ff" points="84.89,-32.14 82.58,-21.8 77.94,-31.33 84.89,-32.14"/>
</a>
</g>
</g>
<!-- Node10&#45;&gt;Node8 -->
<g id="edge10_Node000010_Node000008" class="edge">
<title>Node10&#45;&gt;Node8</title>
<g id="a_edge10_Node000010_Node000008"><a xlink:title=" ">
<path fill="none" stroke="#63b8ff" d="M93.25,-20.3C94.59,-26.93 95.03,-36.11 94.58,-44.43"/>
<polygon fill="#63b8ff" stroke="#63b8ff" points="91.13,-43.75 93.44,-54.09 98.08,-44.57 91.13,-43.75"/>
</a>
</g>
</g>
<!-- Node14&#45;&gt;Node3 -->
<g id="edge16_Node000014_Node000003" class="edge">
<title>Node14&#45;&gt;Node3</title>
<g id="a_edge16_Node000014_Node000003"><a xlink:title=" ">
<path fill="none" stroke="#63b8ff" d="M124.44,-111.59C129.33,-104.47 136.19,-94.45 142.18,-85.72"/>
<polygon fill="#63b8ff" stroke="#63b8ff" points="145.01,-87.77 147.77,-77.55 139.23,-83.82 145.01,-87.77"/>
</a>
</g>
</g>
<!-- Node14&#45;&gt;Node8 -->
<g id="edge15_Node000014_Node000008" class="edge">
<title>Node14&#45;&gt;Node8</title>
<g id="a_edge15_Node000014_Node000008"><a xlink:title=" ">
<path fill="none" stroke="#63b8ff" d="M112.77,-111.59C108.9,-104.63 103.49,-94.89 98.72,-86.29"/>
<polygon fill="#63b8ff" stroke="#63b8ff" points="101.82,-84.66 93.9,-77.62 95.7,-88.06 101.82,-84.66"/>
</a>
</g>
</g>
<!-- Node15 -->
<g id="Node000015" class="node">
<title>Node15</title>
<g id="a_Node000015"><a xlink:title=" ">
<polygon fill="#e0e0e0" stroke="#999999" points="42.38,-76 7.62,-76 7.62,-56 42.38,-56 42.38,-76"/>
<text text-anchor="middle" x="25" y="-62.5" font-family="Helvetica,sans-Serif" font-size="10.00">map</text>
</a>
</g>
</g>
<!-- Node14&#45;&gt;Node15 -->
<g id="edge17_Node000014_Node000015" class="edge">
<title>Node14&#45;&gt;Node15</title>
<g id="a_edge17_Node000014_Node000015"><a xlink:title=" ">
<path fill="none" stroke="#63b8ff" d="M101.8,-111.59C87.75,-103.44 67.17,-91.48 50.84,-82"/>
<polygon fill="#63b8ff" stroke="#63b8ff" points="53.04,-79.23 42.63,-77.24 49.53,-85.29 53.04,-79.23"/>
</a>
</g>
</g>
</g>
</svg>
