<?xml version="1.0" encoding="UTF-8" standalone="no"?>
<!DOCTYPE svg PUBLIC "-//W3C//DTD SVG 1.1//EN"
 "http://www.w3.org/Graphics/SVG/1.1/DTD/svg11.dtd">
<!-- Generated by graphviz version 12.2.1 (20241206.2353)
 -->
<!-- Title: Engine/BaseGame.h Pages: 1 -->
<svg width="237pt" height="140pt"
 viewBox="0.00 0.00 237.38 140.00" xmlns="http://www.w3.org/2000/svg" xmlns:xlink="http://www.w3.org/1999/xlink">
<g id="graph0" class="graph" transform="scale(1 1) rotate(0) translate(4 136)">
<title>Engine/BaseGame.h</title>
<!-- Node1 -->
<g id="Node000001" class="node">
<title>Node1</title>
<g id="a_Node000001"><a xlink:title=" ">
<polygon fill="#999999" stroke="#666666" points="208,-132 102,-132 102,-112 208,-112 208,-132"/>
<text text-anchor="middle" x="155" y="-118.5" font-family="Helvetica,sans-Serif" font-size="10.00">Engine/BaseGame.h</text>
</a>
</g>
</g>
<!-- Node2 -->
<g id="Node000002" class="node">
<title>Node2</title>
<g id="a_Node000002"><a xlink:href="structs_8h.html" target="_top" xlink:title=" ">
<polygon fill="white" stroke="#666666" points="115.12,-76 60.88,-76 60.88,-56 115.12,-56 115.12,-76"/>
<text text-anchor="middle" x="88" y="-62.5" font-family="Helvetica,sans-Serif" font-size="10.00">structs.h</text>
</a>
</g>
</g>
<!-- Node1&#45;&gt;Node2 -->
<g id="edge1_Node000001_Node000002" class="edge">
<title>Node1&#45;&gt;Node2</title>
<g id="a_edge1_Node000001_Node000002"><a xlink:title=" ">
<path fill="none" stroke="#63b8ff" d="M143.33,-111.59C133.72,-103.85 119.87,-92.69 108.43,-83.47"/>
<polygon fill="#63b8ff" stroke="#63b8ff" points="110.7,-80.8 100.72,-77.25 106.3,-86.25 110.7,-80.8"/>
</a>
</g>
</g>
<!-- Node5 -->
<g id="Node000005" class="node">
<title>Node5</title>
<g id="a_Node000005"><a xlink:title=" ">
<polygon fill="#e0e0e0" stroke="#999999" points="176.88,-76 133.12,-76 133.12,-56 176.88,-56 176.88,-76"/>
<text text-anchor="middle" x="155" y="-62.5" font-family="Helvetica,sans-Serif" font-size="10.00">SDL.h</text>
</a>
</g>
</g>
<!-- Node1&#45;&gt;Node5 -->
<g id="edge5_Node000001_Node000005" class="edge">
<title>Node1&#45;&gt;Node5</title>
<g id="a_edge5_Node000001_Node000005"><a xlink:title=" ">
<path fill="none" stroke="#63b8ff" d="M155,-111.59C155,-105.01 155,-95.96 155,-87.73"/>
<polygon fill="#63b8ff" stroke="#63b8ff" points="158.5,-87.81 155,-77.81 151.5,-87.81 158.5,-87.81"/>
</a>
</g>
</g>
<!-- Node6 -->
<g id="Node000006" class="node">
<title>Node6</title>
<g id="a_Node000006"><a xlink:title=" ">
<polygon fill="#e0e0e0" stroke="#999999" points="229.38,-76 194.62,-76 194.62,-56 229.38,-56 229.38,-76"/>
<text text-anchor="middle" x="212" y="-62.5" font-family="Helvetica,sans-Serif" font-size="10.00">map</text>
</a>
</g>
</g>
<!-- Node1&#45;&gt;Node6 -->
<g id="edge6_Node000001_Node000006" class="edge">
<title>Node1&#45;&gt;Node6</title>
<g id="a_edge6_Node000001_Node000006"><a xlink:title=" ">
<path fill="none" stroke="#63b8ff" d="M164.93,-111.59C172.94,-104.01 184.42,-93.13 194.03,-84.02"/>
<polygon fill="#63b8ff" stroke="#63b8ff" points="196.23,-86.76 201.09,-77.34 191.42,-81.68 196.23,-86.76"/>
</a>
</g>
</g>
<!-- Node3 -->
<g id="Node000003" class="node">
<title>Node3</title>
<g id="a_Node000003"><a xlink:title=" ">
<polygon fill="#e0e0e0" stroke="#999999" points="40,-20 0,-20 0,0 40,0 40,-20"/>
<text text-anchor="middle" x="20" y="-6.5" font-family="Helvetica,sans-Serif" font-size="10.00">string</text>
</a>
</g>
</g>
<!-- Node2&#45;&gt;Node3 -->
<g id="edge2_Node000002_Node000003" class="edge">
<title>Node2&#45;&gt;Node3</title>
<g id="a_edge2_Node000002_Node000003"><a xlink:title=" ">
<path fill="none" stroke="#63b8ff" d="M76.16,-55.59C66.31,-47.77 52.07,-36.46 40.39,-27.19"/>
<polygon fill="#63b8ff" stroke="#63b8ff" points="42.9,-24.72 32.89,-21.24 38.55,-30.2 42.9,-24.72"/>
</a>
</g>
</g>
<!-- Node4 -->
<g id="Node000004" class="node">
<title>Node4</title>
<g id="a_Node000004"><a xlink:href="_vector2f_8h.html" target="_top" xlink:title=" ">
<polygon fill="white" stroke="#666666" points="118.12,-20 57.88,-20 57.88,0 118.12,0 118.12,-20"/>
<text text-anchor="middle" x="88" y="-6.5" font-family="Helvetica,sans-Serif" font-size="10.00">Vector2f.h</text>
</a>
</g>
</g>
<!-- Node2&#45;&gt;Node4 -->
<g id="edge3_Node000002_Node000004" class="edge">
<title>Node2&#45;&gt;Node4</title>
<g id="a_edge3_Node000002_Node000004"><a xlink:title=" ">
<path fill="none" stroke="#63b8ff" d="M82.73,-55.59C81.42,-49.01 80.98,-39.96 81.41,-31.73"/>
<polygon fill="#63b8ff" stroke="#63b8ff" points="84.89,-32.14 82.58,-21.8 77.94,-31.33 84.89,-32.14"/>
</a>
</g>
</g>
<!-- Node4&#45;&gt;Node2 -->
<g id="edge4_Node000004_Node000002" class="edge">
<title>Node4&#45;&gt;Node2</title>
<g id="a_edge4_Node000004_Node000002"><a xlink:title=" ">
<path fill="none" stroke="#63b8ff" d="M93.25,-20.3C94.59,-26.93 95.03,-36.11 94.58,-44.43"/>
<polygon fill="#63b8ff" stroke="#63b8ff" points="91.13,-43.75 93.44,-54.09 98.08,-44.57 91.13,-43.75"/>
</a>
</g>
</g>
</g>
</svg>
