<?xml version="1.0" encoding="UTF-8" standalone="no"?>
<!DOCTYPE svg PUBLIC "-//W3C//DTD SVG 1.1//EN"
 "http://www.w3.org/Graphics/SVG/1.1/DTD/svg11.dtd">
<!-- Generated by graphviz version 12.2.1 (20241206.2353)
 -->
<!-- Title: Celeste/ChapterLoader.h Pages: 1 -->
<svg width="1009pt" height="700pt"
 viewBox="0.00 0.00 1008.69 700.00" xmlns="http://www.w3.org/2000/svg" xmlns:xlink="http://www.w3.org/1999/xlink">
<g id="graph0" class="graph" transform="scale(1 1) rotate(0) translate(4 696)">
<title>Celeste/ChapterLoader.h</title>
<!-- Node1 -->
<g id="Node000001" class="node">
<title>Node1</title>
<g id="a_Node000001"><a xlink:title=" ">
<polygon fill="#999999" stroke="#666666" points="698.06,-692 573.31,-692 573.31,-672 698.06,-672 698.06,-692"/>
<text text-anchor="middle" x="635.69" y="-678.5" font-family="Helvetica,sans-Serif" font-size="10.00">Celeste/ChapterLoader.h</text>
</a>
</g>
</g>
<!-- Node2 -->
<g id="Node000002" class="node">
<title>Node2</title>
<g id="a_Node000002"><a xlink:href="_interactable_item_8h.html" target="_top" xlink:title=" ">
<polygon fill="white" stroke="#666666" points="749.06,-468 654.31,-468 654.31,-448 749.06,-448 749.06,-468"/>
<text text-anchor="middle" x="701.69" y="-454.5" font-family="Helvetica,sans-Serif" font-size="10.00">InteractableItem.h</text>
</a>
</g>
</g>
<!-- Node1&#45;&gt;Node2 -->
<g id="edge1_Node000001_Node000002" class="edge">
<title>Node1&#45;&gt;Node2</title>
<g id="a_edge1_Node000001_Node000002"><a xlink:title=" ">
<path fill="none" stroke="#63b8ff" d="M698.29,-677.24C762.45,-669.65 859.19,-647.03 905.69,-580 922.26,-556.11 892.43,-514.56 879.69,-504 846.43,-476.45 798.52,-465.46 760.78,-461.21"/>
<polygon fill="#63b8ff" stroke="#63b8ff" points="761.22,-457.74 750.93,-460.25 760.54,-464.7 761.22,-457.74"/>
</a>
</g>
</g>
<!-- Node18 -->
<g id="Node000018" class="node">
<title>Node18</title>
<g id="a_Node000018"><a xlink:title=" ">
<polygon fill="#e0e0e0" stroke="#999999" points="584.19,-188 541.19,-188 541.19,-168 584.19,-168 584.19,-188"/>
<text text-anchor="middle" x="562.69" y="-174.5" font-family="Helvetica,sans-Serif" font-size="10.00">vector</text>
</a>
</g>
</g>
<!-- Node1&#45;&gt;Node18 -->
<g id="edge72_Node000001_Node000018" class="edge">
<title>Node1&#45;&gt;Node18</title>
<g id="a_edge72_Node000001_Node000018"><a xlink:title=" ">
<path fill="none" stroke="#63b8ff" d="M572.94,-674.13C499.11,-663.63 375.28,-638.28 285.69,-580 215.44,-534.3 220.69,-486.8 220.69,-403 220.69,-403 220.69,-403 220.69,-289 220.69,-258.9 216.91,-243.67 239.69,-224 282.61,-186.93 456.18,-180.32 529.61,-179.2"/>
<polygon fill="#63b8ff" stroke="#63b8ff" points="529.44,-182.7 539.39,-179.08 529.35,-175.7 529.44,-182.7"/>
</a>
</g>
</g>
<!-- Node28 -->
<g id="Node000028" class="node">
<title>Node28</title>
<g id="a_Node000028"><a xlink:href="_chapter_info_8h.html" target="_top" xlink:title=" ">
<polygon fill="white" stroke="#666666" points="673.31,-636 598.06,-636 598.06,-616 673.31,-616 673.31,-636"/>
<text text-anchor="middle" x="635.69" y="-622.5" font-family="Helvetica,sans-Serif" font-size="10.00">ChapterInfo.h</text>
</a>
</g>
</g>
<!-- Node1&#45;&gt;Node28 -->
<g id="edge42_Node000001_Node000028" class="edge">
<title>Node1&#45;&gt;Node28</title>
<g id="a_edge42_Node000001_Node000028"><a xlink:title=" ">
<path fill="none" stroke="#63b8ff" d="M635.69,-671.59C635.69,-665.01 635.69,-655.96 635.69,-647.73"/>
<polygon fill="#63b8ff" stroke="#63b8ff" points="639.19,-647.81 635.69,-637.81 632.19,-647.81 639.19,-647.81"/>
</a>
</g>
</g>
<!-- Node3 -->
<g id="Node000003" class="node">
<title>Node3</title>
<g id="a_Node000003"><a xlink:href="_character_8h.html" target="_top" xlink:title=" ">
<polygon fill="white" stroke="#666666" points="711.19,-412 644.19,-412 644.19,-392 711.19,-392 711.19,-412"/>
<text text-anchor="middle" x="677.69" y="-398.5" font-family="Helvetica,sans-Serif" font-size="10.00">Character.h</text>
</a>
</g>
</g>
<!-- Node2&#45;&gt;Node3 -->
<g id="edge2_Node000002_Node000003" class="edge">
<title>Node2&#45;&gt;Node3</title>
<g id="a_edge2_Node000002_Node000003"><a xlink:title=" ">
<path fill="none" stroke="#63b8ff" d="M697.51,-447.59C694.44,-440.7 690.18,-431.1 686.39,-422.57"/>
<polygon fill="#63b8ff" stroke="#63b8ff" points="689.69,-421.4 682.43,-413.68 683.3,-424.24 689.69,-421.4"/>
</a>
</g>
</g>
<!-- Node4 -->
<g id="Node000004" class="node">
<title>Node4</title>
<g id="a_Node000004"><a xlink:href="_character_controller_8h.html" target="_top" xlink:title=" ">
<polygon fill="white" stroke="#666666" points="486.19,-356 377.19,-356 377.19,-336 486.19,-336 486.19,-356"/>
<text text-anchor="middle" x="431.69" y="-342.5" font-family="Helvetica,sans-Serif" font-size="10.00">CharacterController.h</text>
</a>
</g>
</g>
<!-- Node3&#45;&gt;Node4 -->
<g id="edge3_Node000003_Node000004" class="edge">
<title>Node3&#45;&gt;Node4</title>
<g id="a_edge3_Node000003_Node000004"><a xlink:title=" ">
<path fill="none" stroke="#63b8ff" d="M643.74,-393.55C602.98,-384.6 534.11,-369.48 485.95,-358.91"/>
<polygon fill="#63b8ff" stroke="#63b8ff" points="486.79,-355.51 476.27,-356.79 485.29,-362.35 486.79,-355.51"/>
</a>
</g>
</g>
<!-- Node19 -->
<g id="Node000019" class="node">
<title>Node19</title>
<g id="a_Node000019"><a xlink:href="_hair_8h.html" target="_top" xlink:title=" ">
<polygon fill="white" stroke="#666666" points="192.81,-244 150.56,-244 150.56,-224 192.81,-224 192.81,-244"/>
<text text-anchor="middle" x="171.69" y="-230.5" font-family="Helvetica,sans-Serif" font-size="10.00">Hair.h</text>
</a>
</g>
</g>
<!-- Node3&#45;&gt;Node19 -->
<g id="edge22_Node000003_Node000019" class="edge">
<title>Node3&#45;&gt;Node19</title>
<g id="a_edge22_Node000003_Node000019"><a xlink:title=" ">
<path fill="none" stroke="#63b8ff" d="M644.15,-400.51C586.24,-398.72 464.51,-390.73 368.69,-356 298.62,-330.61 226.56,-278.4 192.26,-251.63"/>
<polygon fill="#63b8ff" stroke="#63b8ff" points="194.44,-248.89 184.43,-245.43 190.1,-254.38 194.44,-248.89"/>
</a>
</g>
</g>
<!-- Node21 -->
<g id="Node000021" class="node">
<title>Node21</title>
<g id="a_Node000021"><a xlink:href="_character_texture_manager_8h.html" target="_top" xlink:title=" ">
<polygon fill="white" stroke="#666666" points="722.06,-356 585.31,-356 585.31,-336 722.06,-336 722.06,-356"/>
<text text-anchor="middle" x="653.69" y="-342.5" font-family="Helvetica,sans-Serif" font-size="10.00">CharacterTextureManager.h</text>
</a>
</g>
</g>
<!-- Node3&#45;&gt;Node21 -->
<g id="edge27_Node000003_Node000021" class="edge">
<title>Node3&#45;&gt;Node21</title>
<g id="a_edge27_Node000003_Node000021"><a xlink:title=" ">
<path fill="none" stroke="#63b8ff" d="M673.51,-391.59C670.44,-384.7 666.18,-375.1 662.39,-366.57"/>
<polygon fill="#63b8ff" stroke="#63b8ff" points="665.69,-365.4 658.43,-357.68 659.3,-368.24 665.69,-365.4"/>
</a>
</g>
</g>
<!-- Node24 -->
<g id="Node000024" class="node">
<title>Node24</title>
<g id="a_Node000024"><a xlink:href="_character_state_8h.html" target="_top" xlink:title=" ">
<polygon fill="white" stroke="#666666" points="784.81,-300 694.56,-300 694.56,-280 784.81,-280 784.81,-300"/>
<text text-anchor="middle" x="739.69" y="-286.5" font-family="Helvetica,sans-Serif" font-size="10.00">CharacterState.h</text>
</a>
</g>
</g>
<!-- Node3&#45;&gt;Node24 -->
<g id="edge34_Node000003_Node000024" class="edge">
<title>Node3&#45;&gt;Node24</title>
<g id="a_edge34_Node000003_Node000024"><a xlink:title=" ">
<path fill="none" stroke="#63b8ff" d="M694.19,-391.61C706.38,-383.74 722.26,-371.34 730.69,-356 738.08,-342.53 740.19,-325.21 740.52,-311.83"/>
<polygon fill="#63b8ff" stroke="#63b8ff" points="744.02,-311.95 740.42,-301.99 737.02,-312.02 744.02,-311.95"/>
</a>
</g>
</g>
<!-- Node25 -->
<g id="Node000025" class="node">
<title>Node25</title>
<g id="a_Node000025"><a xlink:href="_character_sound_manager_8h.html" target="_top" xlink:title=" ">
<polygon fill="white" stroke="#666666" points="972.81,-356 840.56,-356 840.56,-336 972.81,-336 972.81,-356"/>
<text text-anchor="middle" x="906.69" y="-342.5" font-family="Helvetica,sans-Serif" font-size="10.00">CharacterSoundManager.h</text>
</a>
</g>
</g>
<!-- Node3&#45;&gt;Node25 -->
<g id="edge35_Node000003_Node000025" class="edge">
<title>Node3&#45;&gt;Node25</title>
<g id="a_edge35_Node000003_Node000025"><a xlink:title=" ">
<path fill="none" stroke="#63b8ff" d="M711.48,-393.03C749.48,-384.07 811.6,-369.42 855.55,-359.06"/>
<polygon fill="#63b8ff" stroke="#63b8ff" points="856.18,-362.51 865.11,-356.8 854.58,-355.69 856.18,-362.51"/>
</a>
</g>
</g>
<!-- Node5 -->
<g id="Node000005" class="node">
<title>Node5</title>
<g id="a_Node000005"><a xlink:href="_game_object_8h.html" target="_top" xlink:title=" ">
<polygon fill="white" stroke="#666666" points="154.19,-300 75.19,-300 75.19,-280 154.19,-280 154.19,-300"/>
<text text-anchor="middle" x="114.69" y="-286.5" font-family="Helvetica,sans-Serif" font-size="10.00">GameObject.h</text>
</a>
</g>
</g>
<!-- Node4&#45;&gt;Node5 -->
<g id="edge4_Node000004_Node000005" class="edge">
<title>Node4&#45;&gt;Node5</title>
<g id="a_edge4_Node000004_Node000005"><a xlink:title=" ">
<path fill="none" stroke="#63b8ff" d="M376.83,-335.66C317.36,-325.52 223.21,-309.49 165.41,-299.64"/>
<polygon fill="#63b8ff" stroke="#63b8ff" points="166.29,-296.24 155.84,-298.01 165.11,-303.14 166.29,-296.24"/>
</a>
</g>
</g>
<!-- Node16 -->
<g id="Node000016" class="node">
<title>Node16</title>
<g id="a_Node000016"><a xlink:href="_vector2x2f_8h.html" target="_top" xlink:title=" ">
<polygon fill="white" stroke="#666666" points="435.06,-300 364.31,-300 364.31,-280 435.06,-280 435.06,-300"/>
<text text-anchor="middle" x="399.69" y="-286.5" font-family="Helvetica,sans-Serif" font-size="10.00">Vector2x2f.h</text>
</a>
</g>
</g>
<!-- Node4&#45;&gt;Node16 -->
<g id="edge17_Node000004_Node000016" class="edge">
<title>Node4&#45;&gt;Node16</title>
<g id="a_edge17_Node000004_Node000016"><a xlink:title=" ">
<path fill="none" stroke="#63b8ff" d="M426.11,-335.59C421.94,-328.55 416.08,-318.67 410.95,-310"/>
<polygon fill="#63b8ff" stroke="#63b8ff" points="414.08,-308.42 405.97,-301.6 408.06,-311.99 414.08,-308.42"/>
</a>
</g>
</g>
<!-- Node4&#45;&gt;Node18 -->
<g id="edge21_Node000004_Node000018" class="edge">
<title>Node4&#45;&gt;Node18</title>
<g id="a_edge21_Node000004_Node000018"><a xlink:title=" ">
<path fill="none" stroke="#63b8ff" d="M438.94,-335.73C448.81,-323.11 467.06,-299.83 482.69,-280 505.54,-251.02 532.17,-217.44 548.21,-197.23"/>
<polygon fill="#63b8ff" stroke="#63b8ff" points="550.75,-199.65 554.23,-189.64 545.27,-195.3 550.75,-199.65"/>
</a>
</g>
</g>
<!-- Node6 -->
<g id="Node000006" class="node">
<title>Node6</title>
<g id="a_Node000006"><a xlink:href="_transform_8h.html" target="_top" xlink:title=" ">
<polygon fill="white" stroke="#666666" points="160.94,-188 92.44,-188 92.44,-168 160.94,-168 160.94,-188"/>
<text text-anchor="middle" x="126.69" y="-174.5" font-family="Helvetica,sans-Serif" font-size="10.00">Transform.h</text>
</a>
</g>
</g>
<!-- Node5&#45;&gt;Node6 -->
<g id="edge5_Node000005_Node000006" class="edge">
<title>Node5&#45;&gt;Node6</title>
<g id="a_edge5_Node000005_Node000006"><a xlink:title=" ">
<path fill="none" stroke="#63b8ff" d="M115.71,-279.62C117.63,-262.01 121.82,-223.59 124.43,-199.65"/>
<polygon fill="#63b8ff" stroke="#63b8ff" points="127.9,-200.18 125.5,-189.86 120.94,-199.42 127.9,-200.18"/>
</a>
</g>
</g>
<!-- Node7 -->
<g id="Node000007" class="node">
<title>Node7</title>
<g id="a_Node000007"><a xlink:href="base_8h.html" target="_top" xlink:title=" ">
<polygon fill="white" stroke="#666666" points="231.31,-132 186.06,-132 186.06,-112 231.31,-112 231.31,-132"/>
<text text-anchor="middle" x="208.69" y="-118.5" font-family="Helvetica,sans-Serif" font-size="10.00">base.h</text>
</a>
</g>
</g>
<!-- Node6&#45;&gt;Node7 -->
<g id="edge6_Node000006_Node000007" class="edge">
<title>Node6&#45;&gt;Node7</title>
<g id="a_edge6_Node000006_Node000007"><a xlink:title=" ">
<path fill="none" stroke="#63b8ff" d="M140.97,-167.59C153.12,-159.59 170.83,-147.93 185.08,-138.54"/>
<polygon fill="#63b8ff" stroke="#63b8ff" points="186.6,-141.73 193.03,-133.31 182.75,-135.89 186.6,-141.73"/>
</a>
</g>
</g>
<!-- Node15 -->
<g id="Node000015" class="node">
<title>Node15</title>
<g id="a_Node000015"><a xlink:href="_vector2f_8h.html" target="_top" xlink:title=" ">
<polygon fill="white" stroke="#666666" points="68.81,-20 8.56,-20 8.56,0 68.81,0 68.81,-20"/>
<text text-anchor="middle" x="38.69" y="-6.5" font-family="Helvetica,sans-Serif" font-size="10.00">Vector2f.h</text>
</a>
</g>
</g>
<!-- Node6&#45;&gt;Node15 -->
<g id="edge16_Node000006_Node000015" class="edge">
<title>Node6&#45;&gt;Node15</title>
<g id="a_edge16_Node000006_Node000015"><a xlink:title=" ">
<path fill="none" stroke="#63b8ff" d="M106.06,-167.52C76.73,-152.73 24.14,-121.14 2.69,-76 -5.14,-59.53 6.66,-41.43 18.79,-28.52"/>
<polygon fill="#63b8ff" stroke="#63b8ff" points="21.21,-31.04 25.92,-21.55 16.32,-26.03 21.21,-31.04"/>
</a>
</g>
</g>
<!-- Node8 -->
<g id="Node000008" class="node">
<title>Node8</title>
<g id="a_Node000008"><a xlink:title=" ">
<polygon fill="#e0e0e0" stroke="#999999" points="484.56,-76 440.81,-76 440.81,-56 484.56,-56 484.56,-76"/>
<text text-anchor="middle" x="462.69" y="-62.5" font-family="Helvetica,sans-Serif" font-size="10.00">SDL.h</text>
</a>
</g>
</g>
<!-- Node7&#45;&gt;Node8 -->
<g id="edge7_Node000007_Node000008" class="edge">
<title>Node7&#45;&gt;Node8</title>
<g id="a_edge7_Node000007_Node000008"><a xlink:title=" ">
<path fill="none" stroke="#63b8ff" d="M231.62,-117.03C270.37,-110.17 351.47,-95.23 429.42,-76.4"/>
<polygon fill="#63b8ff" stroke="#63b8ff" points="430.04,-79.85 438.93,-74.07 428.38,-73.05 430.04,-79.85"/>
</a>
</g>
</g>
<!-- Node9 -->
<g id="Node000009" class="node">
<title>Node9</title>
<g id="a_Node000009"><a xlink:title=" ">
<polygon fill="#e0e0e0" stroke="#999999" points="161.44,-76 83.94,-76 83.94,-56 161.44,-56 161.44,-76"/>
<text text-anchor="middle" x="122.69" y="-62.5" font-family="Helvetica,sans-Serif" font-size="10.00">SDL_opengl.h</text>
</a>
</g>
</g>
<!-- Node7&#45;&gt;Node9 -->
<g id="edge8_Node000007_Node000009" class="edge">
<title>Node7&#45;&gt;Node9</title>
<g id="a_edge8_Node000007_Node000009"><a xlink:title=" ">
<path fill="none" stroke="#63b8ff" d="M193.71,-111.59C180.96,-103.59 162.39,-91.93 147.44,-82.54"/>
<polygon fill="#63b8ff" stroke="#63b8ff" points="149.4,-79.64 139.07,-77.28 145.67,-85.57 149.4,-79.64"/>
</a>
</g>
</g>
<!-- Node10 -->
<g id="Node000010" class="node">
<title>Node10</title>
<g id="a_Node000010"><a xlink:title=" ">
<polygon fill="#e0e0e0" stroke="#999999" points="237.69,-76 179.69,-76 179.69,-56 237.69,-56 237.69,-76"/>
<text text-anchor="middle" x="208.69" y="-62.5" font-family="Helvetica,sans-Serif" font-size="10.00">SDL_ttf.h</text>
</a>
</g>
</g>
<!-- Node7&#45;&gt;Node10 -->
<g id="edge9_Node000007_Node000010" class="edge">
<title>Node7&#45;&gt;Node10</title>
<g id="a_edge9_Node000007_Node000010"><a xlink:title=" ">
<path fill="none" stroke="#63b8ff" d="M208.69,-111.59C208.69,-105.01 208.69,-95.96 208.69,-87.73"/>
<polygon fill="#63b8ff" stroke="#63b8ff" points="212.19,-87.81 208.69,-77.81 205.19,-87.81 212.19,-87.81"/>
</a>
</g>
</g>
<!-- Node11 -->
<g id="Node000011" class="node">
<title>Node11</title>
<g id="a_Node000011"><a xlink:title=" ">
<polygon fill="#e0e0e0" stroke="#999999" points="329.19,-76 256.19,-76 256.19,-56 329.19,-56 329.19,-76"/>
<text text-anchor="middle" x="292.69" y="-62.5" font-family="Helvetica,sans-Serif" font-size="10.00">SDL_mixer.h</text>
</a>
</g>
</g>
<!-- Node7&#45;&gt;Node11 -->
<g id="edge10_Node000007_Node000011" class="edge">
<title>Node7&#45;&gt;Node11</title>
<g id="a_edge10_Node000007_Node000011"><a xlink:title=" ">
<path fill="none" stroke="#63b8ff" d="M223.32,-111.59C235.77,-103.59 253.9,-91.93 268.51,-82.54"/>
<polygon fill="#63b8ff" stroke="#63b8ff" points="270.15,-85.65 276.67,-77.3 266.36,-79.76 270.15,-85.65"/>
</a>
</g>
</g>
<!-- Node12 -->
<g id="Node000012" class="node">
<title>Node12</title>
<g id="a_Node000012"><a xlink:title=" ">
<polygon fill="#e0e0e0" stroke="#999999" points="422.31,-76 347.06,-76 347.06,-56 422.31,-56 422.31,-76"/>
<text text-anchor="middle" x="384.69" y="-62.5" font-family="Helvetica,sans-Serif" font-size="10.00">SDL_image.h</text>
</a>
</g>
</g>
<!-- Node7&#45;&gt;Node12 -->
<g id="edge11_Node000007_Node000012" class="edge">
<title>Node7&#45;&gt;Node12</title>
<g id="a_edge11_Node000007_Node000012"><a xlink:title=" ">
<path fill="none" stroke="#63b8ff" d="M231.7,-113.94C259.95,-105.27 308.39,-90.41 343.2,-79.73"/>
<polygon fill="#63b8ff" stroke="#63b8ff" points="344,-83.14 352.53,-76.87 341.95,-76.45 344,-83.14"/>
</a>
</g>
</g>
<!-- Node13 -->
<g id="Node000013" class="node">
<title>Node13</title>
<g id="a_Node000013"><a xlink:href="structs_8h.html" target="_top" xlink:title=" ">
<polygon fill="white" stroke="#666666" points="65.81,-76 11.56,-76 11.56,-56 65.81,-56 65.81,-76"/>
<text text-anchor="middle" x="38.69" y="-62.5" font-family="Helvetica,sans-Serif" font-size="10.00">structs.h</text>
</a>
</g>
</g>
<!-- Node7&#45;&gt;Node13 -->
<g id="edge12_Node000007_Node000013" class="edge">
<title>Node7&#45;&gt;Node13</title>
<g id="a_edge12_Node000007_Node000013"><a xlink:title=" ">
<path fill="none" stroke="#63b8ff" d="M185.76,-113.72C157.91,-104.87 110.52,-89.82 77.07,-79.19"/>
<polygon fill="#63b8ff" stroke="#63b8ff" points="78.34,-75.92 67.75,-76.23 76.22,-82.6 78.34,-75.92"/>
</a>
</g>
</g>
<!-- Node14 -->
<g id="Node000014" class="node">
<title>Node14</title>
<g id="a_Node000014"><a xlink:title=" ">
<polygon fill="#e0e0e0" stroke="#999999" points="899.69,-20 859.69,-20 859.69,0 899.69,0 899.69,-20"/>
<text text-anchor="middle" x="879.69" y="-6.5" font-family="Helvetica,sans-Serif" font-size="10.00">string</text>
</a>
</g>
</g>
<!-- Node13&#45;&gt;Node14 -->
<g id="edge13_Node000013_Node000014" class="edge">
<title>Node13&#45;&gt;Node14</title>
<g id="a_edge13_Node000013_Node000014"><a xlink:title=" ">
<path fill="none" stroke="#63b8ff" d="M66.1,-57.58C68.98,-56.97 71.88,-56.42 74.69,-56 372.85,-10.81 739.31,-9.81 847.93,-10.63"/>
<polygon fill="#63b8ff" stroke="#63b8ff" points="847.78,-14.13 857.81,-10.71 847.84,-7.13 847.78,-14.13"/>
</a>
</g>
</g>
<!-- Node13&#45;&gt;Node15 -->
<g id="edge14_Node000013_Node000015" class="edge">
<title>Node13&#45;&gt;Node15</title>
<g id="a_edge14_Node000013_Node000015"><a xlink:title=" ">
<path fill="none" stroke="#63b8ff" d="M33.42,-55.59C32.1,-49.01 31.66,-39.96 32.1,-31.73"/>
<polygon fill="#63b8ff" stroke="#63b8ff" points="35.58,-32.14 33.27,-21.8 28.63,-31.33 35.58,-32.14"/>
</a>
</g>
</g>
<!-- Node15&#45;&gt;Node13 -->
<g id="edge15_Node000015_Node000013" class="edge">
<title>Node15&#45;&gt;Node13</title>
<g id="a_edge15_Node000015_Node000013"><a xlink:title=" ">
<path fill="none" stroke="#63b8ff" d="M43.93,-20.3C45.28,-26.93 45.72,-36.11 45.26,-44.43"/>
<polygon fill="#63b8ff" stroke="#63b8ff" points="41.82,-43.75 44.13,-54.09 48.77,-44.57 41.82,-43.75"/>
</a>
</g>
</g>
<!-- Node17 -->
<g id="Node000017" class="node">
<title>Node17</title>
<g id="a_Node000017"><a xlink:href="utils_8h.html" target="_top" xlink:title=" ">
<polygon fill="white" stroke="#666666" points="434.81,-244 392.56,-244 392.56,-224 434.81,-224 434.81,-244"/>
<text text-anchor="middle" x="413.69" y="-230.5" font-family="Helvetica,sans-Serif" font-size="10.00">utils.h</text>
</a>
</g>
</g>
<!-- Node16&#45;&gt;Node17 -->
<g id="edge18_Node000016_Node000017" class="edge">
<title>Node16&#45;&gt;Node17</title>
<g id="a_edge18_Node000016_Node000017"><a xlink:title=" ">
<path fill="none" stroke="#63b8ff" d="M402.13,-279.59C403.85,-272.93 406.23,-263.75 408.39,-255.44"/>
<polygon fill="#63b8ff" stroke="#63b8ff" points="411.78,-256.32 410.9,-245.76 405,-254.56 411.78,-256.32"/>
</a>
</g>
</g>
<!-- Node17&#45;&gt;Node15 -->
<g id="edge20_Node000017_Node000015" class="edge">
<title>Node17&#45;&gt;Node15</title>
<g id="a_edge20_Node000017_Node000015"><a xlink:title=" ">
<path fill="none" stroke="#63b8ff" d="M424.22,-223.81C455.32,-195.6 541.69,-108.98 493.69,-56 466.2,-25.67 187.62,-15 80.42,-12"/>
<polygon fill="#63b8ff" stroke="#63b8ff" points="80.71,-8.51 70.62,-11.74 80.52,-15.5 80.71,-8.51"/>
</a>
</g>
</g>
<!-- Node17&#45;&gt;Node18 -->
<g id="edge19_Node000017_Node000018" class="edge">
<title>Node17&#45;&gt;Node18</title>
<g id="a_edge19_Node000017_Node000018"><a xlink:title=" ">
<path fill="none" stroke="#63b8ff" d="M435.04,-225.26C459.9,-216.25 501.24,-201.27 530.12,-190.8"/>
<polygon fill="#63b8ff" stroke="#63b8ff" points="531.26,-194.11 539.47,-187.41 528.88,-187.53 531.26,-194.11"/>
</a>
</g>
</g>
<!-- Node19&#45;&gt;Node6 -->
<g id="edge23_Node000019_Node000006" class="edge">
<title>Node19&#45;&gt;Node6</title>
<g id="a_edge23_Node000019_Node000006"><a xlink:title=" ">
<path fill="none" stroke="#63b8ff" d="M163.85,-223.59C157.72,-216.24 149.02,-205.8 141.57,-196.87"/>
<polygon fill="#63b8ff" stroke="#63b8ff" points="144.5,-194.9 135.4,-189.46 139.12,-199.38 144.5,-194.9"/>
</a>
</g>
</g>
<!-- Node19&#45;&gt;Node18 -->
<g id="edge24_Node000019_Node000018" class="edge">
<title>Node19&#45;&gt;Node18</title>
<g id="a_edge24_Node000019_Node000018"><a xlink:title=" ">
<path fill="none" stroke="#63b8ff" d="M193.06,-227.05C197.54,-225.93 202.25,-224.85 206.69,-224 324.53,-201.49 466.55,-187.38 529.67,-181.77"/>
<polygon fill="#63b8ff" stroke="#63b8ff" points="529.7,-185.28 539.36,-180.93 529.09,-178.31 529.7,-185.28"/>
</a>
</g>
</g>
<!-- Node20 -->
<g id="Node000020" class="node">
<title>Node20</title>
<g id="a_Node000020"><a xlink:href="_texture_8h.html" target="_top" xlink:title=" ">
<polygon fill="white" stroke="#666666" points="236.94,-188 180.44,-188 180.44,-168 236.94,-168 236.94,-188"/>
<text text-anchor="middle" x="208.69" y="-174.5" font-family="Helvetica,sans-Serif" font-size="10.00">Texture.h</text>
</a>
</g>
</g>
<!-- Node19&#45;&gt;Node20 -->
<g id="edge25_Node000019_Node000020" class="edge">
<title>Node19&#45;&gt;Node20</title>
<g id="a_edge25_Node000019_Node000020"><a xlink:title=" ">
<path fill="none" stroke="#63b8ff" d="M178.13,-223.59C183.01,-216.47 189.88,-206.45 195.86,-197.72"/>
<polygon fill="#63b8ff" stroke="#63b8ff" points="198.7,-199.77 201.46,-189.55 192.92,-195.82 198.7,-199.77"/>
</a>
</g>
</g>
<!-- Node20&#45;&gt;Node7 -->
<g id="edge26_Node000020_Node000007" class="edge">
<title>Node20&#45;&gt;Node7</title>
<g id="a_edge26_Node000020_Node000007"><a xlink:title=" ">
<path fill="none" stroke="#63b8ff" d="M208.69,-167.59C208.69,-161.01 208.69,-151.96 208.69,-143.73"/>
<polygon fill="#63b8ff" stroke="#63b8ff" points="212.19,-143.81 208.69,-133.81 205.19,-143.81 212.19,-143.81"/>
</a>
</g>
</g>
<!-- Node21&#45;&gt;Node18 -->
<g id="edge33_Node000021_Node000018" class="edge">
<title>Node21&#45;&gt;Node18</title>
<g id="a_edge33_Node000021_Node000018"><a xlink:title=" ">
<path fill="none" stroke="#63b8ff" d="M654.13,-335.75C654.42,-322.76 653.66,-298.6 645.69,-280 631.1,-245.99 601.43,-214.34 581.81,-195.83"/>
<polygon fill="#63b8ff" stroke="#63b8ff" points="584.44,-193.5 574.7,-189.32 579.7,-198.65 584.44,-193.5"/>
</a>
</g>
</g>
<!-- Node22 -->
<g id="Node000022" class="node">
<title>Node22</title>
<g id="a_Node000022"><a xlink:href="_animation_manager_a_n_d_hair_8h.html" target="_top" xlink:title=" ">
<polygon fill="white" stroke="#666666" points="636.19,-300 491.19,-300 491.19,-280 636.19,-280 636.19,-300"/>
<text text-anchor="middle" x="563.69" y="-286.5" font-family="Helvetica,sans-Serif" font-size="10.00">AnimationManagerANDHair.h</text>
</a>
</g>
</g>
<!-- Node21&#45;&gt;Node22 -->
<g id="edge28_Node000021_Node000022" class="edge">
<title>Node21&#45;&gt;Node22</title>
<g id="a_edge28_Node000021_Node000022"><a xlink:title=" ">
<path fill="none" stroke="#63b8ff" d="M638.01,-335.59C624.54,-327.51 604.87,-315.71 589.14,-306.27"/>
<polygon fill="#63b8ff" stroke="#63b8ff" points="591.16,-303.4 580.78,-301.26 587.56,-309.4 591.16,-303.4"/>
</a>
</g>
</g>
<!-- Node21&#45;&gt;Node24 -->
<g id="edge32_Node000021_Node000024" class="edge">
<title>Node21&#45;&gt;Node24</title>
<g id="a_edge32_Node000021_Node000024"><a xlink:title=" ">
<path fill="none" stroke="#63b8ff" d="M668.67,-335.59C681.41,-327.59 699.98,-315.93 714.93,-306.54"/>
<polygon fill="#63b8ff" stroke="#63b8ff" points="716.7,-309.57 723.31,-301.28 712.98,-303.64 716.7,-309.57"/>
</a>
</g>
</g>
<!-- Node22&#45;&gt;Node18 -->
<g id="edge31_Node000022_Node000018" class="edge">
<title>Node22&#45;&gt;Node18</title>
<g id="a_edge31_Node000022_Node000018"><a xlink:title=" ">
<path fill="none" stroke="#63b8ff" d="M563.6,-279.62C563.44,-262.01 563.09,-223.59 562.88,-199.65"/>
<polygon fill="#63b8ff" stroke="#63b8ff" points="566.38,-199.84 562.79,-189.87 559.38,-199.9 566.38,-199.84"/>
</a>
</g>
</g>
<!-- Node23 -->
<g id="Node000023" class="node">
<title>Node23</title>
<g id="a_Node000023"><a xlink:href="_animation_manager_8h.html" target="_top" xlink:title=" ">
<polygon fill="white" stroke="#666666" points="354.31,-244 249.06,-244 249.06,-224 354.31,-224 354.31,-244"/>
<text text-anchor="middle" x="301.69" y="-230.5" font-family="Helvetica,sans-Serif" font-size="10.00">AnimationManager.h</text>
</a>
</g>
</g>
<!-- Node22&#45;&gt;Node23 -->
<g id="edge29_Node000022_Node000023" class="edge">
<title>Node22&#45;&gt;Node23</title>
<g id="a_edge29_Node000022_Node000023"><a xlink:title=" ">
<path fill="none" stroke="#63b8ff" d="M517.75,-279.53C473.46,-270.4 406.31,-256.56 358.64,-246.74"/>
<polygon fill="#63b8ff" stroke="#63b8ff" points="359.55,-243.35 349.05,-244.76 358.14,-250.21 359.55,-243.35"/>
</a>
</g>
</g>
<!-- Node23&#45;&gt;Node20 -->
<g id="edge30_Node000023_Node000020" class="edge">
<title>Node23&#45;&gt;Node20</title>
<g id="a_edge30_Node000023_Node000020"><a xlink:title=" ">
<path fill="none" stroke="#63b8ff" d="M285.49,-223.59C271.44,-215.44 250.85,-203.48 234.53,-194"/>
<polygon fill="#63b8ff" stroke="#63b8ff" points="236.73,-191.23 226.32,-189.24 233.21,-197.29 236.73,-191.23"/>
</a>
</g>
</g>
<!-- Node25&#45;&gt;Node24 -->
<g id="edge36_Node000025_Node000024" class="edge">
<title>Node25&#45;&gt;Node24</title>
<g id="a_edge36_Node000025_Node000024"><a xlink:title=" ">
<path fill="none" stroke="#63b8ff" d="M877.6,-335.59C850.47,-326.82 809.76,-313.66 779.59,-303.9"/>
<polygon fill="#63b8ff" stroke="#63b8ff" points="781.04,-300.69 770.44,-300.95 778.88,-307.35 781.04,-300.69"/>
</a>
</g>
</g>
<!-- Node26 -->
<g id="Node000026" class="node">
<title>Node26</title>
<g id="a_Node000026"><a xlink:href="_sound_effect_8h.html" target="_top" xlink:title=" ">
<polygon fill="white" stroke="#666666" points="918.44,-244 840.94,-244 840.94,-224 918.44,-224 918.44,-244"/>
<text text-anchor="middle" x="879.69" y="-230.5" font-family="Helvetica,sans-Serif" font-size="10.00">SoundEffect.h</text>
</a>
</g>
</g>
<!-- Node25&#45;&gt;Node26 -->
<g id="edge37_Node000025_Node000026" class="edge">
<title>Node25&#45;&gt;Node26</title>
<g id="a_edge37_Node000025_Node000026"><a xlink:title=" ">
<path fill="none" stroke="#63b8ff" d="M904.39,-335.62C900.04,-317.92 890.55,-279.24 884.68,-255.32"/>
<polygon fill="#63b8ff" stroke="#63b8ff" points="888.13,-254.7 882.34,-245.82 881.33,-256.37 888.13,-254.7"/>
</a>
</g>
</g>
<!-- Node27 -->
<g id="Node000027" class="node">
<title>Node27</title>
<g id="a_Node000027"><a xlink:href="_sound_stream_8h.html" target="_top" xlink:title=" ">
<polygon fill="white" stroke="#666666" points="991.44,-300 907.94,-300 907.94,-280 991.44,-280 991.44,-300"/>
<text text-anchor="middle" x="949.69" y="-286.5" font-family="Helvetica,sans-Serif" font-size="10.00">SoundStream.h</text>
</a>
</g>
</g>
<!-- Node25&#45;&gt;Node27 -->
<g id="edge40_Node000025_Node000027" class="edge">
<title>Node25&#45;&gt;Node27</title>
<g id="a_edge40_Node000025_Node000027"><a xlink:title=" ">
<path fill="none" stroke="#63b8ff" d="M914.18,-335.59C919.97,-328.32 928.18,-318.02 935.24,-309.15"/>
<polygon fill="#63b8ff" stroke="#63b8ff" points="937.85,-311.49 941.34,-301.48 932.37,-307.12 937.85,-311.49"/>
</a>
</g>
</g>
<!-- Node26&#45;&gt;Node14 -->
<g id="edge38_Node000026_Node000014" class="edge">
<title>Node26&#45;&gt;Node14</title>
<g id="a_edge38_Node000026_Node000014"><a xlink:title=" ">
<path fill="none" stroke="#63b8ff" d="M879.69,-223.74C879.69,-190.74 879.69,-78.31 879.69,-31.61"/>
<polygon fill="#63b8ff" stroke="#63b8ff" points="883.19,-31.81 879.69,-21.81 876.19,-31.81 883.19,-31.81"/>
</a>
</g>
</g>
<!-- Node26&#45;&gt;Node18 -->
<g id="edge39_Node000026_Node000018" class="edge">
<title>Node26&#45;&gt;Node18</title>
<g id="a_edge39_Node000026_Node000018"><a xlink:title=" ">
<path fill="none" stroke="#63b8ff" d="M840.5,-226.32C777.42,-215.58 654.52,-194.64 595.65,-184.62"/>
<polygon fill="#63b8ff" stroke="#63b8ff" points="596.38,-181.19 585.93,-182.96 595.2,-188.09 596.38,-181.19"/>
</a>
</g>
</g>
<!-- Node27&#45;&gt;Node14 -->
<g id="edge41_Node000027_Node000014" class="edge">
<title>Node27&#45;&gt;Node14</title>
<g id="a_edge41_Node000027_Node000014"><a xlink:title=" ">
<path fill="none" stroke="#63b8ff" d="M949.4,-279.58C948.85,-260.57 947.69,-216.25 947.69,-179 947.69,-179 947.69,-179 947.69,-121 947.69,-83.65 918.96,-48.38 898.85,-28.27"/>
<polygon fill="#63b8ff" stroke="#63b8ff" points="901.35,-25.81 891.71,-21.43 896.51,-30.87 901.35,-25.81"/>
</a>
</g>
</g>
<!-- Node28&#45;&gt;Node2 -->
<g id="edge44_Node000028_Node000002" class="edge">
<title>Node28&#45;&gt;Node2</title>
<g id="a_edge44_Node000028_Node000002"><a xlink:title=" ">
<path fill="none" stroke="#63b8ff" d="M673.8,-617.63C700.38,-611.08 735.62,-599.44 761.69,-580 786.41,-561.56 793.1,-553.32 802.69,-524 805.45,-515.55 807.53,-511.46 802.69,-504 792.82,-488.8 776.49,-478.69 759.82,-471.98"/>
<polygon fill="#63b8ff" stroke="#63b8ff" points="761.46,-468.86 750.86,-468.75 759.08,-475.44 761.46,-468.86"/>
</a>
</g>
</g>
<!-- Node28&#45;&gt;Node18 -->
<g id="edge43_Node000028_Node000018" class="edge">
<title>Node28&#45;&gt;Node18</title>
<g id="a_edge43_Node000028_Node000018"><a xlink:title=" ">
<path fill="none" stroke="#63b8ff" d="M673.66,-624.46C740.85,-622.61 876.39,-614.58 905.69,-580 911.43,-573.22 907.37,-568.73 905.69,-560 899.35,-527.1 817,-304.07 793.69,-280 738.28,-222.81 644.97,-195.9 595.61,-185.11"/>
<polygon fill="#63b8ff" stroke="#63b8ff" points="596.61,-181.75 586.11,-183.13 595.18,-188.6 596.61,-181.75"/>
</a>
</g>
</g>
<!-- Node28&#45;&gt;Node27 -->
<g id="edge71_Node000028_Node000027" class="edge">
<title>Node28&#45;&gt;Node27</title>
<g id="a_edge71_Node000028_Node000027"><a xlink:title=" ">
<path fill="none" stroke="#63b8ff" d="M673.75,-624.79C752.67,-623.61 930.62,-616.81 976.69,-580 1000.75,-560.78 1000.69,-545.8 1000.69,-515 1000.69,-515 1000.69,-515 1000.69,-401 1000.69,-370.9 994.81,-363.08 981.69,-336 977.16,-326.66 970.74,-317.17 964.83,-309.33"/>
<polygon fill="#63b8ff" stroke="#63b8ff" points="967.69,-307.29 958.75,-301.6 962.19,-311.62 967.69,-307.29"/>
</a>
</g>
</g>
<!-- Node29 -->
<g id="Node000029" class="node">
<title>Node29</title>
<g id="a_Node000029"><a xlink:href="_spike_8h.html" target="_top" xlink:title=" ">
<polygon fill="white" stroke="#666666" points="687.19,-580 638.19,-580 638.19,-560 687.19,-560 687.19,-580"/>
<text text-anchor="middle" x="662.69" y="-566.5" font-family="Helvetica,sans-Serif" font-size="10.00">Spike.h</text>
</a>
</g>
</g>
<!-- Node28&#45;&gt;Node29 -->
<g id="edge45_Node000028_Node000029" class="edge">
<title>Node28&#45;&gt;Node29</title>
<g id="a_edge45_Node000028_Node000029"><a xlink:title=" ">
<path fill="none" stroke="#63b8ff" d="M640.39,-615.59C643.84,-608.7 648.64,-599.1 652.9,-590.57"/>
<polygon fill="#63b8ff" stroke="#63b8ff" points="656.02,-592.16 657.36,-581.65 649.76,-589.03 656.02,-592.16"/>
</a>
</g>
</g>
<!-- Node30 -->
<g id="Node000030" class="node">
<title>Node30</title>
<g id="a_Node000030"><a xlink:href="_trampoline_8h.html" target="_top" xlink:title=" ">
<polygon fill="white" stroke="#666666" points="543.81,-524 471.56,-524 471.56,-504 543.81,-504 543.81,-524"/>
<text text-anchor="middle" x="507.69" y="-510.5" font-family="Helvetica,sans-Serif" font-size="10.00">Trampoline.h</text>
</a>
</g>
</g>
<!-- Node28&#45;&gt;Node30 -->
<g id="edge47_Node000028_Node000030" class="edge">
<title>Node28&#45;&gt;Node30</title>
<g id="a_edge47_Node000028_Node000030"><a xlink:title=" ">
<path fill="none" stroke="#63b8ff" d="M624.77,-615.62C603.14,-597.03 554.56,-555.28 527.26,-531.82"/>
<polygon fill="#63b8ff" stroke="#63b8ff" points="529.59,-529.2 519.72,-525.34 525.02,-534.51 529.59,-529.2"/>
</a>
</g>
</g>
<!-- Node33 -->
<g id="Node000033" class="node">
<title>Node33</title>
<g id="a_Node000033"><a xlink:href="_strawberry_8h.html" target="_top" xlink:title=" ">
<polygon fill="white" stroke="#666666" points="318.06,-524 247.31,-524 247.31,-504 318.06,-504 318.06,-524"/>
<text text-anchor="middle" x="282.69" y="-510.5" font-family="Helvetica,sans-Serif" font-size="10.00">Strawberry.h</text>
</a>
</g>
</g>
<!-- Node28&#45;&gt;Node33 -->
<g id="edge51_Node000028_Node000033" class="edge">
<title>Node28&#45;&gt;Node33</title>
<g id="a_edge51_Node000028_Node000033"><a xlink:title=" ">
<path fill="none" stroke="#63b8ff" d="M597.76,-624.85C520.08,-623.78 346.51,-617.16 302.69,-580 289.87,-569.13 285.12,-550.26 283.43,-535.64"/>
<polygon fill="#63b8ff" stroke="#63b8ff" points="286.93,-535.43 282.72,-525.71 279.95,-535.93 286.93,-535.43"/>
</a>
</g>
</g>
<!-- Node34 -->
<g id="Node000034" class="node">
<title>Node34</title>
<g id="a_Node000034"><a xlink:href="_respawn_zone_8h.html" target="_top" xlink:title=" ">
<polygon fill="white" stroke="#666666" points="896.31,-580 809.06,-580 809.06,-560 896.31,-560 896.31,-580"/>
<text text-anchor="middle" x="852.69" y="-566.5" font-family="Helvetica,sans-Serif" font-size="10.00">RespawnZone.h</text>
</a>
</g>
</g>
<!-- Node28&#45;&gt;Node34 -->
<g id="edge55_Node000028_Node000034" class="edge">
<title>Node28&#45;&gt;Node34</title>
<g id="a_edge55_Node000028_Node000034"><a xlink:title=" ">
<path fill="none" stroke="#63b8ff" d="M673.49,-615.59C709.59,-606.61 764.2,-593.02 803.64,-583.2"/>
<polygon fill="#63b8ff" stroke="#63b8ff" points="804.27,-586.66 813.13,-580.84 802.58,-579.86 804.27,-586.66"/>
</a>
</g>
</g>
<!-- Node35 -->
<g id="Node000035" class="node">
<title>Node35</title>
<g id="a_Node000035"><a xlink:href="_dash_crystal_8h.html" target="_top" xlink:title=" ">
<polygon fill="white" stroke="#666666" points="641.19,-524 562.19,-524 562.19,-504 641.19,-504 641.19,-524"/>
<text text-anchor="middle" x="601.69" y="-510.5" font-family="Helvetica,sans-Serif" font-size="10.00">DashCrystal.h</text>
</a>
</g>
</g>
<!-- Node28&#45;&gt;Node35 -->
<g id="edge57_Node000028_Node000035" class="edge">
<title>Node28&#45;&gt;Node35</title>
<g id="a_edge57_Node000028_Node000035"><a xlink:title=" ">
<path fill="none" stroke="#63b8ff" d="M623.66,-615.78C614.03,-607.59 601.26,-594.66 595.69,-580 590.2,-565.56 592.25,-548.08 595.38,-534.88"/>
<polygon fill="#63b8ff" stroke="#63b8ff" points="598.64,-536.2 597.95,-525.63 591.9,-534.33 598.64,-536.2"/>
</a>
</g>
</g>
<!-- Node36 -->
<g id="Node000036" class="node">
<title>Node36</title>
<g id="a_Node000036"><a xlink:href="_crumble_block_8h.html" target="_top" xlink:title=" ">
<polygon fill="white" stroke="#666666" points="744.56,-524 658.81,-524 658.81,-504 744.56,-504 744.56,-524"/>
<text text-anchor="middle" x="701.69" y="-510.5" font-family="Helvetica,sans-Serif" font-size="10.00">CrumbleBlock.h</text>
</a>
</g>
</g>
<!-- Node28&#45;&gt;Node36 -->
<g id="edge60_Node000028_Node000036" class="edge">
<title>Node28&#45;&gt;Node36</title>
<g id="a_edge60_Node000028_Node000036"><a xlink:title=" ">
<path fill="none" stroke="#63b8ff" d="M631.8,-615.93C626.78,-602.73 619.8,-577.84 629.69,-560 637.2,-546.44 650.7,-536.42 663.99,-529.33"/>
<polygon fill="#63b8ff" stroke="#63b8ff" points="665.18,-532.64 672.65,-525.13 662.13,-526.35 665.18,-532.64"/>
</a>
</g>
</g>
<!-- Node37 -->
<g id="Node000037" class="node">
<title>Node37</title>
<g id="a_Node000037"><a xlink:href="_cog_platform_8h.html" target="_top" xlink:title=" ">
<polygon fill="white" stroke="#666666" points="453.19,-524 374.19,-524 374.19,-504 453.19,-504 453.19,-524"/>
<text text-anchor="middle" x="413.69" y="-510.5" font-family="Helvetica,sans-Serif" font-size="10.00">CogPlatform.h</text>
</a>
</g>
</g>
<!-- Node28&#45;&gt;Node37 -->
<g id="edge63_Node000028_Node000037" class="edge">
<title>Node28&#45;&gt;Node37</title>
<g id="a_edge63_Node000028_Node000037"><a xlink:title=" ">
<path fill="none" stroke="#63b8ff" d="M616.76,-615.62C577.93,-596.38 489.04,-552.34 442.81,-529.43"/>
<polygon fill="#63b8ff" stroke="#63b8ff" points="444.44,-526.33 433.92,-525.03 441.33,-532.6 444.44,-526.33"/>
</a>
</g>
</g>
<!-- Node38 -->
<g id="Node000038" class="node">
<title>Node38</title>
<g id="a_Node000038"><a xlink:href="_flying_strawberry_8h.html" target="_top" xlink:title=" ">
<polygon fill="white" stroke="#666666" points="408.19,-580 311.19,-580 311.19,-560 408.19,-560 408.19,-580"/>
<text text-anchor="middle" x="359.69" y="-566.5" font-family="Helvetica,sans-Serif" font-size="10.00">FlyingStrawberry.h</text>
</a>
</g>
</g>
<!-- Node28&#45;&gt;Node38 -->
<g id="edge66_Node000028_Node000038" class="edge">
<title>Node28&#45;&gt;Node38</title>
<g id="a_edge66_Node000028_Node000038"><a xlink:title=" ">
<path fill="none" stroke="#63b8ff" d="M597.6,-617.55C551.49,-608.53 473.3,-593.23 419.21,-582.65"/>
<polygon fill="#63b8ff" stroke="#63b8ff" points="420.02,-579.24 409.54,-580.75 418.68,-586.11 420.02,-579.24"/>
</a>
</g>
</g>
<!-- Node39 -->
<g id="Node000039" class="node">
<title>Node39</title>
<g id="a_Node000039"><a xlink:href="_level_8h.html" target="_top" xlink:title=" ">
<polygon fill="white" stroke="#666666" points="752.44,-580 704.94,-580 704.94,-560 752.44,-560 752.44,-580"/>
<text text-anchor="middle" x="728.69" y="-566.5" font-family="Helvetica,sans-Serif" font-size="10.00">Level.h</text>
</a>
</g>
</g>
<!-- Node28&#45;&gt;Node39 -->
<g id="edge69_Node000028_Node000039" class="edge">
<title>Node28&#45;&gt;Node39</title>
<g id="a_edge69_Node000028_Node000039"><a xlink:title=" ">
<path fill="none" stroke="#63b8ff" d="M651.89,-615.59C665.94,-607.44 686.52,-595.48 702.85,-586"/>
<polygon fill="#63b8ff" stroke="#63b8ff" points="704.16,-589.29 711.05,-581.24 700.65,-583.23 704.16,-589.29"/>
</a>
</g>
</g>
<!-- Node29&#45;&gt;Node2 -->
<g id="edge46_Node000029_Node000002" class="edge">
<title>Node29&#45;&gt;Node2</title>
<g id="a_edge46_Node000029_Node000002"><a xlink:title=" ">
<path fill="none" stroke="#63b8ff" d="M687.44,-560.16C711.71,-550.93 746.16,-536.13 753.69,-524 764.92,-505.91 746,-487.12 727.92,-474.42"/>
<polygon fill="#63b8ff" stroke="#63b8ff" points="730.25,-471.76 719.97,-469.2 726.41,-477.61 730.25,-471.76"/>
</a>
</g>
</g>
<!-- Node30&#45;&gt;Node2 -->
<g id="edge48_Node000030_Node000002" class="edge">
<title>Node30&#45;&gt;Node2</title>
<g id="a_edge48_Node000030_Node000002"><a xlink:title=" ">
<path fill="none" stroke="#63b8ff" d="M541.48,-503.59C573.41,-494.71 621.54,-481.31 656.71,-471.52"/>
<polygon fill="#63b8ff" stroke="#63b8ff" points="657.48,-474.94 666.17,-468.89 655.6,-468.2 657.48,-474.94"/>
</a>
</g>
</g>
<!-- Node31 -->
<g id="Node000031" class="node">
<title>Node31</title>
<g id="a_Node000031"><a xlink:href="_counted_item_8h.html" target="_top" xlink:title=" ">
<polygon fill="white" stroke="#666666" points="500.94,-468 420.44,-468 420.44,-448 500.94,-448 500.94,-468"/>
<text text-anchor="middle" x="460.69" y="-454.5" font-family="Helvetica,sans-Serif" font-size="10.00">CountedItem.h</text>
</a>
</g>
</g>
<!-- Node30&#45;&gt;Node31 -->
<g id="edge49_Node000030_Node000031" class="edge">
<title>Node30&#45;&gt;Node31</title>
<g id="a_edge49_Node000030_Node000031"><a xlink:title=" ">
<path fill="none" stroke="#63b8ff" d="M499.5,-503.59C493.1,-496.24 484.01,-485.8 476.24,-476.87"/>
<polygon fill="#63b8ff" stroke="#63b8ff" points="478.98,-474.69 469.77,-469.44 473.7,-479.28 478.98,-474.69"/>
</a>
</g>
</g>
<!-- Node32 -->
<g id="Node000032" class="node">
<title>Node32</title>
<g id="a_Node000032"><a xlink:title=" ">
<polygon fill="#e0e0e0" stroke="#999999" points="487.44,-412 433.94,-412 433.94,-392 487.44,-392 487.44,-412"/>
<text text-anchor="middle" x="460.69" y="-398.5" font-family="Helvetica,sans-Serif" font-size="10.00">iostream</text>
</a>
</g>
</g>
<!-- Node31&#45;&gt;Node32 -->
<g id="edge50_Node000031_Node000032" class="edge">
<title>Node31&#45;&gt;Node32</title>
<g id="a_edge50_Node000031_Node000032"><a xlink:title=" ">
<path fill="none" stroke="#63b8ff" d="M460.69,-447.59C460.69,-441.01 460.69,-431.96 460.69,-423.73"/>
<polygon fill="#63b8ff" stroke="#63b8ff" points="464.19,-423.81 460.69,-413.81 457.19,-423.81 464.19,-423.81"/>
</a>
</g>
</g>
<!-- Node33&#45;&gt;Node2 -->
<g id="edge52_Node000033_Node000002" class="edge">
<title>Node33&#45;&gt;Node2</title>
<g id="a_edge52_Node000033_Node000002"><a xlink:title=" ">
<path fill="none" stroke="#63b8ff" d="M318.41,-508.4C390.65,-499.09 554.68,-477.95 642.91,-466.58"/>
<polygon fill="#63b8ff" stroke="#63b8ff" points="643.09,-470.08 652.56,-465.33 642.2,-463.14 643.09,-470.08"/>
</a>
</g>
</g>
<!-- Node33&#45;&gt;Node23 -->
<g id="edge53_Node000033_Node000023" class="edge">
<title>Node33&#45;&gt;Node23</title>
<g id="a_edge53_Node000033_Node000023"><a xlink:title=" ">
<path fill="none" stroke="#63b8ff" d="M284.12,-503.61C286.89,-484.64 292.69,-440.39 292.69,-403 292.69,-403 292.69,-403 292.69,-345 292.69,-313.77 296.34,-277.71 298.99,-255.63"/>
<polygon fill="#63b8ff" stroke="#63b8ff" points="302.44,-256.26 300.21,-245.9 295.49,-255.38 302.44,-256.26"/>
</a>
</g>
</g>
<!-- Node33&#45;&gt;Node31 -->
<g id="edge54_Node000033_Node000031" class="edge">
<title>Node33&#45;&gt;Node31</title>
<g id="a_edge54_Node000033_Node000031"><a xlink:title=" ">
<path fill="none" stroke="#63b8ff" d="M313.69,-503.59C342.74,-494.78 386.38,-481.54 418.57,-471.78"/>
<polygon fill="#63b8ff" stroke="#63b8ff" points="419.44,-475.17 427.99,-468.92 417.41,-468.47 419.44,-475.17"/>
</a>
</g>
</g>
<!-- Node34&#45;&gt;Node2 -->
<g id="edge56_Node000034_Node000002" class="edge">
<title>Node34&#45;&gt;Node2</title>
<g id="a_edge56_Node000034_Node000002"><a xlink:title=" ">
<path fill="none" stroke="#63b8ff" d="M858.09,-559.54C865.12,-545.86 875.11,-520.37 862.69,-504 850.14,-487.46 801.34,-475.36 760.73,-467.89"/>
<polygon fill="#63b8ff" stroke="#63b8ff" points="761.47,-464.47 751.01,-466.17 760.25,-471.36 761.47,-464.47"/>
</a>
</g>
</g>
<!-- Node35&#45;&gt;Node2 -->
<g id="edge58_Node000035_Node000002" class="edge">
<title>Node35&#45;&gt;Node2</title>
<g id="a_edge58_Node000035_Node000002"><a xlink:title=" ">
<path fill="none" stroke="#63b8ff" d="M619.11,-503.59C634.36,-495.36 656.77,-483.26 674.4,-473.74"/>
<polygon fill="#63b8ff" stroke="#63b8ff" points="675.66,-477.03 682.8,-469.2 672.34,-470.87 675.66,-477.03"/>
</a>
</g>
</g>
<!-- Node35&#45;&gt;Node31 -->
<g id="edge59_Node000035_Node000031" class="edge">
<title>Node35&#45;&gt;Node31</title>
<g id="a_edge59_Node000035_Node000031"><a xlink:title=" ">
<path fill="none" stroke="#63b8ff" d="M577.13,-503.59C554.72,-495.01 521.35,-482.23 496.07,-472.55"/>
<polygon fill="#63b8ff" stroke="#63b8ff" points="497.44,-469.33 486.85,-469.02 494.94,-475.87 497.44,-469.33"/>
</a>
</g>
</g>
<!-- Node36&#45;&gt;Node2 -->
<g id="edge61_Node000036_Node000002" class="edge">
<title>Node36&#45;&gt;Node2</title>
<g id="a_edge61_Node000036_Node000002"><a xlink:title=" ">
<path fill="none" stroke="#63b8ff" d="M701.69,-503.59C701.69,-497.01 701.69,-487.96 701.69,-479.73"/>
<polygon fill="#63b8ff" stroke="#63b8ff" points="705.19,-479.81 701.69,-469.81 698.19,-479.81 705.19,-479.81"/>
</a>
</g>
</g>
<!-- Node36&#45;&gt;Node31 -->
<g id="edge62_Node000036_Node000031" class="edge">
<title>Node36&#45;&gt;Node31</title>
<g id="a_edge62_Node000036_Node000031"><a xlink:title=" ">
<path fill="none" stroke="#63b8ff" d="M659.43,-503.53C618.45,-494.35 556.2,-480.4 512.3,-470.57"/>
<polygon fill="#63b8ff" stroke="#63b8ff" points="513.29,-467.2 502.76,-468.43 511.76,-474.03 513.29,-467.2"/>
</a>
</g>
</g>
<!-- Node37&#45;&gt;Node2 -->
<g id="edge64_Node000037_Node000002" class="edge">
<title>Node37&#45;&gt;Node2</title>
<g id="a_edge64_Node000037_Node000002"><a xlink:title=" ">
<path fill="none" stroke="#63b8ff" d="M453.43,-505.55C502.51,-496.35 586.43,-480.61 642.95,-470.01"/>
<polygon fill="#63b8ff" stroke="#63b8ff" points="643.55,-473.46 652.74,-468.18 642.26,-466.58 643.55,-473.46"/>
</a>
</g>
</g>
<!-- Node37&#45;&gt;Node31 -->
<g id="edge65_Node000037_Node000031" class="edge">
<title>Node37&#45;&gt;Node31</title>
<g id="a_edge65_Node000037_Node000031"><a xlink:title=" ">
<path fill="none" stroke="#63b8ff" d="M421.87,-503.59C428.28,-496.24 437.37,-485.8 445.14,-476.87"/>
<polygon fill="#63b8ff" stroke="#63b8ff" points="447.68,-479.28 451.6,-469.44 442.4,-474.69 447.68,-479.28"/>
</a>
</g>
</g>
<!-- Node38&#45;&gt;Node31 -->
<g id="edge68_Node000038_Node000031" class="edge">
<title>Node38&#45;&gt;Node31</title>
<g id="a_edge68_Node000038_Node000031"><a xlink:title=" ">
<path fill="none" stroke="#63b8ff" d="M357.87,-559.64C355.78,-546.06 354,-520.72 365.69,-504 376.25,-488.89 393.28,-478.7 410.01,-471.89"/>
<polygon fill="#63b8ff" stroke="#63b8ff" points="410.75,-475.35 418.92,-468.61 408.32,-468.79 410.75,-475.35"/>
</a>
</g>
</g>
<!-- Node38&#45;&gt;Node33 -->
<g id="edge67_Node000038_Node000033" class="edge">
<title>Node38&#45;&gt;Node33</title>
<g id="a_edge67_Node000038_Node000033"><a xlink:title=" ">
<path fill="none" stroke="#63b8ff" d="M346.27,-559.59C335.08,-551.74 318.88,-540.38 305.63,-531.09"/>
<polygon fill="#63b8ff" stroke="#63b8ff" points="307.64,-528.22 297.44,-525.35 303.62,-533.96 307.64,-528.22"/>
</a>
</g>
</g>
<!-- Node39&#45;&gt;Node2 -->
<g id="edge70_Node000039_Node000002" class="edge">
<title>Node39&#45;&gt;Node2</title>
<g id="a_edge70_Node000039_Node000002"><a xlink:title=" ">
<path fill="none" stroke="#63b8ff" d="M748.04,-559.59C769.67,-547.72 800.03,-526.16 786.69,-504 778.01,-489.59 763,-479.55 747.98,-472.68"/>
<polygon fill="#63b8ff" stroke="#63b8ff" points="749.64,-469.57 739.06,-468.99 746.96,-476.04 749.64,-469.57"/>
</a>
</g>
</g>
</g>
</svg>
