<?xml version="1.0" encoding="UTF-8" standalone="no"?>
<!DOCTYPE svg PUBLIC "-//W3C//DTD SVG 1.1//EN"
 "http://www.w3.org/Graphics/SVG/1.1/DTD/svg11.dtd">
<!-- Generated by graphviz version 12.2.1 (20241206.2353)
 -->
<!-- Title: Celeste/CharacterController.h Pages: 1 -->
<svg width="624pt" height="308pt"
 viewBox="0.00 0.00 624.38 308.00" xmlns="http://www.w3.org/2000/svg" xmlns:xlink="http://www.w3.org/1999/xlink">
<g id="graph0" class="graph" transform="scale(1 1) rotate(0) translate(4 304)">
<title>Celeste/CharacterController.h</title>
<!-- Node1 -->
<g id="Node000001" class="node">
<title>Node1</title>
<g id="a_Node000001"><a xlink:title=" ">
<polygon fill="#999999" stroke="#666666" points="607.75,-300 462,-300 462,-280 607.75,-280 607.75,-300"/>
<text text-anchor="middle" x="534.88" y="-286.5" font-family="Helvetica,sans-Serif" font-size="10.00">Celeste/CharacterController.h</text>
</a>
</g>
</g>
<!-- Node2 -->
<g id="Node000002" class="node">
<title>Node2</title>
<g id="a_Node000002"><a xlink:href="_game_object_8h.html" target="_top" xlink:title=" ">
<polygon fill="white" stroke="#666666" points="481.38,-244 402.38,-244 402.38,-224 481.38,-224 481.38,-244"/>
<text text-anchor="middle" x="441.88" y="-230.5" font-family="Helvetica,sans-Serif" font-size="10.00">GameObject.h</text>
</a>
</g>
</g>
<!-- Node1&#45;&gt;Node2 -->
<g id="edge1_Node000001_Node000002" class="edge">
<title>Node1&#45;&gt;Node2</title>
<g id="a_edge1_Node000001_Node000002"><a xlink:title=" ">
<path fill="none" stroke="#63b8ff" d="M518.68,-279.59C504.63,-271.44 484.04,-259.48 467.72,-250"/>
<polygon fill="#63b8ff" stroke="#63b8ff" points="469.92,-247.23 459.51,-245.24 466.4,-253.29 469.92,-247.23"/>
</a>
</g>
</g>
<!-- Node13 -->
<g id="Node000013" class="node">
<title>Node13</title>
<g id="a_Node000013"><a xlink:href="_vector2x2f_8h.html" target="_top" xlink:title=" ">
<polygon fill="white" stroke="#666666" points="570.25,-244 499.5,-244 499.5,-224 570.25,-224 570.25,-244"/>
<text text-anchor="middle" x="534.88" y="-230.5" font-family="Helvetica,sans-Serif" font-size="10.00">Vector2x2f.h</text>
</a>
</g>
</g>
<!-- Node1&#45;&gt;Node13 -->
<g id="edge14_Node000001_Node000013" class="edge">
<title>Node1&#45;&gt;Node13</title>
<g id="a_edge14_Node000001_Node000013"><a xlink:title=" ">
<path fill="none" stroke="#63b8ff" d="M534.88,-279.59C534.88,-273.01 534.88,-263.96 534.88,-255.73"/>
<polygon fill="#63b8ff" stroke="#63b8ff" points="538.38,-255.81 534.88,-245.81 531.38,-255.81 538.38,-255.81"/>
</a>
</g>
</g>
<!-- Node15 -->
<g id="Node000015" class="node">
<title>Node15</title>
<g id="a_Node000015"><a xlink:title=" ">
<polygon fill="#e0e0e0" stroke="#999999" points="616.38,-132 573.38,-132 573.38,-112 616.38,-112 616.38,-132"/>
<text text-anchor="middle" x="594.88" y="-118.5" font-family="Helvetica,sans-Serif" font-size="10.00">vector</text>
</a>
</g>
</g>
<!-- Node1&#45;&gt;Node15 -->
<g id="edge18_Node000001_Node000015" class="edge">
<title>Node1&#45;&gt;Node15</title>
<g id="a_edge18_Node000001_Node000015"><a xlink:title=" ">
<path fill="none" stroke="#63b8ff" d="M547.57,-279.82C557.83,-271.65 571.7,-258.74 578.88,-244 594.66,-211.55 596.53,-168.72 596,-143.69"/>
<polygon fill="#63b8ff" stroke="#63b8ff" points="599.51,-143.74 595.63,-133.88 592.51,-144 599.51,-143.74"/>
</a>
</g>
</g>
<!-- Node3 -->
<g id="Node000003" class="node">
<title>Node3</title>
<g id="a_Node000003"><a xlink:href="_transform_8h.html" target="_top" xlink:title=" ">
<polygon fill="white" stroke="#666666" points="476.12,-188 407.62,-188 407.62,-168 476.12,-168 476.12,-188"/>
<text text-anchor="middle" x="441.88" y="-174.5" font-family="Helvetica,sans-Serif" font-size="10.00">Transform.h</text>
</a>
</g>
</g>
<!-- Node2&#45;&gt;Node3 -->
<g id="edge2_Node000002_Node000003" class="edge">
<title>Node2&#45;&gt;Node3</title>
<g id="a_edge2_Node000002_Node000003"><a xlink:title=" ">
<path fill="none" stroke="#63b8ff" d="M441.88,-223.59C441.88,-217.01 441.88,-207.96 441.88,-199.73"/>
<polygon fill="#63b8ff" stroke="#63b8ff" points="445.38,-199.81 441.88,-189.81 438.38,-199.81 445.38,-199.81"/>
</a>
</g>
</g>
<!-- Node4 -->
<g id="Node000004" class="node">
<title>Node4</title>
<g id="a_Node000004"><a xlink:href="base_8h.html" target="_top" xlink:title=" ">
<polygon fill="white" stroke="#666666" points="293.5,-132 248.25,-132 248.25,-112 293.5,-112 293.5,-132"/>
<text text-anchor="middle" x="270.88" y="-118.5" font-family="Helvetica,sans-Serif" font-size="10.00">base.h</text>
</a>
</g>
</g>
<!-- Node3&#45;&gt;Node4 -->
<g id="edge3_Node000003_Node000004" class="edge">
<title>Node3&#45;&gt;Node4</title>
<g id="a_edge3_Node000003_Node000004"><a xlink:title=" ">
<path fill="none" stroke="#63b8ff" d="M412.09,-167.59C382.09,-158.12 335.89,-143.53 304.57,-133.64"/>
<polygon fill="#63b8ff" stroke="#63b8ff" points="305.79,-130.36 295.2,-130.68 303.68,-137.03 305.79,-130.36"/>
</a>
</g>
</g>
<!-- Node12 -->
<g id="Node000012" class="node">
<title>Node12</title>
<g id="a_Node000012"><a xlink:href="_vector2f_8h.html" target="_top" xlink:title=" ">
<polygon fill="white" stroke="#666666" points="531,-20 470.75,-20 470.75,0 531,0 531,-20"/>
<text text-anchor="middle" x="500.88" y="-6.5" font-family="Helvetica,sans-Serif" font-size="10.00">Vector2f.h</text>
</a>
</g>
</g>
<!-- Node3&#45;&gt;Node12 -->
<g id="edge13_Node000003_Node000012" class="edge">
<title>Node3&#45;&gt;Node12</title>
<g id="a_edge13_Node000003_Node000012"><a xlink:title=" ">
<path fill="none" stroke="#63b8ff" d="M445.92,-167.64C453.5,-149.94 470.12,-110.25 481.88,-76 486.97,-61.17 491.91,-44.15 495.48,-31.25"/>
<polygon fill="#63b8ff" stroke="#63b8ff" points="498.8,-32.37 498.04,-21.8 492.04,-30.54 498.8,-32.37"/>
</a>
</g>
</g>
<!-- Node5 -->
<g id="Node000005" class="node">
<title>Node5</title>
<g id="a_Node000005"><a xlink:title=" ">
<polygon fill="#e0e0e0" stroke="#999999" points="43.75,-76 0,-76 0,-56 43.75,-56 43.75,-76"/>
<text text-anchor="middle" x="21.88" y="-62.5" font-family="Helvetica,sans-Serif" font-size="10.00">SDL.h</text>
</a>
</g>
</g>
<!-- Node4&#45;&gt;Node5 -->
<g id="edge4_Node000004_Node000005" class="edge">
<title>Node4&#45;&gt;Node5</title>
<g id="a_edge4_Node000004_Node000005"><a xlink:title=" ">
<path fill="none" stroke="#63b8ff" d="M247.83,-116.86C209.78,-109.9 131.22,-94.97 55.34,-76.46"/>
<polygon fill="#63b8ff" stroke="#63b8ff" points="56.19,-73.06 45.64,-74.06 54.51,-79.86 56.19,-73.06"/>
</a>
</g>
</g>
<!-- Node6 -->
<g id="Node000006" class="node">
<title>Node6</title>
<g id="a_Node000006"><a xlink:title=" ">
<polygon fill="#e0e0e0" stroke="#999999" points="139.62,-76 62.12,-76 62.12,-56 139.62,-56 139.62,-76"/>
<text text-anchor="middle" x="100.88" y="-62.5" font-family="Helvetica,sans-Serif" font-size="10.00">SDL_opengl.h</text>
</a>
</g>
</g>
<!-- Node4&#45;&gt;Node6 -->
<g id="edge5_Node000004_Node000006" class="edge">
<title>Node4&#45;&gt;Node6</title>
<g id="a_edge5_Node000004_Node000006"><a xlink:title=" ">
<path fill="none" stroke="#63b8ff" d="M247.95,-113.72C220.67,-105.05 174.64,-90.43 141.33,-79.85"/>
<polygon fill="#63b8ff" stroke="#63b8ff" points="142.6,-76.58 132.01,-76.89 140.48,-83.25 142.6,-76.58"/>
</a>
</g>
</g>
<!-- Node7 -->
<g id="Node000007" class="node">
<title>Node7</title>
<g id="a_Node000007"><a xlink:title=" ">
<polygon fill="#e0e0e0" stroke="#999999" points="215.88,-76 157.88,-76 157.88,-56 215.88,-56 215.88,-76"/>
<text text-anchor="middle" x="186.88" y="-62.5" font-family="Helvetica,sans-Serif" font-size="10.00">SDL_ttf.h</text>
</a>
</g>
</g>
<!-- Node4&#45;&gt;Node7 -->
<g id="edge6_Node000004_Node000007" class="edge">
<title>Node4&#45;&gt;Node7</title>
<g id="a_edge6_Node000004_Node000007"><a xlink:title=" ">
<path fill="none" stroke="#63b8ff" d="M256.24,-111.59C243.79,-103.59 225.66,-91.93 211.05,-82.54"/>
<polygon fill="#63b8ff" stroke="#63b8ff" points="213.2,-79.76 202.89,-77.3 209.41,-85.65 213.2,-79.76"/>
</a>
</g>
</g>
<!-- Node8 -->
<g id="Node000008" class="node">
<title>Node8</title>
<g id="a_Node000008"><a xlink:title=" ">
<polygon fill="#e0e0e0" stroke="#999999" points="307.38,-76 234.38,-76 234.38,-56 307.38,-56 307.38,-76"/>
<text text-anchor="middle" x="270.88" y="-62.5" font-family="Helvetica,sans-Serif" font-size="10.00">SDL_mixer.h</text>
</a>
</g>
</g>
<!-- Node4&#45;&gt;Node8 -->
<g id="edge7_Node000004_Node000008" class="edge">
<title>Node4&#45;&gt;Node8</title>
<g id="a_edge7_Node000004_Node000008"><a xlink:title=" ">
<path fill="none" stroke="#63b8ff" d="M270.88,-111.59C270.88,-105.01 270.88,-95.96 270.88,-87.73"/>
<polygon fill="#63b8ff" stroke="#63b8ff" points="274.38,-87.81 270.88,-77.81 267.38,-87.81 274.38,-87.81"/>
</a>
</g>
</g>
<!-- Node9 -->
<g id="Node000009" class="node">
<title>Node9</title>
<g id="a_Node000009"><a xlink:title=" ">
<polygon fill="#e0e0e0" stroke="#999999" points="400.5,-76 325.25,-76 325.25,-56 400.5,-56 400.5,-76"/>
<text text-anchor="middle" x="362.88" y="-62.5" font-family="Helvetica,sans-Serif" font-size="10.00">SDL_image.h</text>
</a>
</g>
</g>
<!-- Node4&#45;&gt;Node9 -->
<g id="edge8_Node000004_Node000009" class="edge">
<title>Node4&#45;&gt;Node9</title>
<g id="a_edge8_Node000004_Node000009"><a xlink:title=" ">
<path fill="none" stroke="#63b8ff" d="M286.9,-111.59C300.67,-103.51 320.78,-91.71 336.85,-82.27"/>
<polygon fill="#63b8ff" stroke="#63b8ff" points="338.57,-85.33 345.42,-77.25 335.02,-79.29 338.57,-85.33"/>
</a>
</g>
</g>
<!-- Node10 -->
<g id="Node000010" class="node">
<title>Node10</title>
<g id="a_Node000010"><a xlink:href="structs_8h.html" target="_top" xlink:title=" ">
<polygon fill="white" stroke="#666666" points="473,-76 418.75,-76 418.75,-56 473,-56 473,-76"/>
<text text-anchor="middle" x="445.88" y="-62.5" font-family="Helvetica,sans-Serif" font-size="10.00">structs.h</text>
</a>
</g>
</g>
<!-- Node4&#45;&gt;Node10 -->
<g id="edge9_Node000004_Node000010" class="edge">
<title>Node4&#45;&gt;Node10</title>
<g id="a_edge9_Node000004_Node000010"><a xlink:title=" ">
<path fill="none" stroke="#63b8ff" d="M293.75,-113.94C322.68,-105.01 372.89,-89.52 407.68,-78.79"/>
<polygon fill="#63b8ff" stroke="#63b8ff" points="408.41,-82.22 416.93,-75.93 406.35,-75.53 408.41,-82.22"/>
</a>
</g>
</g>
<!-- Node11 -->
<g id="Node000011" class="node">
<title>Node11</title>
<g id="a_Node000011"><a xlink:title=" ">
<polygon fill="#e0e0e0" stroke="#999999" points="452.88,-20 412.88,-20 412.88,0 452.88,0 452.88,-20"/>
<text text-anchor="middle" x="432.88" y="-6.5" font-family="Helvetica,sans-Serif" font-size="10.00">string</text>
</a>
</g>
</g>
<!-- Node10&#45;&gt;Node11 -->
<g id="edge10_Node000010_Node000011" class="edge">
<title>Node10&#45;&gt;Node11</title>
<g id="a_edge10_Node000010_Node000011"><a xlink:title=" ">
<path fill="none" stroke="#63b8ff" d="M443.61,-55.59C442.01,-48.93 439.8,-39.75 437.8,-31.44"/>
<polygon fill="#63b8ff" stroke="#63b8ff" points="441.21,-30.67 435.47,-21.77 434.41,-32.31 441.21,-30.67"/>
</a>
</g>
</g>
<!-- Node10&#45;&gt;Node12 -->
<g id="edge11_Node000010_Node000012" class="edge">
<title>Node10&#45;&gt;Node12</title>
<g id="a_edge11_Node000010_Node000012"><a xlink:title=" ">
<path fill="none" stroke="#63b8ff" d="M450.19,-55.59C456.46,-47.93 467.34,-36.91 477.52,-27.75"/>
<polygon fill="#63b8ff" stroke="#63b8ff" points="479.73,-30.47 485.01,-21.29 475.15,-25.17 479.73,-30.47"/>
</a>
</g>
</g>
<!-- Node12&#45;&gt;Node10 -->
<g id="edge12_Node000012_Node000010" class="edge">
<title>Node12&#45;&gt;Node10</title>
<g id="a_edge12_Node000012_Node000010"><a xlink:title=" ">
<path fill="none" stroke="#63b8ff" d="M496.65,-20.3C490.42,-27.93 479.56,-38.94 469.37,-48.13"/>
<polygon fill="#63b8ff" stroke="#63b8ff" points="467.15,-45.42 461.87,-54.6 471.72,-50.72 467.15,-45.42"/>
</a>
</g>
</g>
<!-- Node14 -->
<g id="Node000014" class="node">
<title>Node14</title>
<g id="a_Node000014"><a xlink:href="utils_8h.html" target="_top" xlink:title=" ">
<polygon fill="white" stroke="#666666" points="560,-188 517.75,-188 517.75,-168 560,-168 560,-188"/>
<text text-anchor="middle" x="538.88" y="-174.5" font-family="Helvetica,sans-Serif" font-size="10.00">utils.h</text>
</a>
</g>
</g>
<!-- Node13&#45;&gt;Node14 -->
<g id="edge15_Node000013_Node000014" class="edge">
<title>Node13&#45;&gt;Node14</title>
<g id="a_edge15_Node000013_Node000014"><a xlink:title=" ">
<path fill="none" stroke="#63b8ff" d="M535.57,-223.59C536.06,-217.01 536.73,-207.96 537.34,-199.73"/>
<polygon fill="#63b8ff" stroke="#63b8ff" points="540.83,-200.04 538.07,-189.81 533.85,-199.52 540.83,-200.04"/>
</a>
</g>
</g>
<!-- Node14&#45;&gt;Node12 -->
<g id="edge17_Node000014_Node000012" class="edge">
<title>Node14&#45;&gt;Node12</title>
<g id="a_edge17_Node000014_Node000012"><a xlink:title=" ">
<path fill="none" stroke="#63b8ff" d="M537.34,-167.51C533.96,-147.01 525.31,-97.1 514.88,-56 512.79,-47.78 510.09,-38.83 507.63,-31.1"/>
<polygon fill="#63b8ff" stroke="#63b8ff" points="510.97,-30.08 504.53,-21.66 504.32,-32.26 510.97,-30.08"/>
</a>
</g>
</g>
<!-- Node14&#45;&gt;Node15 -->
<g id="edge16_Node000014_Node000015" class="edge">
<title>Node14&#45;&gt;Node15</title>
<g id="a_edge16_Node000014_Node000015"><a xlink:title=" ">
<path fill="none" stroke="#63b8ff" d="M548.63,-167.59C556.5,-160.01 567.77,-149.13 577.22,-140.02"/>
<polygon fill="#63b8ff" stroke="#63b8ff" points="579.37,-142.81 584.14,-133.35 574.51,-137.77 579.37,-142.81"/>
</a>
</g>
</g>
</g>
</svg>
