<?xml version="1.0" encoding="UTF-8" standalone="no"?>
<!DOCTYPE svg PUBLIC "-//W3C//DTD SVG 1.1//EN"
 "http://www.w3.org/Graphics/SVG/1.1/DTD/svg11.dtd">
<!-- Generated by graphviz version 12.2.1 (20241206.2353)
 -->
<!-- Title: Celeste/CharacterState.h Pages: 1 -->
<svg width="1911pt" height="612pt"
 viewBox="0.00 0.00 1910.88 612.00" xmlns="http://www.w3.org/2000/svg" xmlns:xlink="http://www.w3.org/1999/xlink">
<g id="graph0" class="graph" transform="scale(1 1) rotate(0) translate(4 608)">
<title>Celeste/CharacterState.h</title>
<!-- Node1 -->
<g id="Node000001" class="node">
<title>Node1</title>
<g id="a_Node000001"><a xlink:title=" ">
<polygon fill="#999999" stroke="#666666" points="313.25,-604 186.25,-604 186.25,-584 313.25,-584 313.25,-604"/>
<text text-anchor="middle" x="249.75" y="-590.5" font-family="Helvetica,sans-Serif" font-size="10.00">Celeste/CharacterState.h</text>
</a>
</g>
</g>
<!-- Node2 -->
<g id="Node000002" class="node">
<title>Node2</title>
<g id="a_Node000002"><a xlink:href="_character_8h.html" target="_top" xlink:title=" ">
<polygon fill="white" stroke="#666666" points="301.62,-474 197.88,-474 197.88,-454 301.62,-454 301.62,-474"/>
<text text-anchor="middle" x="249.75" y="-460.5" font-family="Helvetica,sans-Serif" font-size="10.00">Celeste/Character.h</text>
</a>
</g>
</g>
<!-- Node1&#45;&gt;Node2 -->
<g id="edge1_Node000001_Node000002" class="edge">
<title>Node1&#45;&gt;Node2</title>
<g id="a_edge1_Node000001_Node000002"><a xlink:title=" ">
<path fill="none" stroke="#63b8ff" d="M249.75,-572.57C249.75,-544.49 249.75,-495.09 249.75,-474.47"/>
<polygon fill="#63b8ff" stroke="#63b8ff" points="246.25,-572.28 249.75,-582.28 253.25,-572.28 246.25,-572.28"/>
</a>
</g>
</g>
<!-- Node33 -->
<g id="Node000033" class="node">
<title>Node33</title>
<g id="a_Node000033"><a xlink:href="_character_sound_manager_8h.html" target="_top" xlink:title=" ">
<polygon fill="white" stroke="#666666" points="221.25,-542 52.25,-542 52.25,-522 221.25,-522 221.25,-542"/>
<text text-anchor="middle" x="136.75" y="-528.5" font-family="Helvetica,sans-Serif" font-size="10.00">Celeste/CharacterSoundManager.h</text>
</a>
</g>
</g>
<!-- Node1&#45;&gt;Node33 -->
<g id="edge44_Node000001_Node000033" class="edge">
<title>Node1&#45;&gt;Node33</title>
<g id="a_edge44_Node000001_Node000033"><a xlink:title=" ">
<path fill="none" stroke="#63b8ff" d="M222.09,-578.31C200.93,-567.08 172.4,-551.93 154.28,-542.31"/>
<polygon fill="#63b8ff" stroke="#63b8ff" points="220.28,-581.32 230.76,-582.92 223.57,-575.13 220.28,-581.32"/>
</a>
</g>
</g>
<!-- Node35 -->
<g id="Node000035" class="node">
<title>Node35</title>
<g id="a_Node000035"><a xlink:href="_character_texture_manager_8h.html" target="_top" xlink:title=" ">
<polygon fill="white" stroke="#666666" points="405.62,-548 277.88,-548 277.88,-516 405.62,-516 405.62,-548"/>
<text text-anchor="start" x="285.88" y="-534.5" font-family="Helvetica,sans-Serif" font-size="10.00">Celeste/CharacterTexture</text>
<text text-anchor="middle" x="341.75" y="-522.5" font-family="Helvetica,sans-Serif" font-size="10.00">Manager.h</text>
</a>
</g>
</g>
<!-- Node1&#45;&gt;Node35 -->
<g id="edge47_Node000001_Node000035" class="edge">
<title>Node1&#45;&gt;Node35</title>
<g id="a_edge47_Node000001_Node000035"><a xlink:title=" ">
<path fill="none" stroke="#63b8ff" d="M273.42,-577.56C287.17,-568.6 304.44,-557.33 318.18,-548.37"/>
<polygon fill="#63b8ff" stroke="#63b8ff" points="271.86,-574.4 265.39,-582.8 275.68,-580.27 271.86,-574.4"/>
</a>
</g>
</g>
<!-- Node3 -->
<g id="Node000003" class="node">
<title>Node3</title>
<g id="a_Node000003"><a xlink:href="_character_8cpp.html" target="_top" xlink:title=" ">
<polygon fill="white" stroke="#666666" points="202.88,-412 88.62,-412 88.62,-392 202.88,-392 202.88,-412"/>
<text text-anchor="middle" x="145.75" y="-398.5" font-family="Helvetica,sans-Serif" font-size="10.00">Celeste/Character.cpp</text>
</a>
</g>
</g>
<!-- Node2&#45;&gt;Node3 -->
<g id="edge2_Node000002_Node000003" class="edge">
<title>Node2&#45;&gt;Node3</title>
<g id="a_edge2_Node000002_Node000003"><a xlink:title=" ">
<path fill="none" stroke="#63b8ff" d="M223.75,-448C204.34,-436.8 178.4,-421.84 161.89,-412.31"/>
<polygon fill="#63b8ff" stroke="#63b8ff" points="221.78,-450.9 232.19,-452.87 225.28,-444.84 221.78,-450.9"/>
</a>
</g>
</g>
<!-- Node4 -->
<g id="Node000004" class="node">
<title>Node4</title>
<g id="a_Node000004"><a xlink:href="_game_8h.html" target="_top" xlink:title=" ">
<polygon fill="white" stroke="#666666" points="274.38,-76 187.12,-76 187.12,-56 274.38,-56 274.38,-76"/>
<text text-anchor="middle" x="230.75" y="-62.5" font-family="Helvetica,sans-Serif" font-size="10.00">Celeste/Game.h</text>
</a>
</g>
</g>
<!-- Node2&#45;&gt;Node4 -->
<g id="edge3_Node000002_Node000004" class="edge">
<title>Node2&#45;&gt;Node4</title>
<g id="a_edge3_Node000002_Node000004"><a xlink:title=" ">
<path fill="none" stroke="#63b8ff" d="M244.38,-442.72C238.76,-419.7 230.75,-380.92 230.75,-347 230.75,-347 230.75,-347 230.75,-177 230.75,-139.76 230.75,-95.43 230.75,-76.42"/>
<polygon fill="#63b8ff" stroke="#63b8ff" points="240.96,-443.47 246.81,-452.3 247.74,-441.74 240.96,-443.47"/>
</a>
</g>
</g>
<!-- Node7 -->
<g id="Node000007" class="node">
<title>Node7</title>
<g id="a_Node000007"><a xlink:href="_interactable_item_8h.html" target="_top" xlink:title=" ">
<polygon fill="white" stroke="#666666" points="1024.5,-412 893,-412 893,-392 1024.5,-392 1024.5,-412"/>
<text text-anchor="middle" x="958.75" y="-398.5" font-family="Helvetica,sans-Serif" font-size="10.00">Celeste/InteractableItem.h</text>
</a>
</g>
</g>
<!-- Node2&#45;&gt;Node7 -->
<g id="edge6_Node000002_Node000007" class="edge">
<title>Node2&#45;&gt;Node7</title>
<g id="a_edge6_Node000002_Node000007"><a xlink:title=" ">
<path fill="none" stroke="#63b8ff" d="M294.65,-451.04C300.05,-449.87 305.5,-448.82 310.75,-448 521.6,-415 774.84,-406.2 892.56,-403.85"/>
<polygon fill="#63b8ff" stroke="#63b8ff" points="294.17,-447.55 285.21,-453.21 295.74,-454.38 294.17,-447.55"/>
</a>
</g>
</g>
<!-- Node11 -->
<g id="Node000011" class="node">
<title>Node11</title>
<g id="a_Node000011"><a xlink:href="_level_manager_8h.html" target="_top" xlink:title=" ">
<polygon fill="white" stroke="#666666" points="380.62,-132 258.88,-132 258.88,-112 380.62,-112 380.62,-132"/>
<text text-anchor="middle" x="319.75" y="-118.5" font-family="Helvetica,sans-Serif" font-size="10.00">Celeste/LevelManager.h</text>
</a>
</g>
</g>
<!-- Node2&#45;&gt;Node11 -->
<g id="edge43_Node000002_Node000011" class="edge">
<title>Node2&#45;&gt;Node11</title>
<g id="a_edge43_Node000002_Node000011"><a xlink:title=" ">
<path fill="none" stroke="#63b8ff" d="M255.12,-442.72C260.74,-419.7 268.75,-380.92 268.75,-347 268.75,-347 268.75,-347 268.75,-233 268.75,-192.37 297.74,-150.48 312,-132.33"/>
<polygon fill="#63b8ff" stroke="#63b8ff" points="251.76,-441.74 252.69,-452.3 258.54,-443.47 251.76,-441.74"/>
</a>
</g>
</g>
<!-- Node5 -->
<g id="Node000005" class="node">
<title>Node5</title>
<g id="a_Node000005"><a xlink:href="_game_8cpp.html" target="_top" xlink:title=" ">
<polygon fill="white" stroke="#666666" points="223.62,-20 125.88,-20 125.88,0 223.62,0 223.62,-20"/>
<text text-anchor="middle" x="174.75" y="-6.5" font-family="Helvetica,sans-Serif" font-size="10.00">Celeste/Game.cpp</text>
</a>
</g>
</g>
<!-- Node4&#45;&gt;Node5 -->
<g id="edge4_Node000004_Node000005" class="edge">
<title>Node4&#45;&gt;Node5</title>
<g id="a_edge4_Node000004_Node000005"><a xlink:title=" ">
<path fill="none" stroke="#63b8ff" d="M212.96,-47.85C203.5,-38.72 192.23,-27.86 184.39,-20.3"/>
<polygon fill="#63b8ff" stroke="#63b8ff" points="210.28,-50.12 219.91,-54.54 215.14,-45.08 210.28,-50.12"/>
</a>
</g>
</g>
<!-- Node6 -->
<g id="Node000006" class="node">
<title>Node6</title>
<g id="a_Node000006"><a xlink:href="main_8cpp.html" target="_top" xlink:title=" ">
<polygon fill="white" stroke="#666666" points="334,-20 241.5,-20 241.5,0 334,0 334,-20"/>
<text text-anchor="middle" x="287.75" y="-6.5" font-family="Helvetica,sans-Serif" font-size="10.00">Celeste/main.cpp</text>
</a>
</g>
</g>
<!-- Node4&#45;&gt;Node6 -->
<g id="edge5_Node000004_Node000006" class="edge">
<title>Node4&#45;&gt;Node6</title>
<g id="a_edge5_Node000004_Node000006"><a xlink:title=" ">
<path fill="none" stroke="#63b8ff" d="M248.86,-47.85C258.49,-38.72 269.96,-27.86 277.94,-20.3"/>
<polygon fill="#63b8ff" stroke="#63b8ff" points="246.63,-45.13 241.78,-54.55 251.44,-50.22 246.63,-45.13"/>
</a>
</g>
</g>
<!-- Node8 -->
<g id="Node000008" class="node">
<title>Node8</title>
<g id="a_Node000008"><a xlink:href="_chapter_info_8h.html" target="_top" xlink:title=" ">
<polygon fill="white" stroke="#666666" points="1090.75,-244 978.75,-244 978.75,-224 1090.75,-224 1090.75,-244"/>
<text text-anchor="middle" x="1034.75" y="-230.5" font-family="Helvetica,sans-Serif" font-size="10.00">Celeste/ChapterInfo.h</text>
</a>
</g>
</g>
<!-- Node7&#45;&gt;Node8 -->
<g id="edge7_Node000007_Node000008" class="edge">
<title>Node7&#45;&gt;Node8</title>
<g id="a_edge7_Node000007_Node000008"><a xlink:title=" ">
<path fill="none" stroke="#63b8ff" d="M881.28,-397.53C704.29,-388.2 290.96,-357.83 363.75,-280 384.63,-257.67 820.71,-241.75 978.44,-236.7"/>
<polygon fill="#63b8ff" stroke="#63b8ff" points="880.91,-401.01 891.07,-398.03 881.27,-394.02 880.91,-401.01"/>
</a>
</g>
</g>
<!-- Node9 -->
<g id="Node000009" class="node">
<title>Node9</title>
<g id="a_Node000009"><a xlink:href="_chapter_loader_8h.html" target="_top" xlink:title=" ">
<polygon fill="white" stroke="#666666" points="529.12,-188 404.38,-188 404.38,-168 529.12,-168 529.12,-188"/>
<text text-anchor="middle" x="466.75" y="-174.5" font-family="Helvetica,sans-Serif" font-size="10.00">Celeste/ChapterLoader.h</text>
</a>
</g>
</g>
<!-- Node7&#45;&gt;Node9 -->
<g id="edge14_Node000007_Node000009" class="edge">
<title>Node7&#45;&gt;Node9</title>
<g id="a_edge14_Node000007_Node000009"><a xlink:title=" ">
<path fill="none" stroke="#63b8ff" d="M881.45,-401.85C748.5,-402.15 482.89,-397.34 400.75,-356 364.85,-337.93 335.18,-316.61 351.75,-280 371.69,-235.94 421.4,-203.48 448.48,-188.39"/>
<polygon fill="#63b8ff" stroke="#63b8ff" points="881.22,-405.35 891.21,-401.82 881.2,-398.35 881.22,-405.35"/>
</a>
</g>
</g>
<!-- Node14 -->
<g id="Node000014" class="node">
<title>Node14</title>
<g id="a_Node000014"><a xlink:href="_cog_platform_8h.html" target="_top" xlink:title=" ">
<polygon fill="white" stroke="#666666" points="670.62,-356 554.88,-356 554.88,-336 670.62,-336 670.62,-356"/>
<text text-anchor="middle" x="612.75" y="-342.5" font-family="Helvetica,sans-Serif" font-size="10.00">Celeste/CogPlatform.h</text>
</a>
</g>
</g>
<!-- Node7&#45;&gt;Node14 -->
<g id="edge15_Node000007_Node000014" class="edge">
<title>Node7&#45;&gt;Node14</title>
<g id="a_edge15_Node000007_Node000014"><a xlink:title=" ">
<path fill="none" stroke="#63b8ff" d="M886.88,-389.78C822.91,-379.8 730.51,-365.38 671.04,-356.1"/>
<polygon fill="#63b8ff" stroke="#63b8ff" points="886.17,-393.21 896.59,-391.3 887.25,-386.3 886.17,-393.21"/>
</a>
</g>
</g>
<!-- Node16 -->
<g id="Node000016" class="node">
<title>Node16</title>
<g id="a_Node000016"><a xlink:href="_crumble_block_8h.html" target="_top" xlink:title=" ">
<polygon fill="white" stroke="#666666" points="1231,-356 1108.5,-356 1108.5,-336 1231,-336 1231,-356"/>
<text text-anchor="middle" x="1169.75" y="-342.5" font-family="Helvetica,sans-Serif" font-size="10.00">Celeste/CrumbleBlock.h</text>
</a>
</g>
</g>
<!-- Node7&#45;&gt;Node16 -->
<g id="edge18_Node000007_Node000016" class="edge">
<title>Node7&#45;&gt;Node16</title>
<g id="a_edge18_Node000007_Node000016"><a xlink:title=" ">
<path fill="none" stroke="#63b8ff" d="M1006.37,-388.81C1044.62,-379.02 1097.58,-365.47 1132.71,-356.48"/>
<polygon fill="#63b8ff" stroke="#63b8ff" points="1005.79,-385.35 996.97,-391.22 1007.53,-392.13 1005.79,-385.35"/>
</a>
</g>
</g>
<!-- Node18 -->
<g id="Node000018" class="node">
<title>Node18</title>
<g id="a_Node000018"><a xlink:href="_dash_crystal_8h.html" target="_top" xlink:title=" ">
<polygon fill="white" stroke="#666666" points="1090.62,-356 974.88,-356 974.88,-336 1090.62,-336 1090.62,-356"/>
<text text-anchor="middle" x="1032.75" y="-342.5" font-family="Helvetica,sans-Serif" font-size="10.00">Celeste/DashCrystal.h</text>
</a>
</g>
</g>
<!-- Node7&#45;&gt;Node18 -->
<g id="edge21_Node000007_Node000018" class="edge">
<title>Node7&#45;&gt;Node18</title>
<g id="a_edge21_Node000007_Node000018"><a xlink:title=" ">
<path fill="none" stroke="#63b8ff" d="M980.74,-384.95C993.54,-375.61 1009.23,-364.16 1020.01,-356.3"/>
<polygon fill="#63b8ff" stroke="#63b8ff" points="978.88,-381.98 972.86,-390.7 983,-387.63 978.88,-381.98"/>
</a>
</g>
</g>
<!-- Node20 -->
<g id="Node000020" class="node">
<title>Node20</title>
<g id="a_Node000020"><a xlink:href="_interactable_item_8cpp.html" target="_top" xlink:title=" ">
<polygon fill="white" stroke="#666666" points="956.75,-356 814.75,-356 814.75,-336 956.75,-336 956.75,-356"/>
<text text-anchor="middle" x="885.75" y="-342.5" font-family="Helvetica,sans-Serif" font-size="10.00">Celeste/InteractableItem.cpp</text>
</a>
</g>
</g>
<!-- Node7&#45;&gt;Node20 -->
<g id="edge24_Node000007_Node000020" class="edge">
<title>Node7&#45;&gt;Node20</title>
<g id="a_edge24_Node000007_Node000020"><a xlink:title=" ">
<path fill="none" stroke="#63b8ff" d="M937.06,-384.95C924.43,-375.61 908.95,-364.16 898.32,-356.3"/>
<polygon fill="#63b8ff" stroke="#63b8ff" points="934.7,-387.56 944.82,-390.69 938.86,-381.93 934.7,-387.56"/>
</a>
</g>
</g>
<!-- Node21 -->
<g id="Node000021" class="node">
<title>Node21</title>
<g id="a_Node000021"><a xlink:href="_level_8h.html" target="_top" xlink:title=" ">
<polygon fill="white" stroke="#666666" points="1670.88,-356 1586.62,-356 1586.62,-336 1670.88,-336 1670.88,-356"/>
<text text-anchor="middle" x="1628.75" y="-342.5" font-family="Helvetica,sans-Serif" font-size="10.00">Celeste/Level.h</text>
</a>
</g>
</g>
<!-- Node7&#45;&gt;Node21 -->
<g id="edge25_Node000007_Node000021" class="edge">
<title>Node7&#45;&gt;Node21</title>
<g id="a_edge25_Node000007_Node000021"><a xlink:title=" ">
<path fill="none" stroke="#63b8ff" d="M1035.99,-394.8C1143.85,-386.13 1345.7,-369.9 1517.75,-356 1540.39,-354.17 1565.64,-352.12 1586.32,-350.45"/>
<polygon fill="#63b8ff" stroke="#63b8ff" points="1035.78,-391.3 1026.09,-395.59 1036.34,-398.28 1035.78,-391.3"/>
</a>
</g>
</g>
<!-- Node23 -->
<g id="Node000023" class="node">
<title>Node23</title>
<g id="a_Node000023"><a xlink:href="_respawn_zone_8h.html" target="_top" xlink:title=" ">
<polygon fill="white" stroke="#666666" points="1380.75,-356 1256.75,-356 1256.75,-336 1380.75,-336 1380.75,-356"/>
<text text-anchor="middle" x="1318.75" y="-342.5" font-family="Helvetica,sans-Serif" font-size="10.00">Celeste/RespawnZone.h</text>
</a>
</g>
</g>
<!-- Node7&#45;&gt;Node23 -->
<g id="edge28_Node000007_Node000023" class="edge">
<title>Node7&#45;&gt;Node23</title>
<g id="a_edge28_Node000007_Node000023"><a xlink:title=" ">
<path fill="none" stroke="#63b8ff" d="M1033.01,-389.86C1098.94,-379.97 1194.21,-365.68 1256.31,-356.37"/>
<polygon fill="#63b8ff" stroke="#63b8ff" points="1032.74,-386.36 1023.37,-391.31 1033.77,-393.29 1032.74,-386.36"/>
</a>
</g>
</g>
<!-- Node25 -->
<g id="Node000025" class="node">
<title>Node25</title>
<g id="a_Node000025"><a xlink:href="_spike_8h.html" target="_top" xlink:title=" ">
<polygon fill="white" stroke="#666666" points="1821.62,-356 1735.88,-356 1735.88,-336 1821.62,-336 1821.62,-356"/>
<text text-anchor="middle" x="1778.75" y="-342.5" font-family="Helvetica,sans-Serif" font-size="10.00">Celeste/Spike.h</text>
</a>
</g>
</g>
<!-- Node7&#45;&gt;Node25 -->
<g id="edge31_Node000007_Node000025" class="edge">
<title>Node7&#45;&gt;Node25</title>
<g id="a_edge31_Node000007_Node000025"><a xlink:title=" ">
<path fill="none" stroke="#63b8ff" d="M1036.07,-396.89C1168.12,-389.72 1445.54,-373.95 1679.75,-356 1697.99,-354.6 1718.1,-352.82 1735.4,-351.21"/>
<polygon fill="#63b8ff" stroke="#63b8ff" points="1036.21,-393.38 1026.41,-397.42 1036.58,-400.37 1036.21,-393.38"/>
</a>
</g>
</g>
<!-- Node27 -->
<g id="Node000027" class="node">
<title>Node27</title>
<g id="a_Node000027"><a xlink:href="_strawberry_8h.html" target="_top" xlink:title=" ">
<polygon fill="white" stroke="#666666" points="796.5,-356 689,-356 689,-336 796.5,-336 796.5,-356"/>
<text text-anchor="middle" x="742.75" y="-342.5" font-family="Helvetica,sans-Serif" font-size="10.00">Celeste/Strawberry.h</text>
</a>
</g>
</g>
<!-- Node7&#45;&gt;Node27 -->
<g id="edge34_Node000007_Node000027" class="edge">
<title>Node7&#45;&gt;Node27</title>
<g id="a_edge34_Node000007_Node000027"><a xlink:title=" ">
<path fill="none" stroke="#63b8ff" d="M910,-388.81C870.84,-379.02 816.63,-365.47 780.67,-356.48"/>
<polygon fill="#63b8ff" stroke="#63b8ff" points="909.11,-392.2 919.66,-391.23 910.8,-385.41 909.11,-392.2"/>
</a>
</g>
</g>
<!-- Node31 -->
<g id="Node000031" class="node">
<title>Node31</title>
<g id="a_Node000031"><a xlink:href="_trampoline_8h.html" target="_top" xlink:title=" ">
<polygon fill="white" stroke="#666666" points="1508.25,-356 1399.25,-356 1399.25,-336 1508.25,-336 1508.25,-356"/>
<text text-anchor="middle" x="1453.75" y="-342.5" font-family="Helvetica,sans-Serif" font-size="10.00">Celeste/Trampoline.h</text>
</a>
</g>
</g>
<!-- Node7&#45;&gt;Node31 -->
<g id="edge40_Node000007_Node000031" class="edge">
<title>Node7&#45;&gt;Node31</title>
<g id="a_edge40_Node000007_Node000031"><a xlink:title=" ">
<path fill="none" stroke="#63b8ff" d="M1036.19,-393.75C1122.54,-385.48 1266.29,-371.12 1389.75,-356 1392.76,-355.63 1395.84,-355.24 1398.95,-354.84"/>
<polygon fill="#63b8ff" stroke="#63b8ff" points="1036.05,-390.25 1026.42,-394.69 1036.71,-397.22 1036.05,-390.25"/>
</a>
</g>
</g>
<!-- Node8&#45;&gt;Node9 -->
<g id="edge8_Node000008_Node000009" class="edge">
<title>Node8&#45;&gt;Node9</title>
<g id="a_edge8_Node000008_Node000009"><a xlink:title=" ">
<path fill="none" stroke="#63b8ff" d="M967.11,-226.57C856.21,-216.03 637.27,-195.21 529.58,-184.97"/>
<polygon fill="#63b8ff" stroke="#63b8ff" points="966.68,-230.04 976.97,-227.51 967.34,-223.08 966.68,-230.04"/>
</a>
</g>
</g>
<!-- Node10 -->
<g id="Node000010" class="node">
<title>Node10</title>
<g id="a_Node000010"><a xlink:href="_chapter_loader_8cpp.html" target="_top" xlink:title=" ">
<polygon fill="white" stroke="#666666" points="534.38,-132 399.12,-132 399.12,-112 534.38,-112 534.38,-132"/>
<text text-anchor="middle" x="466.75" y="-118.5" font-family="Helvetica,sans-Serif" font-size="10.00">Celeste/ChapterLoader.cpp</text>
</a>
</g>
</g>
<!-- Node9&#45;&gt;Node10 -->
<g id="edge9_Node000009_Node000010" class="edge">
<title>Node9&#45;&gt;Node10</title>
<g id="a_edge9_Node000009_Node000010"><a xlink:title=" ">
<path fill="none" stroke="#63b8ff" d="M466.75,-156.13C466.75,-147.9 466.75,-138.85 466.75,-132.3"/>
<polygon fill="#63b8ff" stroke="#63b8ff" points="463.25,-156.08 466.75,-166.08 470.25,-156.08 463.25,-156.08"/>
</a>
</g>
</g>
<!-- Node9&#45;&gt;Node11 -->
<g id="edge10_Node000009_Node000011" class="edge">
<title>Node9&#45;&gt;Node11</title>
<g id="a_edge10_Node000009_Node000011"><a xlink:title=" ">
<path fill="none" stroke="#63b8ff" d="M430.44,-163.66C404.09,-153.98 369.08,-141.12 345.56,-132.48"/>
<polygon fill="#63b8ff" stroke="#63b8ff" points="429.13,-166.91 439.72,-167.07 431.54,-160.34 429.13,-166.91"/>
</a>
</g>
</g>
<!-- Node13 -->
<g id="Node000013" class="node">
<title>Node13</title>
<g id="a_Node000013"><a xlink:href="_pause_menu_8cpp.html" target="_top" xlink:title=" ">
<polygon fill="white" stroke="#666666" points="675.38,-132 552.12,-132 552.12,-112 675.38,-112 675.38,-132"/>
<text text-anchor="middle" x="613.75" y="-118.5" font-family="Helvetica,sans-Serif" font-size="10.00">Celeste/PauseMenu.cpp</text>
</a>
</g>
</g>
<!-- Node9&#45;&gt;Node13 -->
<g id="edge13_Node000009_Node000013" class="edge">
<title>Node9&#45;&gt;Node13</title>
<g id="a_edge13_Node000009_Node000013"><a xlink:title=" ">
<path fill="none" stroke="#63b8ff" d="M503.06,-163.66C529.41,-153.98 564.42,-141.12 587.94,-132.48"/>
<polygon fill="#63b8ff" stroke="#63b8ff" points="501.96,-160.34 493.78,-167.07 504.37,-166.91 501.96,-160.34"/>
</a>
</g>
</g>
<!-- Node11&#45;&gt;Node4 -->
<g id="edge11_Node000011_Node000004" class="edge">
<title>Node11&#45;&gt;Node4</title>
<g id="a_edge11_Node000011_Node000004"><a xlink:title=" ">
<path fill="none" stroke="#63b8ff" d="M294.72,-105.81C279.19,-96.39 259.73,-84.58 246.37,-76.48"/>
<polygon fill="#63b8ff" stroke="#63b8ff" points="292.59,-108.61 302.95,-110.81 296.22,-102.63 292.59,-108.61"/>
</a>
</g>
</g>
<!-- Node12 -->
<g id="Node000012" class="node">
<title>Node12</title>
<g id="a_Node000012"><a xlink:href="_level_manager_8cpp.html" target="_top" xlink:title=" ">
<polygon fill="white" stroke="#666666" points="424.88,-76 292.62,-76 292.62,-56 424.88,-56 424.88,-76"/>
<text text-anchor="middle" x="358.75" y="-62.5" font-family="Helvetica,sans-Serif" font-size="10.00">Celeste/LevelManager.cpp</text>
</a>
</g>
</g>
<!-- Node11&#45;&gt;Node12 -->
<g id="edge12_Node000011_Node000012" class="edge">
<title>Node11&#45;&gt;Node12</title>
<g id="a_edge12_Node000011_Node000012"><a xlink:title=" ">
<path fill="none" stroke="#63b8ff" d="M333.16,-102.44C339.52,-93.62 346.86,-83.47 352.03,-76.3"/>
<polygon fill="#63b8ff" stroke="#63b8ff" points="330.45,-100.21 327.43,-110.37 336.12,-104.31 330.45,-100.21"/>
</a>
</g>
</g>
<!-- Node14&#45;&gt;Node8 -->
<g id="edge16_Node000014_Node000008" class="edge">
<title>Node14&#45;&gt;Node8</title>
<g id="a_edge16_Node000014_Node000008"><a xlink:title=" ">
<path fill="none" stroke="#63b8ff" d="M629.5,-327.85C645.52,-312.59 671.11,-291.04 697.75,-280 747.24,-259.5 895.95,-245.45 978.31,-239.01"/>
<polygon fill="#63b8ff" stroke="#63b8ff" points="627.4,-325.01 622.72,-334.51 632.31,-330 627.4,-325.01"/>
</a>
</g>
</g>
<!-- Node15 -->
<g id="Node000015" class="node">
<title>Node15</title>
<g id="a_Node000015"><a xlink:href="_cog_platform_8cpp.html" target="_top" xlink:title=" ">
<polygon fill="white" stroke="#666666" points="498.88,-300 372.62,-300 372.62,-280 498.88,-280 498.88,-300"/>
<text text-anchor="middle" x="435.75" y="-286.5" font-family="Helvetica,sans-Serif" font-size="10.00">Celeste/CogPlatform.cpp</text>
</a>
</g>
</g>
<!-- Node14&#45;&gt;Node15 -->
<g id="edge17_Node000014_Node000015" class="edge">
<title>Node14&#45;&gt;Node15</title>
<g id="a_edge17_Node000014_Node000015"><a xlink:title=" ">
<path fill="none" stroke="#63b8ff" d="M571.14,-332.31C539.19,-322.56 495.79,-309.32 466.82,-300.48"/>
<polygon fill="#63b8ff" stroke="#63b8ff" points="569.89,-335.58 580.47,-335.15 571.93,-328.89 569.89,-335.58"/>
</a>
</g>
</g>
<!-- Node16&#45;&gt;Node8 -->
<g id="edge19_Node000016_Node000008" class="edge">
<title>Node16&#45;&gt;Node8</title>
<g id="a_edge19_Node000016_Node000008"><a xlink:title=" ">
<path fill="none" stroke="#63b8ff" d="M1139.78,-330.33C1124.92,-322.37 1107.12,-311.75 1092.75,-300 1071.68,-282.76 1051.56,-257.63 1041.48,-244.23"/>
<polygon fill="#63b8ff" stroke="#63b8ff" points="1138.17,-333.44 1148.66,-334.94 1141.4,-327.23 1138.17,-333.44"/>
</a>
</g>
</g>
<!-- Node17 -->
<g id="Node000017" class="node">
<title>Node17</title>
<g id="a_Node000017"><a xlink:href="_crumble_block_8cpp.html" target="_top" xlink:title=" ">
<polygon fill="white" stroke="#666666" points="1234.25,-300 1101.25,-300 1101.25,-280 1234.25,-280 1234.25,-300"/>
<text text-anchor="middle" x="1167.75" y="-286.5" font-family="Helvetica,sans-Serif" font-size="10.00">Celeste/CrumbleBlock.cpp</text>
</a>
</g>
</g>
<!-- Node16&#45;&gt;Node17 -->
<g id="edge20_Node000016_Node000017" class="edge">
<title>Node16&#45;&gt;Node17</title>
<g id="a_edge20_Node000016_Node000017"><a xlink:title=" ">
<path fill="none" stroke="#63b8ff" d="M1168.98,-324.13C1168.67,-315.9 1168.34,-306.85 1168.09,-300.3"/>
<polygon fill="#63b8ff" stroke="#63b8ff" points="1165.48,-324.22 1169.35,-334.08 1172.47,-323.96 1165.48,-324.22"/>
</a>
</g>
</g>
<!-- Node18&#45;&gt;Node8 -->
<g id="edge22_Node000018_Node000008" class="edge">
<title>Node18&#45;&gt;Node8</title>
<g id="a_edge22_Node000018_Node000008"><a xlink:title=" ">
<path fill="none" stroke="#63b8ff" d="M1033.13,-324.31C1033.56,-300.36 1034.26,-261.95 1034.58,-244.35"/>
<polygon fill="#63b8ff" stroke="#63b8ff" points="1029.63,-324.05 1032.95,-334.11 1036.63,-324.17 1029.63,-324.05"/>
</a>
</g>
</g>
<!-- Node19 -->
<g id="Node000019" class="node">
<title>Node19</title>
<g id="a_Node000019"><a xlink:href="_dash_crystal_8cpp.html" target="_top" xlink:title=" ">
<polygon fill="white" stroke="#666666" points="1006.88,-300 880.62,-300 880.62,-280 1006.88,-280 1006.88,-300"/>
<text text-anchor="middle" x="943.75" y="-286.5" font-family="Helvetica,sans-Serif" font-size="10.00">Celeste/DashCrystal.cpp</text>
</a>
</g>
</g>
<!-- Node18&#45;&gt;Node19 -->
<g id="edge23_Node000018_Node000019" class="edge">
<title>Node18&#45;&gt;Node19</title>
<g id="a_edge23_Node000018_Node000019"><a xlink:title=" ">
<path fill="none" stroke="#63b8ff" d="M1007.72,-329.81C992.19,-320.39 972.73,-308.58 959.37,-300.48"/>
<polygon fill="#63b8ff" stroke="#63b8ff" points="1005.59,-332.61 1015.95,-334.81 1009.22,-326.63 1005.59,-332.61"/>
</a>
</g>
</g>
<!-- Node21&#45;&gt;Node8 -->
<g id="edge26_Node000021_Node000008" class="edge">
<title>Node21&#45;&gt;Node8</title>
<g id="a_edge26_Node000021_Node000008"><a xlink:title=" ">
<path fill="none" stroke="#63b8ff" d="M1628.56,-324.61C1627.24,-309.84 1622.87,-290.66 1609.75,-280 1570.09,-247.78 1228.1,-238.33 1091.13,-235.83"/>
<polygon fill="#63b8ff" stroke="#63b8ff" points="1625.05,-324.36 1629,-334.19 1632.04,-324.04 1625.05,-324.36"/>
</a>
</g>
</g>
<!-- Node22 -->
<g id="Node000022" class="node">
<title>Node22</title>
<g id="a_Node000022"><a xlink:href="_level_8cpp.html" target="_top" xlink:title=" ">
<polygon fill="white" stroke="#666666" points="1751.12,-300 1656.38,-300 1656.38,-280 1751.12,-280 1751.12,-300"/>
<text text-anchor="middle" x="1703.75" y="-286.5" font-family="Helvetica,sans-Serif" font-size="10.00">Celeste/Level.cpp</text>
</a>
</g>
</g>
<!-- Node21&#45;&gt;Node22 -->
<g id="edge27_Node000021_Node000022" class="edge">
<title>Node21&#45;&gt;Node22</title>
<g id="a_edge27_Node000021_Node000022"><a xlink:title=" ">
<path fill="none" stroke="#63b8ff" d="M1650.97,-329C1663.86,-319.72 1679.65,-308.35 1690.58,-300.48"/>
<polygon fill="#63b8ff" stroke="#63b8ff" points="1649.11,-326.03 1643.04,-334.71 1653.2,-331.71 1649.11,-326.03"/>
</a>
</g>
</g>
<!-- Node23&#45;&gt;Node8 -->
<g id="edge29_Node000023_Node000008" class="edge">
<title>Node23&#45;&gt;Node8</title>
<g id="a_edge29_Node000023_Node000008"><a xlink:title=" ">
<path fill="none" stroke="#63b8ff" d="M1355.71,-331.2C1383.23,-318.9 1413.26,-299.83 1395.75,-280 1375.94,-257.57 1187.65,-243.69 1091.16,-237.99"/>
<polygon fill="#63b8ff" stroke="#63b8ff" points="1354.62,-327.86 1346.78,-334.98 1357.35,-334.31 1354.62,-327.86"/>
</a>
</g>
</g>
<!-- Node24 -->
<g id="Node000024" class="node">
<title>Node24</title>
<g id="a_Node000024"><a xlink:href="_respawn_zone_8cpp.html" target="_top" xlink:title=" ">
<polygon fill="white" stroke="#666666" points="1387,-300 1252.5,-300 1252.5,-280 1387,-280 1387,-300"/>
<text text-anchor="middle" x="1319.75" y="-286.5" font-family="Helvetica,sans-Serif" font-size="10.00">Celeste/RespawnZone.cpp</text>
</a>
</g>
</g>
<!-- Node23&#45;&gt;Node24 -->
<g id="edge30_Node000023_Node000024" class="edge">
<title>Node23&#45;&gt;Node24</title>
<g id="a_edge30_Node000023_Node000024"><a xlink:title=" ">
<path fill="none" stroke="#63b8ff" d="M1319.14,-324.13C1319.29,-315.9 1319.46,-306.85 1319.58,-300.3"/>
<polygon fill="#63b8ff" stroke="#63b8ff" points="1315.64,-324.02 1318.95,-334.08 1322.64,-324.15 1315.64,-324.02"/>
</a>
</g>
</g>
<!-- Node25&#45;&gt;Node8 -->
<g id="edge32_Node000025_Node000008" class="edge">
<title>Node25&#45;&gt;Node8</title>
<g id="a_edge32_Node000025_Node000008"><a xlink:title=" ">
<path fill="none" stroke="#63b8ff" d="M1778.61,-324.55C1777.32,-309.75 1772.95,-290.55 1759.75,-280 1707.97,-238.62 1252.22,-234.86 1090.98,-234.83"/>
<polygon fill="#63b8ff" stroke="#63b8ff" points="1775.1,-324.32 1779.03,-334.16 1782.09,-324.02 1775.1,-324.32"/>
</a>
</g>
</g>
<!-- Node26 -->
<g id="Node000026" class="node">
<title>Node26</title>
<g id="a_Node000026"><a xlink:href="_spike_8cpp.html" target="_top" xlink:title=" ">
<polygon fill="white" stroke="#666666" points="1902.88,-300 1806.62,-300 1806.62,-280 1902.88,-280 1902.88,-300"/>
<text text-anchor="middle" x="1854.75" y="-286.5" font-family="Helvetica,sans-Serif" font-size="10.00">Celeste/Spike.cpp</text>
</a>
</g>
</g>
<!-- Node25&#45;&gt;Node26 -->
<g id="edge33_Node000025_Node000026" class="edge">
<title>Node25&#45;&gt;Node26</title>
<g id="a_edge33_Node000025_Node000026"><a xlink:title=" ">
<path fill="none" stroke="#63b8ff" d="M1801.27,-329C1814.33,-319.72 1830.33,-308.35 1841.41,-300.48"/>
<polygon fill="#63b8ff" stroke="#63b8ff" points="1799.35,-326.07 1793.22,-334.72 1803.4,-331.78 1799.35,-326.07"/>
</a>
</g>
</g>
<!-- Node27&#45;&gt;Node8 -->
<g id="edge35_Node000027_Node000008" class="edge">
<title>Node27&#45;&gt;Node8</title>
<g id="a_edge35_Node000027_Node000008"><a xlink:title=" ">
<path fill="none" stroke="#63b8ff" d="M772.09,-330.72C789.97,-321.97 813.24,-310.46 833.75,-300 850.75,-291.32 854,-287.02 871.75,-280 910.92,-264.49 957.39,-252.23 990.67,-244.45"/>
<polygon fill="#63b8ff" stroke="#63b8ff" points="770.8,-327.46 763.35,-334.99 773.87,-333.75 770.8,-327.46"/>
</a>
</g>
</g>
<!-- Node28 -->
<g id="Node000028" class="node">
<title>Node28</title>
<g id="a_Node000028"><a xlink:href="_flying_strawberry_8h.html" target="_top" xlink:title=" ">
<polygon fill="white" stroke="#666666" points="650.62,-300 516.88,-300 516.88,-280 650.62,-280 650.62,-300"/>
<text text-anchor="middle" x="583.75" y="-286.5" font-family="Helvetica,sans-Serif" font-size="10.00">Celeste/FlyingStrawberry.h</text>
</a>
</g>
</g>
<!-- Node27&#45;&gt;Node28 -->
<g id="edge36_Node000027_Node000028" class="edge">
<title>Node27&#45;&gt;Node28</title>
<g id="a_edge36_Node000027_Node000028"><a xlink:title=" ">
<path fill="none" stroke="#63b8ff" d="M704.24,-331.92C675.65,-322.21 637.34,-309.2 611.66,-300.48"/>
<polygon fill="#63b8ff" stroke="#63b8ff" points="703.03,-335.21 713.62,-335.11 705.28,-328.58 703.03,-335.21"/>
</a>
</g>
</g>
<!-- Node30 -->
<g id="Node000030" class="node">
<title>Node30</title>
<g id="a_Node000030"><a xlink:href="_strawberry_8cpp.html" target="_top" xlink:title=" ">
<polygon fill="white" stroke="#666666" points="824.75,-300 706.75,-300 706.75,-280 824.75,-280 824.75,-300"/>
<text text-anchor="middle" x="765.75" y="-286.5" font-family="Helvetica,sans-Serif" font-size="10.00">Celeste/Strawberry.cpp</text>
</a>
</g>
</g>
<!-- Node27&#45;&gt;Node30 -->
<g id="edge39_Node000027_Node000030" class="edge">
<title>Node27&#45;&gt;Node30</title>
<g id="a_edge39_Node000027_Node000030"><a xlink:title=" ">
<path fill="none" stroke="#63b8ff" d="M751.27,-325C754.87,-316.54 758.9,-307.08 761.79,-300.3"/>
<polygon fill="#63b8ff" stroke="#63b8ff" points="748.05,-323.63 747.35,-334.2 754.49,-326.37 748.05,-323.63"/>
</a>
</g>
</g>
<!-- Node28&#45;&gt;Node8 -->
<g id="edge37_Node000028_Node000008" class="edge">
<title>Node28&#45;&gt;Node8</title>
<g id="a_edge37_Node000028_Node000008"><a xlink:title=" ">
<path fill="none" stroke="#63b8ff" d="M662.05,-279.62C752.36,-268.81 898.61,-251.3 978.41,-241.75"/>
<polygon fill="#63b8ff" stroke="#63b8ff" points="661.8,-276.13 652.29,-280.79 662.63,-283.08 661.8,-276.13"/>
</a>
</g>
</g>
<!-- Node29 -->
<g id="Node000029" class="node">
<title>Node29</title>
<g id="a_Node000029"><a xlink:href="_flying_strawberry_8cpp.html" target="_top" xlink:title=" ">
<polygon fill="white" stroke="#666666" points="655.88,-244 511.62,-244 511.62,-224 655.88,-224 655.88,-244"/>
<text text-anchor="middle" x="583.75" y="-230.5" font-family="Helvetica,sans-Serif" font-size="10.00">Celeste/FlyingStrawberry.cpp</text>
</a>
</g>
</g>
<!-- Node28&#45;&gt;Node29 -->
<g id="edge38_Node000028_Node000029" class="edge">
<title>Node28&#45;&gt;Node29</title>
<g id="a_edge38_Node000028_Node000029"><a xlink:title=" ">
<path fill="none" stroke="#63b8ff" d="M583.75,-268.13C583.75,-259.9 583.75,-250.85 583.75,-244.3"/>
<polygon fill="#63b8ff" stroke="#63b8ff" points="580.25,-268.08 583.75,-278.08 587.25,-268.08 580.25,-268.08"/>
</a>
</g>
</g>
<!-- Node31&#45;&gt;Node8 -->
<g id="edge41_Node000031_Node000008" class="edge">
<title>Node31&#45;&gt;Node8</title>
<g id="a_edge41_Node000031_Node000008"><a xlink:title=" ">
<path fill="none" stroke="#63b8ff" d="M1446.75,-325.26C1440.33,-310.25 1429.29,-290.45 1412.75,-280 1360.5,-247.01 1182.89,-238.2 1090.94,-235.85"/>
<polygon fill="#63b8ff" stroke="#63b8ff" points="1443.33,-326.12 1450.22,-334.17 1449.85,-323.58 1443.33,-326.12"/>
</a>
</g>
</g>
<!-- Node32 -->
<g id="Node000032" class="node">
<title>Node32</title>
<g id="a_Node000032"><a xlink:href="_trampoline_8cpp.html" target="_top" xlink:title=" ">
<polygon fill="white" stroke="#666666" points="1600.5,-300 1481,-300 1481,-280 1600.5,-280 1600.5,-300"/>
<text text-anchor="middle" x="1540.75" y="-286.5" font-family="Helvetica,sans-Serif" font-size="10.00">Celeste/Trampoline.cpp</text>
</a>
</g>
</g>
<!-- Node31&#45;&gt;Node32 -->
<g id="edge42_Node000031_Node000032" class="edge">
<title>Node31&#45;&gt;Node32</title>
<g id="a_edge42_Node000031_Node000032"><a xlink:title=" ">
<path fill="none" stroke="#63b8ff" d="M1478.65,-329.54C1493.76,-320.17 1512.55,-308.51 1525.48,-300.48"/>
<polygon fill="#63b8ff" stroke="#63b8ff" points="1476.84,-326.55 1470.19,-334.8 1480.53,-332.5 1476.84,-326.55"/>
</a>
</g>
</g>
<!-- Node33&#45;&gt;Node2 -->
<g id="edge45_Node000033_Node000002" class="edge">
<title>Node33&#45;&gt;Node2</title>
<g id="a_edge45_Node000033_Node000002"><a xlink:title=" ">
<path fill="none" stroke="#63b8ff" d="M162.87,-515.74C184.7,-502.99 215.14,-485.21 233.59,-474.44"/>
<polygon fill="#63b8ff" stroke="#63b8ff" points="161.12,-512.71 154.25,-520.78 164.65,-518.76 161.12,-512.71"/>
</a>
</g>
</g>
<!-- Node34 -->
<g id="Node000034" class="node">
<title>Node34</title>
<g id="a_Node000034"><a xlink:href="_character_sound_manager_8cpp.html" target="_top" xlink:title=" ">
<polygon fill="white" stroke="#666666" points="179.5,-474 0,-474 0,-454 179.5,-454 179.5,-474"/>
<text text-anchor="middle" x="89.75" y="-460.5" font-family="Helvetica,sans-Serif" font-size="10.00">Celeste/CharacterSoundManager.cpp</text>
</a>
</g>
</g>
<!-- Node33&#45;&gt;Node34 -->
<g id="edge46_Node000033_Node000034" class="edge">
<title>Node33&#45;&gt;Node34</title>
<g id="a_edge46_Node000033_Node000034"><a xlink:title=" ">
<path fill="none" stroke="#63b8ff" d="M123.59,-512.52C114.77,-500.13 103.52,-484.33 96.47,-474.44"/>
<polygon fill="#63b8ff" stroke="#63b8ff" points="120.49,-514.2 129.14,-520.31 126.19,-510.13 120.49,-514.2"/>
</a>
</g>
</g>
<!-- Node35&#45;&gt;Node2 -->
<g id="edge48_Node000035_Node000002" class="edge">
<title>Node35&#45;&gt;Node2</title>
<g id="a_edge48_Node000035_Node000002"><a xlink:title=" ">
<path fill="none" stroke="#63b8ff" d="M311.14,-509.04C294.69,-497.24 275.26,-483.3 262.74,-474.32"/>
<polygon fill="#63b8ff" stroke="#63b8ff" points="309.02,-511.82 319.18,-514.81 313.1,-506.14 309.02,-511.82"/>
</a>
</g>
</g>
<!-- Node36 -->
<g id="Node000036" class="node">
<title>Node36</title>
<g id="a_Node000036"><a xlink:href="_character_texture_manager_8cpp.html" target="_top" xlink:title=" ">
<polygon fill="white" stroke="#666666" points="447.62,-480 319.88,-480 319.88,-448 447.62,-448 447.62,-480"/>
<text text-anchor="start" x="327.88" y="-466.5" font-family="Helvetica,sans-Serif" font-size="10.00">Celeste/CharacterTexture</text>
<text text-anchor="middle" x="383.75" y="-454.5" font-family="Helvetica,sans-Serif" font-size="10.00">Manager.cpp</text>
</a>
</g>
</g>
<!-- Node35&#45;&gt;Node36 -->
<g id="edge49_Node000035_Node000036" class="edge">
<title>Node35&#45;&gt;Node36</title>
<g id="a_edge49_Node000035_Node000036"><a xlink:title=" ">
<path fill="none" stroke="#63b8ff" d="M357.65,-506.02C363.17,-497.34 369.19,-487.88 374.06,-480.22"/>
<polygon fill="#63b8ff" stroke="#63b8ff" points="354.72,-504.1 352.3,-514.42 360.63,-507.86 354.72,-504.1"/>
</a>
</g>
</g>
</g>
</svg>
