<?xml version="1.0" encoding="UTF-8" standalone="no"?>
<!DOCTYPE svg PUBLIC "-//W3C//DTD SVG 1.1//EN"
 "http://www.w3.org/Graphics/SVG/1.1/DTD/svg11.dtd">
<!-- Generated by graphviz version 12.2.1 (20241206.2353)
 -->
<!-- Title: Celeste/ChapterInfo.h Pages: 1 -->
<svg width="918pt" height="644pt"
 viewBox="0.00 0.00 917.94 644.00" xmlns="http://www.w3.org/2000/svg" xmlns:xlink="http://www.w3.org/1999/xlink">
<g id="graph0" class="graph" transform="scale(1 1) rotate(0) translate(4 640)">
<title>Celeste/ChapterInfo.h</title>
<!-- Node1 -->
<g id="Node000001" class="node">
<title>Node1</title>
<g id="a_Node000001"><a xlink:title=" ">
<polygon fill="#999999" stroke="#666666" points="454.75,-636 342.75,-636 342.75,-616 454.75,-616 454.75,-636"/>
<text text-anchor="middle" x="398.75" y="-622.5" font-family="Helvetica,sans-Serif" font-size="10.00">Celeste/ChapterInfo.h</text>
</a>
</g>
</g>
<!-- Node2 -->
<g id="Node000002" class="node">
<title>Node2</title>
<g id="a_Node000002"><a xlink:title=" ">
<polygon fill="#e0e0e0" stroke="#999999" points="418.25,-188 375.25,-188 375.25,-168 418.25,-168 418.25,-188"/>
<text text-anchor="middle" x="396.75" y="-174.5" font-family="Helvetica,sans-Serif" font-size="10.00">vector</text>
</a>
</g>
</g>
<!-- Node1&#45;&gt;Node2 -->
<g id="edge1_Node000001_Node000002" class="edge">
<title>Node1&#45;&gt;Node2</title>
<g id="a_edge1_Node000001_Node000002"><a xlink:title=" ">
<path fill="none" stroke="#63b8ff" d="M342.5,-619.75C280.3,-613.06 184.88,-599.93 154.75,-580 125.86,-560.89 111.75,-549.64 111.75,-515 111.75,-515 111.75,-515 111.75,-345 111.75,-229.5 288.69,-192.95 363.73,-182.65"/>
<polygon fill="#63b8ff" stroke="#63b8ff" points="363.89,-186.16 373.36,-181.4 362.99,-179.21 363.89,-186.16"/>
</a>
</g>
</g>
<!-- Node3 -->
<g id="Node000003" class="node">
<title>Node3</title>
<g id="a_Node000003"><a xlink:href="_interactable_item_8h.html" target="_top" xlink:title=" ">
<polygon fill="white" stroke="#666666" points="400.12,-468 305.38,-468 305.38,-448 400.12,-448 400.12,-468"/>
<text text-anchor="middle" x="352.75" y="-454.5" font-family="Helvetica,sans-Serif" font-size="10.00">InteractableItem.h</text>
</a>
</g>
</g>
<!-- Node1&#45;&gt;Node3 -->
<g id="edge2_Node000001_Node000003" class="edge">
<title>Node1&#45;&gt;Node3</title>
<g id="a_edge2_Node000001_Node000003"><a xlink:title=" ">
<path fill="none" stroke="#63b8ff" d="M342.51,-621.98C281.64,-617.39 190.34,-606.23 168.75,-580 125.59,-527.58 230.89,-489.65 299.42,-471.34"/>
<polygon fill="#63b8ff" stroke="#63b8ff" points="300.23,-474.75 309.03,-468.85 298.47,-467.97 300.23,-474.75"/>
</a>
</g>
</g>
<!-- Node27 -->
<g id="Node000027" class="node">
<title>Node27</title>
<g id="a_Node000027"><a xlink:href="_sound_stream_8h.html" target="_top" xlink:title=" ">
<polygon fill="white" stroke="#666666" points="83.5,-300 0,-300 0,-280 83.5,-280 83.5,-300"/>
<text text-anchor="middle" x="41.75" y="-286.5" font-family="Helvetica,sans-Serif" font-size="10.00">SoundStream.h</text>
</a>
</g>
</g>
<!-- Node1&#45;&gt;Node27 -->
<g id="edge69_Node000001_Node000027" class="edge">
<title>Node1&#45;&gt;Node27</title>
<g id="a_edge69_Node000001_Node000027"><a xlink:title=" ">
<path fill="none" stroke="#63b8ff" d="M342.56,-622.21C266.82,-617.52 136.93,-605.88 97.75,-580 69.45,-561.3 57.75,-548.92 57.75,-515 57.75,-515 57.75,-515 57.75,-401 57.75,-369.54 51.26,-333.55 46.55,-311.55"/>
<polygon fill="#63b8ff" stroke="#63b8ff" points="49.97,-310.82 44.37,-301.83 43.14,-312.35 49.97,-310.82"/>
</a>
</g>
</g>
<!-- Node28 -->
<g id="Node000028" class="node">
<title>Node28</title>
<g id="a_Node000028"><a xlink:href="_spike_8h.html" target="_top" xlink:title=" ">
<polygon fill="white" stroke="#666666" points="397.25,-580 348.25,-580 348.25,-560 397.25,-560 397.25,-580"/>
<text text-anchor="middle" x="372.75" y="-566.5" font-family="Helvetica,sans-Serif" font-size="10.00">Spike.h</text>
</a>
</g>
</g>
<!-- Node1&#45;&gt;Node28 -->
<g id="edge43_Node000001_Node000028" class="edge">
<title>Node1&#45;&gt;Node28</title>
<g id="a_edge43_Node000001_Node000028"><a xlink:title=" ">
<path fill="none" stroke="#63b8ff" d="M394.22,-615.59C390.9,-608.7 386.28,-599.1 382.17,-590.57"/>
<polygon fill="#63b8ff" stroke="#63b8ff" points="385.38,-589.15 377.88,-581.66 379.07,-592.19 385.38,-589.15"/>
</a>
</g>
</g>
<!-- Node29 -->
<g id="Node000029" class="node">
<title>Node29</title>
<g id="a_Node000029"><a xlink:href="_trampoline_8h.html" target="_top" xlink:title=" ">
<polygon fill="white" stroke="#666666" points="375.88,-524 303.62,-524 303.62,-504 375.88,-504 375.88,-524"/>
<text text-anchor="middle" x="339.75" y="-510.5" font-family="Helvetica,sans-Serif" font-size="10.00">Trampoline.h</text>
</a>
</g>
</g>
<!-- Node1&#45;&gt;Node29 -->
<g id="edge45_Node000001_Node000029" class="edge">
<title>Node1&#45;&gt;Node29</title>
<g id="a_edge45_Node000001_Node000029"><a xlink:title=" ">
<path fill="none" stroke="#63b8ff" d="M403.18,-615.55C408.68,-602.31 416.27,-577.86 406.75,-560 399.73,-546.83 386.95,-536.83 374.42,-529.64"/>
<polygon fill="#63b8ff" stroke="#63b8ff" points="376.37,-526.7 365.88,-525.17 373.12,-532.91 376.37,-526.7"/>
</a>
</g>
</g>
<!-- Node32 -->
<g id="Node000032" class="node">
<title>Node32</title>
<g id="a_Node000032"><a xlink:href="_strawberry_8h.html" target="_top" xlink:title=" ">
<polygon fill="white" stroke="#666666" points="762.12,-524 691.38,-524 691.38,-504 762.12,-504 762.12,-524"/>
<text text-anchor="middle" x="726.75" y="-510.5" font-family="Helvetica,sans-Serif" font-size="10.00">Strawberry.h</text>
</a>
</g>
</g>
<!-- Node1&#45;&gt;Node32 -->
<g id="edge49_Node000001_Node000032" class="edge">
<title>Node1&#45;&gt;Node32</title>
<g id="a_edge49_Node000001_Node000032"><a xlink:title=" ">
<path fill="none" stroke="#63b8ff" d="M427,-615.53C485.73,-595.83 621.1,-550.43 687.95,-528.01"/>
<polygon fill="#63b8ff" stroke="#63b8ff" points="688.65,-531.47 697.02,-524.97 686.42,-524.83 688.65,-531.47"/>
</a>
</g>
</g>
<!-- Node33 -->
<g id="Node000033" class="node">
<title>Node33</title>
<g id="a_Node000033"><a xlink:href="_respawn_zone_8h.html" target="_top" xlink:title=" ">
<polygon fill="white" stroke="#666666" points="330.38,-580 243.12,-580 243.12,-560 330.38,-560 330.38,-580"/>
<text text-anchor="middle" x="286.75" y="-566.5" font-family="Helvetica,sans-Serif" font-size="10.00">RespawnZone.h</text>
</a>
</g>
</g>
<!-- Node1&#45;&gt;Node33 -->
<g id="edge53_Node000001_Node000033" class="edge">
<title>Node1&#45;&gt;Node33</title>
<g id="a_edge53_Node000001_Node000033"><a xlink:title=" ">
<path fill="none" stroke="#63b8ff" d="M379.24,-615.59C362,-607.28 336.59,-595.03 316.76,-585.47"/>
<polygon fill="#63b8ff" stroke="#63b8ff" points="318.3,-582.33 307.77,-581.14 315.26,-588.63 318.3,-582.33"/>
</a>
</g>
</g>
<!-- Node34 -->
<g id="Node000034" class="node">
<title>Node34</title>
<g id="a_Node000034"><a xlink:href="_dash_crystal_8h.html" target="_top" xlink:title=" ">
<polygon fill="white" stroke="#666666" points="473.25,-524 394.25,-524 394.25,-504 473.25,-504 473.25,-524"/>
<text text-anchor="middle" x="433.75" y="-510.5" font-family="Helvetica,sans-Serif" font-size="10.00">DashCrystal.h</text>
</a>
</g>
</g>
<!-- Node1&#45;&gt;Node34 -->
<g id="edge55_Node000001_Node000034" class="edge">
<title>Node1&#45;&gt;Node34</title>
<g id="a_edge55_Node000001_Node000034"><a xlink:title=" ">
<path fill="none" stroke="#63b8ff" d="M411.47,-615.52C421.28,-607.35 434.1,-594.59 439.75,-580 445.33,-565.6 443.27,-548.11 440.12,-534.9"/>
<polygon fill="#63b8ff" stroke="#63b8ff" points="443.59,-534.33 437.52,-525.64 436.85,-536.22 443.59,-534.33"/>
</a>
</g>
</g>
<!-- Node35 -->
<g id="Node000035" class="node">
<title>Node35</title>
<g id="a_Node000035"><a xlink:href="_crumble_block_8h.html" target="_top" xlink:title=" ">
<polygon fill="white" stroke="#666666" points="576.62,-524 490.88,-524 490.88,-504 576.62,-504 576.62,-524"/>
<text text-anchor="middle" x="533.75" y="-510.5" font-family="Helvetica,sans-Serif" font-size="10.00">CrumbleBlock.h</text>
</a>
</g>
</g>
<!-- Node1&#45;&gt;Node35 -->
<g id="edge58_Node000001_Node000035" class="edge">
<title>Node1&#45;&gt;Node35</title>
<g id="a_edge58_Node000001_Node000035"><a xlink:title=" ">
<path fill="none" stroke="#63b8ff" d="M410.61,-615.78C422.19,-606.75 440.28,-592.55 455.75,-580 475.89,-563.66 498.64,-544.63 514.35,-531.41"/>
<polygon fill="#63b8ff" stroke="#63b8ff" points="516.17,-534.45 521.56,-525.33 511.66,-529.1 516.17,-534.45"/>
</a>
</g>
</g>
<!-- Node36 -->
<g id="Node000036" class="node">
<title>Node36</title>
<g id="a_Node000036"><a xlink:href="_cog_platform_8h.html" target="_top" xlink:title=" ">
<polygon fill="white" stroke="#666666" points="673.25,-524 594.25,-524 594.25,-504 673.25,-504 673.25,-524"/>
<text text-anchor="middle" x="633.75" y="-510.5" font-family="Helvetica,sans-Serif" font-size="10.00">CogPlatform.h</text>
</a>
</g>
</g>
<!-- Node1&#45;&gt;Node36 -->
<g id="edge61_Node000001_Node000036" class="edge">
<title>Node1&#45;&gt;Node36</title>
<g id="a_edge61_Node000001_Node000036"><a xlink:title=" ">
<path fill="none" stroke="#63b8ff" d="M418.79,-615.62C460.06,-596.3 554.78,-551.96 603.53,-529.14"/>
<polygon fill="#63b8ff" stroke="#63b8ff" points="604.82,-532.41 612.39,-525 601.85,-526.07 604.82,-532.41"/>
</a>
</g>
</g>
<!-- Node37 -->
<g id="Node000037" class="node">
<title>Node37</title>
<g id="a_Node000037"><a xlink:href="_flying_strawberry_8h.html" target="_top" xlink:title=" ">
<polygon fill="white" stroke="#666666" points="775.25,-580 678.25,-580 678.25,-560 775.25,-560 775.25,-580"/>
<text text-anchor="middle" x="726.75" y="-566.5" font-family="Helvetica,sans-Serif" font-size="10.00">FlyingStrawberry.h</text>
</a>
</g>
</g>
<!-- Node1&#45;&gt;Node37 -->
<g id="edge64_Node000001_Node000037" class="edge">
<title>Node1&#45;&gt;Node37</title>
<g id="a_edge64_Node000001_Node000037"><a xlink:title=" ">
<path fill="none" stroke="#63b8ff" d="M455.14,-615.72C514.07,-606.01 606.2,-590.85 666.53,-580.91"/>
<polygon fill="#63b8ff" stroke="#63b8ff" points="666.99,-584.39 676.29,-579.31 665.85,-577.48 666.99,-584.39"/>
</a>
</g>
</g>
<!-- Node38 -->
<g id="Node000038" class="node">
<title>Node38</title>
<g id="a_Node000038"><a xlink:href="_level_8h.html" target="_top" xlink:title=" ">
<polygon fill="white" stroke="#666666" points="225.5,-580 178,-580 178,-560 225.5,-560 225.5,-580"/>
<text text-anchor="middle" x="201.75" y="-566.5" font-family="Helvetica,sans-Serif" font-size="10.00">Level.h</text>
</a>
</g>
</g>
<!-- Node1&#45;&gt;Node38 -->
<g id="edge67_Node000001_Node000038" class="edge">
<title>Node1&#45;&gt;Node38</title>
<g id="a_edge67_Node000001_Node000038"><a xlink:title=" ">
<path fill="none" stroke="#63b8ff" d="M363.64,-615.51C332.57,-607.1 285.71,-594.36 236.95,-580.87"/>
<polygon fill="#63b8ff" stroke="#63b8ff" points="237.89,-577.5 227.32,-578.21 236.02,-584.25 237.89,-577.5"/>
</a>
</g>
</g>
<!-- Node4 -->
<g id="Node000004" class="node">
<title>Node4</title>
<g id="a_Node000004"><a xlink:href="_character_8h.html" target="_top" xlink:title=" ">
<polygon fill="white" stroke="#666666" points="416.25,-412 349.25,-412 349.25,-392 416.25,-392 416.25,-412"/>
<text text-anchor="middle" x="382.75" y="-398.5" font-family="Helvetica,sans-Serif" font-size="10.00">Character.h</text>
</a>
</g>
</g>
<!-- Node3&#45;&gt;Node4 -->
<g id="edge3_Node000003_Node000004" class="edge">
<title>Node3&#45;&gt;Node4</title>
<g id="a_edge3_Node000003_Node000004"><a xlink:title=" ">
<path fill="none" stroke="#63b8ff" d="M357.98,-447.59C361.85,-440.63 367.26,-430.89 372.03,-422.29"/>
<polygon fill="#63b8ff" stroke="#63b8ff" points="375.05,-424.06 376.85,-413.62 368.93,-420.66 375.05,-424.06"/>
</a>
</g>
</g>
<!-- Node5 -->
<g id="Node000005" class="node">
<title>Node5</title>
<g id="a_Node000005"><a xlink:href="_character_controller_8h.html" target="_top" xlink:title=" ">
<polygon fill="white" stroke="#666666" points="603.25,-356 494.25,-356 494.25,-336 603.25,-336 603.25,-356"/>
<text text-anchor="middle" x="548.75" y="-342.5" font-family="Helvetica,sans-Serif" font-size="10.00">CharacterController.h</text>
</a>
</g>
</g>
<!-- Node4&#45;&gt;Node5 -->
<g id="edge4_Node000004_Node000005" class="edge">
<title>Node4&#45;&gt;Node5</title>
<g id="a_edge4_Node000004_Node000005"><a xlink:title=" ">
<path fill="none" stroke="#63b8ff" d="M411.66,-391.59C438.52,-382.86 478.75,-369.77 508.69,-360.03"/>
<polygon fill="#63b8ff" stroke="#63b8ff" points="509.74,-363.37 518.17,-356.95 507.58,-356.71 509.74,-363.37"/>
</a>
</g>
</g>
<!-- Node19 -->
<g id="Node000019" class="node">
<title>Node19</title>
<g id="a_Node000019"><a xlink:href="_hair_8h.html" target="_top" xlink:title=" ">
<polygon fill="white" stroke="#666666" points="751.88,-244 709.62,-244 709.62,-224 751.88,-224 751.88,-244"/>
<text text-anchor="middle" x="730.75" y="-230.5" font-family="Helvetica,sans-Serif" font-size="10.00">Hair.h</text>
</a>
</g>
</g>
<!-- Node4&#45;&gt;Node19 -->
<g id="edge23_Node000004_Node000019" class="edge">
<title>Node4&#45;&gt;Node19</title>
<g id="a_edge23_Node000004_Node000019"><a xlink:title=" ">
<path fill="none" stroke="#63b8ff" d="M416.57,-398.25C462.39,-393.66 546.11,-382.22 612.75,-356 656.59,-338.75 672.02,-335.71 702.75,-300 713.91,-287.03 721.21,-268.95 725.55,-255.14"/>
<polygon fill="#63b8ff" stroke="#63b8ff" points="728.84,-256.38 728.21,-245.81 722.1,-254.47 728.84,-256.38"/>
</a>
</g>
</g>
<!-- Node21 -->
<g id="Node000021" class="node">
<title>Node21</title>
<g id="a_Node000021"><a xlink:href="_character_texture_manager_8h.html" target="_top" xlink:title=" ">
<polygon fill="white" stroke="#666666" points="464.12,-356 327.38,-356 327.38,-336 464.12,-336 464.12,-356"/>
<text text-anchor="middle" x="395.75" y="-342.5" font-family="Helvetica,sans-Serif" font-size="10.00">CharacterTextureManager.h</text>
</a>
</g>
</g>
<!-- Node4&#45;&gt;Node21 -->
<g id="edge28_Node000004_Node000021" class="edge">
<title>Node4&#45;&gt;Node21</title>
<g id="a_edge28_Node000004_Node000021"><a xlink:title=" ">
<path fill="none" stroke="#63b8ff" d="M385.01,-391.59C386.62,-384.93 388.83,-375.75 390.83,-367.44"/>
<polygon fill="#63b8ff" stroke="#63b8ff" points="394.22,-368.31 393.16,-357.77 387.41,-366.67 394.22,-368.31"/>
</a>
</g>
</g>
<!-- Node24 -->
<g id="Node000024" class="node">
<title>Node24</title>
<g id="a_Node000024"><a xlink:href="_character_state_8h.html" target="_top" xlink:title=" ">
<polygon fill="white" stroke="#666666" points="267.88,-300 177.62,-300 177.62,-280 267.88,-280 267.88,-300"/>
<text text-anchor="middle" x="222.75" y="-286.5" font-family="Helvetica,sans-Serif" font-size="10.00">CharacterState.h</text>
</a>
</g>
</g>
<!-- Node4&#45;&gt;Node24 -->
<g id="edge35_Node000004_Node000024" class="edge">
<title>Node4&#45;&gt;Node24</title>
<g id="a_edge35_Node000004_Node000024"><a xlink:title=" ">
<path fill="none" stroke="#63b8ff" d="M369.11,-391.62C341.6,-372.71 279.21,-329.82 245.45,-306.61"/>
<polygon fill="#63b8ff" stroke="#63b8ff" points="247.83,-303.99 237.6,-301.21 243.86,-309.76 247.83,-303.99"/>
</a>
</g>
</g>
<!-- Node25 -->
<g id="Node000025" class="node">
<title>Node25</title>
<g id="a_Node000025"><a xlink:href="_character_sound_manager_8h.html" target="_top" xlink:title=" ">
<polygon fill="white" stroke="#666666" points="271.88,-356 139.62,-356 139.62,-336 271.88,-336 271.88,-356"/>
<text text-anchor="middle" x="205.75" y="-342.5" font-family="Helvetica,sans-Serif" font-size="10.00">CharacterSoundManager.h</text>
</a>
</g>
</g>
<!-- Node4&#45;&gt;Node25 -->
<g id="edge36_Node000004_Node000025" class="edge">
<title>Node4&#45;&gt;Node25</title>
<g id="a_edge36_Node000004_Node000025"><a xlink:title=" ">
<path fill="none" stroke="#63b8ff" d="M351.92,-391.59C323.04,-382.78 279.64,-369.54 247.63,-359.78"/>
<polygon fill="#63b8ff" stroke="#63b8ff" points="248.86,-356.49 238.27,-356.92 246.81,-363.19 248.86,-356.49"/>
</a>
</g>
</g>
<!-- Node5&#45;&gt;Node2 -->
<g id="edge22_Node000005_Node000002" class="edge">
<title>Node5&#45;&gt;Node2</title>
<g id="a_edge22_Node000005_Node000002"><a xlink:title=" ">
<path fill="none" stroke="#63b8ff" d="M540.14,-335.6C515.58,-308.78 444.89,-231.57 412.86,-196.6"/>
<polygon fill="#63b8ff" stroke="#63b8ff" points="415.62,-194.43 406.29,-189.41 410.46,-199.15 415.62,-194.43"/>
</a>
</g>
</g>
<!-- Node6 -->
<g id="Node000006" class="node">
<title>Node6</title>
<g id="a_Node000006"><a xlink:href="_game_object_8h.html" target="_top" xlink:title=" ">
<polygon fill="white" stroke="#666666" points="693.25,-300 614.25,-300 614.25,-280 693.25,-280 693.25,-300"/>
<text text-anchor="middle" x="653.75" y="-286.5" font-family="Helvetica,sans-Serif" font-size="10.00">GameObject.h</text>
</a>
</g>
</g>
<!-- Node5&#45;&gt;Node6 -->
<g id="edge5_Node000005_Node000006" class="edge">
<title>Node5&#45;&gt;Node6</title>
<g id="a_edge5_Node000005_Node000006"><a xlink:title=" ">
<path fill="none" stroke="#63b8ff" d="M567.04,-335.59C583.05,-327.36 606.58,-315.26 625.09,-305.74"/>
<polygon fill="#63b8ff" stroke="#63b8ff" points="626.68,-308.86 633.97,-301.17 623.48,-302.63 626.68,-308.86"/>
</a>
</g>
</g>
<!-- Node17 -->
<g id="Node000017" class="node">
<title>Node17</title>
<g id="a_Node000017"><a xlink:href="_vector2x2f_8h.html" target="_top" xlink:title=" ">
<polygon fill="white" stroke="#666666" points="596.12,-300 525.38,-300 525.38,-280 596.12,-280 596.12,-300"/>
<text text-anchor="middle" x="560.75" y="-286.5" font-family="Helvetica,sans-Serif" font-size="10.00">Vector2x2f.h</text>
</a>
</g>
</g>
<!-- Node5&#45;&gt;Node17 -->
<g id="edge18_Node000005_Node000017" class="edge">
<title>Node5&#45;&gt;Node17</title>
<g id="a_edge18_Node000005_Node000017"><a xlink:title=" ">
<path fill="none" stroke="#63b8ff" d="M550.84,-335.59C552.32,-328.93 554.36,-319.75 556.21,-311.44"/>
<polygon fill="#63b8ff" stroke="#63b8ff" points="559.6,-312.3 558.36,-301.78 552.77,-310.78 559.6,-312.3"/>
</a>
</g>
</g>
<!-- Node7 -->
<g id="Node000007" class="node">
<title>Node7</title>
<g id="a_Node000007"><a xlink:href="_transform_8h.html" target="_top" xlink:title=" ">
<polygon fill="white" stroke="#666666" points="806,-188 737.5,-188 737.5,-168 806,-168 806,-188"/>
<text text-anchor="middle" x="771.75" y="-174.5" font-family="Helvetica,sans-Serif" font-size="10.00">Transform.h</text>
</a>
</g>
</g>
<!-- Node6&#45;&gt;Node7 -->
<g id="edge6_Node000006_Node000007" class="edge">
<title>Node6&#45;&gt;Node7</title>
<g id="a_edge6_Node000006_Node000007"><a xlink:title=" ">
<path fill="none" stroke="#63b8ff" d="M693.64,-282.09C716.72,-275.99 744.35,-264.69 760.75,-244 770.66,-231.5 773.04,-213.35 773.15,-199.4"/>
<polygon fill="#63b8ff" stroke="#63b8ff" points="776.65,-199.45 772.82,-189.57 769.66,-199.69 776.65,-199.45"/>
</a>
</g>
</g>
<!-- Node8 -->
<g id="Node000008" class="node">
<title>Node8</title>
<g id="a_Node000008"><a xlink:href="base_8h.html" target="_top" xlink:title=" ">
<polygon fill="white" stroke="#666666" points="706.38,-132 661.12,-132 661.12,-112 706.38,-112 706.38,-132"/>
<text text-anchor="middle" x="683.75" y="-118.5" font-family="Helvetica,sans-Serif" font-size="10.00">base.h</text>
</a>
</g>
</g>
<!-- Node7&#45;&gt;Node8 -->
<g id="edge7_Node000007_Node000008" class="edge">
<title>Node7&#45;&gt;Node8</title>
<g id="a_edge7_Node000007_Node000008"><a xlink:title=" ">
<path fill="none" stroke="#63b8ff" d="M756.42,-167.59C743.25,-159.51 724.02,-147.71 708.64,-138.27"/>
<polygon fill="#63b8ff" stroke="#63b8ff" points="710.84,-135.52 700.49,-133.27 707.18,-141.48 710.84,-135.52"/>
</a>
</g>
</g>
<!-- Node16 -->
<g id="Node000016" class="node">
<title>Node16</title>
<g id="a_Node000016"><a xlink:href="_vector2f_8h.html" target="_top" xlink:title=" ">
<polygon fill="white" stroke="#666666" points="462.88,-20 402.62,-20 402.62,0 462.88,0 462.88,-20"/>
<text text-anchor="middle" x="432.75" y="-6.5" font-family="Helvetica,sans-Serif" font-size="10.00">Vector2f.h</text>
</a>
</g>
</g>
<!-- Node7&#45;&gt;Node16 -->
<g id="edge17_Node000007_Node000016" class="edge">
<title>Node7&#45;&gt;Node16</title>
<g id="a_edge17_Node000007_Node000016"><a xlink:title=" ">
<path fill="none" stroke="#63b8ff" d="M795.83,-167.64C843.12,-147.97 940.15,-100.48 899.75,-56 871.42,-24.8 583.68,-14.64 474.48,-11.89"/>
<polygon fill="#63b8ff" stroke="#63b8ff" points="474.87,-8.4 464.79,-11.65 474.7,-15.39 474.87,-8.4"/>
</a>
</g>
</g>
<!-- Node9 -->
<g id="Node000009" class="node">
<title>Node9</title>
<g id="a_Node000009"><a xlink:title=" ">
<polygon fill="#e0e0e0" stroke="#999999" points="626.62,-76 582.88,-76 582.88,-56 626.62,-56 626.62,-76"/>
<text text-anchor="middle" x="604.75" y="-62.5" font-family="Helvetica,sans-Serif" font-size="10.00">SDL.h</text>
</a>
</g>
</g>
<!-- Node8&#45;&gt;Node9 -->
<g id="edge8_Node000008_Node000009" class="edge">
<title>Node8&#45;&gt;Node9</title>
<g id="a_edge8_Node000008_Node000009"><a xlink:title=" ">
<path fill="none" stroke="#63b8ff" d="M669.99,-111.59C658.39,-103.67 641.55,-92.16 627.89,-82.82"/>
<polygon fill="#63b8ff" stroke="#63b8ff" points="630.1,-80.09 619.87,-77.33 626.15,-85.87 630.1,-80.09"/>
</a>
</g>
</g>
<!-- Node10 -->
<g id="Node000010" class="node">
<title>Node10</title>
<g id="a_Node000010"><a xlink:title=" ">
<polygon fill="#e0e0e0" stroke="#999999" points="722.5,-76 645,-76 645,-56 722.5,-56 722.5,-76"/>
<text text-anchor="middle" x="683.75" y="-62.5" font-family="Helvetica,sans-Serif" font-size="10.00">SDL_opengl.h</text>
</a>
</g>
</g>
<!-- Node8&#45;&gt;Node10 -->
<g id="edge9_Node000008_Node000010" class="edge">
<title>Node8&#45;&gt;Node10</title>
<g id="a_edge9_Node000008_Node000010"><a xlink:title=" ">
<path fill="none" stroke="#63b8ff" d="M683.75,-111.59C683.75,-105.01 683.75,-95.96 683.75,-87.73"/>
<polygon fill="#63b8ff" stroke="#63b8ff" points="687.25,-87.81 683.75,-77.81 680.25,-87.81 687.25,-87.81"/>
</a>
</g>
</g>
<!-- Node11 -->
<g id="Node000011" class="node">
<title>Node11</title>
<g id="a_Node000011"><a xlink:title=" ">
<polygon fill="#e0e0e0" stroke="#999999" points="798.75,-76 740.75,-76 740.75,-56 798.75,-56 798.75,-76"/>
<text text-anchor="middle" x="769.75" y="-62.5" font-family="Helvetica,sans-Serif" font-size="10.00">SDL_ttf.h</text>
</a>
</g>
</g>
<!-- Node8&#45;&gt;Node11 -->
<g id="edge10_Node000008_Node000011" class="edge">
<title>Node8&#45;&gt;Node11</title>
<g id="a_edge10_Node000008_Node000011"><a xlink:title=" ">
<path fill="none" stroke="#63b8ff" d="M698.73,-111.59C711.48,-103.59 730.04,-91.93 744.99,-82.54"/>
<polygon fill="#63b8ff" stroke="#63b8ff" points="746.76,-85.57 753.37,-77.28 743.04,-79.64 746.76,-85.57"/>
</a>
</g>
</g>
<!-- Node12 -->
<g id="Node000012" class="node">
<title>Node12</title>
<g id="a_Node000012"><a xlink:title=" ">
<polygon fill="#e0e0e0" stroke="#999999" points="890.25,-76 817.25,-76 817.25,-56 890.25,-56 890.25,-76"/>
<text text-anchor="middle" x="853.75" y="-62.5" font-family="Helvetica,sans-Serif" font-size="10.00">SDL_mixer.h</text>
</a>
</g>
</g>
<!-- Node8&#45;&gt;Node12 -->
<g id="edge11_Node000008_Node000012" class="edge">
<title>Node8&#45;&gt;Node12</title>
<g id="a_edge11_Node000008_Node000012"><a xlink:title=" ">
<path fill="none" stroke="#63b8ff" d="M706.68,-113.72C733.95,-105.05 779.98,-90.43 813.29,-79.85"/>
<polygon fill="#63b8ff" stroke="#63b8ff" points="814.14,-83.25 822.62,-76.89 812.02,-76.58 814.14,-83.25"/>
</a>
</g>
</g>
<!-- Node13 -->
<g id="Node000013" class="node">
<title>Node13</title>
<g id="a_Node000013"><a xlink:title=" ">
<polygon fill="#e0e0e0" stroke="#999999" points="564.38,-76 489.12,-76 489.12,-56 564.38,-56 564.38,-76"/>
<text text-anchor="middle" x="526.75" y="-62.5" font-family="Helvetica,sans-Serif" font-size="10.00">SDL_image.h</text>
</a>
</g>
</g>
<!-- Node8&#45;&gt;Node13 -->
<g id="edge12_Node000008_Node000013" class="edge">
<title>Node8&#45;&gt;Node13</title>
<g id="a_edge12_Node000008_Node000013"><a xlink:title=" ">
<path fill="none" stroke="#63b8ff" d="M660.92,-113.15C635.77,-104.5 594.92,-90.45 564.89,-80.12"/>
<polygon fill="#63b8ff" stroke="#63b8ff" points="566.4,-76.93 555.8,-76.99 564.12,-83.55 566.4,-76.93"/>
</a>
</g>
</g>
<!-- Node14 -->
<g id="Node000014" class="node">
<title>Node14</title>
<g id="a_Node000014"><a xlink:href="structs_8h.html" target="_top" xlink:title=" ">
<polygon fill="white" stroke="#666666" points="432.88,-76 378.62,-76 378.62,-56 432.88,-56 432.88,-76"/>
<text text-anchor="middle" x="405.75" y="-62.5" font-family="Helvetica,sans-Serif" font-size="10.00">structs.h</text>
</a>
</g>
</g>
<!-- Node8&#45;&gt;Node14 -->
<g id="edge13_Node000008_Node000014" class="edge">
<title>Node8&#45;&gt;Node14</title>
<g id="a_edge13_Node000008_Node000014"><a xlink:title=" ">
<path fill="none" stroke="#63b8ff" d="M661,-116.58C613.47,-107.35 503.16,-85.92 444.33,-74.49"/>
<polygon fill="#63b8ff" stroke="#63b8ff" points="445.25,-71.11 434.77,-72.64 443.92,-77.98 445.25,-71.11"/>
</a>
</g>
</g>
<!-- Node15 -->
<g id="Node000015" class="node">
<title>Node15</title>
<g id="a_Node000015"><a xlink:title=" ">
<polygon fill="#e0e0e0" stroke="#999999" points="128.75,-20 88.75,-20 88.75,0 128.75,0 128.75,-20"/>
<text text-anchor="middle" x="108.75" y="-6.5" font-family="Helvetica,sans-Serif" font-size="10.00">string</text>
</a>
</g>
</g>
<!-- Node14&#45;&gt;Node15 -->
<g id="edge14_Node000014_Node000015" class="edge">
<title>Node14&#45;&gt;Node15</title>
<g id="a_edge14_Node000014_Node000015"><a xlink:title=" ">
<path fill="none" stroke="#63b8ff" d="M378.34,-60.02C323.12,-49.98 198.79,-27.37 140.3,-16.74"/>
<polygon fill="#63b8ff" stroke="#63b8ff" points="141.15,-13.33 130.68,-14.99 139.89,-20.22 141.15,-13.33"/>
</a>
</g>
</g>
<!-- Node14&#45;&gt;Node16 -->
<g id="edge15_Node000014_Node000016" class="edge">
<title>Node14&#45;&gt;Node16</title>
<g id="a_edge15_Node000014_Node000016"><a xlink:title=" ">
<path fill="none" stroke="#63b8ff" d="M405.19,-55.59C407.3,-48.55 411.83,-38.67 416.77,-30"/>
<polygon fill="#63b8ff" stroke="#63b8ff" points="419.7,-31.91 422.05,-21.58 413.77,-28.19 419.7,-31.91"/>
</a>
</g>
</g>
<!-- Node16&#45;&gt;Node14 -->
<g id="edge16_Node000016_Node000014" class="edge">
<title>Node16&#45;&gt;Node14</title>
<g id="a_edge16_Node000016_Node000014"><a xlink:title=" ">
<path fill="none" stroke="#63b8ff" d="M433.35,-20.3C431.26,-27.32 426.74,-37.19 421.81,-45.87"/>
<polygon fill="#63b8ff" stroke="#63b8ff" points="418.86,-43.98 416.52,-54.31 424.79,-47.69 418.86,-43.98"/>
</a>
</g>
</g>
<!-- Node18 -->
<g id="Node000018" class="node">
<title>Node18</title>
<g id="a_Node000018"><a xlink:href="utils_8h.html" target="_top" xlink:title=" ">
<polygon fill="white" stroke="#666666" points="567.88,-244 525.62,-244 525.62,-224 567.88,-224 567.88,-244"/>
<text text-anchor="middle" x="546.75" y="-230.5" font-family="Helvetica,sans-Serif" font-size="10.00">utils.h</text>
</a>
</g>
</g>
<!-- Node17&#45;&gt;Node18 -->
<g id="edge19_Node000017_Node000018" class="edge">
<title>Node17&#45;&gt;Node18</title>
<g id="a_edge19_Node000017_Node000018"><a xlink:title=" ">
<path fill="none" stroke="#63b8ff" d="M558.31,-279.59C556.58,-272.93 554.2,-263.75 552.05,-255.44"/>
<polygon fill="#63b8ff" stroke="#63b8ff" points="555.44,-254.56 549.54,-245.76 548.66,-256.32 555.44,-254.56"/>
</a>
</g>
</g>
<!-- Node18&#45;&gt;Node2 -->
<g id="edge20_Node000018_Node000002" class="edge">
<title>Node18&#45;&gt;Node2</title>
<g id="a_edge20_Node000018_Node000002"><a xlink:title=" ">
<path fill="none" stroke="#63b8ff" d="M525.26,-225.26C500.12,-216.21 458.24,-201.14 429.15,-190.66"/>
<polygon fill="#63b8ff" stroke="#63b8ff" points="430.71,-187.5 420.11,-187.41 428.34,-194.09 430.71,-187.5"/>
</a>
</g>
</g>
<!-- Node18&#45;&gt;Node16 -->
<g id="edge21_Node000018_Node000016" class="edge">
<title>Node18&#45;&gt;Node16</title>
<g id="a_edge21_Node000018_Node000016"><a xlink:title=" ">
<path fill="none" stroke="#63b8ff" d="M542,-223.74C524.9,-190.46 466.33,-76.39 442.72,-30.42"/>
<polygon fill="#63b8ff" stroke="#63b8ff" points="445.9,-28.94 438.21,-21.64 439.67,-32.14 445.9,-28.94"/>
</a>
</g>
</g>
<!-- Node19&#45;&gt;Node2 -->
<g id="edge25_Node000019_Node000002" class="edge">
<title>Node19&#45;&gt;Node2</title>
<g id="a_edge25_Node000019_Node000002"><a xlink:title=" ">
<path fill="none" stroke="#63b8ff" d="M709.22,-226.13C706.39,-225.35 703.51,-224.61 700.75,-224 603.47,-202.33 486.3,-188.32 430.06,-182.34"/>
<polygon fill="#63b8ff" stroke="#63b8ff" points="430.51,-178.86 420.2,-181.31 429.78,-185.83 430.51,-178.86"/>
</a>
</g>
</g>
<!-- Node19&#45;&gt;Node7 -->
<g id="edge24_Node000019_Node000007" class="edge">
<title>Node19&#45;&gt;Node7</title>
<g id="a_edge24_Node000019_Node000007"><a xlink:title=" ">
<path fill="none" stroke="#63b8ff" d="M737.89,-223.59C743.36,-216.39 751.07,-206.23 757.76,-197.43"/>
<polygon fill="#63b8ff" stroke="#63b8ff" points="760.52,-199.58 763.77,-189.5 754.94,-195.35 760.52,-199.58"/>
</a>
</g>
</g>
<!-- Node20 -->
<g id="Node000020" class="node">
<title>Node20</title>
<g id="a_Node000020"><a xlink:href="_texture_8h.html" target="_top" xlink:title=" ">
<polygon fill="white" stroke="#666666" points="712,-188 655.5,-188 655.5,-168 712,-168 712,-188"/>
<text text-anchor="middle" x="683.75" y="-174.5" font-family="Helvetica,sans-Serif" font-size="10.00">Texture.h</text>
</a>
</g>
</g>
<!-- Node19&#45;&gt;Node20 -->
<g id="edge26_Node000019_Node000020" class="edge">
<title>Node19&#45;&gt;Node20</title>
<g id="a_edge26_Node000019_Node000020"><a xlink:title=" ">
<path fill="none" stroke="#63b8ff" d="M722.56,-223.59C716.16,-216.24 707.07,-205.8 699.3,-196.87"/>
<polygon fill="#63b8ff" stroke="#63b8ff" points="702.04,-194.69 692.84,-189.44 696.76,-199.28 702.04,-194.69"/>
</a>
</g>
</g>
<!-- Node20&#45;&gt;Node8 -->
<g id="edge27_Node000020_Node000008" class="edge">
<title>Node20&#45;&gt;Node8</title>
<g id="a_edge27_Node000020_Node000008"><a xlink:title=" ">
<path fill="none" stroke="#63b8ff" d="M683.75,-167.59C683.75,-161.01 683.75,-151.96 683.75,-143.73"/>
<polygon fill="#63b8ff" stroke="#63b8ff" points="687.25,-143.81 683.75,-133.81 680.25,-143.81 687.25,-143.81"/>
</a>
</g>
</g>
<!-- Node21&#45;&gt;Node2 -->
<g id="edge34_Node000021_Node000002" class="edge">
<title>Node21&#45;&gt;Node2</title>
<g id="a_edge34_Node000021_Node000002"><a xlink:title=" ">
<path fill="none" stroke="#63b8ff" d="M363.06,-335.54C345.74,-328.68 325.97,-317.47 315.75,-300 311.26,-292.33 312.8,-288.39 315.75,-280 327.84,-245.61 357.11,-214.26 376.95,-195.9"/>
<polygon fill="#63b8ff" stroke="#63b8ff" points="379.07,-198.7 384.18,-189.42 374.4,-193.49 379.07,-198.7"/>
</a>
</g>
</g>
<!-- Node22 -->
<g id="Node000022" class="node">
<title>Node22</title>
<g id="a_Node000022"><a xlink:href="_animation_manager_a_n_d_hair_8h.html" target="_top" xlink:title=" ">
<polygon fill="white" stroke="#666666" points="469.25,-300 324.25,-300 324.25,-280 469.25,-280 469.25,-300"/>
<text text-anchor="middle" x="396.75" y="-286.5" font-family="Helvetica,sans-Serif" font-size="10.00">AnimationManagerANDHair.h</text>
</a>
</g>
</g>
<!-- Node21&#45;&gt;Node22 -->
<g id="edge29_Node000021_Node000022" class="edge">
<title>Node21&#45;&gt;Node22</title>
<g id="a_edge29_Node000021_Node000022"><a xlink:title=" ">
<path fill="none" stroke="#63b8ff" d="M395.92,-335.59C396.05,-329.01 396.21,-319.96 396.37,-311.73"/>
<polygon fill="#63b8ff" stroke="#63b8ff" points="399.86,-311.87 396.55,-301.81 392.87,-311.75 399.86,-311.87"/>
</a>
</g>
</g>
<!-- Node21&#45;&gt;Node24 -->
<g id="edge33_Node000021_Node000024" class="edge">
<title>Node21&#45;&gt;Node24</title>
<g id="a_edge33_Node000021_Node000024"><a xlink:title=" ">
<path fill="none" stroke="#63b8ff" d="M365.62,-335.59C337.51,-326.82 295.34,-313.66 264.09,-303.9"/>
<polygon fill="#63b8ff" stroke="#63b8ff" points="265.15,-300.57 254.56,-300.93 263.07,-307.25 265.15,-300.57"/>
</a>
</g>
</g>
<!-- Node22&#45;&gt;Node2 -->
<g id="edge32_Node000022_Node000002" class="edge">
<title>Node22&#45;&gt;Node2</title>
<g id="a_edge32_Node000022_Node000002"><a xlink:title=" ">
<path fill="none" stroke="#63b8ff" d="M396.75,-279.62C396.75,-262.01 396.75,-223.59 396.75,-199.65"/>
<polygon fill="#63b8ff" stroke="#63b8ff" points="400.25,-199.87 396.75,-189.87 393.25,-199.87 400.25,-199.87"/>
</a>
</g>
</g>
<!-- Node23 -->
<g id="Node000023" class="node">
<title>Node23</title>
<g id="a_Node000023"><a xlink:href="_animation_manager_8h.html" target="_top" xlink:title=" ">
<polygon fill="white" stroke="#666666" points="691.38,-244 586.12,-244 586.12,-224 691.38,-224 691.38,-244"/>
<text text-anchor="middle" x="638.75" y="-230.5" font-family="Helvetica,sans-Serif" font-size="10.00">AnimationManager.h</text>
</a>
</g>
</g>
<!-- Node22&#45;&gt;Node23 -->
<g id="edge30_Node000022_Node000023" class="edge">
<title>Node22&#45;&gt;Node23</title>
<g id="a_edge30_Node000022_Node000023"><a xlink:title=" ">
<path fill="none" stroke="#63b8ff" d="M439.18,-279.53C479.83,-270.46 541.33,-256.74 585.31,-246.93"/>
<polygon fill="#63b8ff" stroke="#63b8ff" points="585.89,-250.38 594.89,-244.79 584.37,-243.55 585.89,-250.38"/>
</a>
</g>
</g>
<!-- Node23&#45;&gt;Node20 -->
<g id="edge31_Node000023_Node000020" class="edge">
<title>Node23&#45;&gt;Node20</title>
<g id="a_edge31_Node000023_Node000020"><a xlink:title=" ">
<path fill="none" stroke="#63b8ff" d="M646.59,-223.59C652.72,-216.24 661.42,-205.8 668.86,-196.87"/>
<polygon fill="#63b8ff" stroke="#63b8ff" points="671.32,-199.38 675.03,-189.46 665.94,-194.9 671.32,-199.38"/>
</a>
</g>
</g>
<!-- Node25&#45;&gt;Node24 -->
<g id="edge37_Node000025_Node000024" class="edge">
<title>Node25&#45;&gt;Node24</title>
<g id="a_edge37_Node000025_Node000024"><a xlink:title=" ">
<path fill="none" stroke="#63b8ff" d="M208.71,-335.59C210.83,-328.86 213.77,-319.53 216.41,-311.15"/>
<polygon fill="#63b8ff" stroke="#63b8ff" points="219.7,-312.33 219.37,-301.74 213.03,-310.23 219.7,-312.33"/>
</a>
</g>
</g>
<!-- Node26 -->
<g id="Node000026" class="node">
<title>Node26</title>
<g id="a_Node000026"><a xlink:href="_sound_effect_8h.html" target="_top" xlink:title=" ">
<polygon fill="white" stroke="#666666" points="147.5,-244 70,-244 70,-224 147.5,-224 147.5,-244"/>
<text text-anchor="middle" x="108.75" y="-230.5" font-family="Helvetica,sans-Serif" font-size="10.00">SoundEffect.h</text>
</a>
</g>
</g>
<!-- Node25&#45;&gt;Node26 -->
<g id="edge38_Node000025_Node000026" class="edge">
<title>Node25&#45;&gt;Node26</title>
<g id="a_edge38_Node000025_Node000026"><a xlink:title=" ">
<path fill="none" stroke="#63b8ff" d="M197.48,-335.62C181.3,-317.27 145.23,-276.37 124.41,-252.75"/>
<polygon fill="#63b8ff" stroke="#63b8ff" points="127.24,-250.68 118,-245.49 121.99,-255.31 127.24,-250.68"/>
</a>
</g>
</g>
<!-- Node25&#45;&gt;Node27 -->
<g id="edge41_Node000025_Node000027" class="edge">
<title>Node25&#45;&gt;Node27</title>
<g id="a_edge41_Node000025_Node000027"><a xlink:title=" ">
<path fill="none" stroke="#63b8ff" d="M177.18,-335.59C150.65,-326.86 110.91,-313.77 81.33,-304.03"/>
<polygon fill="#63b8ff" stroke="#63b8ff" points="82.57,-300.76 71.98,-300.95 80.38,-307.4 82.57,-300.76"/>
</a>
</g>
</g>
<!-- Node26&#45;&gt;Node2 -->
<g id="edge40_Node000026_Node000002" class="edge">
<title>Node26&#45;&gt;Node2</title>
<g id="a_edge40_Node000026_Node000002"><a xlink:title=" ">
<path fill="none" stroke="#63b8ff" d="M147.89,-225.66C205.08,-214.94 310.48,-195.18 363.88,-185.16"/>
<polygon fill="#63b8ff" stroke="#63b8ff" points="364.4,-188.63 373.58,-183.34 363.1,-181.75 364.4,-188.63"/>
</a>
</g>
</g>
<!-- Node26&#45;&gt;Node15 -->
<g id="edge39_Node000026_Node000015" class="edge">
<title>Node26&#45;&gt;Node15</title>
<g id="a_edge39_Node000026_Node000015"><a xlink:title=" ">
<path fill="none" stroke="#63b8ff" d="M108.75,-223.74C108.75,-190.74 108.75,-78.31 108.75,-31.61"/>
<polygon fill="#63b8ff" stroke="#63b8ff" points="112.25,-31.81 108.75,-21.81 105.25,-31.81 112.25,-31.81"/>
</a>
</g>
</g>
<!-- Node27&#45;&gt;Node15 -->
<g id="edge42_Node000027_Node000015" class="edge">
<title>Node27&#45;&gt;Node15</title>
<g id="a_edge42_Node000027_Node000015"><a xlink:title=" ">
<path fill="none" stroke="#63b8ff" d="M41.75,-279.58C41.75,-260.57 41.75,-216.24 41.75,-179 41.75,-179 41.75,-179 41.75,-121 41.75,-83.8 70.05,-48.49 89.87,-28.33"/>
<polygon fill="#63b8ff" stroke="#63b8ff" points="92.18,-30.96 96.9,-21.47 87.3,-25.94 92.18,-30.96"/>
</a>
</g>
</g>
<!-- Node28&#45;&gt;Node3 -->
<g id="edge44_Node000028_Node000003" class="edge">
<title>Node28&#45;&gt;Node3</title>
<g id="a_edge44_Node000028_Node000003"><a xlink:title=" ">
<path fill="none" stroke="#63b8ff" d="M347.87,-562.03C329.61,-555.46 306.09,-543.63 294.75,-524 283.68,-504.84 304.2,-486.35 323.82,-474.03"/>
<polygon fill="#63b8ff" stroke="#63b8ff" points="325.37,-477.18 332.23,-469.1 321.83,-471.14 325.37,-477.18"/>
</a>
</g>
</g>
<!-- Node29&#45;&gt;Node3 -->
<g id="edge46_Node000029_Node000003" class="edge">
<title>Node29&#45;&gt;Node3</title>
<g id="a_edge46_Node000029_Node000003"><a xlink:title=" ">
<path fill="none" stroke="#63b8ff" d="M342.01,-503.59C343.62,-496.93 345.83,-487.75 347.83,-479.44"/>
<polygon fill="#63b8ff" stroke="#63b8ff" points="351.22,-480.31 350.16,-469.77 344.41,-478.67 351.22,-480.31"/>
</a>
</g>
</g>
<!-- Node30 -->
<g id="Node000030" class="node">
<title>Node30</title>
<g id="a_Node000030"><a xlink:href="_counted_item_8h.html" target="_top" xlink:title=" ">
<polygon fill="white" stroke="#666666" points="624,-468 543.5,-468 543.5,-448 624,-448 624,-468"/>
<text text-anchor="middle" x="583.75" y="-454.5" font-family="Helvetica,sans-Serif" font-size="10.00">CountedItem.h</text>
</a>
</g>
</g>
<!-- Node29&#45;&gt;Node30 -->
<g id="edge47_Node000029_Node000030" class="edge">
<title>Node29&#45;&gt;Node30</title>
<g id="a_edge47_Node000029_Node000030"><a xlink:title=" ">
<path fill="none" stroke="#63b8ff" d="M376.28,-504.92C417.67,-495.76 485.43,-480.76 532.2,-470.41"/>
<polygon fill="#63b8ff" stroke="#63b8ff" points="532.82,-473.86 541.83,-468.28 531.31,-467.02 532.82,-473.86"/>
</a>
</g>
</g>
<!-- Node31 -->
<g id="Node000031" class="node">
<title>Node31</title>
<g id="a_Node000031"><a xlink:title=" ">
<polygon fill="#e0e0e0" stroke="#999999" points="610.5,-412 557,-412 557,-392 610.5,-392 610.5,-412"/>
<text text-anchor="middle" x="583.75" y="-398.5" font-family="Helvetica,sans-Serif" font-size="10.00">iostream</text>
</a>
</g>
</g>
<!-- Node30&#45;&gt;Node31 -->
<g id="edge48_Node000030_Node000031" class="edge">
<title>Node30&#45;&gt;Node31</title>
<g id="a_edge48_Node000030_Node000031"><a xlink:title=" ">
<path fill="none" stroke="#63b8ff" d="M583.75,-447.59C583.75,-441.01 583.75,-431.96 583.75,-423.73"/>
<polygon fill="#63b8ff" stroke="#63b8ff" points="587.25,-423.81 583.75,-413.81 580.25,-423.81 587.25,-423.81"/>
</a>
</g>
</g>
<!-- Node32&#45;&gt;Node3 -->
<g id="edge50_Node000032_Node000003" class="edge">
<title>Node32&#45;&gt;Node3</title>
<g id="a_edge50_Node000032_Node000003"><a xlink:title=" ">
<path fill="none" stroke="#63b8ff" d="M691.25,-505.53C688.38,-504.99 685.52,-504.47 682.75,-504 588.38,-487.93 478.05,-473.83 411.87,-465.86"/>
<polygon fill="#63b8ff" stroke="#63b8ff" points="412.29,-462.39 401.95,-464.68 411.46,-469.34 412.29,-462.39"/>
</a>
</g>
</g>
<!-- Node32&#45;&gt;Node23 -->
<g id="edge51_Node000032_Node000023" class="edge">
<title>Node32&#45;&gt;Node23</title>
<g id="a_edge51_Node000032_Node000023"><a xlink:title=" ">
<path fill="none" stroke="#63b8ff" d="M728.36,-503.72C733.59,-470.61 747.38,-356.12 702.75,-280 695.29,-267.28 682.64,-257.25 670.55,-249.92"/>
<polygon fill="#63b8ff" stroke="#63b8ff" points="672.41,-246.95 661.97,-245.14 669,-253.07 672.41,-246.95"/>
</a>
</g>
</g>
<!-- Node32&#45;&gt;Node30 -->
<g id="edge52_Node000032_Node000030" class="edge">
<title>Node32&#45;&gt;Node30</title>
<g id="a_edge52_Node000032_Node000030"><a xlink:title=" ">
<path fill="none" stroke="#63b8ff" d="M701.84,-503.59C679.02,-494.97 644.97,-482.12 619.29,-472.42"/>
<polygon fill="#63b8ff" stroke="#63b8ff" points="620.86,-469.27 610.27,-469.01 618.39,-475.82 620.86,-469.27"/>
</a>
</g>
</g>
<!-- Node33&#45;&gt;Node3 -->
<g id="edge54_Node000033_Node000003" class="edge">
<title>Node33&#45;&gt;Node3</title>
<g id="a_edge54_Node000033_Node000003"><a xlink:title=" ">
<path fill="none" stroke="#63b8ff" d="M284.34,-559.51C281.5,-546.22 278.29,-521.72 287.75,-504 294.67,-491.04 307.16,-481.05 319.36,-473.81"/>
<polygon fill="#63b8ff" stroke="#63b8ff" points="320.95,-476.93 328.08,-469.1 317.62,-470.78 320.95,-476.93"/>
</a>
</g>
</g>
<!-- Node34&#45;&gt;Node3 -->
<g id="edge56_Node000034_Node000003" class="edge">
<title>Node34&#45;&gt;Node3</title>
<g id="a_edge56_Node000034_Node000003"><a xlink:title=" ">
<path fill="none" stroke="#63b8ff" d="M419.64,-503.59C407.75,-495.67 390.48,-484.16 376.47,-474.82"/>
<polygon fill="#63b8ff" stroke="#63b8ff" points="378.49,-471.95 368.23,-469.32 374.61,-477.78 378.49,-471.95"/>
</a>
</g>
</g>
<!-- Node34&#45;&gt;Node30 -->
<g id="edge57_Node000034_Node000030" class="edge">
<title>Node34&#45;&gt;Node30</title>
<g id="a_edge57_Node000034_Node000030"><a xlink:title=" ">
<path fill="none" stroke="#63b8ff" d="M459.88,-503.59C483.93,-494.94 519.85,-482 546.83,-472.29"/>
<polygon fill="#63b8ff" stroke="#63b8ff" points="547.77,-475.67 555.99,-468.99 545.4,-469.09 547.77,-475.67"/>
</a>
</g>
</g>
<!-- Node35&#45;&gt;Node3 -->
<g id="edge59_Node000035_Node000003" class="edge">
<title>Node35&#45;&gt;Node3</title>
<g id="a_edge59_Node000035_Node000003"><a xlink:title=" ">
<path fill="none" stroke="#63b8ff" d="M502.22,-503.59C472.56,-494.74 427.92,-481.43 395.14,-471.65"/>
<polygon fill="#63b8ff" stroke="#63b8ff" points="396.56,-468.42 385.97,-468.91 394.56,-475.13 396.56,-468.42"/>
</a>
</g>
</g>
<!-- Node35&#45;&gt;Node30 -->
<g id="edge60_Node000035_Node000030" class="edge">
<title>Node35&#45;&gt;Node30</title>
<g id="a_edge60_Node000035_Node000030"><a xlink:title=" ">
<path fill="none" stroke="#63b8ff" d="M542.46,-503.59C549.34,-496.16 559.14,-485.58 567.47,-476.58"/>
<polygon fill="#63b8ff" stroke="#63b8ff" points="569.89,-479.12 574.11,-469.41 564.75,-474.37 569.89,-479.12"/>
</a>
</g>
</g>
<!-- Node36&#45;&gt;Node3 -->
<g id="edge62_Node000036_Node000003" class="edge">
<title>Node36&#45;&gt;Node3</title>
<g id="a_edge62_Node000036_Node000003"><a xlink:title=" ">
<path fill="none" stroke="#63b8ff" d="M593.79,-505.32C546.26,-496.19 466.49,-480.86 411.83,-470.35"/>
<polygon fill="#63b8ff" stroke="#63b8ff" points="412.53,-466.92 402.05,-468.47 411.21,-473.8 412.53,-466.92"/>
</a>
</g>
</g>
<!-- Node36&#45;&gt;Node30 -->
<g id="edge63_Node000036_Node000030" class="edge">
<title>Node36&#45;&gt;Node30</title>
<g id="a_edge63_Node000036_Node000030"><a xlink:title=" ">
<path fill="none" stroke="#63b8ff" d="M625.04,-503.59C618.16,-496.16 608.36,-485.58 600.03,-476.58"/>
<polygon fill="#63b8ff" stroke="#63b8ff" points="602.75,-474.37 593.39,-469.41 597.61,-479.12 602.75,-474.37"/>
</a>
</g>
</g>
<!-- Node37&#45;&gt;Node30 -->
<g id="edge66_Node000037_Node000030" class="edge">
<title>Node37&#45;&gt;Node30</title>
<g id="a_edge66_Node000037_Node000030"><a xlink:title=" ">
<path fill="none" stroke="#63b8ff" d="M741,-559.66C758.93,-546.77 785.68,-522.95 770.75,-504 754.17,-482.95 684.87,-470.61 635.48,-464.33"/>
<polygon fill="#63b8ff" stroke="#63b8ff" points="636.19,-460.89 625.84,-463.15 635.34,-467.84 636.19,-460.89"/>
</a>
</g>
</g>
<!-- Node37&#45;&gt;Node32 -->
<g id="edge65_Node000037_Node000032" class="edge">
<title>Node37&#45;&gt;Node32</title>
<g id="a_edge65_Node000037_Node000032"><a xlink:title=" ">
<path fill="none" stroke="#63b8ff" d="M726.75,-559.59C726.75,-553.01 726.75,-543.96 726.75,-535.73"/>
<polygon fill="#63b8ff" stroke="#63b8ff" points="730.25,-535.81 726.75,-525.81 723.25,-535.81 730.25,-535.81"/>
</a>
</g>
</g>
<!-- Node38&#45;&gt;Node3 -->
<g id="edge68_Node000038_Node000003" class="edge">
<title>Node38&#45;&gt;Node3</title>
<g id="a_edge68_Node000038_Node000003"><a xlink:title=" ">
<path fill="none" stroke="#63b8ff" d="M211.63,-559.6C225.72,-546.43 252.67,-522.06 277.75,-504 292.92,-493.08 310.85,-482.25 325.37,-473.96"/>
<polygon fill="#63b8ff" stroke="#63b8ff" points="326.93,-477.09 333.93,-469.14 323.5,-470.99 326.93,-477.09"/>
</a>
</g>
</g>
</g>
</svg>
