<?xml version="1.0" encoding="UTF-8" standalone="no"?>
<!DOCTYPE svg PUBLIC "-//W3C//DTD SVG 1.1//EN"
 "http://www.w3.org/Graphics/SVG/1.1/DTD/svg11.dtd">
<!-- Generated by graphviz version 12.2.1 (20241206.2353)
 -->
<!-- Title: Celeste/CharacterSoundManager.h Pages: 1 -->
<svg width="1836pt" height="532pt"
 viewBox="0.00 0.00 1836.12 532.00" xmlns="http://www.w3.org/2000/svg" xmlns:xlink="http://www.w3.org/1999/xlink">
<g id="graph0" class="graph" transform="scale(1 1) rotate(0) translate(4 528)">
<title>Celeste/CharacterSoundManager.h</title>
<!-- Node1 -->
<g id="Node000001" class="node">
<title>Node1</title>
<g id="a_Node000001"><a xlink:title=" ">
<polygon fill="#999999" stroke="#666666" points="325.62,-524 156.62,-524 156.62,-504 325.62,-504 325.62,-524"/>
<text text-anchor="middle" x="241.12" y="-510.5" font-family="Helvetica,sans-Serif" font-size="10.00">Celeste/CharacterSoundManager.h</text>
</a>
</g>
</g>
<!-- Node2 -->
<g id="Node000002" class="node">
<title>Node2</title>
<g id="a_Node000002"><a xlink:href="_character_8h.html" target="_top" xlink:title=" ">
<polygon fill="white" stroke="#666666" points="213,-468 109.25,-468 109.25,-448 213,-448 213,-468"/>
<text text-anchor="middle" x="161.12" y="-454.5" font-family="Helvetica,sans-Serif" font-size="10.00">Celeste/Character.h</text>
</a>
</g>
</g>
<!-- Node1&#45;&gt;Node2 -->
<g id="edge1_Node000001_Node000002" class="edge">
<title>Node1&#45;&gt;Node2</title>
<g id="a_edge1_Node000001_Node000002"><a xlink:title=" ">
<path fill="none" stroke="#63b8ff" d="M217.82,-497.27C204,-487.94 186.94,-476.43 175.17,-468.48"/>
<polygon fill="#63b8ff" stroke="#63b8ff" points="215.69,-500.05 225.94,-502.75 219.61,-494.25 215.69,-500.05"/>
</a>
</g>
</g>
<!-- Node33 -->
<g id="Node000033" class="node">
<title>Node33</title>
<g id="a_Node000033"><a xlink:href="_character_sound_manager_8cpp.html" target="_top" xlink:title=" ">
<polygon fill="white" stroke="#666666" points="410.88,-468 231.38,-468 231.38,-448 410.88,-448 410.88,-468"/>
<text text-anchor="middle" x="321.12" y="-454.5" font-family="Helvetica,sans-Serif" font-size="10.00">Celeste/CharacterSoundManager.cpp</text>
</a>
</g>
</g>
<!-- Node1&#45;&gt;Node33 -->
<g id="edge44_Node000001_Node000033" class="edge">
<title>Node1&#45;&gt;Node33</title>
<g id="a_edge44_Node000001_Node000033"><a xlink:title=" ">
<path fill="none" stroke="#63b8ff" d="M264.43,-497.27C278.25,-487.94 295.31,-476.43 307.08,-468.48"/>
<polygon fill="#63b8ff" stroke="#63b8ff" points="262.64,-494.25 256.31,-502.75 266.56,-500.05 262.64,-494.25"/>
</a>
</g>
</g>
<!-- Node3 -->
<g id="Node000003" class="node">
<title>Node3</title>
<g id="a_Node000003"><a xlink:href="_character_8cpp.html" target="_top" xlink:title=" ">
<polygon fill="white" stroke="#666666" points="114.25,-412 0,-412 0,-392 114.25,-392 114.25,-412"/>
<text text-anchor="middle" x="57.12" y="-398.5" font-family="Helvetica,sans-Serif" font-size="10.00">Celeste/Character.cpp</text>
</a>
</g>
</g>
<!-- Node2&#45;&gt;Node3 -->
<g id="edge2_Node000002_Node000003" class="edge">
<title>Node2&#45;&gt;Node3</title>
<g id="a_edge2_Node000002_Node000003"><a xlink:title=" ">
<path fill="none" stroke="#63b8ff" d="M132.9,-442.35C114.6,-432.84 91.29,-420.74 75.38,-412.48"/>
<polygon fill="#63b8ff" stroke="#63b8ff" points="131.18,-445.39 141.67,-446.9 134.4,-439.18 131.18,-445.39"/>
</a>
</g>
</g>
<!-- Node4 -->
<g id="Node000004" class="node">
<title>Node4</title>
<g id="a_Node000004"><a xlink:href="_game_8h.html" target="_top" xlink:title=" ">
<polygon fill="white" stroke="#666666" points="185.75,-76 98.5,-76 98.5,-56 185.75,-56 185.75,-76"/>
<text text-anchor="middle" x="142.12" y="-62.5" font-family="Helvetica,sans-Serif" font-size="10.00">Celeste/Game.h</text>
</a>
</g>
</g>
<!-- Node2&#45;&gt;Node4 -->
<g id="edge3_Node000002_Node000004" class="edge">
<title>Node2&#45;&gt;Node4</title>
<g id="a_edge3_Node000002_Node000004"><a xlink:title=" ">
<path fill="none" stroke="#63b8ff" d="M155.5,-436.81C149.9,-414.89 142.12,-378.74 142.12,-347 142.12,-347 142.12,-347 142.12,-177 142.12,-139.76 142.12,-95.43 142.12,-76.42"/>
<polygon fill="#63b8ff" stroke="#63b8ff" points="152.05,-437.46 158.01,-446.21 158.82,-435.65 152.05,-437.46"/>
</a>
</g>
</g>
<!-- Node7 -->
<g id="Node000007" class="node">
<title>Node7</title>
<g id="a_Node000007"><a xlink:href="_interactable_item_8h.html" target="_top" xlink:title=" ">
<polygon fill="white" stroke="#666666" points="867.88,-412 736.38,-412 736.38,-392 867.88,-392 867.88,-412"/>
<text text-anchor="middle" x="802.12" y="-398.5" font-family="Helvetica,sans-Serif" font-size="10.00">Celeste/InteractableItem.h</text>
</a>
</g>
</g>
<!-- Node2&#45;&gt;Node7 -->
<g id="edge6_Node000002_Node000007" class="edge">
<title>Node2&#45;&gt;Node7</title>
<g id="a_edge6_Node000002_Node000007"><a xlink:title=" ">
<path fill="none" stroke="#63b8ff" d="M224.76,-447.78C416.36,-426.57 630.12,-412.8 735.88,-406.65"/>
<polygon fill="#63b8ff" stroke="#63b8ff" points="224.39,-444.3 214.84,-448.89 225.17,-451.25 224.39,-444.3"/>
</a>
</g>
</g>
<!-- Node11 -->
<g id="Node000011" class="node">
<title>Node11</title>
<g id="a_Node000011"><a xlink:href="_level_manager_8h.html" target="_top" xlink:title=" ">
<polygon fill="white" stroke="#666666" points="292,-132 170.25,-132 170.25,-112 292,-112 292,-132"/>
<text text-anchor="middle" x="231.12" y="-118.5" font-family="Helvetica,sans-Serif" font-size="10.00">Celeste/LevelManager.h</text>
</a>
</g>
</g>
<!-- Node2&#45;&gt;Node11 -->
<g id="edge43_Node000002_Node000011" class="edge">
<title>Node2&#45;&gt;Node11</title>
<g id="a_edge43_Node000002_Node000011"><a xlink:title=" ">
<path fill="none" stroke="#63b8ff" d="M166.75,-436.81C172.35,-414.89 180.12,-378.74 180.12,-347 180.12,-347 180.12,-347 180.12,-233 180.12,-192.37 209.11,-150.48 223.38,-132.33"/>
<polygon fill="#63b8ff" stroke="#63b8ff" points="163.43,-435.65 164.24,-446.21 170.2,-437.46 163.43,-435.65"/>
</a>
</g>
</g>
<!-- Node5 -->
<g id="Node000005" class="node">
<title>Node5</title>
<g id="a_Node000005"><a xlink:href="_game_8cpp.html" target="_top" xlink:title=" ">
<polygon fill="white" stroke="#666666" points="135,-20 37.25,-20 37.25,0 135,0 135,-20"/>
<text text-anchor="middle" x="86.12" y="-6.5" font-family="Helvetica,sans-Serif" font-size="10.00">Celeste/Game.cpp</text>
</a>
</g>
</g>
<!-- Node4&#45;&gt;Node5 -->
<g id="edge4_Node000004_Node000005" class="edge">
<title>Node4&#45;&gt;Node5</title>
<g id="a_edge4_Node000004_Node000005"><a xlink:title=" ">
<path fill="none" stroke="#63b8ff" d="M124.34,-47.85C114.87,-38.72 103.6,-27.86 95.77,-20.3"/>
<polygon fill="#63b8ff" stroke="#63b8ff" points="121.65,-50.12 131.28,-54.54 126.51,-45.08 121.65,-50.12"/>
</a>
</g>
</g>
<!-- Node6 -->
<g id="Node000006" class="node">
<title>Node6</title>
<g id="a_Node000006"><a xlink:href="main_8cpp.html" target="_top" xlink:title=" ">
<polygon fill="white" stroke="#666666" points="245.38,-20 152.88,-20 152.88,0 245.38,0 245.38,-20"/>
<text text-anchor="middle" x="199.12" y="-6.5" font-family="Helvetica,sans-Serif" font-size="10.00">Celeste/main.cpp</text>
</a>
</g>
</g>
<!-- Node4&#45;&gt;Node6 -->
<g id="edge5_Node000004_Node000006" class="edge">
<title>Node4&#45;&gt;Node6</title>
<g id="a_edge5_Node000004_Node000006"><a xlink:title=" ">
<path fill="none" stroke="#63b8ff" d="M160.23,-47.85C169.86,-38.72 181.33,-27.86 189.31,-20.3"/>
<polygon fill="#63b8ff" stroke="#63b8ff" points="158,-45.13 153.15,-54.55 162.82,-50.22 158,-45.13"/>
</a>
</g>
</g>
<!-- Node8 -->
<g id="Node000008" class="node">
<title>Node8</title>
<g id="a_Node000008"><a xlink:href="_chapter_info_8h.html" target="_top" xlink:title=" ">
<polygon fill="white" stroke="#666666" points="904.12,-244 792.12,-244 792.12,-224 904.12,-224 904.12,-244"/>
<text text-anchor="middle" x="848.12" y="-230.5" font-family="Helvetica,sans-Serif" font-size="10.00">Celeste/ChapterInfo.h</text>
</a>
</g>
</g>
<!-- Node7&#45;&gt;Node8 -->
<g id="edge7_Node000007_Node000008" class="edge">
<title>Node7&#45;&gt;Node8</title>
<g id="a_edge7_Node000007_Node000008"><a xlink:title=" ">
<path fill="none" stroke="#63b8ff" d="M724.84,-398.65C595.97,-394.03 348.27,-381.88 318.12,-356 292.06,-333.63 280.86,-305.27 304.12,-280 336.7,-244.62 659.68,-237.05 792.02,-235.44"/>
<polygon fill="#63b8ff" stroke="#63b8ff" points="724.55,-402.14 734.66,-399 724.79,-395.15 724.55,-402.14"/>
</a>
</g>
</g>
<!-- Node9 -->
<g id="Node000009" class="node">
<title>Node9</title>
<g id="a_Node000009"><a xlink:href="_chapter_loader_8h.html" target="_top" xlink:title=" ">
<polygon fill="white" stroke="#666666" points="440.5,-188 315.75,-188 315.75,-168 440.5,-168 440.5,-188"/>
<text text-anchor="middle" x="378.12" y="-174.5" font-family="Helvetica,sans-Serif" font-size="10.00">Celeste/ChapterLoader.h</text>
</a>
</g>
</g>
<!-- Node7&#45;&gt;Node9 -->
<g id="edge14_Node000007_Node000009" class="edge">
<title>Node7&#45;&gt;Node9</title>
<g id="a_edge14_Node000007_Node000009"><a xlink:title=" ">
<path fill="none" stroke="#63b8ff" d="M724.5,-399.37C590.29,-395.78 326.26,-385.08 296.12,-356 271.72,-332.45 277.14,-311.73 289.12,-280 304.49,-239.33 344.51,-204.44 365.25,-188.4"/>
<polygon fill="#63b8ff" stroke="#63b8ff" points="724.3,-402.86 734.38,-399.62 724.48,-395.87 724.3,-402.86"/>
</a>
</g>
</g>
<!-- Node14 -->
<g id="Node000014" class="node">
<title>Node14</title>
<g id="a_Node000014"><a xlink:href="_cog_platform_8h.html" target="_top" xlink:title=" ">
<polygon fill="white" stroke="#666666" points="443,-356 327.25,-356 327.25,-336 443,-336 443,-356"/>
<text text-anchor="middle" x="385.12" y="-342.5" font-family="Helvetica,sans-Serif" font-size="10.00">Celeste/CogPlatform.h</text>
</a>
</g>
</g>
<!-- Node7&#45;&gt;Node14 -->
<g id="edge15_Node000007_Node000014" class="edge">
<title>Node7&#45;&gt;Node14</title>
<g id="a_edge15_Node000007_Node000014"><a xlink:title=" ">
<path fill="none" stroke="#63b8ff" d="M724.87,-391C643.43,-380.45 516.97,-364.07 443.49,-354.56"/>
<polygon fill="#63b8ff" stroke="#63b8ff" points="724.18,-394.44 734.55,-392.25 725.08,-387.49 724.18,-394.44"/>
</a>
</g>
</g>
<!-- Node16 -->
<g id="Node000016" class="node">
<title>Node16</title>
<g id="a_Node000016"><a xlink:href="_crumble_block_8h.html" target="_top" xlink:title=" ">
<polygon fill="white" stroke="#666666" points="632.38,-356 509.88,-356 509.88,-336 632.38,-336 632.38,-356"/>
<text text-anchor="middle" x="571.12" y="-342.5" font-family="Helvetica,sans-Serif" font-size="10.00">Celeste/CrumbleBlock.h</text>
</a>
</g>
</g>
<!-- Node7&#45;&gt;Node16 -->
<g id="edge18_Node000007_Node000016" class="edge">
<title>Node7&#45;&gt;Node16</title>
<g id="a_edge18_Node000007_Node000016"><a xlink:title=" ">
<path fill="none" stroke="#63b8ff" d="M750.53,-388.94C708.57,-379.13 650.2,-365.49 611.58,-356.46"/>
<polygon fill="#63b8ff" stroke="#63b8ff" points="749.62,-392.32 760.15,-391.19 751.21,-385.5 749.62,-392.32"/>
</a>
</g>
</g>
<!-- Node18 -->
<g id="Node000018" class="node">
<title>Node18</title>
<g id="a_Node000018"><a xlink:href="_dash_crystal_8h.html" target="_top" xlink:title=" ">
<polygon fill="white" stroke="#666666" points="801,-356 685.25,-356 685.25,-336 801,-336 801,-356"/>
<text text-anchor="middle" x="743.12" y="-342.5" font-family="Helvetica,sans-Serif" font-size="10.00">Celeste/DashCrystal.h</text>
</a>
</g>
</g>
<!-- Node7&#45;&gt;Node18 -->
<g id="edge21_Node000007_Node000018" class="edge">
<title>Node7&#45;&gt;Node18</title>
<g id="a_edge21_Node000007_Node000018"><a xlink:title=" ">
<path fill="none" stroke="#63b8ff" d="M783.38,-383.85C773.41,-374.72 761.54,-363.86 753.28,-356.3"/>
<polygon fill="#63b8ff" stroke="#63b8ff" points="780.99,-386.4 790.73,-390.57 785.72,-381.24 780.99,-386.4"/>
</a>
</g>
</g>
<!-- Node20 -->
<g id="Node000020" class="node">
<title>Node20</title>
<g id="a_Node000020"><a xlink:href="_interactable_item_8cpp.html" target="_top" xlink:title=" ">
<polygon fill="white" stroke="#666666" points="1828.12,-356 1686.12,-356 1686.12,-336 1828.12,-336 1828.12,-356"/>
<text text-anchor="middle" x="1757.12" y="-342.5" font-family="Helvetica,sans-Serif" font-size="10.00">Celeste/InteractableItem.cpp</text>
</a>
</g>
</g>
<!-- Node7&#45;&gt;Node20 -->
<g id="edge24_Node000007_Node000020" class="edge">
<title>Node7&#45;&gt;Node20</title>
<g id="a_edge24_Node000007_Node000020"><a xlink:title=" ">
<path fill="none" stroke="#63b8ff" d="M879.44,-398.6C1032.1,-393.51 1382.99,-380.09 1677.12,-356 1680.05,-355.76 1683.03,-355.5 1686.05,-355.22"/>
<polygon fill="#63b8ff" stroke="#63b8ff" points="879.74,-395.09 869.86,-398.92 879.97,-402.08 879.74,-395.09"/>
</a>
</g>
</g>
<!-- Node21 -->
<g id="Node000021" class="node">
<title>Node21</title>
<g id="a_Node000021"><a xlink:href="_level_8h.html" target="_top" xlink:title=" ">
<polygon fill="white" stroke="#666666" points="903.25,-356 819,-356 819,-336 903.25,-336 903.25,-356"/>
<text text-anchor="middle" x="861.12" y="-342.5" font-family="Helvetica,sans-Serif" font-size="10.00">Celeste/Level.h</text>
</a>
</g>
</g>
<!-- Node7&#45;&gt;Node21 -->
<g id="edge25_Node000007_Node000021" class="edge">
<title>Node7&#45;&gt;Node21</title>
<g id="a_edge25_Node000007_Node000021"><a xlink:title=" ">
<path fill="none" stroke="#63b8ff" d="M820.87,-383.85C830.84,-374.72 842.71,-363.86 850.97,-356.3"/>
<polygon fill="#63b8ff" stroke="#63b8ff" points="818.53,-381.24 813.52,-390.57 823.26,-386.4 818.53,-381.24"/>
</a>
</g>
</g>
<!-- Node23 -->
<g id="Node000023" class="node">
<title>Node23</title>
<g id="a_Node000023"><a xlink:href="_respawn_zone_8h.html" target="_top" xlink:title=" ">
<polygon fill="white" stroke="#666666" points="1060.12,-356 936.12,-356 936.12,-336 1060.12,-336 1060.12,-356"/>
<text text-anchor="middle" x="998.12" y="-342.5" font-family="Helvetica,sans-Serif" font-size="10.00">Celeste/RespawnZone.h</text>
</a>
</g>
</g>
<!-- Node7&#45;&gt;Node23 -->
<g id="edge28_Node000007_Node000023" class="edge">
<title>Node7&#45;&gt;Node23</title>
<g id="a_edge28_Node000007_Node000023"><a xlink:title=" ">
<path fill="none" stroke="#63b8ff" d="M847.28,-388.56C882.74,-378.79 931.36,-365.39 963.72,-356.48"/>
<polygon fill="#63b8ff" stroke="#63b8ff" points="846.44,-385.16 837.72,-391.19 848.3,-391.91 846.44,-385.16"/>
</a>
</g>
</g>
<!-- Node25 -->
<g id="Node000025" class="node">
<title>Node25</title>
<g id="a_Node000025"><a xlink:href="_spike_8h.html" target="_top" xlink:title=" ">
<polygon fill="white" stroke="#666666" points="1231,-356 1145.25,-356 1145.25,-336 1231,-336 1231,-356"/>
<text text-anchor="middle" x="1188.12" y="-342.5" font-family="Helvetica,sans-Serif" font-size="10.00">Celeste/Spike.h</text>
</a>
</g>
</g>
<!-- Node7&#45;&gt;Node25 -->
<g id="edge31_Node000007_Node000025" class="edge">
<title>Node7&#45;&gt;Node25</title>
<g id="a_edge31_Node000007_Node000025"><a xlink:title=" ">
<path fill="none" stroke="#63b8ff" d="M879.01,-390.24C958.77,-379.09 1080.64,-362.04 1144.94,-353.04"/>
<polygon fill="#63b8ff" stroke="#63b8ff" points="878.96,-386.72 869.54,-391.57 879.93,-393.65 878.96,-386.72"/>
</a>
</g>
</g>
<!-- Node27 -->
<g id="Node000027" class="node">
<title>Node27</title>
<g id="a_Node000027"><a xlink:href="_strawberry_8h.html" target="_top" xlink:title=" ">
<polygon fill="white" stroke="#666666" points="1440.88,-356 1333.38,-356 1333.38,-336 1440.88,-336 1440.88,-356"/>
<text text-anchor="middle" x="1387.12" y="-342.5" font-family="Helvetica,sans-Serif" font-size="10.00">Celeste/Strawberry.h</text>
</a>
</g>
</g>
<!-- Node7&#45;&gt;Node27 -->
<g id="edge34_Node000007_Node000027" class="edge">
<title>Node7&#45;&gt;Node27</title>
<g id="a_edge34_Node000007_Node000027"><a xlink:title=" ">
<path fill="none" stroke="#63b8ff" d="M879.39,-393.87C999.69,-382.76 1228.76,-361.62 1333.02,-351.99"/>
<polygon fill="#63b8ff" stroke="#63b8ff" points="879.24,-390.37 869.6,-394.77 879.88,-397.34 879.24,-390.37"/>
</a>
</g>
</g>
<!-- Node31 -->
<g id="Node000031" class="node">
<title>Node31</title>
<g id="a_Node000031"><a xlink:href="_trampoline_8h.html" target="_top" xlink:title=" ">
<polygon fill="white" stroke="#666666" points="1667.62,-356 1558.62,-356 1558.62,-336 1667.62,-336 1667.62,-356"/>
<text text-anchor="middle" x="1613.12" y="-342.5" font-family="Helvetica,sans-Serif" font-size="10.00">Celeste/Trampoline.h</text>
</a>
</g>
</g>
<!-- Node7&#45;&gt;Node31 -->
<g id="edge40_Node000007_Node000031" class="edge">
<title>Node7&#45;&gt;Node31</title>
<g id="a_edge40_Node000007_Node000031"><a xlink:title=" ">
<path fill="none" stroke="#63b8ff" d="M879.51,-395.85C1042.46,-385 1417.53,-360.02 1558.36,-350.65"/>
<polygon fill="#63b8ff" stroke="#63b8ff" points="879.4,-392.35 869.66,-396.5 879.87,-399.33 879.4,-392.35"/>
</a>
</g>
</g>
<!-- Node8&#45;&gt;Node9 -->
<g id="edge8_Node000008_Node000009" class="edge">
<title>Node8&#45;&gt;Node9</title>
<g id="a_edge8_Node000008_Node000009"><a xlink:title=" ">
<path fill="none" stroke="#63b8ff" d="M780.63,-225.24C689.7,-214.8 529.12,-196.35 440.77,-186.2"/>
<polygon fill="#63b8ff" stroke="#63b8ff" points="780.06,-228.7 790.4,-226.37 780.86,-221.75 780.06,-228.7"/>
</a>
</g>
</g>
<!-- Node10 -->
<g id="Node000010" class="node">
<title>Node10</title>
<g id="a_Node000010"><a xlink:href="_chapter_loader_8cpp.html" target="_top" xlink:title=" ">
<polygon fill="white" stroke="#666666" points="445.75,-132 310.5,-132 310.5,-112 445.75,-112 445.75,-132"/>
<text text-anchor="middle" x="378.12" y="-118.5" font-family="Helvetica,sans-Serif" font-size="10.00">Celeste/ChapterLoader.cpp</text>
</a>
</g>
</g>
<!-- Node9&#45;&gt;Node10 -->
<g id="edge9_Node000009_Node000010" class="edge">
<title>Node9&#45;&gt;Node10</title>
<g id="a_edge9_Node000009_Node000010"><a xlink:title=" ">
<path fill="none" stroke="#63b8ff" d="M378.12,-156.13C378.12,-147.9 378.12,-138.85 378.12,-132.3"/>
<polygon fill="#63b8ff" stroke="#63b8ff" points="374.63,-156.08 378.13,-166.08 381.63,-156.08 374.63,-156.08"/>
</a>
</g>
</g>
<!-- Node9&#45;&gt;Node11 -->
<g id="edge10_Node000009_Node000011" class="edge">
<title>Node9&#45;&gt;Node11</title>
<g id="a_edge10_Node000009_Node000011"><a xlink:title=" ">
<path fill="none" stroke="#63b8ff" d="M341.82,-163.66C315.47,-153.98 280.46,-141.12 256.93,-132.48"/>
<polygon fill="#63b8ff" stroke="#63b8ff" points="340.51,-166.91 351.1,-167.07 342.92,-160.34 340.51,-166.91"/>
</a>
</g>
</g>
<!-- Node13 -->
<g id="Node000013" class="node">
<title>Node13</title>
<g id="a_Node000013"><a xlink:href="_pause_menu_8cpp.html" target="_top" xlink:title=" ">
<polygon fill="white" stroke="#666666" points="586.75,-132 463.5,-132 463.5,-112 586.75,-112 586.75,-132"/>
<text text-anchor="middle" x="525.12" y="-118.5" font-family="Helvetica,sans-Serif" font-size="10.00">Celeste/PauseMenu.cpp</text>
</a>
</g>
</g>
<!-- Node9&#45;&gt;Node13 -->
<g id="edge13_Node000009_Node000013" class="edge">
<title>Node9&#45;&gt;Node13</title>
<g id="a_edge13_Node000009_Node000013"><a xlink:title=" ">
<path fill="none" stroke="#63b8ff" d="M414.43,-163.66C440.78,-153.98 475.79,-141.12 499.32,-132.48"/>
<polygon fill="#63b8ff" stroke="#63b8ff" points="413.33,-160.34 405.15,-167.07 415.74,-166.91 413.33,-160.34"/>
</a>
</g>
</g>
<!-- Node11&#45;&gt;Node4 -->
<g id="edge11_Node000011_Node000004" class="edge">
<title>Node11&#45;&gt;Node4</title>
<g id="a_edge11_Node000011_Node000004"><a xlink:title=" ">
<path fill="none" stroke="#63b8ff" d="M206.09,-105.81C190.57,-96.39 171.1,-84.58 157.75,-76.48"/>
<polygon fill="#63b8ff" stroke="#63b8ff" points="203.96,-108.61 214.33,-110.81 207.59,-102.63 203.96,-108.61"/>
</a>
</g>
</g>
<!-- Node12 -->
<g id="Node000012" class="node">
<title>Node12</title>
<g id="a_Node000012"><a xlink:href="_level_manager_8cpp.html" target="_top" xlink:title=" ">
<polygon fill="white" stroke="#666666" points="336.25,-76 204,-76 204,-56 336.25,-56 336.25,-76"/>
<text text-anchor="middle" x="270.12" y="-62.5" font-family="Helvetica,sans-Serif" font-size="10.00">Celeste/LevelManager.cpp</text>
</a>
</g>
</g>
<!-- Node11&#45;&gt;Node12 -->
<g id="edge12_Node000011_Node000012" class="edge">
<title>Node11&#45;&gt;Node12</title>
<g id="a_edge12_Node000011_Node000012"><a xlink:title=" ">
<path fill="none" stroke="#63b8ff" d="M244.53,-102.44C250.9,-93.62 258.23,-83.47 263.41,-76.3"/>
<polygon fill="#63b8ff" stroke="#63b8ff" points="241.82,-100.21 238.8,-110.37 247.5,-104.31 241.82,-100.21"/>
</a>
</g>
</g>
<!-- Node14&#45;&gt;Node8 -->
<g id="edge16_Node000014_Node000008" class="edge">
<title>Node14&#45;&gt;Node8</title>
<g id="a_edge16_Node000014_Node000008"><a xlink:title=" ">
<path fill="none" stroke="#63b8ff" d="M350.93,-331.04C324.71,-318.41 295.72,-298.93 313.12,-280 345.06,-245.26 661.23,-237.32 791.98,-235.52"/>
<polygon fill="#63b8ff" stroke="#63b8ff" points="349.18,-334.09 359.73,-335.07 352.09,-327.73 349.18,-334.09"/>
</a>
</g>
</g>
<!-- Node15 -->
<g id="Node000015" class="node">
<title>Node15</title>
<g id="a_Node000015"><a xlink:href="_cog_platform_8cpp.html" target="_top" xlink:title=" ">
<polygon fill="white" stroke="#666666" points="448.25,-300 322,-300 322,-280 448.25,-280 448.25,-300"/>
<text text-anchor="middle" x="385.12" y="-286.5" font-family="Helvetica,sans-Serif" font-size="10.00">Celeste/CogPlatform.cpp</text>
</a>
</g>
</g>
<!-- Node14&#45;&gt;Node15 -->
<g id="edge17_Node000014_Node000015" class="edge">
<title>Node14&#45;&gt;Node15</title>
<g id="a_edge17_Node000014_Node000015"><a xlink:title=" ">
<path fill="none" stroke="#63b8ff" d="M385.12,-324.13C385.12,-315.9 385.12,-306.85 385.12,-300.3"/>
<polygon fill="#63b8ff" stroke="#63b8ff" points="381.63,-324.08 385.13,-334.08 388.63,-324.08 381.63,-324.08"/>
</a>
</g>
</g>
<!-- Node16&#45;&gt;Node8 -->
<g id="edge19_Node000016_Node000008" class="edge">
<title>Node16&#45;&gt;Node8</title>
<g id="a_edge19_Node000016_Node000008"><a xlink:title=" ">
<path fill="none" stroke="#63b8ff" d="M534.25,-330.98C507.17,-318.63 477.85,-299.61 495.12,-280 514.39,-258.12 697.14,-244.04 791.83,-238.16"/>
<polygon fill="#63b8ff" stroke="#63b8ff" points="532.85,-334.18 543.42,-334.93 535.62,-327.76 532.85,-334.18"/>
</a>
</g>
</g>
<!-- Node17 -->
<g id="Node000017" class="node">
<title>Node17</title>
<g id="a_Node000017"><a xlink:href="_crumble_block_8cpp.html" target="_top" xlink:title=" ">
<polygon fill="white" stroke="#666666" points="637.62,-300 504.62,-300 504.62,-280 637.62,-280 637.62,-300"/>
<text text-anchor="middle" x="571.12" y="-286.5" font-family="Helvetica,sans-Serif" font-size="10.00">Celeste/CrumbleBlock.cpp</text>
</a>
</g>
</g>
<!-- Node16&#45;&gt;Node17 -->
<g id="edge20_Node000016_Node000017" class="edge">
<title>Node16&#45;&gt;Node17</title>
<g id="a_edge20_Node000016_Node000017"><a xlink:title=" ">
<path fill="none" stroke="#63b8ff" d="M571.12,-324.13C571.12,-315.9 571.12,-306.85 571.12,-300.3"/>
<polygon fill="#63b8ff" stroke="#63b8ff" points="567.63,-324.08 571.13,-334.08 574.63,-324.08 567.63,-324.08"/>
</a>
</g>
</g>
<!-- Node18&#45;&gt;Node8 -->
<g id="edge22_Node000018_Node000008" class="edge">
<title>Node18&#45;&gt;Node8</title>
<g id="a_edge22_Node000018_Node000008"><a xlink:title=" ">
<path fill="none" stroke="#63b8ff" d="M714.26,-329.96C693.52,-317.14 671.43,-297.99 685.12,-280 698.2,-262.83 750,-250.54 791.75,-243.19"/>
<polygon fill="#63b8ff" stroke="#63b8ff" points="712.46,-332.96 722.87,-334.95 715.97,-326.91 712.46,-332.96"/>
</a>
</g>
</g>
<!-- Node19 -->
<g id="Node000019" class="node">
<title>Node19</title>
<g id="a_Node000019"><a xlink:href="_dash_crystal_8cpp.html" target="_top" xlink:title=" ">
<polygon fill="white" stroke="#666666" points="820.25,-300 694,-300 694,-280 820.25,-280 820.25,-300"/>
<text text-anchor="middle" x="757.12" y="-286.5" font-family="Helvetica,sans-Serif" font-size="10.00">Celeste/DashCrystal.cpp</text>
</a>
</g>
</g>
<!-- Node18&#45;&gt;Node19 -->
<g id="edge23_Node000018_Node000019" class="edge">
<title>Node18&#45;&gt;Node19</title>
<g id="a_edge23_Node000018_Node000019"><a xlink:title=" ">
<path fill="none" stroke="#63b8ff" d="M748.38,-324.71C750.56,-316.32 752.98,-307.01 754.71,-300.3"/>
<polygon fill="#63b8ff" stroke="#63b8ff" points="745.07,-323.57 745.94,-334.13 751.84,-325.33 745.07,-323.57"/>
</a>
</g>
</g>
<!-- Node21&#45;&gt;Node8 -->
<g id="edge26_Node000021_Node000008" class="edge">
<title>Node21&#45;&gt;Node8</title>
<g id="a_edge26_Node000021_Node000008"><a xlink:title=" ">
<path fill="none" stroke="#63b8ff" d="M858.68,-324.31C855.85,-300.36 851.31,-261.95 849.23,-244.35"/>
<polygon fill="#63b8ff" stroke="#63b8ff" points="855.19,-324.6 859.84,-334.12 862.14,-323.78 855.19,-324.6"/>
</a>
</g>
</g>
<!-- Node22 -->
<g id="Node000022" class="node">
<title>Node22</title>
<g id="a_Node000022"><a xlink:href="_level_8cpp.html" target="_top" xlink:title=" ">
<polygon fill="white" stroke="#666666" points="970.5,-300 875.75,-300 875.75,-280 970.5,-280 970.5,-300"/>
<text text-anchor="middle" x="923.12" y="-286.5" font-family="Helvetica,sans-Serif" font-size="10.00">Celeste/Level.cpp</text>
</a>
</g>
</g>
<!-- Node21&#45;&gt;Node22 -->
<g id="edge27_Node000021_Node000022" class="edge">
<title>Node21&#45;&gt;Node22</title>
<g id="a_edge27_Node000021_Node000022"><a xlink:title=" ">
<path fill="none" stroke="#63b8ff" d="M880.5,-328.13C891.04,-318.94 903.68,-307.93 912.45,-300.3"/>
<polygon fill="#63b8ff" stroke="#63b8ff" points="878.31,-325.39 873.07,-334.6 882.91,-330.67 878.31,-325.39"/>
</a>
</g>
</g>
<!-- Node23&#45;&gt;Node8 -->
<g id="edge29_Node000023_Node000008" class="edge">
<title>Node23&#45;&gt;Node8</title>
<g id="a_edge29_Node000023_Node000008"><a xlink:title=" ">
<path fill="none" stroke="#63b8ff" d="M996.99,-324.62C995.16,-310.43 990.55,-291.97 979.12,-280 959.62,-259.56 930.42,-248.4 904.53,-242.32"/>
<polygon fill="#63b8ff" stroke="#63b8ff" points="993.47,-324.57 997.85,-334.22 1000.44,-323.95 993.47,-324.57"/>
</a>
</g>
</g>
<!-- Node24 -->
<g id="Node000024" class="node">
<title>Node24</title>
<g id="a_Node000024"><a xlink:href="_respawn_zone_8cpp.html" target="_top" xlink:title=" ">
<polygon fill="white" stroke="#666666" points="1160.38,-300 1025.88,-300 1025.88,-280 1160.38,-280 1160.38,-300"/>
<text text-anchor="middle" x="1093.12" y="-286.5" font-family="Helvetica,sans-Serif" font-size="10.00">Celeste/RespawnZone.cpp</text>
</a>
</g>
</g>
<!-- Node23&#45;&gt;Node24 -->
<g id="edge30_Node000023_Node000024" class="edge">
<title>Node23&#45;&gt;Node24</title>
<g id="a_edge30_Node000023_Node000024"><a xlink:title=" ">
<path fill="none" stroke="#63b8ff" d="M1024.37,-330.08C1041.02,-320.62 1062.06,-308.66 1076.45,-300.48"/>
<polygon fill="#63b8ff" stroke="#63b8ff" points="1022.95,-326.86 1015.99,-334.85 1026.41,-332.95 1022.95,-326.86"/>
</a>
</g>
</g>
<!-- Node25&#45;&gt;Node8 -->
<g id="edge32_Node000025_Node000008" class="edge">
<title>Node25&#45;&gt;Node8</title>
<g id="a_edge32_Node000025_Node000008"><a xlink:title=" ">
<path fill="none" stroke="#63b8ff" d="M1187.7,-324.4C1186.24,-309.81 1181.78,-290.94 1169.12,-280 1130.54,-246.65 985.69,-237.97 904.38,-235.74"/>
<polygon fill="#63b8ff" stroke="#63b8ff" points="1184.2,-324.53 1188.26,-334.31 1191.19,-324.13 1184.2,-324.53"/>
</a>
</g>
</g>
<!-- Node26 -->
<g id="Node000026" class="node">
<title>Node26</title>
<g id="a_Node000026"><a xlink:href="_spike_8cpp.html" target="_top" xlink:title=" ">
<polygon fill="white" stroke="#666666" points="1312.25,-300 1216,-300 1216,-280 1312.25,-280 1312.25,-300"/>
<text text-anchor="middle" x="1264.12" y="-286.5" font-family="Helvetica,sans-Serif" font-size="10.00">Celeste/Spike.cpp</text>
</a>
</g>
</g>
<!-- Node25&#45;&gt;Node26 -->
<g id="edge33_Node000025_Node000026" class="edge">
<title>Node25&#45;&gt;Node26</title>
<g id="a_edge33_Node000025_Node000026"><a xlink:title=" ">
<path fill="none" stroke="#63b8ff" d="M1210.65,-329C1223.7,-319.72 1239.7,-308.35 1250.78,-300.48"/>
<polygon fill="#63b8ff" stroke="#63b8ff" points="1208.72,-326.07 1202.6,-334.72 1212.78,-331.78 1208.72,-326.07"/>
</a>
</g>
</g>
<!-- Node27&#45;&gt;Node8 -->
<g id="edge35_Node000027_Node000008" class="edge">
<title>Node27&#45;&gt;Node8</title>
<g id="a_edge35_Node000027_Node000008"><a xlink:title=" ">
<path fill="none" stroke="#63b8ff" d="M1374.4,-326.82C1362.54,-311.47 1343.36,-290.37 1321.12,-280 1248.42,-246.1 1013.16,-237.74 904.32,-235.67"/>
<polygon fill="#63b8ff" stroke="#63b8ff" points="1371.45,-328.72 1380.2,-334.69 1377.09,-324.57 1371.45,-328.72"/>
</a>
</g>
</g>
<!-- Node28 -->
<g id="Node000028" class="node">
<title>Node28</title>
<g id="a_Node000028"><a xlink:href="_flying_strawberry_8h.html" target="_top" xlink:title=" ">
<polygon fill="white" stroke="#666666" points="1502,-300 1368.25,-300 1368.25,-280 1502,-280 1502,-300"/>
<text text-anchor="middle" x="1435.12" y="-286.5" font-family="Helvetica,sans-Serif" font-size="10.00">Celeste/FlyingStrawberry.h</text>
</a>
</g>
</g>
<!-- Node27&#45;&gt;Node28 -->
<g id="edge36_Node000027_Node000028" class="edge">
<title>Node27&#45;&gt;Node28</title>
<g id="a_edge36_Node000027_Node000028"><a xlink:title=" ">
<path fill="none" stroke="#63b8ff" d="M1403.12,-327C1411.07,-318.06 1420.35,-307.62 1426.86,-300.3"/>
<polygon fill="#63b8ff" stroke="#63b8ff" points="1400.52,-324.66 1396.49,-334.46 1405.75,-329.31 1400.52,-324.66"/>
</a>
</g>
</g>
<!-- Node30 -->
<g id="Node000030" class="node">
<title>Node30</title>
<g id="a_Node000030"><a xlink:href="_strawberry_8cpp.html" target="_top" xlink:title=" ">
<polygon fill="white" stroke="#666666" points="1638.12,-300 1520.12,-300 1520.12,-280 1638.12,-280 1638.12,-300"/>
<text text-anchor="middle" x="1579.12" y="-286.5" font-family="Helvetica,sans-Serif" font-size="10.00">Celeste/Strawberry.cpp</text>
</a>
</g>
</g>
<!-- Node27&#45;&gt;Node30 -->
<g id="edge39_Node000027_Node000030" class="edge">
<title>Node27&#45;&gt;Node30</title>
<g id="a_edge39_Node000027_Node000030"><a xlink:title=" ">
<path fill="none" stroke="#63b8ff" d="M1431.36,-332.56C1466.09,-322.79 1513.73,-309.39 1545.42,-300.48"/>
<polygon fill="#63b8ff" stroke="#63b8ff" points="1430.7,-329.11 1422.03,-335.18 1432.6,-335.85 1430.7,-329.11"/>
</a>
</g>
</g>
<!-- Node28&#45;&gt;Node8 -->
<g id="edge37_Node000028_Node000008" class="edge">
<title>Node28&#45;&gt;Node8</title>
<g id="a_edge37_Node000028_Node000008"><a xlink:title=" ">
<path fill="none" stroke="#63b8ff" d="M1356.67,-280.26C1355.82,-280.17 1354.97,-280.08 1354.12,-280 1190.9,-263.68 997.75,-247.32 904.32,-239.59"/>
<polygon fill="#63b8ff" stroke="#63b8ff" points="1356.14,-283.72 1366.45,-281.27 1356.86,-276.76 1356.14,-283.72"/>
</a>
</g>
</g>
<!-- Node29 -->
<g id="Node000029" class="node">
<title>Node29</title>
<g id="a_Node000029"><a xlink:href="_flying_strawberry_8cpp.html" target="_top" xlink:title=" ">
<polygon fill="white" stroke="#666666" points="1507.25,-244 1363,-244 1363,-224 1507.25,-224 1507.25,-244"/>
<text text-anchor="middle" x="1435.12" y="-230.5" font-family="Helvetica,sans-Serif" font-size="10.00">Celeste/FlyingStrawberry.cpp</text>
</a>
</g>
</g>
<!-- Node28&#45;&gt;Node29 -->
<g id="edge38_Node000028_Node000029" class="edge">
<title>Node28&#45;&gt;Node29</title>
<g id="a_edge38_Node000028_Node000029"><a xlink:title=" ">
<path fill="none" stroke="#63b8ff" d="M1435.12,-268.13C1435.12,-259.9 1435.12,-250.85 1435.12,-244.3"/>
<polygon fill="#63b8ff" stroke="#63b8ff" points="1431.63,-268.08 1435.13,-278.08 1438.63,-268.08 1431.63,-268.08"/>
</a>
</g>
</g>
<!-- Node31&#45;&gt;Node8 -->
<g id="edge41_Node000031_Node000008" class="edge">
<title>Node31&#45;&gt;Node8</title>
<g id="a_edge41_Node000031_Node000008"><a xlink:title=" ">
<path fill="none" stroke="#63b8ff" d="M1632.79,-327.67C1646.49,-313.56 1660.17,-293.8 1647.12,-280 1621.64,-253.04 1082.31,-239.74 904.46,-236.07"/>
<polygon fill="#63b8ff" stroke="#63b8ff" points="1630.39,-325.13 1625.59,-334.57 1635.23,-330.18 1630.39,-325.13"/>
</a>
</g>
</g>
<!-- Node32 -->
<g id="Node000032" class="node">
<title>Node32</title>
<g id="a_Node000032"><a xlink:href="_trampoline_8cpp.html" target="_top" xlink:title=" ">
<polygon fill="white" stroke="#666666" points="1813.88,-300 1694.38,-300 1694.38,-280 1813.88,-280 1813.88,-300"/>
<text text-anchor="middle" x="1754.12" y="-286.5" font-family="Helvetica,sans-Serif" font-size="10.00">Celeste/Trampoline.cpp</text>
</a>
</g>
</g>
<!-- Node31&#45;&gt;Node32 -->
<g id="edge42_Node000031_Node000032" class="edge">
<title>Node31&#45;&gt;Node32</title>
<g id="a_edge42_Node000031_Node000032"><a xlink:title=" ">
<path fill="none" stroke="#63b8ff" d="M1648.29,-331.53C1673.53,-321.87 1706.9,-309.08 1729.37,-300.48"/>
<polygon fill="#63b8ff" stroke="#63b8ff" points="1647.19,-328.21 1639.1,-335.05 1649.69,-334.74 1647.19,-328.21"/>
</a>
</g>
</g>
</g>
</svg>
