<?xml version="1.0" encoding="UTF-8" standalone="no"?>
<!DOCTYPE svg PUBLIC "-//W3C//DTD SVG 1.1//EN"
 "http://www.w3.org/Graphics/SVG/1.1/DTD/svg11.dtd">
<!-- Generated by graphviz version 12.2.1 (20241206.2353)
 -->
<!-- Title: Celeste/CharacterSoundManager.h Pages: 1 -->
<svg width="296pt" height="140pt"
 viewBox="0.00 0.00 295.88 140.00" xmlns="http://www.w3.org/2000/svg" xmlns:xlink="http://www.w3.org/1999/xlink">
<g id="graph0" class="graph" transform="scale(1 1) rotate(0) translate(4 136)">
<title>Celeste/CharacterSoundManager.h</title>
<!-- Node1 -->
<g id="Node000001" class="node">
<title>Node1</title>
<g id="a_Node000001"><a xlink:title=" ">
<polygon fill="#999999" stroke="#666666" points="234.62,-132 65.62,-132 65.62,-112 234.62,-112 234.62,-132"/>
<text text-anchor="middle" x="150.12" y="-118.5" font-family="Helvetica,sans-Serif" font-size="10.00">Celeste/CharacterSoundManager.h</text>
</a>
</g>
</g>
<!-- Node2 -->
<g id="Node000002" class="node">
<title>Node2</title>
<g id="a_Node000002"><a xlink:href="_character_state_8h.html" target="_top" xlink:title=" ">
<polygon fill="white" stroke="#666666" points="90.25,-76 0,-76 0,-56 90.25,-56 90.25,-76"/>
<text text-anchor="middle" x="45.12" y="-62.5" font-family="Helvetica,sans-Serif" font-size="10.00">CharacterState.h</text>
</a>
</g>
</g>
<!-- Node1&#45;&gt;Node2 -->
<g id="edge1_Node000001_Node000002" class="edge">
<title>Node1&#45;&gt;Node2</title>
<g id="a_edge1_Node000001_Node000002"><a xlink:title=" ">
<path fill="none" stroke="#63b8ff" d="M131.84,-111.59C115.82,-103.36 92.29,-91.26 73.78,-81.74"/>
<polygon fill="#63b8ff" stroke="#63b8ff" points="75.4,-78.63 64.9,-77.17 72.2,-84.86 75.4,-78.63"/>
</a>
</g>
</g>
<!-- Node3 -->
<g id="Node000003" class="node">
<title>Node3</title>
<g id="a_Node000003"><a xlink:href="_sound_effect_8h.html" target="_top" xlink:title=" ">
<polygon fill="white" stroke="#666666" points="287.88,-76 210.38,-76 210.38,-56 287.88,-56 287.88,-76"/>
<text text-anchor="middle" x="249.12" y="-62.5" font-family="Helvetica,sans-Serif" font-size="10.00">SoundEffect.h</text>
</a>
</g>
</g>
<!-- Node1&#45;&gt;Node3 -->
<g id="edge2_Node000001_Node000003" class="edge">
<title>Node1&#45;&gt;Node3</title>
<g id="a_edge2_Node000001_Node000003"><a xlink:title=" ">
<path fill="none" stroke="#63b8ff" d="M167.37,-111.59C182.47,-103.36 204.65,-91.26 222.11,-81.74"/>
<polygon fill="#63b8ff" stroke="#63b8ff" points="223.31,-85.07 230.42,-77.2 219.96,-78.92 223.31,-85.07"/>
</a>
</g>
</g>
<!-- Node6 -->
<g id="Node000006" class="node">
<title>Node6</title>
<g id="a_Node000006"><a xlink:href="_sound_stream_8h.html" target="_top" xlink:title=" ">
<polygon fill="white" stroke="#666666" points="191.88,-76 108.38,-76 108.38,-56 191.88,-56 191.88,-76"/>
<text text-anchor="middle" x="150.12" y="-62.5" font-family="Helvetica,sans-Serif" font-size="10.00">SoundStream.h</text>
</a>
</g>
</g>
<!-- Node1&#45;&gt;Node6 -->
<g id="edge5_Node000001_Node000006" class="edge">
<title>Node1&#45;&gt;Node6</title>
<g id="a_edge5_Node000001_Node000006"><a xlink:title=" ">
<path fill="none" stroke="#63b8ff" d="M150.12,-111.59C150.12,-105.01 150.12,-95.96 150.12,-87.73"/>
<polygon fill="#63b8ff" stroke="#63b8ff" points="153.63,-87.81 150.13,-77.81 146.63,-87.81 153.63,-87.81"/>
</a>
</g>
</g>
<!-- Node4 -->
<g id="Node000004" class="node">
<title>Node4</title>
<g id="a_Node000004"><a xlink:title=" ">
<polygon fill="#e0e0e0" stroke="#999999" points="190.12,-20 150.12,-20 150.12,0 190.12,0 190.12,-20"/>
<text text-anchor="middle" x="170.12" y="-6.5" font-family="Helvetica,sans-Serif" font-size="10.00">string</text>
</a>
</g>
</g>
<!-- Node3&#45;&gt;Node4 -->
<g id="edge3_Node000003_Node000004" class="edge">
<title>Node3&#45;&gt;Node4</title>
<g id="a_edge3_Node000003_Node000004"><a xlink:title=" ">
<path fill="none" stroke="#63b8ff" d="M235.36,-55.59C223.77,-47.67 206.93,-36.16 193.26,-26.82"/>
<polygon fill="#63b8ff" stroke="#63b8ff" points="195.47,-24.09 185.24,-21.33 191.52,-29.87 195.47,-24.09"/>
</a>
</g>
</g>
<!-- Node5 -->
<g id="Node000005" class="node">
<title>Node5</title>
<g id="a_Node000005"><a xlink:title=" ">
<polygon fill="#e0e0e0" stroke="#999999" points="270.62,-20 227.62,-20 227.62,0 270.62,0 270.62,-20"/>
<text text-anchor="middle" x="249.12" y="-6.5" font-family="Helvetica,sans-Serif" font-size="10.00">vector</text>
</a>
</g>
</g>
<!-- Node3&#45;&gt;Node5 -->
<g id="edge4_Node000003_Node000005" class="edge">
<title>Node3&#45;&gt;Node5</title>
<g id="a_edge4_Node000003_Node000005"><a xlink:title=" ">
<path fill="none" stroke="#63b8ff" d="M249.12,-55.59C249.12,-49.01 249.12,-39.96 249.12,-31.73"/>
<polygon fill="#63b8ff" stroke="#63b8ff" points="252.63,-31.81 249.13,-21.81 245.63,-31.81 252.63,-31.81"/>
</a>
</g>
</g>
<!-- Node6&#45;&gt;Node4 -->
<g id="edge6_Node000006_Node000004" class="edge">
<title>Node6&#45;&gt;Node4</title>
<g id="a_edge6_Node000006_Node000004"><a xlink:title=" ">
<path fill="none" stroke="#63b8ff" d="M153.61,-55.59C156.13,-48.78 159.64,-39.32 162.77,-30.86"/>
<polygon fill="#63b8ff" stroke="#63b8ff" points="165.96,-32.31 166.16,-21.72 159.4,-29.88 165.96,-32.31"/>
</a>
</g>
</g>
</g>
</svg>
