<?xml version="1.0" encoding="UTF-8" standalone="no"?>
<!DOCTYPE svg PUBLIC "-//W3C//DTD SVG 1.1//EN"
 "http://www.w3.org/Graphics/SVG/1.1/DTD/svg11.dtd">
<!-- Generated by graphviz version 12.2.1 (20241206.2353)
 -->
<!-- Title: Celeste/Character.cpp Pages: 1 -->
<svg width="820pt" height="476pt"
 viewBox="0.00 0.00 820.25 476.00" xmlns="http://www.w3.org/2000/svg" xmlns:xlink="http://www.w3.org/1999/xlink">
<g id="graph0" class="graph" transform="scale(1 1) rotate(0) translate(4 472)">
<title>Celeste/Character.cpp</title>
<!-- Node1 -->
<g id="Node000001" class="node">
<title>Node1</title>
<g id="a_Node000001"><a xlink:title=" ">
<polygon fill="#999999" stroke="#666666" points="661.88,-468 547.62,-468 547.62,-448 661.88,-448 661.88,-468"/>
<text text-anchor="middle" x="604.75" y="-454.5" font-family="Helvetica,sans-Serif" font-size="10.00">Celeste/Character.cpp</text>
</a>
</g>
</g>
<!-- Node2 -->
<g id="Node000002" class="node">
<title>Node2</title>
<g id="a_Node000002"><a xlink:href="pch_8h.html" target="_top" xlink:title=" ">
<polygon fill="white" stroke="#666666" points="344.75,-132 304.75,-132 304.75,-112 344.75,-112 344.75,-132"/>
<text text-anchor="middle" x="324.75" y="-118.5" font-family="Helvetica,sans-Serif" font-size="10.00">pch.h</text>
</a>
</g>
</g>
<!-- Node1&#45;&gt;Node2 -->
<g id="edge1_Node000001_Node000002" class="edge">
<title>Node1&#45;&gt;Node2</title>
<g id="a_edge1_Node000001_Node000002"><a xlink:title=" ">
<path fill="none" stroke="#63b8ff" d="M547.24,-457.04C410.39,-455.59 76.75,-442.27 76.75,-347 76.75,-347 76.75,-347 76.75,-233 76.75,-139.44 226.06,-124.84 292.97,-123"/>
<polygon fill="#63b8ff" stroke="#63b8ff" points="293.01,-126.5 302.94,-122.82 292.88,-119.5 293.01,-126.5"/>
</a>
</g>
</g>
<!-- Node11 -->
<g id="Node000011" class="node">
<title>Node11</title>
<g id="a_Node000011"><a xlink:href="_character_8h.html" target="_top" xlink:title=" ">
<polygon fill="white" stroke="#666666" points="459.25,-412 392.25,-412 392.25,-392 459.25,-392 459.25,-412"/>
<text text-anchor="middle" x="425.75" y="-398.5" font-family="Helvetica,sans-Serif" font-size="10.00">Character.h</text>
</a>
</g>
</g>
<!-- Node1&#45;&gt;Node11 -->
<g id="edge11_Node000001_Node000011" class="edge">
<title>Node1&#45;&gt;Node11</title>
<g id="a_edge11_Node000001_Node000011"><a xlink:title=" ">
<path fill="none" stroke="#63b8ff" d="M573.57,-447.59C544.36,-438.78 500.47,-425.54 468.1,-415.78"/>
<polygon fill="#63b8ff" stroke="#63b8ff" points="469.21,-412.45 458.62,-412.92 467.18,-419.16 469.21,-412.45"/>
</a>
</g>
</g>
<!-- Node17 -->
<g id="Node000017" class="node">
<title>Node17</title>
<g id="a_Node000017"><a xlink:href="utils_8h.html" target="_top" xlink:title=" ">
<polygon fill="white" stroke="#666666" points="700.88,-244 658.62,-244 658.62,-224 700.88,-224 700.88,-244"/>
<text text-anchor="middle" x="679.75" y="-230.5" font-family="Helvetica,sans-Serif" font-size="10.00">utils.h</text>
</a>
</g>
</g>
<!-- Node1&#45;&gt;Node17 -->
<g id="edge48_Node000001_Node000017" class="edge">
<title>Node1&#45;&gt;Node17</title>
<g id="a_edge48_Node000001_Node000017"><a xlink:title=" ">
<path fill="none" stroke="#63b8ff" d="M615.29,-447.69C639.78,-425.25 700.14,-365.18 721.75,-300 724.55,-291.56 725.01,-288.27 721.75,-280 717.49,-269.19 709.28,-259.45 701.24,-251.82"/>
<polygon fill="#63b8ff" stroke="#63b8ff" points="703.74,-249.36 693.91,-245.41 699.13,-254.63 703.74,-249.36"/>
</a>
</g>
</g>
<!-- Node28 -->
<g id="Node000028" class="node">
<title>Node28</title>
<g id="a_Node000028"><a xlink:title=" ">
<polygon fill="#e0e0e0" stroke="#999999" points="812.25,-412 769.25,-412 769.25,-392 812.25,-392 812.25,-412"/>
<text text-anchor="middle" x="790.75" y="-398.5" font-family="Helvetica,sans-Serif" font-size="10.00">cmath</text>
</a>
</g>
</g>
<!-- Node1&#45;&gt;Node28 -->
<g id="edge49_Node000001_Node000028" class="edge">
<title>Node1&#45;&gt;Node28</title>
<g id="a_edge49_Node000001_Node000028"><a xlink:title=" ">
<path fill="none" stroke="#63b8ff" d="M637.15,-447.59C671.09,-437.74 724.12,-422.35 758.14,-412.47"/>
<polygon fill="#63b8ff" stroke="#63b8ff" points="758.81,-415.92 767.44,-409.77 756.86,-409.19 758.81,-415.92"/>
</a>
</g>
</g>
<!-- Node3 -->
<g id="Node000003" class="node">
<title>Node3</title>
<g id="a_Node000003"><a xlink:title=" ">
<polygon fill="#e0e0e0" stroke="#999999" points="279.62,-76 235.88,-76 235.88,-56 279.62,-56 279.62,-76"/>
<text text-anchor="middle" x="257.75" y="-62.5" font-family="Helvetica,sans-Serif" font-size="10.00">SDL.h</text>
</a>
</g>
</g>
<!-- Node2&#45;&gt;Node3 -->
<g id="edge2_Node000002_Node000003" class="edge">
<title>Node2&#45;&gt;Node3</title>
<g id="a_edge2_Node000002_Node000003"><a xlink:title=" ">
<path fill="none" stroke="#63b8ff" d="M313.08,-111.59C303.47,-103.85 289.62,-92.69 278.18,-83.47"/>
<polygon fill="#63b8ff" stroke="#63b8ff" points="280.45,-80.8 270.47,-77.25 276.05,-86.25 280.45,-80.8"/>
</a>
</g>
</g>
<!-- Node4 -->
<g id="Node000004" class="node">
<title>Node4</title>
<g id="a_Node000004"><a xlink:title=" ">
<polygon fill="#e0e0e0" stroke="#999999" points="447.5,-76 370,-76 370,-56 447.5,-56 447.5,-76"/>
<text text-anchor="middle" x="408.75" y="-62.5" font-family="Helvetica,sans-Serif" font-size="10.00">SDL_opengl.h</text>
</a>
</g>
</g>
<!-- Node2&#45;&gt;Node4 -->
<g id="edge3_Node000002_Node000004" class="edge">
<title>Node2&#45;&gt;Node4</title>
<g id="a_edge3_Node000002_Node000004"><a xlink:title=" ">
<path fill="none" stroke="#63b8ff" d="M339.38,-111.59C351.83,-103.59 369.97,-91.93 384.57,-82.54"/>
<polygon fill="#63b8ff" stroke="#63b8ff" points="386.21,-85.65 392.73,-77.3 382.43,-79.76 386.21,-85.65"/>
</a>
</g>
</g>
<!-- Node5 -->
<g id="Node000005" class="node">
<title>Node5</title>
<g id="a_Node000005"><a xlink:title=" ">
<polygon fill="#e0e0e0" stroke="#999999" points="523.75,-76 465.75,-76 465.75,-56 523.75,-56 523.75,-76"/>
<text text-anchor="middle" x="494.75" y="-62.5" font-family="Helvetica,sans-Serif" font-size="10.00">SDL_ttf.h</text>
</a>
</g>
</g>
<!-- Node2&#45;&gt;Node5 -->
<g id="edge4_Node000002_Node000005" class="edge">
<title>Node2&#45;&gt;Node5</title>
<g id="a_edge4_Node000002_Node000005"><a xlink:title=" ">
<path fill="none" stroke="#63b8ff" d="M344.92,-114.59C371.9,-106.02 420.35,-90.63 454.84,-79.68"/>
<polygon fill="#63b8ff" stroke="#63b8ff" points="455.59,-83.11 464.07,-76.75 453.47,-76.44 455.59,-83.11"/>
</a>
</g>
</g>
<!-- Node6 -->
<g id="Node000006" class="node">
<title>Node6</title>
<g id="a_Node000006"><a xlink:title=" ">
<polygon fill="#e0e0e0" stroke="#999999" points="615.25,-76 542.25,-76 542.25,-56 615.25,-56 615.25,-76"/>
<text text-anchor="middle" x="578.75" y="-62.5" font-family="Helvetica,sans-Serif" font-size="10.00">SDL_mixer.h</text>
</a>
</g>
</g>
<!-- Node2&#45;&gt;Node6 -->
<g id="edge5_Node000002_Node000006" class="edge">
<title>Node2&#45;&gt;Node6</title>
<g id="a_edge5_Node000002_Node000006"><a xlink:title=" ">
<path fill="none" stroke="#63b8ff" d="M345.11,-116.67C385.09,-108.17 474.82,-89.1 530.72,-77.21"/>
<polygon fill="#63b8ff" stroke="#63b8ff" points="531.23,-80.68 540.28,-75.18 529.77,-73.83 531.23,-80.68"/>
</a>
</g>
</g>
<!-- Node7 -->
<g id="Node000007" class="node">
<title>Node7</title>
<g id="a_Node000007"><a xlink:title=" ">
<polygon fill="#e0e0e0" stroke="#999999" points="217.38,-76 142.12,-76 142.12,-56 217.38,-56 217.38,-76"/>
<text text-anchor="middle" x="179.75" y="-62.5" font-family="Helvetica,sans-Serif" font-size="10.00">SDL_image.h</text>
</a>
</g>
</g>
<!-- Node2&#45;&gt;Node7 -->
<g id="edge6_Node000002_Node000007" class="edge">
<title>Node2&#45;&gt;Node7</title>
<g id="a_edge6_Node000002_Node000007"><a xlink:title=" ">
<path fill="none" stroke="#63b8ff" d="M304.28,-113.38C281.33,-104.83 243.68,-90.81 215.78,-80.42"/>
<polygon fill="#63b8ff" stroke="#63b8ff" points="217.25,-77.23 206.66,-77.02 214.81,-83.79 217.25,-77.23"/>
</a>
</g>
</g>
<!-- Node8 -->
<g id="Node000008" class="node">
<title>Node8</title>
<g id="a_Node000008"><a xlink:href="structs_8h.html" target="_top" xlink:title=" ">
<polygon fill="white" stroke="#666666" points="351.88,-76 297.62,-76 297.62,-56 351.88,-56 351.88,-76"/>
<text text-anchor="middle" x="324.75" y="-62.5" font-family="Helvetica,sans-Serif" font-size="10.00">structs.h</text>
</a>
</g>
</g>
<!-- Node2&#45;&gt;Node8 -->
<g id="edge7_Node000002_Node000008" class="edge">
<title>Node2&#45;&gt;Node8</title>
<g id="a_edge7_Node000002_Node000008"><a xlink:title=" ">
<path fill="none" stroke="#63b8ff" d="M324.75,-111.59C324.75,-105.01 324.75,-95.96 324.75,-87.73"/>
<polygon fill="#63b8ff" stroke="#63b8ff" points="328.25,-87.81 324.75,-77.81 321.25,-87.81 328.25,-87.81"/>
</a>
</g>
</g>
<!-- Node9 -->
<g id="Node000009" class="node">
<title>Node9</title>
<g id="a_Node000009"><a xlink:title=" ">
<polygon fill="#e0e0e0" stroke="#999999" points="133.75,-20 93.75,-20 93.75,0 133.75,0 133.75,-20"/>
<text text-anchor="middle" x="113.75" y="-6.5" font-family="Helvetica,sans-Serif" font-size="10.00">string</text>
</a>
</g>
</g>
<!-- Node8&#45;&gt;Node9 -->
<g id="edge8_Node000008_Node000009" class="edge">
<title>Node8&#45;&gt;Node9</title>
<g id="a_edge8_Node000008_Node000009"><a xlink:title=" ">
<path fill="none" stroke="#63b8ff" d="M297.17,-57.94C257.94,-47.9 186.24,-29.55 145.06,-19.01"/>
<polygon fill="#63b8ff" stroke="#63b8ff" points="146.09,-15.66 135.53,-16.58 144.35,-22.45 146.09,-15.66"/>
</a>
</g>
</g>
<!-- Node10 -->
<g id="Node000010" class="node">
<title>Node10</title>
<g id="a_Node000010"><a xlink:href="_vector2f_8h.html" target="_top" xlink:title=" ">
<polygon fill="white" stroke="#666666" points="513.88,-20 453.62,-20 453.62,0 513.88,0 513.88,-20"/>
<text text-anchor="middle" x="483.75" y="-6.5" font-family="Helvetica,sans-Serif" font-size="10.00">Vector2f.h</text>
</a>
</g>
</g>
<!-- Node8&#45;&gt;Node10 -->
<g id="edge9_Node000008_Node000010" class="edge">
<title>Node8&#45;&gt;Node10</title>
<g id="a_edge9_Node000008_Node000010"><a xlink:title=" ">
<path fill="none" stroke="#63b8ff" d="M347.18,-55.59C371.99,-46.55 412.2,-32.85 442.64,-23.02"/>
<polygon fill="#63b8ff" stroke="#63b8ff" points="443.47,-26.43 451.93,-20.05 441.34,-19.76 443.47,-26.43"/>
</a>
</g>
</g>
<!-- Node10&#45;&gt;Node8 -->
<g id="edge10_Node000010_Node000008" class="edge">
<title>Node10&#45;&gt;Node8</title>
<g id="a_edge10_Node000010_Node000008"><a xlink:title=" ">
<path fill="none" stroke="#63b8ff" d="M461.08,-20.49C435.41,-29.84 393.47,-44.12 362.81,-53.97"/>
<polygon fill="#63b8ff" stroke="#63b8ff" points="361.98,-50.56 353.51,-56.92 364.1,-57.23 361.98,-50.56"/>
</a>
</g>
</g>
<!-- Node12 -->
<g id="Node000012" class="node">
<title>Node12</title>
<g id="a_Node000012"><a xlink:href="_character_controller_8h.html" target="_top" xlink:title=" ">
<polygon fill="white" stroke="#666666" points="628.25,-356 519.25,-356 519.25,-336 628.25,-336 628.25,-356"/>
<text text-anchor="middle" x="573.75" y="-342.5" font-family="Helvetica,sans-Serif" font-size="10.00">CharacterController.h</text>
</a>
</g>
</g>
<!-- Node11&#45;&gt;Node12 -->
<g id="edge12_Node000011_Node000012" class="edge">
<title>Node11&#45;&gt;Node12</title>
<g id="a_edge12_Node000011_Node000012"><a xlink:title=" ">
<path fill="none" stroke="#63b8ff" d="M451.53,-391.59C475.15,-382.97 510.39,-370.12 536.97,-360.42"/>
<polygon fill="#63b8ff" stroke="#63b8ff" points="538.15,-363.71 546.35,-357 535.75,-357.14 538.15,-363.71"/>
</a>
</g>
</g>
<!-- Node19 -->
<g id="Node000019" class="node">
<title>Node19</title>
<g id="a_Node000019"><a xlink:href="_hair_8h.html" target="_top" xlink:title=" ">
<polygon fill="white" stroke="#666666" points="496.88,-244 454.62,-244 454.62,-224 496.88,-224 496.88,-244"/>
<text text-anchor="middle" x="475.75" y="-230.5" font-family="Helvetica,sans-Serif" font-size="10.00">Hair.h</text>
</a>
</g>
</g>
<!-- Node11&#45;&gt;Node19 -->
<g id="edge28_Node000011_Node000019" class="edge">
<title>Node11&#45;&gt;Node19</title>
<g id="a_edge28_Node000011_Node000019"><a xlink:title=" ">
<path fill="none" stroke="#63b8ff" d="M433.41,-391.61C440.11,-382.91 449.55,-369.33 454.75,-356 467.83,-322.5 472.79,-280.61 474.65,-255.93"/>
<polygon fill="#63b8ff" stroke="#63b8ff" points="478.14,-256.16 475.29,-245.96 471.16,-255.71 478.14,-256.16"/>
</a>
</g>
</g>
<!-- Node21 -->
<g id="Node000021" class="node">
<title>Node21</title>
<g id="a_Node000021"><a xlink:href="_character_texture_manager_8h.html" target="_top" xlink:title=" ">
<polygon fill="white" stroke="#666666" points="446.12,-356 309.38,-356 309.38,-336 446.12,-336 446.12,-356"/>
<text text-anchor="middle" x="377.75" y="-342.5" font-family="Helvetica,sans-Serif" font-size="10.00">CharacterTextureManager.h</text>
</a>
</g>
</g>
<!-- Node11&#45;&gt;Node21 -->
<g id="edge33_Node000011_Node000021" class="edge">
<title>Node11&#45;&gt;Node21</title>
<g id="a_edge33_Node000011_Node000021"><a xlink:title=" ">
<path fill="none" stroke="#63b8ff" d="M417.39,-391.59C410.85,-384.24 401.57,-373.8 393.63,-364.87"/>
<polygon fill="#63b8ff" stroke="#63b8ff" points="396.28,-362.58 387.02,-357.43 391.05,-367.23 396.28,-362.58"/>
</a>
</g>
</g>
<!-- Node24 -->
<g id="Node000024" class="node">
<title>Node24</title>
<g id="a_Node000024"><a xlink:href="_character_state_8h.html" target="_top" xlink:title=" ">
<polygon fill="white" stroke="#666666" points="234.88,-300 144.62,-300 144.62,-280 234.88,-280 234.88,-300"/>
<text text-anchor="middle" x="189.75" y="-286.5" font-family="Helvetica,sans-Serif" font-size="10.00">CharacterState.h</text>
</a>
</g>
</g>
<!-- Node11&#45;&gt;Node24 -->
<g id="edge40_Node000011_Node000024" class="edge">
<title>Node11&#45;&gt;Node24</title>
<g id="a_edge40_Node000011_Node000024"><a xlink:title=" ">
<path fill="none" stroke="#63b8ff" d="M394.55,-391.54C368.87,-383.33 331.77,-370.52 300.75,-356 269.32,-341.29 235.15,-320.49 213.14,-306.41"/>
<polygon fill="#63b8ff" stroke="#63b8ff" points="215.23,-303.6 204.93,-301.1 211.43,-309.47 215.23,-303.6"/>
</a>
</g>
</g>
<!-- Node25 -->
<g id="Node000025" class="node">
<title>Node25</title>
<g id="a_Node000025"><a xlink:href="_character_sound_manager_8h.html" target="_top" xlink:title=" ">
<polygon fill="white" stroke="#666666" points="250.88,-356 118.62,-356 118.62,-336 250.88,-336 250.88,-356"/>
<text text-anchor="middle" x="184.75" y="-342.5" font-family="Helvetica,sans-Serif" font-size="10.00">CharacterSoundManager.h</text>
</a>
</g>
</g>
<!-- Node11&#45;&gt;Node25 -->
<g id="edge41_Node000011_Node000025" class="edge">
<title>Node11&#45;&gt;Node25</title>
<g id="a_edge41_Node000011_Node000025"><a xlink:title=" ">
<path fill="none" stroke="#63b8ff" d="M391.99,-393.43C352.01,-384.48 284.95,-369.45 237.97,-358.93"/>
<polygon fill="#63b8ff" stroke="#63b8ff" points="238.79,-355.52 228.27,-356.75 237.26,-362.35 238.79,-355.52"/>
</a>
</g>
</g>
<!-- Node13 -->
<g id="Node000013" class="node">
<title>Node13</title>
<g id="a_Node000013"><a xlink:href="_game_object_8h.html" target="_top" xlink:title=" ">
<polygon fill="white" stroke="#666666" points="624.25,-300 545.25,-300 545.25,-280 624.25,-280 624.25,-300"/>
<text text-anchor="middle" x="584.75" y="-286.5" font-family="Helvetica,sans-Serif" font-size="10.00">GameObject.h</text>
</a>
</g>
</g>
<!-- Node12&#45;&gt;Node13 -->
<g id="edge13_Node000012_Node000013" class="edge">
<title>Node12&#45;&gt;Node13</title>
<g id="a_edge13_Node000012_Node000013"><a xlink:title=" ">
<path fill="none" stroke="#63b8ff" d="M575.67,-335.59C577.02,-328.93 578.89,-319.75 580.59,-311.44"/>
<polygon fill="#63b8ff" stroke="#63b8ff" points="583.99,-312.28 582.55,-301.78 577.13,-310.88 583.99,-312.28"/>
</a>
</g>
</g>
<!-- Node16 -->
<g id="Node000016" class="node">
<title>Node16</title>
<g id="a_Node000016"><a xlink:href="_vector2x2f_8h.html" target="_top" xlink:title=" ">
<polygon fill="white" stroke="#666666" points="713.12,-300 642.38,-300 642.38,-280 713.12,-280 713.12,-300"/>
<text text-anchor="middle" x="677.75" y="-286.5" font-family="Helvetica,sans-Serif" font-size="10.00">Vector2x2f.h</text>
</a>
</g>
</g>
<!-- Node12&#45;&gt;Node16 -->
<g id="edge23_Node000012_Node000016" class="edge">
<title>Node12&#45;&gt;Node16</title>
<g id="a_edge23_Node000012_Node000016"><a xlink:title=" ">
<path fill="none" stroke="#63b8ff" d="M591.87,-335.59C607.72,-327.36 631.03,-315.26 649.37,-305.74"/>
<polygon fill="#63b8ff" stroke="#63b8ff" points="650.89,-308.89 658.15,-301.18 647.66,-302.68 650.89,-308.89"/>
</a>
</g>
</g>
<!-- Node18 -->
<g id="Node000018" class="node">
<title>Node18</title>
<g id="a_Node000018"><a xlink:title=" ">
<polygon fill="#e0e0e0" stroke="#999999" points="497.25,-188 454.25,-188 454.25,-168 497.25,-168 497.25,-188"/>
<text text-anchor="middle" x="475.75" y="-174.5" font-family="Helvetica,sans-Serif" font-size="10.00">vector</text>
</a>
</g>
</g>
<!-- Node12&#45;&gt;Node18 -->
<g id="edge27_Node000012_Node000018" class="edge">
<title>Node12&#45;&gt;Node18</title>
<g id="a_edge27_Node000012_Node000018"><a xlink:title=" ">
<path fill="none" stroke="#63b8ff" d="M564.61,-335.63C556.5,-326.94 544.73,-313.38 536.75,-300 518.07,-268.67 522.84,-256.23 505.75,-224 500.98,-215 494.86,-205.55 489.4,-197.65"/>
<polygon fill="#63b8ff" stroke="#63b8ff" points="492.29,-195.67 483.64,-189.54 486.58,-199.72 492.29,-195.67"/>
</a>
</g>
</g>
<!-- Node14 -->
<g id="Node000014" class="node">
<title>Node14</title>
<g id="a_Node000014"><a xlink:href="_transform_8h.html" target="_top" xlink:title=" ">
<polygon fill="white" stroke="#666666" points="598,-188 529.5,-188 529.5,-168 598,-168 598,-188"/>
<text text-anchor="middle" x="563.75" y="-174.5" font-family="Helvetica,sans-Serif" font-size="10.00">Transform.h</text>
</a>
</g>
</g>
<!-- Node13&#45;&gt;Node14 -->
<g id="edge14_Node000013_Node000014" class="edge">
<title>Node13&#45;&gt;Node14</title>
<g id="a_edge14_Node000013_Node000014"><a xlink:title=" ">
<path fill="none" stroke="#63b8ff" d="M582.96,-279.62C579.6,-262.01 572.26,-223.59 567.69,-199.65"/>
<polygon fill="#63b8ff" stroke="#63b8ff" points="571.13,-199.01 565.82,-189.84 564.26,-200.32 571.13,-199.01"/>
</a>
</g>
</g>
<!-- Node14&#45;&gt;Node10 -->
<g id="edge22_Node000014_Node000010" class="edge">
<title>Node14&#45;&gt;Node10</title>
<g id="a_edge22_Node000014_Node000010"><a xlink:title=" ">
<path fill="none" stroke="#63b8ff" d="M575.21,-167.62C599.66,-146.47 652.51,-93.99 624.75,-56 602.17,-25.1 558.14,-14.92 525.26,-11.81"/>
<polygon fill="#63b8ff" stroke="#63b8ff" points="525.89,-8.35 515.66,-11.1 525.37,-15.33 525.89,-8.35"/>
</a>
</g>
</g>
<!-- Node15 -->
<g id="Node000015" class="node">
<title>Node15</title>
<g id="a_Node000015"><a xlink:href="base_8h.html" target="_top" xlink:title=" ">
<polygon fill="white" stroke="#666666" points="430.38,-132 385.12,-132 385.12,-112 430.38,-112 430.38,-132"/>
<text text-anchor="middle" x="407.75" y="-118.5" font-family="Helvetica,sans-Serif" font-size="10.00">base.h</text>
</a>
</g>
</g>
<!-- Node14&#45;&gt;Node15 -->
<g id="edge15_Node000014_Node000015" class="edge">
<title>Node14&#45;&gt;Node15</title>
<g id="a_edge15_Node000014_Node000015"><a xlink:title=" ">
<path fill="none" stroke="#63b8ff" d="M536.58,-167.59C510.07,-158.42 469.68,-144.44 441.21,-134.58"/>
<polygon fill="#63b8ff" stroke="#63b8ff" points="442.58,-131.35 431.99,-131.39 440.29,-137.97 442.58,-131.35"/>
</a>
</g>
</g>
<!-- Node15&#45;&gt;Node3 -->
<g id="edge16_Node000015_Node000003" class="edge">
<title>Node15&#45;&gt;Node3</title>
<g id="a_edge16_Node000015_Node000003"><a xlink:title=" ">
<path fill="none" stroke="#63b8ff" d="M384.64,-112.68C359.39,-103.59 318.76,-88.96 290.29,-78.72"/>
<polygon fill="#63b8ff" stroke="#63b8ff" points="291.68,-75.5 281.09,-75.4 289.31,-82.08 291.68,-75.5"/>
</a>
</g>
</g>
<!-- Node15&#45;&gt;Node4 -->
<g id="edge17_Node000015_Node000004" class="edge">
<title>Node15&#45;&gt;Node4</title>
<g id="a_edge17_Node000015_Node000004"><a xlink:title=" ">
<path fill="none" stroke="#63b8ff" d="M407.92,-111.59C408.05,-105.01 408.21,-95.96 408.37,-87.73"/>
<polygon fill="#63b8ff" stroke="#63b8ff" points="411.86,-87.87 408.55,-77.81 404.87,-87.75 411.86,-87.87"/>
</a>
</g>
</g>
<!-- Node15&#45;&gt;Node5 -->
<g id="edge18_Node000015_Node000005" class="edge">
<title>Node15&#45;&gt;Node5</title>
<g id="a_edge18_Node000015_Node000005"><a xlink:title=" ">
<path fill="none" stroke="#63b8ff" d="M422.9,-111.59C435.8,-103.59 454.58,-91.93 469.71,-82.54"/>
<polygon fill="#63b8ff" stroke="#63b8ff" points="471.54,-85.53 478.19,-77.28 467.85,-79.58 471.54,-85.53"/>
</a>
</g>
</g>
<!-- Node15&#45;&gt;Node6 -->
<g id="edge19_Node000015_Node000006" class="edge">
<title>Node15&#45;&gt;Node6</title>
<g id="a_edge19_Node000015_Node000006"><a xlink:title=" ">
<path fill="none" stroke="#63b8ff" d="M430.81,-113.72C458.25,-105.05 504.55,-90.43 538.06,-79.85"/>
<polygon fill="#63b8ff" stroke="#63b8ff" points="538.96,-83.24 547.44,-76.89 536.85,-76.56 538.96,-83.24"/>
</a>
</g>
</g>
<!-- Node15&#45;&gt;Node7 -->
<g id="edge20_Node000015_Node000007" class="edge">
<title>Node15&#45;&gt;Node7</title>
<g id="a_edge20_Node000015_Node000007"><a xlink:title=" ">
<path fill="none" stroke="#63b8ff" d="M384.63,-115.53C348.26,-106.91 276.88,-90 228.73,-78.6"/>
<polygon fill="#63b8ff" stroke="#63b8ff" points="229.64,-75.22 219.1,-76.32 228.03,-82.03 229.64,-75.22"/>
</a>
</g>
</g>
<!-- Node15&#45;&gt;Node8 -->
<g id="edge21_Node000015_Node000008" class="edge">
<title>Node15&#45;&gt;Node8</title>
<g id="a_edge21_Node000015_Node000008"><a xlink:title=" ">
<path fill="none" stroke="#63b8ff" d="M393.29,-111.59C380.99,-103.59 363.07,-91.93 348.64,-82.54"/>
<polygon fill="#63b8ff" stroke="#63b8ff" points="350.88,-79.82 340.59,-77.3 347.06,-85.69 350.88,-79.82"/>
</a>
</g>
</g>
<!-- Node16&#45;&gt;Node17 -->
<g id="edge24_Node000016_Node000017" class="edge">
<title>Node16&#45;&gt;Node17</title>
<g id="a_edge24_Node000016_Node000017"><a xlink:title=" ">
<path fill="none" stroke="#63b8ff" d="M678.1,-279.59C678.34,-273.01 678.68,-263.96 678.98,-255.73"/>
<polygon fill="#63b8ff" stroke="#63b8ff" points="682.48,-255.93 679.35,-245.81 675.48,-255.67 682.48,-255.93"/>
</a>
</g>
</g>
<!-- Node17&#45;&gt;Node10 -->
<g id="edge26_Node000017_Node000010" class="edge">
<title>Node17&#45;&gt;Node10</title>
<g id="a_edge26_Node000017_Node000010"><a xlink:title=" ">
<path fill="none" stroke="#63b8ff" d="M680.83,-223.84C683.68,-194.96 688.36,-104.9 642.75,-56 612.74,-23.82 561.6,-14.04 525.43,-11.38"/>
<polygon fill="#63b8ff" stroke="#63b8ff" points="525.96,-7.91 515.78,-10.83 525.56,-14.89 525.96,-7.91"/>
</a>
</g>
</g>
<!-- Node17&#45;&gt;Node18 -->
<g id="edge25_Node000017_Node000018" class="edge">
<title>Node17&#45;&gt;Node18</title>
<g id="a_edge25_Node000017_Node000018"><a xlink:title=" ">
<path fill="none" stroke="#63b8ff" d="M658.3,-227.32C622.58,-217.87 550.68,-198.83 508.56,-187.68"/>
<polygon fill="#63b8ff" stroke="#63b8ff" points="509.55,-184.33 498.99,-185.15 507.76,-191.09 509.55,-184.33"/>
</a>
</g>
</g>
<!-- Node19&#45;&gt;Node14 -->
<g id="edge29_Node000019_Node000014" class="edge">
<title>Node19&#45;&gt;Node14</title>
<g id="a_edge29_Node000019_Node000014"><a xlink:title=" ">
<path fill="none" stroke="#63b8ff" d="M491.08,-223.59C504.25,-215.51 523.48,-203.71 538.86,-194.27"/>
<polygon fill="#63b8ff" stroke="#63b8ff" points="540.32,-197.48 547.01,-189.27 536.66,-191.52 540.32,-197.48"/>
</a>
</g>
</g>
<!-- Node19&#45;&gt;Node18 -->
<g id="edge30_Node000019_Node000018" class="edge">
<title>Node19&#45;&gt;Node18</title>
<g id="a_edge30_Node000019_Node000018"><a xlink:title=" ">
<path fill="none" stroke="#63b8ff" d="M475.75,-223.59C475.75,-217.01 475.75,-207.96 475.75,-199.73"/>
<polygon fill="#63b8ff" stroke="#63b8ff" points="479.25,-199.81 475.75,-189.81 472.25,-199.81 479.25,-199.81"/>
</a>
</g>
</g>
<!-- Node20 -->
<g id="Node000020" class="node">
<title>Node20</title>
<g id="a_Node000020"><a xlink:href="_texture_8h.html" target="_top" xlink:title=" ">
<polygon fill="white" stroke="#666666" points="436,-188 379.5,-188 379.5,-168 436,-168 436,-188"/>
<text text-anchor="middle" x="407.75" y="-174.5" font-family="Helvetica,sans-Serif" font-size="10.00">Texture.h</text>
</a>
</g>
</g>
<!-- Node19&#45;&gt;Node20 -->
<g id="edge31_Node000019_Node000020" class="edge">
<title>Node19&#45;&gt;Node20</title>
<g id="a_edge31_Node000019_Node000020"><a xlink:title=" ">
<path fill="none" stroke="#63b8ff" d="M463.91,-223.59C454.06,-215.77 439.82,-204.46 428.14,-195.19"/>
<polygon fill="#63b8ff" stroke="#63b8ff" points="430.65,-192.72 420.64,-189.24 426.3,-198.2 430.65,-192.72"/>
</a>
</g>
</g>
<!-- Node20&#45;&gt;Node15 -->
<g id="edge32_Node000020_Node000015" class="edge">
<title>Node20&#45;&gt;Node15</title>
<g id="a_edge32_Node000020_Node000015"><a xlink:title=" ">
<path fill="none" stroke="#63b8ff" d="M407.75,-167.59C407.75,-161.01 407.75,-151.96 407.75,-143.73"/>
<polygon fill="#63b8ff" stroke="#63b8ff" points="411.25,-143.81 407.75,-133.81 404.25,-143.81 411.25,-143.81"/>
</a>
</g>
</g>
<!-- Node21&#45;&gt;Node18 -->
<g id="edge39_Node000021_Node000018" class="edge">
<title>Node21&#45;&gt;Node18</title>
<g id="a_edge39_Node000021_Node000018"><a xlink:title=" ">
<path fill="none" stroke="#63b8ff" d="M384.54,-335.56C390.87,-326.61 400.4,-312.67 407.75,-300 426.71,-267.34 426.79,-256.66 445.75,-224 450.86,-215.19 457.03,-205.77 462.44,-197.83"/>
<polygon fill="#63b8ff" stroke="#63b8ff" points="465.27,-199.89 468.1,-189.68 459.52,-195.9 465.27,-199.89"/>
</a>
</g>
</g>
<!-- Node22 -->
<g id="Node000022" class="node">
<title>Node22</title>
<g id="a_Node000022"><a xlink:href="_animation_manager_a_n_d_hair_8h.html" target="_top" xlink:title=" ">
<polygon fill="white" stroke="#666666" points="398.25,-300 253.25,-300 253.25,-280 398.25,-280 398.25,-300"/>
<text text-anchor="middle" x="325.75" y="-286.5" font-family="Helvetica,sans-Serif" font-size="10.00">AnimationManagerANDHair.h</text>
</a>
</g>
</g>
<!-- Node21&#45;&gt;Node22 -->
<g id="edge34_Node000021_Node000022" class="edge">
<title>Node21&#45;&gt;Node22</title>
<g id="a_edge34_Node000021_Node000022"><a xlink:title=" ">
<path fill="none" stroke="#63b8ff" d="M368.69,-335.59C361.53,-328.16 351.34,-317.58 342.68,-308.58"/>
<polygon fill="#63b8ff" stroke="#63b8ff" points="345.21,-306.16 335.75,-301.39 340.17,-311.02 345.21,-306.16"/>
</a>
</g>
</g>
<!-- Node21&#45;&gt;Node24 -->
<g id="edge38_Node000021_Node000024" class="edge">
<title>Node21&#45;&gt;Node24</title>
<g id="a_edge38_Node000021_Node000024"><a xlink:title=" ">
<path fill="none" stroke="#63b8ff" d="M345,-335.59C314.19,-326.74 267.83,-313.43 233.78,-303.65"/>
<polygon fill="#63b8ff" stroke="#63b8ff" points="234.78,-300.29 224.21,-300.9 232.85,-307.02 234.78,-300.29"/>
</a>
</g>
</g>
<!-- Node22&#45;&gt;Node18 -->
<g id="edge37_Node000022_Node000018" class="edge">
<title>Node22&#45;&gt;Node18</title>
<g id="a_edge37_Node000022_Node000018"><a xlink:title=" ">
<path fill="none" stroke="#63b8ff" d="M338.08,-279.66C354.88,-266.96 385.96,-243.58 412.75,-224 426.15,-214.21 441.27,-203.4 453.34,-194.83"/>
<polygon fill="#63b8ff" stroke="#63b8ff" points="455.29,-197.74 461.43,-189.1 451.24,-192.03 455.29,-197.74"/>
</a>
</g>
</g>
<!-- Node23 -->
<g id="Node000023" class="node">
<title>Node23</title>
<g id="a_Node000023"><a xlink:href="_animation_manager_8h.html" target="_top" xlink:title=" ">
<polygon fill="white" stroke="#666666" points="360.38,-244 255.12,-244 255.12,-224 360.38,-224 360.38,-244"/>
<text text-anchor="middle" x="307.75" y="-230.5" font-family="Helvetica,sans-Serif" font-size="10.00">AnimationManager.h</text>
</a>
</g>
</g>
<!-- Node22&#45;&gt;Node23 -->
<g id="edge35_Node000022_Node000023" class="edge">
<title>Node22&#45;&gt;Node23</title>
<g id="a_edge35_Node000022_Node000023"><a xlink:title=" ">
<path fill="none" stroke="#63b8ff" d="M322.61,-279.59C320.37,-272.86 317.26,-263.53 314.47,-255.15"/>
<polygon fill="#63b8ff" stroke="#63b8ff" points="317.81,-254.11 311.33,-245.73 311.17,-256.33 317.81,-254.11"/>
</a>
</g>
</g>
<!-- Node23&#45;&gt;Node20 -->
<g id="edge36_Node000023_Node000020" class="edge">
<title>Node23&#45;&gt;Node20</title>
<g id="a_edge36_Node000023_Node000020"><a xlink:title=" ">
<path fill="none" stroke="#63b8ff" d="M325.17,-223.59C340.42,-215.36 362.83,-203.26 380.46,-193.74"/>
<polygon fill="#63b8ff" stroke="#63b8ff" points="381.73,-197.03 388.86,-189.2 378.4,-190.87 381.73,-197.03"/>
</a>
</g>
</g>
<!-- Node25&#45;&gt;Node24 -->
<g id="edge42_Node000025_Node000024" class="edge">
<title>Node25&#45;&gt;Node24</title>
<g id="a_edge42_Node000025_Node000024"><a xlink:title=" ">
<path fill="none" stroke="#63b8ff" d="M185.62,-335.59C186.23,-329.01 187.07,-319.96 187.83,-311.73"/>
<polygon fill="#63b8ff" stroke="#63b8ff" points="191.31,-312.09 188.75,-301.81 184.34,-311.44 191.31,-312.09"/>
</a>
</g>
</g>
<!-- Node26 -->
<g id="Node000026" class="node">
<title>Node26</title>
<g id="a_Node000026"><a xlink:href="_sound_effect_8h.html" target="_top" xlink:title=" ">
<polygon fill="white" stroke="#666666" points="182.5,-244 105,-244 105,-224 182.5,-224 182.5,-244"/>
<text text-anchor="middle" x="143.75" y="-230.5" font-family="Helvetica,sans-Serif" font-size="10.00">SoundEffect.h</text>
</a>
</g>
</g>
<!-- Node25&#45;&gt;Node26 -->
<g id="edge43_Node000025_Node000026" class="edge">
<title>Node25&#45;&gt;Node26</title>
<g id="a_edge43_Node000025_Node000026"><a xlink:title=" ">
<path fill="none" stroke="#63b8ff" d="M169.14,-335.77C157.52,-327.9 142.53,-315.44 135.75,-300 129.52,-285.81 132.19,-268.31 136.05,-255.04"/>
<polygon fill="#63b8ff" stroke="#63b8ff" points="139.32,-256.29 139.22,-245.7 132.69,-254.04 139.32,-256.29"/>
</a>
</g>
</g>
<!-- Node27 -->
<g id="Node000027" class="node">
<title>Node27</title>
<g id="a_Node000027"><a xlink:href="_sound_stream_8h.html" target="_top" xlink:title=" ">
<polygon fill="white" stroke="#666666" points="83.5,-132 0,-132 0,-112 83.5,-112 83.5,-132"/>
<text text-anchor="middle" x="41.75" y="-118.5" font-family="Helvetica,sans-Serif" font-size="10.00">SoundStream.h</text>
</a>
</g>
</g>
<!-- Node25&#45;&gt;Node27 -->
<g id="edge46_Node000025_Node000027" class="edge">
<title>Node25&#45;&gt;Node27</title>
<g id="a_edge46_Node000025_Node000027"><a xlink:title=" ">
<path fill="none" stroke="#63b8ff" d="M169.9,-335.59C157.58,-327.28 140.14,-314.29 127.75,-300 90.05,-256.51 86.17,-240.57 62.75,-188 56.31,-173.55 50.88,-156.52 47.16,-143.51"/>
<polygon fill="#63b8ff" stroke="#63b8ff" points="50.56,-142.67 44.53,-133.95 43.81,-144.52 50.56,-142.67"/>
</a>
</g>
</g>
<!-- Node26&#45;&gt;Node9 -->
<g id="edge44_Node000026_Node000009" class="edge">
<title>Node26&#45;&gt;Node9</title>
<g id="a_edge44_Node000026_Node000009"><a xlink:title=" ">
<path fill="none" stroke="#63b8ff" d="M142.5,-223.74C138.04,-190.74 122.85,-78.31 116.53,-31.61"/>
<polygon fill="#63b8ff" stroke="#63b8ff" points="120.02,-31.24 115.21,-21.8 113.08,-32.17 120.02,-31.24"/>
</a>
</g>
</g>
<!-- Node26&#45;&gt;Node18 -->
<g id="edge45_Node000026_Node000018" class="edge">
<title>Node26&#45;&gt;Node18</title>
<g id="a_edge45_Node000026_Node000018"><a xlink:title=" ">
<path fill="none" stroke="#63b8ff" d="M182.54,-228.89C238.08,-222.63 343.6,-209.39 442.71,-188.18"/>
<polygon fill="#63b8ff" stroke="#63b8ff" points="443.32,-191.63 452.35,-186.08 441.83,-184.79 443.32,-191.63"/>
</a>
</g>
</g>
<!-- Node27&#45;&gt;Node9 -->
<g id="edge47_Node000027_Node000009" class="edge">
<title>Node27&#45;&gt;Node9</title>
<g id="a_edge47_Node000027_Node000009"><a xlink:title=" ">
<path fill="none" stroke="#63b8ff" d="M47.89,-111.62C59.74,-93.52 85.96,-53.45 101.51,-29.7"/>
<polygon fill="#63b8ff" stroke="#63b8ff" points="104.25,-31.91 106.8,-21.62 98.39,-28.07 104.25,-31.91"/>
</a>
</g>
</g>
</g>
</svg>
