<?xml version="1.0" encoding="UTF-8" standalone="no"?>
<!DOCTYPE svg PUBLIC "-//W3C//DTD SVG 1.1//EN"
 "http://www.w3.org/Graphics/SVG/1.1/DTD/svg11.dtd">
<!-- Generated by graphviz version 12.2.1 (20241206.2353)
 -->
<!-- Title: Celeste/CrumbleBlock.cpp Pages: 1 -->
<svg width="840pt" height="588pt"
 viewBox="0.00 0.00 839.75 588.00" xmlns="http://www.w3.org/2000/svg" xmlns:xlink="http://www.w3.org/1999/xlink">
<g id="graph0" class="graph" transform="scale(1 1) rotate(0) translate(4 584)">
<title>Celeste/CrumbleBlock.cpp</title>
<!-- Node1 -->
<g id="Node000001" class="node">
<title>Node1</title>
<g id="a_Node000001"><a xlink:title=" ">
<polygon fill="#999999" stroke="#666666" points="177.5,-580 44.5,-580 44.5,-560 177.5,-560 177.5,-580"/>
<text text-anchor="middle" x="111" y="-566.5" font-family="Helvetica,sans-Serif" font-size="10.00">Celeste/CrumbleBlock.cpp</text>
</a>
</g>
</g>
<!-- Node2 -->
<g id="Node000002" class="node">
<title>Node2</title>
<g id="a_Node000002"><a xlink:href="pch_8h.html" target="_top" xlink:title=" ">
<polygon fill="white" stroke="#666666" points="375,-132 335,-132 335,-112 375,-112 375,-132"/>
<text text-anchor="middle" x="355" y="-118.5" font-family="Helvetica,sans-Serif" font-size="10.00">pch.h</text>
</a>
</g>
</g>
<!-- Node1&#45;&gt;Node2 -->
<g id="edge1_Node000001_Node000002" class="edge">
<title>Node1&#45;&gt;Node2</title>
<g id="a_edge1_Node000001_Node000002"><a xlink:title=" ">
<path fill="none" stroke="#63b8ff" d="M89.33,-559.51C57.03,-543.72 0,-508.78 0,-459 0,-459 0,-459 0,-233 0,-186.49 39.48,-186.83 82,-168 163.9,-131.74 271.34,-124.43 323.65,-123.13"/>
<polygon fill="#63b8ff" stroke="#63b8ff" points="323.39,-126.64 333.32,-122.95 323.26,-119.64 323.39,-126.64"/>
</a>
</g>
</g>
<!-- Node11 -->
<g id="Node000011" class="node">
<title>Node11</title>
<g id="a_Node000011"><a xlink:href="_crumble_block_8h.html" target="_top" xlink:title=" ">
<polygon fill="white" stroke="#666666" points="443.88,-524 358.12,-524 358.12,-504 443.88,-504 443.88,-524"/>
<text text-anchor="middle" x="401" y="-510.5" font-family="Helvetica,sans-Serif" font-size="10.00">CrumbleBlock.h</text>
</a>
</g>
</g>
<!-- Node1&#45;&gt;Node11 -->
<g id="edge11_Node000001_Node000011" class="edge">
<title>Node1&#45;&gt;Node11</title>
<g id="a_edge11_Node000001_Node000011"><a xlink:title=" ">
<path fill="none" stroke="#63b8ff" d="M161.85,-559.53C213.6,-549.89 293.56,-535.01 346.57,-525.13"/>
<polygon fill="#63b8ff" stroke="#63b8ff" points="347.11,-528.6 356.3,-523.32 345.83,-521.71 347.11,-528.6"/>
</a>
</g>
</g>
<!-- Node22 -->
<g id="Node000022" class="node">
<title>Node22</title>
<g id="a_Node000022"><a xlink:href="_texture_8h.html" target="_top" xlink:title=" ">
<polygon fill="white" stroke="#666666" points="147.25,-188 90.75,-188 90.75,-168 147.25,-168 147.25,-188"/>
<text text-anchor="middle" x="119" y="-174.5" font-family="Helvetica,sans-Serif" font-size="10.00">Texture.h</text>
</a>
</g>
</g>
<!-- Node1&#45;&gt;Node22 -->
<g id="edge53_Node000001_Node000022" class="edge">
<title>Node1&#45;&gt;Node22</title>
<g id="a_edge53_Node000001_Node000022"><a xlink:title=" ">
<path fill="none" stroke="#63b8ff" d="M98.95,-559.52C78.21,-542.05 38,-502.55 38,-459 38,-459 38,-459 38,-289 38,-258.9 39.67,-248.61 57,-224 65.56,-211.85 78.45,-201.74 90.27,-194.19"/>
<polygon fill="#63b8ff" stroke="#63b8ff" points="91.75,-197.39 98.53,-189.25 88.15,-191.38 91.75,-197.39"/>
</a>
</g>
</g>
<!-- Node25 -->
<g id="Node000025" class="node">
<title>Node25</title>
<g id="a_Node000025"><a xlink:href="_animation_manager_8h.html" target="_top" xlink:title=" ">
<polygon fill="white" stroke="#666666" points="171.62,-244 66.38,-244 66.38,-224 171.62,-224 171.62,-244"/>
<text text-anchor="middle" x="119" y="-230.5" font-family="Helvetica,sans-Serif" font-size="10.00">AnimationManager.h</text>
</a>
</g>
</g>
<!-- Node1&#45;&gt;Node25 -->
<g id="edge52_Node000001_Node000025" class="edge">
<title>Node1&#45;&gt;Node25</title>
<g id="a_edge52_Node000001_Node000025"><a xlink:title=" ">
<path fill="none" stroke="#63b8ff" d="M111,-559.58C111,-540.57 111,-496.24 111,-459 111,-459 111,-459 111,-345 111,-313.79 114.24,-277.72 116.6,-255.64"/>
<polygon fill="#63b8ff" stroke="#63b8ff" points="120.06,-256.23 117.69,-245.9 113.1,-255.46 120.06,-256.23"/>
</a>
</g>
</g>
<!-- Node28 -->
<g id="Node000028" class="node">
<title>Node28</title>
<g id="a_Node000028"><a xlink:href="_sound_effect_8h.html" target="_top" xlink:title=" ">
<polygon fill="white" stroke="#666666" points="744.75,-244 667.25,-244 667.25,-224 744.75,-224 744.75,-244"/>
<text text-anchor="middle" x="706" y="-230.5" font-family="Helvetica,sans-Serif" font-size="10.00">SoundEffect.h</text>
</a>
</g>
</g>
<!-- Node1&#45;&gt;Node28 -->
<g id="edge54_Node000001_Node000028" class="edge">
<title>Node1&#45;&gt;Node28</title>
<g id="a_edge54_Node000001_Node000028"><a xlink:title=" ">
<path fill="none" stroke="#63b8ff" d="M177.8,-565.47C352.77,-555.33 811,-522.7 811,-459 811,-459 811,-459 811,-345 811,-301.12 766.74,-267.85 735.69,-249.91"/>
<polygon fill="#63b8ff" stroke="#63b8ff" points="737.52,-246.92 727.07,-245.15 734.14,-253.05 737.52,-246.92"/>
</a>
</g>
</g>
<!-- Node3 -->
<g id="Node000003" class="node">
<title>Node3</title>
<g id="a_Node000003"><a xlink:title=" ">
<polygon fill="#e0e0e0" stroke="#999999" points="691.88,-76 648.12,-76 648.12,-56 691.88,-56 691.88,-76"/>
<text text-anchor="middle" x="670" y="-62.5" font-family="Helvetica,sans-Serif" font-size="10.00">SDL.h</text>
</a>
</g>
</g>
<!-- Node2&#45;&gt;Node3 -->
<g id="edge2_Node000002_Node000003" class="edge">
<title>Node2&#45;&gt;Node3</title>
<g id="a_edge2_Node000002_Node000003"><a xlink:title=" ">
<path fill="none" stroke="#63b8ff" d="M375.48,-114.2C378.33,-113.38 381.22,-112.62 384,-112 492.19,-87.74 525.05,-99.24 636.69,-76.21"/>
<polygon fill="#63b8ff" stroke="#63b8ff" points="637.21,-79.68 646.26,-74.19 635.76,-72.83 637.21,-79.68"/>
</a>
</g>
</g>
<!-- Node4 -->
<g id="Node000004" class="node">
<title>Node4</title>
<g id="a_Node000004"><a xlink:title=" ">
<polygon fill="#e0e0e0" stroke="#999999" points="368.75,-76 291.25,-76 291.25,-56 368.75,-56 368.75,-76"/>
<text text-anchor="middle" x="330" y="-62.5" font-family="Helvetica,sans-Serif" font-size="10.00">SDL_opengl.h</text>
</a>
</g>
</g>
<!-- Node2&#45;&gt;Node4 -->
<g id="edge3_Node000002_Node000004" class="edge">
<title>Node2&#45;&gt;Node4</title>
<g id="a_edge3_Node000002_Node000004"><a xlink:title=" ">
<path fill="none" stroke="#63b8ff" d="M350.65,-111.59C347.45,-104.7 343.01,-95.1 339.06,-86.57"/>
<polygon fill="#63b8ff" stroke="#63b8ff" points="342.32,-85.28 334.94,-77.67 335.97,-88.22 342.32,-85.28"/>
</a>
</g>
</g>
<!-- Node5 -->
<g id="Node000005" class="node">
<title>Node5</title>
<g id="a_Node000005"><a xlink:title=" ">
<polygon fill="#e0e0e0" stroke="#999999" points="445,-76 387,-76 387,-56 445,-56 445,-76"/>
<text text-anchor="middle" x="416" y="-62.5" font-family="Helvetica,sans-Serif" font-size="10.00">SDL_ttf.h</text>
</a>
</g>
</g>
<!-- Node2&#45;&gt;Node5 -->
<g id="edge4_Node000002_Node000005" class="edge">
<title>Node2&#45;&gt;Node5</title>
<g id="a_edge4_Node000002_Node000005"><a xlink:title=" ">
<path fill="none" stroke="#63b8ff" d="M365.63,-111.59C374.28,-103.93 386.73,-92.91 397.08,-83.75"/>
<polygon fill="#63b8ff" stroke="#63b8ff" points="399.2,-86.55 404.36,-77.3 394.56,-81.31 399.2,-86.55"/>
</a>
</g>
</g>
<!-- Node6 -->
<g id="Node000006" class="node">
<title>Node6</title>
<g id="a_Node000006"><a xlink:title=" ">
<polygon fill="#e0e0e0" stroke="#999999" points="536.5,-76 463.5,-76 463.5,-56 536.5,-56 536.5,-76"/>
<text text-anchor="middle" x="500" y="-62.5" font-family="Helvetica,sans-Serif" font-size="10.00">SDL_mixer.h</text>
</a>
</g>
</g>
<!-- Node2&#45;&gt;Node6 -->
<g id="edge5_Node000002_Node000006" class="edge">
<title>Node2&#45;&gt;Node6</title>
<g id="a_edge5_Node000002_Node000006"><a xlink:title=" ">
<path fill="none" stroke="#63b8ff" d="M375.47,-113.38C398.42,-104.83 436.07,-90.81 463.97,-80.42"/>
<polygon fill="#63b8ff" stroke="#63b8ff" points="464.94,-83.79 473.09,-77.02 462.5,-77.23 464.94,-83.79"/>
</a>
</g>
</g>
<!-- Node7 -->
<g id="Node000007" class="node">
<title>Node7</title>
<g id="a_Node000007"><a xlink:title=" ">
<polygon fill="#e0e0e0" stroke="#999999" points="629.62,-76 554.38,-76 554.38,-56 629.62,-56 629.62,-76"/>
<text text-anchor="middle" x="592" y="-62.5" font-family="Helvetica,sans-Serif" font-size="10.00">SDL_image.h</text>
</a>
</g>
</g>
<!-- Node2&#45;&gt;Node7 -->
<g id="edge6_Node000002_Node000007" class="edge">
<title>Node2&#45;&gt;Node7</title>
<g id="a_edge6_Node000002_Node000007"><a xlink:title=" ">
<path fill="none" stroke="#63b8ff" d="M375.22,-114.48C378.15,-113.6 381.14,-112.75 384,-112 413.48,-104.25 491.38,-87.79 543.03,-77.08"/>
<polygon fill="#63b8ff" stroke="#63b8ff" points="543.7,-80.51 552.78,-75.05 542.28,-73.66 543.7,-80.51"/>
</a>
</g>
</g>
<!-- Node8 -->
<g id="Node000008" class="node">
<title>Node8</title>
<g id="a_Node000008"><a xlink:href="structs_8h.html" target="_top" xlink:title=" ">
<polygon fill="white" stroke="#666666" points="273.12,-76 218.88,-76 218.88,-56 273.12,-56 273.12,-76"/>
<text text-anchor="middle" x="246" y="-62.5" font-family="Helvetica,sans-Serif" font-size="10.00">structs.h</text>
</a>
</g>
</g>
<!-- Node2&#45;&gt;Node8 -->
<g id="edge7_Node000002_Node000008" class="edge">
<title>Node2&#45;&gt;Node8</title>
<g id="a_edge7_Node000002_Node000008"><a xlink:title=" ">
<path fill="none" stroke="#63b8ff" d="M336.01,-111.59C319.24,-103.28 294.51,-91.03 275.21,-81.47"/>
<polygon fill="#63b8ff" stroke="#63b8ff" points="277.01,-78.45 266.49,-77.15 273.9,-84.73 277.01,-78.45"/>
</a>
</g>
</g>
<!-- Node9 -->
<g id="Node000009" class="node">
<title>Node9</title>
<g id="a_Node000009"><a xlink:title=" ">
<polygon fill="#e0e0e0" stroke="#999999" points="740,-20 700,-20 700,0 740,0 740,-20"/>
<text text-anchor="middle" x="720" y="-6.5" font-family="Helvetica,sans-Serif" font-size="10.00">string</text>
</a>
</g>
</g>
<!-- Node8&#45;&gt;Node9 -->
<g id="edge8_Node000008_Node000009" class="edge">
<title>Node8&#45;&gt;Node9</title>
<g id="a_edge8_Node000008_Node000009"><a xlink:title=" ">
<path fill="none" stroke="#63b8ff" d="M273.43,-57.71C276.31,-57.08 279.21,-56.49 282,-56 432.89,-29.53 615.96,-16.92 688.35,-12.7"/>
<polygon fill="#63b8ff" stroke="#63b8ff" points="688.48,-16.2 698.27,-12.14 688.08,-9.21 688.48,-16.2"/>
</a>
</g>
</g>
<!-- Node10 -->
<g id="Node000010" class="node">
<title>Node10</title>
<g id="a_Node000010"><a xlink:href="_vector2f_8h.html" target="_top" xlink:title=" ">
<polygon fill="white" stroke="#666666" points="249.12,-20 188.88,-20 188.88,0 249.12,0 249.12,-20"/>
<text text-anchor="middle" x="219" y="-6.5" font-family="Helvetica,sans-Serif" font-size="10.00">Vector2f.h</text>
</a>
</g>
</g>
<!-- Node8&#45;&gt;Node10 -->
<g id="edge9_Node000008_Node000010" class="edge">
<title>Node8&#45;&gt;Node10</title>
<g id="a_edge9_Node000008_Node000010"><a xlink:title=" ">
<path fill="none" stroke="#63b8ff" d="M236.03,-55.59C231.26,-48.78 226.1,-39.32 222.4,-30.86"/>
<polygon fill="#63b8ff" stroke="#63b8ff" points="225.75,-29.83 218.94,-21.71 219.2,-32.31 225.75,-29.83"/>
</a>
</g>
</g>
<!-- Node10&#45;&gt;Node8 -->
<g id="edge10_Node000010_Node000008" class="edge">
<title>Node10&#45;&gt;Node8</title>
<g id="a_edge10_Node000010_Node000008"><a xlink:title=" ">
<path fill="none" stroke="#63b8ff" d="M228.89,-20.3C233.66,-27.08 238.82,-36.54 242.55,-45"/>
<polygon fill="#63b8ff" stroke="#63b8ff" points="239.21,-46.07 246.03,-54.18 245.75,-43.59 239.21,-46.07"/>
</a>
</g>
</g>
<!-- Node12 -->
<g id="Node000012" class="node">
<title>Node12</title>
<g id="a_Node000012"><a xlink:href="_interactable_item_8h.html" target="_top" xlink:title=" ">
<polygon fill="white" stroke="#666666" points="448.38,-468 353.62,-468 353.62,-448 448.38,-448 448.38,-468"/>
<text text-anchor="middle" x="401" y="-454.5" font-family="Helvetica,sans-Serif" font-size="10.00">InteractableItem.h</text>
</a>
</g>
</g>
<!-- Node11&#45;&gt;Node12 -->
<g id="edge12_Node000011_Node000012" class="edge">
<title>Node11&#45;&gt;Node12</title>
<g id="a_edge12_Node000011_Node000012"><a xlink:title=" ">
<path fill="none" stroke="#63b8ff" d="M401,-503.59C401,-497.01 401,-487.96 401,-479.73"/>
<polygon fill="#63b8ff" stroke="#63b8ff" points="404.5,-479.81 401,-469.81 397.5,-479.81 404.5,-479.81"/>
</a>
</g>
</g>
<!-- Node30 -->
<g id="Node000030" class="node">
<title>Node30</title>
<g id="a_Node000030"><a xlink:href="_counted_item_8h.html" target="_top" xlink:title=" ">
<polygon fill="white" stroke="#666666" points="547.25,-468 466.75,-468 466.75,-448 547.25,-448 547.25,-468"/>
<text text-anchor="middle" x="507" y="-454.5" font-family="Helvetica,sans-Serif" font-size="10.00">CountedItem.h</text>
</a>
</g>
</g>
<!-- Node11&#45;&gt;Node30 -->
<g id="edge50_Node000011_Node000030" class="edge">
<title>Node11&#45;&gt;Node30</title>
<g id="a_edge50_Node000011_Node000030"><a xlink:title=" ">
<path fill="none" stroke="#63b8ff" d="M419.46,-503.59C435.7,-495.32 459.61,-483.14 478.33,-473.6"/>
<polygon fill="#63b8ff" stroke="#63b8ff" points="479.72,-476.82 487.04,-469.17 476.54,-470.59 479.72,-476.82"/>
</a>
</g>
</g>
<!-- Node13 -->
<g id="Node000013" class="node">
<title>Node13</title>
<g id="a_Node000013"><a xlink:href="_character_8h.html" target="_top" xlink:title=" ">
<polygon fill="white" stroke="#666666" points="448.5,-412 381.5,-412 381.5,-392 448.5,-392 448.5,-412"/>
<text text-anchor="middle" x="415" y="-398.5" font-family="Helvetica,sans-Serif" font-size="10.00">Character.h</text>
</a>
</g>
</g>
<!-- Node12&#45;&gt;Node13 -->
<g id="edge13_Node000012_Node000013" class="edge">
<title>Node12&#45;&gt;Node13</title>
<g id="a_edge13_Node000012_Node000013"><a xlink:title=" ">
<path fill="none" stroke="#63b8ff" d="M403.44,-447.59C405.17,-440.93 407.55,-431.75 409.7,-423.44"/>
<polygon fill="#63b8ff" stroke="#63b8ff" points="413.09,-424.32 412.21,-413.76 406.31,-422.56 413.09,-424.32"/>
</a>
</g>
</g>
<!-- Node14 -->
<g id="Node000014" class="node">
<title>Node14</title>
<g id="a_Node000014"><a xlink:href="_character_controller_8h.html" target="_top" xlink:title=" ">
<polygon fill="white" stroke="#666666" points="398.5,-356 289.5,-356 289.5,-336 398.5,-336 398.5,-356"/>
<text text-anchor="middle" x="344" y="-342.5" font-family="Helvetica,sans-Serif" font-size="10.00">CharacterController.h</text>
</a>
</g>
</g>
<!-- Node13&#45;&gt;Node14 -->
<g id="edge14_Node000013_Node000014" class="edge">
<title>Node13&#45;&gt;Node14</title>
<g id="a_edge14_Node000013_Node000014"><a xlink:title=" ">
<path fill="none" stroke="#63b8ff" d="M402.63,-391.59C392.35,-383.77 377.48,-372.46 365.29,-363.19"/>
<polygon fill="#63b8ff" stroke="#63b8ff" points="367.51,-360.48 357.43,-357.21 363.27,-366.05 367.51,-360.48"/>
</a>
</g>
</g>
<!-- Node21 -->
<g id="Node000021" class="node">
<title>Node21</title>
<g id="a_Node000021"><a xlink:href="_hair_8h.html" target="_top" xlink:title=" ">
<polygon fill="white" stroke="#666666" points="270.12,-244 227.88,-244 227.88,-224 270.12,-224 270.12,-244"/>
<text text-anchor="middle" x="249" y="-230.5" font-family="Helvetica,sans-Serif" font-size="10.00">Hair.h</text>
</a>
</g>
</g>
<!-- Node13&#45;&gt;Node21 -->
<g id="edge30_Node000013_Node000021" class="edge">
<title>Node13&#45;&gt;Node21</title>
<g id="a_edge30_Node000013_Node000021"><a xlink:title=" ">
<path fill="none" stroke="#63b8ff" d="M381.02,-398.64C350.37,-394.67 306.18,-384.11 280,-356 254.22,-328.32 249.18,-282.17 248.58,-255.58"/>
<polygon fill="#63b8ff" stroke="#63b8ff" points="252.08,-255.78 248.58,-245.78 245.08,-255.78 252.08,-255.78"/>
</a>
</g>
</g>
<!-- Node23 -->
<g id="Node000023" class="node">
<title>Node23</title>
<g id="a_Node000023"><a xlink:href="_character_texture_manager_8h.html" target="_top" xlink:title=" ">
<polygon fill="white" stroke="#666666" points="554.38,-356 417.62,-356 417.62,-336 554.38,-336 554.38,-356"/>
<text text-anchor="middle" x="486" y="-342.5" font-family="Helvetica,sans-Serif" font-size="10.00">CharacterTextureManager.h</text>
</a>
</g>
</g>
<!-- Node13&#45;&gt;Node23 -->
<g id="edge35_Node000013_Node000023" class="edge">
<title>Node13&#45;&gt;Node23</title>
<g id="a_edge35_Node000013_Node000023"><a xlink:title=" ">
<path fill="none" stroke="#63b8ff" d="M427.37,-391.59C437.65,-383.77 452.52,-372.46 464.71,-363.19"/>
<polygon fill="#63b8ff" stroke="#63b8ff" points="466.73,-366.05 472.57,-357.21 462.49,-360.48 466.73,-366.05"/>
</a>
</g>
</g>
<!-- Node26 -->
<g id="Node000026" class="node">
<title>Node26</title>
<g id="a_Node000026"><a xlink:href="_character_state_8h.html" target="_top" xlink:title=" ">
<polygon fill="white" stroke="#666666" points="693.12,-300 602.88,-300 602.88,-280 693.12,-280 693.12,-300"/>
<text text-anchor="middle" x="648" y="-286.5" font-family="Helvetica,sans-Serif" font-size="10.00">CharacterState.h</text>
</a>
</g>
</g>
<!-- Node13&#45;&gt;Node26 -->
<g id="edge42_Node000013_Node000026" class="edge">
<title>Node13&#45;&gt;Node26</title>
<g id="a_edge42_Node000013_Node000026"><a xlink:title=" ">
<path fill="none" stroke="#63b8ff" d="M448.94,-394.32C479.82,-387.41 526.08,-374.94 563,-356 588.38,-342.98 613.9,-322.19 630.25,-307.64"/>
<polygon fill="#63b8ff" stroke="#63b8ff" points="632.18,-310.62 637.22,-301.3 627.47,-305.44 632.18,-310.62"/>
</a>
</g>
</g>
<!-- Node27 -->
<g id="Node000027" class="node">
<title>Node27</title>
<g id="a_Node000027"><a xlink:href="_character_sound_manager_8h.html" target="_top" xlink:title=" ">
<polygon fill="white" stroke="#666666" points="773.12,-356 640.88,-356 640.88,-336 773.12,-336 773.12,-356"/>
<text text-anchor="middle" x="707" y="-342.5" font-family="Helvetica,sans-Serif" font-size="10.00">CharacterSoundManager.h</text>
</a>
</g>
</g>
<!-- Node13&#45;&gt;Node27 -->
<g id="edge43_Node000013_Node000027" class="edge">
<title>Node13&#45;&gt;Node27</title>
<g id="a_edge43_Node000013_Node000027"><a xlink:title=" ">
<path fill="none" stroke="#63b8ff" d="M448.78,-394.75C496.52,-385.92 584.57,-369.64 644.44,-358.57"/>
<polygon fill="#63b8ff" stroke="#63b8ff" points="644.96,-362.03 654.16,-356.77 643.69,-355.15 644.96,-362.03"/>
</a>
</g>
</g>
<!-- Node15 -->
<g id="Node000015" class="node">
<title>Node15</title>
<g id="a_Node000015"><a xlink:href="_game_object_8h.html" target="_top" xlink:title=" ">
<polygon fill="white" stroke="#666666" points="218.5,-300 139.5,-300 139.5,-280 218.5,-280 218.5,-300"/>
<text text-anchor="middle" x="179" y="-286.5" font-family="Helvetica,sans-Serif" font-size="10.00">GameObject.h</text>
</a>
</g>
</g>
<!-- Node14&#45;&gt;Node15 -->
<g id="edge15_Node000014_Node000015" class="edge">
<title>Node14&#45;&gt;Node15</title>
<g id="a_edge15_Node000014_Node000015"><a xlink:title=" ">
<path fill="none" stroke="#63b8ff" d="M315.26,-335.59C288.57,-326.86 248.58,-313.77 218.82,-304.03"/>
<polygon fill="#63b8ff" stroke="#63b8ff" points="220,-300.73 209.4,-300.95 217.82,-307.39 220,-300.73"/>
</a>
</g>
</g>
<!-- Node18 -->
<g id="Node000018" class="node">
<title>Node18</title>
<g id="a_Node000018"><a xlink:href="_vector2x2f_8h.html" target="_top" xlink:title=" ">
<polygon fill="white" stroke="#666666" points="345.38,-300 274.62,-300 274.62,-280 345.38,-280 345.38,-300"/>
<text text-anchor="middle" x="310" y="-286.5" font-family="Helvetica,sans-Serif" font-size="10.00">Vector2x2f.h</text>
</a>
</g>
</g>
<!-- Node14&#45;&gt;Node18 -->
<g id="edge25_Node000014_Node000018" class="edge">
<title>Node14&#45;&gt;Node18</title>
<g id="a_edge25_Node000014_Node000018"><a xlink:title=" ">
<path fill="none" stroke="#63b8ff" d="M338.08,-335.59C333.64,-328.55 327.42,-318.67 321.96,-310"/>
<polygon fill="#63b8ff" stroke="#63b8ff" points="324.95,-308.18 316.66,-301.58 319.03,-311.91 324.95,-308.18"/>
</a>
</g>
</g>
<!-- Node20 -->
<g id="Node000020" class="node">
<title>Node20</title>
<g id="a_Node000020"><a xlink:title=" ">
<polygon fill="#e0e0e0" stroke="#999999" points="429.5,-188 386.5,-188 386.5,-168 429.5,-168 429.5,-188"/>
<text text-anchor="middle" x="408" y="-174.5" font-family="Helvetica,sans-Serif" font-size="10.00">vector</text>
</a>
</g>
</g>
<!-- Node14&#45;&gt;Node20 -->
<g id="edge29_Node000014_Node000020" class="edge">
<title>Node14&#45;&gt;Node20</title>
<g id="a_edge29_Node000014_Node000020"><a xlink:title=" ">
<path fill="none" stroke="#63b8ff" d="M347.62,-335.6C357.74,-309.35 386.47,-234.84 400.33,-198.89"/>
<polygon fill="#63b8ff" stroke="#63b8ff" points="403.54,-200.3 403.87,-189.71 397.01,-197.78 403.54,-200.3"/>
</a>
</g>
</g>
<!-- Node16 -->
<g id="Node000016" class="node">
<title>Node16</title>
<g id="a_Node000016"><a xlink:href="_transform_8h.html" target="_top" xlink:title=" ">
<polygon fill="white" stroke="#666666" points="234.25,-188 165.75,-188 165.75,-168 234.25,-168 234.25,-188"/>
<text text-anchor="middle" x="200" y="-174.5" font-family="Helvetica,sans-Serif" font-size="10.00">Transform.h</text>
</a>
</g>
</g>
<!-- Node15&#45;&gt;Node16 -->
<g id="edge16_Node000015_Node000016" class="edge">
<title>Node15&#45;&gt;Node16</title>
<g id="a_edge16_Node000015_Node000016"><a xlink:title=" ">
<path fill="none" stroke="#63b8ff" d="M180.79,-279.62C184.15,-262.01 191.49,-223.59 196.06,-199.65"/>
<polygon fill="#63b8ff" stroke="#63b8ff" points="199.49,-200.32 197.93,-189.84 192.62,-199.01 199.49,-200.32"/>
</a>
</g>
</g>
<!-- Node16&#45;&gt;Node10 -->
<g id="edge24_Node000016_Node000010" class="edge">
<title>Node16&#45;&gt;Node10</title>
<g id="a_edge24_Node000016_Node000010"><a xlink:title=" ">
<path fill="none" stroke="#63b8ff" d="M194.77,-167.56C183.95,-146.74 161.4,-95.59 177,-56 181.26,-45.19 189.47,-35.45 197.51,-27.82"/>
<polygon fill="#63b8ff" stroke="#63b8ff" points="199.62,-30.63 204.84,-21.41 195.01,-25.36 199.62,-30.63"/>
</a>
</g>
</g>
<!-- Node17 -->
<g id="Node000017" class="node">
<title>Node17</title>
<g id="a_Node000017"><a xlink:href="base_8h.html" target="_top" xlink:title=" ">
<polygon fill="white" stroke="#666666" points="438.62,-132 393.38,-132 393.38,-112 438.62,-112 438.62,-132"/>
<text text-anchor="middle" x="416" y="-118.5" font-family="Helvetica,sans-Serif" font-size="10.00">base.h</text>
</a>
</g>
</g>
<!-- Node16&#45;&gt;Node17 -->
<g id="edge17_Node000016_Node000017" class="edge">
<title>Node16&#45;&gt;Node17</title>
<g id="a_edge17_Node000016_Node000017"><a xlink:title=" ">
<path fill="none" stroke="#63b8ff" d="M234.68,-168.89C269.49,-160.67 324.93,-147.36 381.92,-132.48"/>
<polygon fill="#63b8ff" stroke="#63b8ff" points="382.71,-135.89 391.49,-129.97 380.93,-129.12 382.71,-135.89"/>
</a>
</g>
</g>
<!-- Node17&#45;&gt;Node3 -->
<g id="edge18_Node000017_Node000003" class="edge">
<title>Node17&#45;&gt;Node3</title>
<g id="a_edge18_Node000017_Node000003"><a xlink:title=" ">
<path fill="none" stroke="#63b8ff" d="M438.93,-117.03C477.68,-110.17 558.78,-95.23 636.74,-76.4"/>
<polygon fill="#63b8ff" stroke="#63b8ff" points="637.36,-79.85 646.24,-74.07 635.69,-73.05 637.36,-79.85"/>
</a>
</g>
</g>
<!-- Node17&#45;&gt;Node4 -->
<g id="edge19_Node000017_Node000004" class="edge">
<title>Node17&#45;&gt;Node4</title>
<g id="a_edge19_Node000017_Node000004"><a xlink:title=" ">
<path fill="none" stroke="#63b8ff" d="M401.02,-111.59C388.27,-103.59 369.71,-91.93 354.76,-82.54"/>
<polygon fill="#63b8ff" stroke="#63b8ff" points="356.71,-79.64 346.38,-77.28 352.99,-85.57 356.71,-79.64"/>
</a>
</g>
</g>
<!-- Node17&#45;&gt;Node5 -->
<g id="edge20_Node000017_Node000005" class="edge">
<title>Node17&#45;&gt;Node5</title>
<g id="a_edge20_Node000017_Node000005"><a xlink:title=" ">
<path fill="none" stroke="#63b8ff" d="M416,-111.59C416,-105.01 416,-95.96 416,-87.73"/>
<polygon fill="#63b8ff" stroke="#63b8ff" points="419.5,-87.81 416,-77.81 412.5,-87.81 419.5,-87.81"/>
</a>
</g>
</g>
<!-- Node17&#45;&gt;Node6 -->
<g id="edge21_Node000017_Node000006" class="edge">
<title>Node17&#45;&gt;Node6</title>
<g id="a_edge21_Node000017_Node000006"><a xlink:title=" ">
<path fill="none" stroke="#63b8ff" d="M430.63,-111.59C443.08,-103.59 461.22,-91.93 475.82,-82.54"/>
<polygon fill="#63b8ff" stroke="#63b8ff" points="477.46,-85.65 483.98,-77.3 473.68,-79.76 477.46,-85.65"/>
</a>
</g>
</g>
<!-- Node17&#45;&gt;Node7 -->
<g id="edge22_Node000017_Node000007" class="edge">
<title>Node17&#45;&gt;Node7</title>
<g id="a_edge22_Node000017_Node000007"><a xlink:title=" ">
<path fill="none" stroke="#63b8ff" d="M439.01,-113.94C467.26,-105.27 515.7,-90.41 550.51,-79.73"/>
<polygon fill="#63b8ff" stroke="#63b8ff" points="551.31,-83.14 559.85,-76.87 549.26,-76.45 551.31,-83.14"/>
</a>
</g>
</g>
<!-- Node17&#45;&gt;Node8 -->
<g id="edge23_Node000017_Node000008" class="edge">
<title>Node17&#45;&gt;Node8</title>
<g id="a_edge23_Node000017_Node000008"><a xlink:title=" ">
<path fill="none" stroke="#63b8ff" d="M393.07,-113.72C365.23,-104.87 317.83,-89.82 284.38,-79.19"/>
<polygon fill="#63b8ff" stroke="#63b8ff" points="285.66,-75.92 275.07,-76.23 283.54,-82.6 285.66,-75.92"/>
</a>
</g>
</g>
<!-- Node19 -->
<g id="Node000019" class="node">
<title>Node19</title>
<g id="a_Node000019"><a xlink:href="utils_8h.html" target="_top" xlink:title=" ">
<polygon fill="white" stroke="#666666" points="331.12,-244 288.88,-244 288.88,-224 331.12,-224 331.12,-244"/>
<text text-anchor="middle" x="310" y="-230.5" font-family="Helvetica,sans-Serif" font-size="10.00">utils.h</text>
</a>
</g>
</g>
<!-- Node18&#45;&gt;Node19 -->
<g id="edge26_Node000018_Node000019" class="edge">
<title>Node18&#45;&gt;Node19</title>
<g id="a_edge26_Node000018_Node000019"><a xlink:title=" ">
<path fill="none" stroke="#63b8ff" d="M310,-279.59C310,-273.01 310,-263.96 310,-255.73"/>
<polygon fill="#63b8ff" stroke="#63b8ff" points="313.5,-255.81 310,-245.81 306.5,-255.81 313.5,-255.81"/>
</a>
</g>
</g>
<!-- Node19&#45;&gt;Node10 -->
<g id="edge28_Node000019_Node000010" class="edge">
<title>Node19&#45;&gt;Node10</title>
<g id="a_edge28_Node000019_Node000010"><a xlink:title=" ">
<path fill="none" stroke="#63b8ff" d="M301.28,-223.7C280.48,-200.8 228.35,-138.98 210,-76 205.75,-61.41 208.37,-44.38 211.86,-31.41"/>
<polygon fill="#63b8ff" stroke="#63b8ff" points="215.19,-32.47 214.82,-21.88 208.51,-30.39 215.19,-32.47"/>
</a>
</g>
</g>
<!-- Node19&#45;&gt;Node20 -->
<g id="edge27_Node000019_Node000020" class="edge">
<title>Node19&#45;&gt;Node20</title>
<g id="a_edge27_Node000019_Node000020"><a xlink:title=" ">
<path fill="none" stroke="#63b8ff" d="M327.07,-223.59C341.88,-215.44 363.57,-203.48 380.77,-194"/>
<polygon fill="#63b8ff" stroke="#63b8ff" points="382.4,-197.1 389.47,-189.21 379.02,-190.97 382.4,-197.1"/>
</a>
</g>
</g>
<!-- Node21&#45;&gt;Node16 -->
<g id="edge31_Node000021_Node000016" class="edge">
<title>Node21&#45;&gt;Node16</title>
<g id="a_edge31_Node000021_Node000016"><a xlink:title=" ">
<path fill="none" stroke="#63b8ff" d="M240.46,-223.59C233.72,-216.16 224.11,-205.58 215.96,-196.58"/>
<polygon fill="#63b8ff" stroke="#63b8ff" points="218.77,-194.47 209.45,-189.42 213.58,-199.18 218.77,-194.47"/>
</a>
</g>
</g>
<!-- Node21&#45;&gt;Node20 -->
<g id="edge32_Node000021_Node000020" class="edge">
<title>Node21&#45;&gt;Node20</title>
<g id="a_edge32_Node000021_Node000020"><a xlink:title=" ">
<path fill="none" stroke="#63b8ff" d="M270.44,-225.72C297.4,-216.56 343.92,-200.76 375.32,-190.1"/>
<polygon fill="#63b8ff" stroke="#63b8ff" points="376.36,-193.44 384.7,-186.91 374.11,-186.82 376.36,-193.44"/>
</a>
</g>
</g>
<!-- Node21&#45;&gt;Node22 -->
<g id="edge33_Node000021_Node000022" class="edge">
<title>Node21&#45;&gt;Node22</title>
<g id="a_edge33_Node000021_Node000022"><a xlink:title=" ">
<path fill="none" stroke="#63b8ff" d="M227.53,-224.08C207.11,-215.6 176.08,-202.71 152.43,-192.88"/>
<polygon fill="#63b8ff" stroke="#63b8ff" points="153.79,-189.66 143.21,-189.06 151.1,-196.12 153.79,-189.66"/>
</a>
</g>
</g>
<!-- Node22&#45;&gt;Node17 -->
<g id="edge34_Node000022_Node000017" class="edge">
<title>Node22&#45;&gt;Node17</title>
<g id="a_edge34_Node000022_Node000017"><a xlink:title=" ">
<path fill="none" stroke="#63b8ff" d="M147.58,-169.99C150.75,-169.28 153.94,-168.6 157,-168 253.69,-148.91 282.23,-153.5 381.83,-132.24"/>
<polygon fill="#63b8ff" stroke="#63b8ff" points="382.5,-135.68 391.53,-130.13 381.01,-128.84 382.5,-135.68"/>
</a>
</g>
</g>
<!-- Node23&#45;&gt;Node20 -->
<g id="edge41_Node000023_Node000020" class="edge">
<title>Node23&#45;&gt;Node20</title>
<g id="a_edge41_Node000023_Node000020"><a xlink:title=" ">
<path fill="none" stroke="#63b8ff" d="M510.31,-335.51C534.93,-324.33 567.72,-304.18 555,-280 530.89,-234.18 475.57,-205.13 440.09,-190.49"/>
<polygon fill="#63b8ff" stroke="#63b8ff" points="441.76,-187.39 431.18,-186.96 439.19,-193.9 441.76,-187.39"/>
</a>
</g>
</g>
<!-- Node24 -->
<g id="Node000024" class="node">
<title>Node24</title>
<g id="a_Node000024"><a xlink:href="_animation_manager_a_n_d_hair_8h.html" target="_top" xlink:title=" ">
<polygon fill="white" stroke="#666666" points="546.5,-300 401.5,-300 401.5,-280 546.5,-280 546.5,-300"/>
<text text-anchor="middle" x="474" y="-286.5" font-family="Helvetica,sans-Serif" font-size="10.00">AnimationManagerANDHair.h</text>
</a>
</g>
</g>
<!-- Node23&#45;&gt;Node24 -->
<g id="edge36_Node000023_Node000024" class="edge">
<title>Node23&#45;&gt;Node24</title>
<g id="a_edge36_Node000023_Node000024"><a xlink:title=" ">
<path fill="none" stroke="#63b8ff" d="M483.91,-335.59C482.43,-328.93 480.39,-319.75 478.54,-311.44"/>
<polygon fill="#63b8ff" stroke="#63b8ff" points="481.98,-310.78 476.39,-301.78 475.15,-312.3 481.98,-310.78"/>
</a>
</g>
</g>
<!-- Node23&#45;&gt;Node26 -->
<g id="edge40_Node000023_Node000026" class="edge">
<title>Node23&#45;&gt;Node26</title>
<g id="a_edge40_Node000023_Node000026"><a xlink:title=" ">
<path fill="none" stroke="#63b8ff" d="M514.22,-335.59C540.42,-326.86 579.68,-313.77 608.9,-304.03"/>
<polygon fill="#63b8ff" stroke="#63b8ff" points="609.75,-307.44 618.13,-300.96 607.53,-300.8 609.75,-307.44"/>
</a>
</g>
</g>
<!-- Node24&#45;&gt;Node20 -->
<g id="edge39_Node000024_Node000020" class="edge">
<title>Node24&#45;&gt;Node20</title>
<g id="a_edge39_Node000024_Node000020"><a xlink:title=" ">
<path fill="none" stroke="#63b8ff" d="M468.37,-279.62C457.56,-261.6 433.69,-221.81 419.41,-198.02"/>
<polygon fill="#63b8ff" stroke="#63b8ff" points="422.54,-196.43 414.39,-189.65 416.54,-200.03 422.54,-196.43"/>
</a>
</g>
</g>
<!-- Node24&#45;&gt;Node25 -->
<g id="edge37_Node000024_Node000025" class="edge">
<title>Node24&#45;&gt;Node25</title>
<g id="a_edge37_Node000024_Node000025"><a xlink:title=" ">
<path fill="none" stroke="#63b8ff" d="M411.76,-279.53C347.6,-269.77 248.05,-254.63 183.19,-244.76"/>
<polygon fill="#63b8ff" stroke="#63b8ff" points="183.81,-241.32 173.4,-243.27 182.76,-248.24 183.81,-241.32"/>
</a>
</g>
</g>
<!-- Node25&#45;&gt;Node22 -->
<g id="edge38_Node000025_Node000022" class="edge">
<title>Node25&#45;&gt;Node22</title>
<g id="a_edge38_Node000025_Node000022"><a xlink:title=" ">
<path fill="none" stroke="#63b8ff" d="M119,-223.59C119,-217.01 119,-207.96 119,-199.73"/>
<polygon fill="#63b8ff" stroke="#63b8ff" points="122.5,-199.81 119,-189.81 115.5,-199.81 122.5,-199.81"/>
</a>
</g>
</g>
<!-- Node27&#45;&gt;Node26 -->
<g id="edge44_Node000027_Node000026" class="edge">
<title>Node27&#45;&gt;Node26</title>
<g id="a_edge44_Node000027_Node000026"><a xlink:title=" ">
<path fill="none" stroke="#63b8ff" d="M696.72,-335.59C688.43,-328.01 676.55,-317.13 666.6,-308.02"/>
<polygon fill="#63b8ff" stroke="#63b8ff" points="669.02,-305.49 659.28,-301.32 664.29,-310.65 669.02,-305.49"/>
</a>
</g>
</g>
<!-- Node27&#45;&gt;Node28 -->
<g id="edge45_Node000027_Node000028" class="edge">
<title>Node27&#45;&gt;Node28</title>
<g id="a_edge45_Node000027_Node000028"><a xlink:title=" ">
<path fill="none" stroke="#63b8ff" d="M706.91,-335.62C706.75,-318.01 706.41,-279.59 706.19,-255.65"/>
<polygon fill="#63b8ff" stroke="#63b8ff" points="709.69,-255.84 706.1,-245.87 702.69,-255.9 709.69,-255.84"/>
</a>
</g>
</g>
<!-- Node29 -->
<g id="Node000029" class="node">
<title>Node29</title>
<g id="a_Node000029"><a xlink:href="_sound_stream_8h.html" target="_top" xlink:title=" ">
<polygon fill="white" stroke="#666666" points="831.75,-132 748.25,-132 748.25,-112 831.75,-112 831.75,-132"/>
<text text-anchor="middle" x="790" y="-118.5" font-family="Helvetica,sans-Serif" font-size="10.00">SoundStream.h</text>
</a>
</g>
</g>
<!-- Node27&#45;&gt;Node29 -->
<g id="edge48_Node000027_Node000029" class="edge">
<title>Node27&#45;&gt;Node29</title>
<g id="a_edge48_Node000027_Node000029"><a xlink:title=" ">
<path fill="none" stroke="#63b8ff" d="M711.88,-335.73C720.98,-318.17 740.84,-278.72 754,-244 767.17,-209.27 778.68,-167.5 784.95,-143.23"/>
<polygon fill="#63b8ff" stroke="#63b8ff" points="788.3,-144.28 787.37,-133.73 781.51,-142.56 788.3,-144.28"/>
</a>
</g>
</g>
<!-- Node28&#45;&gt;Node9 -->
<g id="edge46_Node000028_Node000009" class="edge">
<title>Node28&#45;&gt;Node9</title>
<g id="a_edge46_Node000028_Node000009"><a xlink:title=" ">
<path fill="none" stroke="#63b8ff" d="M706.58,-223.74C708.67,-190.74 715.75,-78.31 718.7,-31.61"/>
<polygon fill="#63b8ff" stroke="#63b8ff" points="722.18,-32.01 719.32,-21.81 715.2,-31.57 722.18,-32.01"/>
</a>
</g>
</g>
<!-- Node28&#45;&gt;Node20 -->
<g id="edge47_Node000028_Node000020" class="edge">
<title>Node28&#45;&gt;Node20</title>
<g id="a_edge47_Node000028_Node000020"><a xlink:title=" ">
<path fill="none" stroke="#63b8ff" d="M667.04,-225.94C607.96,-215.23 496.71,-195.07 441.22,-185.02"/>
<polygon fill="#63b8ff" stroke="#63b8ff" points="441.9,-181.59 431.44,-183.25 440.66,-188.47 441.9,-181.59"/>
</a>
</g>
</g>
<!-- Node29&#45;&gt;Node9 -->
<g id="edge49_Node000029_Node000009" class="edge">
<title>Node29&#45;&gt;Node9</title>
<g id="a_edge49_Node000029_Node000009"><a xlink:title=" ">
<path fill="none" stroke="#63b8ff" d="M784.03,-111.62C772.56,-93.6 747.24,-53.81 732.11,-30.02"/>
<polygon fill="#63b8ff" stroke="#63b8ff" points="735.09,-28.19 726.77,-21.63 729.18,-31.95 735.09,-28.19"/>
</a>
</g>
</g>
<!-- Node31 -->
<g id="Node000031" class="node">
<title>Node31</title>
<g id="a_Node000031"><a xlink:title=" ">
<polygon fill="#e0e0e0" stroke="#999999" points="533.75,-412 480.25,-412 480.25,-392 533.75,-392 533.75,-412"/>
<text text-anchor="middle" x="507" y="-398.5" font-family="Helvetica,sans-Serif" font-size="10.00">iostream</text>
</a>
</g>
</g>
<!-- Node30&#45;&gt;Node31 -->
<g id="edge51_Node000030_Node000031" class="edge">
<title>Node30&#45;&gt;Node31</title>
<g id="a_edge51_Node000030_Node000031"><a xlink:title=" ">
<path fill="none" stroke="#63b8ff" d="M507,-447.59C507,-441.01 507,-431.96 507,-423.73"/>
<polygon fill="#63b8ff" stroke="#63b8ff" points="510.5,-423.81 507,-413.81 503.5,-423.81 510.5,-423.81"/>
</a>
</g>
</g>
</g>
</svg>
