<?xml version="1.0" encoding="UTF-8" standalone="no"?>
<!DOCTYPE svg PUBLIC "-//W3C//DTD SVG 1.1//EN"
 "http://www.w3.org/Graphics/SVG/1.1/DTD/svg11.dtd">
<!-- Generated by graphviz version 12.2.1 (20241206.2353)
 -->
<!-- Title: Celeste/FlyingStrawberry.h Pages: 1 -->
<svg width="796pt" height="588pt"
 viewBox="0.00 0.00 795.75 588.00" xmlns="http://www.w3.org/2000/svg" xmlns:xlink="http://www.w3.org/1999/xlink">
<g id="graph0" class="graph" transform="scale(1 1) rotate(0) translate(4 584)">
<title>Celeste/FlyingStrawberry.h</title>
<!-- Node1 -->
<g id="Node000001" class="node">
<title>Node1</title>
<g id="a_Node000001"><a xlink:title=" ">
<polygon fill="#999999" stroke="#666666" points="779.38,-580 645.62,-580 645.62,-560 779.38,-560 779.38,-580"/>
<text text-anchor="middle" x="712.5" y="-566.5" font-family="Helvetica,sans-Serif" font-size="10.00">Celeste/FlyingStrawberry.h</text>
</a>
</g>
</g>
<!-- Node2 -->
<g id="Node000002" class="node">
<title>Node2</title>
<g id="a_Node000002"><a xlink:href="_strawberry_8h.html" target="_top" xlink:title=" ">
<polygon fill="white" stroke="#666666" points="716.88,-524 646.12,-524 646.12,-504 716.88,-504 716.88,-524"/>
<text text-anchor="middle" x="681.5" y="-510.5" font-family="Helvetica,sans-Serif" font-size="10.00">Strawberry.h</text>
</a>
</g>
</g>
<!-- Node1&#45;&gt;Node2 -->
<g id="edge1_Node000001_Node000002" class="edge">
<title>Node1&#45;&gt;Node2</title>
<g id="a_edge1_Node000001_Node000002"><a xlink:title=" ">
<path fill="none" stroke="#63b8ff" d="M707.1,-559.59C703.06,-552.55 697.38,-542.67 692.41,-534"/>
<polygon fill="#63b8ff" stroke="#63b8ff" points="695.61,-532.54 687.59,-525.61 689.53,-536.03 695.61,-532.54"/>
</a>
</g>
</g>
<!-- Node29 -->
<g id="Node000029" class="node">
<title>Node29</title>
<g id="a_Node000029"><a xlink:href="_counted_item_8h.html" target="_top" xlink:title=" ">
<polygon fill="white" stroke="#666666" points="787.75,-468 707.25,-468 707.25,-448 787.75,-448 787.75,-468"/>
<text text-anchor="middle" x="747.5" y="-454.5" font-family="Helvetica,sans-Serif" font-size="10.00">CountedItem.h</text>
</a>
</g>
</g>
<!-- Node1&#45;&gt;Node29 -->
<g id="edge46_Node000001_Node000029" class="edge">
<title>Node1&#45;&gt;Node29</title>
<g id="a_edge46_Node000001_Node000029"><a xlink:title=" ">
<path fill="none" stroke="#63b8ff" d="M715.48,-559.62C721.12,-541.92 733.42,-503.24 741.03,-479.32"/>
<polygon fill="#63b8ff" stroke="#63b8ff" points="744.37,-480.39 744.06,-469.8 737.7,-478.27 744.37,-480.39"/>
</a>
</g>
</g>
<!-- Node3 -->
<g id="Node000003" class="node">
<title>Node3</title>
<g id="a_Node000003"><a xlink:href="_interactable_item_8h.html" target="_top" xlink:title=" ">
<polygon fill="white" stroke="#666666" points="546.88,-468 452.12,-468 452.12,-448 546.88,-448 546.88,-468"/>
<text text-anchor="middle" x="499.5" y="-454.5" font-family="Helvetica,sans-Serif" font-size="10.00">InteractableItem.h</text>
</a>
</g>
</g>
<!-- Node2&#45;&gt;Node3 -->
<g id="edge2_Node000002_Node000003" class="edge">
<title>Node2&#45;&gt;Node3</title>
<g id="a_edge2_Node000002_Node000003"><a xlink:title=" ">
<path fill="none" stroke="#63b8ff" d="M649.8,-503.59C619.97,-494.74 575.08,-481.43 542.13,-471.65"/>
<polygon fill="#63b8ff" stroke="#63b8ff" points="543.48,-468.4 532.9,-468.91 541.49,-475.11 543.48,-468.4"/>
</a>
</g>
</g>
<!-- Node24 -->
<g id="Node000024" class="node">
<title>Node24</title>
<g id="a_Node000024"><a xlink:href="_animation_manager_8h.html" target="_top" xlink:title=" ">
<polygon fill="white" stroke="#666666" points="600.12,-244 494.88,-244 494.88,-224 600.12,-224 600.12,-244"/>
<text text-anchor="middle" x="547.5" y="-230.5" font-family="Helvetica,sans-Serif" font-size="10.00">AnimationManager.h</text>
</a>
</g>
</g>
<!-- Node2&#45;&gt;Node24 -->
<g id="edge43_Node000002_Node000024" class="edge">
<title>Node2&#45;&gt;Node24</title>
<g id="a_edge43_Node000002_Node000024"><a xlink:title=" ">
<path fill="none" stroke="#63b8ff" d="M681.21,-503.58C680.66,-484.57 679.5,-440.25 679.5,-403 679.5,-403 679.5,-403 679.5,-345 679.5,-296.33 625.88,-265.01 586.99,-248.7"/>
<polygon fill="#63b8ff" stroke="#63b8ff" points="588.46,-245.52 577.87,-245.06 585.86,-252.02 588.46,-245.52"/>
</a>
</g>
</g>
<!-- Node2&#45;&gt;Node29 -->
<g id="edge44_Node000002_Node000029" class="edge">
<title>Node2&#45;&gt;Node29</title>
<g id="a_edge44_Node000002_Node000029"><a xlink:title=" ">
<path fill="none" stroke="#63b8ff" d="M693,-503.59C702.46,-495.85 716.1,-484.69 727.37,-475.47"/>
<polygon fill="#63b8ff" stroke="#63b8ff" points="729.44,-478.3 734.96,-469.26 725.01,-472.88 729.44,-478.3"/>
</a>
</g>
</g>
<!-- Node4 -->
<g id="Node000004" class="node">
<title>Node4</title>
<g id="a_Node000004"><a xlink:href="_character_8h.html" target="_top" xlink:title=" ">
<polygon fill="white" stroke="#666666" points="476,-412 409,-412 409,-392 476,-392 476,-412"/>
<text text-anchor="middle" x="442.5" y="-398.5" font-family="Helvetica,sans-Serif" font-size="10.00">Character.h</text>
</a>
</g>
</g>
<!-- Node3&#45;&gt;Node4 -->
<g id="edge3_Node000003_Node000004" class="edge">
<title>Node3&#45;&gt;Node4</title>
<g id="a_edge3_Node000003_Node000004"><a xlink:title=" ">
<path fill="none" stroke="#63b8ff" d="M489.57,-447.59C481.56,-440.01 470.08,-429.13 460.47,-420.02"/>
<polygon fill="#63b8ff" stroke="#63b8ff" points="463.08,-417.68 453.41,-413.34 458.27,-422.76 463.08,-417.68"/>
</a>
</g>
</g>
<!-- Node5 -->
<g id="Node000005" class="node">
<title>Node5</title>
<g id="a_Node000005"><a xlink:href="_character_controller_8h.html" target="_top" xlink:title=" ">
<polygon fill="white" stroke="#666666" points="202,-356 93,-356 93,-336 202,-336 202,-356"/>
<text text-anchor="middle" x="147.5" y="-342.5" font-family="Helvetica,sans-Serif" font-size="10.00">CharacterController.h</text>
</a>
</g>
</g>
<!-- Node4&#45;&gt;Node5 -->
<g id="edge4_Node000004_Node000005" class="edge">
<title>Node4&#45;&gt;Node5</title>
<g id="a_edge4_Node000004_Node000005"><a xlink:title=" ">
<path fill="none" stroke="#63b8ff" d="M408.66,-394.81C360.36,-385.96 270.81,-369.57 210.19,-358.48"/>
<polygon fill="#63b8ff" stroke="#63b8ff" points="211.18,-355.1 200.72,-356.74 209.92,-361.98 211.18,-355.1"/>
</a>
</g>
</g>
<!-- Node20 -->
<g id="Node000020" class="node">
<title>Node20</title>
<g id="a_Node000020"><a xlink:href="_hair_8h.html" target="_top" xlink:title=" ">
<polygon fill="white" stroke="#666666" points="265.62,-244 223.38,-244 223.38,-224 265.62,-224 265.62,-244"/>
<text text-anchor="middle" x="244.5" y="-230.5" font-family="Helvetica,sans-Serif" font-size="10.00">Hair.h</text>
</a>
</g>
</g>
<!-- Node4&#45;&gt;Node20 -->
<g id="edge23_Node000004_Node000020" class="edge">
<title>Node4&#45;&gt;Node20</title>
<g id="a_edge23_Node000004_Node000020"><a xlink:title=" ">
<path fill="none" stroke="#63b8ff" d="M408.62,-395.29C381.55,-389.3 343.9,-377.64 317.5,-356 284.1,-328.62 262.12,-281.68 251.64,-255.03"/>
<polygon fill="#63b8ff" stroke="#63b8ff" points="254.96,-253.9 248.17,-245.77 248.4,-256.36 254.96,-253.9"/>
</a>
</g>
</g>
<!-- Node22 -->
<g id="Node000022" class="node">
<title>Node22</title>
<g id="a_Node000022"><a xlink:href="_character_texture_manager_8h.html" target="_top" xlink:title=" ">
<polygon fill="white" stroke="#666666" points="462.88,-356 326.12,-356 326.12,-336 462.88,-336 462.88,-356"/>
<text text-anchor="middle" x="394.5" y="-342.5" font-family="Helvetica,sans-Serif" font-size="10.00">CharacterTextureManager.h</text>
</a>
</g>
</g>
<!-- Node4&#45;&gt;Node22 -->
<g id="edge28_Node000004_Node000022" class="edge">
<title>Node4&#45;&gt;Node22</title>
<g id="a_edge28_Node000004_Node000022"><a xlink:title=" ">
<path fill="none" stroke="#63b8ff" d="M434.14,-391.59C427.6,-384.24 418.32,-373.8 410.38,-364.87"/>
<polygon fill="#63b8ff" stroke="#63b8ff" points="413.03,-362.58 403.77,-357.43 407.8,-367.23 413.03,-362.58"/>
</a>
</g>
</g>
<!-- Node25 -->
<g id="Node000025" class="node">
<title>Node25</title>
<g id="a_Node000025"><a xlink:href="_character_state_8h.html" target="_top" xlink:title=" ">
<polygon fill="white" stroke="#666666" points="575.62,-300 485.38,-300 485.38,-280 575.62,-280 575.62,-300"/>
<text text-anchor="middle" x="530.5" y="-286.5" font-family="Helvetica,sans-Serif" font-size="10.00">CharacterState.h</text>
</a>
</g>
</g>
<!-- Node4&#45;&gt;Node25 -->
<g id="edge35_Node000004_Node000025" class="edge">
<title>Node4&#45;&gt;Node25</title>
<g id="a_edge35_Node000004_Node000025"><a xlink:title=" ">
<path fill="none" stroke="#63b8ff" d="M450,-391.62C464.62,-373.36 497.11,-332.73 516.05,-309.07"/>
<polygon fill="#63b8ff" stroke="#63b8ff" points="518.56,-311.53 522.07,-301.54 513.09,-307.16 518.56,-311.53"/>
</a>
</g>
</g>
<!-- Node26 -->
<g id="Node000026" class="node">
<title>Node26</title>
<g id="a_Node000026"><a xlink:href="_character_sound_manager_8h.html" target="_top" xlink:title=" ">
<polygon fill="white" stroke="#666666" points="651.62,-356 519.38,-356 519.38,-336 651.62,-336 651.62,-356"/>
<text text-anchor="middle" x="585.5" y="-342.5" font-family="Helvetica,sans-Serif" font-size="10.00">CharacterSoundManager.h</text>
</a>
</g>
</g>
<!-- Node4&#45;&gt;Node26 -->
<g id="edge36_Node000004_Node000026" class="edge">
<title>Node4&#45;&gt;Node26</title>
<g id="a_edge36_Node000004_Node000026"><a xlink:title=" ">
<path fill="none" stroke="#63b8ff" d="M467.41,-391.59C490.23,-382.97 524.28,-370.12 549.96,-360.42"/>
<polygon fill="#63b8ff" stroke="#63b8ff" points="550.86,-363.82 558.98,-357.01 548.39,-357.27 550.86,-363.82"/>
</a>
</g>
</g>
<!-- Node6 -->
<g id="Node000006" class="node">
<title>Node6</title>
<g id="a_Node000006"><a xlink:href="_game_object_8h.html" target="_top" xlink:title=" ">
<polygon fill="white" stroke="#666666" points="79,-300 0,-300 0,-280 79,-280 79,-300"/>
<text text-anchor="middle" x="39.5" y="-286.5" font-family="Helvetica,sans-Serif" font-size="10.00">GameObject.h</text>
</a>
</g>
</g>
<!-- Node5&#45;&gt;Node6 -->
<g id="edge5_Node000005_Node000006" class="edge">
<title>Node5&#45;&gt;Node6</title>
<g id="a_edge5_Node000005_Node000006"><a xlink:title=" ">
<path fill="none" stroke="#63b8ff" d="M128.69,-335.59C112.14,-327.32 87.79,-315.14 68.71,-305.6"/>
<polygon fill="#63b8ff" stroke="#63b8ff" points="70.32,-302.5 59.81,-301.16 67.19,-308.76 70.32,-302.5"/>
</a>
</g>
</g>
<!-- Node17 -->
<g id="Node000017" class="node">
<title>Node17</title>
<g id="a_Node000017"><a xlink:href="_vector2x2f_8h.html" target="_top" xlink:title=" ">
<polygon fill="white" stroke="#666666" points="167.88,-300 97.12,-300 97.12,-280 167.88,-280 167.88,-300"/>
<text text-anchor="middle" x="132.5" y="-286.5" font-family="Helvetica,sans-Serif" font-size="10.00">Vector2x2f.h</text>
</a>
</g>
</g>
<!-- Node5&#45;&gt;Node17 -->
<g id="edge18_Node000005_Node000017" class="edge">
<title>Node5&#45;&gt;Node17</title>
<g id="a_edge18_Node000005_Node000017"><a xlink:title=" ">
<path fill="none" stroke="#63b8ff" d="M144.89,-335.59C143.02,-328.86 140.43,-319.53 138.1,-311.15"/>
<polygon fill="#63b8ff" stroke="#63b8ff" points="141.54,-310.46 135.49,-301.76 134.79,-312.33 141.54,-310.46"/>
</a>
</g>
</g>
<!-- Node19 -->
<g id="Node000019" class="node">
<title>Node19</title>
<g id="a_Node000019"><a xlink:title=" ">
<polygon fill="#e0e0e0" stroke="#999999" points="266,-188 223,-188 223,-168 266,-168 266,-188"/>
<text text-anchor="middle" x="244.5" y="-174.5" font-family="Helvetica,sans-Serif" font-size="10.00">vector</text>
</a>
</g>
</g>
<!-- Node5&#45;&gt;Node19 -->
<g id="edge22_Node000005_Node000019" class="edge">
<title>Node5&#45;&gt;Node19</title>
<g id="a_edge22_Node000005_Node000019"><a xlink:title=" ">
<path fill="none" stroke="#63b8ff" d="M154.03,-335.53C160.12,-326.55 169.32,-312.6 176.5,-300 195.2,-267.19 195.54,-256.66 214.5,-224 219.61,-215.19 225.78,-205.77 231.19,-197.83"/>
<polygon fill="#63b8ff" stroke="#63b8ff" points="234.02,-199.89 236.85,-189.68 228.27,-195.9 234.02,-199.89"/>
</a>
</g>
</g>
<!-- Node7 -->
<g id="Node000007" class="node">
<title>Node7</title>
<g id="a_Node000007"><a xlink:href="_transform_8h.html" target="_top" xlink:title=" ">
<polygon fill="white" stroke="#666666" points="161.75,-188 93.25,-188 93.25,-168 161.75,-168 161.75,-188"/>
<text text-anchor="middle" x="127.5" y="-174.5" font-family="Helvetica,sans-Serif" font-size="10.00">Transform.h</text>
</a>
</g>
</g>
<!-- Node6&#45;&gt;Node7 -->
<g id="edge6_Node000006_Node000007" class="edge">
<title>Node6&#45;&gt;Node7</title>
<g id="a_edge6_Node000006_Node000007"><a xlink:title=" ">
<path fill="none" stroke="#63b8ff" d="M47,-279.62C61.62,-261.36 94.11,-220.73 113.05,-197.07"/>
<polygon fill="#63b8ff" stroke="#63b8ff" points="115.56,-199.53 119.07,-189.54 110.09,-195.16 115.56,-199.53"/>
</a>
</g>
</g>
<!-- Node8 -->
<g id="Node000008" class="node">
<title>Node8</title>
<g id="a_Node000008"><a xlink:href="base_8h.html" target="_top" xlink:title=" ">
<polygon fill="white" stroke="#666666" points="323.12,-132 277.88,-132 277.88,-112 323.12,-112 323.12,-132"/>
<text text-anchor="middle" x="300.5" y="-118.5" font-family="Helvetica,sans-Serif" font-size="10.00">base.h</text>
</a>
</g>
</g>
<!-- Node7&#45;&gt;Node8 -->
<g id="edge7_Node000007_Node000008" class="edge">
<title>Node7&#45;&gt;Node8</title>
<g id="a_edge7_Node000007_Node000008"><a xlink:title=" ">
<path fill="none" stroke="#63b8ff" d="M157.63,-167.59C188.07,-158.09 235,-143.45 266.68,-133.56"/>
<polygon fill="#63b8ff" stroke="#63b8ff" points="267.66,-136.92 276.17,-130.6 265.58,-130.23 267.66,-136.92"/>
</a>
</g>
</g>
<!-- Node16 -->
<g id="Node000016" class="node">
<title>Node16</title>
<g id="a_Node000016"><a xlink:href="_vector2f_8h.html" target="_top" xlink:title=" ">
<polygon fill="white" stroke="#666666" points="237.62,-20 177.38,-20 177.38,0 237.62,0 237.62,-20"/>
<text text-anchor="middle" x="207.5" y="-6.5" font-family="Helvetica,sans-Serif" font-size="10.00">Vector2f.h</text>
</a>
</g>
</g>
<!-- Node7&#45;&gt;Node16 -->
<g id="edge17_Node000007_Node000016" class="edge">
<title>Node7&#45;&gt;Node16</title>
<g id="a_edge17_Node000007_Node000016"><a xlink:title=" ">
<path fill="none" stroke="#63b8ff" d="M116.88,-167.54C94.26,-146.23 45.52,-93.44 72.5,-56 93.51,-26.85 134.21,-16.3 165.45,-12.62"/>
<polygon fill="#63b8ff" stroke="#63b8ff" points="165.78,-16.11 175.4,-11.67 165.11,-9.14 165.78,-16.11"/>
</a>
</g>
</g>
<!-- Node9 -->
<g id="Node000009" class="node">
<title>Node9</title>
<g id="a_Node000009"><a xlink:title=" ">
<polygon fill="#e0e0e0" stroke="#999999" points="219.38,-76 175.62,-76 175.62,-56 219.38,-56 219.38,-76"/>
<text text-anchor="middle" x="197.5" y="-62.5" font-family="Helvetica,sans-Serif" font-size="10.00">SDL.h</text>
</a>
</g>
</g>
<!-- Node8&#45;&gt;Node9 -->
<g id="edge8_Node000008_Node000009" class="edge">
<title>Node8&#45;&gt;Node9</title>
<g id="a_edge8_Node000008_Node000009"><a xlink:title=" ">
<path fill="none" stroke="#63b8ff" d="M282.56,-111.59C266.85,-103.36 243.77,-91.26 225.61,-81.74"/>
<polygon fill="#63b8ff" stroke="#63b8ff" points="227.4,-78.73 216.92,-77.18 224.15,-84.93 227.4,-78.73"/>
</a>
</g>
</g>
<!-- Node10 -->
<g id="Node000010" class="node">
<title>Node10</title>
<g id="a_Node000010"><a xlink:title=" ">
<polygon fill="#e0e0e0" stroke="#999999" points="315.25,-76 237.75,-76 237.75,-56 315.25,-56 315.25,-76"/>
<text text-anchor="middle" x="276.5" y="-62.5" font-family="Helvetica,sans-Serif" font-size="10.00">SDL_opengl.h</text>
</a>
</g>
</g>
<!-- Node8&#45;&gt;Node10 -->
<g id="edge9_Node000008_Node000010" class="edge">
<title>Node8&#45;&gt;Node10</title>
<g id="a_edge9_Node000008_Node000010"><a xlink:title=" ">
<path fill="none" stroke="#63b8ff" d="M296.32,-111.59C293.26,-104.7 288.99,-95.1 285.2,-86.57"/>
<polygon fill="#63b8ff" stroke="#63b8ff" points="288.51,-85.4 281.25,-77.68 282.11,-88.24 288.51,-85.4"/>
</a>
</g>
</g>
<!-- Node11 -->
<g id="Node000011" class="node">
<title>Node11</title>
<g id="a_Node000011"><a xlink:title=" ">
<polygon fill="#e0e0e0" stroke="#999999" points="463.5,-76 405.5,-76 405.5,-56 463.5,-56 463.5,-76"/>
<text text-anchor="middle" x="434.5" y="-62.5" font-family="Helvetica,sans-Serif" font-size="10.00">SDL_ttf.h</text>
</a>
</g>
</g>
<!-- Node8&#45;&gt;Node11 -->
<g id="edge10_Node000008_Node000011" class="edge">
<title>Node8&#45;&gt;Node11</title>
<g id="a_edge10_Node000008_Node000011"><a xlink:title=" ">
<path fill="none" stroke="#63b8ff" d="M323.54,-111.72C344.82,-103.14 376.7,-90.29 400.84,-80.57"/>
<polygon fill="#63b8ff" stroke="#63b8ff" points="401.95,-83.89 409.91,-76.91 399.33,-77.4 401.95,-83.89"/>
</a>
</g>
</g>
<!-- Node12 -->
<g id="Node000012" class="node">
<title>Node12</title>
<g id="a_Node000012"><a xlink:title=" ">
<polygon fill="#e0e0e0" stroke="#999999" points="555,-76 482,-76 482,-56 555,-56 555,-76"/>
<text text-anchor="middle" x="518.5" y="-62.5" font-family="Helvetica,sans-Serif" font-size="10.00">SDL_mixer.h</text>
</a>
</g>
</g>
<!-- Node8&#45;&gt;Node12 -->
<g id="edge11_Node000008_Node000012" class="edge">
<title>Node8&#45;&gt;Node12</title>
<g id="a_edge11_Node000008_Node000012"><a xlink:title=" ">
<path fill="none" stroke="#63b8ff" d="M323.42,-115.32C358.19,-106.71 425.04,-90.15 470.69,-78.84"/>
<polygon fill="#63b8ff" stroke="#63b8ff" points="471.48,-82.25 480.34,-76.45 469.8,-75.46 471.48,-82.25"/>
</a>
</g>
</g>
<!-- Node13 -->
<g id="Node000013" class="node">
<title>Node13</title>
<g id="a_Node000013"><a xlink:title=" ">
<polygon fill="#e0e0e0" stroke="#999999" points="157.12,-76 81.88,-76 81.88,-56 157.12,-56 157.12,-76"/>
<text text-anchor="middle" x="119.5" y="-62.5" font-family="Helvetica,sans-Serif" font-size="10.00">SDL_image.h</text>
</a>
</g>
</g>
<!-- Node8&#45;&gt;Node13 -->
<g id="edge12_Node000008_Node000013" class="edge">
<title>Node8&#45;&gt;Node13</title>
<g id="a_edge12_Node000008_Node000013"><a xlink:title=" ">
<path fill="none" stroke="#63b8ff" d="M277.58,-114.16C248.52,-105.49 197.89,-90.39 161.75,-79.61"/>
<polygon fill="#63b8ff" stroke="#63b8ff" points="163.08,-76.35 152.49,-76.84 161.07,-83.06 163.08,-76.35"/>
</a>
</g>
</g>
<!-- Node14 -->
<g id="Node000014" class="node">
<title>Node14</title>
<g id="a_Node000014"><a xlink:href="structs_8h.html" target="_top" xlink:title=" ">
<polygon fill="white" stroke="#666666" points="387.62,-76 333.38,-76 333.38,-56 387.62,-56 387.62,-76"/>
<text text-anchor="middle" x="360.5" y="-62.5" font-family="Helvetica,sans-Serif" font-size="10.00">structs.h</text>
</a>
</g>
</g>
<!-- Node8&#45;&gt;Node14 -->
<g id="edge13_Node000008_Node000014" class="edge">
<title>Node8&#45;&gt;Node14</title>
<g id="a_edge13_Node000008_Node000014"><a xlink:title=" ">
<path fill="none" stroke="#63b8ff" d="M310.95,-111.59C319.47,-103.93 331.71,-92.91 341.89,-83.75"/>
<polygon fill="#63b8ff" stroke="#63b8ff" points="343.95,-86.6 349.04,-77.31 339.27,-81.4 343.95,-86.6"/>
</a>
</g>
</g>
<!-- Node15 -->
<g id="Node000015" class="node">
<title>Node15</title>
<g id="a_Node000015"><a xlink:title=" ">
<polygon fill="#e0e0e0" stroke="#999999" points="603.5,-20 563.5,-20 563.5,0 603.5,0 603.5,-20"/>
<text text-anchor="middle" x="583.5" y="-6.5" font-family="Helvetica,sans-Serif" font-size="10.00">string</text>
</a>
</g>
</g>
<!-- Node14&#45;&gt;Node15 -->
<g id="edge14_Node000014_Node000015" class="edge">
<title>Node14&#45;&gt;Node15</title>
<g id="a_edge14_Node000014_Node000015"><a xlink:title=" ">
<path fill="none" stroke="#63b8ff" d="M388.01,-58.1C390.88,-57.38 393.75,-56.68 396.5,-56 451.08,-42.61 514.71,-27.38 551.91,-18.51"/>
<polygon fill="#63b8ff" stroke="#63b8ff" points="552.62,-21.94 561.54,-16.22 551,-15.13 552.62,-21.94"/>
</a>
</g>
</g>
<!-- Node14&#45;&gt;Node16 -->
<g id="edge15_Node000014_Node000016" class="edge">
<title>Node14&#45;&gt;Node16</title>
<g id="a_edge15_Node000014_Node000016"><a xlink:title=" ">
<path fill="none" stroke="#63b8ff" d="M332.97,-57.03C306.71,-48.47 267.41,-34.72 239.73,-24.47"/>
<polygon fill="#63b8ff" stroke="#63b8ff" points="241.03,-21.22 230.43,-20.99 238.57,-27.77 241.03,-21.22"/>
</a>
</g>
</g>
<!-- Node16&#45;&gt;Node14 -->
<g id="edge16_Node000016_Node000014" class="edge">
<title>Node16&#45;&gt;Node14</title>
<g id="a_edge16_Node000016_Node000014"><a xlink:title=" ">
<path fill="none" stroke="#63b8ff" d="M238,-19.94C264.23,-28.56 301.75,-41.71 328.42,-51.59"/>
<polygon fill="#63b8ff" stroke="#63b8ff" points="327.11,-54.83 337.7,-55.06 329.56,-48.28 327.11,-54.83"/>
</a>
</g>
</g>
<!-- Node18 -->
<g id="Node000018" class="node">
<title>Node18</title>
<g id="a_Node000018"><a xlink:href="utils_8h.html" target="_top" xlink:title=" ">
<polygon fill="white" stroke="#666666" points="153.62,-244 111.38,-244 111.38,-224 153.62,-224 153.62,-244"/>
<text text-anchor="middle" x="132.5" y="-230.5" font-family="Helvetica,sans-Serif" font-size="10.00">utils.h</text>
</a>
</g>
</g>
<!-- Node17&#45;&gt;Node18 -->
<g id="edge19_Node000017_Node000018" class="edge">
<title>Node17&#45;&gt;Node18</title>
<g id="a_edge19_Node000017_Node000018"><a xlink:title=" ">
<path fill="none" stroke="#63b8ff" d="M132.5,-279.59C132.5,-273.01 132.5,-263.96 132.5,-255.73"/>
<polygon fill="#63b8ff" stroke="#63b8ff" points="136,-255.81 132.5,-245.81 129,-255.81 136,-255.81"/>
</a>
</g>
</g>
<!-- Node18&#45;&gt;Node16 -->
<g id="edge21_Node000018_Node000016" class="edge">
<title>Node18&#45;&gt;Node16</title>
<g id="a_edge21_Node000018_Node000016"><a xlink:title=" ">
<path fill="none" stroke="#63b8ff" d="M119.16,-223.8C108.27,-215.62 93.3,-202.7 84.5,-188 53.86,-136.85 25.04,-103.94 60.5,-56 84.53,-23.52 131.54,-13.71 165.96,-11.13"/>
<polygon fill="#63b8ff" stroke="#63b8ff" points="165.79,-14.64 175.58,-10.59 165.4,-7.65 165.79,-14.64"/>
</a>
</g>
</g>
<!-- Node18&#45;&gt;Node19 -->
<g id="edge20_Node000018_Node000019" class="edge">
<title>Node18&#45;&gt;Node19</title>
<g id="a_edge20_Node000018_Node000019"><a xlink:title=" ">
<path fill="none" stroke="#63b8ff" d="M152.01,-223.59C169.25,-215.28 194.66,-203.03 214.49,-193.47"/>
<polygon fill="#63b8ff" stroke="#63b8ff" points="215.99,-196.63 223.48,-189.14 212.95,-190.33 215.99,-196.63"/>
</a>
</g>
</g>
<!-- Node20&#45;&gt;Node7 -->
<g id="edge24_Node000020_Node000007" class="edge">
<title>Node20&#45;&gt;Node7</title>
<g id="a_edge24_Node000020_Node000007"><a xlink:title=" ">
<path fill="none" stroke="#63b8ff" d="M224.12,-223.59C205.94,-215.21 179.07,-202.8 158.28,-193.21"/>
<polygon fill="#63b8ff" stroke="#63b8ff" points="159.96,-190.13 149.41,-189.11 157.03,-196.48 159.96,-190.13"/>
</a>
</g>
</g>
<!-- Node20&#45;&gt;Node19 -->
<g id="edge25_Node000020_Node000019" class="edge">
<title>Node20&#45;&gt;Node19</title>
<g id="a_edge25_Node000020_Node000019"><a xlink:title=" ">
<path fill="none" stroke="#63b8ff" d="M244.5,-223.59C244.5,-217.01 244.5,-207.96 244.5,-199.73"/>
<polygon fill="#63b8ff" stroke="#63b8ff" points="248,-199.81 244.5,-189.81 241,-199.81 248,-199.81"/>
</a>
</g>
</g>
<!-- Node21 -->
<g id="Node000021" class="node">
<title>Node21</title>
<g id="a_Node000021"><a xlink:href="_texture_8h.html" target="_top" xlink:title=" ">
<polygon fill="white" stroke="#666666" points="340.75,-188 284.25,-188 284.25,-168 340.75,-168 340.75,-188"/>
<text text-anchor="middle" x="312.5" y="-174.5" font-family="Helvetica,sans-Serif" font-size="10.00">Texture.h</text>
</a>
</g>
</g>
<!-- Node20&#45;&gt;Node21 -->
<g id="edge26_Node000020_Node000021" class="edge">
<title>Node20&#45;&gt;Node21</title>
<g id="a_edge26_Node000020_Node000021"><a xlink:title=" ">
<path fill="none" stroke="#63b8ff" d="M256.34,-223.59C266.19,-215.77 280.43,-204.46 292.11,-195.19"/>
<polygon fill="#63b8ff" stroke="#63b8ff" points="293.95,-198.2 299.61,-189.24 289.6,-192.72 293.95,-198.2"/>
</a>
</g>
</g>
<!-- Node21&#45;&gt;Node8 -->
<g id="edge27_Node000021_Node000008" class="edge">
<title>Node21&#45;&gt;Node8</title>
<g id="a_edge27_Node000021_Node000008"><a xlink:title=" ">
<path fill="none" stroke="#63b8ff" d="M310.41,-167.59C308.93,-160.93 306.89,-151.75 305.04,-143.44"/>
<polygon fill="#63b8ff" stroke="#63b8ff" points="308.48,-142.78 302.89,-133.78 301.65,-144.3 308.48,-142.78"/>
</a>
</g>
</g>
<!-- Node22&#45;&gt;Node19 -->
<g id="edge34_Node000022_Node000019" class="edge">
<title>Node22&#45;&gt;Node19</title>
<g id="a_edge34_Node000022_Node000019"><a xlink:title=" ">
<path fill="none" stroke="#63b8ff" d="M368.58,-335.58C350.98,-328.13 328.15,-316.26 312.5,-300 286.31,-272.79 293.46,-256.66 274.5,-224 269.39,-215.19 263.22,-205.77 257.81,-197.83"/>
<polygon fill="#63b8ff" stroke="#63b8ff" points="260.73,-195.9 252.15,-189.68 254.98,-199.89 260.73,-195.9"/>
</a>
</g>
</g>
<!-- Node23 -->
<g id="Node000023" class="node">
<title>Node23</title>
<g id="a_Node000023"><a xlink:href="_animation_manager_a_n_d_hair_8h.html" target="_top" xlink:title=" ">
<polygon fill="white" stroke="#666666" points="467,-300 322,-300 322,-280 467,-280 467,-300"/>
<text text-anchor="middle" x="394.5" y="-286.5" font-family="Helvetica,sans-Serif" font-size="10.00">AnimationManagerANDHair.h</text>
</a>
</g>
</g>
<!-- Node22&#45;&gt;Node23 -->
<g id="edge29_Node000022_Node000023" class="edge">
<title>Node22&#45;&gt;Node23</title>
<g id="a_edge29_Node000022_Node000023"><a xlink:title=" ">
<path fill="none" stroke="#63b8ff" d="M394.5,-335.59C394.5,-329.01 394.5,-319.96 394.5,-311.73"/>
<polygon fill="#63b8ff" stroke="#63b8ff" points="398,-311.81 394.5,-301.81 391,-311.81 398,-311.81"/>
</a>
</g>
</g>
<!-- Node22&#45;&gt;Node25 -->
<g id="edge33_Node000022_Node000025" class="edge">
<title>Node22&#45;&gt;Node25</title>
<g id="a_edge33_Node000022_Node000025"><a xlink:title=" ">
<path fill="none" stroke="#63b8ff" d="M418.19,-335.59C439.7,-327.05 471.7,-314.35 496.04,-304.68"/>
<polygon fill="#63b8ff" stroke="#63b8ff" points="497.22,-307.98 505.22,-301.04 494.63,-301.48 497.22,-307.98"/>
</a>
</g>
</g>
<!-- Node23&#45;&gt;Node19 -->
<g id="edge32_Node000023_Node000019" class="edge">
<title>Node23&#45;&gt;Node19</title>
<g id="a_edge32_Node000023_Node000019"><a xlink:title=" ">
<path fill="none" stroke="#63b8ff" d="M382.17,-279.66C365.37,-266.96 334.29,-243.58 307.5,-224 294.1,-214.21 278.98,-203.4 266.91,-194.83"/>
<polygon fill="#63b8ff" stroke="#63b8ff" points="269.01,-192.03 258.82,-189.1 264.96,-197.74 269.01,-192.03"/>
</a>
</g>
</g>
<!-- Node23&#45;&gt;Node24 -->
<g id="edge30_Node000023_Node000024" class="edge">
<title>Node23&#45;&gt;Node24</title>
<g id="a_edge30_Node000023_Node000024"><a xlink:title=" ">
<path fill="none" stroke="#63b8ff" d="M421.15,-279.59C445.68,-270.94 482.33,-258 509.84,-248.29"/>
<polygon fill="#63b8ff" stroke="#63b8ff" points="510.95,-251.61 519.21,-244.98 508.62,-245.01 510.95,-251.61"/>
</a>
</g>
</g>
<!-- Node24&#45;&gt;Node21 -->
<g id="edge31_Node000024_Node000021" class="edge">
<title>Node24&#45;&gt;Node21</title>
<g id="a_edge31_Node000024_Node000021"><a xlink:title=" ">
<path fill="none" stroke="#63b8ff" d="M506.3,-223.53C462.89,-213.56 395,-197.96 352.18,-188.12"/>
<polygon fill="#63b8ff" stroke="#63b8ff" points="353.07,-184.73 342.54,-185.9 351.51,-191.55 353.07,-184.73"/>
</a>
</g>
</g>
<!-- Node26&#45;&gt;Node25 -->
<g id="edge37_Node000026_Node000025" class="edge">
<title>Node26&#45;&gt;Node25</title>
<g id="a_edge37_Node000026_Node000025"><a xlink:title=" ">
<path fill="none" stroke="#63b8ff" d="M575.92,-335.59C568.27,-328.08 557.34,-317.35 548.12,-308.3"/>
<polygon fill="#63b8ff" stroke="#63b8ff" points="550.64,-305.87 541.05,-301.36 545.73,-310.86 550.64,-305.87"/>
</a>
</g>
</g>
<!-- Node27 -->
<g id="Node000027" class="node">
<title>Node27</title>
<g id="a_Node000027"><a xlink:href="_sound_effect_8h.html" target="_top" xlink:title=" ">
<polygon fill="white" stroke="#666666" points="477.25,-244 399.75,-244 399.75,-224 477.25,-224 477.25,-244"/>
<text text-anchor="middle" x="438.5" y="-230.5" font-family="Helvetica,sans-Serif" font-size="10.00">SoundEffect.h</text>
</a>
</g>
</g>
<!-- Node26&#45;&gt;Node27 -->
<g id="edge38_Node000026_Node000027" class="edge">
<title>Node26&#45;&gt;Node27</title>
<g id="a_edge38_Node000026_Node000027"><a xlink:title=" ">
<path fill="none" stroke="#63b8ff" d="M588.51,-335.51C592.23,-321.78 596.69,-296.25 584.5,-280 578.44,-271.93 527.99,-257.55 488.06,-247.22"/>
<polygon fill="#63b8ff" stroke="#63b8ff" points="489.15,-243.88 478.59,-244.79 487.41,-250.66 489.15,-243.88"/>
</a>
</g>
</g>
<!-- Node28 -->
<g id="Node000028" class="node">
<title>Node28</title>
<g id="a_Node000028"><a xlink:href="_sound_stream_8h.html" target="_top" xlink:title=" ">
<polygon fill="white" stroke="#666666" points="695.25,-132 611.75,-132 611.75,-112 695.25,-112 695.25,-132"/>
<text text-anchor="middle" x="653.5" y="-118.5" font-family="Helvetica,sans-Serif" font-size="10.00">SoundStream.h</text>
</a>
</g>
</g>
<!-- Node26&#45;&gt;Node28 -->
<g id="edge41_Node000026_Node000028" class="edge">
<title>Node26&#45;&gt;Node28</title>
<g id="a_edge41_Node000026_Node000028"><a xlink:title=" ">
<path fill="none" stroke="#63b8ff" d="M589.24,-335.77C592.84,-326.73 598.34,-312.52 602.5,-300 621.19,-243.76 639.55,-176.19 648.26,-143.16"/>
<polygon fill="#63b8ff" stroke="#63b8ff" points="651.57,-144.32 650.72,-133.76 644.8,-142.55 651.57,-144.32"/>
</a>
</g>
</g>
<!-- Node27&#45;&gt;Node15 -->
<g id="edge39_Node000027_Node000015" class="edge">
<title>Node27&#45;&gt;Node15</title>
<g id="a_edge39_Node000027_Node000015"><a xlink:title=" ">
<path fill="none" stroke="#63b8ff" d="M448.11,-223.64C471.24,-200.62 530.5,-138.56 563.5,-76 570.93,-61.91 576.08,-44.63 579.3,-31.42"/>
<polygon fill="#63b8ff" stroke="#63b8ff" points="582.7,-32.25 581.46,-21.73 575.87,-30.72 582.7,-32.25"/>
</a>
</g>
</g>
<!-- Node27&#45;&gt;Node19 -->
<g id="edge40_Node000027_Node000019" class="edge">
<title>Node27&#45;&gt;Node19</title>
<g id="a_edge40_Node000027_Node000019"><a xlink:title=" ">
<path fill="none" stroke="#63b8ff" d="M403.8,-223.56C373.04,-215.16 326.6,-202.41 277.11,-188.43"/>
<polygon fill="#63b8ff" stroke="#63b8ff" points="278.2,-185.1 267.63,-185.74 276.29,-191.83 278.2,-185.1"/>
</a>
</g>
</g>
<!-- Node28&#45;&gt;Node15 -->
<g id="edge42_Node000028_Node000015" class="edge">
<title>Node28&#45;&gt;Node15</title>
<g id="a_edge42_Node000028_Node000015"><a xlink:title=" ">
<path fill="none" stroke="#63b8ff" d="M647.53,-111.62C636.06,-93.6 610.74,-53.81 595.61,-30.02"/>
<polygon fill="#63b8ff" stroke="#63b8ff" points="598.59,-28.19 590.27,-21.63 592.68,-31.95 598.59,-28.19"/>
</a>
</g>
</g>
<!-- Node30 -->
<g id="Node000030" class="node">
<title>Node30</title>
<g id="a_Node000030"><a xlink:title=" ">
<polygon fill="#e0e0e0" stroke="#999999" points="774.25,-412 720.75,-412 720.75,-392 774.25,-392 774.25,-412"/>
<text text-anchor="middle" x="747.5" y="-398.5" font-family="Helvetica,sans-Serif" font-size="10.00">iostream</text>
</a>
</g>
</g>
<!-- Node29&#45;&gt;Node30 -->
<g id="edge45_Node000029_Node000030" class="edge">
<title>Node29&#45;&gt;Node30</title>
<g id="a_edge45_Node000029_Node000030"><a xlink:title=" ">
<path fill="none" stroke="#63b8ff" d="M747.5,-447.59C747.5,-441.01 747.5,-431.96 747.5,-423.73"/>
<polygon fill="#63b8ff" stroke="#63b8ff" points="751,-423.81 747.5,-413.81 744,-423.81 751,-423.81"/>
</a>
</g>
</g>
</g>
</svg>
