<?xml version="1.0" encoding="UTF-8" standalone="no"?>
<!DOCTYPE svg PUBLIC "-//W3C//DTD SVG 1.1//EN"
 "http://www.w3.org/Graphics/SVG/1.1/DTD/svg11.dtd">
<!-- Generated by graphviz version 12.2.1 (20241206.2353)
 -->
<!-- Title: Celeste/GameObject.h Pages: 1 -->
<svg width="2036pt" height="588pt"
 viewBox="0.00 0.00 2036.00 588.00" xmlns="http://www.w3.org/2000/svg" xmlns:xlink="http://www.w3.org/1999/xlink">
<g id="graph0" class="graph" transform="scale(1 1) rotate(0) translate(4 584)">
<title>Celeste/GameObject.h</title>
<!-- Node1 -->
<g id="Node000001" class="node">
<title>Node1</title>
<g id="a_Node000001"><a xlink:title=" ">
<polygon fill="#999999" stroke="#666666" points="1671,-580 1555.25,-580 1555.25,-560 1671,-560 1671,-580"/>
<text text-anchor="middle" x="1613.12" y="-566.5" font-family="Helvetica,sans-Serif" font-size="10.00">Celeste/GameObject.h</text>
</a>
</g>
</g>
<!-- Node2 -->
<g id="Node000002" class="node">
<title>Node2</title>
<g id="a_Node000002"><a xlink:href="_character_controller_8h.html" target="_top" xlink:title=" ">
<polygon fill="white" stroke="#666666" points="1386,-524 1240.25,-524 1240.25,-504 1386,-504 1386,-524"/>
<text text-anchor="middle" x="1313.12" y="-510.5" font-family="Helvetica,sans-Serif" font-size="10.00">Celeste/CharacterController.h</text>
</a>
</g>
</g>
<!-- Node1&#45;&gt;Node2 -->
<g id="edge1_Node000001_Node000002" class="edge">
<title>Node1&#45;&gt;Node2</title>
<g id="a_edge1_Node000001_Node000002"><a xlink:title=" ">
<path fill="none" stroke="#63b8ff" d="M1549.23,-557.5C1494.55,-547.66 1416.79,-533.66 1365.66,-524.46"/>
<polygon fill="#63b8ff" stroke="#63b8ff" points="1548.57,-560.94 1559.04,-559.26 1549.81,-554.05 1548.57,-560.94"/>
</a>
</g>
</g>
<!-- Node35 -->
<g id="Node000035" class="node">
<title>Node35</title>
<g id="a_Node000035"><a xlink:href="_game_object_8cpp.html" target="_top" xlink:title=" ">
<polygon fill="white" stroke="#666666" points="1676.25,-524 1550,-524 1550,-504 1676.25,-504 1676.25,-524"/>
<text text-anchor="middle" x="1613.12" y="-510.5" font-family="Helvetica,sans-Serif" font-size="10.00">Celeste/GameObject.cpp</text>
</a>
</g>
</g>
<!-- Node1&#45;&gt;Node35 -->
<g id="edge46_Node000001_Node000035" class="edge">
<title>Node1&#45;&gt;Node35</title>
<g id="a_edge46_Node000001_Node000035"><a xlink:title=" ">
<path fill="none" stroke="#63b8ff" d="M1613.12,-548.13C1613.12,-539.9 1613.12,-530.85 1613.12,-524.3"/>
<polygon fill="#63b8ff" stroke="#63b8ff" points="1609.63,-548.08 1613.13,-558.08 1616.63,-548.08 1609.63,-548.08"/>
</a>
</g>
</g>
<!-- Node36 -->
<g id="Node000036" class="node">
<title>Node36</title>
<g id="a_Node000036"><a xlink:href="_snow_flake_manager_8h.html" target="_top" xlink:title=" ">
<polygon fill="white" stroke="#666666" points="1915.75,-524 1768.5,-524 1768.5,-504 1915.75,-504 1915.75,-524"/>
<text text-anchor="middle" x="1842.12" y="-510.5" font-family="Helvetica,sans-Serif" font-size="10.00">Celeste/SnowFlakeManager.h</text>
</a>
</g>
</g>
<!-- Node1&#45;&gt;Node36 -->
<g id="edge47_Node000001_Node000036" class="edge">
<title>Node1&#45;&gt;Node36</title>
<g id="a_edge47_Node000001_Node000036"><a xlink:title=" ">
<path fill="none" stroke="#63b8ff" d="M1664.28,-556.94C1705.87,-547.13 1763.73,-533.49 1802.02,-524.46"/>
<polygon fill="#63b8ff" stroke="#63b8ff" points="1663.68,-553.48 1654.75,-559.18 1665.29,-560.3 1663.68,-553.48"/>
</a>
</g>
</g>
<!-- Node3 -->
<g id="Node000003" class="node">
<title>Node3</title>
<g id="a_Node000003"><a xlink:href="_character_8h.html" target="_top" xlink:title=" ">
<polygon fill="white" stroke="#666666" points="1144,-468 1040.25,-468 1040.25,-448 1144,-448 1144,-468"/>
<text text-anchor="middle" x="1092.12" y="-454.5" font-family="Helvetica,sans-Serif" font-size="10.00">Celeste/Character.h</text>
</a>
</g>
</g>
<!-- Node2&#45;&gt;Node3 -->
<g id="edge2_Node000002_Node000003" class="edge">
<title>Node2&#45;&gt;Node3</title>
<g id="a_edge2_Node000002_Node000003"><a xlink:title=" ">
<path fill="none" stroke="#63b8ff" d="M1263.25,-500.81C1223.15,-491.01 1167.62,-477.45 1130.83,-468.46"/>
<polygon fill="#63b8ff" stroke="#63b8ff" points="1262.36,-504.2 1272.91,-503.17 1264.02,-497.4 1262.36,-504.2"/>
</a>
</g>
</g>
<!-- Node34 -->
<g id="Node000034" class="node">
<title>Node34</title>
<g id="a_Node000034"><a xlink:href="_character_controller_8cpp.html" target="_top" xlink:title=" ">
<polygon fill="white" stroke="#666666" points="1391.25,-468 1235,-468 1235,-448 1391.25,-448 1391.25,-468"/>
<text text-anchor="middle" x="1313.12" y="-454.5" font-family="Helvetica,sans-Serif" font-size="10.00">Celeste/CharacterController.cpp</text>
</a>
</g>
</g>
<!-- Node2&#45;&gt;Node34 -->
<g id="edge45_Node000002_Node000034" class="edge">
<title>Node2&#45;&gt;Node34</title>
<g id="a_edge45_Node000002_Node000034"><a xlink:title=" ">
<path fill="none" stroke="#63b8ff" d="M1313.12,-492.13C1313.12,-483.9 1313.12,-474.85 1313.12,-468.3"/>
<polygon fill="#63b8ff" stroke="#63b8ff" points="1309.63,-492.08 1313.13,-502.08 1316.63,-492.08 1309.63,-492.08"/>
</a>
</g>
</g>
<!-- Node4 -->
<g id="Node000004" class="node">
<title>Node4</title>
<g id="a_Node000004"><a xlink:href="_character_8cpp.html" target="_top" xlink:title=" ">
<polygon fill="white" stroke="#666666" points="114.25,-412 0,-412 0,-392 114.25,-392 114.25,-412"/>
<text text-anchor="middle" x="57.12" y="-398.5" font-family="Helvetica,sans-Serif" font-size="10.00">Celeste/Character.cpp</text>
</a>
</g>
</g>
<!-- Node3&#45;&gt;Node4 -->
<g id="edge3_Node000003_Node000004" class="edge">
<title>Node3&#45;&gt;Node4</title>
<g id="a_edge3_Node000003_Node000004"><a xlink:title=" ">
<path fill="none" stroke="#63b8ff" d="M1028.67,-455.78C874.28,-452.44 466.84,-441.33 128.12,-412 123.67,-411.61 119.06,-411.16 114.43,-410.66"/>
<polygon fill="#63b8ff" stroke="#63b8ff" points="1028.19,-459.27 1038.27,-455.99 1028.34,-452.27 1028.19,-459.27"/>
</a>
</g>
</g>
<!-- Node5 -->
<g id="Node000005" class="node">
<title>Node5</title>
<g id="a_Node000005"><a xlink:href="_game_8h.html" target="_top" xlink:title=" ">
<polygon fill="white" stroke="#666666" points="1847.75,-76 1760.5,-76 1760.5,-56 1847.75,-56 1847.75,-76"/>
<text text-anchor="middle" x="1804.12" y="-62.5" font-family="Helvetica,sans-Serif" font-size="10.00">Celeste/Game.h</text>
</a>
</g>
</g>
<!-- Node3&#45;&gt;Node5 -->
<g id="edge4_Node000003_Node000005" class="edge">
<title>Node3&#45;&gt;Node5</title>
<g id="a_edge4_Node000003_Node000005"><a xlink:title=" ">
<path fill="none" stroke="#63b8ff" d="M1155.79,-450.49C1330.43,-432.22 1804.12,-379.65 1804.12,-347 1804.12,-347 1804.12,-347 1804.12,-177 1804.12,-139.76 1804.12,-95.43 1804.12,-76.42"/>
<polygon fill="#63b8ff" stroke="#63b8ff" points="1155.57,-447 1145.99,-451.51 1156.29,-453.96 1155.57,-447"/>
</a>
</g>
</g>
<!-- Node8 -->
<g id="Node000008" class="node">
<title>Node8</title>
<g id="a_Node000008"><a xlink:href="_interactable_item_8h.html" target="_top" xlink:title=" ">
<polygon fill="white" stroke="#666666" points="1157.88,-412 1026.38,-412 1026.38,-392 1157.88,-392 1157.88,-412"/>
<text text-anchor="middle" x="1092.12" y="-398.5" font-family="Helvetica,sans-Serif" font-size="10.00">Celeste/InteractableItem.h</text>
</a>
</g>
</g>
<!-- Node3&#45;&gt;Node8 -->
<g id="edge7_Node000003_Node000008" class="edge">
<title>Node3&#45;&gt;Node8</title>
<g id="a_edge7_Node000003_Node000008"><a xlink:title=" ">
<path fill="none" stroke="#63b8ff" d="M1092.12,-436.13C1092.12,-427.9 1092.12,-418.85 1092.12,-412.3"/>
<polygon fill="#63b8ff" stroke="#63b8ff" points="1088.63,-436.08 1092.13,-446.08 1095.63,-436.08 1088.63,-436.08"/>
</a>
</g>
</g>
<!-- Node12 -->
<g id="Node000012" class="node">
<title>Node12</title>
<g id="a_Node000012"><a xlink:href="_level_manager_8h.html" target="_top" xlink:title=" ">
<polygon fill="white" stroke="#666666" points="494,-132 372.25,-132 372.25,-112 494,-112 494,-132"/>
<text text-anchor="middle" x="433.12" y="-118.5" font-family="Helvetica,sans-Serif" font-size="10.00">Celeste/LevelManager.h</text>
</a>
</g>
</g>
<!-- Node3&#45;&gt;Node12 -->
<g id="edge44_Node000003_Node000012" class="edge">
<title>Node3&#45;&gt;Node12</title>
<g id="a_edge44_Node000003_Node000012"><a xlink:title=" ">
<path fill="none" stroke="#63b8ff" d="M1028.78,-456.33C816.3,-453.28 142.12,-436.52 142.12,-347 142.12,-347 142.12,-347 142.12,-233 142.12,-183.38 292.05,-148.32 376.67,-132.48"/>
<polygon fill="#63b8ff" stroke="#63b8ff" points="1028.47,-459.83 1038.52,-456.47 1028.57,-452.83 1028.47,-459.83"/>
</a>
</g>
</g>
<!-- Node6 -->
<g id="Node000006" class="node">
<title>Node6</title>
<g id="a_Node000006"><a xlink:href="_game_8cpp.html" target="_top" xlink:title=" ">
<polygon fill="white" stroke="#666666" points="1796,-20 1698.25,-20 1698.25,0 1796,0 1796,-20"/>
<text text-anchor="middle" x="1747.12" y="-6.5" font-family="Helvetica,sans-Serif" font-size="10.00">Celeste/Game.cpp</text>
</a>
</g>
</g>
<!-- Node5&#45;&gt;Node6 -->
<g id="edge5_Node000005_Node000006" class="edge">
<title>Node5&#45;&gt;Node6</title>
<g id="a_edge5_Node000005_Node000006"><a xlink:title=" ">
<path fill="none" stroke="#63b8ff" d="M1786.02,-47.85C1776.39,-38.72 1764.92,-27.86 1756.94,-20.3"/>
<polygon fill="#63b8ff" stroke="#63b8ff" points="1783.43,-50.22 1793.1,-54.55 1788.25,-45.13 1783.43,-50.22"/>
</a>
</g>
</g>
<!-- Node7 -->
<g id="Node000007" class="node">
<title>Node7</title>
<g id="a_Node000007"><a xlink:href="main_8cpp.html" target="_top" xlink:title=" ">
<polygon fill="white" stroke="#666666" points="1906.38,-20 1813.88,-20 1813.88,0 1906.38,0 1906.38,-20"/>
<text text-anchor="middle" x="1860.12" y="-6.5" font-family="Helvetica,sans-Serif" font-size="10.00">Celeste/main.cpp</text>
</a>
</g>
</g>
<!-- Node5&#45;&gt;Node7 -->
<g id="edge6_Node000005_Node000007" class="edge">
<title>Node5&#45;&gt;Node7</title>
<g id="a_edge6_Node000005_Node000007"><a xlink:title=" ">
<path fill="none" stroke="#63b8ff" d="M1821.91,-47.85C1831.38,-38.72 1842.65,-27.86 1850.48,-20.3"/>
<polygon fill="#63b8ff" stroke="#63b8ff" points="1819.74,-45.08 1814.97,-54.54 1824.6,-50.12 1819.74,-45.08"/>
</a>
</g>
</g>
<!-- Node9 -->
<g id="Node000009" class="node">
<title>Node9</title>
<g id="a_Node000009"><a xlink:href="_chapter_info_8h.html" target="_top" xlink:title=" ">
<polygon fill="white" stroke="#666666" points="926.12,-244 814.12,-244 814.12,-224 926.12,-224 926.12,-244"/>
<text text-anchor="middle" x="870.12" y="-230.5" font-family="Helvetica,sans-Serif" font-size="10.00">Celeste/ChapterInfo.h</text>
</a>
</g>
</g>
<!-- Node8&#45;&gt;Node9 -->
<g id="edge8_Node000008_Node000009" class="edge">
<title>Node8&#45;&gt;Node9</title>
<g id="a_edge8_Node000008_Node000009"><a xlink:title=" ">
<path fill="none" stroke="#63b8ff" d="M1169.39,-399.08C1294.87,-395.16 1531.62,-384.1 1557.12,-356 1579.83,-330.99 1580.22,-304.65 1557.12,-280 1514.41,-234.39 1083.03,-233.27 926.49,-234.39"/>
<polygon fill="#63b8ff" stroke="#63b8ff" points="1169.37,-395.58 1159.48,-399.38 1169.58,-402.58 1169.37,-395.58"/>
</a>
</g>
</g>
<!-- Node10 -->
<g id="Node000010" class="node">
<title>Node10</title>
<g id="a_Node000010"><a xlink:href="_chapter_loader_8h.html" target="_top" xlink:title=" ">
<polygon fill="white" stroke="#666666" points="642.5,-188 517.75,-188 517.75,-168 642.5,-168 642.5,-188"/>
<text text-anchor="middle" x="580.12" y="-174.5" font-family="Helvetica,sans-Serif" font-size="10.00">Celeste/ChapterLoader.h</text>
</a>
</g>
</g>
<!-- Node8&#45;&gt;Node10 -->
<g id="edge15_Node000008_Node000010" class="edge">
<title>Node8&#45;&gt;Node10</title>
<g id="a_edge15_Node000008_Node000010"><a xlink:title=" ">
<path fill="none" stroke="#63b8ff" d="M1014.51,-398.35C806.64,-390.43 249.63,-363.41 199.12,-300 113.4,-192.38 388.94,-178.88 517.62,-178.26"/>
<polygon fill="#63b8ff" stroke="#63b8ff" points="1014.28,-401.85 1024.41,-398.72 1014.54,-394.85 1014.28,-401.85"/>
</a>
</g>
</g>
<!-- Node15 -->
<g id="Node000015" class="node">
<title>Node15</title>
<g id="a_Node000015"><a xlink:href="_cog_platform_8h.html" target="_top" xlink:title=" ">
<polygon fill="white" stroke="#666666" points="1150,-356 1034.25,-356 1034.25,-336 1150,-336 1150,-356"/>
<text text-anchor="middle" x="1092.12" y="-342.5" font-family="Helvetica,sans-Serif" font-size="10.00">Celeste/CogPlatform.h</text>
</a>
</g>
</g>
<!-- Node8&#45;&gt;Node15 -->
<g id="edge16_Node000008_Node000015" class="edge">
<title>Node8&#45;&gt;Node15</title>
<g id="a_edge16_Node000008_Node000015"><a xlink:title=" ">
<path fill="none" stroke="#63b8ff" d="M1092.12,-380.13C1092.12,-371.9 1092.12,-362.85 1092.12,-356.3"/>
<polygon fill="#63b8ff" stroke="#63b8ff" points="1088.63,-380.08 1092.13,-390.08 1095.63,-380.08 1088.63,-380.08"/>
</a>
</g>
</g>
<!-- Node17 -->
<g id="Node000017" class="node">
<title>Node17</title>
<g id="a_Node000017"><a xlink:href="_crumble_block_8h.html" target="_top" xlink:title=" ">
<polygon fill="white" stroke="#666666" points="1016.38,-356 893.88,-356 893.88,-336 1016.38,-336 1016.38,-356"/>
<text text-anchor="middle" x="955.12" y="-342.5" font-family="Helvetica,sans-Serif" font-size="10.00">Celeste/CrumbleBlock.h</text>
</a>
</g>
</g>
<!-- Node8&#45;&gt;Node17 -->
<g id="edge19_Node000008_Node000017" class="edge">
<title>Node8&#45;&gt;Node17</title>
<g id="a_edge19_Node000008_Node000017"><a xlink:title=" ">
<path fill="none" stroke="#63b8ff" d="M1057.63,-387.4C1033.15,-377.75 1000.91,-365.05 979.17,-356.48"/>
<polygon fill="#63b8ff" stroke="#63b8ff" points="1056.27,-390.63 1066.85,-391.04 1058.83,-384.12 1056.27,-390.63"/>
</a>
</g>
</g>
<!-- Node19 -->
<g id="Node000019" class="node">
<title>Node19</title>
<g id="a_Node000019"><a xlink:href="_dash_crystal_8h.html" target="_top" xlink:title=" ">
<polygon fill="white" stroke="#666666" points="1388,-356 1272.25,-356 1272.25,-336 1388,-336 1388,-356"/>
<text text-anchor="middle" x="1330.12" y="-342.5" font-family="Helvetica,sans-Serif" font-size="10.00">Celeste/DashCrystal.h</text>
</a>
</g>
</g>
<!-- Node8&#45;&gt;Node19 -->
<g id="edge22_Node000008_Node000019" class="edge">
<title>Node8&#45;&gt;Node19</title>
<g id="a_edge22_Node000008_Node000019"><a xlink:title=" ">
<path fill="none" stroke="#63b8ff" d="M1145.01,-389C1188.26,-379.19 1248.56,-365.51 1288.44,-356.46"/>
<polygon fill="#63b8ff" stroke="#63b8ff" points="1144.31,-385.57 1135.33,-391.2 1145.86,-392.4 1144.31,-385.57"/>
</a>
</g>
</g>
<!-- Node21 -->
<g id="Node000021" class="node">
<title>Node21</title>
<g id="a_Node000021"><a xlink:href="_interactable_item_8cpp.html" target="_top" xlink:title=" ">
<polygon fill="white" stroke="#666666" points="1548.12,-356 1406.12,-356 1406.12,-336 1548.12,-336 1548.12,-356"/>
<text text-anchor="middle" x="1477.12" y="-342.5" font-family="Helvetica,sans-Serif" font-size="10.00">Celeste/InteractableItem.cpp</text>
</a>
</g>
</g>
<!-- Node8&#45;&gt;Node21 -->
<g id="edge25_Node000008_Node000021" class="edge">
<title>Node8&#45;&gt;Node21</title>
<g id="a_edge25_Node000008_Node000021"><a xlink:title=" ">
<path fill="none" stroke="#63b8ff" d="M1169.3,-390.18C1239.61,-380.31 1342.41,-365.89 1409.54,-356.48"/>
<polygon fill="#63b8ff" stroke="#63b8ff" points="1169.22,-386.65 1159.81,-391.51 1170.2,-393.58 1169.22,-386.65"/>
</a>
</g>
</g>
<!-- Node22 -->
<g id="Node000022" class="node">
<title>Node22</title>
<g id="a_Node000022"><a xlink:href="_level_8h.html" target="_top" xlink:title=" ">
<polygon fill="white" stroke="#666666" points="874.25,-356 790,-356 790,-336 874.25,-336 874.25,-356"/>
<text text-anchor="middle" x="832.12" y="-342.5" font-family="Helvetica,sans-Serif" font-size="10.00">Celeste/Level.h</text>
</a>
</g>
</g>
<!-- Node8&#45;&gt;Node22 -->
<g id="edge26_Node000008_Node000022" class="edge">
<title>Node8&#45;&gt;Node22</title>
<g id="a_edge26_Node000008_Node000022"><a xlink:title=" ">
<path fill="none" stroke="#63b8ff" d="M1035.31,-389.2C986.9,-379.15 918.42,-364.92 874.64,-355.83"/>
<polygon fill="#63b8ff" stroke="#63b8ff" points="1034.55,-392.62 1045.06,-391.22 1035.98,-385.76 1034.55,-392.62"/>
</a>
</g>
</g>
<!-- Node24 -->
<g id="Node000024" class="node">
<title>Node24</title>
<g id="a_Node000024"><a xlink:href="_respawn_zone_8h.html" target="_top" xlink:title=" ">
<polygon fill="white" stroke="#666666" points="1728.12,-356 1604.12,-356 1604.12,-336 1728.12,-336 1728.12,-356"/>
<text text-anchor="middle" x="1666.12" y="-342.5" font-family="Helvetica,sans-Serif" font-size="10.00">Celeste/RespawnZone.h</text>
</a>
</g>
</g>
<!-- Node8&#45;&gt;Node24 -->
<g id="edge29_Node000008_Node000024" class="edge">
<title>Node8&#45;&gt;Node24</title>
<g id="a_edge29_Node000008_Node000024"><a xlink:title=" ">
<path fill="none" stroke="#63b8ff" d="M1169.51,-394.68C1267.49,-386.52 1441.46,-371.52 1590.12,-356 1594.62,-355.53 1599.26,-355.03 1603.93,-354.51"/>
<polygon fill="#63b8ff" stroke="#63b8ff" points="1169.42,-391.17 1159.75,-395.49 1170,-398.15 1169.42,-391.17"/>
</a>
</g>
</g>
<!-- Node26 -->
<g id="Node000026" class="node">
<title>Node26</title>
<g id="a_Node000026"><a xlink:href="_spike_8h.html" target="_top" xlink:title=" ">
<polygon fill="white" stroke="#666666" points="1254,-356 1168.25,-356 1168.25,-336 1254,-336 1254,-356"/>
<text text-anchor="middle" x="1211.12" y="-342.5" font-family="Helvetica,sans-Serif" font-size="10.00">Celeste/Spike.h</text>
</a>
</g>
</g>
<!-- Node8&#45;&gt;Node26 -->
<g id="edge32_Node000008_Node000026" class="edge">
<title>Node8&#45;&gt;Node26</title>
<g id="a_edge32_Node000008_Node000026"><a xlink:title=" ">
<path fill="none" stroke="#63b8ff" d="M1123.25,-386.88C1144.36,-377.3 1171.7,-364.89 1190.24,-356.48"/>
<polygon fill="#63b8ff" stroke="#63b8ff" points="1121.89,-383.65 1114.23,-390.97 1124.78,-390.02 1121.89,-383.65"/>
</a>
</g>
</g>
<!-- Node28 -->
<g id="Node000028" class="node">
<title>Node28</title>
<g id="a_Node000028"><a xlink:href="_strawberry_8h.html" target="_top" xlink:title=" ">
<polygon fill="white" stroke="#666666" points="686.88,-356 579.38,-356 579.38,-336 686.88,-336 686.88,-356"/>
<text text-anchor="middle" x="633.12" y="-342.5" font-family="Helvetica,sans-Serif" font-size="10.00">Celeste/Strawberry.h</text>
</a>
</g>
</g>
<!-- Node8&#45;&gt;Node28 -->
<g id="edge35_Node000008_Node000028" class="edge">
<title>Node8&#45;&gt;Node28</title>
<g id="a_edge35_Node000008_Node000028"><a xlink:title=" ">
<path fill="none" stroke="#63b8ff" d="M1015.07,-391.93C922.19,-381.01 768.52,-362.93 687.3,-353.37"/>
<polygon fill="#63b8ff" stroke="#63b8ff" points="1014.52,-395.39 1024.86,-393.09 1015.34,-388.44 1014.52,-395.39"/>
</a>
</g>
</g>
<!-- Node32 -->
<g id="Node000032" class="node">
<title>Node32</title>
<g id="a_Node000032"><a xlink:href="_trampoline_8h.html" target="_top" xlink:title=" ">
<polygon fill="white" stroke="#666666" points="561.62,-356 452.62,-356 452.62,-336 561.62,-336 561.62,-356"/>
<text text-anchor="middle" x="507.12" y="-342.5" font-family="Helvetica,sans-Serif" font-size="10.00">Celeste/Trampoline.h</text>
</a>
</g>
</g>
<!-- Node8&#45;&gt;Node32 -->
<g id="edge41_Node000008_Node000032" class="edge">
<title>Node8&#45;&gt;Node32</title>
<g id="a_edge41_Node000008_Node000032"><a xlink:title=" ">
<path fill="none" stroke="#63b8ff" d="M1014.66,-395.68C912.61,-388.36 727.63,-374.02 570.12,-356 567.49,-355.7 564.8,-355.37 562.08,-355.03"/>
<polygon fill="#63b8ff" stroke="#63b8ff" points="1014.35,-399.17 1024.58,-396.39 1014.85,-392.19 1014.35,-399.17"/>
</a>
</g>
</g>
<!-- Node9&#45;&gt;Node10 -->
<g id="edge9_Node000009_Node000010" class="edge">
<title>Node9&#45;&gt;Node10</title>
<g id="a_edge9_Node000009_Node000010"><a xlink:title=" ">
<path fill="none" stroke="#63b8ff" d="M808.02,-221.44C755.18,-211.6 680.23,-197.64 630.91,-188.46"/>
<polygon fill="#63b8ff" stroke="#63b8ff" points="807.32,-224.87 817.79,-223.26 808.6,-217.98 807.32,-224.87"/>
</a>
</g>
</g>
<!-- Node11 -->
<g id="Node000011" class="node">
<title>Node11</title>
<g id="a_Node000011"><a xlink:href="_chapter_loader_8cpp.html" target="_top" xlink:title=" ">
<polygon fill="white" stroke="#666666" points="647.75,-132 512.5,-132 512.5,-112 647.75,-112 647.75,-132"/>
<text text-anchor="middle" x="580.12" y="-118.5" font-family="Helvetica,sans-Serif" font-size="10.00">Celeste/ChapterLoader.cpp</text>
</a>
</g>
</g>
<!-- Node10&#45;&gt;Node11 -->
<g id="edge10_Node000010_Node000011" class="edge">
<title>Node10&#45;&gt;Node11</title>
<g id="a_edge10_Node000010_Node000011"><a xlink:title=" ">
<path fill="none" stroke="#63b8ff" d="M580.12,-156.13C580.12,-147.9 580.12,-138.85 580.12,-132.3"/>
<polygon fill="#63b8ff" stroke="#63b8ff" points="576.63,-156.08 580.13,-166.08 583.63,-156.08 576.63,-156.08"/>
</a>
</g>
</g>
<!-- Node10&#45;&gt;Node12 -->
<g id="edge11_Node000010_Node000012" class="edge">
<title>Node10&#45;&gt;Node12</title>
<g id="a_edge11_Node000010_Node000012"><a xlink:title=" ">
<path fill="none" stroke="#63b8ff" d="M543.82,-163.66C517.47,-153.98 482.46,-141.12 458.93,-132.48"/>
<polygon fill="#63b8ff" stroke="#63b8ff" points="542.51,-166.91 553.1,-167.07 544.92,-160.34 542.51,-166.91"/>
</a>
</g>
</g>
<!-- Node14 -->
<g id="Node000014" class="node">
<title>Node14</title>
<g id="a_Node000014"><a xlink:href="_pause_menu_8cpp.html" target="_top" xlink:title=" ">
<polygon fill="white" stroke="#666666" points="788.75,-132 665.5,-132 665.5,-112 788.75,-112 788.75,-132"/>
<text text-anchor="middle" x="727.12" y="-118.5" font-family="Helvetica,sans-Serif" font-size="10.00">Celeste/PauseMenu.cpp</text>
</a>
</g>
</g>
<!-- Node10&#45;&gt;Node14 -->
<g id="edge14_Node000010_Node000014" class="edge">
<title>Node10&#45;&gt;Node14</title>
<g id="a_edge14_Node000010_Node000014"><a xlink:title=" ">
<path fill="none" stroke="#63b8ff" d="M616.43,-163.66C642.78,-153.98 677.79,-141.12 701.32,-132.48"/>
<polygon fill="#63b8ff" stroke="#63b8ff" points="615.33,-160.34 607.15,-167.07 617.74,-166.91 615.33,-160.34"/>
</a>
</g>
</g>
<!-- Node12&#45;&gt;Node5 -->
<g id="edge12_Node000012_Node000005" class="edge">
<title>Node12&#45;&gt;Node5</title>
<g id="a_edge12_Node000012_Node000005"><a xlink:title=" ">
<path fill="none" stroke="#63b8ff" d="M505.57,-111.89C1004.37,-71.87 1596.33,-67.48 1760.24,-67.03"/>
<polygon fill="#63b8ff" stroke="#63b8ff" points="505.37,-108.39 495.68,-112.69 505.93,-115.37 505.37,-108.39"/>
</a>
</g>
</g>
<!-- Node13 -->
<g id="Node000013" class="node">
<title>Node13</title>
<g id="a_Node000013"><a xlink:href="_level_manager_8cpp.html" target="_top" xlink:title=" ">
<polygon fill="white" stroke="#666666" points="499.25,-76 367,-76 367,-56 499.25,-56 499.25,-76"/>
<text text-anchor="middle" x="433.12" y="-62.5" font-family="Helvetica,sans-Serif" font-size="10.00">Celeste/LevelManager.cpp</text>
</a>
</g>
</g>
<!-- Node12&#45;&gt;Node13 -->
<g id="edge13_Node000012_Node000013" class="edge">
<title>Node12&#45;&gt;Node13</title>
<g id="a_edge13_Node000012_Node000013"><a xlink:title=" ">
<path fill="none" stroke="#63b8ff" d="M433.12,-100.13C433.12,-91.9 433.12,-82.85 433.12,-76.3"/>
<polygon fill="#63b8ff" stroke="#63b8ff" points="429.63,-100.08 433.13,-110.08 436.63,-100.08 429.63,-100.08"/>
</a>
</g>
</g>
<!-- Node15&#45;&gt;Node9 -->
<g id="edge17_Node000015_Node000009" class="edge">
<title>Node15&#45;&gt;Node9</title>
<g id="a_edge17_Node000015_Node000009"><a xlink:title=" ">
<path fill="none" stroke="#63b8ff" d="M1137.86,-331.87C1170.05,-320.37 1204.26,-302.06 1185.12,-280 1152.32,-242.18 1008.07,-235.36 926.62,-234.6"/>
<polygon fill="#63b8ff" stroke="#63b8ff" points="1136.88,-328.51 1128.53,-335.02 1139.13,-335.14 1136.88,-328.51"/>
</a>
</g>
</g>
<!-- Node16 -->
<g id="Node000016" class="node">
<title>Node16</title>
<g id="a_Node000016"><a xlink:href="_cog_platform_8cpp.html" target="_top" xlink:title=" ">
<polygon fill="white" stroke="#666666" points="1176.25,-300 1050,-300 1050,-280 1176.25,-280 1176.25,-300"/>
<text text-anchor="middle" x="1113.12" y="-286.5" font-family="Helvetica,sans-Serif" font-size="10.00">Celeste/CogPlatform.cpp</text>
</a>
</g>
</g>
<!-- Node15&#45;&gt;Node16 -->
<g id="edge18_Node000015_Node000016" class="edge">
<title>Node15&#45;&gt;Node16</title>
<g id="a_edge18_Node000015_Node000016"><a xlink:title=" ">
<path fill="none" stroke="#63b8ff" d="M1099.9,-325C1103.19,-316.54 1106.87,-307.08 1109.51,-300.3"/>
<polygon fill="#63b8ff" stroke="#63b8ff" points="1096.69,-323.59 1096.33,-334.18 1103.22,-326.13 1096.69,-323.59"/>
</a>
</g>
</g>
<!-- Node17&#45;&gt;Node9 -->
<g id="edge20_Node000017_Node000009" class="edge">
<title>Node17&#45;&gt;Node9</title>
<g id="a_edge20_Node000017_Node000009"><a xlink:title=" ">
<path fill="none" stroke="#63b8ff" d="M924.65,-330.24C912.04,-322.76 898.26,-312.57 889.12,-300 876.68,-282.88 872.35,-257.7 870.87,-244.26"/>
<polygon fill="#63b8ff" stroke="#63b8ff" points="922.64,-333.13 933.08,-334.92 926.04,-327.01 922.64,-333.13"/>
</a>
</g>
</g>
<!-- Node18 -->
<g id="Node000018" class="node">
<title>Node18</title>
<g id="a_Node000018"><a xlink:href="_crumble_block_8cpp.html" target="_top" xlink:title=" ">
<polygon fill="white" stroke="#666666" points="1031.62,-300 898.62,-300 898.62,-280 1031.62,-280 1031.62,-300"/>
<text text-anchor="middle" x="965.12" y="-286.5" font-family="Helvetica,sans-Serif" font-size="10.00">Celeste/CrumbleBlock.cpp</text>
</a>
</g>
</g>
<!-- Node17&#45;&gt;Node18 -->
<g id="edge21_Node000017_Node000018" class="edge">
<title>Node17&#45;&gt;Node18</title>
<g id="a_edge21_Node000017_Node000018"><a xlink:title=" ">
<path fill="none" stroke="#63b8ff" d="M958.94,-324.43C960.48,-316.11 962.17,-306.93 963.4,-300.3"/>
<polygon fill="#63b8ff" stroke="#63b8ff" points="955.52,-323.64 957.14,-334.11 962.4,-324.91 955.52,-323.64"/>
</a>
</g>
</g>
<!-- Node19&#45;&gt;Node9 -->
<g id="edge23_Node000019_Node000009" class="edge">
<title>Node19&#45;&gt;Node9</title>
<g id="a_edge23_Node000019_Node000009"><a xlink:title=" ">
<path fill="none" stroke="#63b8ff" d="M1353.49,-329.04C1370.8,-315.31 1389.17,-295.35 1375.12,-280 1345.31,-247.41 1051.71,-238.26 926.37,-235.83"/>
<polygon fill="#63b8ff" stroke="#63b8ff" points="1351.84,-325.9 1345.92,-334.69 1356.03,-331.51 1351.84,-325.9"/>
</a>
</g>
</g>
<!-- Node20 -->
<g id="Node000020" class="node">
<title>Node20</title>
<g id="a_Node000020"><a xlink:href="_dash_crystal_8cpp.html" target="_top" xlink:title=" ">
<polygon fill="white" stroke="#666666" points="1548.25,-300 1422,-300 1422,-280 1548.25,-280 1548.25,-300"/>
<text text-anchor="middle" x="1485.12" y="-286.5" font-family="Helvetica,sans-Serif" font-size="10.00">Celeste/DashCrystal.cpp</text>
</a>
</g>
</g>
<!-- Node19&#45;&gt;Node20 -->
<g id="edge24_Node000019_Node000020" class="edge">
<title>Node19&#45;&gt;Node20</title>
<g id="a_edge24_Node000019_Node000020"><a xlink:title=" ">
<path fill="none" stroke="#63b8ff" d="M1367.67,-331.92C1395.53,-322.21 1432.88,-309.2 1457.92,-300.48"/>
<polygon fill="#63b8ff" stroke="#63b8ff" points="1366.85,-328.5 1358.55,-335.1 1369.15,-335.11 1366.85,-328.5"/>
</a>
</g>
</g>
<!-- Node22&#45;&gt;Node9 -->
<g id="edge27_Node000022_Node000009" class="edge">
<title>Node22&#45;&gt;Node9</title>
<g id="a_edge27_Node000022_Node000009"><a xlink:title=" ">
<path fill="none" stroke="#63b8ff" d="M839.04,-324.97C847.3,-301.07 860.76,-262.11 866.89,-244.35"/>
<polygon fill="#63b8ff" stroke="#63b8ff" points="835.82,-323.6 835.86,-334.19 842.43,-325.88 835.82,-323.6"/>
</a>
</g>
</g>
<!-- Node23 -->
<g id="Node000023" class="node">
<title>Node23</title>
<g id="a_Node000023"><a xlink:href="_level_8cpp.html" target="_top" xlink:title=" ">
<polygon fill="white" stroke="#666666" points="804.5,-300 709.75,-300 709.75,-280 804.5,-280 804.5,-300"/>
<text text-anchor="middle" x="757.12" y="-286.5" font-family="Helvetica,sans-Serif" font-size="10.00">Celeste/Level.cpp</text>
</a>
</g>
</g>
<!-- Node22&#45;&gt;Node23 -->
<g id="edge28_Node000022_Node000023" class="edge">
<title>Node22&#45;&gt;Node23</title>
<g id="a_edge28_Node000022_Node000023"><a xlink:title=" ">
<path fill="none" stroke="#63b8ff" d="M809.9,-329C797.01,-319.72 781.22,-308.35 770.29,-300.48"/>
<polygon fill="#63b8ff" stroke="#63b8ff" points="807.67,-331.71 817.83,-334.71 811.76,-326.03 807.67,-331.71"/>
</a>
</g>
</g>
<!-- Node24&#45;&gt;Node9 -->
<g id="edge30_Node000024_Node000009" class="edge">
<title>Node24&#45;&gt;Node9</title>
<g id="a_edge30_Node000024_Node000009"><a xlink:title=" ">
<path fill="none" stroke="#63b8ff" d="M1651.75,-327.5C1637.81,-311.94 1615.14,-290.14 1590.12,-280 1529.29,-255.35 1085.32,-240.9 926.46,-236.47"/>
<polygon fill="#63b8ff" stroke="#63b8ff" points="1648.73,-329.36 1657.91,-334.65 1654.04,-324.79 1648.73,-329.36"/>
</a>
</g>
</g>
<!-- Node25 -->
<g id="Node000025" class="node">
<title>Node25</title>
<g id="a_Node000025"><a xlink:href="_respawn_zone_8cpp.html" target="_top" xlink:title=" ">
<polygon fill="white" stroke="#666666" points="1776.38,-300 1641.88,-300 1641.88,-280 1776.38,-280 1776.38,-300"/>
<text text-anchor="middle" x="1709.12" y="-286.5" font-family="Helvetica,sans-Serif" font-size="10.00">Celeste/RespawnZone.cpp</text>
</a>
</g>
</g>
<!-- Node24&#45;&gt;Node25 -->
<g id="edge31_Node000024_Node000025" class="edge">
<title>Node24&#45;&gt;Node25</title>
<g id="a_edge31_Node000024_Node000025"><a xlink:title=" ">
<path fill="none" stroke="#63b8ff" d="M1680.68,-326.72C1687.75,-317.84 1695.95,-307.55 1701.72,-300.3"/>
<polygon fill="#63b8ff" stroke="#63b8ff" points="1678.05,-324.41 1674.56,-334.41 1683.53,-328.77 1678.05,-324.41"/>
</a>
</g>
</g>
<!-- Node26&#45;&gt;Node9 -->
<g id="edge33_Node000026_Node000009" class="edge">
<title>Node26&#45;&gt;Node9</title>
<g id="a_edge33_Node000026_Node000009"><a xlink:title=" ">
<path fill="none" stroke="#63b8ff" d="M1214.2,-324.23C1215.07,-309.85 1213.48,-291.32 1202.12,-280 1164.44,-242.42 1010.98,-235.57 926.52,-234.72"/>
<polygon fill="#63b8ff" stroke="#63b8ff" points="1210.74,-323.69 1213.15,-334.01 1217.7,-324.44 1210.74,-323.69"/>
</a>
</g>
</g>
<!-- Node27 -->
<g id="Node000027" class="node">
<title>Node27</title>
<g id="a_Node000027"><a xlink:href="_spike_8cpp.html" target="_top" xlink:title=" ">
<polygon fill="white" stroke="#666666" points="1366.25,-300 1270,-300 1270,-280 1366.25,-280 1366.25,-300"/>
<text text-anchor="middle" x="1318.12" y="-286.5" font-family="Helvetica,sans-Serif" font-size="10.00">Celeste/Spike.cpp</text>
</a>
</g>
</g>
<!-- Node26&#45;&gt;Node27 -->
<g id="edge34_Node000026_Node000027" class="edge">
<title>Node26&#45;&gt;Node27</title>
<g id="a_edge34_Node000026_Node000027"><a xlink:title=" ">
<path fill="none" stroke="#63b8ff" d="M1239.9,-330.48C1258.77,-320.96 1282.9,-308.78 1299.34,-300.48"/>
<polygon fill="#63b8ff" stroke="#63b8ff" points="1238.46,-327.28 1231.11,-334.91 1241.62,-333.53 1238.46,-327.28"/>
</a>
</g>
</g>
<!-- Node28&#45;&gt;Node9 -->
<g id="edge36_Node000028_Node000009" class="edge">
<title>Node28&#45;&gt;Node9</title>
<g id="a_edge36_Node000028_Node000009"><a xlink:title=" ">
<path fill="none" stroke="#63b8ff" d="M600.24,-330.68C575.7,-318.02 548.97,-298.71 565.12,-280 596.6,-243.54 734.6,-236.1 813.77,-234.9"/>
<polygon fill="#63b8ff" stroke="#63b8ff" points="598.61,-333.78 609.13,-335.01 601.68,-327.49 598.61,-333.78"/>
</a>
</g>
</g>
<!-- Node29 -->
<g id="Node000029" class="node">
<title>Node29</title>
<g id="a_Node000029"><a xlink:href="_flying_strawberry_8h.html" target="_top" xlink:title=" ">
<polygon fill="white" stroke="#666666" points="480,-300 346.25,-300 346.25,-280 480,-280 480,-300"/>
<text text-anchor="middle" x="413.12" y="-286.5" font-family="Helvetica,sans-Serif" font-size="10.00">Celeste/FlyingStrawberry.h</text>
</a>
</g>
</g>
<!-- Node28&#45;&gt;Node29 -->
<g id="edge37_Node000028_Node000029" class="edge">
<title>Node28&#45;&gt;Node29</title>
<g id="a_edge37_Node000028_Node000029"><a xlink:title=" ">
<path fill="none" stroke="#63b8ff" d="M583.47,-332.81C543.55,-323.01 488.28,-309.45 451.65,-300.46"/>
<polygon fill="#63b8ff" stroke="#63b8ff" points="582.54,-336.19 593.08,-335.17 584.2,-329.39 582.54,-336.19"/>
</a>
</g>
</g>
<!-- Node31 -->
<g id="Node000031" class="node">
<title>Node31</title>
<g id="a_Node000031"><a xlink:href="_strawberry_8cpp.html" target="_top" xlink:title=" ">
<polygon fill="white" stroke="#666666" points="692.12,-300 574.12,-300 574.12,-280 692.12,-280 692.12,-300"/>
<text text-anchor="middle" x="633.12" y="-286.5" font-family="Helvetica,sans-Serif" font-size="10.00">Celeste/Strawberry.cpp</text>
</a>
</g>
</g>
<!-- Node28&#45;&gt;Node31 -->
<g id="edge40_Node000028_Node000031" class="edge">
<title>Node28&#45;&gt;Node31</title>
<g id="a_edge40_Node000028_Node000031"><a xlink:title=" ">
<path fill="none" stroke="#63b8ff" d="M633.12,-324.13C633.12,-315.9 633.12,-306.85 633.12,-300.3"/>
<polygon fill="#63b8ff" stroke="#63b8ff" points="629.63,-324.08 633.13,-334.08 636.63,-324.08 629.63,-324.08"/>
</a>
</g>
</g>
<!-- Node29&#45;&gt;Node9 -->
<g id="edge38_Node000029_Node000009" class="edge">
<title>Node29&#45;&gt;Node9</title>
<g id="a_edge38_Node000029_Node000009"><a xlink:title=" ">
<path fill="none" stroke="#63b8ff" d="M491.23,-279.77C582.93,-268.94 732.77,-251.23 813.81,-241.65"/>
<polygon fill="#63b8ff" stroke="#63b8ff" points="491.09,-276.26 481.57,-280.91 491.91,-283.21 491.09,-276.26"/>
</a>
</g>
</g>
<!-- Node30 -->
<g id="Node000030" class="node">
<title>Node30</title>
<g id="a_Node000030"><a xlink:href="_flying_strawberry_8cpp.html" target="_top" xlink:title=" ">
<polygon fill="white" stroke="#666666" points="485.25,-244 341,-244 341,-224 485.25,-224 485.25,-244"/>
<text text-anchor="middle" x="413.12" y="-230.5" font-family="Helvetica,sans-Serif" font-size="10.00">Celeste/FlyingStrawberry.cpp</text>
</a>
</g>
</g>
<!-- Node29&#45;&gt;Node30 -->
<g id="edge39_Node000029_Node000030" class="edge">
<title>Node29&#45;&gt;Node30</title>
<g id="a_edge39_Node000029_Node000030"><a xlink:title=" ">
<path fill="none" stroke="#63b8ff" d="M413.12,-268.13C413.12,-259.9 413.12,-250.85 413.12,-244.3"/>
<polygon fill="#63b8ff" stroke="#63b8ff" points="409.63,-268.08 413.13,-278.08 416.63,-268.08 409.63,-268.08"/>
</a>
</g>
</g>
<!-- Node32&#45;&gt;Node9 -->
<g id="edge42_Node000032_Node000009" class="edge">
<title>Node32&#45;&gt;Node9</title>
<g id="a_edge42_Node000032_Node000009"><a xlink:title=" ">
<path fill="none" stroke="#63b8ff" d="M516.3,-325.75C524.54,-310.72 538.11,-290.64 556.12,-280 598.62,-254.9 735.55,-242.88 813.84,-237.94"/>
<polygon fill="#63b8ff" stroke="#63b8ff" points="513.39,-323.76 511.95,-334.26 519.62,-326.95 513.39,-323.76"/>
</a>
</g>
</g>
<!-- Node33 -->
<g id="Node000033" class="node">
<title>Node33</title>
<g id="a_Node000033"><a xlink:href="_trampoline_8cpp.html" target="_top" xlink:title=" ">
<polygon fill="white" stroke="#666666" points="327.88,-300 208.38,-300 208.38,-280 327.88,-280 327.88,-300"/>
<text text-anchor="middle" x="268.12" y="-286.5" font-family="Helvetica,sans-Serif" font-size="10.00">Celeste/Trampoline.cpp</text>
</a>
</g>
</g>
<!-- Node32&#45;&gt;Node33 -->
<g id="edge43_Node000032_Node000033" class="edge">
<title>Node32&#45;&gt;Node33</title>
<g id="a_edge43_Node000032_Node000033"><a xlink:title=" ">
<path fill="none" stroke="#63b8ff" d="M454.02,-333C410.59,-323.19 350.03,-309.51 309.98,-300.46"/>
<polygon fill="#63b8ff" stroke="#63b8ff" points="453.22,-336.41 463.74,-335.2 454.76,-329.58 453.22,-336.41"/>
</a>
</g>
</g>
<!-- Node36&#45;&gt;Node5 -->
<g id="edge48_Node000036_Node000005" class="edge">
<title>Node36&#45;&gt;Node5</title>
<g id="a_edge48_Node000036_Node000005"><a xlink:title=" ">
<path fill="none" stroke="#63b8ff" d="M1842.12,-492.32C1842.12,-470.22 1842.12,-434.13 1842.12,-403 1842.12,-403 1842.12,-403 1842.12,-177 1842.12,-137.8 1820.3,-94.84 1809.73,-76.33"/>
<polygon fill="#63b8ff" stroke="#63b8ff" points="1838.63,-492.07 1842.13,-502.07 1845.63,-492.07 1838.63,-492.07"/>
</a>
</g>
</g>
<!-- Node37 -->
<g id="Node000037" class="node">
<title>Node37</title>
<g id="a_Node000037"><a xlink:href="_snow_flake_manager_8cpp.html" target="_top" xlink:title=" ">
<polygon fill="white" stroke="#666666" points="2028,-468 1870.25,-468 1870.25,-448 2028,-448 2028,-468"/>
<text text-anchor="middle" x="1949.12" y="-454.5" font-family="Helvetica,sans-Serif" font-size="10.00">Celeste/SnowFlakeManager.cpp</text>
</a>
</g>
</g>
<!-- Node36&#45;&gt;Node37 -->
<g id="edge49_Node000036_Node000037" class="edge">
<title>Node36&#45;&gt;Node37</title>
<g id="a_edge49_Node000036_Node000037"><a xlink:title=" ">
<path fill="none" stroke="#63b8ff" d="M1870.9,-498.48C1889.77,-488.96 1913.9,-476.78 1930.34,-468.48"/>
<polygon fill="#63b8ff" stroke="#63b8ff" points="1869.46,-495.28 1862.11,-502.91 1872.62,-501.53 1869.46,-495.28"/>
</a>
</g>
</g>
</g>
</svg>
