<?xml version="1.0" encoding="UTF-8" standalone="no"?>
<!DOCTYPE svg PUBLIC "-//W3C//DTD SVG 1.1//EN"
 "http://www.w3.org/Graphics/SVG/1.1/DTD/svg11.dtd">
<!-- Generated by graphviz version 12.2.1 (20241206.2353)
 -->
<!-- Title: Celeste/Hair.cpp Pages: 1 -->
<svg width="522pt" height="308pt"
 viewBox="0.00 0.00 522.28 308.00" xmlns="http://www.w3.org/2000/svg" xmlns:xlink="http://www.w3.org/1999/xlink">
<g id="graph0" class="graph" transform="scale(1 1) rotate(0) translate(4 304)">
<title>Celeste/Hair.cpp</title>
<!-- Node1 -->
<g id="Node000001" class="node">
<title>Node1</title>
<g id="a_Node000001"><a xlink:title=" ">
<polygon fill="#999999" stroke="#666666" points="431.25,-300 341.75,-300 341.75,-280 431.25,-280 431.25,-300"/>
<text text-anchor="middle" x="386.5" y="-286.5" font-family="Helvetica,sans-Serif" font-size="10.00">Celeste/Hair.cpp</text>
</a>
</g>
</g>
<!-- Node2 -->
<g id="Node000002" class="node">
<title>Node2</title>
<g id="a_Node000002"><a xlink:href="pch_8h.html" target="_top" xlink:title=" ">
<polygon fill="white" stroke="#666666" points="264.5,-132 224.5,-132 224.5,-112 264.5,-112 264.5,-132"/>
<text text-anchor="middle" x="244.5" y="-118.5" font-family="Helvetica,sans-Serif" font-size="10.00">pch.h</text>
</a>
</g>
</g>
<!-- Node1&#45;&gt;Node2 -->
<g id="edge1_Node000001_Node000002" class="edge">
<title>Node1&#45;&gt;Node2</title>
<g id="a_edge1_Node000001_Node000002"><a xlink:title=" ">
<path fill="none" stroke="#63b8ff" d="M371.29,-279.71C346.47,-263.83 297.16,-229.16 268.5,-188 259.03,-174.4 252.8,-156.6 249.07,-143.07"/>
<polygon fill="#63b8ff" stroke="#63b8ff" points="252.51,-142.41 246.69,-133.55 245.72,-144.11 252.51,-142.41"/>
</a>
</g>
</g>
<!-- Node11 -->
<g id="Node000011" class="node">
<title>Node11</title>
<g id="a_Node000011"><a xlink:href="_hair_8h.html" target="_top" xlink:title=" ">
<polygon fill="white" stroke="#666666" points="407.62,-244 365.38,-244 365.38,-224 407.62,-224 407.62,-244"/>
<text text-anchor="middle" x="386.5" y="-230.5" font-family="Helvetica,sans-Serif" font-size="10.00">Hair.h</text>
</a>
</g>
</g>
<!-- Node1&#45;&gt;Node11 -->
<g id="edge11_Node000001_Node000011" class="edge">
<title>Node1&#45;&gt;Node11</title>
<g id="a_edge11_Node000001_Node000011"><a xlink:title=" ">
<path fill="none" stroke="#63b8ff" d="M386.5,-279.59C386.5,-273.01 386.5,-263.96 386.5,-255.73"/>
<polygon fill="#63b8ff" stroke="#63b8ff" points="390,-255.81 386.5,-245.81 383,-255.81 390,-255.81"/>
</a>
</g>
</g>
<!-- Node16 -->
<g id="Node000016" class="node">
<title>Node16</title>
<g id="a_Node000016"><a xlink:href="utils_8h.html" target="_top" xlink:title=" ">
<polygon fill="white" stroke="#666666" points="481.62,-244 439.38,-244 439.38,-224 481.62,-224 481.62,-244"/>
<text text-anchor="middle" x="460.5" y="-230.5" font-family="Helvetica,sans-Serif" font-size="10.00">utils.h</text>
</a>
</g>
</g>
<!-- Node1&#45;&gt;Node16 -->
<g id="edge24_Node000001_Node000016" class="edge">
<title>Node1&#45;&gt;Node16</title>
<g id="a_edge24_Node000001_Node000016"><a xlink:title=" ">
<path fill="none" stroke="#63b8ff" d="M399.39,-279.59C410.21,-271.7 425.91,-260.24 438.69,-250.92"/>
<polygon fill="#63b8ff" stroke="#63b8ff" points="440.52,-253.91 446.54,-245.19 436.39,-248.26 440.52,-253.91"/>
</a>
</g>
</g>
<!-- Node3 -->
<g id="Node000003" class="node">
<title>Node3</title>
<g id="a_Node000003"><a xlink:title=" ">
<polygon fill="#e0e0e0" stroke="#999999" points="300.38,-76 256.62,-76 256.62,-56 300.38,-56 300.38,-76"/>
<text text-anchor="middle" x="278.5" y="-62.5" font-family="Helvetica,sans-Serif" font-size="10.00">SDL.h</text>
</a>
</g>
</g>
<!-- Node2&#45;&gt;Node3 -->
<g id="edge2_Node000002_Node000003" class="edge">
<title>Node2&#45;&gt;Node3</title>
<g id="a_edge2_Node000002_Node000003"><a xlink:title=" ">
<path fill="none" stroke="#63b8ff" d="M250.42,-111.59C254.86,-104.55 261.08,-94.67 266.54,-86"/>
<polygon fill="#63b8ff" stroke="#63b8ff" points="269.47,-87.91 271.84,-77.58 263.55,-84.18 269.47,-87.91"/>
</a>
</g>
</g>
<!-- Node4 -->
<g id="Node000004" class="node">
<title>Node4</title>
<g id="a_Node000004"><a xlink:title=" ">
<polygon fill="#e0e0e0" stroke="#999999" points="396.25,-76 318.75,-76 318.75,-56 396.25,-56 396.25,-76"/>
<text text-anchor="middle" x="357.5" y="-62.5" font-family="Helvetica,sans-Serif" font-size="10.00">SDL_opengl.h</text>
</a>
</g>
</g>
<!-- Node2&#45;&gt;Node4 -->
<g id="edge3_Node000002_Node000004" class="edge">
<title>Node2&#45;&gt;Node4</title>
<g id="a_edge3_Node000002_Node000004"><a xlink:title=" ">
<path fill="none" stroke="#63b8ff" d="M264.18,-111.59C281.66,-103.24 307.45,-90.92 327.5,-81.34"/>
<polygon fill="#63b8ff" stroke="#63b8ff" points="328.78,-84.6 336.3,-77.13 325.77,-78.29 328.78,-84.6"/>
</a>
</g>
</g>
<!-- Node5 -->
<g id="Node000005" class="node">
<title>Node5</title>
<g id="a_Node000005"><a xlink:title=" ">
<polygon fill="#e0e0e0" stroke="#999999" points="472.5,-76 414.5,-76 414.5,-56 472.5,-56 472.5,-76"/>
<text text-anchor="middle" x="443.5" y="-62.5" font-family="Helvetica,sans-Serif" font-size="10.00">SDL_ttf.h</text>
</a>
</g>
</g>
<!-- Node2&#45;&gt;Node5 -->
<g id="edge4_Node000002_Node000005" class="edge">
<title>Node2&#45;&gt;Node5</title>
<g id="a_edge4_Node000002_Node000005"><a xlink:title=" ">
<path fill="none" stroke="#63b8ff" d="M264.75,-114.6C267.68,-113.7 270.66,-112.82 273.5,-112 317.66,-99.31 368.64,-85.99 403.17,-77.16"/>
<polygon fill="#63b8ff" stroke="#63b8ff" points="403.92,-80.58 412.75,-74.72 402.2,-73.8 403.92,-80.58"/>
</a>
</g>
</g>
<!-- Node6 -->
<g id="Node000006" class="node">
<title>Node6</title>
<g id="a_Node000006"><a xlink:title=" ">
<polygon fill="#e0e0e0" stroke="#999999" points="73,-76 0,-76 0,-56 73,-56 73,-76"/>
<text text-anchor="middle" x="36.5" y="-62.5" font-family="Helvetica,sans-Serif" font-size="10.00">SDL_mixer.h</text>
</a>
</g>
</g>
<!-- Node2&#45;&gt;Node6 -->
<g id="edge5_Node000002_Node000006" class="edge">
<title>Node2&#45;&gt;Node6</title>
<g id="a_edge5_Node000002_Node000006"><a xlink:title=" ">
<path fill="none" stroke="#63b8ff" d="M224.18,-115.72C191.92,-107.35 128.14,-90.79 83.95,-79.32"/>
<polygon fill="#63b8ff" stroke="#63b8ff" points="84.91,-75.95 74.35,-76.83 83.15,-82.73 84.91,-75.95"/>
</a>
</g>
</g>
<!-- Node7 -->
<g id="Node000007" class="node">
<title>Node7</title>
<g id="a_Node000007"><a xlink:title=" ">
<polygon fill="#e0e0e0" stroke="#999999" points="166.12,-76 90.88,-76 90.88,-56 166.12,-56 166.12,-76"/>
<text text-anchor="middle" x="128.5" y="-62.5" font-family="Helvetica,sans-Serif" font-size="10.00">SDL_image.h</text>
</a>
</g>
</g>
<!-- Node2&#45;&gt;Node7 -->
<g id="edge6_Node000002_Node000007" class="edge">
<title>Node2&#45;&gt;Node7</title>
<g id="a_edge6_Node000002_Node000007"><a xlink:title=" ">
<path fill="none" stroke="#63b8ff" d="M224.29,-111.59C206.27,-103.21 179.63,-90.8 159.02,-81.21"/>
<polygon fill="#63b8ff" stroke="#63b8ff" points="160.78,-78.17 150.24,-77.12 157.82,-84.51 160.78,-78.17"/>
</a>
</g>
</g>
<!-- Node8 -->
<g id="Node000008" class="node">
<title>Node8</title>
<g id="a_Node000008"><a xlink:href="structs_8h.html" target="_top" xlink:title=" ">
<polygon fill="white" stroke="#666666" points="238.62,-76 184.38,-76 184.38,-56 238.62,-56 238.62,-76"/>
<text text-anchor="middle" x="211.5" y="-62.5" font-family="Helvetica,sans-Serif" font-size="10.00">structs.h</text>
</a>
</g>
</g>
<!-- Node2&#45;&gt;Node8 -->
<g id="edge7_Node000002_Node000008" class="edge">
<title>Node2&#45;&gt;Node8</title>
<g id="a_edge7_Node000002_Node000008"><a xlink:title=" ">
<path fill="none" stroke="#63b8ff" d="M238.75,-111.59C234.45,-104.55 228.41,-94.67 223.11,-86"/>
<polygon fill="#63b8ff" stroke="#63b8ff" points="226.17,-84.3 217.97,-77.59 220.2,-87.95 226.17,-84.3"/>
</a>
</g>
</g>
<!-- Node9 -->
<g id="Node000009" class="node">
<title>Node9</title>
<g id="a_Node000009"><a xlink:title=" ">
<polygon fill="#e0e0e0" stroke="#999999" points="231.5,-20 191.5,-20 191.5,0 231.5,0 231.5,-20"/>
<text text-anchor="middle" x="211.5" y="-6.5" font-family="Helvetica,sans-Serif" font-size="10.00">string</text>
</a>
</g>
</g>
<!-- Node8&#45;&gt;Node9 -->
<g id="edge8_Node000008_Node000009" class="edge">
<title>Node8&#45;&gt;Node9</title>
<g id="a_edge8_Node000008_Node000009"><a xlink:title=" ">
<path fill="none" stroke="#63b8ff" d="M211.5,-55.59C211.5,-49.01 211.5,-39.96 211.5,-31.73"/>
<polygon fill="#63b8ff" stroke="#63b8ff" points="215,-31.81 211.5,-21.81 208,-31.81 215,-31.81"/>
</a>
</g>
</g>
<!-- Node10 -->
<g id="Node000010" class="node">
<title>Node10</title>
<g id="a_Node000010"><a xlink:href="_vector2f_8h.html" target="_top" xlink:title=" ">
<polygon fill="white" stroke="#666666" points="419.62,-20 359.38,-20 359.38,0 419.62,0 419.62,-20"/>
<text text-anchor="middle" x="389.5" y="-6.5" font-family="Helvetica,sans-Serif" font-size="10.00">Vector2f.h</text>
</a>
</g>
</g>
<!-- Node8&#45;&gt;Node10 -->
<g id="edge9_Node000008_Node000010" class="edge">
<title>Node8&#45;&gt;Node10</title>
<g id="a_edge9_Node000008_Node000010"><a xlink:title=" ">
<path fill="none" stroke="#63b8ff" d="M237.24,-55.59C266.45,-46.16 314.19,-31.65 348.51,-21.76"/>
<polygon fill="#63b8ff" stroke="#63b8ff" points="349.02,-25.25 357.68,-19.14 347.1,-18.52 349.02,-25.25"/>
</a>
</g>
</g>
<!-- Node10&#45;&gt;Node8 -->
<g id="edge10_Node000010_Node000008" class="edge">
<title>Node10&#45;&gt;Node8</title>
<g id="a_edge10_Node000010_Node000008"><a xlink:title=" ">
<path fill="none" stroke="#63b8ff" d="M363.58,-20.46C333.69,-30.12 284.54,-45.04 250.15,-54.91"/>
<polygon fill="#63b8ff" stroke="#63b8ff" points="249.23,-51.54 240.56,-57.64 251.14,-58.27 249.23,-51.54"/>
</a>
</g>
</g>
<!-- Node12 -->
<g id="Node000012" class="node">
<title>Node12</title>
<g id="a_Node000012"><a xlink:href="_transform_8h.html" target="_top" xlink:title=" ">
<polygon fill="white" stroke="#666666" points="420.75,-188 352.25,-188 352.25,-168 420.75,-168 420.75,-188"/>
<text text-anchor="middle" x="386.5" y="-174.5" font-family="Helvetica,sans-Serif" font-size="10.00">Transform.h</text>
</a>
</g>
</g>
<!-- Node11&#45;&gt;Node12 -->
<g id="edge12_Node000011_Node000012" class="edge">
<title>Node11&#45;&gt;Node12</title>
<g id="a_edge12_Node000011_Node000012"><a xlink:title=" ">
<path fill="none" stroke="#63b8ff" d="M386.5,-223.59C386.5,-217.01 386.5,-207.96 386.5,-199.73"/>
<polygon fill="#63b8ff" stroke="#63b8ff" points="390,-199.81 386.5,-189.81 383,-199.81 390,-199.81"/>
</a>
</g>
</g>
<!-- Node14 -->
<g id="Node000014" class="node">
<title>Node14</title>
<g id="a_Node000014"><a xlink:title=" ">
<polygon fill="#e0e0e0" stroke="#999999" points="482,-188 439,-188 439,-168 482,-168 482,-188"/>
<text text-anchor="middle" x="460.5" y="-174.5" font-family="Helvetica,sans-Serif" font-size="10.00">vector</text>
</a>
</g>
</g>
<!-- Node11&#45;&gt;Node14 -->
<g id="edge21_Node000011_Node000014" class="edge">
<title>Node11&#45;&gt;Node14</title>
<g id="a_edge21_Node000011_Node000014"><a xlink:title=" ">
<path fill="none" stroke="#63b8ff" d="M399.39,-223.59C410.21,-215.7 425.91,-204.24 438.69,-194.92"/>
<polygon fill="#63b8ff" stroke="#63b8ff" points="440.52,-197.91 446.54,-189.19 436.39,-192.26 440.52,-197.91"/>
</a>
</g>
</g>
<!-- Node15 -->
<g id="Node000015" class="node">
<title>Node15</title>
<g id="a_Node000015"><a xlink:href="_texture_8h.html" target="_top" xlink:title=" ">
<polygon fill="white" stroke="#666666" points="333.75,-188 277.25,-188 277.25,-168 333.75,-168 333.75,-188"/>
<text text-anchor="middle" x="305.5" y="-174.5" font-family="Helvetica,sans-Serif" font-size="10.00">Texture.h</text>
</a>
</g>
</g>
<!-- Node11&#45;&gt;Node15 -->
<g id="edge22_Node000011_Node000015" class="edge">
<title>Node11&#45;&gt;Node15</title>
<g id="a_edge22_Node000011_Node000015"><a xlink:title=" ">
<path fill="none" stroke="#63b8ff" d="M372.39,-223.59C360.5,-215.67 343.23,-204.16 329.22,-194.82"/>
<polygon fill="#63b8ff" stroke="#63b8ff" points="331.24,-191.95 320.98,-189.32 327.36,-197.78 331.24,-191.95"/>
</a>
</g>
</g>
<!-- Node12&#45;&gt;Node10 -->
<g id="edge20_Node000012_Node000010" class="edge">
<title>Node12&#45;&gt;Node10</title>
<g id="a_edge20_Node000012_Node000010"><a xlink:title=" ">
<path fill="none" stroke="#63b8ff" d="M400.58,-167.56C422.78,-151.71 465.09,-117.4 481.5,-76 492.11,-49.24 460.1,-31.76 430.98,-21.74"/>
<polygon fill="#63b8ff" stroke="#63b8ff" points="432.09,-18.42 421.5,-18.72 429.96,-25.09 432.09,-18.42"/>
</a>
</g>
</g>
<!-- Node13 -->
<g id="Node000013" class="node">
<title>Node13</title>
<g id="a_Node000013"><a xlink:href="base_8h.html" target="_top" xlink:title=" ">
<polygon fill="white" stroke="#666666" points="328.12,-132 282.88,-132 282.88,-112 328.12,-112 328.12,-132"/>
<text text-anchor="middle" x="305.5" y="-118.5" font-family="Helvetica,sans-Serif" font-size="10.00">base.h</text>
</a>
</g>
</g>
<!-- Node12&#45;&gt;Node13 -->
<g id="edge13_Node000012_Node000013" class="edge">
<title>Node12&#45;&gt;Node13</title>
<g id="a_edge13_Node000012_Node000013"><a xlink:title=" ">
<path fill="none" stroke="#63b8ff" d="M372.39,-167.59C360.5,-159.67 343.23,-148.16 329.22,-138.82"/>
<polygon fill="#63b8ff" stroke="#63b8ff" points="331.24,-135.95 320.98,-133.32 327.36,-141.78 331.24,-135.95"/>
</a>
</g>
</g>
<!-- Node13&#45;&gt;Node3 -->
<g id="edge14_Node000013_Node000003" class="edge">
<title>Node13&#45;&gt;Node3</title>
<g id="a_edge14_Node000013_Node000003"><a xlink:title=" ">
<path fill="none" stroke="#63b8ff" d="M300.8,-111.59C297.35,-104.7 292.55,-95.1 288.29,-86.57"/>
<polygon fill="#63b8ff" stroke="#63b8ff" points="291.43,-85.03 283.83,-77.65 285.17,-88.16 291.43,-85.03"/>
</a>
</g>
</g>
<!-- Node13&#45;&gt;Node4 -->
<g id="edge15_Node000013_Node000004" class="edge">
<title>Node13&#45;&gt;Node4</title>
<g id="a_edge15_Node000013_Node000004"><a xlink:title=" ">
<path fill="none" stroke="#63b8ff" d="M314.56,-111.59C321.72,-104.16 331.91,-93.58 340.57,-84.58"/>
<polygon fill="#63b8ff" stroke="#63b8ff" points="343.08,-87.02 347.5,-77.39 338.04,-82.16 343.08,-87.02"/>
</a>
</g>
</g>
<!-- Node13&#45;&gt;Node5 -->
<g id="edge16_Node000013_Node000005" class="edge">
<title>Node13&#45;&gt;Node5</title>
<g id="a_edge16_Node000013_Node000005"><a xlink:title=" ">
<path fill="none" stroke="#63b8ff" d="M328.6,-111.96C350.52,-103.38 383.76,-90.38 408.85,-80.56"/>
<polygon fill="#63b8ff" stroke="#63b8ff" points="409.95,-83.89 417.99,-76.98 407.4,-77.37 409.95,-83.89"/>
</a>
</g>
</g>
<!-- Node13&#45;&gt;Node6 -->
<g id="edge17_Node000013_Node000006" class="edge">
<title>Node13&#45;&gt;Node6</title>
<g id="a_edge17_Node000013_Node000006"><a xlink:title=" ">
<path fill="none" stroke="#63b8ff" d="M282.49,-114.27C279.48,-113.46 276.42,-112.68 273.5,-112 192.43,-93.04 168.66,-92.52 84.47,-76.54"/>
<polygon fill="#63b8ff" stroke="#63b8ff" points="85.3,-73.14 74.82,-74.69 83.98,-80.01 85.3,-73.14"/>
</a>
</g>
</g>
<!-- Node13&#45;&gt;Node7 -->
<g id="edge18_Node000013_Node000007" class="edge">
<title>Node13&#45;&gt;Node7</title>
<g id="a_edge18_Node000013_Node000007"><a xlink:title=" ">
<path fill="none" stroke="#63b8ff" d="M282.72,-114.05C254.41,-105.41 205.55,-90.51 170.41,-79.79"/>
<polygon fill="#63b8ff" stroke="#63b8ff" points="171.55,-76.48 160.97,-76.91 169.51,-83.17 171.55,-76.48"/>
</a>
</g>
</g>
<!-- Node13&#45;&gt;Node8 -->
<g id="edge19_Node000013_Node000008" class="edge">
<title>Node13&#45;&gt;Node8</title>
<g id="a_edge19_Node000013_Node000008"><a xlink:title=" ">
<path fill="none" stroke="#63b8ff" d="M289.13,-111.59C274.93,-103.44 254.12,-91.48 237.62,-82"/>
<polygon fill="#63b8ff" stroke="#63b8ff" points="239.73,-79.18 229.31,-77.23 236.24,-85.25 239.73,-79.18"/>
</a>
</g>
</g>
<!-- Node15&#45;&gt;Node13 -->
<g id="edge23_Node000015_Node000013" class="edge">
<title>Node15&#45;&gt;Node13</title>
<g id="a_edge23_Node000015_Node000013"><a xlink:title=" ">
<path fill="none" stroke="#63b8ff" d="M305.5,-167.59C305.5,-161.01 305.5,-151.96 305.5,-143.73"/>
<polygon fill="#63b8ff" stroke="#63b8ff" points="309,-143.81 305.5,-133.81 302,-143.81 309,-143.81"/>
</a>
</g>
</g>
<!-- Node16&#45;&gt;Node10 -->
<g id="edge26_Node000016_Node000010" class="edge">
<title>Node16&#45;&gt;Node10</title>
<g id="a_edge26_Node000016_Node000010"><a xlink:title=" ">
<path fill="none" stroke="#63b8ff" d="M469.42,-223.52C476.84,-214.97 486.91,-201.67 491.5,-188 510.19,-132.34 528.98,-104.9 496.5,-56 481.98,-34.15 454.56,-22.88 431.11,-17.09"/>
<polygon fill="#63b8ff" stroke="#63b8ff" points="431.98,-13.7 421.47,-14.98 430.49,-20.54 431.98,-13.7"/>
</a>
</g>
</g>
<!-- Node16&#45;&gt;Node14 -->
<g id="edge25_Node000016_Node000014" class="edge">
<title>Node16&#45;&gt;Node14</title>
<g id="a_edge25_Node000016_Node000014"><a xlink:title=" ">
<path fill="none" stroke="#63b8ff" d="M460.5,-223.59C460.5,-217.01 460.5,-207.96 460.5,-199.73"/>
<polygon fill="#63b8ff" stroke="#63b8ff" points="464,-199.81 460.5,-189.81 457,-199.81 464,-199.81"/>
</a>
</g>
</g>
</g>
</svg>
