<?xml version="1.0" encoding="UTF-8" standalone="no"?>
<!DOCTYPE svg PUBLIC "-//W3C//DTD SVG 1.1//EN"
 "http://www.w3.org/Graphics/SVG/1.1/DTD/svg11.dtd">
<!-- Generated by graphviz version 12.2.1 (20241206.2353)
 -->
<!-- Title: Celeste/InteractableItem.cpp Pages: 1 -->
<svg width="725pt" height="532pt"
 viewBox="0.00 0.00 724.75 532.00" xmlns="http://www.w3.org/2000/svg" xmlns:xlink="http://www.w3.org/1999/xlink">
<g id="graph0" class="graph" transform="scale(1 1) rotate(0) translate(4 528)">
<title>Celeste/InteractableItem.cpp</title>
<!-- Node1 -->
<g id="Node000001" class="node">
<title>Node1</title>
<g id="a_Node000001"><a xlink:title=" ">
<polygon fill="#999999" stroke="#666666" points="207,-524 65,-524 65,-504 207,-504 207,-524"/>
<text text-anchor="middle" x="136" y="-510.5" font-family="Helvetica,sans-Serif" font-size="10.00">Celeste/InteractableItem.cpp</text>
</a>
</g>
</g>
<!-- Node2 -->
<g id="Node000002" class="node">
<title>Node2</title>
<g id="a_Node000002"><a xlink:href="pch_8h.html" target="_top" xlink:title=" ">
<polygon fill="white" stroke="#666666" points="305,-132 265,-132 265,-112 305,-112 305,-132"/>
<text text-anchor="middle" x="285" y="-118.5" font-family="Helvetica,sans-Serif" font-size="10.00">pch.h</text>
</a>
</g>
</g>
<!-- Node1&#45;&gt;Node2 -->
<g id="edge1_Node000001_Node000002" class="edge">
<title>Node1&#45;&gt;Node2</title>
<g id="a_edge1_Node000001_Node000002"><a xlink:title=" ">
<path fill="none" stroke="#63b8ff" d="M105.48,-503.52C65.38,-488.94 0,-456.9 0,-403 0,-403 0,-403 0,-233 0,-179.13 179.44,-141.49 253.56,-128.24"/>
<polygon fill="#63b8ff" stroke="#63b8ff" points="253.77,-131.76 263.01,-126.59 252.56,-124.87 253.77,-131.76"/>
</a>
</g>
</g>
<!-- Node11 -->
<g id="Node000011" class="node">
<title>Node11</title>
<g id="a_Node000011"><a xlink:href="_interactable_item_8h.html" target="_top" xlink:title=" ">
<polygon fill="white" stroke="#666666" points="315.38,-468 220.62,-468 220.62,-448 315.38,-448 315.38,-468"/>
<text text-anchor="middle" x="268" y="-454.5" font-family="Helvetica,sans-Serif" font-size="10.00">InteractableItem.h</text>
</a>
</g>
</g>
<!-- Node1&#45;&gt;Node11 -->
<g id="edge11_Node000001_Node000011" class="edge">
<title>Node1&#45;&gt;Node11</title>
<g id="a_edge11_Node000001_Node000011"><a xlink:title=" ">
<path fill="none" stroke="#63b8ff" d="M158.99,-503.59C179.78,-495.09 210.65,-482.46 234.24,-472.81"/>
<polygon fill="#63b8ff" stroke="#63b8ff" points="235.5,-476.08 243.43,-469.05 232.85,-469.6 235.5,-476.08"/>
</a>
</g>
</g>
<!-- Node3 -->
<g id="Node000003" class="node">
<title>Node3</title>
<g id="a_Node000003"><a xlink:title=" ">
<polygon fill="#e0e0e0" stroke="#999999" points="147.88,-76 104.12,-76 104.12,-56 147.88,-56 147.88,-76"/>
<text text-anchor="middle" x="126" y="-62.5" font-family="Helvetica,sans-Serif" font-size="10.00">SDL.h</text>
</a>
</g>
</g>
<!-- Node2&#45;&gt;Node3 -->
<g id="edge2_Node000002_Node000003" class="edge">
<title>Node2&#45;&gt;Node3</title>
<g id="a_edge2_Node000002_Node000003"><a xlink:title=" ">
<path fill="none" stroke="#63b8ff" d="M264.54,-114.05C237.75,-104.95 190.49,-88.9 158.71,-78.11"/>
<polygon fill="#63b8ff" stroke="#63b8ff" points="160.2,-74.92 149.6,-75.02 157.95,-81.55 160.2,-74.92"/>
</a>
</g>
</g>
<!-- Node4 -->
<g id="Node000004" class="node">
<title>Node4</title>
<g id="a_Node000004"><a xlink:title=" ">
<polygon fill="#e0e0e0" stroke="#999999" points="243.75,-76 166.25,-76 166.25,-56 243.75,-56 243.75,-76"/>
<text text-anchor="middle" x="205" y="-62.5" font-family="Helvetica,sans-Serif" font-size="10.00">SDL_opengl.h</text>
</a>
</g>
</g>
<!-- Node2&#45;&gt;Node4 -->
<g id="edge3_Node000002_Node000004" class="edge">
<title>Node2&#45;&gt;Node4</title>
<g id="a_edge3_Node000002_Node000004"><a xlink:title=" ">
<path fill="none" stroke="#63b8ff" d="M271.07,-111.59C259.32,-103.67 242.27,-92.16 228.43,-82.82"/>
<polygon fill="#63b8ff" stroke="#63b8ff" points="230.54,-80.02 220.3,-77.33 226.63,-85.82 230.54,-80.02"/>
</a>
</g>
</g>
<!-- Node5 -->
<g id="Node000005" class="node">
<title>Node5</title>
<g id="a_Node000005"><a xlink:title=" ">
<polygon fill="#e0e0e0" stroke="#999999" points="392,-76 334,-76 334,-56 392,-56 392,-76"/>
<text text-anchor="middle" x="363" y="-62.5" font-family="Helvetica,sans-Serif" font-size="10.00">SDL_ttf.h</text>
</a>
</g>
</g>
<!-- Node2&#45;&gt;Node5 -->
<g id="edge4_Node000002_Node000005" class="edge">
<title>Node2&#45;&gt;Node5</title>
<g id="a_edge4_Node000002_Node000005"><a xlink:title=" ">
<path fill="none" stroke="#63b8ff" d="M298.59,-111.59C310.04,-103.67 326.66,-92.16 340.16,-82.82"/>
<polygon fill="#63b8ff" stroke="#63b8ff" points="341.83,-85.91 348.06,-77.34 337.85,-80.16 341.83,-85.91"/>
</a>
</g>
</g>
<!-- Node6 -->
<g id="Node000006" class="node">
<title>Node6</title>
<g id="a_Node000006"><a xlink:title=" ">
<polygon fill="#e0e0e0" stroke="#999999" points="483.5,-76 410.5,-76 410.5,-56 483.5,-56 483.5,-76"/>
<text text-anchor="middle" x="447" y="-62.5" font-family="Helvetica,sans-Serif" font-size="10.00">SDL_mixer.h</text>
</a>
</g>
</g>
<!-- Node2&#45;&gt;Node6 -->
<g id="edge5_Node000002_Node000006" class="edge">
<title>Node2&#45;&gt;Node6</title>
<g id="a_edge5_Node000002_Node000006"><a xlink:title=" ">
<path fill="none" stroke="#63b8ff" d="M305.19,-114.27C330.76,-105.75 375.38,-90.87 407.75,-80.08"/>
<polygon fill="#63b8ff" stroke="#63b8ff" points="408.83,-83.41 417.21,-76.93 406.61,-76.77 408.83,-83.41"/>
</a>
</g>
</g>
<!-- Node7 -->
<g id="Node000007" class="node">
<title>Node7</title>
<g id="a_Node000007"><a xlink:title=" ">
<polygon fill="#e0e0e0" stroke="#999999" points="576.62,-76 501.38,-76 501.38,-56 576.62,-56 576.62,-76"/>
<text text-anchor="middle" x="539" y="-62.5" font-family="Helvetica,sans-Serif" font-size="10.00">SDL_image.h</text>
</a>
</g>
</g>
<!-- Node2&#45;&gt;Node7 -->
<g id="edge6_Node000002_Node000007" class="edge">
<title>Node2&#45;&gt;Node7</title>
<g id="a_edge6_Node000002_Node000007"><a xlink:title=" ">
<path fill="none" stroke="#63b8ff" d="M305.21,-114.44C308.14,-113.57 311.14,-112.73 314,-112 322.54,-109.83 426.69,-89.17 490.25,-76.62"/>
<polygon fill="#63b8ff" stroke="#63b8ff" points="490.62,-80.11 499.75,-74.74 489.26,-73.24 490.62,-80.11"/>
</a>
</g>
</g>
<!-- Node8 -->
<g id="Node000008" class="node">
<title>Node8</title>
<g id="a_Node000008"><a xlink:href="structs_8h.html" target="_top" xlink:title=" ">
<polygon fill="white" stroke="#666666" points="316.12,-76 261.88,-76 261.88,-56 316.12,-56 316.12,-76"/>
<text text-anchor="middle" x="289" y="-62.5" font-family="Helvetica,sans-Serif" font-size="10.00">structs.h</text>
</a>
</g>
</g>
<!-- Node2&#45;&gt;Node8 -->
<g id="edge7_Node000002_Node000008" class="edge">
<title>Node2&#45;&gt;Node8</title>
<g id="a_edge7_Node000002_Node000008"><a xlink:title=" ">
<path fill="none" stroke="#63b8ff" d="M285.7,-111.59C286.18,-105.01 286.85,-95.96 287.46,-87.73"/>
<polygon fill="#63b8ff" stroke="#63b8ff" points="290.95,-88.04 288.2,-77.81 283.97,-87.52 290.95,-88.04"/>
</a>
</g>
</g>
<!-- Node9 -->
<g id="Node000009" class="node">
<title>Node9</title>
<g id="a_Node000009"><a xlink:title=" ">
<polygon fill="#e0e0e0" stroke="#999999" points="625,-20 585,-20 585,0 625,0 625,-20"/>
<text text-anchor="middle" x="605" y="-6.5" font-family="Helvetica,sans-Serif" font-size="10.00">string</text>
</a>
</g>
</g>
<!-- Node8&#45;&gt;Node9 -->
<g id="edge8_Node000008_Node000009" class="edge">
<title>Node8&#45;&gt;Node9</title>
<g id="a_edge8_Node000008_Node000009"><a xlink:title=" ">
<path fill="none" stroke="#63b8ff" d="M316.46,-57.88C319.34,-57.21 322.22,-56.57 325,-56 414.49,-37.66 521.35,-22.26 573.39,-15.18"/>
<polygon fill="#63b8ff" stroke="#63b8ff" points="573.57,-18.69 583.01,-13.88 572.64,-11.75 573.57,-18.69"/>
</a>
</g>
</g>
<!-- Node10 -->
<g id="Node000010" class="node">
<title>Node10</title>
<g id="a_Node000010"><a xlink:href="_vector2f_8h.html" target="_top" xlink:title=" ">
<polygon fill="white" stroke="#666666" points="213.12,-20 152.88,-20 152.88,0 213.12,0 213.12,-20"/>
<text text-anchor="middle" x="183" y="-6.5" font-family="Helvetica,sans-Serif" font-size="10.00">Vector2f.h</text>
</a>
</g>
</g>
<!-- Node8&#45;&gt;Node10 -->
<g id="edge9_Node000008_Node000010" class="edge">
<title>Node8&#45;&gt;Node10</title>
<g id="a_edge9_Node000008_Node000010"><a xlink:title=" ">
<path fill="none" stroke="#63b8ff" d="M265.27,-55.59C247.62,-47.44 223.87,-35.48 206.33,-26"/>
<polygon fill="#63b8ff" stroke="#63b8ff" points="208.1,-22.98 197.65,-21.21 204.71,-29.11 208.1,-22.98"/>
</a>
</g>
</g>
<!-- Node10&#45;&gt;Node8 -->
<g id="edge10_Node000010_Node000008" class="edge">
<title>Node10&#45;&gt;Node8</title>
<g id="a_edge10_Node000010_Node000008"><a xlink:title=" ">
<path fill="none" stroke="#63b8ff" d="M206.89,-20.48C224.57,-28.66 248.32,-40.62 265.82,-50.08"/>
<polygon fill="#63b8ff" stroke="#63b8ff" points="264.03,-53.09 274.48,-54.86 267.42,-46.96 264.03,-53.09"/>
</a>
</g>
</g>
<!-- Node12 -->
<g id="Node000012" class="node">
<title>Node12</title>
<g id="a_Node000012"><a xlink:href="_character_8h.html" target="_top" xlink:title=" ">
<polygon fill="white" stroke="#666666" points="372.5,-412 305.5,-412 305.5,-392 372.5,-392 372.5,-412"/>
<text text-anchor="middle" x="339" y="-398.5" font-family="Helvetica,sans-Serif" font-size="10.00">Character.h</text>
</a>
</g>
</g>
<!-- Node11&#45;&gt;Node12 -->
<g id="edge12_Node000011_Node000012" class="edge">
<title>Node11&#45;&gt;Node12</title>
<g id="a_edge12_Node000011_Node000012"><a xlink:title=" ">
<path fill="none" stroke="#63b8ff" d="M280.37,-447.59C290.65,-439.77 305.52,-428.46 317.71,-419.19"/>
<polygon fill="#63b8ff" stroke="#63b8ff" points="319.73,-422.05 325.57,-413.21 315.49,-416.48 319.73,-422.05"/>
</a>
</g>
</g>
<!-- Node13 -->
<g id="Node000013" class="node">
<title>Node13</title>
<g id="a_Node000013"><a xlink:href="_character_controller_8h.html" target="_top" xlink:title=" ">
<polygon fill="white" stroke="#666666" points="230.5,-356 121.5,-356 121.5,-336 230.5,-336 230.5,-356"/>
<text text-anchor="middle" x="176" y="-342.5" font-family="Helvetica,sans-Serif" font-size="10.00">CharacterController.h</text>
</a>
</g>
</g>
<!-- Node12&#45;&gt;Node13 -->
<g id="edge13_Node000012_Node000013" class="edge">
<title>Node12&#45;&gt;Node13</title>
<g id="a_edge13_Node000012_Node000013"><a xlink:title=" ">
<path fill="none" stroke="#63b8ff" d="M310.61,-391.59C284.24,-382.86 244.74,-369.77 215.34,-360.03"/>
<polygon fill="#63b8ff" stroke="#63b8ff" points="216.64,-356.78 206.05,-356.96 214.44,-363.42 216.64,-356.78"/>
</a>
</g>
</g>
<!-- Node20 -->
<g id="Node000020" class="node">
<title>Node20</title>
<g id="a_Node000020"><a xlink:href="_hair_8h.html" target="_top" xlink:title=" ">
<polygon fill="white" stroke="#666666" points="294.12,-244 251.88,-244 251.88,-224 294.12,-224 294.12,-244"/>
<text text-anchor="middle" x="273" y="-230.5" font-family="Helvetica,sans-Serif" font-size="10.00">Hair.h</text>
</a>
</g>
</g>
<!-- Node12&#45;&gt;Node20 -->
<g id="edge29_Node000012_Node000020" class="edge">
<title>Node12&#45;&gt;Node20</title>
<g id="a_edge29_Node000012_Node000020"><a xlink:title=" ">
<path fill="none" stroke="#63b8ff" d="M335.26,-391.6C324.83,-365.35 295.2,-290.84 280.91,-254.89"/>
<polygon fill="#63b8ff" stroke="#63b8ff" points="284.2,-253.7 277.26,-245.7 277.7,-256.29 284.2,-253.7"/>
</a>
</g>
</g>
<!-- Node22 -->
<g id="Node000022" class="node">
<title>Node22</title>
<g id="a_Node000022"><a xlink:href="_character_texture_manager_8h.html" target="_top" xlink:title=" ">
<polygon fill="white" stroke="#666666" points="469.38,-356 332.62,-356 332.62,-336 469.38,-336 469.38,-356"/>
<text text-anchor="middle" x="401" y="-342.5" font-family="Helvetica,sans-Serif" font-size="10.00">CharacterTextureManager.h</text>
</a>
</g>
</g>
<!-- Node12&#45;&gt;Node22 -->
<g id="edge34_Node000012_Node000022" class="edge">
<title>Node12&#45;&gt;Node22</title>
<g id="a_edge34_Node000012_Node000022"><a xlink:title=" ">
<path fill="none" stroke="#63b8ff" d="M349.8,-391.59C358.6,-383.93 371.25,-372.91 381.77,-363.75"/>
<polygon fill="#63b8ff" stroke="#63b8ff" points="383.94,-366.5 389.18,-357.29 379.34,-361.22 383.94,-366.5"/>
</a>
</g>
</g>
<!-- Node25 -->
<g id="Node000025" class="node">
<title>Node25</title>
<g id="a_Node000025"><a xlink:href="_character_state_8h.html" target="_top" xlink:title=" ">
<polygon fill="white" stroke="#666666" points="604.12,-300 513.88,-300 513.88,-280 604.12,-280 604.12,-300"/>
<text text-anchor="middle" x="559" y="-286.5" font-family="Helvetica,sans-Serif" font-size="10.00">CharacterState.h</text>
</a>
</g>
</g>
<!-- Node12&#45;&gt;Node25 -->
<g id="edge41_Node000012_Node000025" class="edge">
<title>Node12&#45;&gt;Node25</title>
<g id="a_edge41_Node000012_Node000025"><a xlink:title=" ">
<path fill="none" stroke="#63b8ff" d="M372.96,-393.68C401.99,-386.57 444.29,-374.18 478,-356 502.14,-342.98 526.2,-322.48 541.74,-307.98"/>
<polygon fill="#63b8ff" stroke="#63b8ff" points="543.94,-310.73 548.75,-301.29 539.1,-305.67 543.94,-310.73"/>
</a>
</g>
</g>
<!-- Node26 -->
<g id="Node000026" class="node">
<title>Node26</title>
<g id="a_Node000026"><a xlink:href="_character_sound_manager_8h.html" target="_top" xlink:title=" ">
<polygon fill="white" stroke="#666666" points="691.12,-356 558.88,-356 558.88,-336 691.12,-336 691.12,-356"/>
<text text-anchor="middle" x="625" y="-342.5" font-family="Helvetica,sans-Serif" font-size="10.00">CharacterSoundManager.h</text>
</a>
</g>
</g>
<!-- Node12&#45;&gt;Node26 -->
<g id="edge42_Node000012_Node000026" class="edge">
<title>Node12&#45;&gt;Node26</title>
<g id="a_edge42_Node000012_Node000026"><a xlink:title=" ">
<path fill="none" stroke="#63b8ff" d="M372.93,-394.59C419.82,-385.74 505.22,-369.62 563.5,-358.61"/>
<polygon fill="#63b8ff" stroke="#63b8ff" points="564.11,-362.06 573.29,-356.76 562.82,-355.18 564.11,-362.06"/>
</a>
</g>
</g>
<!-- Node14 -->
<g id="Node000014" class="node">
<title>Node14</title>
<g id="a_Node000014"><a xlink:href="_game_object_8h.html" target="_top" xlink:title=" ">
<polygon fill="white" stroke="#666666" points="195.5,-300 116.5,-300 116.5,-280 195.5,-280 195.5,-300"/>
<text text-anchor="middle" x="156" y="-286.5" font-family="Helvetica,sans-Serif" font-size="10.00">GameObject.h</text>
</a>
</g>
</g>
<!-- Node13&#45;&gt;Node14 -->
<g id="edge14_Node000013_Node000014" class="edge">
<title>Node13&#45;&gt;Node14</title>
<g id="a_edge14_Node000013_Node000014"><a xlink:title=" ">
<path fill="none" stroke="#63b8ff" d="M172.52,-335.59C169.99,-328.78 166.49,-319.32 163.36,-310.86"/>
<polygon fill="#63b8ff" stroke="#63b8ff" points="166.72,-309.88 159.97,-301.72 160.16,-312.31 166.72,-309.88"/>
</a>
</g>
</g>
<!-- Node17 -->
<g id="Node000017" class="node">
<title>Node17</title>
<g id="a_Node000017"><a xlink:href="_vector2x2f_8h.html" target="_top" xlink:title=" ">
<polygon fill="white" stroke="#666666" points="98.38,-300 27.62,-300 27.62,-280 98.38,-280 98.38,-300"/>
<text text-anchor="middle" x="63" y="-286.5" font-family="Helvetica,sans-Serif" font-size="10.00">Vector2x2f.h</text>
</a>
</g>
</g>
<!-- Node13&#45;&gt;Node17 -->
<g id="edge24_Node000013_Node000017" class="edge">
<title>Node13&#45;&gt;Node17</title>
<g id="a_edge24_Node000013_Node000017"><a xlink:title=" ">
<path fill="none" stroke="#63b8ff" d="M156.32,-335.59C138.84,-327.24 113.05,-314.92 93,-305.34"/>
<polygon fill="#63b8ff" stroke="#63b8ff" points="94.73,-302.29 84.2,-301.13 91.72,-308.6 94.73,-302.29"/>
</a>
</g>
</g>
<!-- Node19 -->
<g id="Node000019" class="node">
<title>Node19</title>
<g id="a_Node000019"><a xlink:title=" ">
<polygon fill="#e0e0e0" stroke="#999999" points="296.5,-188 253.5,-188 253.5,-168 296.5,-168 296.5,-188"/>
<text text-anchor="middle" x="275" y="-174.5" font-family="Helvetica,sans-Serif" font-size="10.00">vector</text>
</a>
</g>
</g>
<!-- Node13&#45;&gt;Node19 -->
<g id="edge28_Node000013_Node000019" class="edge">
<title>Node13&#45;&gt;Node19</title>
<g id="a_edge28_Node000013_Node000019"><a xlink:title=" ">
<path fill="none" stroke="#63b8ff" d="M182.02,-335.83C187.85,-326.83 196.83,-312.65 204,-300 222.71,-266.97 223.28,-256.44 243,-224 248.46,-215.01 255.12,-205.47 260.94,-197.49"/>
<polygon fill="#63b8ff" stroke="#63b8ff" points="263.65,-199.71 266.82,-189.6 258.04,-195.53 263.65,-199.71"/>
</a>
</g>
</g>
<!-- Node15 -->
<g id="Node000015" class="node">
<title>Node15</title>
<g id="a_Node000015"><a xlink:href="_transform_8h.html" target="_top" xlink:title=" ">
<polygon fill="white" stroke="#666666" points="214.25,-188 145.75,-188 145.75,-168 214.25,-168 214.25,-188"/>
<text text-anchor="middle" x="180" y="-174.5" font-family="Helvetica,sans-Serif" font-size="10.00">Transform.h</text>
</a>
</g>
</g>
<!-- Node14&#45;&gt;Node15 -->
<g id="edge15_Node000014_Node000015" class="edge">
<title>Node14&#45;&gt;Node15</title>
<g id="a_edge15_Node000014_Node000015"><a xlink:title=" ">
<path fill="none" stroke="#63b8ff" d="M158.05,-279.62C161.91,-261.92 170.35,-223.24 175.57,-199.32"/>
<polygon fill="#63b8ff" stroke="#63b8ff" points="178.92,-200.35 177.64,-189.83 172.09,-198.86 178.92,-200.35"/>
</a>
</g>
</g>
<!-- Node15&#45;&gt;Node10 -->
<g id="edge23_Node000015_Node000010" class="edge">
<title>Node15&#45;&gt;Node10</title>
<g id="a_edge23_Node000015_Node000010"><a xlink:title=" ">
<path fill="none" stroke="#63b8ff" d="M164.33,-167.56C133.17,-147.54 68.61,-99.14 95,-56 105.31,-39.15 124.14,-28.36 141.74,-21.58"/>
<polygon fill="#63b8ff" stroke="#63b8ff" points="142.73,-24.94 151.03,-18.35 140.43,-18.33 142.73,-24.94"/>
</a>
</g>
</g>
<!-- Node16 -->
<g id="Node000016" class="node">
<title>Node16</title>
<g id="a_Node000016"><a xlink:href="base_8h.html" target="_top" xlink:title=" ">
<polygon fill="white" stroke="#666666" points="368.62,-132 323.38,-132 323.38,-112 368.62,-112 368.62,-132"/>
<text text-anchor="middle" x="346" y="-118.5" font-family="Helvetica,sans-Serif" font-size="10.00">base.h</text>
</a>
</g>
</g>
<!-- Node15&#45;&gt;Node16 -->
<g id="edge16_Node000015_Node000016" class="edge">
<title>Node15&#45;&gt;Node16</title>
<g id="a_edge16_Node000015_Node000016"><a xlink:title=" ">
<path fill="none" stroke="#63b8ff" d="M208.91,-167.59C237.66,-158.24 281.74,-143.9 312.11,-134.02"/>
<polygon fill="#63b8ff" stroke="#63b8ff" points="313.16,-137.36 321.58,-130.94 310.99,-130.71 313.16,-137.36"/>
</a>
</g>
</g>
<!-- Node16&#45;&gt;Node3 -->
<g id="edge17_Node000016_Node000003" class="edge">
<title>Node16&#45;&gt;Node3</title>
<g id="a_edge17_Node000016_Node000003"><a xlink:title=" ">
<path fill="none" stroke="#63b8ff" d="M322.96,-114.38C319.95,-113.55 316.91,-112.74 314,-112 248.02,-95.17 228.2,-94.06 159.32,-76.48"/>
<polygon fill="#63b8ff" stroke="#63b8ff" points="160.33,-73.13 149.77,-74.02 158.58,-79.91 160.33,-73.13"/>
</a>
</g>
</g>
<!-- Node16&#45;&gt;Node4 -->
<g id="edge18_Node000016_Node000004" class="edge">
<title>Node16&#45;&gt;Node4</title>
<g id="a_edge18_Node000016_Node000004"><a xlink:title=" ">
<path fill="none" stroke="#63b8ff" d="M323.03,-112.2C300.5,-103.57 265.84,-90.3 239.9,-80.37"/>
<polygon fill="#63b8ff" stroke="#63b8ff" points="241.38,-77.19 230.79,-76.88 238.88,-83.72 241.38,-77.19"/>
</a>
</g>
</g>
<!-- Node16&#45;&gt;Node5 -->
<g id="edge19_Node000016_Node000005" class="edge">
<title>Node16&#45;&gt;Node5</title>
<g id="a_edge19_Node000016_Node000005"><a xlink:title=" ">
<path fill="none" stroke="#63b8ff" d="M348.96,-111.59C351.08,-104.86 354.02,-95.53 356.66,-87.15"/>
<polygon fill="#63b8ff" stroke="#63b8ff" points="359.95,-88.33 359.62,-77.74 353.28,-86.23 359.95,-88.33"/>
</a>
</g>
</g>
<!-- Node16&#45;&gt;Node6 -->
<g id="edge20_Node000016_Node000006" class="edge">
<title>Node16&#45;&gt;Node6</title>
<g id="a_edge20_Node000016_Node000006"><a xlink:title=" ">
<path fill="none" stroke="#63b8ff" d="M363.59,-111.59C378.92,-103.4 401.42,-91.37 419.19,-81.87"/>
<polygon fill="#63b8ff" stroke="#63b8ff" points="420.77,-84.99 427.94,-77.19 417.47,-78.82 420.77,-84.99"/>
</a>
</g>
</g>
<!-- Node16&#45;&gt;Node7 -->
<g id="edge21_Node000016_Node000007" class="edge">
<title>Node16&#45;&gt;Node7</title>
<g id="a_edge21_Node000016_Node000007"><a xlink:title=" ">
<path fill="none" stroke="#63b8ff" d="M368.9,-114.59C399.68,-105.98 455.07,-90.48 494.27,-79.52"/>
<polygon fill="#63b8ff" stroke="#63b8ff" points="494.96,-82.96 503.65,-76.89 493.08,-76.21 494.96,-82.96"/>
</a>
</g>
</g>
<!-- Node16&#45;&gt;Node8 -->
<g id="edge22_Node000016_Node000008" class="edge">
<title>Node16&#45;&gt;Node8</title>
<g id="a_edge22_Node000016_Node000008"><a xlink:title=" ">
<path fill="none" stroke="#63b8ff" d="M336.07,-111.59C328.06,-104.01 316.58,-93.13 306.97,-84.02"/>
<polygon fill="#63b8ff" stroke="#63b8ff" points="309.58,-81.68 299.91,-77.34 304.77,-86.76 309.58,-81.68"/>
</a>
</g>
</g>
<!-- Node18 -->
<g id="Node000018" class="node">
<title>Node18</title>
<g id="a_Node000018"><a xlink:href="utils_8h.html" target="_top" xlink:title=" ">
<polygon fill="white" stroke="#666666" points="84.12,-244 41.88,-244 41.88,-224 84.12,-224 84.12,-244"/>
<text text-anchor="middle" x="63" y="-230.5" font-family="Helvetica,sans-Serif" font-size="10.00">utils.h</text>
</a>
</g>
</g>
<!-- Node17&#45;&gt;Node18 -->
<g id="edge25_Node000017_Node000018" class="edge">
<title>Node17&#45;&gt;Node18</title>
<g id="a_edge25_Node000017_Node000018"><a xlink:title=" ">
<path fill="none" stroke="#63b8ff" d="M63,-279.59C63,-273.01 63,-263.96 63,-255.73"/>
<polygon fill="#63b8ff" stroke="#63b8ff" points="66.5,-255.81 63,-245.81 59.5,-255.81 66.5,-255.81"/>
</a>
</g>
</g>
<!-- Node18&#45;&gt;Node10 -->
<g id="edge27_Node000018_Node000010" class="edge">
<title>Node18&#45;&gt;Node10</title>
<g id="a_edge27_Node000018_Node000010"><a xlink:title=" ">
<path fill="none" stroke="#63b8ff" d="M61.29,-223.81C56.58,-195.59 46.22,-108.97 85,-56 98.53,-37.52 121.51,-26.42 141.82,-19.88"/>
<polygon fill="#63b8ff" stroke="#63b8ff" points="142.68,-23.27 151.3,-17.11 140.72,-16.55 142.68,-23.27"/>
</a>
</g>
</g>
<!-- Node18&#45;&gt;Node19 -->
<g id="edge26_Node000018_Node000019" class="edge">
<title>Node18&#45;&gt;Node19</title>
<g id="a_edge26_Node000018_Node000019"><a xlink:title=" ">
<path fill="none" stroke="#63b8ff" d="M84.49,-227.53C121.7,-218.05 198.31,-198.53 242.2,-187.35"/>
<polygon fill="#63b8ff" stroke="#63b8ff" points="242.84,-190.8 251.66,-184.94 241.11,-184.02 242.84,-190.8"/>
</a>
</g>
</g>
<!-- Node20&#45;&gt;Node15 -->
<g id="edge30_Node000020_Node000015" class="edge">
<title>Node20&#45;&gt;Node15</title>
<g id="a_edge30_Node000020_Node000015"><a xlink:title=" ">
<path fill="none" stroke="#63b8ff" d="M256.8,-223.59C242.75,-215.44 222.17,-203.48 205.84,-194"/>
<polygon fill="#63b8ff" stroke="#63b8ff" points="208.04,-191.23 197.63,-189.24 204.53,-197.29 208.04,-191.23"/>
</a>
</g>
</g>
<!-- Node20&#45;&gt;Node19 -->
<g id="edge31_Node000020_Node000019" class="edge">
<title>Node20&#45;&gt;Node19</title>
<g id="a_edge31_Node000020_Node000019"><a xlink:title=" ">
<path fill="none" stroke="#63b8ff" d="M273.35,-223.59C273.59,-217.01 273.93,-207.96 274.23,-199.73"/>
<polygon fill="#63b8ff" stroke="#63b8ff" points="277.73,-199.93 274.6,-189.81 270.73,-199.67 277.73,-199.93"/>
</a>
</g>
</g>
<!-- Node21 -->
<g id="Node000021" class="node">
<title>Node21</title>
<g id="a_Node000021"><a xlink:href="_texture_8h.html" target="_top" xlink:title=" ">
<polygon fill="white" stroke="#666666" points="374.25,-188 317.75,-188 317.75,-168 374.25,-168 374.25,-188"/>
<text text-anchor="middle" x="346" y="-174.5" font-family="Helvetica,sans-Serif" font-size="10.00">Texture.h</text>
</a>
</g>
</g>
<!-- Node20&#45;&gt;Node21 -->
<g id="edge32_Node000020_Node000021" class="edge">
<title>Node20&#45;&gt;Node21</title>
<g id="a_edge32_Node000020_Node000021"><a xlink:title=" ">
<path fill="none" stroke="#63b8ff" d="M285.72,-223.59C296.39,-215.7 311.88,-204.24 324.48,-194.92"/>
<polygon fill="#63b8ff" stroke="#63b8ff" points="326.26,-197.96 332.21,-189.2 322.09,-192.33 326.26,-197.96"/>
</a>
</g>
</g>
<!-- Node21&#45;&gt;Node16 -->
<g id="edge33_Node000021_Node000016" class="edge">
<title>Node21&#45;&gt;Node16</title>
<g id="a_edge33_Node000021_Node000016"><a xlink:title=" ">
<path fill="none" stroke="#63b8ff" d="M346,-167.59C346,-161.01 346,-151.96 346,-143.73"/>
<polygon fill="#63b8ff" stroke="#63b8ff" points="349.5,-143.81 346,-133.81 342.5,-143.81 349.5,-143.81"/>
</a>
</g>
</g>
<!-- Node22&#45;&gt;Node19 -->
<g id="edge40_Node000022_Node000019" class="edge">
<title>Node22&#45;&gt;Node19</title>
<g id="a_edge40_Node000022_Node000019"><a xlink:title=" ">
<path fill="none" stroke="#63b8ff" d="M384.89,-335.54C372.04,-327.38 354.23,-314.62 342,-300 317.64,-270.88 321.71,-257.03 303,-224 298.02,-215.2 292.16,-205.67 287.09,-197.65"/>
<polygon fill="#63b8ff" stroke="#63b8ff" points="290.17,-195.98 281.83,-189.45 284.28,-199.76 290.17,-195.98"/>
</a>
</g>
</g>
<!-- Node23 -->
<g id="Node000023" class="node">
<title>Node23</title>
<g id="a_Node000023"><a xlink:href="_animation_manager_a_n_d_hair_8h.html" target="_top" xlink:title=" ">
<polygon fill="white" stroke="#666666" points="495.5,-300 350.5,-300 350.5,-280 495.5,-280 495.5,-300"/>
<text text-anchor="middle" x="423" y="-286.5" font-family="Helvetica,sans-Serif" font-size="10.00">AnimationManagerANDHair.h</text>
</a>
</g>
</g>
<!-- Node22&#45;&gt;Node23 -->
<g id="edge35_Node000022_Node000023" class="edge">
<title>Node22&#45;&gt;Node23</title>
<g id="a_edge35_Node000022_Node000023"><a xlink:title=" ">
<path fill="none" stroke="#63b8ff" d="M404.83,-335.59C407.61,-328.78 411.46,-319.32 414.91,-310.86"/>
<polygon fill="#63b8ff" stroke="#63b8ff" points="418.11,-312.28 418.64,-301.7 411.63,-309.64 418.11,-312.28"/>
</a>
</g>
</g>
<!-- Node22&#45;&gt;Node25 -->
<g id="edge39_Node000022_Node000025" class="edge">
<title>Node22&#45;&gt;Node25</title>
<g id="a_edge39_Node000022_Node000025"><a xlink:title=" ">
<path fill="none" stroke="#63b8ff" d="M428.52,-335.59C453.97,-326.9 492.03,-313.89 520.49,-304.16"/>
<polygon fill="#63b8ff" stroke="#63b8ff" points="521.5,-307.52 529.83,-300.97 519.24,-300.89 521.5,-307.52"/>
</a>
</g>
</g>
<!-- Node23&#45;&gt;Node19 -->
<g id="edge38_Node000023_Node000019" class="edge">
<title>Node23&#45;&gt;Node19</title>
<g id="a_edge38_Node000023_Node000019"><a xlink:title=" ">
<path fill="none" stroke="#63b8ff" d="M410.34,-279.5C393.42,-266.82 362.49,-243.67 336,-224 322.96,-214.32 308.31,-203.51 296.64,-194.91"/>
<polygon fill="#63b8ff" stroke="#63b8ff" points="298.98,-192.29 288.85,-189.18 294.83,-197.93 298.98,-192.29"/>
</a>
</g>
</g>
<!-- Node24 -->
<g id="Node000024" class="node">
<title>Node24</title>
<g id="a_Node000024"><a xlink:href="_animation_manager_8h.html" target="_top" xlink:title=" ">
<polygon fill="white" stroke="#666666" points="493.62,-244 388.38,-244 388.38,-224 493.62,-224 493.62,-244"/>
<text text-anchor="middle" x="441" y="-230.5" font-family="Helvetica,sans-Serif" font-size="10.00">AnimationManager.h</text>
</a>
</g>
</g>
<!-- Node23&#45;&gt;Node24 -->
<g id="edge36_Node000023_Node000024" class="edge">
<title>Node23&#45;&gt;Node24</title>
<g id="a_edge36_Node000023_Node000024"><a xlink:title=" ">
<path fill="none" stroke="#63b8ff" d="M426.14,-279.59C428.38,-272.86 431.49,-263.53 434.28,-255.15"/>
<polygon fill="#63b8ff" stroke="#63b8ff" points="437.58,-256.33 437.42,-245.73 430.94,-254.11 437.58,-256.33"/>
</a>
</g>
</g>
<!-- Node24&#45;&gt;Node21 -->
<g id="edge37_Node000024_Node000021" class="edge">
<title>Node24&#45;&gt;Node21</title>
<g id="a_edge37_Node000024_Node000021"><a xlink:title=" ">
<path fill="none" stroke="#63b8ff" d="M424.45,-223.59C410.1,-215.44 389.07,-203.48 372.4,-194"/>
<polygon fill="#63b8ff" stroke="#63b8ff" points="374.42,-191.13 363.99,-189.23 370.96,-197.21 374.42,-191.13"/>
</a>
</g>
</g>
<!-- Node26&#45;&gt;Node25 -->
<g id="edge43_Node000026_Node000025" class="edge">
<title>Node26&#45;&gt;Node25</title>
<g id="a_edge43_Node000026_Node000025"><a xlink:title=" ">
<path fill="none" stroke="#63b8ff" d="M613.5,-335.59C604.04,-327.85 590.4,-316.69 579.13,-307.47"/>
<polygon fill="#63b8ff" stroke="#63b8ff" points="581.49,-304.88 571.54,-301.26 577.06,-310.3 581.49,-304.88"/>
</a>
</g>
</g>
<!-- Node27 -->
<g id="Node000027" class="node">
<title>Node27</title>
<g id="a_Node000027"><a xlink:href="_sound_effect_8h.html" target="_top" xlink:title=" ">
<polygon fill="white" stroke="#666666" points="643.75,-244 566.25,-244 566.25,-224 643.75,-224 643.75,-244"/>
<text text-anchor="middle" x="605" y="-230.5" font-family="Helvetica,sans-Serif" font-size="10.00">SoundEffect.h</text>
</a>
</g>
</g>
<!-- Node26&#45;&gt;Node27 -->
<g id="edge44_Node000026_Node000027" class="edge">
<title>Node26&#45;&gt;Node27</title>
<g id="a_edge44_Node000026_Node000027"><a xlink:title=" ">
<path fill="none" stroke="#63b8ff" d="M623.29,-335.62C620.09,-318.01 613.11,-279.59 608.76,-255.65"/>
<polygon fill="#63b8ff" stroke="#63b8ff" points="612.2,-255.06 606.97,-245.84 605.32,-256.31 612.2,-255.06"/>
</a>
</g>
</g>
<!-- Node28 -->
<g id="Node000028" class="node">
<title>Node28</title>
<g id="a_Node000028"><a xlink:href="_sound_stream_8h.html" target="_top" xlink:title=" ">
<polygon fill="white" stroke="#666666" points="716.75,-132 633.25,-132 633.25,-112 716.75,-112 716.75,-132"/>
<text text-anchor="middle" x="675" y="-118.5" font-family="Helvetica,sans-Serif" font-size="10.00">SoundStream.h</text>
</a>
</g>
</g>
<!-- Node26&#45;&gt;Node28 -->
<g id="edge47_Node000026_Node000028" class="edge">
<title>Node26&#45;&gt;Node28</title>
<g id="a_edge47_Node000026_Node000028"><a xlink:title=" ">
<path fill="none" stroke="#63b8ff" d="M627.91,-335.6C633.35,-317.84 645.2,-278.05 653,-244 661,-209.07 667.97,-167.93 671.82,-143.74"/>
<polygon fill="#63b8ff" stroke="#63b8ff" points="675.26,-144.39 673.34,-133.97 668.34,-143.31 675.26,-144.39"/>
</a>
</g>
</g>
<!-- Node27&#45;&gt;Node9 -->
<g id="edge45_Node000027_Node000009" class="edge">
<title>Node27&#45;&gt;Node9</title>
<g id="a_edge45_Node000027_Node000009"><a xlink:title=" ">
<path fill="none" stroke="#63b8ff" d="M605,-223.74C605,-190.74 605,-78.31 605,-31.61"/>
<polygon fill="#63b8ff" stroke="#63b8ff" points="608.5,-31.81 605,-21.81 601.5,-31.81 608.5,-31.81"/>
</a>
</g>
</g>
<!-- Node27&#45;&gt;Node19 -->
<g id="edge46_Node000027_Node000019" class="edge">
<title>Node27&#45;&gt;Node19</title>
<g id="a_edge46_Node000027_Node000019"><a xlink:title=" ">
<path fill="none" stroke="#63b8ff" d="M565.97,-228.43C509.12,-221.47 400.35,-206.98 309,-188 308.63,-187.92 308.26,-187.84 307.88,-187.76"/>
<polygon fill="#63b8ff" stroke="#63b8ff" points="308.88,-184.4 298.34,-185.51 307.26,-191.21 308.88,-184.4"/>
</a>
</g>
</g>
<!-- Node28&#45;&gt;Node9 -->
<g id="edge48_Node000028_Node000009" class="edge">
<title>Node28&#45;&gt;Node9</title>
<g id="a_edge48_Node000028_Node000009"><a xlink:title=" ">
<path fill="none" stroke="#63b8ff" d="M669.03,-111.62C657.56,-93.6 632.24,-53.81 617.11,-30.02"/>
<polygon fill="#63b8ff" stroke="#63b8ff" points="620.09,-28.19 611.77,-21.63 614.18,-31.95 620.09,-28.19"/>
</a>
</g>
</g>
</g>
</svg>
