<?xml version="1.0" encoding="UTF-8" standalone="no"?>
<!DOCTYPE svg PUBLIC "-//W3C//DTD SVG 1.1//EN"
 "http://www.w3.org/Graphics/SVG/1.1/DTD/svg11.dtd">
<!-- Generated by graphviz version 12.2.1 (20241206.2353)
 -->
<!-- Title: Celeste/InteractableItem.h Pages: 1 -->
<svg width="1578pt" height="420pt"
 viewBox="0.00 0.00 1577.58 420.00" xmlns="http://www.w3.org/2000/svg" xmlns:xlink="http://www.w3.org/1999/xlink">
<g id="graph0" class="graph" transform="scale(1 1) rotate(0) translate(4 416)">
<title>Celeste/InteractableItem.h</title>
<!-- Node1 -->
<g id="Node000001" class="node">
<title>Node1</title>
<g id="a_Node000001"><a xlink:title=" ">
<polygon fill="#999999" stroke="#666666" points="896.36,-412 764.86,-412 764.86,-392 896.36,-392 896.36,-412"/>
<text text-anchor="middle" x="830.61" y="-398.5" font-family="Helvetica,sans-Serif" font-size="10.00">Celeste/InteractableItem.h</text>
</a>
</g>
</g>
<!-- Node2 -->
<g id="Node000002" class="node">
<title>Node2</title>
<g id="a_Node000002"><a xlink:href="_chapter_info_8h.html" target="_top" xlink:title=" ">
<polygon fill="white" stroke="#666666" points="922.61,-244 810.61,-244 810.61,-224 922.61,-224 922.61,-244"/>
<text text-anchor="middle" x="866.61" y="-230.5" font-family="Helvetica,sans-Serif" font-size="10.00">Celeste/ChapterInfo.h</text>
</a>
</g>
</g>
<!-- Node1&#45;&gt;Node2 -->
<g id="edge1_Node000001_Node000002" class="edge">
<title>Node1&#45;&gt;Node2</title>
<g id="a_edge1_Node000001_Node000002"><a xlink:title=" ">
<path fill="none" stroke="#63b8ff" d="M908.25,-397.99C991.51,-393.43 1117.1,-382.32 1156.61,-356 1180.65,-339.98 1182.01,-327.87 1189.61,-300 1191.95,-291.42 1195.44,-286.71 1189.61,-280 1155.69,-241.03 1005.98,-234.75 922.81,-234.36"/>
<polygon fill="#63b8ff" stroke="#63b8ff" points="908.11,-394.49 898.3,-398.51 908.47,-401.48 908.11,-394.49"/>
</a>
</g>
</g>
<!-- Node3 -->
<g id="Node000003" class="node">
<title>Node3</title>
<g id="a_Node000003"><a xlink:href="_chapter_loader_8h.html" target="_top" xlink:title=" ">
<polygon fill="white" stroke="#666666" points="1281.98,-188 1157.23,-188 1157.23,-168 1281.98,-168 1281.98,-188"/>
<text text-anchor="middle" x="1219.61" y="-174.5" font-family="Helvetica,sans-Serif" font-size="10.00">Celeste/ChapterLoader.h</text>
</a>
</g>
</g>
<!-- Node1&#45;&gt;Node3 -->
<g id="edge10_Node000001_Node000003" class="edge">
<title>Node1&#45;&gt;Node3</title>
<g id="a_edge10_Node000001_Node000003"><a xlink:title=" ">
<path fill="none" stroke="#63b8ff" d="M907.95,-400.01C1014.27,-397.42 1211.11,-388.25 1375.61,-356 1456.99,-340.04 1504.55,-366.87 1553.61,-300 1573.59,-272.77 1575.84,-249.43 1553.61,-224 1519.09,-184.52 1369.16,-178.27 1282.36,-178.06"/>
<polygon fill="#63b8ff" stroke="#63b8ff" points="908.12,-396.5 898.21,-400.23 908.28,-403.5 908.12,-396.5"/>
</a>
</g>
</g>
<!-- Node11 -->
<g id="Node000011" class="node">
<title>Node11</title>
<g id="a_Node000011"><a xlink:href="_cog_platform_8h.html" target="_top" xlink:title=" ">
<polygon fill="white" stroke="#666666" points="135.48,-356 19.73,-356 19.73,-336 135.48,-336 135.48,-356"/>
<text text-anchor="middle" x="77.61" y="-342.5" font-family="Helvetica,sans-Serif" font-size="10.00">Celeste/CogPlatform.h</text>
</a>
</g>
</g>
<!-- Node1&#45;&gt;Node11 -->
<g id="edge11_Node000001_Node000011" class="edge">
<title>Node1&#45;&gt;Node11</title>
<g id="a_edge11_Node000001_Node000011"><a xlink:title=" ">
<path fill="none" stroke="#63b8ff" d="M753.35,-395.71C633.49,-387.48 395.51,-370.96 193.61,-356 174.77,-354.6 154.22,-353.03 135.72,-351.59"/>
<polygon fill="#63b8ff" stroke="#63b8ff" points="752.85,-399.19 763.06,-396.38 753.33,-392.2 752.85,-399.19"/>
</a>
</g>
</g>
<!-- Node13 -->
<g id="Node000013" class="node">
<title>Node13</title>
<g id="a_Node000013"><a xlink:href="_crumble_block_8h.html" target="_top" xlink:title=" ">
<polygon fill="white" stroke="#666666" points="324.86,-356 202.36,-356 202.36,-336 324.86,-336 324.86,-356"/>
<text text-anchor="middle" x="263.61" y="-342.5" font-family="Helvetica,sans-Serif" font-size="10.00">Celeste/CrumbleBlock.h</text>
</a>
</g>
</g>
<!-- Node1&#45;&gt;Node13 -->
<g id="edge14_Node000001_Node000013" class="edge">
<title>Node1&#45;&gt;Node13</title>
<g id="a_edge14_Node000001_Node000013"><a xlink:title=" ">
<path fill="none" stroke="#63b8ff" d="M753.07,-393.62C639.17,-382.77 428.93,-362.74 325.03,-352.85"/>
<polygon fill="#63b8ff" stroke="#63b8ff" points="752.66,-397.09 762.95,-394.56 753.33,-390.12 752.66,-397.09"/>
</a>
</g>
</g>
<!-- Node15 -->
<g id="Node000015" class="node">
<title>Node15</title>
<g id="a_Node000015"><a xlink:href="_dash_crystal_8h.html" target="_top" xlink:title=" ">
<polygon fill="white" stroke="#666666" points="507.48,-356 391.73,-356 391.73,-336 507.48,-336 507.48,-356"/>
<text text-anchor="middle" x="449.61" y="-342.5" font-family="Helvetica,sans-Serif" font-size="10.00">Celeste/DashCrystal.h</text>
</a>
</g>
</g>
<!-- Node1&#45;&gt;Node15 -->
<g id="edge17_Node000001_Node000015" class="edge">
<title>Node1&#45;&gt;Node15</title>
<g id="a_edge17_Node000001_Node000015"><a xlink:title=" ">
<path fill="none" stroke="#63b8ff" d="M753.33,-390.05C680.68,-379.75 573.57,-364.57 507.87,-355.26"/>
<polygon fill="#63b8ff" stroke="#63b8ff" points="752.79,-393.51 763.18,-391.44 753.77,-386.57 752.79,-393.51"/>
</a>
</g>
</g>
<!-- Node17 -->
<g id="Node000017" class="node">
<title>Node17</title>
<g id="a_Node000017"><a xlink:href="_interactable_item_8cpp.html" target="_top" xlink:title=" ">
<polygon fill="white" stroke="#666666" points="901.61,-356 759.61,-356 759.61,-336 901.61,-336 901.61,-356"/>
<text text-anchor="middle" x="830.61" y="-342.5" font-family="Helvetica,sans-Serif" font-size="10.00">Celeste/InteractableItem.cpp</text>
</a>
</g>
</g>
<!-- Node1&#45;&gt;Node17 -->
<g id="edge20_Node000001_Node000017" class="edge">
<title>Node1&#45;&gt;Node17</title>
<g id="a_edge20_Node000001_Node000017"><a xlink:title=" ">
<path fill="none" stroke="#63b8ff" d="M830.61,-380.13C830.61,-371.9 830.61,-362.85 830.61,-356.3"/>
<polygon fill="#63b8ff" stroke="#63b8ff" points="827.11,-380.08 830.61,-390.08 834.11,-380.08 827.11,-380.08"/>
</a>
</g>
</g>
<!-- Node18 -->
<g id="Node000018" class="node">
<title>Node18</title>
<g id="a_Node000018"><a xlink:href="_level_8h.html" target="_top" xlink:title=" ">
<polygon fill="white" stroke="#666666" points="613.73,-356 529.48,-356 529.48,-336 613.73,-336 613.73,-356"/>
<text text-anchor="middle" x="571.61" y="-342.5" font-family="Helvetica,sans-Serif" font-size="10.00">Celeste/Level.h</text>
</a>
</g>
</g>
<!-- Node1&#45;&gt;Node18 -->
<g id="edge21_Node000001_Node000018" class="edge">
<title>Node1&#45;&gt;Node18</title>
<g id="a_edge21_Node000001_Node000018"><a xlink:title=" ">
<path fill="none" stroke="#63b8ff" d="M774.01,-389.2C725.79,-379.15 657.57,-364.92 613.96,-355.83"/>
<polygon fill="#63b8ff" stroke="#63b8ff" points="773.21,-392.61 783.72,-391.22 774.64,-385.76 773.21,-392.61"/>
</a>
</g>
</g>
<!-- Node20 -->
<g id="Node000020" class="node">
<title>Node20</title>
<g id="a_Node000020"><a xlink:href="_respawn_zone_8h.html" target="_top" xlink:title=" ">
<polygon fill="white" stroke="#666666" points="1043.61,-356 919.61,-356 919.61,-336 1043.61,-336 1043.61,-356"/>
<text text-anchor="middle" x="981.61" y="-342.5" font-family="Helvetica,sans-Serif" font-size="10.00">Celeste/RespawnZone.h</text>
</a>
</g>
</g>
<!-- Node1&#45;&gt;Node20 -->
<g id="edge24_Node000001_Node000020" class="edge">
<title>Node1&#45;&gt;Node20</title>
<g id="a_edge24_Node000001_Node000020"><a xlink:title=" ">
<path fill="none" stroke="#63b8ff" d="M867.54,-387.79C894.65,-378.1 930.82,-365.16 955.1,-356.48"/>
<polygon fill="#63b8ff" stroke="#63b8ff" points="866.57,-384.42 858.34,-391.08 868.93,-391.01 866.57,-384.42"/>
</a>
</g>
</g>
<!-- Node22 -->
<g id="Node000022" class="node">
<title>Node22</title>
<g id="a_Node000022"><a xlink:href="_spike_8h.html" target="_top" xlink:title=" ">
<polygon fill="white" stroke="#666666" points="1147.48,-356 1061.73,-356 1061.73,-336 1147.48,-336 1147.48,-356"/>
<text text-anchor="middle" x="1104.61" y="-342.5" font-family="Helvetica,sans-Serif" font-size="10.00">Celeste/Spike.h</text>
</a>
</g>
</g>
<!-- Node1&#45;&gt;Node22 -->
<g id="edge27_Node000001_Node000022" class="edge">
<title>Node1&#45;&gt;Node22</title>
<g id="a_edge27_Node000001_Node000022"><a xlink:title=" ">
<path fill="none" stroke="#63b8ff" d="M889.65,-389.36C941.37,-379.17 1015.3,-364.6 1061.59,-355.48"/>
<polygon fill="#63b8ff" stroke="#63b8ff" points="889.27,-385.87 880.13,-391.24 890.62,-392.74 889.27,-385.87"/>
</a>
</g>
</g>
<!-- Node24 -->
<g id="Node000024" class="node">
<title>Node24</title>
<g id="a_Node000024"><a xlink:href="_strawberry_8h.html" target="_top" xlink:title=" ">
<polygon fill="white" stroke="#666666" points="1366.36,-356 1258.86,-356 1258.86,-336 1366.36,-336 1366.36,-356"/>
<text text-anchor="middle" x="1312.61" y="-342.5" font-family="Helvetica,sans-Serif" font-size="10.00">Celeste/Strawberry.h</text>
</a>
</g>
</g>
<!-- Node1&#45;&gt;Node24 -->
<g id="edge30_Node000001_Node000024" class="edge">
<title>Node1&#45;&gt;Node24</title>
<g id="a_edge30_Node000001_Node000024"><a xlink:title=" ">
<path fill="none" stroke="#63b8ff" d="M907.95,-392.34C1006.13,-381.34 1173,-362.64 1258.54,-353.06"/>
<polygon fill="#63b8ff" stroke="#63b8ff" points="907.67,-388.84 898.12,-393.44 908.45,-395.8 907.67,-388.84"/>
</a>
</g>
</g>
<!-- Node28 -->
<g id="Node000028" class="node">
<title>Node28</title>
<g id="a_Node000028"><a xlink:href="_trampoline_8h.html" target="_top" xlink:title=" ">
<polygon fill="white" stroke="#666666" points="741.11,-356 632.11,-356 632.11,-336 741.11,-336 741.11,-356"/>
<text text-anchor="middle" x="686.61" y="-342.5" font-family="Helvetica,sans-Serif" font-size="10.00">Celeste/Trampoline.h</text>
</a>
</g>
</g>
<!-- Node1&#45;&gt;Node28 -->
<g id="edge36_Node000001_Node000028" class="edge">
<title>Node1&#45;&gt;Node28</title>
<g id="a_edge36_Node000001_Node000028"><a xlink:title=" ">
<path fill="none" stroke="#63b8ff" d="M795.04,-387.66C769.23,-377.98 734.94,-365.12 711.89,-356.48"/>
<polygon fill="#63b8ff" stroke="#63b8ff" points="793.52,-390.83 804.11,-391.06 795.97,-384.27 793.52,-390.83"/>
</a>
</g>
</g>
<!-- Node2&#45;&gt;Node3 -->
<g id="edge2_Node000002_Node000003" class="edge">
<title>Node2&#45;&gt;Node3</title>
<g id="a_edge2_Node000002_Node000003"><a xlink:title=" ">
<path fill="none" stroke="#63b8ff" d="M934.19,-222.66C998.66,-212.8 1094.97,-198.07 1157.54,-188.49"/>
<polygon fill="#63b8ff" stroke="#63b8ff" points="933.78,-219.18 924.43,-224.15 934.84,-226.1 933.78,-219.18"/>
</a>
</g>
</g>
<!-- Node4 -->
<g id="Node000004" class="node">
<title>Node4</title>
<g id="a_Node000004"><a xlink:href="_chapter_loader_8cpp.html" target="_top" xlink:title=" ">
<polygon fill="white" stroke="#666666" points="1140.23,-132 1004.98,-132 1004.98,-112 1140.23,-112 1140.23,-132"/>
<text text-anchor="middle" x="1072.61" y="-118.5" font-family="Helvetica,sans-Serif" font-size="10.00">Celeste/ChapterLoader.cpp</text>
</a>
</g>
</g>
<!-- Node3&#45;&gt;Node4 -->
<g id="edge3_Node000003_Node000004" class="edge">
<title>Node3&#45;&gt;Node4</title>
<g id="a_edge3_Node000003_Node000004"><a xlink:title=" ">
<path fill="none" stroke="#63b8ff" d="M1183.3,-163.66C1156.95,-153.98 1121.94,-141.12 1098.41,-132.48"/>
<polygon fill="#63b8ff" stroke="#63b8ff" points="1181.99,-166.91 1192.58,-167.07 1184.4,-160.34 1181.99,-166.91"/>
</a>
</g>
</g>
<!-- Node5 -->
<g id="Node000005" class="node">
<title>Node5</title>
<g id="a_Node000005"><a xlink:href="_level_manager_8h.html" target="_top" xlink:title=" ">
<polygon fill="white" stroke="#666666" points="1280.48,-132 1158.73,-132 1158.73,-112 1280.48,-112 1280.48,-132"/>
<text text-anchor="middle" x="1219.61" y="-118.5" font-family="Helvetica,sans-Serif" font-size="10.00">Celeste/LevelManager.h</text>
</a>
</g>
</g>
<!-- Node3&#45;&gt;Node5 -->
<g id="edge4_Node000003_Node000005" class="edge">
<title>Node3&#45;&gt;Node5</title>
<g id="a_edge4_Node000003_Node000005"><a xlink:title=" ">
<path fill="none" stroke="#63b8ff" d="M1219.61,-156.13C1219.61,-147.9 1219.61,-138.85 1219.61,-132.3"/>
<polygon fill="#63b8ff" stroke="#63b8ff" points="1216.11,-156.08 1219.61,-166.08 1223.11,-156.08 1216.11,-156.08"/>
</a>
</g>
</g>
<!-- Node10 -->
<g id="Node000010" class="node">
<title>Node10</title>
<g id="a_Node000010"><a xlink:href="_pause_menu_8cpp.html" target="_top" xlink:title=" ">
<polygon fill="white" stroke="#666666" points="1422.23,-132 1298.98,-132 1298.98,-112 1422.23,-112 1422.23,-132"/>
<text text-anchor="middle" x="1360.61" y="-118.5" font-family="Helvetica,sans-Serif" font-size="10.00">Celeste/PauseMenu.cpp</text>
</a>
</g>
</g>
<!-- Node3&#45;&gt;Node10 -->
<g id="edge9_Node000003_Node000010" class="edge">
<title>Node3&#45;&gt;Node10</title>
<g id="a_edge9_Node000003_Node000010"><a xlink:title=" ">
<path fill="none" stroke="#63b8ff" d="M1254.77,-163.53C1280.01,-153.87 1313.39,-141.08 1335.86,-132.48"/>
<polygon fill="#63b8ff" stroke="#63b8ff" points="1253.67,-160.21 1245.58,-167.05 1256.17,-166.74 1253.67,-160.21"/>
</a>
</g>
</g>
<!-- Node6 -->
<g id="Node000006" class="node">
<title>Node6</title>
<g id="a_Node000006"><a xlink:href="_game_8h.html" target="_top" xlink:title=" ">
<polygon fill="white" stroke="#666666" points="1199.23,-76 1111.98,-76 1111.98,-56 1199.23,-56 1199.23,-76"/>
<text text-anchor="middle" x="1155.61" y="-62.5" font-family="Helvetica,sans-Serif" font-size="10.00">Celeste/Game.h</text>
</a>
</g>
</g>
<!-- Node5&#45;&gt;Node6 -->
<g id="edge5_Node000005_Node000006" class="edge">
<title>Node5&#45;&gt;Node6</title>
<g id="a_edge5_Node000005_Node000006"><a xlink:title=" ">
<path fill="none" stroke="#63b8ff" d="M1199.94,-104.4C1188.99,-95.17 1175.77,-84.01 1166.63,-76.3"/>
<polygon fill="#63b8ff" stroke="#63b8ff" points="1197.4,-106.84 1207.3,-110.62 1201.92,-101.49 1197.4,-106.84"/>
</a>
</g>
</g>
<!-- Node9 -->
<g id="Node000009" class="node">
<title>Node9</title>
<g id="a_Node000009"><a xlink:href="_level_manager_8cpp.html" target="_top" xlink:title=" ">
<polygon fill="white" stroke="#666666" points="1349.73,-76 1217.48,-76 1217.48,-56 1349.73,-56 1349.73,-76"/>
<text text-anchor="middle" x="1283.61" y="-62.5" font-family="Helvetica,sans-Serif" font-size="10.00">Celeste/LevelManager.cpp</text>
</a>
</g>
</g>
<!-- Node5&#45;&gt;Node9 -->
<g id="edge8_Node000005_Node000009" class="edge">
<title>Node5&#45;&gt;Node9</title>
<g id="a_edge8_Node000005_Node000009"><a xlink:title=" ">
<path fill="none" stroke="#63b8ff" d="M1239.28,-104.4C1250.23,-95.17 1263.45,-84.01 1272.59,-76.3"/>
<polygon fill="#63b8ff" stroke="#63b8ff" points="1237.3,-101.49 1231.91,-110.62 1241.81,-106.84 1237.3,-101.49"/>
</a>
</g>
</g>
<!-- Node7 -->
<g id="Node000007" class="node">
<title>Node7</title>
<g id="a_Node000007"><a xlink:href="_game_8cpp.html" target="_top" xlink:title=" ">
<polygon fill="white" stroke="#666666" points="1148.48,-20 1050.73,-20 1050.73,0 1148.48,0 1148.48,-20"/>
<text text-anchor="middle" x="1099.61" y="-6.5" font-family="Helvetica,sans-Serif" font-size="10.00">Celeste/Game.cpp</text>
</a>
</g>
</g>
<!-- Node6&#45;&gt;Node7 -->
<g id="edge6_Node000006_Node000007" class="edge">
<title>Node6&#45;&gt;Node7</title>
<g id="a_edge6_Node000006_Node000007"><a xlink:title=" ">
<path fill="none" stroke="#63b8ff" d="M1137.82,-47.85C1128.36,-38.72 1117.09,-27.86 1109.25,-20.3"/>
<polygon fill="#63b8ff" stroke="#63b8ff" points="1135.14,-50.12 1144.76,-54.54 1140,-45.08 1135.14,-50.12"/>
</a>
</g>
</g>
<!-- Node8 -->
<g id="Node000008" class="node">
<title>Node8</title>
<g id="a_Node000008"><a xlink:href="main_8cpp.html" target="_top" xlink:title=" ">
<polygon fill="white" stroke="#666666" points="1258.86,-20 1166.36,-20 1166.36,0 1258.86,0 1258.86,-20"/>
<text text-anchor="middle" x="1212.61" y="-6.5" font-family="Helvetica,sans-Serif" font-size="10.00">Celeste/main.cpp</text>
</a>
</g>
</g>
<!-- Node6&#45;&gt;Node8 -->
<g id="edge7_Node000006_Node000008" class="edge">
<title>Node6&#45;&gt;Node8</title>
<g id="a_edge7_Node000006_Node000008"><a xlink:title=" ">
<path fill="none" stroke="#63b8ff" d="M1173.71,-47.85C1183.35,-38.72 1194.82,-27.86 1202.79,-20.3"/>
<polygon fill="#63b8ff" stroke="#63b8ff" points="1171.49,-45.13 1166.64,-54.55 1176.3,-50.22 1171.49,-45.13"/>
</a>
</g>
</g>
<!-- Node11&#45;&gt;Node2 -->
<g id="edge12_Node000011_Node000002" class="edge">
<title>Node11&#45;&gt;Node2</title>
<g id="a_edge12_Node000011_Node000002"><a xlink:title=" ">
<path fill="none" stroke="#63b8ff" d="M43.27,-330.91C16.95,-318.19 -12.1,-298.66 5.61,-280 33.33,-250.79 623.14,-238.89 810.21,-235.84"/>
<polygon fill="#63b8ff" stroke="#63b8ff" points="41.56,-333.98 52.11,-334.97 44.48,-327.61 41.56,-333.98"/>
</a>
</g>
</g>
<!-- Node12 -->
<g id="Node000012" class="node">
<title>Node12</title>
<g id="a_Node000012"><a xlink:href="_cog_platform_8cpp.html" target="_top" xlink:title=" ">
<polygon fill="white" stroke="#666666" points="140.73,-300 14.48,-300 14.48,-280 140.73,-280 140.73,-300"/>
<text text-anchor="middle" x="77.61" y="-286.5" font-family="Helvetica,sans-Serif" font-size="10.00">Celeste/CogPlatform.cpp</text>
</a>
</g>
</g>
<!-- Node11&#45;&gt;Node12 -->
<g id="edge13_Node000011_Node000012" class="edge">
<title>Node11&#45;&gt;Node12</title>
<g id="a_edge13_Node000011_Node000012"><a xlink:title=" ">
<path fill="none" stroke="#63b8ff" d="M77.61,-324.13C77.61,-315.9 77.61,-306.85 77.61,-300.3"/>
<polygon fill="#63b8ff" stroke="#63b8ff" points="74.11,-324.08 77.61,-334.08 81.11,-324.08 74.11,-324.08"/>
</a>
</g>
</g>
<!-- Node13&#45;&gt;Node2 -->
<g id="edge15_Node000013_Node000002" class="edge">
<title>Node13&#45;&gt;Node2</title>
<g id="a_edge15_Node000013_Node000002"><a xlink:title=" ">
<path fill="none" stroke="#63b8ff" d="M227.95,-331.13C200.71,-318.58 170.65,-299.19 188.61,-280 230.67,-235.05 654.96,-233.49 810.14,-234.44"/>
<polygon fill="#63b8ff" stroke="#63b8ff" points="226.19,-334.18 236.76,-334.98 229,-327.77 226.19,-334.18"/>
</a>
</g>
</g>
<!-- Node14 -->
<g id="Node000014" class="node">
<title>Node14</title>
<g id="a_Node000014"><a xlink:href="_crumble_block_8cpp.html" target="_top" xlink:title=" ">
<polygon fill="white" stroke="#666666" points="330.11,-300 197.11,-300 197.11,-280 330.11,-280 330.11,-300"/>
<text text-anchor="middle" x="263.61" y="-286.5" font-family="Helvetica,sans-Serif" font-size="10.00">Celeste/CrumbleBlock.cpp</text>
</a>
</g>
</g>
<!-- Node13&#45;&gt;Node14 -->
<g id="edge16_Node000013_Node000014" class="edge">
<title>Node13&#45;&gt;Node14</title>
<g id="a_edge16_Node000013_Node000014"><a xlink:title=" ">
<path fill="none" stroke="#63b8ff" d="M263.61,-324.13C263.61,-315.9 263.61,-306.85 263.61,-300.3"/>
<polygon fill="#63b8ff" stroke="#63b8ff" points="260.11,-324.08 263.61,-334.08 267.11,-324.08 260.11,-324.08"/>
</a>
</g>
</g>
<!-- Node15&#45;&gt;Node2 -->
<g id="edge18_Node000015_Node000002" class="edge">
<title>Node15&#45;&gt;Node2</title>
<g id="a_edge18_Node000015_Node000002"><a xlink:title=" ">
<path fill="none" stroke="#63b8ff" d="M414.99,-330.86C388.92,-318.24 360.38,-298.89 377.61,-280 406.3,-248.55 687.93,-238.78 810.31,-236.01"/>
<polygon fill="#63b8ff" stroke="#63b8ff" points="413.21,-333.89 423.76,-334.88 416.13,-327.53 413.21,-333.89"/>
</a>
</g>
</g>
<!-- Node16 -->
<g id="Node000016" class="node">
<title>Node16</title>
<g id="a_Node000016"><a xlink:href="_dash_crystal_8cpp.html" target="_top" xlink:title=" ">
<polygon fill="white" stroke="#666666" points="512.73,-300 386.48,-300 386.48,-280 512.73,-280 512.73,-300"/>
<text text-anchor="middle" x="449.61" y="-286.5" font-family="Helvetica,sans-Serif" font-size="10.00">Celeste/DashCrystal.cpp</text>
</a>
</g>
</g>
<!-- Node15&#45;&gt;Node16 -->
<g id="edge19_Node000015_Node000016" class="edge">
<title>Node15&#45;&gt;Node16</title>
<g id="a_edge19_Node000015_Node000016"><a xlink:title=" ">
<path fill="none" stroke="#63b8ff" d="M449.61,-324.13C449.61,-315.9 449.61,-306.85 449.61,-300.3"/>
<polygon fill="#63b8ff" stroke="#63b8ff" points="446.11,-324.08 449.61,-334.08 453.11,-324.08 446.11,-324.08"/>
</a>
</g>
</g>
<!-- Node18&#45;&gt;Node2 -->
<g id="edge22_Node000018_Node000002" class="edge">
<title>Node18&#45;&gt;Node2</title>
<g id="a_edge22_Node000018_Node000002"><a xlink:title=" ">
<path fill="none" stroke="#63b8ff" d="M560.47,-325.63C553.92,-311.4 548.83,-292.47 559.61,-280 591.35,-243.27 730.59,-235.95 810.21,-234.84"/>
<polygon fill="#63b8ff" stroke="#63b8ff" points="557.35,-327.2 565.06,-334.46 563.56,-323.98 557.35,-327.2"/>
</a>
</g>
</g>
<!-- Node19 -->
<g id="Node000019" class="node">
<title>Node19</title>
<g id="a_Node000019"><a xlink:href="_level_8cpp.html" target="_top" xlink:title=" ">
<polygon fill="white" stroke="#666666" points="662.98,-300 568.23,-300 568.23,-280 662.98,-280 662.98,-300"/>
<text text-anchor="middle" x="615.61" y="-286.5" font-family="Helvetica,sans-Serif" font-size="10.00">Celeste/Level.cpp</text>
</a>
</g>
</g>
<!-- Node18&#45;&gt;Node19 -->
<g id="edge23_Node000018_Node000019" class="edge">
<title>Node18&#45;&gt;Node19</title>
<g id="a_edge23_Node000018_Node000019"><a xlink:title=" ">
<path fill="none" stroke="#63b8ff" d="M586.5,-326.72C593.74,-317.84 602.13,-307.55 608.03,-300.3"/>
<polygon fill="#63b8ff" stroke="#63b8ff" points="583.83,-324.46 580.23,-334.42 589.26,-328.88 583.83,-324.46"/>
</a>
</g>
</g>
<!-- Node20&#45;&gt;Node2 -->
<g id="edge25_Node000020_Node000002" class="edge">
<title>Node20&#45;&gt;Node2</title>
<g id="a_edge25_Node000020_Node000002"><a xlink:title=" ">
<path fill="none" stroke="#63b8ff" d="M933.61,-331.69C916.36,-324.76 898.1,-314.59 885.61,-300 871.69,-283.75 867.96,-257.75 866.96,-244.08"/>
<polygon fill="#63b8ff" stroke="#63b8ff" points="932.15,-334.88 942.74,-335.07 934.58,-328.32 932.15,-334.88"/>
</a>
</g>
</g>
<!-- Node21 -->
<g id="Node000021" class="node">
<title>Node21</title>
<g id="a_Node000021"><a xlink:href="_respawn_zone_8cpp.html" target="_top" xlink:title=" ">
<polygon fill="white" stroke="#666666" points="1028.86,-300 894.36,-300 894.36,-280 1028.86,-280 1028.86,-300"/>
<text text-anchor="middle" x="961.61" y="-286.5" font-family="Helvetica,sans-Serif" font-size="10.00">Celeste/RespawnZone.cpp</text>
</a>
</g>
</g>
<!-- Node20&#45;&gt;Node21 -->
<g id="edge26_Node000020_Node000021" class="edge">
<title>Node20&#45;&gt;Node21</title>
<g id="a_edge26_Node000020_Node000021"><a xlink:title=" ">
<path fill="none" stroke="#63b8ff" d="M974.2,-325C971.07,-316.54 967.57,-307.08 965.05,-300.3"/>
<polygon fill="#63b8ff" stroke="#63b8ff" points="970.84,-326.01 977.6,-334.17 977.41,-323.58 970.84,-326.01"/>
</a>
</g>
</g>
<!-- Node22&#45;&gt;Node2 -->
<g id="edge28_Node000022_Node000002" class="edge">
<title>Node22&#45;&gt;Node2</title>
<g id="a_edge28_Node000022_Node000002"><a xlink:title=" ">
<path fill="none" stroke="#63b8ff" d="M1090.78,-327.22C1078.39,-312.46 1058.91,-292.02 1037.61,-280 1002.18,-260.01 957.62,-248.66 922.87,-242.36"/>
<polygon fill="#63b8ff" stroke="#63b8ff" points="1087.89,-329.2 1096.9,-334.77 1093.32,-324.8 1087.89,-329.2"/>
</a>
</g>
</g>
<!-- Node23 -->
<g id="Node000023" class="node">
<title>Node23</title>
<g id="a_Node000023"><a xlink:href="_spike_8cpp.html" target="_top" xlink:title=" ">
<polygon fill="white" stroke="#666666" points="1180.73,-300 1084.48,-300 1084.48,-280 1180.73,-280 1180.73,-300"/>
<text text-anchor="middle" x="1132.61" y="-286.5" font-family="Helvetica,sans-Serif" font-size="10.00">Celeste/Spike.cpp</text>
</a>
</g>
</g>
<!-- Node22&#45;&gt;Node23 -->
<g id="edge29_Node000022_Node000023" class="edge">
<title>Node22&#45;&gt;Node23</title>
<g id="a_edge29_Node000022_Node000023"><a xlink:title=" ">
<path fill="none" stroke="#63b8ff" d="M1114.68,-325.58C1119.14,-316.97 1124.19,-307.24 1127.79,-300.3"/>
<polygon fill="#63b8ff" stroke="#63b8ff" points="1111.68,-323.76 1110.18,-334.25 1117.89,-326.98 1111.68,-323.76"/>
</a>
</g>
</g>
<!-- Node24&#45;&gt;Node2 -->
<g id="edge31_Node000024_Node000002" class="edge">
<title>Node24&#45;&gt;Node2</title>
<g id="a_edge31_Node000024_Node000002"><a xlink:title=" ">
<path fill="none" stroke="#63b8ff" d="M1294.7,-327.82C1277.62,-312.55 1250.45,-290.98 1222.61,-280 1169.36,-259 1009.14,-244.96 922.95,-238.71"/>
<polygon fill="#63b8ff" stroke="#63b8ff" points="1292.25,-330.32 1301.97,-334.53 1296.99,-325.18 1292.25,-330.32"/>
</a>
</g>
</g>
<!-- Node25 -->
<g id="Node000025" class="node">
<title>Node25</title>
<g id="a_Node000025"><a xlink:href="_flying_strawberry_8h.html" target="_top" xlink:title=" ">
<polygon fill="white" stroke="#666666" points="1544.48,-300 1410.73,-300 1410.73,-280 1544.48,-280 1544.48,-300"/>
<text text-anchor="middle" x="1477.61" y="-286.5" font-family="Helvetica,sans-Serif" font-size="10.00">Celeste/FlyingStrawberry.h</text>
</a>
</g>
</g>
<!-- Node24&#45;&gt;Node25 -->
<g id="edge32_Node000024_Node000025" class="edge">
<title>Node24&#45;&gt;Node25</title>
<g id="a_edge32_Node000024_Node000025"><a xlink:title=" ">
<path fill="none" stroke="#63b8ff" d="M1352.18,-332.05C1381.88,-322.33 1421.88,-309.24 1448.64,-300.48"/>
<polygon fill="#63b8ff" stroke="#63b8ff" points="1351.2,-328.69 1342.79,-335.12 1353.38,-335.34 1351.2,-328.69"/>
</a>
</g>
</g>
<!-- Node27 -->
<g id="Node000027" class="node">
<title>Node27</title>
<g id="a_Node000027"><a xlink:href="_strawberry_8cpp.html" target="_top" xlink:title=" ">
<polygon fill="white" stroke="#666666" points="1392.61,-300 1274.61,-300 1274.61,-280 1392.61,-280 1392.61,-300"/>
<text text-anchor="middle" x="1333.61" y="-286.5" font-family="Helvetica,sans-Serif" font-size="10.00">Celeste/Strawberry.cpp</text>
</a>
</g>
</g>
<!-- Node24&#45;&gt;Node27 -->
<g id="edge35_Node000024_Node000027" class="edge">
<title>Node24&#45;&gt;Node27</title>
<g id="a_edge35_Node000024_Node000027"><a xlink:title=" ">
<path fill="none" stroke="#63b8ff" d="M1320.38,-325C1323.68,-316.54 1327.35,-307.08 1329.99,-300.3"/>
<polygon fill="#63b8ff" stroke="#63b8ff" points="1317.18,-323.59 1316.82,-334.18 1323.7,-326.13 1317.18,-323.59"/>
</a>
</g>
</g>
<!-- Node25&#45;&gt;Node2 -->
<g id="edge33_Node000025_Node000002" class="edge">
<title>Node25&#45;&gt;Node2</title>
<g id="a_edge33_Node000025_Node000002"><a xlink:title=" ">
<path fill="none" stroke="#63b8ff" d="M1399.18,-279.79C1218.83,-261.7 1018.46,-246.21 922.9,-239.1"/>
<polygon fill="#63b8ff" stroke="#63b8ff" points="1398.68,-283.25 1408.98,-280.77 1399.38,-276.29 1398.68,-283.25"/>
</a>
</g>
</g>
<!-- Node26 -->
<g id="Node000026" class="node">
<title>Node26</title>
<g id="a_Node000026"><a xlink:href="_flying_strawberry_8cpp.html" target="_top" xlink:title=" ">
<polygon fill="white" stroke="#666666" points="1544.73,-244 1400.48,-244 1400.48,-224 1544.73,-224 1544.73,-244"/>
<text text-anchor="middle" x="1472.61" y="-230.5" font-family="Helvetica,sans-Serif" font-size="10.00">Celeste/FlyingStrawberry.cpp</text>
</a>
</g>
</g>
<!-- Node25&#45;&gt;Node26 -->
<g id="edge34_Node000025_Node000026" class="edge">
<title>Node25&#45;&gt;Node26</title>
<g id="a_edge34_Node000025_Node000026"><a xlink:title=" ">
<path fill="none" stroke="#63b8ff" d="M1475.68,-268.13C1474.91,-259.9 1474.08,-250.85 1473.47,-244.3"/>
<polygon fill="#63b8ff" stroke="#63b8ff" points="1472.19,-268.45 1476.6,-278.09 1479.16,-267.81 1472.19,-268.45"/>
</a>
</g>
</g>
<!-- Node28&#45;&gt;Node2 -->
<g id="edge37_Node000028_Node000002" class="edge">
<title>Node28&#45;&gt;Node2</title>
<g id="a_edge37_Node000028_Node000002"><a xlink:title=" ">
<path fill="none" stroke="#63b8ff" d="M688.93,-324.36C691.61,-310.05 697.34,-291.55 709.61,-280 736.66,-254.55 777.14,-243.36 810.22,-238.5"/>
<polygon fill="#63b8ff" stroke="#63b8ff" points="685.5,-323.69 687.51,-334.09 692.42,-324.71 685.5,-323.69"/>
</a>
</g>
</g>
<!-- Node29 -->
<g id="Node000029" class="node">
<title>Node29</title>
<g id="a_Node000029"><a xlink:href="_trampoline_8cpp.html" target="_top" xlink:title=" ">
<polygon fill="white" stroke="#666666" points="838.36,-300 718.86,-300 718.86,-280 838.36,-280 838.36,-300"/>
<text text-anchor="middle" x="778.61" y="-286.5" font-family="Helvetica,sans-Serif" font-size="10.00">Celeste/Trampoline.cpp</text>
</a>
</g>
</g>
<!-- Node28&#45;&gt;Node29 -->
<g id="edge38_Node000028_Node000029" class="edge">
<title>Node28&#45;&gt;Node29</title>
<g id="a_edge38_Node000028_Node000029"><a xlink:title=" ">
<path fill="none" stroke="#63b8ff" d="M712.48,-329.81C728.53,-320.39 748.65,-308.58 762.46,-300.48"/>
<polygon fill="#63b8ff" stroke="#63b8ff" points="710.79,-326.75 703.94,-334.83 714.33,-332.78 710.79,-326.75"/>
</a>
</g>
</g>
</g>
</svg>
