<?xml version="1.0" encoding="UTF-8" standalone="no"?>
<!DOCTYPE svg PUBLIC "-//W3C//DTD SVG 1.1//EN"
 "http://www.w3.org/Graphics/SVG/1.1/DTD/svg11.dtd">
<!-- Generated by graphviz version 12.2.1 (20241206.2353)
 -->
<!-- Title: Celeste/LevelManager.h Pages: 1 -->
<svg width="1028pt" height="756pt"
 viewBox="0.00 0.00 1028.00 756.00" xmlns="http://www.w3.org/2000/svg" xmlns:xlink="http://www.w3.org/1999/xlink">
<g id="graph0" class="graph" transform="scale(1 1) rotate(0) translate(4 752)">
<title>Celeste/LevelManager.h</title>
<!-- Node1 -->
<g id="Node000001" class="node">
<title>Node1</title>
<g id="a_Node000001"><a xlink:title=" ">
<polygon fill="#999999" stroke="#666666" points="943.88,-748 822.12,-748 822.12,-728 943.88,-728 943.88,-748"/>
<text text-anchor="middle" x="883" y="-734.5" font-family="Helvetica,sans-Serif" font-size="10.00">Celeste/LevelManager.h</text>
</a>
</g>
</g>
<!-- Node2 -->
<g id="Node000002" class="node">
<title>Node2</title>
<g id="a_Node000002"><a xlink:href="utils_8h.html" target="_top" xlink:title=" ">
<polygon fill="white" stroke="#666666" points="971.12,-244 928.88,-244 928.88,-224 971.12,-224 971.12,-244"/>
<text text-anchor="middle" x="950" y="-230.5" font-family="Helvetica,sans-Serif" font-size="10.00">utils.h</text>
</a>
</g>
</g>
<!-- Node1&#45;&gt;Node2 -->
<g id="edge1_Node000001_Node000002" class="edge">
<title>Node1&#45;&gt;Node2</title>
<g id="a_edge1_Node000001_Node000002"><a xlink:title=" ">
<path fill="none" stroke="#63b8ff" d="M913.75,-727.59C954.14,-713.09 1020,-681.14 1020,-627 1020,-627 1020,-627 1020,-345 1020,-314.9 1017.14,-305.4 1001,-280 993.9,-268.82 983.23,-258.8 973.48,-251.07"/>
<polygon fill="#63b8ff" stroke="#63b8ff" points="975.88,-248.49 965.78,-245.3 971.69,-254.1 975.88,-248.49"/>
</a>
</g>
</g>
<!-- Node3 -->
<g id="Node000003" class="node">
<title>Node3</title>
<g id="a_Node000003"><a xlink:title=" ">
<polygon fill="#e0e0e0" stroke="#999999" points="782.5,-188 739.5,-188 739.5,-168 782.5,-168 782.5,-188"/>
<text text-anchor="middle" x="761" y="-174.5" font-family="Helvetica,sans-Serif" font-size="10.00">vector</text>
</a>
</g>
</g>
<!-- Node1&#45;&gt;Node3 -->
<g id="edge7_Node000001_Node000003" class="edge">
<title>Node1&#45;&gt;Node3</title>
<g id="a_edge7_Node000001_Node000003"><a xlink:title=" ">
<path fill="none" stroke="#63b8ff" d="M888.88,-727.73C899.43,-710.49 921.2,-671.96 929,-636 930.89,-627.31 929.77,-624.86 929,-616 915.84,-464.95 905.2,-427.48 870,-280 863.96,-254.7 869.86,-243.8 853,-224 837.61,-205.92 813.24,-194.46 793.45,-187.63"/>
<polygon fill="#63b8ff" stroke="#63b8ff" points="794.75,-184.37 784.16,-184.67 792.63,-191.04 794.75,-184.37"/>
</a>
</g>
</g>
<!-- Node7 -->
<g id="Node000007" class="node">
<title>Node7</title>
<g id="a_Node000007"><a xlink:href="_character_8h.html" target="_top" xlink:title=" ">
<polygon fill="white" stroke="#666666" points="418.5,-412 351.5,-412 351.5,-392 418.5,-392 418.5,-412"/>
<text text-anchor="middle" x="385" y="-398.5" font-family="Helvetica,sans-Serif" font-size="10.00">Character.h</text>
</a>
</g>
</g>
<!-- Node1&#45;&gt;Node7 -->
<g id="edge8_Node000001_Node000007" class="edge">
<title>Node1&#45;&gt;Node7</title>
<g id="a_edge8_Node000001_Node000007"><a xlink:title=" ">
<path fill="none" stroke="#63b8ff" d="M821.96,-735.82C622.09,-731.16 0,-709.99 0,-627 0,-627 0,-627 0,-569 0,-422.49 238,-403.75 339.75,-402.43"/>
<polygon fill="#63b8ff" stroke="#63b8ff" points="339.68,-405.93 349.66,-402.36 339.63,-398.93 339.68,-405.93"/>
</a>
</g>
</g>
<!-- Node27 -->
<g id="Node000027" class="node">
<title>Node27</title>
<g id="a_Node000027"><a xlink:href="_chapter_loader_8h.html" target="_top" xlink:title=" ">
<polygon fill="white" stroke="#666666" points="840,-692 752,-692 752,-672 840,-672 840,-692"/>
<text text-anchor="middle" x="796" y="-678.5" font-family="Helvetica,sans-Serif" font-size="10.00">ChapterLoader.h</text>
</a>
</g>
</g>
<!-- Node1&#45;&gt;Node27 -->
<g id="edge43_Node000001_Node000027" class="edge">
<title>Node1&#45;&gt;Node27</title>
<g id="a_edge43_Node000001_Node000027"><a xlink:title=" ">
<path fill="none" stroke="#63b8ff" d="M867.85,-727.59C854.95,-719.59 836.17,-707.93 821.04,-698.54"/>
<polygon fill="#63b8ff" stroke="#63b8ff" points="822.9,-695.58 812.56,-693.28 819.21,-701.53 822.9,-695.58"/>
</a>
</g>
</g>
<!-- Node41 -->
<g id="Node000041" class="node">
<title>Node41</title>
<g id="a_Node000041"><a xlink:href="_save_file_i_o_8h.html" target="_top" xlink:title=" ">
<polygon fill="white" stroke="#666666" points="919.5,-636 846.5,-636 846.5,-616 919.5,-616 919.5,-636"/>
<text text-anchor="middle" x="883" y="-622.5" font-family="Helvetica,sans-Serif" font-size="10.00">SaveFileIO.h</text>
</a>
</g>
</g>
<!-- Node1&#45;&gt;Node41 -->
<g id="edge77_Node000001_Node000041" class="edge">
<title>Node1&#45;&gt;Node41</title>
<g id="a_edge77_Node000001_Node000041"><a xlink:title=" ">
<path fill="none" stroke="#63b8ff" d="M883,-727.62C883,-710.01 883,-671.59 883,-647.65"/>
<polygon fill="#63b8ff" stroke="#63b8ff" points="886.5,-647.87 883,-637.87 879.5,-647.87 886.5,-647.87"/>
</a>
</g>
</g>
<!-- Node2&#45;&gt;Node3 -->
<g id="edge2_Node000002_Node000003" class="edge">
<title>Node2&#45;&gt;Node3</title>
<g id="a_edge2_Node000002_Node000003"><a xlink:title=" ">
<path fill="none" stroke="#63b8ff" d="M928.69,-226.91C895.74,-217.5 832.2,-199.34 793.5,-188.29"/>
<polygon fill="#63b8ff" stroke="#63b8ff" points="794.85,-185.03 784.27,-185.65 792.93,-191.76 794.85,-185.03"/>
</a>
</g>
</g>
<!-- Node4 -->
<g id="Node000004" class="node">
<title>Node4</title>
<g id="a_Node000004"><a xlink:href="_vector2f_8h.html" target="_top" xlink:title=" ">
<polygon fill="white" stroke="#666666" points="743.12,-132 682.88,-132 682.88,-112 743.12,-112 743.12,-132"/>
<text text-anchor="middle" x="713" y="-118.5" font-family="Helvetica,sans-Serif" font-size="10.00">Vector2f.h</text>
</a>
</g>
</g>
<!-- Node2&#45;&gt;Node4 -->
<g id="edge3_Node000002_Node000004" class="edge">
<title>Node2&#45;&gt;Node4</title>
<g id="a_edge3_Node000002_Node000004"><a xlink:title=" ">
<path fill="none" stroke="#63b8ff" d="M929.79,-223.62C888.17,-204.3 792.64,-159.96 743.47,-137.14"/>
<polygon fill="#63b8ff" stroke="#63b8ff" points="745.07,-134.03 734.53,-132.99 742.13,-140.38 745.07,-134.03"/>
</a>
</g>
</g>
<!-- Node5 -->
<g id="Node000005" class="node">
<title>Node5</title>
<g id="a_Node000005"><a xlink:href="structs_8h.html" target="_top" xlink:title=" ">
<polygon fill="white" stroke="#666666" points="740.12,-76 685.88,-76 685.88,-56 740.12,-56 740.12,-76"/>
<text text-anchor="middle" x="713" y="-62.5" font-family="Helvetica,sans-Serif" font-size="10.00">structs.h</text>
</a>
</g>
</g>
<!-- Node4&#45;&gt;Node5 -->
<g id="edge4_Node000004_Node000005" class="edge">
<title>Node4&#45;&gt;Node5</title>
<g id="a_edge4_Node000004_Node000005"><a xlink:title=" ">
<path fill="none" stroke="#63b8ff" d="M707.73,-111.59C706.42,-105.01 705.98,-95.96 706.41,-87.73"/>
<polygon fill="#63b8ff" stroke="#63b8ff" points="709.89,-88.14 707.58,-77.8 702.94,-87.33 709.89,-88.14"/>
</a>
</g>
</g>
<!-- Node5&#45;&gt;Node4 -->
<g id="edge6_Node000005_Node000004" class="edge">
<title>Node5&#45;&gt;Node4</title>
<g id="a_edge6_Node000005_Node000004"><a xlink:title=" ">
<path fill="none" stroke="#63b8ff" d="M718.25,-76.3C719.59,-82.93 720.03,-92.11 719.58,-100.43"/>
<polygon fill="#63b8ff" stroke="#63b8ff" points="716.13,-99.75 718.44,-110.09 723.08,-100.57 716.13,-99.75"/>
</a>
</g>
</g>
<!-- Node6 -->
<g id="Node000006" class="node">
<title>Node6</title>
<g id="a_Node000006"><a xlink:title=" ">
<polygon fill="#e0e0e0" stroke="#999999" points="259,-20 219,-20 219,0 259,0 259,-20"/>
<text text-anchor="middle" x="239" y="-6.5" font-family="Helvetica,sans-Serif" font-size="10.00">string</text>
</a>
</g>
</g>
<!-- Node5&#45;&gt;Node6 -->
<g id="edge5_Node000005_Node000006" class="edge">
<title>Node5&#45;&gt;Node6</title>
<g id="a_edge5_Node000005_Node000006"><a xlink:title=" ">
<path fill="none" stroke="#63b8ff" d="M685.57,-57.71C682.69,-57.08 679.79,-56.49 677,-56 526.11,-29.53 343.04,-16.92 270.65,-12.7"/>
<polygon fill="#63b8ff" stroke="#63b8ff" points="270.92,-9.21 260.73,-12.14 270.52,-16.2 270.92,-9.21"/>
</a>
</g>
</g>
<!-- Node8 -->
<g id="Node000008" class="node">
<title>Node8</title>
<g id="a_Node000008"><a xlink:href="_character_controller_8h.html" target="_top" xlink:title=" ">
<polygon fill="white" stroke="#666666" points="740.5,-356 631.5,-356 631.5,-336 740.5,-336 740.5,-356"/>
<text text-anchor="middle" x="686" y="-342.5" font-family="Helvetica,sans-Serif" font-size="10.00">CharacterController.h</text>
</a>
</g>
</g>
<!-- Node7&#45;&gt;Node8 -->
<g id="edge9_Node000007_Node000008" class="edge">
<title>Node7&#45;&gt;Node8</title>
<g id="a_edge9_Node000007_Node000008"><a xlink:title=" ">
<path fill="none" stroke="#63b8ff" d="M418.9,-393.62C421.64,-393.06 424.36,-392.51 427,-392 492.43,-379.31 567.49,-366.46 619.91,-357.75"/>
<polygon fill="#63b8ff" stroke="#63b8ff" points="620.28,-361.24 629.57,-356.15 619.13,-354.33 620.28,-361.24"/>
</a>
</g>
</g>
<!-- Node18 -->
<g id="Node000018" class="node">
<title>Node18</title>
<g id="a_Node000018"><a xlink:href="_hair_8h.html" target="_top" xlink:title=" ">
<polygon fill="white" stroke="#666666" points="502.12,-244 459.88,-244 459.88,-224 502.12,-224 502.12,-244"/>
<text text-anchor="middle" x="481" y="-230.5" font-family="Helvetica,sans-Serif" font-size="10.00">Hair.h</text>
</a>
</g>
</g>
<!-- Node7&#45;&gt;Node18 -->
<g id="edge23_Node000007_Node000018" class="edge">
<title>Node7&#45;&gt;Node18</title>
<g id="a_edge23_Node000007_Node000018"><a xlink:title=" ">
<path fill="none" stroke="#63b8ff" d="M386.01,-391.68C388.72,-370.21 397.73,-316.34 423,-280 431.16,-268.27 443.3,-258.18 454.37,-250.54"/>
<polygon fill="#63b8ff" stroke="#63b8ff" points="455.94,-253.69 462.42,-245.31 452.13,-247.82 455.94,-253.69"/>
</a>
</g>
</g>
<!-- Node20 -->
<g id="Node000020" class="node">
<title>Node20</title>
<g id="a_Node000020"><a xlink:href="_character_texture_manager_8h.html" target="_top" xlink:title=" ">
<polygon fill="white" stroke="#666666" points="571.38,-356 434.62,-356 434.62,-336 571.38,-336 571.38,-356"/>
<text text-anchor="middle" x="503" y="-342.5" font-family="Helvetica,sans-Serif" font-size="10.00">CharacterTextureManager.h</text>
</a>
</g>
</g>
<!-- Node7&#45;&gt;Node20 -->
<g id="edge28_Node000007_Node000020" class="edge">
<title>Node7&#45;&gt;Node20</title>
<g id="a_edge28_Node000007_Node000020"><a xlink:title=" ">
<path fill="none" stroke="#63b8ff" d="M405.55,-391.59C423.88,-383.21 450.99,-370.8 471.96,-361.21"/>
<polygon fill="#63b8ff" stroke="#63b8ff" points="473.27,-364.45 480.91,-357.11 470.36,-358.09 473.27,-364.45"/>
</a>
</g>
</g>
<!-- Node23 -->
<g id="Node000023" class="node">
<title>Node23</title>
<g id="a_Node000023"><a xlink:href="_character_state_8h.html" target="_top" xlink:title=" ">
<polygon fill="white" stroke="#666666" points="376.12,-300 285.88,-300 285.88,-280 376.12,-280 376.12,-300"/>
<text text-anchor="middle" x="331" y="-286.5" font-family="Helvetica,sans-Serif" font-size="10.00">CharacterState.h</text>
</a>
</g>
</g>
<!-- Node7&#45;&gt;Node23 -->
<g id="edge35_Node000007_Node000023" class="edge">
<title>Node7&#45;&gt;Node23</title>
<g id="a_edge35_Node000007_Node000023"><a xlink:title=" ">
<path fill="none" stroke="#63b8ff" d="M380.4,-391.62C371.63,-373.76 352.37,-334.53 340.66,-310.67"/>
<polygon fill="#63b8ff" stroke="#63b8ff" points="343.81,-309.15 336.26,-301.71 337.52,-312.23 343.81,-309.15"/>
</a>
</g>
</g>
<!-- Node24 -->
<g id="Node000024" class="node">
<title>Node24</title>
<g id="a_Node000024"><a xlink:href="_character_sound_manager_8h.html" target="_top" xlink:title=" ">
<polygon fill="white" stroke="#666666" points="338.12,-356 205.88,-356 205.88,-336 338.12,-336 338.12,-356"/>
<text text-anchor="middle" x="272" y="-342.5" font-family="Helvetica,sans-Serif" font-size="10.00">CharacterSoundManager.h</text>
</a>
</g>
</g>
<!-- Node7&#45;&gt;Node24 -->
<g id="edge36_Node000007_Node000024" class="edge">
<title>Node7&#45;&gt;Node24</title>
<g id="a_edge36_Node000007_Node000024"><a xlink:title=" ">
<path fill="none" stroke="#63b8ff" d="M365.32,-391.59C347.84,-383.24 322.05,-370.92 302,-361.34"/>
<polygon fill="#63b8ff" stroke="#63b8ff" points="303.73,-358.29 293.2,-357.13 300.72,-364.6 303.73,-358.29"/>
</a>
</g>
</g>
<!-- Node8&#45;&gt;Node3 -->
<g id="edge22_Node000008_Node000003" class="edge">
<title>Node8&#45;&gt;Node3</title>
<g id="a_edge22_Node000008_Node000003"><a xlink:title=" ">
<path fill="none" stroke="#63b8ff" d="M695.12,-335.72C703.16,-327.1 714.7,-313.57 722,-300 739.8,-266.89 751.18,-224.28 756.8,-199.47"/>
<polygon fill="#63b8ff" stroke="#63b8ff" points="760.21,-200.25 758.9,-189.74 753.37,-198.77 760.21,-200.25"/>
</a>
</g>
</g>
<!-- Node9 -->
<g id="Node000009" class="node">
<title>Node9</title>
<g id="a_Node000009"><a xlink:href="_game_object_8h.html" target="_top" xlink:title=" ">
<polygon fill="white" stroke="#666666" points="713.5,-300 634.5,-300 634.5,-280 713.5,-280 713.5,-300"/>
<text text-anchor="middle" x="674" y="-286.5" font-family="Helvetica,sans-Serif" font-size="10.00">GameObject.h</text>
</a>
</g>
</g>
<!-- Node8&#45;&gt;Node9 -->
<g id="edge10_Node000008_Node000009" class="edge">
<title>Node8&#45;&gt;Node9</title>
<g id="a_edge10_Node000008_Node000009"><a xlink:title=" ">
<path fill="none" stroke="#63b8ff" d="M683.91,-335.59C682.43,-328.93 680.39,-319.75 678.54,-311.44"/>
<polygon fill="#63b8ff" stroke="#63b8ff" points="681.98,-310.78 676.39,-301.78 675.15,-312.3 681.98,-310.78"/>
</a>
</g>
</g>
<!-- Node17 -->
<g id="Node000017" class="node">
<title>Node17</title>
<g id="a_Node000017"><a xlink:href="_vector2x2f_8h.html" target="_top" xlink:title=" ">
<polygon fill="white" stroke="#666666" points="992.38,-300 921.62,-300 921.62,-280 992.38,-280 992.38,-300"/>
<text text-anchor="middle" x="957" y="-286.5" font-family="Helvetica,sans-Serif" font-size="10.00">Vector2x2f.h</text>
</a>
</g>
</g>
<!-- Node8&#45;&gt;Node17 -->
<g id="edge20_Node000008_Node000017" class="edge">
<title>Node8&#45;&gt;Node17</title>
<g id="a_edge20_Node000008_Node000017"><a xlink:title=" ">
<path fill="none" stroke="#63b8ff" d="M733.51,-335.53C783.23,-325.63 860.78,-310.17 910.22,-300.32"/>
<polygon fill="#63b8ff" stroke="#63b8ff" points="910.62,-303.81 919.75,-298.42 909.26,-296.94 910.62,-303.81"/>
</a>
</g>
</g>
<!-- Node10 -->
<g id="Node000010" class="node">
<title>Node10</title>
<g id="a_Node000010"><a xlink:href="_transform_8h.html" target="_top" xlink:title=" ">
<polygon fill="white" stroke="#666666" points="564.25,-188 495.75,-188 495.75,-168 564.25,-168 564.25,-188"/>
<text text-anchor="middle" x="530" y="-174.5" font-family="Helvetica,sans-Serif" font-size="10.00">Transform.h</text>
</a>
</g>
</g>
<!-- Node9&#45;&gt;Node10 -->
<g id="edge11_Node000009_Node000010" class="edge">
<title>Node9&#45;&gt;Node10</title>
<g id="a_edge11_Node000009_Node000010"><a xlink:title=" ">
<path fill="none" stroke="#63b8ff" d="M661.72,-279.62C637.17,-260.87 581.78,-218.55 551.22,-195.21"/>
<polygon fill="#63b8ff" stroke="#63b8ff" points="553.52,-192.56 543.45,-189.27 549.27,-198.13 553.52,-192.56"/>
</a>
</g>
</g>
<!-- Node10&#45;&gt;Node4 -->
<g id="edge19_Node000010_Node000004" class="edge">
<title>Node10&#45;&gt;Node4</title>
<g id="a_edge19_Node000010_Node000004"><a xlink:title=" ">
<path fill="none" stroke="#63b8ff" d="M561.88,-167.59C592.33,-158.61 638.39,-145.02 671.65,-135.2"/>
<polygon fill="#63b8ff" stroke="#63b8ff" points="672.35,-138.64 680.95,-132.46 670.37,-131.93 672.35,-138.64"/>
</a>
</g>
</g>
<!-- Node11 -->
<g id="Node000011" class="node">
<title>Node11</title>
<g id="a_Node000011"><a xlink:href="base_8h.html" target="_top" xlink:title=" ">
<polygon fill="white" stroke="#666666" points="534.62,-132 489.38,-132 489.38,-112 534.62,-112 534.62,-132"/>
<text text-anchor="middle" x="512" y="-118.5" font-family="Helvetica,sans-Serif" font-size="10.00">base.h</text>
</a>
</g>
</g>
<!-- Node10&#45;&gt;Node11 -->
<g id="edge12_Node000010_Node000011" class="edge">
<title>Node10&#45;&gt;Node11</title>
<g id="a_edge12_Node000010_Node000011"><a xlink:title=" ">
<path fill="none" stroke="#63b8ff" d="M526.86,-167.59C524.62,-160.86 521.51,-151.53 518.72,-143.15"/>
<polygon fill="#63b8ff" stroke="#63b8ff" points="522.06,-142.11 515.58,-133.73 515.42,-144.33 522.06,-142.11"/>
</a>
</g>
</g>
<!-- Node11&#45;&gt;Node5 -->
<g id="edge18_Node000011_Node000005" class="edge">
<title>Node11&#45;&gt;Node5</title>
<g id="a_edge18_Node000011_Node000005"><a xlink:title=" ">
<path fill="none" stroke="#63b8ff" d="M535.06,-114.81C569.08,-105.66 633.16,-88.45 674.42,-77.36"/>
<polygon fill="#63b8ff" stroke="#63b8ff" points="675.2,-80.78 683.95,-74.8 673.38,-74.02 675.2,-80.78"/>
</a>
</g>
</g>
<!-- Node12 -->
<g id="Node000012" class="node">
<title>Node12</title>
<g id="a_Node000012"><a xlink:title=" ">
<polygon fill="#e0e0e0" stroke="#999999" points="667.88,-76 624.12,-76 624.12,-56 667.88,-56 667.88,-76"/>
<text text-anchor="middle" x="646" y="-62.5" font-family="Helvetica,sans-Serif" font-size="10.00">SDL.h</text>
</a>
</g>
</g>
<!-- Node11&#45;&gt;Node12 -->
<g id="edge13_Node000011_Node000012" class="edge">
<title>Node11&#45;&gt;Node12</title>
<g id="a_edge13_Node000011_Node000012"><a xlink:title=" ">
<path fill="none" stroke="#63b8ff" d="M535.04,-111.72C556.58,-103.04 588.98,-89.98 613.22,-80.21"/>
<polygon fill="#63b8ff" stroke="#63b8ff" points="614.34,-83.53 622.31,-76.55 611.72,-77.04 614.34,-83.53"/>
</a>
</g>
</g>
<!-- Node13 -->
<g id="Node000013" class="node">
<title>Node13</title>
<g id="a_Node000013"><a xlink:title=" ">
<polygon fill="#e0e0e0" stroke="#999999" points="344.75,-76 267.25,-76 267.25,-56 344.75,-56 344.75,-76"/>
<text text-anchor="middle" x="306" y="-62.5" font-family="Helvetica,sans-Serif" font-size="10.00">SDL_opengl.h</text>
</a>
</g>
</g>
<!-- Node11&#45;&gt;Node13 -->
<g id="edge14_Node000011_Node000013" class="edge">
<title>Node11&#45;&gt;Node13</title>
<g id="a_edge14_Node000011_Node000013"><a xlink:title=" ">
<path fill="none" stroke="#63b8ff" d="M489.17,-115.01C456.47,-106.44 395.57,-90.48 353.01,-79.32"/>
<polygon fill="#63b8ff" stroke="#63b8ff" points="354.09,-75.99 343.53,-76.84 352.32,-82.76 354.09,-75.99"/>
</a>
</g>
</g>
<!-- Node14 -->
<g id="Node000014" class="node">
<title>Node14</title>
<g id="a_Node000014"><a xlink:title=" ">
<polygon fill="#e0e0e0" stroke="#999999" points="421,-76 363,-76 363,-56 421,-56 421,-76"/>
<text text-anchor="middle" x="392" y="-62.5" font-family="Helvetica,sans-Serif" font-size="10.00">SDL_ttf.h</text>
</a>
</g>
</g>
<!-- Node11&#45;&gt;Node14 -->
<g id="edge15_Node000011_Node000014" class="edge">
<title>Node11&#45;&gt;Node14</title>
<g id="a_edge15_Node000011_Node000014"><a xlink:title=" ">
<path fill="none" stroke="#63b8ff" d="M491.1,-111.59C472.37,-103.17 444.64,-90.69 423.28,-81.07"/>
<polygon fill="#63b8ff" stroke="#63b8ff" points="425,-78.01 414.45,-77.1 422.13,-84.4 425,-78.01"/>
</a>
</g>
</g>
<!-- Node15 -->
<g id="Node000015" class="node">
<title>Node15</title>
<g id="a_Node000015"><a xlink:title=" ">
<polygon fill="#e0e0e0" stroke="#999999" points="512.5,-76 439.5,-76 439.5,-56 512.5,-56 512.5,-76"/>
<text text-anchor="middle" x="476" y="-62.5" font-family="Helvetica,sans-Serif" font-size="10.00">SDL_mixer.h</text>
</a>
</g>
</g>
<!-- Node11&#45;&gt;Node15 -->
<g id="edge16_Node000011_Node000015" class="edge">
<title>Node11&#45;&gt;Node15</title>
<g id="a_edge16_Node000011_Node000015"><a xlink:title=" ">
<path fill="none" stroke="#63b8ff" d="M505.73,-111.59C500.98,-104.47 494.3,-94.45 488.48,-85.72"/>
<polygon fill="#63b8ff" stroke="#63b8ff" points="491.5,-83.94 483.04,-77.56 485.67,-87.82 491.5,-83.94"/>
</a>
</g>
</g>
<!-- Node16 -->
<g id="Node000016" class="node">
<title>Node16</title>
<g id="a_Node000016"><a xlink:title=" ">
<polygon fill="#e0e0e0" stroke="#999999" points="605.62,-76 530.38,-76 530.38,-56 605.62,-56 605.62,-76"/>
<text text-anchor="middle" x="568" y="-62.5" font-family="Helvetica,sans-Serif" font-size="10.00">SDL_image.h</text>
</a>
</g>
</g>
<!-- Node11&#45;&gt;Node16 -->
<g id="edge17_Node000011_Node000016" class="edge">
<title>Node11&#45;&gt;Node16</title>
<g id="a_edge17_Node000011_Node000016"><a xlink:title=" ">
<path fill="none" stroke="#63b8ff" d="M521.75,-111.59C529.62,-104.01 540.9,-93.13 550.35,-84.02"/>
<polygon fill="#63b8ff" stroke="#63b8ff" points="552.5,-86.81 557.27,-77.35 547.64,-81.77 552.5,-86.81"/>
</a>
</g>
</g>
<!-- Node17&#45;&gt;Node2 -->
<g id="edge21_Node000017_Node000002" class="edge">
<title>Node17&#45;&gt;Node2</title>
<g id="a_edge21_Node000017_Node000002"><a xlink:title=" ">
<path fill="none" stroke="#63b8ff" d="M955.78,-279.59C954.92,-272.93 953.73,-263.75 952.65,-255.44"/>
<polygon fill="#63b8ff" stroke="#63b8ff" points="956.16,-255.27 951.4,-245.8 949.21,-256.17 956.16,-255.27"/>
</a>
</g>
</g>
<!-- Node18&#45;&gt;Node3 -->
<g id="edge25_Node000018_Node000003" class="edge">
<title>Node18&#45;&gt;Node3</title>
<g id="a_edge25_Node000018_Node000003"><a xlink:title=" ">
<path fill="none" stroke="#63b8ff" d="M502.51,-228.85C551.15,-219.47 669.88,-196.57 727.94,-185.38"/>
<polygon fill="#63b8ff" stroke="#63b8ff" points="728.39,-188.85 737.55,-183.52 727.07,-181.98 728.39,-188.85"/>
</a>
</g>
</g>
<!-- Node18&#45;&gt;Node10 -->
<g id="edge24_Node000018_Node000010" class="edge">
<title>Node18&#45;&gt;Node10</title>
<g id="a_edge24_Node000018_Node000010"><a xlink:title=" ">
<path fill="none" stroke="#63b8ff" d="M489.54,-223.59C496.28,-216.16 505.89,-205.58 514.04,-196.58"/>
<polygon fill="#63b8ff" stroke="#63b8ff" points="516.42,-199.18 520.55,-189.42 511.23,-194.47 516.42,-199.18"/>
</a>
</g>
</g>
<!-- Node19 -->
<g id="Node000019" class="node">
<title>Node19</title>
<g id="a_Node000019"><a xlink:href="_texture_8h.html" target="_top" xlink:title=" ">
<polygon fill="white" stroke="#666666" points="477.25,-188 420.75,-188 420.75,-168 477.25,-168 477.25,-188"/>
<text text-anchor="middle" x="449" y="-174.5" font-family="Helvetica,sans-Serif" font-size="10.00">Texture.h</text>
</a>
</g>
</g>
<!-- Node18&#45;&gt;Node19 -->
<g id="edge26_Node000018_Node000019" class="edge">
<title>Node18&#45;&gt;Node19</title>
<g id="a_edge26_Node000018_Node000019"><a xlink:title=" ">
<path fill="none" stroke="#63b8ff" d="M475.43,-223.59C471.25,-216.55 465.4,-206.67 460.26,-198"/>
<polygon fill="#63b8ff" stroke="#63b8ff" points="463.39,-196.42 455.28,-189.6 457.37,-199.99 463.39,-196.42"/>
</a>
</g>
</g>
<!-- Node19&#45;&gt;Node11 -->
<g id="edge27_Node000019_Node000011" class="edge">
<title>Node19&#45;&gt;Node11</title>
<g id="a_edge27_Node000019_Node000011"><a xlink:title=" ">
<path fill="none" stroke="#63b8ff" d="M459.97,-167.59C468.92,-159.93 481.77,-148.91 492.46,-139.75"/>
<polygon fill="#63b8ff" stroke="#63b8ff" points="494.69,-142.45 500,-133.28 490.13,-137.13 494.69,-142.45"/>
</a>
</g>
</g>
<!-- Node20&#45;&gt;Node3 -->
<g id="edge34_Node000020_Node000003" class="edge">
<title>Node20&#45;&gt;Node3</title>
<g id="a_edge34_Node000020_Node000003"><a xlink:title=" ">
<path fill="none" stroke="#63b8ff" d="M521.79,-335.55C538.82,-326.81 564.49,-313.21 586,-300 643.04,-264.96 707.04,-218.88 739.54,-194.96"/>
<polygon fill="#63b8ff" stroke="#63b8ff" points="741.4,-197.94 747.36,-189.19 737.24,-192.31 741.4,-197.94"/>
</a>
</g>
</g>
<!-- Node21 -->
<g id="Node000021" class="node">
<title>Node21</title>
<g id="a_Node000021"><a xlink:href="_animation_manager_a_n_d_hair_8h.html" target="_top" xlink:title=" ">
<polygon fill="white" stroke="#666666" points="577.5,-300 432.5,-300 432.5,-280 577.5,-280 577.5,-300"/>
<text text-anchor="middle" x="505" y="-286.5" font-family="Helvetica,sans-Serif" font-size="10.00">AnimationManagerANDHair.h</text>
</a>
</g>
</g>
<!-- Node20&#45;&gt;Node21 -->
<g id="edge29_Node000020_Node000021" class="edge">
<title>Node20&#45;&gt;Node21</title>
<g id="a_edge29_Node000020_Node000021"><a xlink:title=" ">
<path fill="none" stroke="#63b8ff" d="M503.35,-335.59C503.59,-329.01 503.93,-319.96 504.23,-311.73"/>
<polygon fill="#63b8ff" stroke="#63b8ff" points="507.73,-311.93 504.6,-301.81 500.73,-311.67 507.73,-311.93"/>
</a>
</g>
</g>
<!-- Node20&#45;&gt;Node23 -->
<g id="edge33_Node000020_Node000023" class="edge">
<title>Node20&#45;&gt;Node23</title>
<g id="a_edge33_Node000020_Node000023"><a xlink:title=" ">
<path fill="none" stroke="#63b8ff" d="M473.04,-335.59C445.09,-326.82 403.17,-313.66 372.1,-303.9"/>
<polygon fill="#63b8ff" stroke="#63b8ff" points="373.23,-300.59 362.64,-300.93 371.13,-307.27 373.23,-300.59"/>
</a>
</g>
</g>
<!-- Node21&#45;&gt;Node3 -->
<g id="edge32_Node000021_Node000003" class="edge">
<title>Node21&#45;&gt;Node3</title>
<g id="a_edge32_Node000021_Node000003"><a xlink:title=" ">
<path fill="none" stroke="#63b8ff" d="M514.86,-279.6C530.17,-265.5 561.12,-238.95 592,-224 636.68,-202.36 693.23,-190.01 728.26,-183.9"/>
<polygon fill="#63b8ff" stroke="#63b8ff" points="728.49,-187.41 737.77,-182.32 727.34,-180.51 728.49,-187.41"/>
</a>
</g>
</g>
<!-- Node22 -->
<g id="Node000022" class="node">
<title>Node22</title>
<g id="a_Node000022"><a xlink:href="_animation_manager_8h.html" target="_top" xlink:title=" ">
<polygon fill="white" stroke="#666666" points="441.62,-244 336.38,-244 336.38,-224 441.62,-224 441.62,-244"/>
<text text-anchor="middle" x="389" y="-230.5" font-family="Helvetica,sans-Serif" font-size="10.00">AnimationManager.h</text>
</a>
</g>
</g>
<!-- Node21&#45;&gt;Node22 -->
<g id="edge30_Node000021_Node000022" class="edge">
<title>Node21&#45;&gt;Node22</title>
<g id="a_edge30_Node000021_Node000022"><a xlink:title=" ">
<path fill="none" stroke="#63b8ff" d="M484.79,-279.59C466.77,-271.21 440.13,-258.8 419.52,-249.21"/>
<polygon fill="#63b8ff" stroke="#63b8ff" points="421.28,-246.17 410.74,-245.12 418.32,-252.51 421.28,-246.17"/>
</a>
</g>
</g>
<!-- Node22&#45;&gt;Node19 -->
<g id="edge31_Node000022_Node000019" class="edge">
<title>Node22&#45;&gt;Node19</title>
<g id="a_edge31_Node000022_Node000019"><a xlink:title=" ">
<path fill="none" stroke="#63b8ff" d="M399.45,-223.59C407.97,-215.93 420.21,-204.91 430.39,-195.75"/>
<polygon fill="#63b8ff" stroke="#63b8ff" points="432.45,-198.6 437.54,-189.31 427.77,-193.4 432.45,-198.6"/>
</a>
</g>
</g>
<!-- Node24&#45;&gt;Node23 -->
<g id="edge37_Node000024_Node000023" class="edge">
<title>Node24&#45;&gt;Node23</title>
<g id="a_edge37_Node000024_Node000023"><a xlink:title=" ">
<path fill="none" stroke="#63b8ff" d="M282.28,-335.59C290.57,-328.01 302.45,-317.13 312.4,-308.02"/>
<polygon fill="#63b8ff" stroke="#63b8ff" points="314.71,-310.65 319.72,-301.32 309.98,-305.49 314.71,-310.65"/>
</a>
</g>
</g>
<!-- Node25 -->
<g id="Node000025" class="node">
<title>Node25</title>
<g id="a_Node000025"><a xlink:href="_sound_effect_8h.html" target="_top" xlink:title=" ">
<polygon fill="white" stroke="#666666" points="296.75,-244 219.25,-244 219.25,-224 296.75,-224 296.75,-244"/>
<text text-anchor="middle" x="258" y="-230.5" font-family="Helvetica,sans-Serif" font-size="10.00">SoundEffect.h</text>
</a>
</g>
</g>
<!-- Node24&#45;&gt;Node25 -->
<g id="edge38_Node000024_Node000025" class="edge">
<title>Node24&#45;&gt;Node25</title>
<g id="a_edge38_Node000024_Node000025"><a xlink:title=" ">
<path fill="none" stroke="#63b8ff" d="M270.81,-335.62C268.56,-318.01 263.68,-279.59 260.63,-255.65"/>
<polygon fill="#63b8ff" stroke="#63b8ff" points="264.12,-255.33 259.38,-245.86 257.17,-256.22 264.12,-255.33"/>
</a>
</g>
</g>
<!-- Node26 -->
<g id="Node000026" class="node">
<title>Node26</title>
<g id="a_Node000026"><a xlink:href="_sound_stream_8h.html" target="_top" xlink:title=" ">
<polygon fill="white" stroke="#666666" points="149.75,-300 66.25,-300 66.25,-280 149.75,-280 149.75,-300"/>
<text text-anchor="middle" x="108" y="-286.5" font-family="Helvetica,sans-Serif" font-size="10.00">SoundStream.h</text>
</a>
</g>
</g>
<!-- Node24&#45;&gt;Node26 -->
<g id="edge41_Node000024_Node000026" class="edge">
<title>Node24&#45;&gt;Node26</title>
<g id="a_edge41_Node000024_Node000026"><a xlink:title=" ">
<path fill="none" stroke="#63b8ff" d="M243.43,-335.59C216.9,-326.86 177.16,-313.77 147.58,-304.03"/>
<polygon fill="#63b8ff" stroke="#63b8ff" points="148.82,-300.76 138.23,-300.95 146.63,-307.4 148.82,-300.76"/>
</a>
</g>
</g>
<!-- Node25&#45;&gt;Node3 -->
<g id="edge40_Node000025_Node000003" class="edge">
<title>Node25&#45;&gt;Node3</title>
<g id="a_edge40_Node000025_Node000003"><a xlink:title=" ">
<path fill="none" stroke="#63b8ff" d="M297.02,-227.73C306.8,-226.46 317.28,-225.14 327,-224 476.67,-206.48 655.79,-189.02 728.22,-182.1"/>
<polygon fill="#63b8ff" stroke="#63b8ff" points="728.17,-185.62 737.79,-181.19 727.51,-178.65 728.17,-185.62"/>
</a>
</g>
</g>
<!-- Node25&#45;&gt;Node6 -->
<g id="edge39_Node000025_Node000006" class="edge">
<title>Node25&#45;&gt;Node6</title>
<g id="a_edge39_Node000025_Node000006"><a xlink:title=" ">
<path fill="none" stroke="#63b8ff" d="M257.21,-223.74C254.38,-190.74 244.76,-78.31 240.76,-31.61"/>
<polygon fill="#63b8ff" stroke="#63b8ff" points="244.26,-31.47 239.92,-21.8 237.29,-32.07 244.26,-31.47"/>
</a>
</g>
</g>
<!-- Node26&#45;&gt;Node6 -->
<g id="edge42_Node000026_Node000006" class="edge">
<title>Node26&#45;&gt;Node6</title>
<g id="a_edge42_Node000026_Node000006"><a xlink:title=" ">
<path fill="none" stroke="#63b8ff" d="M120.38,-279.59C141.69,-262.24 183,-222.92 183,-179 183,-179 183,-179 183,-121 183,-85.48 206.48,-49.84 223.03,-29.13"/>
<polygon fill="#63b8ff" stroke="#63b8ff" points="225.56,-31.56 229.28,-21.64 220.19,-27.07 225.56,-31.56"/>
</a>
</g>
</g>
<!-- Node27&#45;&gt;Node3 -->
<g id="edge76_Node000027_Node000003" class="edge">
<title>Node27&#45;&gt;Node3</title>
<g id="a_edge76_Node000027_Node000003"><a xlink:title=" ">
<path fill="none" stroke="#63b8ff" d="M799.15,-671.71C805.24,-652.92 818,-608.98 818,-571 818,-571 818,-571 818,-289 818,-253.35 794.11,-217.75 777.26,-197.08"/>
<polygon fill="#63b8ff" stroke="#63b8ff" points="780.03,-194.94 770.89,-189.6 774.7,-199.48 780.03,-194.94"/>
</a>
</g>
</g>
<!-- Node28 -->
<g id="Node000028" class="node">
<title>Node28</title>
<g id="a_Node000028"><a xlink:href="_interactable_item_8h.html" target="_top" xlink:title=" ">
<polygon fill="white" stroke="#666666" points="566.38,-468 471.62,-468 471.62,-448 566.38,-448 566.38,-468"/>
<text text-anchor="middle" x="519" y="-454.5" font-family="Helvetica,sans-Serif" font-size="10.00">InteractableItem.h</text>
</a>
</g>
</g>
<!-- Node27&#45;&gt;Node28 -->
<g id="edge44_Node000027_Node000028" class="edge">
<title>Node27&#45;&gt;Node28</title>
<g id="a_edge44_Node000027_Node000028"><a xlink:title=" ">
<path fill="none" stroke="#63b8ff" d="M792.79,-671.78C781.9,-641.94 743.27,-547.45 677,-504 647.37,-484.57 609.28,-473.4 577.93,-467.05"/>
<polygon fill="#63b8ff" stroke="#63b8ff" points="578.67,-463.63 568.2,-465.21 577.37,-470.51 578.67,-463.63"/>
</a>
</g>
</g>
<!-- Node29 -->
<g id="Node000029" class="node">
<title>Node29</title>
<g id="a_Node000029"><a xlink:href="_chapter_info_8h.html" target="_top" xlink:title=" ">
<polygon fill="white" stroke="#666666" points="464.62,-636 389.38,-636 389.38,-616 464.62,-616 464.62,-636"/>
<text text-anchor="middle" x="427" y="-622.5" font-family="Helvetica,sans-Serif" font-size="10.00">ChapterInfo.h</text>
</a>
</g>
</g>
<!-- Node27&#45;&gt;Node29 -->
<g id="edge46_Node000027_Node000029" class="edge">
<title>Node27&#45;&gt;Node29</title>
<g id="a_edge46_Node000027_Node000029"><a xlink:title=" ">
<path fill="none" stroke="#63b8ff" d="M751.86,-674.54C682.49,-664.39 548.44,-644.77 476.12,-634.19"/>
<polygon fill="#63b8ff" stroke="#63b8ff" points="476.96,-630.77 466.56,-632.79 475.95,-637.7 476.96,-630.77"/>
</a>
</g>
</g>
<!-- Node28&#45;&gt;Node7 -->
<g id="edge45_Node000028_Node000007" class="edge">
<title>Node28&#45;&gt;Node7</title>
<g id="a_edge45_Node000028_Node000007"><a xlink:title=" ">
<path fill="none" stroke="#63b8ff" d="M495.66,-447.59C474.46,-439.05 442.93,-426.35 418.95,-416.68"/>
<polygon fill="#63b8ff" stroke="#63b8ff" points="420.51,-413.54 409.93,-413.05 417.89,-420.03 420.51,-413.54"/>
</a>
</g>
</g>
<!-- Node29&#45;&gt;Node3 -->
<g id="edge47_Node000029_Node000003" class="edge">
<title>Node29&#45;&gt;Node3</title>
<g id="a_edge47_Node000029_Node000003"><a xlink:title=" ">
<path fill="none" stroke="#63b8ff" d="M464.92,-623.6C535.35,-620.31 682.84,-609.95 723,-580 770.66,-544.47 780,-518.45 780,-459 780,-459 780,-459 780,-289 780,-257.26 772.22,-221.11 766.62,-199.19"/>
<polygon fill="#63b8ff" stroke="#63b8ff" points="770.07,-198.54 764.11,-189.79 763.31,-200.35 770.07,-198.54"/>
</a>
</g>
</g>
<!-- Node29&#45;&gt;Node26 -->
<g id="edge75_Node000029_Node000026" class="edge">
<title>Node29&#45;&gt;Node26</title>
<g id="a_edge75_Node000029_Node000026"><a xlink:title=" ">
<path fill="none" stroke="#63b8ff" d="M389.02,-622.75C314.61,-617.86 152.57,-604.67 103,-580 66.42,-561.8 38,-555.86 38,-515 38,-515 38,-515 38,-401 38,-363.17 67.83,-327.85 88.55,-307.89"/>
<polygon fill="#63b8ff" stroke="#63b8ff" points="90.67,-310.69 95.64,-301.34 85.92,-305.55 90.67,-310.69"/>
</a>
</g>
</g>
<!-- Node29&#45;&gt;Node28 -->
<g id="edge48_Node000029_Node000028" class="edge">
<title>Node29&#45;&gt;Node28</title>
<g id="a_edge48_Node000029_Node000028"><a xlink:title=" ">
<path fill="none" stroke="#63b8ff" d="M447.17,-615.55C486.89,-596.47 572.61,-552.7 587,-524 597.49,-503.08 574.93,-485.21 553.03,-473.54"/>
<polygon fill="#63b8ff" stroke="#63b8ff" points="554.68,-470.45 544.17,-469.14 551.57,-476.72 554.68,-470.45"/>
</a>
</g>
</g>
<!-- Node30 -->
<g id="Node000030" class="node">
<title>Node30</title>
<g id="a_Node000030"><a xlink:href="_spike_8h.html" target="_top" xlink:title=" ">
<polygon fill="white" stroke="#666666" points="608.5,-580 559.5,-580 559.5,-560 608.5,-560 608.5,-580"/>
<text text-anchor="middle" x="584" y="-566.5" font-family="Helvetica,sans-Serif" font-size="10.00">Spike.h</text>
</a>
</g>
</g>
<!-- Node29&#45;&gt;Node30 -->
<g id="edge49_Node000029_Node000030" class="edge">
<title>Node29&#45;&gt;Node30</title>
<g id="a_edge49_Node000029_Node000030"><a xlink:title=" ">
<path fill="none" stroke="#63b8ff" d="M454.35,-615.59C480.41,-606.63 519.79,-593.09 548.31,-583.28"/>
<polygon fill="#63b8ff" stroke="#63b8ff" points="549.29,-586.64 557.6,-580.08 547.01,-580.02 549.29,-586.64"/>
</a>
</g>
</g>
<!-- Node31 -->
<g id="Node000031" class="node">
<title>Node31</title>
<g id="a_Node000031"><a xlink:href="_trampoline_8h.html" target="_top" xlink:title=" ">
<polygon fill="white" stroke="#666666" points="264.12,-524 191.88,-524 191.88,-504 264.12,-504 264.12,-524"/>
<text text-anchor="middle" x="228" y="-510.5" font-family="Helvetica,sans-Serif" font-size="10.00">Trampoline.h</text>
</a>
</g>
</g>
<!-- Node29&#45;&gt;Node31 -->
<g id="edge51_Node000029_Node000031" class="edge">
<title>Node29&#45;&gt;Node31</title>
<g id="a_edge51_Node000029_Node000031"><a xlink:title=" ">
<path fill="none" stroke="#63b8ff" d="M410.03,-615.62C375.45,-596.5 296.55,-552.89 254.9,-529.87"/>
<polygon fill="#63b8ff" stroke="#63b8ff" points="256.69,-526.86 246.25,-525.09 253.31,-532.99 256.69,-526.86"/>
</a>
</g>
</g>
<!-- Node34 -->
<g id="Node000034" class="node">
<title>Node34</title>
<g id="a_Node000034"><a xlink:href="_strawberry_8h.html" target="_top" xlink:title=" ">
<polygon fill="white" stroke="#666666" points="136.38,-524 65.62,-524 65.62,-504 136.38,-504 136.38,-524"/>
<text text-anchor="middle" x="101" y="-510.5" font-family="Helvetica,sans-Serif" font-size="10.00">Strawberry.h</text>
</a>
</g>
</g>
<!-- Node29&#45;&gt;Node34 -->
<g id="edge55_Node000029_Node000034" class="edge">
<title>Node29&#45;&gt;Node34</title>
<g id="a_edge55_Node000029_Node000034"><a xlink:title=" ">
<path fill="none" stroke="#63b8ff" d="M388.92,-624.4C315.8,-622.48 159.47,-614.34 120,-580 107.38,-569.02 102.92,-550.16 101.44,-535.57"/>
<polygon fill="#63b8ff" stroke="#63b8ff" points="104.94,-535.46 100.88,-525.67 97.96,-535.86 104.94,-535.46"/>
</a>
</g>
</g>
<!-- Node35 -->
<g id="Node000035" class="node">
<title>Node35</title>
<g id="a_Node000035"><a xlink:href="_respawn_zone_8h.html" target="_top" xlink:title=" ">
<polygon fill="white" stroke="#666666" points="713.62,-580 626.38,-580 626.38,-560 713.62,-560 713.62,-580"/>
<text text-anchor="middle" x="670" y="-566.5" font-family="Helvetica,sans-Serif" font-size="10.00">RespawnZone.h</text>
</a>
</g>
</g>
<!-- Node29&#45;&gt;Node35 -->
<g id="edge59_Node000029_Node000035" class="edge">
<title>Node29&#45;&gt;Node35</title>
<g id="a_edge59_Node000029_Node000035"><a xlink:title=" ">
<path fill="none" stroke="#63b8ff" d="M464.97,-616.56C505.58,-607.54 570.31,-593.15 616.17,-582.96"/>
<polygon fill="#63b8ff" stroke="#63b8ff" points="616.91,-586.38 625.92,-580.8 615.4,-579.55 616.91,-586.38"/>
</a>
</g>
</g>
<!-- Node36 -->
<g id="Node000036" class="node">
<title>Node36</title>
<g id="a_Node000036"><a xlink:href="_dash_crystal_8h.html" target="_top" xlink:title=" ">
<polygon fill="white" stroke="#666666" points="458.5,-524 379.5,-524 379.5,-504 458.5,-504 458.5,-524"/>
<text text-anchor="middle" x="419" y="-510.5" font-family="Helvetica,sans-Serif" font-size="10.00">DashCrystal.h</text>
</a>
</g>
</g>
<!-- Node29&#45;&gt;Node36 -->
<g id="edge61_Node000029_Node000036" class="edge">
<title>Node29&#45;&gt;Node36</title>
<g id="a_edge61_Node000029_Node000036"><a xlink:title=" ">
<path fill="none" stroke="#63b8ff" d="M423.14,-615.54C419.7,-606.57 414.92,-592.62 413,-580 410.75,-565.21 412.42,-548.39 414.56,-535.57"/>
<polygon fill="#63b8ff" stroke="#63b8ff" points="417.99,-536.27 416.44,-525.78 411.11,-534.94 417.99,-536.27"/>
</a>
</g>
</g>
<!-- Node37 -->
<g id="Node000037" class="node">
<title>Node37</title>
<g id="a_Node000037"><a xlink:href="_crumble_block_8h.html" target="_top" xlink:title=" ">
<polygon fill="white" stroke="#666666" points="561.88,-524 476.12,-524 476.12,-504 561.88,-504 561.88,-524"/>
<text text-anchor="middle" x="519" y="-510.5" font-family="Helvetica,sans-Serif" font-size="10.00">CrumbleBlock.h</text>
</a>
</g>
</g>
<!-- Node29&#45;&gt;Node37 -->
<g id="edge64_Node000029_Node000037" class="edge">
<title>Node29&#45;&gt;Node37</title>
<g id="a_edge64_Node000029_Node000037"><a xlink:title=" ">
<path fill="none" stroke="#63b8ff" d="M427.64,-615.66C428.99,-602.13 433.17,-576.83 446,-560 455.93,-546.98 470.79,-536.84 484.53,-529.51"/>
<polygon fill="#63b8ff" stroke="#63b8ff" points="485.96,-532.71 493.35,-525.13 482.84,-526.44 485.96,-532.71"/>
</a>
</g>
</g>
<!-- Node38 -->
<g id="Node000038" class="node">
<title>Node38</title>
<g id="a_Node000038"><a xlink:href="_cog_platform_8h.html" target="_top" xlink:title=" ">
<polygon fill="white" stroke="#666666" points="361.5,-524 282.5,-524 282.5,-504 361.5,-504 361.5,-524"/>
<text text-anchor="middle" x="322" y="-510.5" font-family="Helvetica,sans-Serif" font-size="10.00">CogPlatform.h</text>
</a>
</g>
</g>
<!-- Node29&#45;&gt;Node38 -->
<g id="edge67_Node000029_Node000038" class="edge">
<title>Node29&#45;&gt;Node38</title>
<g id="a_edge67_Node000029_Node000038"><a xlink:title=" ">
<path fill="none" stroke="#63b8ff" d="M418.05,-615.62C400.46,-597.19 361.15,-556.01 338.65,-532.44"/>
<polygon fill="#63b8ff" stroke="#63b8ff" points="341.41,-530.27 331.97,-525.45 336.35,-535.1 341.41,-530.27"/>
</a>
</g>
</g>
<!-- Node39 -->
<g id="Node000039" class="node">
<title>Node39</title>
<g id="a_Node000039"><a xlink:href="_flying_strawberry_8h.html" target="_top" xlink:title=" ">
<polygon fill="white" stroke="#666666" points="226.5,-580 129.5,-580 129.5,-560 226.5,-560 226.5,-580"/>
<text text-anchor="middle" x="178" y="-566.5" font-family="Helvetica,sans-Serif" font-size="10.00">FlyingStrawberry.h</text>
</a>
</g>
</g>
<!-- Node29&#45;&gt;Node39 -->
<g id="edge70_Node000029_Node000039" class="edge">
<title>Node29&#45;&gt;Node39</title>
<g id="a_edge70_Node000029_Node000039"><a xlink:title=" ">
<path fill="none" stroke="#63b8ff" d="M388.91,-616.74C347.16,-607.69 279.84,-593.09 232.51,-582.82"/>
<polygon fill="#63b8ff" stroke="#63b8ff" points="233.53,-579.46 223.01,-580.76 232.04,-586.3 233.53,-579.46"/>
</a>
</g>
</g>
<!-- Node40 -->
<g id="Node000040" class="node">
<title>Node40</title>
<g id="a_Node000040"><a xlink:href="_level_8h.html" target="_top" xlink:title=" ">
<polygon fill="white" stroke="#666666" points="502.75,-580 455.25,-580 455.25,-560 502.75,-560 502.75,-580"/>
<text text-anchor="middle" x="479" y="-566.5" font-family="Helvetica,sans-Serif" font-size="10.00">Level.h</text>
</a>
</g>
</g>
<!-- Node29&#45;&gt;Node40 -->
<g id="edge73_Node000029_Node000040" class="edge">
<title>Node29&#45;&gt;Node40</title>
<g id="a_edge73_Node000029_Node000040"><a xlink:title=" ">
<path fill="none" stroke="#63b8ff" d="M436.06,-615.59C443.22,-608.16 453.41,-597.58 462.07,-588.58"/>
<polygon fill="#63b8ff" stroke="#63b8ff" points="464.58,-591.02 469,-581.39 459.54,-586.16 464.58,-591.02"/>
</a>
</g>
</g>
<!-- Node30&#45;&gt;Node28 -->
<g id="edge50_Node000030_Node000028" class="edge">
<title>Node30&#45;&gt;Node28</title>
<g id="a_edge50_Node000030_Node000028"><a xlink:title=" ">
<path fill="none" stroke="#63b8ff" d="M603.06,-559.7C625.23,-547.59 656.99,-525.45 642,-504 627.38,-483.08 601.94,-471.86 577.98,-465.85"/>
<polygon fill="#63b8ff" stroke="#63b8ff" points="578.75,-462.43 568.23,-463.69 577.24,-469.27 578.75,-462.43"/>
</a>
</g>
</g>
<!-- Node31&#45;&gt;Node28 -->
<g id="edge52_Node000031_Node000028" class="edge">
<title>Node31&#45;&gt;Node28</title>
<g id="a_edge52_Node000031_Node000028"><a xlink:title=" ">
<path fill="none" stroke="#63b8ff" d="M264.34,-505.68C267.27,-505.1 270.18,-504.54 273,-504 336.89,-491.77 410.26,-478.44 460.13,-469.49"/>
<polygon fill="#63b8ff" stroke="#63b8ff" points="460.62,-472.96 469.85,-467.75 459.39,-466.07 460.62,-472.96"/>
</a>
</g>
</g>
<!-- Node32 -->
<g id="Node000032" class="node">
<title>Node32</title>
<g id="a_Node000032"><a xlink:href="_counted_item_8h.html" target="_top" xlink:title=" ">
<polygon fill="white" stroke="#666666" points="362.25,-468 281.75,-468 281.75,-448 362.25,-448 362.25,-468"/>
<text text-anchor="middle" x="322" y="-454.5" font-family="Helvetica,sans-Serif" font-size="10.00">CountedItem.h</text>
</a>
</g>
</g>
<!-- Node31&#45;&gt;Node32 -->
<g id="edge53_Node000031_Node000032" class="edge">
<title>Node31&#45;&gt;Node32</title>
<g id="a_edge53_Node000031_Node000032"><a xlink:title=" ">
<path fill="none" stroke="#63b8ff" d="M244.37,-503.59C258.57,-495.44 279.38,-483.48 295.88,-474"/>
<polygon fill="#63b8ff" stroke="#63b8ff" points="297.26,-477.25 304.19,-469.23 293.77,-471.18 297.26,-477.25"/>
</a>
</g>
</g>
<!-- Node33 -->
<g id="Node000033" class="node">
<title>Node33</title>
<g id="a_Node000033"><a xlink:title=" ">
<polygon fill="#e0e0e0" stroke="#999999" points="489.75,-412 436.25,-412 436.25,-392 489.75,-392 489.75,-412"/>
<text text-anchor="middle" x="463" y="-398.5" font-family="Helvetica,sans-Serif" font-size="10.00">iostream</text>
</a>
</g>
</g>
<!-- Node32&#45;&gt;Node33 -->
<g id="edge54_Node000032_Node000033" class="edge">
<title>Node32&#45;&gt;Node33</title>
<g id="a_edge54_Node000032_Node000033"><a xlink:title=" ">
<path fill="none" stroke="#63b8ff" d="M346.56,-447.59C368.97,-439.01 402.34,-426.23 427.62,-416.55"/>
<polygon fill="#63b8ff" stroke="#63b8ff" points="428.75,-419.87 436.83,-413.02 426.24,-413.33 428.75,-419.87"/>
</a>
</g>
</g>
<!-- Node34&#45;&gt;Node22 -->
<g id="edge57_Node000034_Node000022" class="edge">
<title>Node34&#45;&gt;Node22</title>
<g id="a_edge57_Node000034_Node000022"><a xlink:title=" ">
<path fill="none" stroke="#63b8ff" d="M113.71,-503.67C135.59,-486.43 178,-447.29 178,-403 178,-403 178,-403 178,-345 178,-278.01 262.66,-251.75 324.73,-241.5"/>
<polygon fill="#63b8ff" stroke="#63b8ff" points="325.18,-244.97 334.53,-240 324.12,-238.05 325.18,-244.97"/>
</a>
</g>
</g>
<!-- Node34&#45;&gt;Node28 -->
<g id="edge56_Node000034_Node000028" class="edge">
<title>Node34&#45;&gt;Node28</title>
<g id="a_edge56_Node000034_Node000028"><a xlink:title=" ">
<path fill="none" stroke="#63b8ff" d="M136.64,-508.4C208.53,-499.11 371.58,-478.05 459.75,-466.65"/>
<polygon fill="#63b8ff" stroke="#63b8ff" points="460.18,-470.13 469.65,-465.37 459.29,-463.18 460.18,-470.13"/>
</a>
</g>
</g>
<!-- Node34&#45;&gt;Node32 -->
<g id="edge58_Node000034_Node000032" class="edge">
<title>Node34&#45;&gt;Node32</title>
<g id="a_edge58_Node000034_Node000032"><a xlink:title=" ">
<path fill="none" stroke="#63b8ff" d="M136.51,-504.32C173.2,-495.36 230.78,-481.29 272.06,-471.2"/>
<polygon fill="#63b8ff" stroke="#63b8ff" points="272.88,-474.61 281.76,-468.83 271.22,-467.81 272.88,-474.61"/>
</a>
</g>
</g>
<!-- Node35&#45;&gt;Node28 -->
<g id="edge60_Node000035_Node000028" class="edge">
<title>Node35&#45;&gt;Node28</title>
<g id="a_edge60_Node000035_Node000028"><a xlink:title=" ">
<path fill="none" stroke="#63b8ff" d="M671.02,-559.78C672.03,-545.93 671.77,-519.7 658,-504 637.84,-481.02 605.86,-469.71 577.66,-464.16"/>
<polygon fill="#63b8ff" stroke="#63b8ff" points="578.6,-460.78 568.15,-462.51 577.4,-467.67 578.6,-460.78"/>
</a>
</g>
</g>
<!-- Node36&#45;&gt;Node28 -->
<g id="edge62_Node000036_Node000028" class="edge">
<title>Node36&#45;&gt;Node28</title>
<g id="a_edge62_Node000036_Node000028"><a xlink:title=" ">
<path fill="none" stroke="#63b8ff" d="M436.42,-503.59C451.67,-495.36 474.08,-483.26 491.71,-473.74"/>
<polygon fill="#63b8ff" stroke="#63b8ff" points="492.98,-477.03 500.11,-469.2 489.65,-470.87 492.98,-477.03"/>
</a>
</g>
</g>
<!-- Node36&#45;&gt;Node32 -->
<g id="edge63_Node000036_Node000032" class="edge">
<title>Node36&#45;&gt;Node32</title>
<g id="a_edge63_Node000036_Node000032"><a xlink:title=" ">
<path fill="none" stroke="#63b8ff" d="M402.1,-503.59C387.45,-495.44 365.98,-483.48 348.95,-474"/>
<polygon fill="#63b8ff" stroke="#63b8ff" points="350.79,-471.02 340.35,-469.22 347.39,-477.14 350.79,-471.02"/>
</a>
</g>
</g>
<!-- Node37&#45;&gt;Node28 -->
<g id="edge65_Node000037_Node000028" class="edge">
<title>Node37&#45;&gt;Node28</title>
<g id="a_edge65_Node000037_Node000028"><a xlink:title=" ">
<path fill="none" stroke="#63b8ff" d="M519,-503.59C519,-497.01 519,-487.96 519,-479.73"/>
<polygon fill="#63b8ff" stroke="#63b8ff" points="522.5,-479.81 519,-469.81 515.5,-479.81 522.5,-479.81"/>
</a>
</g>
</g>
<!-- Node37&#45;&gt;Node32 -->
<g id="edge66_Node000037_Node000032" class="edge">
<title>Node37&#45;&gt;Node32</title>
<g id="a_edge66_Node000037_Node000032"><a xlink:title=" ">
<path fill="none" stroke="#63b8ff" d="M484.69,-503.59C452.26,-494.71 403.39,-481.31 367.68,-471.52"/>
<polygon fill="#63b8ff" stroke="#63b8ff" points="368.61,-468.15 358.04,-468.88 366.76,-474.9 368.61,-468.15"/>
</a>
</g>
</g>
<!-- Node38&#45;&gt;Node28 -->
<g id="edge68_Node000038_Node000028" class="edge">
<title>Node38&#45;&gt;Node28</title>
<g id="a_edge68_Node000038_Node000028"><a xlink:title=" ">
<path fill="none" stroke="#63b8ff" d="M356.31,-503.59C388.74,-494.71 437.61,-481.31 473.32,-471.52"/>
<polygon fill="#63b8ff" stroke="#63b8ff" points="474.24,-474.9 482.96,-468.88 472.39,-468.15 474.24,-474.9"/>
</a>
</g>
</g>
<!-- Node38&#45;&gt;Node32 -->
<g id="edge69_Node000038_Node000032" class="edge">
<title>Node38&#45;&gt;Node32</title>
<g id="a_edge69_Node000038_Node000032"><a xlink:title=" ">
<path fill="none" stroke="#63b8ff" d="M322,-503.59C322,-497.01 322,-487.96 322,-479.73"/>
<polygon fill="#63b8ff" stroke="#63b8ff" points="325.5,-479.81 322,-469.81 318.5,-479.81 325.5,-479.81"/>
</a>
</g>
</g>
<!-- Node39&#45;&gt;Node32 -->
<g id="edge72_Node000039_Node000032" class="edge">
<title>Node39&#45;&gt;Node32</title>
<g id="a_edge72_Node000039_Node000032"><a xlink:title=" ">
<path fill="none" stroke="#63b8ff" d="M175.82,-559.9C173.1,-546.21 170.25,-520.18 183,-504 203.67,-477.76 239.85,-466.61 270.12,-461.97"/>
<polygon fill="#63b8ff" stroke="#63b8ff" points="270.42,-465.46 279.88,-460.69 269.51,-458.52 270.42,-465.46"/>
</a>
</g>
</g>
<!-- Node39&#45;&gt;Node34 -->
<g id="edge71_Node000039_Node000034" class="edge">
<title>Node39&#45;&gt;Node34</title>
<g id="a_edge71_Node000039_Node000034"><a xlink:title=" ">
<path fill="none" stroke="#63b8ff" d="M164.59,-559.59C153.39,-551.74 137.19,-540.38 123.94,-531.09"/>
<polygon fill="#63b8ff" stroke="#63b8ff" points="125.95,-528.22 115.76,-525.35 121.93,-533.96 125.95,-528.22"/>
</a>
</g>
</g>
<!-- Node40&#45;&gt;Node28 -->
<g id="edge74_Node000040_Node000028" class="edge">
<title>Node40&#45;&gt;Node28</title>
<g id="a_edge74_Node000040_Node000028"><a xlink:title=" ">
<path fill="none" stroke="#63b8ff" d="M503.11,-560.53C527.69,-551.36 563.28,-536.37 571,-524 582.27,-505.94 563.35,-487.14 545.25,-474.43"/>
<polygon fill="#63b8ff" stroke="#63b8ff" points="547.57,-471.77 537.29,-469.21 543.73,-477.62 547.57,-471.77"/>
</a>
</g>
</g>
<!-- Node41&#45;&gt;Node3 -->
<g id="edge78_Node000041_Node000003" class="edge">
<title>Node41&#45;&gt;Node3</title>
<g id="a_edge78_Node000041_Node000003"><a xlink:title=" ">
<path fill="none" stroke="#63b8ff" d="M879.13,-615.77C871.67,-597.1 856,-553.34 856,-515 856,-515 856,-515 856,-289 856,-258.2 851.36,-247.95 832,-224 821.62,-211.16 806.54,-200.88 792.95,-193.4"/>
<polygon fill="#63b8ff" stroke="#63b8ff" points="794.78,-190.41 784.29,-188.93 791.57,-196.63 794.78,-190.41"/>
</a>
</g>
</g>
</g>
</svg>
