<?xml version="1.0" encoding="UTF-8" standalone="no"?>
<!DOCTYPE svg PUBLIC "-//W3C//DTD SVG 1.1//EN"
 "http://www.w3.org/Graphics/SVG/1.1/DTD/svg11.dtd">
<!-- Generated by graphviz version 12.2.1 (20241206.2353)
 -->
<!-- Title: Celeste/MenuItem.h Pages: 1 -->
<svg width="556pt" height="252pt"
 viewBox="0.00 0.00 556.28 252.00" xmlns="http://www.w3.org/2000/svg" xmlns:xlink="http://www.w3.org/1999/xlink">
<g id="graph0" class="graph" transform="scale(1 1) rotate(0) translate(4 248)">
<title>Celeste/MenuItem.h</title>
<!-- Node1 -->
<g id="Node000001" class="node">
<title>Node1</title>
<g id="a_Node000001"><a xlink:title=" ">
<polygon fill="#999999" stroke="#666666" points="391.12,-244 286.62,-244 286.62,-224 391.12,-224 391.12,-244"/>
<text text-anchor="middle" x="338.88" y="-230.5" font-family="Helvetica,sans-Serif" font-size="10.00">Celeste/MenuItem.h</text>
</a>
</g>
</g>
<!-- Node2 -->
<g id="Node000002" class="node">
<title>Node2</title>
<g id="a_Node000002"><a xlink:href="_menu_item_8cpp.html" target="_top" xlink:title=" ">
<polygon fill="white" stroke="#666666" points="166.38,-188 51.38,-188 51.38,-168 166.38,-168 166.38,-188"/>
<text text-anchor="middle" x="108.88" y="-174.5" font-family="Helvetica,sans-Serif" font-size="10.00">Celeste/MenuItem.cpp</text>
</a>
</g>
</g>
<!-- Node1&#45;&gt;Node2 -->
<g id="edge1_Node000001_Node000002" class="edge">
<title>Node1&#45;&gt;Node2</title>
<g id="a_edge1_Node000001_Node000002"><a xlink:title=" ">
<path fill="none" stroke="#63b8ff" d="M287.5,-220.94C245.73,-211.13 187.61,-197.49 149.15,-188.46"/>
<polygon fill="#63b8ff" stroke="#63b8ff" points="286.54,-224.31 297.08,-223.19 288.14,-217.49 286.54,-224.31"/>
</a>
</g>
</g>
<!-- Node3 -->
<g id="Node000003" class="node">
<title>Node3</title>
<g id="a_Node000003"><a xlink:href="_pause_menu_8cpp.html" target="_top" xlink:title=" ">
<polygon fill="white" stroke="#666666" points="429.5,-76 306.25,-76 306.25,-56 429.5,-56 429.5,-76"/>
<text text-anchor="middle" x="367.88" y="-62.5" font-family="Helvetica,sans-Serif" font-size="10.00">Celeste/PauseMenu.cpp</text>
</a>
</g>
</g>
<!-- Node1&#45;&gt;Node3 -->
<g id="edge2_Node000001_Node000003" class="edge">
<title>Node1&#45;&gt;Node3</title>
<g id="a_edge2_Node000001_Node000003"><a xlink:title=" ">
<path fill="none" stroke="#63b8ff" d="M402.3,-224.35C454.18,-213.26 522.5,-188.2 544.88,-132 564.49,-82.73 488.4,-69.79 429.88,-66.93"/>
<polygon fill="#63b8ff" stroke="#63b8ff" points="401.78,-220.89 392.66,-226.28 403.15,-227.76 401.78,-220.89"/>
</a>
</g>
</g>
<!-- Node4 -->
<g id="Node000004" class="node">
<title>Node4</title>
<g id="a_Node000004"><a xlink:href="_selectable_menu_item_8h.html" target="_top" xlink:title=" ">
<polygon fill="white" stroke="#666666" points="335,-188 184.75,-188 184.75,-168 335,-168 335,-188"/>
<text text-anchor="middle" x="259.88" y="-174.5" font-family="Helvetica,sans-Serif" font-size="10.00">Celeste/SelectableMenuItem.h</text>
</a>
</g>
</g>
<!-- Node1&#45;&gt;Node4 -->
<g id="edge3_Node000001_Node000004" class="edge">
<title>Node1&#45;&gt;Node4</title>
<g id="a_edge3_Node000001_Node000004"><a xlink:title=" ">
<path fill="none" stroke="#63b8ff" d="M315.86,-217.27C302.22,-207.94 285.37,-196.43 273.74,-188.48"/>
<polygon fill="#63b8ff" stroke="#63b8ff" points="313.63,-219.99 323.86,-222.74 317.58,-214.21 313.63,-219.99"/>
</a>
</g>
</g>
<!-- Node10 -->
<g id="Node000010" class="node">
<title>Node10</title>
<g id="a_Node000010"><a xlink:href="_slider_menu_item_8h.html" target="_top" xlink:title=" ">
<polygon fill="white" stroke="#666666" points="482.5,-188 353.25,-188 353.25,-168 482.5,-168 482.5,-188"/>
<text text-anchor="middle" x="417.88" y="-174.5" font-family="Helvetica,sans-Serif" font-size="10.00">Celeste/SliderMenuItem.h</text>
</a>
</g>
</g>
<!-- Node1&#45;&gt;Node10 -->
<g id="edge10_Node000001_Node000010" class="edge">
<title>Node1&#45;&gt;Node10</title>
<g id="a_edge10_Node000001_Node000010"><a xlink:title=" ">
<path fill="none" stroke="#63b8ff" d="M361.89,-217.27C375.53,-207.94 392.38,-196.43 404.01,-188.48"/>
<polygon fill="#63b8ff" stroke="#63b8ff" points="360.17,-214.21 353.89,-222.74 364.12,-219.99 360.17,-214.21"/>
</a>
</g>
</g>
<!-- Node5 -->
<g id="Node000005" class="node">
<title>Node5</title>
<g id="a_Node000005"><a xlink:href="_pause_menu_8h.html" target="_top" xlink:title=" ">
<polygon fill="white" stroke="#666666" points="161.25,-132 48.5,-132 48.5,-112 161.25,-112 161.25,-132"/>
<text text-anchor="middle" x="104.88" y="-118.5" font-family="Helvetica,sans-Serif" font-size="10.00">Celeste/PauseMenu.h</text>
</a>
</g>
</g>
<!-- Node4&#45;&gt;Node5 -->
<g id="edge4_Node000004_Node000005" class="edge">
<title>Node4&#45;&gt;Node5</title>
<g id="a_edge4_Node000004_Node000005"><a xlink:title=" ">
<path fill="none" stroke="#63b8ff" d="M222.33,-163.92C194.47,-154.21 157.12,-141.2 132.08,-132.48"/>
<polygon fill="#63b8ff" stroke="#63b8ff" points="220.85,-167.11 231.45,-167.1 223.15,-160.5 220.85,-167.11"/>
</a>
</g>
</g>
<!-- Node9 -->
<g id="Node000009" class="node">
<title>Node9</title>
<g id="a_Node000009"><a xlink:href="_selectable_menu_item_8cpp.html" target="_top" xlink:title=" ">
<polygon fill="white" stroke="#666666" points="340.25,-132 179.5,-132 179.5,-112 340.25,-112 340.25,-132"/>
<text text-anchor="middle" x="259.88" y="-118.5" font-family="Helvetica,sans-Serif" font-size="10.00">Celeste/SelectableMenuItem.cpp</text>
</a>
</g>
</g>
<!-- Node4&#45;&gt;Node9 -->
<g id="edge9_Node000004_Node000009" class="edge">
<title>Node4&#45;&gt;Node9</title>
<g id="a_edge9_Node000004_Node000009"><a xlink:title=" ">
<path fill="none" stroke="#63b8ff" d="M259.88,-156.13C259.88,-147.9 259.88,-138.85 259.88,-132.3"/>
<polygon fill="#63b8ff" stroke="#63b8ff" points="256.38,-156.08 259.88,-166.08 263.38,-156.08 256.38,-156.08"/>
</a>
</g>
</g>
<!-- Node5&#45;&gt;Node3 -->
<g id="edge8_Node000005_Node000003" class="edge">
<title>Node5&#45;&gt;Node3</title>
<g id="a_edge8_Node000005_Node000003"><a xlink:title=" ">
<path fill="none" stroke="#63b8ff" d="M162.1,-109.25C209.97,-99.42 277.37,-85.58 321.82,-76.46"/>
<polygon fill="#63b8ff" stroke="#63b8ff" points="161.56,-105.79 152.47,-111.23 162.97,-112.64 161.56,-105.79"/>
</a>
</g>
</g>
<!-- Node6 -->
<g id="Node000006" class="node">
<title>Node6</title>
<g id="a_Node000006"><a xlink:href="_game_8h.html" target="_top" xlink:title=" ">
<polygon fill="white" stroke="#666666" points="148.5,-76 61.25,-76 61.25,-56 148.5,-56 148.5,-76"/>
<text text-anchor="middle" x="104.88" y="-62.5" font-family="Helvetica,sans-Serif" font-size="10.00">Celeste/Game.h</text>
</a>
</g>
</g>
<!-- Node5&#45;&gt;Node6 -->
<g id="edge5_Node000005_Node000006" class="edge">
<title>Node5&#45;&gt;Node6</title>
<g id="a_edge5_Node000005_Node000006"><a xlink:title=" ">
<path fill="none" stroke="#63b8ff" d="M104.88,-100.13C104.88,-91.9 104.88,-82.85 104.88,-76.3"/>
<polygon fill="#63b8ff" stroke="#63b8ff" points="101.38,-100.08 104.88,-110.08 108.38,-100.08 101.38,-100.08"/>
</a>
</g>
</g>
<!-- Node7 -->
<g id="Node000007" class="node">
<title>Node7</title>
<g id="a_Node000007"><a xlink:href="_game_8cpp.html" target="_top" xlink:title=" ">
<polygon fill="white" stroke="#666666" points="97.75,-20 0,-20 0,0 97.75,0 97.75,-20"/>
<text text-anchor="middle" x="48.88" y="-6.5" font-family="Helvetica,sans-Serif" font-size="10.00">Celeste/Game.cpp</text>
</a>
</g>
</g>
<!-- Node6&#45;&gt;Node7 -->
<g id="edge6_Node000006_Node000007" class="edge">
<title>Node6&#45;&gt;Node7</title>
<g id="a_edge6_Node000006_Node000007"><a xlink:title=" ">
<path fill="none" stroke="#63b8ff" d="M87.09,-47.85C77.62,-38.72 66.35,-27.86 58.52,-20.3"/>
<polygon fill="#63b8ff" stroke="#63b8ff" points="84.4,-50.12 94.03,-54.54 89.26,-45.08 84.4,-50.12"/>
</a>
</g>
</g>
<!-- Node8 -->
<g id="Node000008" class="node">
<title>Node8</title>
<g id="a_Node000008"><a xlink:href="main_8cpp.html" target="_top" xlink:title=" ">
<polygon fill="white" stroke="#666666" points="208.12,-20 115.62,-20 115.62,0 208.12,0 208.12,-20"/>
<text text-anchor="middle" x="161.88" y="-6.5" font-family="Helvetica,sans-Serif" font-size="10.00">Celeste/main.cpp</text>
</a>
</g>
</g>
<!-- Node6&#45;&gt;Node8 -->
<g id="edge7_Node000006_Node000008" class="edge">
<title>Node6&#45;&gt;Node8</title>
<g id="a_edge7_Node000006_Node000008"><a xlink:title=" ">
<path fill="none" stroke="#63b8ff" d="M122.98,-47.85C132.61,-38.72 144.08,-27.86 152.06,-20.3"/>
<polygon fill="#63b8ff" stroke="#63b8ff" points="120.75,-45.13 115.9,-54.55 125.57,-50.22 120.75,-45.13"/>
</a>
</g>
</g>
<!-- Node10&#45;&gt;Node3 -->
<g id="edge11_Node000010_Node000003" class="edge">
<title>Node10&#45;&gt;Node3</title>
<g id="a_edge11_Node000010_Node000003"><a xlink:title=" ">
<path fill="none" stroke="#63b8ff" d="M403.23,-158.61C397.51,-150.76 391.29,-141.28 386.88,-132 377.89,-113.1 372.21,-89.06 369.59,-76.16"/>
<polygon fill="#63b8ff" stroke="#63b8ff" points="400.27,-160.5 409.1,-166.34 405.84,-156.26 400.27,-160.5"/>
</a>
</g>
</g>
<!-- Node11 -->
<g id="Node000011" class="node">
<title>Node11</title>
<g id="a_Node000011"><a xlink:href="_slider_menu_item_8cpp.html" target="_top" xlink:title=" ">
<polygon fill="white" stroke="#666666" points="535.75,-132 396,-132 396,-112 535.75,-112 535.75,-132"/>
<text text-anchor="middle" x="465.88" y="-118.5" font-family="Helvetica,sans-Serif" font-size="10.00">Celeste/SliderMenuItem.cpp</text>
</a>
</g>
</g>
<!-- Node10&#45;&gt;Node11 -->
<g id="edge12_Node000010_Node000011" class="edge">
<title>Node10&#45;&gt;Node11</title>
<g id="a_edge12_Node000010_Node000011"><a xlink:title=" ">
<path fill="none" stroke="#63b8ff" d="M433.87,-159C441.82,-150.06 451.1,-139.62 457.61,-132.3"/>
<polygon fill="#63b8ff" stroke="#63b8ff" points="431.27,-156.66 427.24,-166.46 436.5,-161.31 431.27,-156.66"/>
</a>
</g>
</g>
</g>
</svg>
