<?xml version="1.0" encoding="UTF-8" standalone="no"?>
<!DOCTYPE svg PUBLIC "-//W3C//DTD SVG 1.1//EN"
 "http://www.w3.org/Graphics/SVG/1.1/DTD/svg11.dtd">
<!-- Generated by graphviz version 12.2.1 (20241206.2353)
 -->
<!-- Title: Engine/SVGParser.h Pages: 1 -->
<svg width="208pt" height="140pt"
 viewBox="0.00 0.00 208.09 140.00" xmlns="http://www.w3.org/2000/svg" xmlns:xlink="http://www.w3.org/1999/xlink">
<g id="graph0" class="graph" transform="scale(1 1) rotate(0) translate(4 136)">
<title>Engine/SVGParser.h</title>
<!-- Node1 -->
<g id="Node000001" class="node">
<title>Node1</title>
<g id="a_Node000001"><a xlink:title=" ">
<polygon fill="#999999" stroke="#666666" points="119.34,-132 12.59,-132 12.59,-112 119.34,-112 119.34,-132"/>
<text text-anchor="middle" x="65.96" y="-118.5" font-family="Helvetica,sans-Serif" font-size="10.00">Engine/SVGParser.h</text>
</a>
</g>
</g>
<!-- Node2 -->
<g id="Node000002" class="node">
<title>Node2</title>
<g id="a_Node000002"><a xlink:title=" ">
<polygon fill="#e0e0e0" stroke="#999999" points="62.96,-20 22.96,-20 22.96,0 62.96,0 62.96,-20"/>
<text text-anchor="middle" x="42.96" y="-6.5" font-family="Helvetica,sans-Serif" font-size="10.00">string</text>
</a>
</g>
</g>
<!-- Node1&#45;&gt;Node2 -->
<g id="edge1_Node000001_Node000002" class="edge">
<title>Node1&#45;&gt;Node2</title>
<g id="a_edge1_Node000001_Node000002"><a xlink:title=" ">
<path fill="none" stroke="#63b8ff" d="M43.56,-111.64C29.09,-104.28 11.45,-92.49 2.96,-76 -5.78,-59.02 8,-40.56 21.71,-27.67"/>
<polygon fill="#63b8ff" stroke="#63b8ff" points="23.64,-30.62 28.89,-21.42 19.05,-25.34 23.64,-30.62"/>
</a>
</g>
</g>
<!-- Node3 -->
<g id="Node000003" class="node">
<title>Node3</title>
<g id="a_Node000003"><a xlink:title=" ">
<polygon fill="#e0e0e0" stroke="#999999" points="55.46,-76 12.46,-76 12.46,-56 55.46,-56 55.46,-76"/>
<text text-anchor="middle" x="33.96" y="-62.5" font-family="Helvetica,sans-Serif" font-size="10.00">vector</text>
</a>
</g>
</g>
<!-- Node1&#45;&gt;Node3 -->
<g id="edge2_Node000001_Node000003" class="edge">
<title>Node1&#45;&gt;Node3</title>
<g id="a_edge2_Node000001_Node000003"><a xlink:title=" ">
<path fill="none" stroke="#63b8ff" d="M60.39,-111.59C56.21,-104.55 50.36,-94.67 45.22,-86"/>
<polygon fill="#63b8ff" stroke="#63b8ff" points="48.35,-84.42 40.24,-77.6 42.33,-87.99 48.35,-84.42"/>
</a>
</g>
</g>
<!-- Node4 -->
<g id="Node000004" class="node">
<title>Node4</title>
<g id="a_Node000004"><a xlink:title=" ">
<polygon fill="#e0e0e0" stroke="#999999" points="124.59,-76 73.34,-76 73.34,-56 124.59,-56 124.59,-76"/>
<text text-anchor="middle" x="98.96" y="-62.5" font-family="Helvetica,sans-Serif" font-size="10.00">sstream</text>
</a>
</g>
</g>
<!-- Node1&#45;&gt;Node4 -->
<g id="edge3_Node000001_Node000004" class="edge">
<title>Node1&#45;&gt;Node4</title>
<g id="a_edge3_Node000001_Node000004"><a xlink:title=" ">
<path fill="none" stroke="#63b8ff" d="M71.71,-111.59C76.02,-104.55 82.05,-94.67 87.35,-86"/>
<polygon fill="#63b8ff" stroke="#63b8ff" points="90.26,-87.95 92.49,-77.59 84.29,-84.3 90.26,-87.95"/>
</a>
</g>
</g>
<!-- Node5 -->
<g id="Node000005" class="node">
<title>Node5</title>
<g id="a_Node000005"><a xlink:href="structs_8h.html" target="_top" xlink:title=" ">
<polygon fill="white" stroke="#666666" points="197.09,-76 142.84,-76 142.84,-56 197.09,-56 197.09,-76"/>
<text text-anchor="middle" x="169.96" y="-62.5" font-family="Helvetica,sans-Serif" font-size="10.00">structs.h</text>
</a>
</g>
</g>
<!-- Node1&#45;&gt;Node5 -->
<g id="edge4_Node000001_Node000005" class="edge">
<title>Node1&#45;&gt;Node5</title>
<g id="a_edge4_Node000001_Node000005"><a xlink:title=" ">
<path fill="none" stroke="#63b8ff" d="M84.08,-111.59C99.94,-103.36 123.24,-91.26 141.58,-81.74"/>
<polygon fill="#63b8ff" stroke="#63b8ff" points="143.1,-84.89 150.36,-77.18 139.87,-78.68 143.1,-84.89"/>
</a>
</g>
</g>
<!-- Node5&#45;&gt;Node2 -->
<g id="edge5_Node000005_Node000002" class="edge">
<title>Node5&#45;&gt;Node2</title>
<g id="a_edge5_Node000005_Node000002"><a xlink:title=" ">
<path fill="none" stroke="#63b8ff" d="M147.84,-55.59C127.32,-46.87 96.59,-33.8 73.69,-24.06"/>
<polygon fill="#63b8ff" stroke="#63b8ff" points="75.12,-20.87 64.55,-20.18 72.38,-27.31 75.12,-20.87"/>
</a>
</g>
</g>
<!-- Node6 -->
<g id="Node000006" class="node">
<title>Node6</title>
<g id="a_Node000006"><a xlink:href="_vector2f_8h.html" target="_top" xlink:title=" ">
<polygon fill="white" stroke="#666666" points="200.09,-20 139.84,-20 139.84,0 200.09,0 200.09,-20"/>
<text text-anchor="middle" x="169.96" y="-6.5" font-family="Helvetica,sans-Serif" font-size="10.00">Vector2f.h</text>
</a>
</g>
</g>
<!-- Node5&#45;&gt;Node6 -->
<g id="edge6_Node000005_Node000006" class="edge">
<title>Node5&#45;&gt;Node6</title>
<g id="a_edge6_Node000005_Node000006"><a xlink:title=" ">
<path fill="none" stroke="#63b8ff" d="M164.69,-55.59C163.38,-49.01 162.94,-39.96 163.38,-31.73"/>
<polygon fill="#63b8ff" stroke="#63b8ff" points="166.85,-32.14 164.54,-21.8 159.9,-31.33 166.85,-32.14"/>
</a>
</g>
</g>
<!-- Node6&#45;&gt;Node5 -->
<g id="edge7_Node000006_Node000005" class="edge">
<title>Node6&#45;&gt;Node5</title>
<g id="a_edge7_Node000006_Node000005"><a xlink:title=" ">
<path fill="none" stroke="#63b8ff" d="M175.21,-20.3C176.55,-26.93 176.99,-36.11 176.54,-44.43"/>
<polygon fill="#63b8ff" stroke="#63b8ff" points="173.09,-43.75 175.4,-54.09 180.05,-44.57 173.09,-43.75"/>
</a>
</g>
</g>
</g>
</svg>
