<?xml version="1.0" encoding="UTF-8" standalone="no"?>
<!DOCTYPE svg PUBLIC "-//W3C//DTD SVG 1.1//EN"
 "http://www.w3.org/Graphics/SVG/1.1/DTD/svg11.dtd">
<!-- Generated by graphviz version 12.2.1 (20241206.2353)
 -->
<!-- Title: Engine/SVGParser.h Pages: 1 -->
<svg width="425pt" height="96pt"
 viewBox="0.00 0.00 425.25 96.00" xmlns="http://www.w3.org/2000/svg" xmlns:xlink="http://www.w3.org/1999/xlink">
<g id="graph0" class="graph" transform="scale(1 1) rotate(0) translate(4 92)">
<title>Engine/SVGParser.h</title>
<!-- Node1 -->
<g id="Node000001" class="node">
<title>Node1</title>
<g id="a_Node000001"><a xlink:title=" ">
<polygon fill="#999999" stroke="#666666" points="271,-88 164.25,-88 164.25,-68 271,-68 271,-88"/>
<text text-anchor="middle" x="217.62" y="-74.5" font-family="Helvetica,sans-Serif" font-size="10.00">Engine/SVGParser.h</text>
</a>
</g>
</g>
<!-- Node2 -->
<g id="Node000002" class="node">
<title>Node2</title>
<g id="a_Node000002"><a xlink:href="_chapter_loader_8cpp.html" target="_top" xlink:title=" ">
<polygon fill="white" stroke="#666666" points="135.25,-26 0,-26 0,-6 135.25,-6 135.25,-26"/>
<text text-anchor="middle" x="67.62" y="-12.5" font-family="Helvetica,sans-Serif" font-size="10.00">Celeste/ChapterLoader.cpp</text>
</a>
</g>
</g>
<!-- Node1&#45;&gt;Node2 -->
<g id="edge1_Node000001_Node000002" class="edge">
<title>Node1&#45;&gt;Node2</title>
<g id="a_edge1_Node000001_Node000002"><a xlink:title=" ">
<path fill="none" stroke="#63b8ff" d="M183.57,-63.38C155.25,-52.05 115.71,-36.23 90.9,-26.31"/>
<polygon fill="#63b8ff" stroke="#63b8ff" points="182.2,-66.6 192.78,-67.06 184.8,-60.1 182.2,-66.6"/>
</a>
</g>
</g>
<!-- Node3 -->
<g id="Node000003" class="node">
<title>Node3</title>
<g id="a_Node000003"><a xlink:href="_character_texture_manager_8cpp.html" target="_top" xlink:title=" ">
<polygon fill="white" stroke="#666666" points="281.5,-32 153.75,-32 153.75,0 281.5,0 281.5,-32"/>
<text text-anchor="start" x="161.75" y="-18.5" font-family="Helvetica,sans-Serif" font-size="10.00">Celeste/CharacterTexture</text>
<text text-anchor="middle" x="217.62" y="-6.5" font-family="Helvetica,sans-Serif" font-size="10.00">Manager.cpp</text>
</a>
</g>
</g>
<!-- Node1&#45;&gt;Node3 -->
<g id="edge2_Node000001_Node000003" class="edge">
<title>Node1&#45;&gt;Node3</title>
<g id="a_edge2_Node000001_Node000003"><a xlink:title=" ">
<path fill="none" stroke="#63b8ff" d="M217.62,-56.31C217.62,-48.37 217.62,-39.46 217.62,-32.14"/>
<polygon fill="#63b8ff" stroke="#63b8ff" points="214.13,-56.11 217.63,-66.11 221.13,-56.11 214.13,-56.11"/>
</a>
</g>
</g>
<!-- Node4 -->
<g id="Node000004" class="node">
<title>Node4</title>
<g id="a_Node000004"><a xlink:href="_s_v_g_parser_8cpp.html" target="_top" xlink:title=" ">
<polygon fill="white" stroke="#666666" points="417.25,-26 300,-26 300,-6 417.25,-6 417.25,-26"/>
<text text-anchor="middle" x="358.62" y="-12.5" font-family="Helvetica,sans-Serif" font-size="10.00">Engine/SVGParser.cpp</text>
</a>
</g>
</g>
<!-- Node1&#45;&gt;Node4 -->
<g id="edge3_Node000001_Node000004" class="edge">
<title>Node1&#45;&gt;Node4</title>
<g id="a_edge3_Node000001_Node000004"><a xlink:title=" ">
<path fill="none" stroke="#63b8ff" d="M249.99,-63.23C276.59,-51.91 313.53,-36.19 336.75,-26.31"/>
<polygon fill="#63b8ff" stroke="#63b8ff" points="248.88,-59.9 241.05,-67.03 251.62,-66.34 248.88,-59.9"/>
</a>
</g>
</g>
</g>
</svg>
