<?xml version="1.0" encoding="UTF-8" standalone="no"?>
<!DOCTYPE svg PUBLIC "-//W3C//DTD SVG 1.1//EN"
 "http://www.w3.org/Graphics/SVG/1.1/DTD/svg11.dtd">
<!-- Generated by graphviz version 12.2.1 (20241206.2353)
 -->
<!-- Title: Celeste/SelectableMenuItem.h Pages: 1 -->
<svg width="409pt" height="196pt"
 viewBox="0.00 0.00 409.25 196.00" xmlns="http://www.w3.org/2000/svg" xmlns:xlink="http://www.w3.org/1999/xlink">
<g id="graph0" class="graph" transform="scale(1 1) rotate(0) translate(4 192)">
<title>Celeste/SelectableMenuItem.h</title>
<!-- Node1 -->
<g id="Node000001" class="node">
<title>Node1</title>
<g id="a_Node000001"><a xlink:title=" ">
<polygon fill="#999999" stroke="#666666" points="318,-188 167.75,-188 167.75,-168 318,-168 318,-188"/>
<text text-anchor="middle" x="242.88" y="-174.5" font-family="Helvetica,sans-Serif" font-size="10.00">Celeste/SelectableMenuItem.h</text>
</a>
</g>
</g>
<!-- Node2 -->
<g id="Node000002" class="node">
<title>Node2</title>
<g id="a_Node000002"><a xlink:href="_pause_menu_8h.html" target="_top" xlink:title=" ">
<polygon fill="white" stroke="#666666" points="222.25,-132 109.5,-132 109.5,-112 222.25,-112 222.25,-132"/>
<text text-anchor="middle" x="165.88" y="-118.5" font-family="Helvetica,sans-Serif" font-size="10.00">Celeste/PauseMenu.h</text>
</a>
</g>
</g>
<!-- Node1&#45;&gt;Node2 -->
<g id="edge1_Node000001_Node000002" class="edge">
<title>Node1&#45;&gt;Node2</title>
<g id="a_edge1_Node000001_Node000002"><a xlink:title=" ">
<path fill="none" stroke="#63b8ff" d="M220.06,-161C206.83,-151.72 190.62,-140.35 179.39,-132.48"/>
<polygon fill="#63b8ff" stroke="#63b8ff" points="218.03,-163.85 228.22,-166.72 222.05,-158.12 218.03,-163.85"/>
</a>
</g>
</g>
<!-- Node7 -->
<g id="Node000007" class="node">
<title>Node7</title>
<g id="a_Node000007"><a xlink:href="_selectable_menu_item_8cpp.html" target="_top" xlink:title=" ">
<polygon fill="white" stroke="#666666" points="401.25,-132 240.5,-132 240.5,-112 401.25,-112 401.25,-132"/>
<text text-anchor="middle" x="320.88" y="-118.5" font-family="Helvetica,sans-Serif" font-size="10.00">Celeste/SelectableMenuItem.cpp</text>
</a>
</g>
</g>
<!-- Node1&#45;&gt;Node7 -->
<g id="edge6_Node000001_Node000007" class="edge">
<title>Node1&#45;&gt;Node7</title>
<g id="a_edge6_Node000001_Node000007"><a xlink:title=" ">
<path fill="none" stroke="#63b8ff" d="M265.59,-161.27C279.07,-151.94 295.7,-140.43 307.18,-132.48"/>
<polygon fill="#63b8ff" stroke="#63b8ff" points="263.94,-158.16 257.71,-166.73 267.92,-163.92 263.94,-158.16"/>
</a>
</g>
</g>
<!-- Node3 -->
<g id="Node000003" class="node">
<title>Node3</title>
<g id="a_Node000003"><a xlink:href="_game_8h.html" target="_top" xlink:title=" ">
<polygon fill="white" stroke="#666666" points="148.5,-76 61.25,-76 61.25,-56 148.5,-56 148.5,-76"/>
<text text-anchor="middle" x="104.88" y="-62.5" font-family="Helvetica,sans-Serif" font-size="10.00">Celeste/Game.h</text>
</a>
</g>
</g>
<!-- Node2&#45;&gt;Node3 -->
<g id="edge2_Node000002_Node000003" class="edge">
<title>Node2&#45;&gt;Node3</title>
<g id="a_edge2_Node000002_Node000003"><a xlink:title=" ">
<path fill="none" stroke="#63b8ff" d="M146.81,-104.13C136.44,-94.94 124,-83.93 115.38,-76.3"/>
<polygon fill="#63b8ff" stroke="#63b8ff" points="144.31,-106.58 154.12,-110.59 148.95,-101.34 144.31,-106.58"/>
</a>
</g>
</g>
<!-- Node6 -->
<g id="Node000006" class="node">
<title>Node6</title>
<g id="a_Node000006"><a xlink:href="_pause_menu_8cpp.html" target="_top" xlink:title=" ">
<polygon fill="white" stroke="#666666" points="289.5,-76 166.25,-76 166.25,-56 289.5,-56 289.5,-76"/>
<text text-anchor="middle" x="227.88" y="-62.5" font-family="Helvetica,sans-Serif" font-size="10.00">Celeste/PauseMenu.cpp</text>
</a>
</g>
</g>
<!-- Node2&#45;&gt;Node6 -->
<g id="edge5_Node000002_Node000006" class="edge">
<title>Node2&#45;&gt;Node6</title>
<g id="a_edge5_Node000002_Node000006"><a xlink:title=" ">
<path fill="none" stroke="#63b8ff" d="M185.25,-104.13C195.79,-94.94 208.43,-83.93 217.2,-76.3"/>
<polygon fill="#63b8ff" stroke="#63b8ff" points="183.06,-101.39 177.82,-110.6 187.66,-106.67 183.06,-101.39"/>
</a>
</g>
</g>
<!-- Node4 -->
<g id="Node000004" class="node">
<title>Node4</title>
<g id="a_Node000004"><a xlink:href="_game_8cpp.html" target="_top" xlink:title=" ">
<polygon fill="white" stroke="#666666" points="97.75,-20 0,-20 0,0 97.75,0 97.75,-20"/>
<text text-anchor="middle" x="48.88" y="-6.5" font-family="Helvetica,sans-Serif" font-size="10.00">Celeste/Game.cpp</text>
</a>
</g>
</g>
<!-- Node3&#45;&gt;Node4 -->
<g id="edge3_Node000003_Node000004" class="edge">
<title>Node3&#45;&gt;Node4</title>
<g id="a_edge3_Node000003_Node000004"><a xlink:title=" ">
<path fill="none" stroke="#63b8ff" d="M87.09,-47.85C77.62,-38.72 66.35,-27.86 58.52,-20.3"/>
<polygon fill="#63b8ff" stroke="#63b8ff" points="84.4,-50.12 94.03,-54.54 89.26,-45.08 84.4,-50.12"/>
</a>
</g>
</g>
<!-- Node5 -->
<g id="Node000005" class="node">
<title>Node5</title>
<g id="a_Node000005"><a xlink:href="main_8cpp.html" target="_top" xlink:title=" ">
<polygon fill="white" stroke="#666666" points="208.12,-20 115.62,-20 115.62,0 208.12,0 208.12,-20"/>
<text text-anchor="middle" x="161.88" y="-6.5" font-family="Helvetica,sans-Serif" font-size="10.00">Celeste/main.cpp</text>
</a>
</g>
</g>
<!-- Node3&#45;&gt;Node5 -->
<g id="edge4_Node000003_Node000005" class="edge">
<title>Node3&#45;&gt;Node5</title>
<g id="a_edge4_Node000003_Node000005"><a xlink:title=" ">
<path fill="none" stroke="#63b8ff" d="M122.98,-47.85C132.61,-38.72 144.08,-27.86 152.06,-20.3"/>
<polygon fill="#63b8ff" stroke="#63b8ff" points="120.75,-45.13 115.9,-54.55 125.57,-50.22 120.75,-45.13"/>
</a>
</g>
</g>
</g>
</svg>
