<?xml version="1.0" encoding="UTF-8" standalone="no"?>
<!DOCTYPE svg PUBLIC "-//W3C//DTD SVG 1.1//EN"
 "http://www.w3.org/Graphics/SVG/1.1/DTD/svg11.dtd">
<!-- Generated by graphviz version 12.2.1 (20241206.2353)
 -->
<!-- Title: Celeste/SnowFlakeManager.cpp Pages: 1 -->
<svg width="605pt" height="364pt"
 viewBox="0.00 0.00 605.25 364.00" xmlns="http://www.w3.org/2000/svg" xmlns:xlink="http://www.w3.org/1999/xlink">
<g id="graph0" class="graph" transform="scale(1 1) rotate(0) translate(4 360)">
<title>Celeste/SnowFlakeManager.cpp</title>
<!-- Node1 -->
<g id="Node000001" class="node">
<title>Node1</title>
<g id="a_Node000001"><a xlink:title=" ">
<polygon fill="#999999" stroke="#666666" points="558,-356 400.25,-356 400.25,-336 558,-336 558,-356"/>
<text text-anchor="middle" x="479.12" y="-342.5" font-family="Helvetica,sans-Serif" font-size="10.00">Celeste/SnowFlakeManager.cpp</text>
</a>
</g>
</g>
<!-- Node2 -->
<g id="Node000002" class="node">
<title>Node2</title>
<g id="a_Node000002"><a xlink:href="pch_8h.html" target="_top" xlink:title=" ">
<polygon fill="white" stroke="#666666" points="248.12,-132 208.12,-132 208.12,-112 248.12,-112 248.12,-132"/>
<text text-anchor="middle" x="228.12" y="-118.5" font-family="Helvetica,sans-Serif" font-size="10.00">pch.h</text>
</a>
</g>
</g>
<!-- Node1&#45;&gt;Node2 -->
<g id="edge1_Node000001_Node000002" class="edge">
<title>Node1&#45;&gt;Node2</title>
<g id="a_edge1_Node000001_Node000002"><a xlink:title=" ">
<path fill="none" stroke="#63b8ff" d="M464.45,-335.57C451.19,-326.84 431.32,-313.24 415.12,-300 348.69,-245.69 276.75,-173.31 244.91,-140.49"/>
<polygon fill="#63b8ff" stroke="#63b8ff" points="247.54,-138.19 238.08,-133.42 242.51,-143.05 247.54,-138.19"/>
</a>
</g>
</g>
<!-- Node11 -->
<g id="Node000011" class="node">
<title>Node11</title>
<g id="a_Node000011"><a xlink:href="_snow_flake_manager_8h.html" target="_top" xlink:title=" ">
<polygon fill="white" stroke="#666666" points="534.38,-300 423.88,-300 423.88,-280 534.38,-280 534.38,-300"/>
<text text-anchor="middle" x="479.12" y="-286.5" font-family="Helvetica,sans-Serif" font-size="10.00">SnowFlakeManager.h</text>
</a>
</g>
</g>
<!-- Node1&#45;&gt;Node11 -->
<g id="edge11_Node000001_Node000011" class="edge">
<title>Node1&#45;&gt;Node11</title>
<g id="a_edge11_Node000001_Node000011"><a xlink:title=" ">
<path fill="none" stroke="#63b8ff" d="M479.12,-335.59C479.12,-329.01 479.12,-319.96 479.12,-311.73"/>
<polygon fill="#63b8ff" stroke="#63b8ff" points="482.63,-311.81 479.13,-301.81 475.63,-311.81 482.63,-311.81"/>
</a>
</g>
</g>
<!-- Node16 -->
<g id="Node000016" class="node">
<title>Node16</title>
<g id="a_Node000016"><a xlink:href="utils_8h.html" target="_top" xlink:title=" ">
<polygon fill="white" stroke="#666666" points="597.25,-188 555,-188 555,-168 597.25,-168 597.25,-188"/>
<text text-anchor="middle" x="576.12" y="-174.5" font-family="Helvetica,sans-Serif" font-size="10.00">utils.h</text>
</a>
</g>
</g>
<!-- Node1&#45;&gt;Node16 -->
<g id="edge27_Node000001_Node000016" class="edge">
<title>Node1&#45;&gt;Node16</title>
<g id="a_edge27_Node000001_Node000016"><a xlink:title=" ">
<path fill="none" stroke="#63b8ff" d="M497.52,-335.73C524.64,-320.81 573.9,-288.56 590.12,-244 595.5,-229.23 591.2,-211.79 586,-198.7"/>
<polygon fill="#63b8ff" stroke="#63b8ff" points="589.32,-197.55 582.03,-189.86 582.93,-200.42 589.32,-197.55"/>
</a>
</g>
</g>
<!-- Node3 -->
<g id="Node000003" class="node">
<title>Node3</title>
<g id="a_Node000003"><a xlink:title=" ">
<polygon fill="#e0e0e0" stroke="#999999" points="116,-76 72.25,-76 72.25,-56 116,-56 116,-76"/>
<text text-anchor="middle" x="94.12" y="-62.5" font-family="Helvetica,sans-Serif" font-size="10.00">SDL.h</text>
</a>
</g>
</g>
<!-- Node2&#45;&gt;Node3 -->
<g id="edge2_Node000002_Node000003" class="edge">
<title>Node2&#45;&gt;Node3</title>
<g id="a_edge2_Node000002_Node000003"><a xlink:title=" ">
<path fill="none" stroke="#63b8ff" d="M207.77,-112.8C186.34,-104.16 152.28,-90.43 127.02,-80.26"/>
<polygon fill="#63b8ff" stroke="#63b8ff" points="128.45,-77.06 117.86,-76.57 125.83,-83.55 128.45,-77.06"/>
</a>
</g>
</g>
<!-- Node4 -->
<g id="Node000004" class="node">
<title>Node4</title>
<g id="a_Node000004"><a xlink:title=" ">
<polygon fill="#e0e0e0" stroke="#999999" points="211.88,-76 134.38,-76 134.38,-56 211.88,-56 211.88,-76"/>
<text text-anchor="middle" x="173.12" y="-62.5" font-family="Helvetica,sans-Serif" font-size="10.00">SDL_opengl.h</text>
</a>
</g>
</g>
<!-- Node2&#45;&gt;Node4 -->
<g id="edge3_Node000002_Node000004" class="edge">
<title>Node2&#45;&gt;Node4</title>
<g id="a_edge3_Node000002_Node000004"><a xlink:title=" ">
<path fill="none" stroke="#63b8ff" d="M218.54,-111.59C210.89,-104.08 199.97,-93.35 190.75,-84.3"/>
<polygon fill="#63b8ff" stroke="#63b8ff" points="193.26,-81.87 183.68,-77.36 188.36,-86.86 193.26,-81.87"/>
</a>
</g>
</g>
<!-- Node5 -->
<g id="Node000005" class="node">
<title>Node5</title>
<g id="a_Node000005"><a xlink:title=" ">
<polygon fill="#e0e0e0" stroke="#999999" points="288.12,-76 230.12,-76 230.12,-56 288.12,-56 288.12,-76"/>
<text text-anchor="middle" x="259.12" y="-62.5" font-family="Helvetica,sans-Serif" font-size="10.00">SDL_ttf.h</text>
</a>
</g>
</g>
<!-- Node2&#45;&gt;Node5 -->
<g id="edge4_Node000002_Node000005" class="edge">
<title>Node2&#45;&gt;Node5</title>
<g id="a_edge4_Node000002_Node000005"><a xlink:title=" ">
<path fill="none" stroke="#63b8ff" d="M233.52,-111.59C237.57,-104.55 243.24,-94.67 248.22,-86"/>
<polygon fill="#63b8ff" stroke="#63b8ff" points="251.09,-88.03 253.03,-77.61 245.02,-84.54 251.09,-88.03"/>
</a>
</g>
</g>
<!-- Node6 -->
<g id="Node000006" class="node">
<title>Node6</title>
<g id="a_Node000006"><a xlink:title=" ">
<polygon fill="#e0e0e0" stroke="#999999" points="379.62,-76 306.62,-76 306.62,-56 379.62,-56 379.62,-76"/>
<text text-anchor="middle" x="343.12" y="-62.5" font-family="Helvetica,sans-Serif" font-size="10.00">SDL_mixer.h</text>
</a>
</g>
</g>
<!-- Node2&#45;&gt;Node6 -->
<g id="edge5_Node000002_Node000006" class="edge">
<title>Node2&#45;&gt;Node6</title>
<g id="a_edge5_Node000002_Node000006"><a xlink:title=" ">
<path fill="none" stroke="#63b8ff" d="M248.16,-111.59C265.94,-103.24 292.19,-90.92 312.59,-81.34"/>
<polygon fill="#63b8ff" stroke="#63b8ff" points="314,-84.54 321.57,-77.12 311.03,-78.21 314,-84.54"/>
</a>
</g>
</g>
<!-- Node7 -->
<g id="Node000007" class="node">
<title>Node7</title>
<g id="a_Node000007"><a xlink:title=" ">
<polygon fill="#e0e0e0" stroke="#999999" points="472.75,-76 397.5,-76 397.5,-56 472.75,-56 472.75,-76"/>
<text text-anchor="middle" x="435.12" y="-62.5" font-family="Helvetica,sans-Serif" font-size="10.00">SDL_image.h</text>
</a>
</g>
</g>
<!-- Node2&#45;&gt;Node7 -->
<g id="edge6_Node000002_Node000007" class="edge">
<title>Node2&#45;&gt;Node7</title>
<g id="a_edge6_Node000002_Node000007"><a xlink:title=" ">
<path fill="none" stroke="#63b8ff" d="M248.37,-114.57C251.3,-113.68 254.28,-112.8 257.12,-112 300.46,-99.81 350.15,-87.37 385.99,-78.67"/>
<polygon fill="#63b8ff" stroke="#63b8ff" points="386.75,-82.09 395.65,-76.34 385.11,-75.29 386.75,-82.09"/>
</a>
</g>
</g>
<!-- Node8 -->
<g id="Node000008" class="node">
<title>Node8</title>
<g id="a_Node000008"><a xlink:href="structs_8h.html" target="_top" xlink:title=" ">
<polygon fill="white" stroke="#666666" points="54.25,-76 0,-76 0,-56 54.25,-56 54.25,-76"/>
<text text-anchor="middle" x="27.12" y="-62.5" font-family="Helvetica,sans-Serif" font-size="10.00">structs.h</text>
</a>
</g>
</g>
<!-- Node2&#45;&gt;Node8 -->
<g id="edge7_Node000002_Node000008" class="edge">
<title>Node2&#45;&gt;Node8</title>
<g id="a_edge7_Node000002_Node000008"><a xlink:title=" ">
<path fill="none" stroke="#63b8ff" d="M207.75,-115.53C174.47,-106.58 107.93,-88.71 65.57,-77.33"/>
<polygon fill="#63b8ff" stroke="#63b8ff" points="66.6,-73.98 56.03,-74.77 64.78,-80.74 66.6,-73.98"/>
</a>
</g>
</g>
<!-- Node9 -->
<g id="Node000009" class="node">
<title>Node9</title>
<g id="a_Node000009"><a xlink:title=" ">
<polygon fill="#e0e0e0" stroke="#999999" points="47.12,-20 7.12,-20 7.12,0 47.12,0 47.12,-20"/>
<text text-anchor="middle" x="27.12" y="-6.5" font-family="Helvetica,sans-Serif" font-size="10.00">string</text>
</a>
</g>
</g>
<!-- Node8&#45;&gt;Node9 -->
<g id="edge8_Node000008_Node000009" class="edge">
<title>Node8&#45;&gt;Node9</title>
<g id="a_edge8_Node000008_Node000009"><a xlink:title=" ">
<path fill="none" stroke="#63b8ff" d="M27.12,-55.59C27.12,-49.01 27.12,-39.96 27.12,-31.73"/>
<polygon fill="#63b8ff" stroke="#63b8ff" points="30.63,-31.81 27.13,-21.81 23.63,-31.81 30.63,-31.81"/>
</a>
</g>
</g>
<!-- Node10 -->
<g id="Node000010" class="node">
<title>Node10</title>
<g id="a_Node000010"><a xlink:href="_vector2f_8h.html" target="_top" xlink:title=" ">
<polygon fill="white" stroke="#666666" points="328.25,-20 268,-20 268,0 328.25,0 328.25,-20"/>
<text text-anchor="middle" x="298.12" y="-6.5" font-family="Helvetica,sans-Serif" font-size="10.00">Vector2f.h</text>
</a>
</g>
</g>
<!-- Node8&#45;&gt;Node10 -->
<g id="edge9_Node000008_Node000010" class="edge">
<title>Node8&#45;&gt;Node10</title>
<g id="a_edge9_Node000008_Node000010"><a xlink:title=" ">
<path fill="none" stroke="#63b8ff" d="M54.73,-55.87C124.93,-40.4 207.45,-25.32 256.27,-17.19"/>
<polygon fill="#63b8ff" stroke="#63b8ff" points="256.83,-20.64 266.13,-15.57 255.7,-13.74 256.83,-20.64"/>
</a>
</g>
</g>
<!-- Node10&#45;&gt;Node8 -->
<g id="edge10_Node000010_Node000008" class="edge">
<title>Node10&#45;&gt;Node8</title>
<g id="a_edge10_Node000010_Node000008"><a xlink:title=" ">
<path fill="none" stroke="#63b8ff" d="M267.63,-17.38C224,-25.59 141.9,-40.61 72.12,-56 69.91,-56.49 67.63,-57.01 65.31,-57.55"/>
<polygon fill="#63b8ff" stroke="#63b8ff" points="64.78,-54.08 55.85,-59.78 66.38,-60.9 64.78,-54.08"/>
</a>
</g>
</g>
<!-- Node12 -->
<g id="Node000012" class="node">
<title>Node12</title>
<g id="a_Node000012"><a xlink:href="_game_object_8h.html" target="_top" xlink:title=" ">
<polygon fill="white" stroke="#666666" points="450.62,-244 371.62,-244 371.62,-224 450.62,-224 450.62,-244"/>
<text text-anchor="middle" x="411.12" y="-230.5" font-family="Helvetica,sans-Serif" font-size="10.00">GameObject.h</text>
</a>
</g>
</g>
<!-- Node11&#45;&gt;Node12 -->
<g id="edge12_Node000011_Node000012" class="edge">
<title>Node11&#45;&gt;Node12</title>
<g id="a_edge12_Node000011_Node000012"><a xlink:title=" ">
<path fill="none" stroke="#63b8ff" d="M467.28,-279.59C457.43,-271.77 443.19,-260.46 431.52,-251.19"/>
<polygon fill="#63b8ff" stroke="#63b8ff" points="434.03,-248.72 424.02,-245.24 429.67,-254.2 434.03,-248.72"/>
</a>
</g>
</g>
<!-- Node15 -->
<g id="Node000015" class="node">
<title>Node15</title>
<g id="a_Node000015"><a xlink:href="_snow_flake_8h.html" target="_top" xlink:title=" ">
<polygon fill="white" stroke="#666666" points="580.62,-244 507.62,-244 507.62,-224 580.62,-224 580.62,-244"/>
<text text-anchor="middle" x="544.12" y="-230.5" font-family="Helvetica,sans-Serif" font-size="10.00">SnowFlake.h</text>
</a>
</g>
</g>
<!-- Node11&#45;&gt;Node15 -->
<g id="edge22_Node000011_Node000015" class="edge">
<title>Node11&#45;&gt;Node15</title>
<g id="a_edge22_Node000011_Node000015"><a xlink:title=" ">
<path fill="none" stroke="#63b8ff" d="M490.45,-279.59C499.77,-271.85 513.2,-260.69 524.3,-251.47"/>
<polygon fill="#63b8ff" stroke="#63b8ff" points="526.31,-254.35 531.77,-245.27 521.84,-248.96 526.31,-254.35"/>
</a>
</g>
</g>
<!-- Node17 -->
<g id="Node000017" class="node">
<title>Node17</title>
<g id="a_Node000017"><a xlink:title=" ">
<polygon fill="#e0e0e0" stroke="#999999" points="572.62,-132 529.62,-132 529.62,-112 572.62,-112 572.62,-132"/>
<text text-anchor="middle" x="551.12" y="-118.5" font-family="Helvetica,sans-Serif" font-size="10.00">vector</text>
</a>
</g>
</g>
<!-- Node11&#45;&gt;Node17 -->
<g id="edge26_Node000011_Node000017" class="edge">
<title>Node11&#45;&gt;Node17</title>
<g id="a_edge26_Node000011_Node000017"><a xlink:title=" ">
<path fill="none" stroke="#63b8ff" d="M481.47,-279.56C484.77,-266.75 491.28,-243.24 499.12,-224 511.12,-194.57 528.62,-162.17 539.94,-142.2"/>
<polygon fill="#63b8ff" stroke="#63b8ff" points="542.82,-144.21 544.77,-133.79 536.75,-140.72 542.82,-144.21"/>
</a>
</g>
</g>
<!-- Node13 -->
<g id="Node000013" class="node">
<title>Node13</title>
<g id="a_Node000013"><a xlink:href="_transform_8h.html" target="_top" xlink:title=" ">
<polygon fill="white" stroke="#666666" points="445.38,-188 376.88,-188 376.88,-168 445.38,-168 445.38,-188"/>
<text text-anchor="middle" x="411.12" y="-174.5" font-family="Helvetica,sans-Serif" font-size="10.00">Transform.h</text>
</a>
</g>
</g>
<!-- Node12&#45;&gt;Node13 -->
<g id="edge13_Node000012_Node000013" class="edge">
<title>Node12&#45;&gt;Node13</title>
<g id="a_edge13_Node000012_Node000013"><a xlink:title=" ">
<path fill="none" stroke="#63b8ff" d="M411.12,-223.59C411.12,-217.01 411.12,-207.96 411.12,-199.73"/>
<polygon fill="#63b8ff" stroke="#63b8ff" points="414.63,-199.81 411.13,-189.81 407.63,-199.81 414.63,-199.81"/>
</a>
</g>
</g>
<!-- Node13&#45;&gt;Node10 -->
<g id="edge21_Node000013_Node000010" class="edge">
<title>Node13&#45;&gt;Node10</title>
<g id="a_edge21_Node000013_Node000010"><a xlink:title=" ">
<path fill="none" stroke="#63b8ff" d="M424.15,-167.66C451.95,-146.62 512.2,-94.32 482.12,-56 464.74,-33.85 388.26,-21.19 339.54,-15.25"/>
<polygon fill="#63b8ff" stroke="#63b8ff" points="340.24,-11.8 329.9,-14.12 339.43,-18.76 340.24,-11.8"/>
</a>
</g>
</g>
<!-- Node14 -->
<g id="Node000014" class="node">
<title>Node14</title>
<g id="a_Node000014"><a xlink:href="base_8h.html" target="_top" xlink:title=" ">
<polygon fill="white" stroke="#666666" points="311.75,-132 266.5,-132 266.5,-112 311.75,-112 311.75,-132"/>
<text text-anchor="middle" x="289.12" y="-118.5" font-family="Helvetica,sans-Serif" font-size="10.00">base.h</text>
</a>
</g>
</g>
<!-- Node13&#45;&gt;Node14 -->
<g id="edge14_Node000013_Node000014" class="edge">
<title>Node13&#45;&gt;Node14</title>
<g id="a_edge14_Node000013_Node000014"><a xlink:title=" ">
<path fill="none" stroke="#63b8ff" d="M389.87,-167.59C370.84,-159.17 342.65,-146.69 320.92,-137.07"/>
<polygon fill="#63b8ff" stroke="#63b8ff" points="322.49,-133.94 311.93,-133.09 319.65,-140.34 322.49,-133.94"/>
</a>
</g>
</g>
<!-- Node14&#45;&gt;Node3 -->
<g id="edge15_Node000014_Node000003" class="edge">
<title>Node14&#45;&gt;Node3</title>
<g id="a_edge15_Node000014_Node000003"><a xlink:title=" ">
<path fill="none" stroke="#63b8ff" d="M266.06,-114.49C263.05,-113.65 260.02,-112.8 257.12,-112 201.84,-96.69 185.48,-92.89 127.4,-76.61"/>
<polygon fill="#63b8ff" stroke="#63b8ff" points="128.49,-73.28 117.92,-73.94 126.6,-80.02 128.49,-73.28"/>
</a>
</g>
</g>
<!-- Node14&#45;&gt;Node4 -->
<g id="edge16_Node000014_Node000004" class="edge">
<title>Node14&#45;&gt;Node4</title>
<g id="a_edge16_Node000014_Node000004"><a xlink:title=" ">
<path fill="none" stroke="#63b8ff" d="M268.92,-111.59C250.9,-103.21 224.26,-90.8 203.64,-81.21"/>
<polygon fill="#63b8ff" stroke="#63b8ff" points="205.4,-78.17 194.86,-77.12 202.45,-84.51 205.4,-78.17"/>
</a>
</g>
</g>
<!-- Node14&#45;&gt;Node5 -->
<g id="edge17_Node000014_Node000005" class="edge">
<title>Node14&#45;&gt;Node5</title>
<g id="a_edge17_Node000014_Node000005"><a xlink:title=" ">
<path fill="none" stroke="#63b8ff" d="M283.9,-111.59C280.03,-104.63 274.62,-94.89 269.84,-86.29"/>
<polygon fill="#63b8ff" stroke="#63b8ff" points="272.94,-84.66 265.03,-77.62 266.82,-88.06 272.94,-84.66"/>
</a>
</g>
</g>
<!-- Node14&#45;&gt;Node6 -->
<g id="edge18_Node000014_Node000006" class="edge">
<title>Node14&#45;&gt;Node6</title>
<g id="a_edge18_Node000014_Node000006"><a xlink:title=" ">
<path fill="none" stroke="#63b8ff" d="M298.53,-111.59C306.04,-104.08 316.77,-93.35 325.82,-84.3"/>
<polygon fill="#63b8ff" stroke="#63b8ff" points="328.16,-86.91 332.76,-77.37 323.21,-81.96 328.16,-86.91"/>
</a>
</g>
</g>
<!-- Node14&#45;&gt;Node7 -->
<g id="edge19_Node000014_Node000007" class="edge">
<title>Node14&#45;&gt;Node7</title>
<g id="a_edge19_Node000014_Node000007"><a xlink:title=" ">
<path fill="none" stroke="#63b8ff" d="M311.94,-112.56C335.2,-103.96 371.64,-90.48 398.86,-80.41"/>
<polygon fill="#63b8ff" stroke="#63b8ff" points="399.94,-83.74 408.11,-76.99 397.51,-77.18 399.94,-83.74"/>
</a>
</g>
</g>
<!-- Node14&#45;&gt;Node8 -->
<g id="edge20_Node000014_Node000008" class="edge">
<title>Node14&#45;&gt;Node8</title>
<g id="a_edge20_Node000014_Node000008"><a xlink:title=" ">
<path fill="none" stroke="#63b8ff" d="M266.12,-114.26C263.1,-113.46 260.05,-112.68 257.12,-112 175.22,-92.92 150.8,-94.47 65.84,-76.47"/>
<polygon fill="#63b8ff" stroke="#63b8ff" points="66.59,-73.06 56.08,-74.37 65.12,-79.9 66.59,-73.06"/>
</a>
</g>
</g>
<!-- Node15&#45;&gt;Node16 -->
<g id="edge23_Node000015_Node000016" class="edge">
<title>Node15&#45;&gt;Node16</title>
<g id="a_edge23_Node000015_Node000016"><a xlink:title=" ">
<path fill="none" stroke="#63b8ff" d="M549.7,-223.59C553.87,-216.55 559.73,-206.67 564.87,-198"/>
<polygon fill="#63b8ff" stroke="#63b8ff" points="567.76,-199.99 569.84,-189.6 561.73,-196.42 567.76,-199.99"/>
</a>
</g>
</g>
<!-- Node16&#45;&gt;Node10 -->
<g id="edge25_Node000016_Node000010" class="edge">
<title>Node16&#45;&gt;Node10</title>
<g id="a_edge25_Node000016_Node000010"><a xlink:title=" ">
<path fill="none" stroke="#63b8ff" d="M580.08,-167.54C584.96,-154.3 591.54,-129.84 582.12,-112 561.52,-72.97 540.61,-73.56 500.12,-56 447.51,-33.18 381.98,-21.32 340.09,-15.63"/>
<polygon fill="#63b8ff" stroke="#63b8ff" points="340.54,-12.16 330.17,-14.35 339.64,-19.1 340.54,-12.16"/>
</a>
</g>
</g>
<!-- Node16&#45;&gt;Node17 -->
<g id="edge24_Node000016_Node000017" class="edge">
<title>Node16&#45;&gt;Node17</title>
<g id="a_edge24_Node000016_Node000017"><a xlink:title=" ">
<path fill="none" stroke="#63b8ff" d="M571.77,-167.59C568.58,-160.7 564.14,-151.1 560.19,-142.57"/>
<polygon fill="#63b8ff" stroke="#63b8ff" points="563.44,-141.28 556.07,-133.67 557.09,-144.22 563.44,-141.28"/>
</a>
</g>
</g>
</g>
</svg>
