<?xml version="1.0" encoding="UTF-8" standalone="no"?>
<!DOCTYPE svg PUBLIC "-//W3C//DTD SVG 1.1//EN"
 "http://www.w3.org/Graphics/SVG/1.1/DTD/svg11.dtd">
<!-- Generated by graphviz version 12.2.1 (20241206.2353)
 -->
<!-- Title: Engine/SoundStream.h Pages: 1 -->
<svg width="1848pt" height="588pt"
 viewBox="0.00 0.00 1848.25 588.00" xmlns="http://www.w3.org/2000/svg" xmlns:xlink="http://www.w3.org/1999/xlink">
<g id="graph0" class="graph" transform="scale(1 1) rotate(0) translate(4 584)">
<title>Engine/SoundStream.h</title>
<!-- Node1 -->
<g id="Node000001" class="node">
<title>Node1</title>
<g id="a_Node000001"><a xlink:title=" ">
<polygon fill="#999999" stroke="#666666" points="152.25,-580 35.75,-580 35.75,-560 152.25,-560 152.25,-580"/>
<text text-anchor="middle" x="94" y="-566.5" font-family="Helvetica,sans-Serif" font-size="10.00">Engine/SoundStream.h</text>
</a>
</g>
</g>
<!-- Node2 -->
<g id="Node000002" class="node">
<title>Node2</title>
<g id="a_Node000002"><a xlink:href="_chapter_info_8h.html" target="_top" xlink:title=" ">
<polygon fill="white" stroke="#666666" points="988,-244 876,-244 876,-224 988,-224 988,-244"/>
<text text-anchor="middle" x="932" y="-230.5" font-family="Helvetica,sans-Serif" font-size="10.00">Celeste/ChapterInfo.h</text>
</a>
</g>
</g>
<!-- Node1&#45;&gt;Node2 -->
<g id="edge1_Node000001_Node000002" class="edge">
<title>Node1&#45;&gt;Node2</title>
<g id="a_edge1_Node000001_Node000002"><a xlink:title=" ">
<path fill="none" stroke="#63b8ff" d="M78.03,-550.87C61.48,-530.16 38,-494.52 38,-459 38,-459 38,-459 38,-345 38,-309.09 54.38,-297.03 86,-280 155.12,-242.78 697.37,-236.34 875.51,-235.23"/>
<polygon fill="#63b8ff" stroke="#63b8ff" points="75.19,-552.93 84.28,-558.36 80.56,-548.44 75.19,-552.93"/>
</a>
</g>
</g>
<!-- Node10 -->
<g id="Node000010" class="node">
<title>Node10</title>
<g id="a_Node000010"><a xlink:href="_pause_menu_8cpp.html" target="_top" xlink:title=" ">
<polygon fill="white" stroke="#666666" points="381.62,-132 258.38,-132 258.38,-112 381.62,-112 381.62,-132"/>
<text text-anchor="middle" x="320" y="-118.5" font-family="Helvetica,sans-Serif" font-size="10.00">Celeste/PauseMenu.cpp</text>
</a>
</g>
</g>
<!-- Node1&#45;&gt;Node10 -->
<g id="edge47_Node000001_Node000010" class="edge">
<title>Node1&#45;&gt;Node10</title>
<g id="a_edge47_Node000001_Node000010"><a xlink:title=" ">
<path fill="none" stroke="#63b8ff" d="M67.59,-553.42C39.79,-534.79 0,-500.84 0,-459 0,-459 0,-459 0,-233 0,-179.03 164.86,-145.86 257.92,-131.44"/>
<polygon fill="#63b8ff" stroke="#63b8ff" points="65.61,-556.31 75.92,-558.76 69.39,-550.41 65.61,-556.31"/>
</a>
</g>
</g>
<!-- Node11 -->
<g id="Node000011" class="node">
<title>Node11</title>
<g id="a_Node000011"><a xlink:href="_character_sound_manager_8h.html" target="_top" xlink:title=" ">
<polygon fill="white" stroke="#666666" points="544.5,-524 375.5,-524 375.5,-504 544.5,-504 544.5,-524"/>
<text text-anchor="middle" x="460" y="-510.5" font-family="Helvetica,sans-Serif" font-size="10.00">Celeste/CharacterSoundManager.h</text>
</a>
</g>
</g>
<!-- Node1&#45;&gt;Node11 -->
<g id="edge10_Node000001_Node000011" class="edge">
<title>Node1&#45;&gt;Node11</title>
<g id="a_edge10_Node000001_Node000011"><a xlink:title=" ">
<path fill="none" stroke="#63b8ff" d="M163.65,-558.72C230.5,-548.86 330.64,-534.09 395.65,-524.49"/>
<polygon fill="#63b8ff" stroke="#63b8ff" points="163.28,-555.24 153.9,-560.16 164.3,-562.17 163.28,-555.24"/>
</a>
</g>
</g>
<!-- Node35 -->
<g id="Node000035" class="node">
<title>Node35</title>
<g id="a_Node000035"><a xlink:href="_sound_stream_8cpp.html" target="_top" xlink:title=" ">
<polygon fill="white" stroke="#666666" points="689.5,-524 562.5,-524 562.5,-504 689.5,-504 689.5,-524"/>
<text text-anchor="middle" x="626" y="-510.5" font-family="Helvetica,sans-Serif" font-size="10.00">Engine/SoundStream.cpp</text>
</a>
</g>
</g>
<!-- Node1&#45;&gt;Node35 -->
<g id="edge48_Node000001_Node000035" class="edge">
<title>Node1&#45;&gt;Node35</title>
<g id="a_edge48_Node000001_Node000035"><a xlink:title=" ">
<path fill="none" stroke="#63b8ff" d="M163.95,-562.75C254.17,-554.54 415.91,-539.38 554,-524 556.63,-523.71 559.31,-523.4 562.02,-523.09"/>
<polygon fill="#63b8ff" stroke="#63b8ff" points="163.66,-559.26 154.01,-563.65 164.29,-566.23 163.66,-559.26"/>
</a>
</g>
</g>
<!-- Node3 -->
<g id="Node000003" class="node">
<title>Node3</title>
<g id="a_Node000003"><a xlink:href="_chapter_loader_8h.html" target="_top" xlink:title=" ">
<polygon fill="white" stroke="#666666" points="1206.38,-188 1081.62,-188 1081.62,-168 1206.38,-168 1206.38,-188"/>
<text text-anchor="middle" x="1144" y="-174.5" font-family="Helvetica,sans-Serif" font-size="10.00">Celeste/ChapterLoader.h</text>
</a>
</g>
</g>
<!-- Node2&#45;&gt;Node3 -->
<g id="edge2_Node000002_Node000003" class="edge">
<title>Node2&#45;&gt;Node3</title>
<g id="a_edge2_Node000002_Node000003"><a xlink:title=" ">
<path fill="none" stroke="#63b8ff" d="M979.85,-220.81C1018.28,-211.02 1071.49,-197.47 1106.78,-188.48"/>
<polygon fill="#63b8ff" stroke="#63b8ff" points="979.22,-217.36 970.39,-223.22 980.95,-224.14 979.22,-217.36"/>
</a>
</g>
</g>
<!-- Node4 -->
<g id="Node000004" class="node">
<title>Node4</title>
<g id="a_Node000004"><a xlink:href="_chapter_loader_8cpp.html" target="_top" xlink:title=" ">
<polygon fill="white" stroke="#666666" points="1211.62,-132 1076.38,-132 1076.38,-112 1211.62,-112 1211.62,-132"/>
<text text-anchor="middle" x="1144" y="-118.5" font-family="Helvetica,sans-Serif" font-size="10.00">Celeste/ChapterLoader.cpp</text>
</a>
</g>
</g>
<!-- Node3&#45;&gt;Node4 -->
<g id="edge3_Node000003_Node000004" class="edge">
<title>Node3&#45;&gt;Node4</title>
<g id="a_edge3_Node000003_Node000004"><a xlink:title=" ">
<path fill="none" stroke="#63b8ff" d="M1144,-156.13C1144,-147.9 1144,-138.85 1144,-132.3"/>
<polygon fill="#63b8ff" stroke="#63b8ff" points="1140.5,-156.08 1144,-166.08 1147.5,-156.08 1140.5,-156.08"/>
</a>
</g>
</g>
<!-- Node5 -->
<g id="Node000005" class="node">
<title>Node5</title>
<g id="a_Node000005"><a xlink:href="_level_manager_8h.html" target="_top" xlink:title=" ">
<polygon fill="white" stroke="#666666" points="1690.88,-132 1569.12,-132 1569.12,-112 1690.88,-112 1690.88,-132"/>
<text text-anchor="middle" x="1630" y="-118.5" font-family="Helvetica,sans-Serif" font-size="10.00">Celeste/LevelManager.h</text>
</a>
</g>
</g>
<!-- Node3&#45;&gt;Node5 -->
<g id="edge4_Node000003_Node000005" class="edge">
<title>Node3&#45;&gt;Node5</title>
<g id="a_edge4_Node000003_Node000005"><a xlink:title=" ">
<path fill="none" stroke="#63b8ff" d="M1217.89,-168.79C1313.85,-158.13 1479.59,-139.71 1568.85,-129.79"/>
<polygon fill="#63b8ff" stroke="#63b8ff" points="1217.6,-165.3 1208.05,-169.88 1218.37,-172.26 1217.6,-165.3"/>
</a>
</g>
</g>
<!-- Node3&#45;&gt;Node10 -->
<g id="edge9_Node000003_Node000010" class="edge">
<title>Node3&#45;&gt;Node10</title>
<g id="a_edge9_Node000003_Node000010"><a xlink:title=" ">
<path fill="none" stroke="#63b8ff" d="M1070.21,-172.16C909.67,-161.64 531.11,-136.83 381.95,-127.06"/>
<polygon fill="#63b8ff" stroke="#63b8ff" points="1069.67,-175.64 1079.88,-172.8 1070.13,-168.65 1069.67,-175.64"/>
</a>
</g>
</g>
<!-- Node6 -->
<g id="Node000006" class="node">
<title>Node6</title>
<g id="a_Node000006"><a xlink:href="_game_8h.html" target="_top" xlink:title=" ">
<polygon fill="white" stroke="#666666" points="1781.62,-76 1694.38,-76 1694.38,-56 1781.62,-56 1781.62,-76"/>
<text text-anchor="middle" x="1738" y="-62.5" font-family="Helvetica,sans-Serif" font-size="10.00">Celeste/Game.h</text>
</a>
</g>
</g>
<!-- Node5&#45;&gt;Node6 -->
<g id="edge5_Node000005_Node000006" class="edge">
<title>Node5&#45;&gt;Node6</title>
<g id="a_edge5_Node000005_Node000006"><a xlink:title=" ">
<path fill="none" stroke="#63b8ff" d="M1659.04,-106.48C1678.09,-96.96 1702.45,-84.78 1719.04,-76.48"/>
<polygon fill="#63b8ff" stroke="#63b8ff" points="1657.54,-103.31 1650.17,-110.92 1660.68,-109.58 1657.54,-103.31"/>
</a>
</g>
</g>
<!-- Node9 -->
<g id="Node000009" class="node">
<title>Node9</title>
<g id="a_Node000009"><a xlink:href="_level_manager_8cpp.html" target="_top" xlink:title=" ">
<polygon fill="white" stroke="#666666" points="1676.12,-76 1543.88,-76 1543.88,-56 1676.12,-56 1676.12,-76"/>
<text text-anchor="middle" x="1610" y="-62.5" font-family="Helvetica,sans-Serif" font-size="10.00">Celeste/LevelManager.cpp</text>
</a>
</g>
</g>
<!-- Node5&#45;&gt;Node9 -->
<g id="edge8_Node000005_Node000009" class="edge">
<title>Node5&#45;&gt;Node9</title>
<g id="a_edge8_Node000005_Node000009"><a xlink:title=" ">
<path fill="none" stroke="#63b8ff" d="M1622.59,-101C1619.46,-92.54 1615.96,-83.08 1613.44,-76.3"/>
<polygon fill="#63b8ff" stroke="#63b8ff" points="1619.24,-102.01 1625.99,-110.17 1625.8,-99.58 1619.24,-102.01"/>
</a>
</g>
</g>
<!-- Node7 -->
<g id="Node000007" class="node">
<title>Node7</title>
<g id="a_Node000007"><a xlink:href="_game_8cpp.html" target="_top" xlink:title=" ">
<polygon fill="white" stroke="#666666" points="1729.88,-20 1632.12,-20 1632.12,0 1729.88,0 1729.88,-20"/>
<text text-anchor="middle" x="1681" y="-6.5" font-family="Helvetica,sans-Serif" font-size="10.00">Celeste/Game.cpp</text>
</a>
</g>
</g>
<!-- Node6&#45;&gt;Node7 -->
<g id="edge6_Node000006_Node000007" class="edge">
<title>Node6&#45;&gt;Node7</title>
<g id="a_edge6_Node000006_Node000007"><a xlink:title=" ">
<path fill="none" stroke="#63b8ff" d="M1719.89,-47.85C1710.26,-38.72 1698.79,-27.86 1690.81,-20.3"/>
<polygon fill="#63b8ff" stroke="#63b8ff" points="1717.31,-50.22 1726.97,-54.55 1722.12,-45.13 1717.31,-50.22"/>
</a>
</g>
</g>
<!-- Node8 -->
<g id="Node000008" class="node">
<title>Node8</title>
<g id="a_Node000008"><a xlink:href="main_8cpp.html" target="_top" xlink:title=" ">
<polygon fill="white" stroke="#666666" points="1840.25,-20 1747.75,-20 1747.75,0 1840.25,0 1840.25,-20"/>
<text text-anchor="middle" x="1794" y="-6.5" font-family="Helvetica,sans-Serif" font-size="10.00">Celeste/main.cpp</text>
</a>
</g>
</g>
<!-- Node6&#45;&gt;Node8 -->
<g id="edge7_Node000006_Node000008" class="edge">
<title>Node6&#45;&gt;Node8</title>
<g id="a_edge7_Node000006_Node000008"><a xlink:title=" ">
<path fill="none" stroke="#63b8ff" d="M1755.79,-47.85C1765.25,-38.72 1776.52,-27.86 1784.36,-20.3"/>
<polygon fill="#63b8ff" stroke="#63b8ff" points="1753.61,-45.08 1748.84,-54.54 1758.47,-50.12 1753.61,-45.08"/>
</a>
</g>
</g>
<!-- Node12 -->
<g id="Node000012" class="node">
<title>Node12</title>
<g id="a_Node000012"><a xlink:href="_character_8h.html" target="_top" xlink:title=" ">
<polygon fill="white" stroke="#666666" points="891.88,-468 788.12,-468 788.12,-448 891.88,-448 891.88,-468"/>
<text text-anchor="middle" x="840" y="-454.5" font-family="Helvetica,sans-Serif" font-size="10.00">Celeste/Character.h</text>
</a>
</g>
</g>
<!-- Node11&#45;&gt;Node12 -->
<g id="edge11_Node000011_Node000012" class="edge">
<title>Node11&#45;&gt;Node12</title>
<g id="a_edge11_Node000011_Node000012"><a xlink:title=" ">
<path fill="none" stroke="#63b8ff" d="M537.83,-501.94C612.5,-491.33 723.19,-475.6 787.82,-466.42"/>
<polygon fill="#63b8ff" stroke="#63b8ff" points="537.53,-498.45 528.12,-503.32 538.52,-505.38 537.53,-498.45"/>
</a>
</g>
</g>
<!-- Node34 -->
<g id="Node000034" class="node">
<title>Node34</title>
<g id="a_Node000034"><a xlink:href="_character_sound_manager_8cpp.html" target="_top" xlink:title=" ">
<polygon fill="white" stroke="#666666" points="1089.75,-468 910.25,-468 910.25,-448 1089.75,-448 1089.75,-468"/>
<text text-anchor="middle" x="1000" y="-454.5" font-family="Helvetica,sans-Serif" font-size="10.00">Celeste/CharacterSoundManager.cpp</text>
</a>
</g>
</g>
<!-- Node11&#45;&gt;Node34 -->
<g id="edge46_Node000011_Node000034" class="edge">
<title>Node11&#45;&gt;Node34</title>
<g id="a_edge46_Node000011_Node000034"><a xlink:title=" ">
<path fill="none" stroke="#63b8ff" d="M556.31,-503.37C656.56,-493.34 812.33,-477.77 910.13,-467.99"/>
<polygon fill="#63b8ff" stroke="#63b8ff" points="556.08,-499.87 546.48,-504.35 556.77,-506.84 556.08,-499.87"/>
</a>
</g>
</g>
<!-- Node12&#45;&gt;Node5 -->
<g id="edge45_Node000012_Node000005" class="edge">
<title>Node12&#45;&gt;Node5</title>
<g id="a_edge45_Node000012_Node000005"><a xlink:title=" ">
<path fill="none" stroke="#63b8ff" d="M903.52,-447.97C1034.7,-435.8 1700,-433.6 1700,-347 1700,-347 1700,-347 1700,-233 1700,-189.77 1661.03,-149.81 1641.25,-132.31"/>
<polygon fill="#63b8ff" stroke="#63b8ff" points="903.29,-444.47 893.74,-449.05 904.06,-451.43 903.29,-444.47"/>
</a>
</g>
</g>
<!-- Node12&#45;&gt;Node6 -->
<g id="edge13_Node000012_Node000006" class="edge">
<title>Node12&#45;&gt;Node6</title>
<g id="a_edge13_Node000012_Node000006"><a xlink:title=" ">
<path fill="none" stroke="#63b8ff" d="M903.32,-447.88C1200.64,-419.53 1284.32,-474.86 1573,-412 1650.01,-395.23 1738,-425.82 1738,-347 1738,-347 1738,-347 1738,-177 1738,-139.76 1738,-95.43 1738,-76.42"/>
<polygon fill="#63b8ff" stroke="#63b8ff" points="903.32,-444.37 893.71,-448.82 904,-451.33 903.32,-444.37"/>
</a>
</g>
</g>
<!-- Node13 -->
<g id="Node000013" class="node">
<title>Node13</title>
<g id="a_Node000013"><a xlink:href="_character_8cpp.html" target="_top" xlink:title=" ">
<polygon fill="white" stroke="#666666" points="827.12,-412 712.88,-412 712.88,-392 827.12,-392 827.12,-412"/>
<text text-anchor="middle" x="770" y="-398.5" font-family="Helvetica,sans-Serif" font-size="10.00">Celeste/Character.cpp</text>
</a>
</g>
</g>
<!-- Node12&#45;&gt;Node13 -->
<g id="edge12_Node000012_Node000013" class="edge">
<title>Node12&#45;&gt;Node13</title>
<g id="a_edge12_Node000012_Node000013"><a xlink:title=" ">
<path fill="none" stroke="#63b8ff" d="M818.84,-440.68C806.8,-431.39 792.15,-420.09 782.05,-412.3"/>
<polygon fill="#63b8ff" stroke="#63b8ff" points="816.55,-443.33 826.61,-446.67 820.83,-437.79 816.55,-443.33"/>
</a>
</g>
</g>
<!-- Node14 -->
<g id="Node000014" class="node">
<title>Node14</title>
<g id="a_Node000014"><a xlink:href="_interactable_item_8h.html" target="_top" xlink:title=" ">
<polygon fill="white" stroke="#666666" points="976.75,-412 845.25,-412 845.25,-392 976.75,-392 976.75,-412"/>
<text text-anchor="middle" x="911" y="-398.5" font-family="Helvetica,sans-Serif" font-size="10.00">Celeste/InteractableItem.h</text>
</a>
</g>
</g>
<!-- Node12&#45;&gt;Node14 -->
<g id="edge14_Node000012_Node000014" class="edge">
<title>Node12&#45;&gt;Node14</title>
<g id="a_edge14_Node000012_Node000014"><a xlink:title=" ">
<path fill="none" stroke="#63b8ff" d="M861.46,-440.68C873.67,-431.39 888.53,-420.09 898.77,-412.3"/>
<polygon fill="#63b8ff" stroke="#63b8ff" points="859.41,-437.84 853.57,-446.68 863.65,-443.41 859.41,-437.84"/>
</a>
</g>
</g>
<!-- Node14&#45;&gt;Node2 -->
<g id="edge15_Node000014_Node000002" class="edge">
<title>Node14&#45;&gt;Node2</title>
<g id="a_edge15_Node000014_Node000002"><a xlink:title=" ">
<path fill="none" stroke="#63b8ff" d="M988.15,-392.68C1035,-385.86 1088.5,-374.29 1103,-356 1119.41,-335.3 1097.77,-295.47 1081,-280 1055.77,-256.74 1018.9,-245.48 988.15,-240.04"/>
<polygon fill="#63b8ff" stroke="#63b8ff" points="987.95,-389.17 978.53,-394.02 988.92,-396.11 987.95,-389.17"/>
</a>
</g>
</g>
<!-- Node14&#45;&gt;Node3 -->
<g id="edge16_Node000014_Node000003" class="edge">
<title>Node14&#45;&gt;Node3</title>
<g id="a_edge16_Node000014_Node000003"><a xlink:title=" ">
<path fill="none" stroke="#63b8ff" d="M988.23,-398.98C1092.11,-395.23 1282.27,-384.76 1442,-356 1533.27,-339.57 1586.91,-373.85 1643,-300 1663.43,-273.1 1665.79,-248.93 1643,-224 1614.1,-192.38 1334.18,-182.78 1206.69,-180.03"/>
<polygon fill="#63b8ff" stroke="#63b8ff" points="988.3,-395.47 978.43,-399.32 988.54,-402.47 988.3,-395.47"/>
</a>
</g>
</g>
<!-- Node15 -->
<g id="Node000015" class="node">
<title>Node15</title>
<g id="a_Node000015"><a xlink:href="_cog_platform_8h.html" target="_top" xlink:title=" ">
<polygon fill="white" stroke="#666666" points="689.88,-356 574.12,-356 574.12,-336 689.88,-336 689.88,-356"/>
<text text-anchor="middle" x="632" y="-342.5" font-family="Helvetica,sans-Serif" font-size="10.00">Celeste/CogPlatform.h</text>
</a>
</g>
</g>
<!-- Node14&#45;&gt;Node15 -->
<g id="edge17_Node000014_Node000015" class="edge">
<title>Node14&#45;&gt;Node15</title>
<g id="a_edge17_Node000014_Node000015"><a xlink:title=" ">
<path fill="none" stroke="#63b8ff" d="M850.93,-389.37C800.12,-379.54 728.21,-365.62 680.86,-356.46"/>
<polygon fill="#63b8ff" stroke="#63b8ff" points="850.11,-392.78 860.6,-391.24 851.44,-385.91 850.11,-392.78"/>
</a>
</g>
</g>
<!-- Node17 -->
<g id="Node000017" class="node">
<title>Node17</title>
<g id="a_Node000017"><a xlink:href="_crumble_block_8h.html" target="_top" xlink:title=" ">
<polygon fill="white" stroke="#666666" points="1094.25,-356 971.75,-356 971.75,-336 1094.25,-336 1094.25,-356"/>
<text text-anchor="middle" x="1033" y="-342.5" font-family="Helvetica,sans-Serif" font-size="10.00">Celeste/CrumbleBlock.h</text>
</a>
</g>
</g>
<!-- Node14&#45;&gt;Node17 -->
<g id="edge20_Node000014_Node000017" class="edge">
<title>Node14&#45;&gt;Node17</title>
<g id="a_edge20_Node000014_Node000017"><a xlink:title=" ">
<path fill="none" stroke="#63b8ff" d="M942.61,-387.01C964.29,-377.41 992.49,-364.93 1011.58,-356.48"/>
<polygon fill="#63b8ff" stroke="#63b8ff" points="941.36,-383.73 933.63,-390.98 944.2,-390.13 941.36,-383.73"/>
</a>
</g>
</g>
<!-- Node19 -->
<g id="Node000019" class="node">
<title>Node19</title>
<g id="a_Node000019"><a xlink:href="_dash_crystal_8h.html" target="_top" xlink:title=" ">
<polygon fill="white" stroke="#666666" points="224.88,-356 109.12,-356 109.12,-336 224.88,-336 224.88,-356"/>
<text text-anchor="middle" x="167" y="-342.5" font-family="Helvetica,sans-Serif" font-size="10.00">Celeste/DashCrystal.h</text>
</a>
</g>
</g>
<!-- Node14&#45;&gt;Node19 -->
<g id="edge23_Node000014_Node000019" class="edge">
<title>Node14&#45;&gt;Node19</title>
<g id="a_edge23_Node000014_Node000019"><a xlink:title=" ">
<path fill="none" stroke="#63b8ff" d="M833.34,-391.8C588.38,-369.42 524.39,-373.36 282,-356 263.52,-354.68 243.38,-353.13 225.2,-351.7"/>
<polygon fill="#63b8ff" stroke="#63b8ff" points="832.98,-395.28 843.26,-392.71 833.62,-388.31 832.98,-395.28"/>
</a>
</g>
</g>
<!-- Node21 -->
<g id="Node000021" class="node">
<title>Node21</title>
<g id="a_Node000021"><a xlink:href="_interactable_item_8cpp.html" target="_top" xlink:title=" ">
<polygon fill="white" stroke="#666666" points="850,-356 708,-356 708,-336 850,-336 850,-356"/>
<text text-anchor="middle" x="779" y="-342.5" font-family="Helvetica,sans-Serif" font-size="10.00">Celeste/InteractableItem.cpp</text>
</a>
</g>
</g>
<!-- Node14&#45;&gt;Node21 -->
<g id="edge26_Node000014_Node000021" class="edge">
<title>Node14&#45;&gt;Node21</title>
<g id="a_edge26_Node000014_Node000021"><a xlink:title=" ">
<path fill="none" stroke="#63b8ff" d="M877.44,-387.27C853.9,-377.64 823.02,-365.01 802.17,-356.48"/>
<polygon fill="#63b8ff" stroke="#63b8ff" points="876.03,-390.47 886.61,-391.02 878.68,-384 876.03,-390.47"/>
</a>
</g>
</g>
<!-- Node22 -->
<g id="Node000022" class="node">
<title>Node22</title>
<g id="a_Node000022"><a xlink:href="_level_8h.html" target="_top" xlink:title=" ">
<polygon fill="white" stroke="#666666" points="375.12,-356 290.88,-356 290.88,-336 375.12,-336 375.12,-356"/>
<text text-anchor="middle" x="333" y="-342.5" font-family="Helvetica,sans-Serif" font-size="10.00">Celeste/Level.h</text>
</a>
</g>
</g>
<!-- Node14&#45;&gt;Node22 -->
<g id="edge27_Node000014_Node000022" class="edge">
<title>Node14&#45;&gt;Node22</title>
<g id="a_edge27_Node000014_Node000022"><a xlink:title=" ">
<path fill="none" stroke="#63b8ff" d="M833.4,-391.76C650.82,-373.02 602.78,-372.82 423,-356 407.52,-354.55 390.56,-352.88 375.57,-351.37"/>
<polygon fill="#63b8ff" stroke="#63b8ff" points="832.95,-395.23 843.25,-392.78 833.67,-388.27 832.95,-395.23"/>
</a>
</g>
</g>
<!-- Node24 -->
<g id="Node000024" class="node">
<title>Node24</title>
<g id="a_Node000024"><a xlink:href="_respawn_zone_8h.html" target="_top" xlink:title=" ">
<polygon fill="white" stroke="#666666" points="556,-356 432,-356 432,-336 556,-336 556,-356"/>
<text text-anchor="middle" x="494" y="-342.5" font-family="Helvetica,sans-Serif" font-size="10.00">Celeste/RespawnZone.h</text>
</a>
</g>
</g>
<!-- Node14&#45;&gt;Node24 -->
<g id="edge30_Node000014_Node000024" class="edge">
<title>Node14&#45;&gt;Node24</title>
<g id="a_edge30_Node000014_Node000024"><a xlink:title=" ">
<path fill="none" stroke="#63b8ff" d="M833.94,-391.02C753.96,-380.66 630.42,-364.67 556.36,-355.08"/>
<polygon fill="#63b8ff" stroke="#63b8ff" points="833.06,-394.44 843.42,-392.25 833.96,-387.49 833.06,-394.44"/>
</a>
</g>
</g>
<!-- Node26 -->
<g id="Node000026" class="node">
<title>Node26</title>
<g id="a_Node000026"><a xlink:href="_spike_8h.html" target="_top" xlink:title=" ">
<polygon fill="white" stroke="#666666" points="953.88,-356 868.12,-356 868.12,-336 953.88,-336 953.88,-356"/>
<text text-anchor="middle" x="911" y="-342.5" font-family="Helvetica,sans-Serif" font-size="10.00">Celeste/Spike.h</text>
</a>
</g>
</g>
<!-- Node14&#45;&gt;Node26 -->
<g id="edge33_Node000014_Node000026" class="edge">
<title>Node14&#45;&gt;Node26</title>
<g id="a_edge33_Node000014_Node000026"><a xlink:title=" ">
<path fill="none" stroke="#63b8ff" d="M911,-380.13C911,-371.9 911,-362.85 911,-356.3"/>
<polygon fill="#63b8ff" stroke="#63b8ff" points="907.5,-380.08 911,-390.08 914.5,-380.08 907.5,-380.08"/>
</a>
</g>
</g>
<!-- Node28 -->
<g id="Node000028" class="node">
<title>Node28</title>
<g id="a_Node000028"><a xlink:href="_strawberry_8h.html" target="_top" xlink:title=" ">
<polygon fill="white" stroke="#666666" points="1432.75,-356 1325.25,-356 1325.25,-336 1432.75,-336 1432.75,-356"/>
<text text-anchor="middle" x="1379" y="-342.5" font-family="Helvetica,sans-Serif" font-size="10.00">Celeste/Strawberry.h</text>
</a>
</g>
</g>
<!-- Node14&#45;&gt;Node28 -->
<g id="edge36_Node000014_Node000028" class="edge">
<title>Node14&#45;&gt;Node28</title>
<g id="a_edge36_Node000014_Node000028"><a xlink:title=" ">
<path fill="none" stroke="#63b8ff" d="M988.32,-392.08C1083.32,-381.12 1242.05,-362.8 1324.91,-353.24"/>
<polygon fill="#63b8ff" stroke="#63b8ff" points="988.1,-388.58 978.56,-393.2 988.9,-395.53 988.1,-388.58"/>
</a>
</g>
</g>
<!-- Node32 -->
<g id="Node000032" class="node">
<title>Node32</title>
<g id="a_Node000032"><a xlink:href="_trampoline_8h.html" target="_top" xlink:title=" ">
<polygon fill="white" stroke="#666666" points="1259.5,-356 1150.5,-356 1150.5,-336 1259.5,-336 1259.5,-356"/>
<text text-anchor="middle" x="1205" y="-342.5" font-family="Helvetica,sans-Serif" font-size="10.00">Celeste/Trampoline.h</text>
</a>
</g>
</g>
<!-- Node14&#45;&gt;Node32 -->
<g id="edge42_Node000014_Node000032" class="edge">
<title>Node14&#45;&gt;Node32</title>
<g id="a_edge42_Node000014_Node000032"><a xlink:title=" ">
<path fill="none" stroke="#63b8ff" d="M973.62,-389.5C1027.21,-379.66 1103.41,-365.66 1153.51,-356.46"/>
<polygon fill="#63b8ff" stroke="#63b8ff" points="973.24,-386.01 964.04,-391.26 974.5,-392.89 973.24,-386.01"/>
</a>
</g>
</g>
<!-- Node15&#45;&gt;Node2 -->
<g id="edge18_Node000015_Node000002" class="edge">
<title>Node15&#45;&gt;Node2</title>
<g id="a_edge18_Node000015_Node000002"><a xlink:title=" ">
<path fill="none" stroke="#63b8ff" d="M663.64,-331.07C695.32,-317.34 745.61,-296.13 790,-280 827.19,-266.48 870.65,-253.05 899.6,-244.43"/>
<polygon fill="#63b8ff" stroke="#63b8ff" points="662.4,-327.79 654.63,-334.99 665.2,-334.21 662.4,-327.79"/>
</a>
</g>
</g>
<!-- Node16 -->
<g id="Node000016" class="node">
<title>Node16</title>
<g id="a_Node000016"><a xlink:href="_cog_platform_8cpp.html" target="_top" xlink:title=" ">
<polygon fill="white" stroke="#666666" points="714.12,-300 587.88,-300 587.88,-280 714.12,-280 714.12,-300"/>
<text text-anchor="middle" x="651" y="-286.5" font-family="Helvetica,sans-Serif" font-size="10.00">Celeste/CogPlatform.cpp</text>
</a>
</g>
</g>
<!-- Node15&#45;&gt;Node16 -->
<g id="edge19_Node000015_Node000016" class="edge">
<title>Node15&#45;&gt;Node16</title>
<g id="a_edge19_Node000015_Node000016"><a xlink:title=" ">
<path fill="none" stroke="#63b8ff" d="M639.04,-325C642.01,-316.54 645.34,-307.08 647.73,-300.3"/>
<polygon fill="#63b8ff" stroke="#63b8ff" points="635.83,-323.57 635.81,-334.17 642.43,-325.89 635.83,-323.57"/>
</a>
</g>
</g>
<!-- Node17&#45;&gt;Node2 -->
<g id="edge21_Node000017_Node000002" class="edge">
<title>Node17&#45;&gt;Node2</title>
<g id="a_edge21_Node000017_Node000002"><a xlink:title=" ">
<path fill="none" stroke="#63b8ff" d="M1051.57,-327.58C1063.79,-313.97 1075.71,-294.92 1065,-280 1047.52,-255.64 1016.14,-244.3 988.24,-239.09"/>
<polygon fill="#63b8ff" stroke="#63b8ff" points="1049.25,-324.95 1044.79,-334.56 1054.27,-329.82 1049.25,-324.95"/>
</a>
</g>
</g>
<!-- Node18 -->
<g id="Node000018" class="node">
<title>Node18</title>
<g id="a_Node000018"><a xlink:href="_crumble_block_8cpp.html" target="_top" xlink:title=" ">
<polygon fill="white" stroke="#666666" points="1055.5,-300 922.5,-300 922.5,-280 1055.5,-280 1055.5,-300"/>
<text text-anchor="middle" x="989" y="-286.5" font-family="Helvetica,sans-Serif" font-size="10.00">Celeste/CrumbleBlock.cpp</text>
</a>
</g>
</g>
<!-- Node17&#45;&gt;Node18 -->
<g id="edge22_Node000017_Node000018" class="edge">
<title>Node17&#45;&gt;Node18</title>
<g id="a_edge22_Node000017_Node000018"><a xlink:title=" ">
<path fill="none" stroke="#63b8ff" d="M1018.11,-326.72C1010.87,-317.84 1002.48,-307.55 996.58,-300.3"/>
<polygon fill="#63b8ff" stroke="#63b8ff" points="1015.35,-328.88 1024.38,-334.42 1020.78,-324.46 1015.35,-328.88"/>
</a>
</g>
</g>
<!-- Node19&#45;&gt;Node2 -->
<g id="edge24_Node000019_Node000002" class="edge">
<title>Node19&#45;&gt;Node2</title>
<g id="a_edge24_Node000019_Node000002"><a xlink:title=" ">
<path fill="none" stroke="#63b8ff" d="M132.66,-330.91C106.35,-318.2 77.31,-298.67 95,-280 121.85,-251.66 691.99,-239.21 875.58,-235.93"/>
<polygon fill="#63b8ff" stroke="#63b8ff" points="130.96,-333.98 141.51,-334.97 133.88,-327.62 130.96,-333.98"/>
</a>
</g>
</g>
<!-- Node20 -->
<g id="Node000020" class="node">
<title>Node20</title>
<g id="a_Node000020"><a xlink:href="_dash_crystal_8cpp.html" target="_top" xlink:title=" ">
<polygon fill="white" stroke="#666666" points="230.12,-300 103.88,-300 103.88,-280 230.12,-280 230.12,-300"/>
<text text-anchor="middle" x="167" y="-286.5" font-family="Helvetica,sans-Serif" font-size="10.00">Celeste/DashCrystal.cpp</text>
</a>
</g>
</g>
<!-- Node19&#45;&gt;Node20 -->
<g id="edge25_Node000019_Node000020" class="edge">
<title>Node19&#45;&gt;Node20</title>
<g id="a_edge25_Node000019_Node000020"><a xlink:title=" ">
<path fill="none" stroke="#63b8ff" d="M167,-324.13C167,-315.9 167,-306.85 167,-300.3"/>
<polygon fill="#63b8ff" stroke="#63b8ff" points="163.5,-324.08 167,-334.08 170.5,-324.08 163.5,-324.08"/>
</a>
</g>
</g>
<!-- Node22&#45;&gt;Node2 -->
<g id="edge28_Node000022_Node000002" class="edge">
<title>Node22&#45;&gt;Node2</title>
<g id="a_edge28_Node000022_Node000002"><a xlink:title=" ">
<path fill="none" stroke="#63b8ff" d="M305.11,-329.71C284.17,-316.34 261.56,-296.54 277,-280 317.43,-236.7 724.08,-234.05 875.55,-234.58"/>
<polygon fill="#63b8ff" stroke="#63b8ff" points="303.1,-332.59 313.47,-334.76 306.72,-326.6 303.1,-332.59"/>
</a>
</g>
</g>
<!-- Node23 -->
<g id="Node000023" class="node">
<title>Node23</title>
<g id="a_Node000023"><a xlink:href="_level_8cpp.html" target="_top" xlink:title=" ">
<polygon fill="white" stroke="#666666" points="380.38,-300 285.62,-300 285.62,-280 380.38,-280 380.38,-300"/>
<text text-anchor="middle" x="333" y="-286.5" font-family="Helvetica,sans-Serif" font-size="10.00">Celeste/Level.cpp</text>
</a>
</g>
</g>
<!-- Node22&#45;&gt;Node23 -->
<g id="edge29_Node000022_Node000023" class="edge">
<title>Node22&#45;&gt;Node23</title>
<g id="a_edge29_Node000022_Node000023"><a xlink:title=" ">
<path fill="none" stroke="#63b8ff" d="M333,-324.13C333,-315.9 333,-306.85 333,-300.3"/>
<polygon fill="#63b8ff" stroke="#63b8ff" points="329.5,-324.08 333,-334.08 336.5,-324.08 329.5,-324.08"/>
</a>
</g>
</g>
<!-- Node24&#45;&gt;Node2 -->
<g id="edge31_Node000024_Node000002" class="edge">
<title>Node24&#45;&gt;Node2</title>
<g id="a_edge31_Node000024_Node000002"><a xlink:title=" ">
<path fill="none" stroke="#63b8ff" d="M461.7,-330.6C437.2,-317.75 410.34,-298.21 427,-280 456.82,-247.41 750.41,-238.26 875.75,-235.83"/>
<polygon fill="#63b8ff" stroke="#63b8ff" points="460.05,-333.69 470.57,-335 463.17,-327.42 460.05,-333.69"/>
</a>
</g>
</g>
<!-- Node25 -->
<g id="Node000025" class="node">
<title>Node25</title>
<g id="a_Node000025"><a xlink:href="_respawn_zone_8cpp.html" target="_top" xlink:title=" ">
<polygon fill="white" stroke="#666666" points="570.25,-300 435.75,-300 435.75,-280 570.25,-280 570.25,-300"/>
<text text-anchor="middle" x="503" y="-286.5" font-family="Helvetica,sans-Serif" font-size="10.00">Celeste/RespawnZone.cpp</text>
</a>
</g>
</g>
<!-- Node24&#45;&gt;Node25 -->
<g id="edge32_Node000024_Node000025" class="edge">
<title>Node24&#45;&gt;Node25</title>
<g id="a_edge32_Node000024_Node000025"><a xlink:title=" ">
<path fill="none" stroke="#63b8ff" d="M497.43,-324.43C498.82,-316.11 500.34,-306.93 501.45,-300.3"/>
<polygon fill="#63b8ff" stroke="#63b8ff" points="494.01,-323.66 495.82,-334.1 500.91,-324.81 494.01,-323.66"/>
</a>
</g>
</g>
<!-- Node26&#45;&gt;Node2 -->
<g id="edge34_Node000026_Node000002" class="edge">
<title>Node26&#45;&gt;Node2</title>
<g id="a_edge34_Node000026_Node000002"><a xlink:title=" ">
<path fill="none" stroke="#63b8ff" d="M856.89,-334.29C819.52,-324.3 779.74,-306.85 799,-280 816.48,-255.64 847.86,-244.3 875.76,-239.09"/>
<polygon fill="#63b8ff" stroke="#63b8ff" points="855.81,-337.62 866.36,-336.66 857.51,-330.83 855.81,-337.62"/>
</a>
</g>
</g>
<!-- Node27 -->
<g id="Node000027" class="node">
<title>Node27</title>
<g id="a_Node000027"><a xlink:href="_spike_8cpp.html" target="_top" xlink:title=" ">
<polygon fill="white" stroke="#666666" points="904.12,-300 807.88,-300 807.88,-280 904.12,-280 904.12,-300"/>
<text text-anchor="middle" x="856" y="-286.5" font-family="Helvetica,sans-Serif" font-size="10.00">Celeste/Spike.cpp</text>
</a>
</g>
</g>
<!-- Node26&#45;&gt;Node27 -->
<g id="edge35_Node000026_Node000027" class="edge">
<title>Node26&#45;&gt;Node27</title>
<g id="a_edge35_Node000026_Node000027"><a xlink:title=" ">
<path fill="none" stroke="#63b8ff" d="M893.24,-327.57C884.01,-318.5 873.09,-307.78 865.47,-300.3"/>
<polygon fill="#63b8ff" stroke="#63b8ff" points="890.75,-330.03 900.34,-334.53 895.66,-325.03 890.75,-330.03"/>
</a>
</g>
</g>
<!-- Node28&#45;&gt;Node2 -->
<g id="edge37_Node000028_Node000002" class="edge">
<title>Node28&#45;&gt;Node2</title>
<g id="a_edge37_Node000028_Node000002"><a xlink:title=" ">
<path fill="none" stroke="#63b8ff" d="M1366.89,-326.45C1355.84,-311.22 1338.06,-290.51 1317,-280 1260.62,-251.88 1080.74,-240.82 988.19,-236.91"/>
<polygon fill="#63b8ff" stroke="#63b8ff" points="1363.72,-328.02 1372.28,-334.26 1369.48,-324.04 1363.72,-328.02"/>
</a>
</g>
</g>
<!-- Node29 -->
<g id="Node000029" class="node">
<title>Node29</title>
<g id="a_Node000029"><a xlink:href="_flying_strawberry_8h.html" target="_top" xlink:title=" ">
<polygon fill="white" stroke="#666666" points="1633.88,-300 1500.12,-300 1500.12,-280 1633.88,-280 1633.88,-300"/>
<text text-anchor="middle" x="1567" y="-286.5" font-family="Helvetica,sans-Serif" font-size="10.00">Celeste/FlyingStrawberry.h</text>
</a>
</g>
</g>
<!-- Node28&#45;&gt;Node29 -->
<g id="edge38_Node000028_Node000029" class="edge">
<title>Node28&#45;&gt;Node29</title>
<g id="a_edge38_Node000028_Node000029"><a xlink:title=" ">
<path fill="none" stroke="#63b8ff" d="M1422.75,-332.43C1456.73,-322.67 1503.1,-309.35 1534,-300.48"/>
<polygon fill="#63b8ff" stroke="#63b8ff" points="1421.85,-329.05 1413.2,-335.18 1423.78,-335.78 1421.85,-329.05"/>
</a>
</g>
</g>
<!-- Node31 -->
<g id="Node000031" class="node">
<title>Node31</title>
<g id="a_Node000031"><a xlink:href="_strawberry_8cpp.html" target="_top" xlink:title=" ">
<polygon fill="white" stroke="#666666" points="1482,-300 1364,-300 1364,-280 1482,-280 1482,-300"/>
<text text-anchor="middle" x="1423" y="-286.5" font-family="Helvetica,sans-Serif" font-size="10.00">Celeste/Strawberry.cpp</text>
</a>
</g>
</g>
<!-- Node28&#45;&gt;Node31 -->
<g id="edge41_Node000028_Node000031" class="edge">
<title>Node28&#45;&gt;Node31</title>
<g id="a_edge41_Node000028_Node000031"><a xlink:title=" ">
<path fill="none" stroke="#63b8ff" d="M1393.89,-326.72C1401.13,-317.84 1409.52,-307.55 1415.42,-300.3"/>
<polygon fill="#63b8ff" stroke="#63b8ff" points="1391.22,-324.46 1387.62,-334.42 1396.65,-328.88 1391.22,-324.46"/>
</a>
</g>
</g>
<!-- Node29&#45;&gt;Node2 -->
<g id="edge39_Node000029_Node000002" class="edge">
<title>Node29&#45;&gt;Node2</title>
<g id="a_edge39_Node000029_Node000002"><a xlink:title=" ">
<path fill="none" stroke="#63b8ff" d="M1488.57,-279.79C1298.93,-261.13 1087.34,-245.72 988.4,-238.84"/>
<polygon fill="#63b8ff" stroke="#63b8ff" points="1488.08,-283.26 1498.37,-280.76 1488.77,-276.3 1488.08,-283.26"/>
</a>
</g>
</g>
<!-- Node30 -->
<g id="Node000030" class="node">
<title>Node30</title>
<g id="a_Node000030"><a xlink:href="_flying_strawberry_8cpp.html" target="_top" xlink:title=" ">
<polygon fill="white" stroke="#666666" points="1634.12,-244 1489.88,-244 1489.88,-224 1634.12,-224 1634.12,-244"/>
<text text-anchor="middle" x="1562" y="-230.5" font-family="Helvetica,sans-Serif" font-size="10.00">Celeste/FlyingStrawberry.cpp</text>
</a>
</g>
</g>
<!-- Node29&#45;&gt;Node30 -->
<g id="edge40_Node000029_Node000030" class="edge">
<title>Node29&#45;&gt;Node30</title>
<g id="a_edge40_Node000029_Node000030"><a xlink:title=" ">
<path fill="none" stroke="#63b8ff" d="M1565.07,-268.13C1564.31,-259.9 1563.47,-250.85 1562.86,-244.3"/>
<polygon fill="#63b8ff" stroke="#63b8ff" points="1561.58,-268.45 1565.99,-278.09 1568.55,-267.81 1561.58,-268.45"/>
</a>
</g>
</g>
<!-- Node32&#45;&gt;Node2 -->
<g id="edge43_Node000032_Node000002" class="edge">
<title>Node32&#45;&gt;Node2</title>
<g id="a_edge43_Node000032_Node000002"><a xlink:title=" ">
<path fill="none" stroke="#63b8ff" d="M1190.77,-327.01C1178.01,-312.13 1157.96,-291.61 1136,-280 1089.83,-255.59 1031.05,-244.4 988.46,-239.29"/>
<polygon fill="#63b8ff" stroke="#63b8ff" points="1188.02,-329.17 1197.09,-334.66 1193.42,-324.72 1188.02,-329.17"/>
</a>
</g>
</g>
<!-- Node33 -->
<g id="Node000033" class="node">
<title>Node33</title>
<g id="a_Node000033"><a xlink:href="_trampoline_8cpp.html" target="_top" xlink:title=" ">
<polygon fill="white" stroke="#666666" points="1307.75,-300 1188.25,-300 1188.25,-280 1307.75,-280 1307.75,-300"/>
<text text-anchor="middle" x="1248" y="-286.5" font-family="Helvetica,sans-Serif" font-size="10.00">Celeste/Trampoline.cpp</text>
</a>
</g>
</g>
<!-- Node32&#45;&gt;Node33 -->
<g id="edge44_Node000032_Node000033" class="edge">
<title>Node32&#45;&gt;Node33</title>
<g id="a_edge44_Node000032_Node000033"><a xlink:title=" ">
<path fill="none" stroke="#63b8ff" d="M1219.56,-326.72C1226.63,-317.84 1234.82,-307.55 1240.6,-300.3"/>
<polygon fill="#63b8ff" stroke="#63b8ff" points="1216.92,-324.41 1213.43,-334.41 1222.4,-328.77 1216.92,-324.41"/>
</a>
</g>
</g>
</g>
</svg>
