<?xml version="1.0" encoding="UTF-8" standalone="no"?>
<!DOCTYPE svg PUBLIC "-//W3C//DTD SVG 1.1//EN"
 "http://www.w3.org/Graphics/SVG/1.1/DTD/svg11.dtd">
<!-- Generated by graphviz version 12.2.1 (20241206.2353)
 -->
<!-- Title: Celeste/Spike.cpp Pages: 1 -->
<svg width="747pt" height="588pt"
 viewBox="0.00 0.00 746.88 588.00" xmlns="http://www.w3.org/2000/svg" xmlns:xlink="http://www.w3.org/1999/xlink">
<g id="graph0" class="graph" transform="scale(1 1) rotate(0) translate(4 584)">
<title>Celeste/Spike.cpp</title>
<!-- Node1 -->
<g id="Node000001" class="node">
<title>Node1</title>
<g id="a_Node000001"><a xlink:title=" ">
<polygon fill="#999999" stroke="#666666" points="96.25,-580 0,-580 0,-560 96.25,-560 96.25,-580"/>
<text text-anchor="middle" x="48.12" y="-566.5" font-family="Helvetica,sans-Serif" font-size="10.00">Celeste/Spike.cpp</text>
</a>
</g>
</g>
<!-- Node2 -->
<g id="Node000002" class="node">
<title>Node2</title>
<g id="a_Node000002"><a xlink:href="pch_8h.html" target="_top" xlink:title=" ">
<polygon fill="white" stroke="#666666" points="327.12,-132 287.12,-132 287.12,-112 327.12,-112 327.12,-132"/>
<text text-anchor="middle" x="307.12" y="-118.5" font-family="Helvetica,sans-Serif" font-size="10.00">pch.h</text>
</a>
</g>
</g>
<!-- Node1&#45;&gt;Node2 -->
<g id="edge1_Node000001_Node000002" class="edge">
<title>Node1&#45;&gt;Node2</title>
<g id="a_edge1_Node000001_Node000002"><a xlink:title=" ">
<path fill="none" stroke="#63b8ff" d="M44.4,-559.76C37.21,-541.06 22.12,-497.27 22.12,-459 22.12,-459 22.12,-459 22.12,-233 22.12,-179.13 201.57,-141.49 275.68,-128.24"/>
<polygon fill="#63b8ff" stroke="#63b8ff" points="275.89,-131.76 285.14,-126.59 274.68,-124.87 275.89,-131.76"/>
</a>
</g>
</g>
<!-- Node11 -->
<g id="Node000011" class="node">
<title>Node11</title>
<g id="a_Node000011"><a xlink:href="_spike_8h.html" target="_top" xlink:title=" ">
<polygon fill="white" stroke="#666666" points="209.62,-524 160.62,-524 160.62,-504 209.62,-504 209.62,-524"/>
<text text-anchor="middle" x="185.12" y="-510.5" font-family="Helvetica,sans-Serif" font-size="10.00">Spike.h</text>
</a>
</g>
</g>
<!-- Node1&#45;&gt;Node11 -->
<g id="edge11_Node000001_Node000011" class="edge">
<title>Node1&#45;&gt;Node11</title>
<g id="a_edge11_Node000001_Node000011"><a xlink:title=" ">
<path fill="none" stroke="#63b8ff" d="M71.99,-559.59C93.66,-551.05 125.89,-538.35 150.42,-528.68"/>
<polygon fill="#63b8ff" stroke="#63b8ff" points="151.65,-531.96 159.67,-525.03 149.08,-525.45 151.65,-531.96"/>
</a>
</g>
</g>
<!-- Node3 -->
<g id="Node000003" class="node">
<title>Node3</title>
<g id="a_Node000003"><a xlink:title=" ">
<polygon fill="#e0e0e0" stroke="#999999" points="170,-76 126.25,-76 126.25,-56 170,-56 170,-76"/>
<text text-anchor="middle" x="148.12" y="-62.5" font-family="Helvetica,sans-Serif" font-size="10.00">SDL.h</text>
</a>
</g>
</g>
<!-- Node2&#45;&gt;Node3 -->
<g id="edge2_Node000002_Node000003" class="edge">
<title>Node2&#45;&gt;Node3</title>
<g id="a_edge2_Node000002_Node000003"><a xlink:title=" ">
<path fill="none" stroke="#63b8ff" d="M286.66,-114.05C259.88,-104.95 212.61,-88.9 180.83,-78.11"/>
<polygon fill="#63b8ff" stroke="#63b8ff" points="182.32,-74.92 171.73,-75.02 180.07,-81.55 182.32,-74.92"/>
</a>
</g>
</g>
<!-- Node4 -->
<g id="Node000004" class="node">
<title>Node4</title>
<g id="a_Node000004"><a xlink:title=" ">
<polygon fill="#e0e0e0" stroke="#999999" points="265.88,-76 188.38,-76 188.38,-56 265.88,-56 265.88,-76"/>
<text text-anchor="middle" x="227.12" y="-62.5" font-family="Helvetica,sans-Serif" font-size="10.00">SDL_opengl.h</text>
</a>
</g>
</g>
<!-- Node2&#45;&gt;Node4 -->
<g id="edge3_Node000002_Node000004" class="edge">
<title>Node2&#45;&gt;Node4</title>
<g id="a_edge3_Node000002_Node000004"><a xlink:title=" ">
<path fill="none" stroke="#63b8ff" d="M293.19,-111.59C281.45,-103.67 264.39,-92.16 250.56,-82.82"/>
<polygon fill="#63b8ff" stroke="#63b8ff" points="252.67,-80.02 242.42,-77.33 248.75,-85.82 252.67,-80.02"/>
</a>
</g>
</g>
<!-- Node5 -->
<g id="Node000005" class="node">
<title>Node5</title>
<g id="a_Node000005"><a xlink:title=" ">
<polygon fill="#e0e0e0" stroke="#999999" points="414.12,-76 356.12,-76 356.12,-56 414.12,-56 414.12,-76"/>
<text text-anchor="middle" x="385.12" y="-62.5" font-family="Helvetica,sans-Serif" font-size="10.00">SDL_ttf.h</text>
</a>
</g>
</g>
<!-- Node2&#45;&gt;Node5 -->
<g id="edge4_Node000002_Node000005" class="edge">
<title>Node2&#45;&gt;Node5</title>
<g id="a_edge4_Node000002_Node000005"><a xlink:title=" ">
<path fill="none" stroke="#63b8ff" d="M320.71,-111.59C332.16,-103.67 348.79,-92.16 362.28,-82.82"/>
<polygon fill="#63b8ff" stroke="#63b8ff" points="363.96,-85.91 370.19,-77.34 359.97,-80.16 363.96,-85.91"/>
</a>
</g>
</g>
<!-- Node6 -->
<g id="Node000006" class="node">
<title>Node6</title>
<g id="a_Node000006"><a xlink:title=" ">
<polygon fill="#e0e0e0" stroke="#999999" points="505.62,-76 432.62,-76 432.62,-56 505.62,-56 505.62,-76"/>
<text text-anchor="middle" x="469.12" y="-62.5" font-family="Helvetica,sans-Serif" font-size="10.00">SDL_mixer.h</text>
</a>
</g>
</g>
<!-- Node2&#45;&gt;Node6 -->
<g id="edge5_Node000002_Node000006" class="edge">
<title>Node2&#45;&gt;Node6</title>
<g id="a_edge5_Node000002_Node000006"><a xlink:title=" ">
<path fill="none" stroke="#63b8ff" d="M327.31,-114.27C352.88,-105.75 397.5,-90.87 429.88,-80.08"/>
<polygon fill="#63b8ff" stroke="#63b8ff" points="430.95,-83.41 439.33,-76.93 428.74,-76.77 430.95,-83.41"/>
</a>
</g>
</g>
<!-- Node7 -->
<g id="Node000007" class="node">
<title>Node7</title>
<g id="a_Node000007"><a xlink:title=" ">
<polygon fill="#e0e0e0" stroke="#999999" points="598.75,-76 523.5,-76 523.5,-56 598.75,-56 598.75,-76"/>
<text text-anchor="middle" x="561.12" y="-62.5" font-family="Helvetica,sans-Serif" font-size="10.00">SDL_image.h</text>
</a>
</g>
</g>
<!-- Node2&#45;&gt;Node7 -->
<g id="edge6_Node000002_Node000007" class="edge">
<title>Node2&#45;&gt;Node7</title>
<g id="a_edge6_Node000002_Node000007"><a xlink:title=" ">
<path fill="none" stroke="#63b8ff" d="M327.33,-114.44C330.27,-113.57 333.26,-112.73 336.12,-112 344.66,-109.83 448.81,-89.17 512.38,-76.62"/>
<polygon fill="#63b8ff" stroke="#63b8ff" points="512.74,-80.11 521.88,-74.74 511.39,-73.24 512.74,-80.11"/>
</a>
</g>
</g>
<!-- Node8 -->
<g id="Node000008" class="node">
<title>Node8</title>
<g id="a_Node000008"><a xlink:href="structs_8h.html" target="_top" xlink:title=" ">
<polygon fill="white" stroke="#666666" points="338.25,-76 284,-76 284,-56 338.25,-56 338.25,-76"/>
<text text-anchor="middle" x="311.12" y="-62.5" font-family="Helvetica,sans-Serif" font-size="10.00">structs.h</text>
</a>
</g>
</g>
<!-- Node2&#45;&gt;Node8 -->
<g id="edge7_Node000002_Node000008" class="edge">
<title>Node2&#45;&gt;Node8</title>
<g id="a_edge7_Node000002_Node000008"><a xlink:title=" ">
<path fill="none" stroke="#63b8ff" d="M307.82,-111.59C308.31,-105.01 308.98,-95.96 309.59,-87.73"/>
<polygon fill="#63b8ff" stroke="#63b8ff" points="313.08,-88.04 310.32,-77.81 306.1,-87.52 313.08,-88.04"/>
</a>
</g>
</g>
<!-- Node9 -->
<g id="Node000009" class="node">
<title>Node9</title>
<g id="a_Node000009"><a xlink:title=" ">
<polygon fill="#e0e0e0" stroke="#999999" points="647.12,-20 607.12,-20 607.12,0 647.12,0 647.12,-20"/>
<text text-anchor="middle" x="627.12" y="-6.5" font-family="Helvetica,sans-Serif" font-size="10.00">string</text>
</a>
</g>
</g>
<!-- Node8&#45;&gt;Node9 -->
<g id="edge8_Node000008_Node000009" class="edge">
<title>Node8&#45;&gt;Node9</title>
<g id="a_edge8_Node000008_Node000009"><a xlink:title=" ">
<path fill="none" stroke="#63b8ff" d="M338.59,-57.88C341.46,-57.21 344.35,-56.57 347.12,-56 436.62,-37.66 543.47,-22.26 595.51,-15.18"/>
<polygon fill="#63b8ff" stroke="#63b8ff" points="595.7,-18.69 605.14,-13.88 594.76,-11.75 595.7,-18.69"/>
</a>
</g>
</g>
<!-- Node10 -->
<g id="Node000010" class="node">
<title>Node10</title>
<g id="a_Node000010"><a xlink:href="_vector2f_8h.html" target="_top" xlink:title=" ">
<polygon fill="white" stroke="#666666" points="235.25,-20 175,-20 175,0 235.25,0 235.25,-20"/>
<text text-anchor="middle" x="205.12" y="-6.5" font-family="Helvetica,sans-Serif" font-size="10.00">Vector2f.h</text>
</a>
</g>
</g>
<!-- Node8&#45;&gt;Node10 -->
<g id="edge9_Node000008_Node000010" class="edge">
<title>Node8&#45;&gt;Node10</title>
<g id="a_edge9_Node000008_Node000010"><a xlink:title=" ">
<path fill="none" stroke="#63b8ff" d="M287.39,-55.59C269.75,-47.44 246,-35.48 228.46,-26"/>
<polygon fill="#63b8ff" stroke="#63b8ff" points="230.22,-22.98 219.78,-21.21 226.84,-29.11 230.22,-22.98"/>
</a>
</g>
</g>
<!-- Node10&#45;&gt;Node8 -->
<g id="edge10_Node000010_Node000008" class="edge">
<title>Node10&#45;&gt;Node8</title>
<g id="a_edge10_Node000010_Node000008"><a xlink:title=" ">
<path fill="none" stroke="#63b8ff" d="M229.01,-20.48C246.7,-28.66 270.45,-40.62 287.95,-50.08"/>
<polygon fill="#63b8ff" stroke="#63b8ff" points="286.16,-53.09 296.6,-54.86 289.54,-46.96 286.16,-53.09"/>
</a>
</g>
</g>
<!-- Node12 -->
<g id="Node000012" class="node">
<title>Node12</title>
<g id="a_Node000012"><a xlink:href="_interactable_item_8h.html" target="_top" xlink:title=" ">
<polygon fill="white" stroke="#666666" points="351.5,-468 256.75,-468 256.75,-448 351.5,-448 351.5,-468"/>
<text text-anchor="middle" x="304.12" y="-454.5" font-family="Helvetica,sans-Serif" font-size="10.00">InteractableItem.h</text>
</a>
</g>
</g>
<!-- Node11&#45;&gt;Node12 -->
<g id="edge12_Node000011_Node000012" class="edge">
<title>Node11&#45;&gt;Node12</title>
<g id="a_edge12_Node000011_Node000012"><a xlink:title=" ">
<path fill="none" stroke="#63b8ff" d="M205.85,-503.59C224.34,-495.21 251.67,-482.8 272.82,-473.21"/>
<polygon fill="#63b8ff" stroke="#63b8ff" points="274.2,-476.42 281.86,-469.1 271.3,-470.05 274.2,-476.42"/>
</a>
</g>
</g>
<!-- Node13 -->
<g id="Node000013" class="node">
<title>Node13</title>
<g id="a_Node000013"><a xlink:href="_character_8h.html" target="_top" xlink:title=" ">
<polygon fill="white" stroke="#666666" points="394.62,-412 327.62,-412 327.62,-392 394.62,-392 394.62,-412"/>
<text text-anchor="middle" x="361.12" y="-398.5" font-family="Helvetica,sans-Serif" font-size="10.00">Character.h</text>
</a>
</g>
</g>
<!-- Node12&#45;&gt;Node13 -->
<g id="edge13_Node000012_Node000013" class="edge">
<title>Node12&#45;&gt;Node13</title>
<g id="a_edge13_Node000012_Node000013"><a xlink:title=" ">
<path fill="none" stroke="#63b8ff" d="M314.05,-447.59C322.06,-440.01 333.54,-429.13 343.16,-420.02"/>
<polygon fill="#63b8ff" stroke="#63b8ff" points="345.36,-422.76 350.21,-413.34 340.54,-417.68 345.36,-422.76"/>
</a>
</g>
</g>
<!-- Node14 -->
<g id="Node000014" class="node">
<title>Node14</title>
<g id="a_Node000014"><a xlink:href="_character_controller_8h.html" target="_top" xlink:title=" ">
<polygon fill="white" stroke="#666666" points="252.62,-356 143.62,-356 143.62,-336 252.62,-336 252.62,-356"/>
<text text-anchor="middle" x="198.12" y="-342.5" font-family="Helvetica,sans-Serif" font-size="10.00">CharacterController.h</text>
</a>
</g>
</g>
<!-- Node13&#45;&gt;Node14 -->
<g id="edge14_Node000013_Node000014" class="edge">
<title>Node13&#45;&gt;Node14</title>
<g id="a_edge14_Node000013_Node000014"><a xlink:title=" ">
<path fill="none" stroke="#63b8ff" d="M332.73,-391.59C306.37,-382.86 266.86,-369.77 237.46,-360.03"/>
<polygon fill="#63b8ff" stroke="#63b8ff" points="238.77,-356.78 228.18,-356.96 236.57,-363.42 238.77,-356.78"/>
</a>
</g>
</g>
<!-- Node21 -->
<g id="Node000021" class="node">
<title>Node21</title>
<g id="a_Node000021"><a xlink:href="_hair_8h.html" target="_top" xlink:title=" ">
<polygon fill="white" stroke="#666666" points="316.25,-244 274,-244 274,-224 316.25,-224 316.25,-244"/>
<text text-anchor="middle" x="295.12" y="-230.5" font-family="Helvetica,sans-Serif" font-size="10.00">Hair.h</text>
</a>
</g>
</g>
<!-- Node13&#45;&gt;Node21 -->
<g id="edge30_Node000013_Node000021" class="edge">
<title>Node13&#45;&gt;Node21</title>
<g id="a_edge30_Node000013_Node000021"><a xlink:title=" ">
<path fill="none" stroke="#63b8ff" d="M357.39,-391.6C346.95,-365.35 317.33,-290.84 303.03,-254.89"/>
<polygon fill="#63b8ff" stroke="#63b8ff" points="306.33,-253.7 299.38,-245.7 299.82,-256.29 306.33,-253.7"/>
</a>
</g>
</g>
<!-- Node23 -->
<g id="Node000023" class="node">
<title>Node23</title>
<g id="a_Node000023"><a xlink:href="_character_texture_manager_8h.html" target="_top" xlink:title=" ">
<polygon fill="white" stroke="#666666" points="491.5,-356 354.75,-356 354.75,-336 491.5,-336 491.5,-356"/>
<text text-anchor="middle" x="423.12" y="-342.5" font-family="Helvetica,sans-Serif" font-size="10.00">CharacterTextureManager.h</text>
</a>
</g>
</g>
<!-- Node13&#45;&gt;Node23 -->
<g id="edge35_Node000013_Node000023" class="edge">
<title>Node13&#45;&gt;Node23</title>
<g id="a_edge35_Node000013_Node000023"><a xlink:title=" ">
<path fill="none" stroke="#63b8ff" d="M371.92,-391.59C380.73,-383.93 393.38,-372.91 403.9,-363.75"/>
<polygon fill="#63b8ff" stroke="#63b8ff" points="406.07,-366.5 411.31,-357.29 401.47,-361.22 406.07,-366.5"/>
</a>
</g>
</g>
<!-- Node26 -->
<g id="Node000026" class="node">
<title>Node26</title>
<g id="a_Node000026"><a xlink:href="_character_state_8h.html" target="_top" xlink:title=" ">
<polygon fill="white" stroke="#666666" points="626.25,-300 536,-300 536,-280 626.25,-280 626.25,-300"/>
<text text-anchor="middle" x="581.12" y="-286.5" font-family="Helvetica,sans-Serif" font-size="10.00">CharacterState.h</text>
</a>
</g>
</g>
<!-- Node13&#45;&gt;Node26 -->
<g id="edge42_Node000013_Node000026" class="edge">
<title>Node13&#45;&gt;Node26</title>
<g id="a_edge42_Node000013_Node000026"><a xlink:title=" ">
<path fill="none" stroke="#63b8ff" d="M395.08,-393.68C424.11,-386.57 466.42,-374.18 500.12,-356 524.27,-342.98 548.32,-322.48 563.87,-307.98"/>
<polygon fill="#63b8ff" stroke="#63b8ff" points="566.06,-310.73 570.88,-301.29 561.23,-305.67 566.06,-310.73"/>
</a>
</g>
</g>
<!-- Node27 -->
<g id="Node000027" class="node">
<title>Node27</title>
<g id="a_Node000027"><a xlink:href="_character_sound_manager_8h.html" target="_top" xlink:title=" ">
<polygon fill="white" stroke="#666666" points="713.25,-356 581,-356 581,-336 713.25,-336 713.25,-356"/>
<text text-anchor="middle" x="647.12" y="-342.5" font-family="Helvetica,sans-Serif" font-size="10.00">CharacterSoundManager.h</text>
</a>
</g>
</g>
<!-- Node13&#45;&gt;Node27 -->
<g id="edge43_Node000013_Node000027" class="edge">
<title>Node13&#45;&gt;Node27</title>
<g id="a_edge43_Node000013_Node000027"><a xlink:title=" ">
<path fill="none" stroke="#63b8ff" d="M395.06,-394.59C441.94,-385.74 527.34,-369.62 585.63,-358.61"/>
<polygon fill="#63b8ff" stroke="#63b8ff" points="586.24,-362.06 595.42,-356.76 584.94,-355.18 586.24,-362.06"/>
</a>
</g>
</g>
<!-- Node15 -->
<g id="Node000015" class="node">
<title>Node15</title>
<g id="a_Node000015"><a xlink:href="_game_object_8h.html" target="_top" xlink:title=" ">
<polygon fill="white" stroke="#666666" points="217.62,-300 138.62,-300 138.62,-280 217.62,-280 217.62,-300"/>
<text text-anchor="middle" x="178.12" y="-286.5" font-family="Helvetica,sans-Serif" font-size="10.00">GameObject.h</text>
</a>
</g>
</g>
<!-- Node14&#45;&gt;Node15 -->
<g id="edge15_Node000014_Node000015" class="edge">
<title>Node14&#45;&gt;Node15</title>
<g id="a_edge15_Node000014_Node000015"><a xlink:title=" ">
<path fill="none" stroke="#63b8ff" d="M194.64,-335.59C192.12,-328.78 188.61,-319.32 185.48,-310.86"/>
<polygon fill="#63b8ff" stroke="#63b8ff" points="188.85,-309.88 182.09,-301.72 182.29,-312.31 188.85,-309.88"/>
</a>
</g>
</g>
<!-- Node18 -->
<g id="Node000018" class="node">
<title>Node18</title>
<g id="a_Node000018"><a xlink:href="_vector2x2f_8h.html" target="_top" xlink:title=" ">
<polygon fill="white" stroke="#666666" points="120.5,-300 49.75,-300 49.75,-280 120.5,-280 120.5,-300"/>
<text text-anchor="middle" x="85.12" y="-286.5" font-family="Helvetica,sans-Serif" font-size="10.00">Vector2x2f.h</text>
</a>
</g>
</g>
<!-- Node14&#45;&gt;Node18 -->
<g id="edge25_Node000014_Node000018" class="edge">
<title>Node14&#45;&gt;Node18</title>
<g id="a_edge25_Node000014_Node000018"><a xlink:title=" ">
<path fill="none" stroke="#63b8ff" d="M178.44,-335.59C160.97,-327.24 135.17,-314.92 115.13,-305.34"/>
<polygon fill="#63b8ff" stroke="#63b8ff" points="116.86,-302.29 106.33,-301.13 113.84,-308.6 116.86,-302.29"/>
</a>
</g>
</g>
<!-- Node20 -->
<g id="Node000020" class="node">
<title>Node20</title>
<g id="a_Node000020"><a xlink:title=" ">
<polygon fill="#e0e0e0" stroke="#999999" points="318.62,-188 275.62,-188 275.62,-168 318.62,-168 318.62,-188"/>
<text text-anchor="middle" x="297.12" y="-174.5" font-family="Helvetica,sans-Serif" font-size="10.00">vector</text>
</a>
</g>
</g>
<!-- Node14&#45;&gt;Node20 -->
<g id="edge29_Node000014_Node000020" class="edge">
<title>Node14&#45;&gt;Node20</title>
<g id="a_edge29_Node000014_Node000020"><a xlink:title=" ">
<path fill="none" stroke="#63b8ff" d="M204.66,-335.53C210.75,-326.55 219.95,-312.6 227.12,-300 245.83,-267.19 245.68,-256.37 265.12,-224 270.54,-214.99 277.19,-205.44 283.02,-197.46"/>
<polygon fill="#63b8ff" stroke="#63b8ff" points="285.73,-199.68 288.91,-189.58 280.12,-195.5 285.73,-199.68"/>
</a>
</g>
</g>
<!-- Node16 -->
<g id="Node000016" class="node">
<title>Node16</title>
<g id="a_Node000016"><a xlink:href="_transform_8h.html" target="_top" xlink:title=" ">
<polygon fill="white" stroke="#666666" points="236.38,-188 167.88,-188 167.88,-168 236.38,-168 236.38,-188"/>
<text text-anchor="middle" x="202.12" y="-174.5" font-family="Helvetica,sans-Serif" font-size="10.00">Transform.h</text>
</a>
</g>
</g>
<!-- Node15&#45;&gt;Node16 -->
<g id="edge16_Node000015_Node000016" class="edge">
<title>Node15&#45;&gt;Node16</title>
<g id="a_edge16_Node000015_Node000016"><a xlink:title=" ">
<path fill="none" stroke="#63b8ff" d="M180.17,-279.62C184.03,-261.92 192.47,-223.24 197.69,-199.32"/>
<polygon fill="#63b8ff" stroke="#63b8ff" points="201.05,-200.35 199.76,-189.83 194.21,-198.86 201.05,-200.35"/>
</a>
</g>
</g>
<!-- Node16&#45;&gt;Node10 -->
<g id="edge24_Node000016_Node000010" class="edge">
<title>Node16&#45;&gt;Node10</title>
<g id="a_edge24_Node000016_Node000010"><a xlink:title=" ">
<path fill="none" stroke="#63b8ff" d="M186.46,-167.56C155.29,-147.54 90.73,-99.14 117.12,-56 127.43,-39.15 146.26,-28.36 163.87,-21.58"/>
<polygon fill="#63b8ff" stroke="#63b8ff" points="164.85,-24.94 173.15,-18.35 162.56,-18.33 164.85,-24.94"/>
</a>
</g>
</g>
<!-- Node17 -->
<g id="Node000017" class="node">
<title>Node17</title>
<g id="a_Node000017"><a xlink:href="base_8h.html" target="_top" xlink:title=" ">
<polygon fill="white" stroke="#666666" points="390.75,-132 345.5,-132 345.5,-112 390.75,-112 390.75,-132"/>
<text text-anchor="middle" x="368.12" y="-118.5" font-family="Helvetica,sans-Serif" font-size="10.00">base.h</text>
</a>
</g>
</g>
<!-- Node16&#45;&gt;Node17 -->
<g id="edge17_Node000016_Node000017" class="edge">
<title>Node16&#45;&gt;Node17</title>
<g id="a_edge17_Node000016_Node000017"><a xlink:title=" ">
<path fill="none" stroke="#63b8ff" d="M231.04,-167.59C259.79,-158.24 303.86,-143.9 334.24,-134.02"/>
<polygon fill="#63b8ff" stroke="#63b8ff" points="335.28,-137.36 343.71,-130.94 333.12,-130.71 335.28,-137.36"/>
</a>
</g>
</g>
<!-- Node17&#45;&gt;Node3 -->
<g id="edge18_Node000017_Node000003" class="edge">
<title>Node17&#45;&gt;Node3</title>
<g id="a_edge18_Node000017_Node000003"><a xlink:title=" ">
<path fill="none" stroke="#63b8ff" d="M345.09,-114.38C342.08,-113.55 339.03,-112.74 336.12,-112 270.15,-95.17 250.33,-94.06 181.44,-76.48"/>
<polygon fill="#63b8ff" stroke="#63b8ff" points="182.46,-73.13 171.9,-74.02 180.71,-79.91 182.46,-73.13"/>
</a>
</g>
</g>
<!-- Node17&#45;&gt;Node4 -->
<g id="edge19_Node000017_Node000004" class="edge">
<title>Node17&#45;&gt;Node4</title>
<g id="a_edge19_Node000017_Node000004"><a xlink:title=" ">
<path fill="none" stroke="#63b8ff" d="M345.16,-112.2C322.62,-103.57 287.97,-90.3 262.03,-80.37"/>
<polygon fill="#63b8ff" stroke="#63b8ff" points="263.51,-77.19 252.92,-76.88 261,-83.72 263.51,-77.19"/>
</a>
</g>
</g>
<!-- Node17&#45;&gt;Node5 -->
<g id="edge20_Node000017_Node000005" class="edge">
<title>Node17&#45;&gt;Node5</title>
<g id="a_edge20_Node000017_Node000005"><a xlink:title=" ">
<path fill="none" stroke="#63b8ff" d="M371.09,-111.59C373.21,-104.86 376.14,-95.53 378.78,-87.15"/>
<polygon fill="#63b8ff" stroke="#63b8ff" points="382.08,-88.33 381.74,-77.74 375.4,-86.23 382.08,-88.33"/>
</a>
</g>
</g>
<!-- Node17&#45;&gt;Node6 -->
<g id="edge21_Node000017_Node000006" class="edge">
<title>Node17&#45;&gt;Node6</title>
<g id="a_edge21_Node000017_Node000006"><a xlink:title=" ">
<path fill="none" stroke="#63b8ff" d="M385.72,-111.59C401.05,-103.4 423.54,-91.37 441.31,-81.87"/>
<polygon fill="#63b8ff" stroke="#63b8ff" points="442.89,-84.99 450.06,-77.19 439.59,-78.82 442.89,-84.99"/>
</a>
</g>
</g>
<!-- Node17&#45;&gt;Node7 -->
<g id="edge22_Node000017_Node000007" class="edge">
<title>Node17&#45;&gt;Node7</title>
<g id="a_edge22_Node000017_Node000007"><a xlink:title=" ">
<path fill="none" stroke="#63b8ff" d="M391.02,-114.59C421.81,-105.98 477.19,-90.48 516.39,-79.52"/>
<polygon fill="#63b8ff" stroke="#63b8ff" points="517.09,-82.96 525.78,-76.89 515.2,-76.21 517.09,-82.96"/>
</a>
</g>
</g>
<!-- Node17&#45;&gt;Node8 -->
<g id="edge23_Node000017_Node000008" class="edge">
<title>Node17&#45;&gt;Node8</title>
<g id="a_edge23_Node000017_Node000008"><a xlink:title=" ">
<path fill="none" stroke="#63b8ff" d="M358.2,-111.59C350.19,-104.01 338.71,-93.13 329.09,-84.02"/>
<polygon fill="#63b8ff" stroke="#63b8ff" points="331.71,-81.68 322.04,-77.34 326.89,-86.76 331.71,-81.68"/>
</a>
</g>
</g>
<!-- Node19 -->
<g id="Node000019" class="node">
<title>Node19</title>
<g id="a_Node000019"><a xlink:href="utils_8h.html" target="_top" xlink:title=" ">
<polygon fill="white" stroke="#666666" points="106.25,-244 64,-244 64,-224 106.25,-224 106.25,-244"/>
<text text-anchor="middle" x="85.12" y="-230.5" font-family="Helvetica,sans-Serif" font-size="10.00">utils.h</text>
</a>
</g>
</g>
<!-- Node18&#45;&gt;Node19 -->
<g id="edge26_Node000018_Node000019" class="edge">
<title>Node18&#45;&gt;Node19</title>
<g id="a_edge26_Node000018_Node000019"><a xlink:title=" ">
<path fill="none" stroke="#63b8ff" d="M85.12,-279.59C85.12,-273.01 85.12,-263.96 85.12,-255.73"/>
<polygon fill="#63b8ff" stroke="#63b8ff" points="88.63,-255.81 85.13,-245.81 81.63,-255.81 88.63,-255.81"/>
</a>
</g>
</g>
<!-- Node19&#45;&gt;Node10 -->
<g id="edge28_Node000019_Node000010" class="edge">
<title>Node19&#45;&gt;Node10</title>
<g id="a_edge28_Node000019_Node000010"><a xlink:title=" ">
<path fill="none" stroke="#63b8ff" d="M83.41,-223.81C78.71,-195.59 68.34,-108.97 107.12,-56 120.66,-37.52 143.64,-26.42 163.94,-19.88"/>
<polygon fill="#63b8ff" stroke="#63b8ff" points="164.8,-23.27 173.42,-17.11 162.84,-16.55 164.8,-23.27"/>
</a>
</g>
</g>
<!-- Node19&#45;&gt;Node20 -->
<g id="edge27_Node000019_Node000020" class="edge">
<title>Node19&#45;&gt;Node20</title>
<g id="a_edge27_Node000019_Node000020"><a xlink:title=" ">
<path fill="none" stroke="#63b8ff" d="M106.62,-227.53C143.82,-218.05 220.44,-198.53 264.33,-187.35"/>
<polygon fill="#63b8ff" stroke="#63b8ff" points="264.96,-190.8 273.79,-184.94 263.24,-184.02 264.96,-190.8"/>
</a>
</g>
</g>
<!-- Node21&#45;&gt;Node16 -->
<g id="edge31_Node000021_Node000016" class="edge">
<title>Node21&#45;&gt;Node16</title>
<g id="a_edge31_Node000021_Node000016"><a xlink:title=" ">
<path fill="none" stroke="#63b8ff" d="M278.93,-223.59C264.88,-215.44 244.29,-203.48 227.97,-194"/>
<polygon fill="#63b8ff" stroke="#63b8ff" points="230.17,-191.23 219.76,-189.24 226.65,-197.29 230.17,-191.23"/>
</a>
</g>
</g>
<!-- Node21&#45;&gt;Node20 -->
<g id="edge32_Node000021_Node000020" class="edge">
<title>Node21&#45;&gt;Node20</title>
<g id="a_edge32_Node000021_Node000020"><a xlink:title=" ">
<path fill="none" stroke="#63b8ff" d="M295.47,-223.59C295.72,-217.01 296.05,-207.96 296.36,-199.73"/>
<polygon fill="#63b8ff" stroke="#63b8ff" points="299.85,-199.93 296.72,-189.81 292.86,-199.67 299.85,-199.93"/>
</a>
</g>
</g>
<!-- Node22 -->
<g id="Node000022" class="node">
<title>Node22</title>
<g id="a_Node000022"><a xlink:href="_texture_8h.html" target="_top" xlink:title=" ">
<polygon fill="white" stroke="#666666" points="396.38,-188 339.88,-188 339.88,-168 396.38,-168 396.38,-188"/>
<text text-anchor="middle" x="368.12" y="-174.5" font-family="Helvetica,sans-Serif" font-size="10.00">Texture.h</text>
</a>
</g>
</g>
<!-- Node21&#45;&gt;Node22 -->
<g id="edge33_Node000021_Node000022" class="edge">
<title>Node21&#45;&gt;Node22</title>
<g id="a_edge33_Node000021_Node000022"><a xlink:title=" ">
<path fill="none" stroke="#63b8ff" d="M307.84,-223.59C318.52,-215.7 334,-204.24 346.61,-194.92"/>
<polygon fill="#63b8ff" stroke="#63b8ff" points="348.38,-197.96 354.34,-189.2 344.22,-192.33 348.38,-197.96"/>
</a>
</g>
</g>
<!-- Node22&#45;&gt;Node17 -->
<g id="edge34_Node000022_Node000017" class="edge">
<title>Node22&#45;&gt;Node17</title>
<g id="a_edge34_Node000022_Node000017"><a xlink:title=" ">
<path fill="none" stroke="#63b8ff" d="M368.12,-167.59C368.12,-161.01 368.12,-151.96 368.12,-143.73"/>
<polygon fill="#63b8ff" stroke="#63b8ff" points="371.63,-143.81 368.13,-133.81 364.63,-143.81 371.63,-143.81"/>
</a>
</g>
</g>
<!-- Node23&#45;&gt;Node20 -->
<g id="edge41_Node000023_Node000020" class="edge">
<title>Node23&#45;&gt;Node20</title>
<g id="a_edge41_Node000023_Node000020"><a xlink:title=" ">
<path fill="none" stroke="#63b8ff" d="M407.01,-335.54C394.17,-327.38 376.36,-314.62 364.12,-300 339.76,-270.88 343.84,-257.03 325.12,-224 320.14,-215.2 314.28,-205.67 309.21,-197.65"/>
<polygon fill="#63b8ff" stroke="#63b8ff" points="312.3,-195.98 303.96,-189.45 306.4,-199.76 312.3,-195.98"/>
</a>
</g>
</g>
<!-- Node24 -->
<g id="Node000024" class="node">
<title>Node24</title>
<g id="a_Node000024"><a xlink:href="_animation_manager_a_n_d_hair_8h.html" target="_top" xlink:title=" ">
<polygon fill="white" stroke="#666666" points="517.62,-300 372.62,-300 372.62,-280 517.62,-280 517.62,-300"/>
<text text-anchor="middle" x="445.12" y="-286.5" font-family="Helvetica,sans-Serif" font-size="10.00">AnimationManagerANDHair.h</text>
</a>
</g>
</g>
<!-- Node23&#45;&gt;Node24 -->
<g id="edge36_Node000023_Node000024" class="edge">
<title>Node23&#45;&gt;Node24</title>
<g id="a_edge36_Node000023_Node000024"><a xlink:title=" ">
<path fill="none" stroke="#63b8ff" d="M426.96,-335.59C429.73,-328.78 433.59,-319.32 437.03,-310.86"/>
<polygon fill="#63b8ff" stroke="#63b8ff" points="440.23,-312.28 440.77,-301.7 433.75,-309.64 440.23,-312.28"/>
</a>
</g>
</g>
<!-- Node23&#45;&gt;Node26 -->
<g id="edge40_Node000023_Node000026" class="edge">
<title>Node23&#45;&gt;Node26</title>
<g id="a_edge40_Node000023_Node000026"><a xlink:title=" ">
<path fill="none" stroke="#63b8ff" d="M450.65,-335.59C476.09,-326.9 514.16,-313.89 542.62,-304.16"/>
<polygon fill="#63b8ff" stroke="#63b8ff" points="543.63,-307.52 551.96,-300.97 541.36,-300.89 543.63,-307.52"/>
</a>
</g>
</g>
<!-- Node24&#45;&gt;Node20 -->
<g id="edge39_Node000024_Node000020" class="edge">
<title>Node24&#45;&gt;Node20</title>
<g id="a_edge39_Node000024_Node000020"><a xlink:title=" ">
<path fill="none" stroke="#63b8ff" d="M432.46,-279.5C415.54,-266.82 384.62,-243.67 358.12,-224 345.08,-214.32 330.43,-203.51 318.76,-194.91"/>
<polygon fill="#63b8ff" stroke="#63b8ff" points="321.11,-192.29 310.98,-189.18 316.96,-197.93 321.11,-192.29"/>
</a>
</g>
</g>
<!-- Node25 -->
<g id="Node000025" class="node">
<title>Node25</title>
<g id="a_Node000025"><a xlink:href="_animation_manager_8h.html" target="_top" xlink:title=" ">
<polygon fill="white" stroke="#666666" points="515.75,-244 410.5,-244 410.5,-224 515.75,-224 515.75,-244"/>
<text text-anchor="middle" x="463.12" y="-230.5" font-family="Helvetica,sans-Serif" font-size="10.00">AnimationManager.h</text>
</a>
</g>
</g>
<!-- Node24&#45;&gt;Node25 -->
<g id="edge37_Node000024_Node000025" class="edge">
<title>Node24&#45;&gt;Node25</title>
<g id="a_edge37_Node000024_Node000025"><a xlink:title=" ">
<path fill="none" stroke="#63b8ff" d="M448.26,-279.59C450.51,-272.86 453.61,-263.53 456.41,-255.15"/>
<polygon fill="#63b8ff" stroke="#63b8ff" points="459.7,-256.33 459.55,-245.73 453.06,-254.11 459.7,-256.33"/>
</a>
</g>
</g>
<!-- Node25&#45;&gt;Node22 -->
<g id="edge38_Node000025_Node000022" class="edge">
<title>Node25&#45;&gt;Node22</title>
<g id="a_edge38_Node000025_Node000022"><a xlink:title=" ">
<path fill="none" stroke="#63b8ff" d="M446.58,-223.59C432.23,-215.44 411.2,-203.48 394.52,-194"/>
<polygon fill="#63b8ff" stroke="#63b8ff" points="396.54,-191.13 386.12,-189.23 393.08,-197.21 396.54,-191.13"/>
</a>
</g>
</g>
<!-- Node27&#45;&gt;Node26 -->
<g id="edge44_Node000027_Node000026" class="edge">
<title>Node27&#45;&gt;Node26</title>
<g id="a_edge44_Node000027_Node000026"><a xlink:title=" ">
<path fill="none" stroke="#63b8ff" d="M635.63,-335.59C626.16,-327.85 612.52,-316.69 601.25,-307.47"/>
<polygon fill="#63b8ff" stroke="#63b8ff" points="603.62,-304.88 593.66,-301.26 599.18,-310.3 603.62,-304.88"/>
</a>
</g>
</g>
<!-- Node28 -->
<g id="Node000028" class="node">
<title>Node28</title>
<g id="a_Node000028"><a xlink:href="_sound_effect_8h.html" target="_top" xlink:title=" ">
<polygon fill="white" stroke="#666666" points="665.88,-244 588.38,-244 588.38,-224 665.88,-224 665.88,-244"/>
<text text-anchor="middle" x="627.12" y="-230.5" font-family="Helvetica,sans-Serif" font-size="10.00">SoundEffect.h</text>
</a>
</g>
</g>
<!-- Node27&#45;&gt;Node28 -->
<g id="edge45_Node000027_Node000028" class="edge">
<title>Node27&#45;&gt;Node28</title>
<g id="a_edge45_Node000027_Node000028"><a xlink:title=" ">
<path fill="none" stroke="#63b8ff" d="M645.42,-335.62C642.22,-318.01 635.23,-279.59 630.88,-255.65"/>
<polygon fill="#63b8ff" stroke="#63b8ff" points="634.33,-255.06 629.1,-245.84 627.44,-256.31 634.33,-255.06"/>
</a>
</g>
</g>
<!-- Node29 -->
<g id="Node000029" class="node">
<title>Node29</title>
<g id="a_Node000029"><a xlink:href="_sound_stream_8h.html" target="_top" xlink:title=" ">
<polygon fill="white" stroke="#666666" points="738.88,-132 655.38,-132 655.38,-112 738.88,-112 738.88,-132"/>
<text text-anchor="middle" x="697.12" y="-118.5" font-family="Helvetica,sans-Serif" font-size="10.00">SoundStream.h</text>
</a>
</g>
</g>
<!-- Node27&#45;&gt;Node29 -->
<g id="edge48_Node000027_Node000029" class="edge">
<title>Node27&#45;&gt;Node29</title>
<g id="a_edge48_Node000027_Node000029"><a xlink:title=" ">
<path fill="none" stroke="#63b8ff" d="M650.04,-335.6C655.48,-317.84 667.33,-278.05 675.12,-244 683.13,-209.07 690.09,-167.93 693.94,-143.74"/>
<polygon fill="#63b8ff" stroke="#63b8ff" points="697.38,-144.39 695.47,-133.97 690.47,-143.31 697.38,-144.39"/>
</a>
</g>
</g>
<!-- Node28&#45;&gt;Node9 -->
<g id="edge46_Node000028_Node000009" class="edge">
<title>Node28&#45;&gt;Node9</title>
<g id="a_edge46_Node000028_Node000009"><a xlink:title=" ">
<path fill="none" stroke="#63b8ff" d="M627.12,-223.74C627.12,-190.74 627.12,-78.31 627.12,-31.61"/>
<polygon fill="#63b8ff" stroke="#63b8ff" points="630.63,-31.81 627.13,-21.81 623.63,-31.81 630.63,-31.81"/>
</a>
</g>
</g>
<!-- Node28&#45;&gt;Node20 -->
<g id="edge47_Node000028_Node000020" class="edge">
<title>Node28&#45;&gt;Node20</title>
<g id="a_edge47_Node000028_Node000020"><a xlink:title=" ">
<path fill="none" stroke="#63b8ff" d="M588.1,-228.43C531.25,-221.47 422.48,-206.98 331.12,-188 330.76,-187.92 330.38,-187.84 330.01,-187.76"/>
<polygon fill="#63b8ff" stroke="#63b8ff" points="331,-184.4 320.46,-185.51 329.39,-191.21 331,-184.4"/>
</a>
</g>
</g>
<!-- Node29&#45;&gt;Node9 -->
<g id="edge49_Node000029_Node000009" class="edge">
<title>Node29&#45;&gt;Node9</title>
<g id="a_edge49_Node000029_Node000009"><a xlink:title=" ">
<path fill="none" stroke="#63b8ff" d="M691.16,-111.62C679.69,-93.6 654.37,-53.81 639.23,-30.02"/>
<polygon fill="#63b8ff" stroke="#63b8ff" points="642.21,-28.19 633.89,-21.63 636.31,-31.95 642.21,-28.19"/>
</a>
</g>
</g>
</g>
</svg>
