<?xml version="1.0" encoding="UTF-8" standalone="no"?>
<!DOCTYPE svg PUBLIC "-//W3C//DTD SVG 1.1//EN"
 "http://www.w3.org/Graphics/SVG/1.1/DTD/svg11.dtd">
<!-- Generated by graphviz version 12.2.1 (20241206.2353)
 -->
<!-- Title: Celeste/Spike.h Pages: 1 -->
<svg width="723pt" height="532pt"
 viewBox="0.00 0.00 723.12 532.00" xmlns="http://www.w3.org/2000/svg" xmlns:xlink="http://www.w3.org/1999/xlink">
<g id="graph0" class="graph" transform="scale(1 1) rotate(0) translate(4 528)">
<title>Celeste/Spike.h</title>
<!-- Node1 -->
<g id="Node000001" class="node">
<title>Node1</title>
<g id="a_Node000001"><a xlink:title=" ">
<polygon fill="#999999" stroke="#666666" points="438.25,-524 352.5,-524 352.5,-504 438.25,-504 438.25,-524"/>
<text text-anchor="middle" x="395.38" y="-510.5" font-family="Helvetica,sans-Serif" font-size="10.00">Celeste/Spike.h</text>
</a>
</g>
</g>
<!-- Node2 -->
<g id="Node000002" class="node">
<title>Node2</title>
<g id="a_Node000002"><a xlink:href="_interactable_item_8h.html" target="_top" xlink:title=" ">
<polygon fill="white" stroke="#666666" points="442.75,-468 348,-468 348,-448 442.75,-448 442.75,-468"/>
<text text-anchor="middle" x="395.38" y="-454.5" font-family="Helvetica,sans-Serif" font-size="10.00">InteractableItem.h</text>
</a>
</g>
</g>
<!-- Node1&#45;&gt;Node2 -->
<g id="edge1_Node000001_Node000002" class="edge">
<title>Node1&#45;&gt;Node2</title>
<g id="a_edge1_Node000001_Node000002"><a xlink:title=" ">
<path fill="none" stroke="#63b8ff" d="M395.38,-503.59C395.38,-497.01 395.38,-487.96 395.38,-479.73"/>
<polygon fill="#63b8ff" stroke="#63b8ff" points="398.88,-479.81 395.38,-469.81 391.88,-479.81 398.88,-479.81"/>
</a>
</g>
</g>
<!-- Node3 -->
<g id="Node000003" class="node">
<title>Node3</title>
<g id="a_Node000003"><a xlink:href="_character_8h.html" target="_top" xlink:title=" ">
<polygon fill="white" stroke="#666666" points="428.88,-412 361.88,-412 361.88,-392 428.88,-392 428.88,-412"/>
<text text-anchor="middle" x="395.38" y="-398.5" font-family="Helvetica,sans-Serif" font-size="10.00">Character.h</text>
</a>
</g>
</g>
<!-- Node2&#45;&gt;Node3 -->
<g id="edge2_Node000002_Node000003" class="edge">
<title>Node2&#45;&gt;Node3</title>
<g id="a_edge2_Node000002_Node000003"><a xlink:title=" ">
<path fill="none" stroke="#63b8ff" d="M395.38,-447.59C395.38,-441.01 395.38,-431.96 395.38,-423.73"/>
<polygon fill="#63b8ff" stroke="#63b8ff" points="398.88,-423.81 395.38,-413.81 391.88,-423.81 398.88,-423.81"/>
</a>
</g>
</g>
<!-- Node4 -->
<g id="Node000004" class="node">
<title>Node4</title>
<g id="a_Node000004"><a xlink:href="_character_controller_8h.html" target="_top" xlink:title=" ">
<polygon fill="white" stroke="#666666" points="200.88,-356 91.88,-356 91.88,-336 200.88,-336 200.88,-356"/>
<text text-anchor="middle" x="146.38" y="-342.5" font-family="Helvetica,sans-Serif" font-size="10.00">CharacterController.h</text>
</a>
</g>
</g>
<!-- Node3&#45;&gt;Node4 -->
<g id="edge3_Node000003_Node000004" class="edge">
<title>Node3&#45;&gt;Node4</title>
<g id="a_edge3_Node000003_Node000004"><a xlink:title=" ">
<path fill="none" stroke="#63b8ff" d="M361.53,-393.66C320.21,-384.7 249.77,-369.42 200.8,-358.8"/>
<polygon fill="#63b8ff" stroke="#63b8ff" points="201.76,-355.43 191.25,-356.73 200.28,-362.27 201.76,-355.43"/>
</a>
</g>
</g>
<!-- Node19 -->
<g id="Node000019" class="node">
<title>Node19</title>
<g id="a_Node000019"><a xlink:href="_hair_8h.html" target="_top" xlink:title=" ">
<polygon fill="white" stroke="#666666" points="266.5,-244 224.25,-244 224.25,-224 266.5,-224 266.5,-244"/>
<text text-anchor="middle" x="245.38" y="-230.5" font-family="Helvetica,sans-Serif" font-size="10.00">Hair.h</text>
</a>
</g>
</g>
<!-- Node3&#45;&gt;Node19 -->
<g id="edge22_Node000003_Node000019" class="edge">
<title>Node3&#45;&gt;Node19</title>
<g id="a_edge22_Node000003_Node000019"><a xlink:title=" ">
<path fill="none" stroke="#63b8ff" d="M373.75,-391.6C357.3,-383.73 334.78,-371.33 318.38,-356 286.98,-326.65 264.37,-280.81 253.22,-254.79"/>
<polygon fill="#63b8ff" stroke="#63b8ff" points="256.55,-253.67 249.49,-245.76 250.07,-256.34 256.55,-253.67"/>
</a>
</g>
</g>
<!-- Node21 -->
<g id="Node000021" class="node">
<title>Node21</title>
<g id="a_Node000021"><a xlink:href="_character_texture_manager_8h.html" target="_top" xlink:title=" ">
<polygon fill="white" stroke="#666666" points="463.75,-356 327,-356 327,-336 463.75,-336 463.75,-356"/>
<text text-anchor="middle" x="395.38" y="-342.5" font-family="Helvetica,sans-Serif" font-size="10.00">CharacterTextureManager.h</text>
</a>
</g>
</g>
<!-- Node3&#45;&gt;Node21 -->
<g id="edge27_Node000003_Node000021" class="edge">
<title>Node3&#45;&gt;Node21</title>
<g id="a_edge27_Node000003_Node000021"><a xlink:title=" ">
<path fill="none" stroke="#63b8ff" d="M395.38,-391.59C395.38,-385.01 395.38,-375.96 395.38,-367.73"/>
<polygon fill="#63b8ff" stroke="#63b8ff" points="398.88,-367.81 395.38,-357.81 391.88,-367.81 398.88,-367.81"/>
</a>
</g>
</g>
<!-- Node24 -->
<g id="Node000024" class="node">
<title>Node24</title>
<g id="a_Node000024"><a xlink:href="_character_state_8h.html" target="_top" xlink:title=" ">
<polygon fill="white" stroke="#666666" points="576.5,-300 486.25,-300 486.25,-280 576.5,-280 576.5,-300"/>
<text text-anchor="middle" x="531.38" y="-286.5" font-family="Helvetica,sans-Serif" font-size="10.00">CharacterState.h</text>
</a>
</g>
</g>
<!-- Node3&#45;&gt;Node24 -->
<g id="edge34_Node000003_Node000024" class="edge">
<title>Node3&#45;&gt;Node24</title>
<g id="a_edge34_Node000003_Node000024"><a xlink:title=" ">
<path fill="none" stroke="#63b8ff" d="M415.09,-391.6C431.31,-383.39 454.46,-370.53 472.38,-356 489.69,-341.96 506.48,-322.75 517.69,-308.86"/>
<polygon fill="#63b8ff" stroke="#63b8ff" points="520.12,-311.43 523.56,-301.41 514.62,-307.09 520.12,-311.43"/>
</a>
</g>
</g>
<!-- Node25 -->
<g id="Node000025" class="node">
<title>Node25</title>
<g id="a_Node000025"><a xlink:href="_character_sound_manager_8h.html" target="_top" xlink:title=" ">
<polygon fill="white" stroke="#666666" points="665.5,-356 533.25,-356 533.25,-336 665.5,-336 665.5,-356"/>
<text text-anchor="middle" x="599.38" y="-342.5" font-family="Helvetica,sans-Serif" font-size="10.00">CharacterSoundManager.h</text>
</a>
</g>
</g>
<!-- Node3&#45;&gt;Node25 -->
<g id="edge35_Node000003_Node000025" class="edge">
<title>Node3&#45;&gt;Node25</title>
<g id="a_edge35_Node000003_Node000025"><a xlink:title=" ">
<path fill="none" stroke="#63b8ff" d="M429.06,-392.08C462.85,-383.14 515.13,-369.3 552.86,-359.31"/>
<polygon fill="#63b8ff" stroke="#63b8ff" points="553.34,-362.81 562.12,-356.86 551.55,-356.04 553.34,-362.81"/>
</a>
</g>
</g>
<!-- Node5 -->
<g id="Node000005" class="node">
<title>Node5</title>
<g id="a_Node000005"><a xlink:href="_game_object_8h.html" target="_top" xlink:title=" ">
<polygon fill="white" stroke="#666666" points="167.88,-300 88.88,-300 88.88,-280 167.88,-280 167.88,-300"/>
<text text-anchor="middle" x="128.38" y="-286.5" font-family="Helvetica,sans-Serif" font-size="10.00">GameObject.h</text>
</a>
</g>
</g>
<!-- Node4&#45;&gt;Node5 -->
<g id="edge4_Node000004_Node000005" class="edge">
<title>Node4&#45;&gt;Node5</title>
<g id="a_edge4_Node000004_Node000005"><a xlink:title=" ">
<path fill="none" stroke="#63b8ff" d="M143.24,-335.59C140.99,-328.86 137.89,-319.53 135.09,-311.15"/>
<polygon fill="#63b8ff" stroke="#63b8ff" points="138.44,-310.11 131.95,-301.73 131.8,-312.33 138.44,-310.11"/>
</a>
</g>
</g>
<!-- Node16 -->
<g id="Node000016" class="node">
<title>Node16</title>
<g id="a_Node000016"><a xlink:href="_vector2x2f_8h.html" target="_top" xlink:title=" ">
<polygon fill="white" stroke="#666666" points="70.75,-300 0,-300 0,-280 70.75,-280 70.75,-300"/>
<text text-anchor="middle" x="35.38" y="-286.5" font-family="Helvetica,sans-Serif" font-size="10.00">Vector2x2f.h</text>
</a>
</g>
</g>
<!-- Node4&#45;&gt;Node16 -->
<g id="edge17_Node000004_Node000016" class="edge">
<title>Node4&#45;&gt;Node16</title>
<g id="a_edge17_Node000004_Node000016"><a xlink:title=" ">
<path fill="none" stroke="#63b8ff" d="M127.04,-335.59C109.96,-327.28 84.77,-315.03 65.12,-305.47"/>
<polygon fill="#63b8ff" stroke="#63b8ff" points="66.75,-302.37 56.22,-301.14 63.68,-308.66 66.75,-302.37"/>
</a>
</g>
</g>
<!-- Node18 -->
<g id="Node000018" class="node">
<title>Node18</title>
<g id="a_Node000018"><a xlink:title=" ">
<polygon fill="#e0e0e0" stroke="#999999" points="266.88,-188 223.88,-188 223.88,-168 266.88,-168 266.88,-188"/>
<text text-anchor="middle" x="245.38" y="-174.5" font-family="Helvetica,sans-Serif" font-size="10.00">vector</text>
</a>
</g>
</g>
<!-- Node4&#45;&gt;Node18 -->
<g id="edge21_Node000004_Node000018" class="edge">
<title>Node4&#45;&gt;Node18</title>
<g id="a_edge21_Node000004_Node000018"><a xlink:title=" ">
<path fill="none" stroke="#63b8ff" d="M153.43,-335.6C159.98,-326.67 169.85,-312.74 177.38,-300 196.58,-267.48 196.42,-256.66 215.38,-224 220.49,-215.19 226.65,-205.77 232.06,-197.83"/>
<polygon fill="#63b8ff" stroke="#63b8ff" points="234.89,-199.89 237.72,-189.68 229.14,-195.9 234.89,-199.89"/>
</a>
</g>
</g>
<!-- Node6 -->
<g id="Node000006" class="node">
<title>Node6</title>
<g id="a_Node000006"><a xlink:href="_transform_8h.html" target="_top" xlink:title=" ">
<polygon fill="white" stroke="#666666" points="199.62,-188 131.12,-188 131.12,-168 199.62,-168 199.62,-188"/>
<text text-anchor="middle" x="165.38" y="-174.5" font-family="Helvetica,sans-Serif" font-size="10.00">Transform.h</text>
</a>
</g>
</g>
<!-- Node5&#45;&gt;Node6 -->
<g id="edge5_Node000005_Node000006" class="edge">
<title>Node5&#45;&gt;Node6</title>
<g id="a_edge5_Node000005_Node000006"><a xlink:title=" ">
<path fill="none" stroke="#63b8ff" d="M131.53,-279.62C137.51,-261.84 150.61,-222.88 158.65,-199"/>
<polygon fill="#63b8ff" stroke="#63b8ff" points="161.88,-200.38 161.75,-189.79 155.24,-198.15 161.88,-200.38"/>
</a>
</g>
</g>
<!-- Node7 -->
<g id="Node000007" class="node">
<title>Node7</title>
<g id="a_Node000007"><a xlink:href="base_8h.html" target="_top" xlink:title=" ">
<polygon fill="white" stroke="#666666" points="329,-132 283.75,-132 283.75,-112 329,-112 329,-132"/>
<text text-anchor="middle" x="306.38" y="-118.5" font-family="Helvetica,sans-Serif" font-size="10.00">base.h</text>
</a>
</g>
</g>
<!-- Node6&#45;&gt;Node7 -->
<g id="edge6_Node000006_Node000007" class="edge">
<title>Node6&#45;&gt;Node7</title>
<g id="a_edge6_Node000006_Node000007"><a xlink:title=" ">
<path fill="none" stroke="#63b8ff" d="M189.94,-167.59C212.89,-158.8 247.36,-145.6 272.84,-135.84"/>
<polygon fill="#63b8ff" stroke="#63b8ff" points="274,-139.15 282.08,-132.3 271.49,-132.61 274,-139.15"/>
</a>
</g>
</g>
<!-- Node15 -->
<g id="Node000015" class="node">
<title>Node15</title>
<g id="a_Node000015"><a xlink:href="_vector2f_8h.html" target="_top" xlink:title=" ">
<polygon fill="white" stroke="#666666" points="180.5,-20 120.25,-20 120.25,0 180.5,0 180.5,-20"/>
<text text-anchor="middle" x="150.38" y="-6.5" font-family="Helvetica,sans-Serif" font-size="10.00">Vector2f.h</text>
</a>
</g>
</g>
<!-- Node6&#45;&gt;Node15 -->
<g id="edge16_Node000006_Node000015" class="edge">
<title>Node6&#45;&gt;Node15</title>
<g id="a_edge16_Node000006_Node000015"><a xlink:title=" ">
<path fill="none" stroke="#63b8ff" d="M155.44,-167.57C138.76,-150.95 105.71,-114.56 93.38,-76 90.67,-67.53 89.5,-64 93.38,-56 99.31,-43.75 110.38,-33.83 121.19,-26.45"/>
<polygon fill="#63b8ff" stroke="#63b8ff" points="122.98,-29.46 129.61,-21.2 119.27,-23.52 122.98,-29.46"/>
</a>
</g>
</g>
<!-- Node8 -->
<g id="Node000008" class="node">
<title>Node8</title>
<g id="a_Node000008"><a xlink:title=" ">
<polygon fill="#e0e0e0" stroke="#999999" points="575.25,-76 531.5,-76 531.5,-56 575.25,-56 575.25,-76"/>
<text text-anchor="middle" x="553.38" y="-62.5" font-family="Helvetica,sans-Serif" font-size="10.00">SDL.h</text>
</a>
</g>
</g>
<!-- Node7&#45;&gt;Node8 -->
<g id="edge7_Node000007_Node000008" class="edge">
<title>Node7&#45;&gt;Node8</title>
<g id="a_edge7_Node000007_Node000008"><a xlink:title=" ">
<path fill="none" stroke="#63b8ff" d="M329.21,-116.84C366.91,-109.85 444.74,-94.89 520,-76.44"/>
<polygon fill="#63b8ff" stroke="#63b8ff" points="520.75,-79.86 529.61,-74.06 519.06,-73.07 520.75,-79.86"/>
</a>
</g>
</g>
<!-- Node9 -->
<g id="Node000009" class="node">
<title>Node9</title>
<g id="a_Node000009"><a xlink:title=" ">
<polygon fill="#e0e0e0" stroke="#999999" points="180.12,-76 102.62,-76 102.62,-56 180.12,-56 180.12,-76"/>
<text text-anchor="middle" x="141.38" y="-62.5" font-family="Helvetica,sans-Serif" font-size="10.00">SDL_opengl.h</text>
</a>
</g>
</g>
<!-- Node7&#45;&gt;Node9 -->
<g id="edge8_Node000007_Node000009" class="edge">
<title>Node7&#45;&gt;Node9</title>
<g id="a_edge8_Node000007_Node000009"><a xlink:title=" ">
<path fill="none" stroke="#63b8ff" d="M283.43,-113.49C256.98,-104.83 213.02,-90.45 181,-79.97"/>
<polygon fill="#63b8ff" stroke="#63b8ff" points="182.25,-76.7 171.66,-76.91 180.08,-83.35 182.25,-76.7"/>
</a>
</g>
</g>
<!-- Node10 -->
<g id="Node000010" class="node">
<title>Node10</title>
<g id="a_Node000010"><a xlink:title=" ">
<polygon fill="#e0e0e0" stroke="#999999" points="328.38,-76 270.38,-76 270.38,-56 328.38,-56 328.38,-76"/>
<text text-anchor="middle" x="299.38" y="-62.5" font-family="Helvetica,sans-Serif" font-size="10.00">SDL_ttf.h</text>
</a>
</g>
</g>
<!-- Node7&#45;&gt;Node10 -->
<g id="edge9_Node000007_Node000010" class="edge">
<title>Node7&#45;&gt;Node10</title>
<g id="a_edge9_Node000007_Node000010"><a xlink:title=" ">
<path fill="none" stroke="#63b8ff" d="M305.16,-111.59C304.29,-104.93 303.1,-95.75 302.02,-87.44"/>
<polygon fill="#63b8ff" stroke="#63b8ff" points="305.53,-87.27 300.77,-77.8 298.59,-88.17 305.53,-87.27"/>
</a>
</g>
</g>
<!-- Node11 -->
<g id="Node000011" class="node">
<title>Node11</title>
<g id="a_Node000011"><a xlink:title=" ">
<polygon fill="#e0e0e0" stroke="#999999" points="419.88,-76 346.88,-76 346.88,-56 419.88,-56 419.88,-76"/>
<text text-anchor="middle" x="383.38" y="-62.5" font-family="Helvetica,sans-Serif" font-size="10.00">SDL_mixer.h</text>
</a>
</g>
</g>
<!-- Node7&#45;&gt;Node11 -->
<g id="edge10_Node000007_Node000011" class="edge">
<title>Node7&#45;&gt;Node11</title>
<g id="a_edge10_Node000007_Node000011"><a xlink:title=" ">
<path fill="none" stroke="#63b8ff" d="M319.79,-111.59C330.98,-103.74 347.19,-92.38 360.43,-83.09"/>
<polygon fill="#63b8ff" stroke="#63b8ff" points="362.44,-85.96 368.62,-77.35 358.42,-80.22 362.44,-85.96"/>
</a>
</g>
</g>
<!-- Node12 -->
<g id="Node000012" class="node">
<title>Node12</title>
<g id="a_Node000012"><a xlink:title=" ">
<polygon fill="#e0e0e0" stroke="#999999" points="513,-76 437.75,-76 437.75,-56 513,-56 513,-76"/>
<text text-anchor="middle" x="475.38" y="-62.5" font-family="Helvetica,sans-Serif" font-size="10.00">SDL_image.h</text>
</a>
</g>
</g>
<!-- Node7&#45;&gt;Node12 -->
<g id="edge11_Node000007_Node000012" class="edge">
<title>Node7&#45;&gt;Node12</title>
<g id="a_edge11_Node000007_Node000012"><a xlink:title=" ">
<path fill="none" stroke="#63b8ff" d="M329.17,-113.72C356.28,-105.05 402.04,-90.43 435.16,-79.85"/>
<polygon fill="#63b8ff" stroke="#63b8ff" points="435.96,-83.27 444.42,-76.89 433.82,-76.6 435.96,-83.27"/>
</a>
</g>
</g>
<!-- Node13 -->
<g id="Node000013" class="node">
<title>Node13</title>
<g id="a_Node000013"><a xlink:href="structs_8h.html" target="_top" xlink:title=" ">
<polygon fill="white" stroke="#666666" points="252.5,-76 198.25,-76 198.25,-56 252.5,-56 252.5,-76"/>
<text text-anchor="middle" x="225.38" y="-62.5" font-family="Helvetica,sans-Serif" font-size="10.00">structs.h</text>
</a>
</g>
</g>
<!-- Node7&#45;&gt;Node13 -->
<g id="edge12_Node000007_Node000013" class="edge">
<title>Node7&#45;&gt;Node13</title>
<g id="a_edge12_Node000007_Node000013"><a xlink:title=" ">
<path fill="none" stroke="#63b8ff" d="M292.27,-111.59C280.38,-103.67 263.11,-92.16 249.1,-82.82"/>
<polygon fill="#63b8ff" stroke="#63b8ff" points="251.12,-79.95 240.85,-77.32 247.23,-85.78 251.12,-79.95"/>
</a>
</g>
</g>
<!-- Node14 -->
<g id="Node000014" class="node">
<title>Node14</title>
<g id="a_Node000014"><a xlink:title=" ">
<polygon fill="#e0e0e0" stroke="#999999" points="623.38,-20 583.38,-20 583.38,0 623.38,0 623.38,-20"/>
<text text-anchor="middle" x="603.38" y="-6.5" font-family="Helvetica,sans-Serif" font-size="10.00">string</text>
</a>
</g>
</g>
<!-- Node13&#45;&gt;Node14 -->
<g id="edge13_Node000013_Node000014" class="edge">
<title>Node13&#45;&gt;Node14</title>
<g id="a_edge13_Node000013_Node000014"><a xlink:title=" ">
<path fill="none" stroke="#63b8ff" d="M252.82,-57.8C255.7,-57.14 258.59,-56.53 261.38,-56 374.76,-34.44 511.25,-19.84 571.8,-13.94"/>
<polygon fill="#63b8ff" stroke="#63b8ff" points="572.08,-17.43 581.7,-12.99 571.41,-10.46 572.08,-17.43"/>
</a>
</g>
</g>
<!-- Node13&#45;&gt;Node15 -->
<g id="edge14_Node000013_Node000015" class="edge">
<title>Node13&#45;&gt;Node15</title>
<g id="a_edge14_Node000013_Node000015"><a xlink:title=" ">
<path fill="none" stroke="#63b8ff" d="M207.04,-55.59C194.74,-47.85 178.9,-36.69 166.98,-27.47"/>
<polygon fill="#63b8ff" stroke="#63b8ff" points="169.21,-24.78 159.22,-21.25 164.83,-30.24 169.21,-24.78"/>
</a>
</g>
</g>
<!-- Node15&#45;&gt;Node13 -->
<g id="edge15_Node000015_Node000013" class="edge">
<title>Node15&#45;&gt;Node13</title>
<g id="a_edge15_Node000015_Node000013"><a xlink:title=" ">
<path fill="none" stroke="#63b8ff" d="M168.82,-20.48C181.07,-28.2 196.79,-39.28 208.67,-48.45"/>
<polygon fill="#63b8ff" stroke="#63b8ff" points="206.41,-51.12 216.4,-54.65 210.78,-45.66 206.41,-51.12"/>
</a>
</g>
</g>
<!-- Node17 -->
<g id="Node000017" class="node">
<title>Node17</title>
<g id="a_Node000017"><a xlink:href="utils_8h.html" target="_top" xlink:title=" ">
<polygon fill="white" stroke="#666666" points="57.5,-244 15.25,-244 15.25,-224 57.5,-224 57.5,-244"/>
<text text-anchor="middle" x="36.38" y="-230.5" font-family="Helvetica,sans-Serif" font-size="10.00">utils.h</text>
</a>
</g>
</g>
<!-- Node16&#45;&gt;Node17 -->
<g id="edge18_Node000016_Node000017" class="edge">
<title>Node16&#45;&gt;Node17</title>
<g id="a_edge18_Node000016_Node000017"><a xlink:title=" ">
<path fill="none" stroke="#63b8ff" d="M35.55,-279.59C35.67,-273.01 35.84,-263.96 35.99,-255.73"/>
<polygon fill="#63b8ff" stroke="#63b8ff" points="39.49,-255.87 36.17,-245.81 32.49,-255.75 39.49,-255.87"/>
</a>
</g>
</g>
<!-- Node17&#45;&gt;Node15 -->
<g id="edge20_Node000017_Node000015" class="edge">
<title>Node17&#45;&gt;Node15</title>
<g id="a_edge20_Node000017_Node000015"><a xlink:title=" ">
<path fill="none" stroke="#63b8ff" d="M36.94,-223.62C39.03,-195.61 48.41,-111.09 87.38,-56 96.05,-43.74 109.15,-33.61 121.16,-26.09"/>
<polygon fill="#63b8ff" stroke="#63b8ff" points="122.71,-29.23 129.57,-21.16 119.17,-23.2 122.71,-29.23"/>
</a>
</g>
</g>
<!-- Node17&#45;&gt;Node18 -->
<g id="edge19_Node000017_Node000018" class="edge">
<title>Node17&#45;&gt;Node18</title>
<g id="a_edge19_Node000017_Node000018"><a xlink:title=" ">
<path fill="none" stroke="#63b8ff" d="M57.95,-227.42C94.64,-217.95 169.38,-198.64 212.57,-187.48"/>
<polygon fill="#63b8ff" stroke="#63b8ff" points="213.33,-190.9 222.13,-185 211.58,-184.12 213.33,-190.9"/>
</a>
</g>
</g>
<!-- Node19&#45;&gt;Node6 -->
<g id="edge23_Node000019_Node000006" class="edge">
<title>Node19&#45;&gt;Node6</title>
<g id="a_edge23_Node000019_Node000006"><a xlink:title=" ">
<path fill="none" stroke="#63b8ff" d="M231.44,-223.59C219.7,-215.67 202.64,-204.16 188.81,-194.82"/>
<polygon fill="#63b8ff" stroke="#63b8ff" points="190.92,-192.02 180.67,-189.33 187,-197.82 190.92,-192.02"/>
</a>
</g>
</g>
<!-- Node19&#45;&gt;Node18 -->
<g id="edge24_Node000019_Node000018" class="edge">
<title>Node19&#45;&gt;Node18</title>
<g id="a_edge24_Node000019_Node000018"><a xlink:title=" ">
<path fill="none" stroke="#63b8ff" d="M245.38,-223.59C245.38,-217.01 245.38,-207.96 245.38,-199.73"/>
<polygon fill="#63b8ff" stroke="#63b8ff" points="248.88,-199.81 245.38,-189.81 241.88,-199.81 248.88,-199.81"/>
</a>
</g>
</g>
<!-- Node20 -->
<g id="Node000020" class="node">
<title>Node20</title>
<g id="a_Node000020"><a xlink:href="_texture_8h.html" target="_top" xlink:title=" ">
<polygon fill="white" stroke="#666666" points="341.62,-188 285.12,-188 285.12,-168 341.62,-168 341.62,-188"/>
<text text-anchor="middle" x="313.38" y="-174.5" font-family="Helvetica,sans-Serif" font-size="10.00">Texture.h</text>
</a>
</g>
</g>
<!-- Node19&#45;&gt;Node20 -->
<g id="edge25_Node000019_Node000020" class="edge">
<title>Node19&#45;&gt;Node20</title>
<g id="a_edge25_Node000019_Node000020"><a xlink:title=" ">
<path fill="none" stroke="#63b8ff" d="M257.22,-223.59C267.07,-215.77 281.31,-204.46 292.98,-195.19"/>
<polygon fill="#63b8ff" stroke="#63b8ff" points="294.83,-198.2 300.48,-189.24 290.47,-192.72 294.83,-198.2"/>
</a>
</g>
</g>
<!-- Node20&#45;&gt;Node7 -->
<g id="edge26_Node000020_Node000007" class="edge">
<title>Node20&#45;&gt;Node7</title>
<g id="a_edge26_Node000020_Node000007"><a xlink:title=" ">
<path fill="none" stroke="#63b8ff" d="M312.16,-167.59C311.29,-160.93 310.1,-151.75 309.02,-143.44"/>
<polygon fill="#63b8ff" stroke="#63b8ff" points="312.53,-143.27 307.77,-133.8 305.59,-144.17 312.53,-143.27"/>
</a>
</g>
</g>
<!-- Node21&#45;&gt;Node18 -->
<g id="edge33_Node000021_Node000018" class="edge">
<title>Node21&#45;&gt;Node18</title>
<g id="a_edge33_Node000021_Node000018"><a xlink:title=" ">
<path fill="none" stroke="#63b8ff" d="M370.2,-335.62C352.79,-328.13 330.04,-316.19 314.38,-300 287.98,-272.72 294.6,-256.74 275.38,-224 270.22,-215.22 264.04,-205.8 258.64,-197.86"/>
<polygon fill="#63b8ff" stroke="#63b8ff" points="261.56,-195.93 253,-189.7 255.81,-199.91 261.56,-195.93"/>
</a>
</g>
</g>
<!-- Node22 -->
<g id="Node000022" class="node">
<title>Node22</title>
<g id="a_Node000022"><a xlink:href="_animation_manager_a_n_d_hair_8h.html" target="_top" xlink:title=" ">
<polygon fill="white" stroke="#666666" points="467.88,-300 322.88,-300 322.88,-280 467.88,-280 467.88,-300"/>
<text text-anchor="middle" x="395.38" y="-286.5" font-family="Helvetica,sans-Serif" font-size="10.00">AnimationManagerANDHair.h</text>
</a>
</g>
</g>
<!-- Node21&#45;&gt;Node22 -->
<g id="edge28_Node000021_Node000022" class="edge">
<title>Node21&#45;&gt;Node22</title>
<g id="a_edge28_Node000021_Node000022"><a xlink:title=" ">
<path fill="none" stroke="#63b8ff" d="M395.38,-335.59C395.38,-329.01 395.38,-319.96 395.38,-311.73"/>
<polygon fill="#63b8ff" stroke="#63b8ff" points="398.88,-311.81 395.38,-301.81 391.88,-311.81 398.88,-311.81"/>
</a>
</g>
</g>
<!-- Node21&#45;&gt;Node24 -->
<g id="edge32_Node000021_Node000024" class="edge">
<title>Node21&#45;&gt;Node24</title>
<g id="a_edge32_Node000021_Node000024"><a xlink:title=" ">
<path fill="none" stroke="#63b8ff" d="M419.06,-335.59C440.58,-327.05 472.58,-314.35 496.92,-304.68"/>
<polygon fill="#63b8ff" stroke="#63b8ff" points="498.09,-307.98 506.09,-301.04 495.51,-301.48 498.09,-307.98"/>
</a>
</g>
</g>
<!-- Node22&#45;&gt;Node18 -->
<g id="edge31_Node000022_Node000018" class="edge">
<title>Node22&#45;&gt;Node18</title>
<g id="a_edge31_Node000022_Node000018"><a xlink:title=" ">
<path fill="none" stroke="#63b8ff" d="M383.05,-279.66C366.24,-266.96 335.17,-243.58 308.38,-224 294.98,-214.21 279.85,-203.4 267.78,-194.83"/>
<polygon fill="#63b8ff" stroke="#63b8ff" points="269.88,-192.03 259.7,-189.1 265.84,-197.74 269.88,-192.03"/>
</a>
</g>
</g>
<!-- Node23 -->
<g id="Node000023" class="node">
<title>Node23</title>
<g id="a_Node000023"><a xlink:href="_animation_manager_8h.html" target="_top" xlink:title=" ">
<polygon fill="white" stroke="#666666" points="466,-244 360.75,-244 360.75,-224 466,-224 466,-244"/>
<text text-anchor="middle" x="413.38" y="-230.5" font-family="Helvetica,sans-Serif" font-size="10.00">AnimationManager.h</text>
</a>
</g>
</g>
<!-- Node22&#45;&gt;Node23 -->
<g id="edge29_Node000022_Node000023" class="edge">
<title>Node22&#45;&gt;Node23</title>
<g id="a_edge29_Node000022_Node000023"><a xlink:title=" ">
<path fill="none" stroke="#63b8ff" d="M398.51,-279.59C400.76,-272.86 403.86,-263.53 406.66,-255.15"/>
<polygon fill="#63b8ff" stroke="#63b8ff" points="409.95,-256.33 409.8,-245.73 403.31,-254.11 409.95,-256.33"/>
</a>
</g>
</g>
<!-- Node23&#45;&gt;Node20 -->
<g id="edge30_Node000023_Node000020" class="edge">
<title>Node23&#45;&gt;Node20</title>
<g id="a_edge30_Node000023_Node000020"><a xlink:title=" ">
<path fill="none" stroke="#63b8ff" d="M395.96,-223.59C380.71,-215.36 358.3,-203.26 340.67,-193.74"/>
<polygon fill="#63b8ff" stroke="#63b8ff" points="342.72,-190.87 332.26,-189.2 339.4,-197.03 342.72,-190.87"/>
</a>
</g>
</g>
<!-- Node25&#45;&gt;Node24 -->
<g id="edge36_Node000025_Node000024" class="edge">
<title>Node25&#45;&gt;Node24</title>
<g id="a_edge36_Node000025_Node000024"><a xlink:title=" ">
<path fill="none" stroke="#63b8ff" d="M587.53,-335.59C577.68,-327.77 563.44,-316.46 551.77,-307.19"/>
<polygon fill="#63b8ff" stroke="#63b8ff" points="554.28,-304.72 544.27,-301.24 549.92,-310.2 554.28,-304.72"/>
</a>
</g>
</g>
<!-- Node26 -->
<g id="Node000026" class="node">
<title>Node26</title>
<g id="a_Node000026"><a xlink:href="_sound_effect_8h.html" target="_top" xlink:title=" ">
<polygon fill="white" stroke="#666666" points="642.12,-244 564.62,-244 564.62,-224 642.12,-224 642.12,-244"/>
<text text-anchor="middle" x="603.38" y="-230.5" font-family="Helvetica,sans-Serif" font-size="10.00">SoundEffect.h</text>
</a>
</g>
</g>
<!-- Node25&#45;&gt;Node26 -->
<g id="edge37_Node000025_Node000026" class="edge">
<title>Node25&#45;&gt;Node26</title>
<g id="a_edge37_Node000025_Node000026"><a xlink:title=" ">
<path fill="none" stroke="#63b8ff" d="M599.72,-335.62C600.36,-318.01 601.75,-279.59 602.62,-255.65"/>
<polygon fill="#63b8ff" stroke="#63b8ff" points="606.11,-255.99 602.98,-245.87 599.12,-255.73 606.11,-255.99"/>
</a>
</g>
</g>
<!-- Node27 -->
<g id="Node000027" class="node">
<title>Node27</title>
<g id="a_Node000027"><a xlink:href="_sound_stream_8h.html" target="_top" xlink:title=" ">
<polygon fill="white" stroke="#666666" points="715.12,-132 631.62,-132 631.62,-112 715.12,-112 715.12,-132"/>
<text text-anchor="middle" x="673.38" y="-118.5" font-family="Helvetica,sans-Serif" font-size="10.00">SoundStream.h</text>
</a>
</g>
</g>
<!-- Node25&#45;&gt;Node27 -->
<g id="edge40_Node000025_Node000027" class="edge">
<title>Node25&#45;&gt;Node27</title>
<g id="a_edge40_Node000025_Node000027"><a xlink:title=" ">
<path fill="none" stroke="#63b8ff" d="M605.39,-335.67C616.27,-318.33 639.25,-279.67 651.38,-244 662.97,-209.9 668.83,-168.2 671.49,-143.73"/>
<polygon fill="#63b8ff" stroke="#63b8ff" points="674.96,-144.15 672.47,-133.85 668,-143.45 674.96,-144.15"/>
</a>
</g>
</g>
<!-- Node26&#45;&gt;Node14 -->
<g id="edge38_Node000026_Node000014" class="edge">
<title>Node26&#45;&gt;Node14</title>
<g id="a_edge38_Node000026_Node000014"><a xlink:title=" ">
<path fill="none" stroke="#63b8ff" d="M603.38,-223.74C603.38,-190.74 603.38,-78.31 603.38,-31.61"/>
<polygon fill="#63b8ff" stroke="#63b8ff" points="606.88,-31.81 603.38,-21.81 599.88,-31.81 606.88,-31.81"/>
</a>
</g>
</g>
<!-- Node26&#45;&gt;Node18 -->
<g id="edge39_Node000026_Node000018" class="edge">
<title>Node26&#45;&gt;Node18</title>
<g id="a_edge39_Node000026_Node000018"><a xlink:title=" ">
<path fill="none" stroke="#63b8ff" d="M564.3,-229.48C504.69,-223.72 387.36,-210.78 278.48,-188.16"/>
<polygon fill="#63b8ff" stroke="#63b8ff" points="279.28,-184.75 268.77,-186.1 277.83,-191.6 279.28,-184.75"/>
</a>
</g>
</g>
<!-- Node27&#45;&gt;Node14 -->
<g id="edge41_Node000027_Node000014" class="edge">
<title>Node27&#45;&gt;Node14</title>
<g id="a_edge41_Node000027_Node000014"><a xlink:title=" ">
<path fill="none" stroke="#63b8ff" d="M667.41,-111.62C655.94,-93.6 630.62,-53.81 615.48,-30.02"/>
<polygon fill="#63b8ff" stroke="#63b8ff" points="618.46,-28.19 610.14,-21.63 612.56,-31.95 618.46,-28.19"/>
</a>
</g>
</g>
</g>
</svg>
