<?xml version="1.0" encoding="UTF-8" standalone="no"?>
<!DOCTYPE svg PUBLIC "-//W3C//DTD SVG 1.1//EN"
 "http://www.w3.org/Graphics/SVG/1.1/DTD/svg11.dtd">
<!-- Generated by graphviz version 12.2.1 (20241206.2353)
 -->
<!-- Title: Celeste/Strawberry.cpp Pages: 1 -->
<svg width="796pt" height="588pt"
 viewBox="0.00 0.00 796.25 588.00" xmlns="http://www.w3.org/2000/svg" xmlns:xlink="http://www.w3.org/1999/xlink">
<g id="graph0" class="graph" transform="scale(1 1) rotate(0) translate(4 584)">
<title>Celeste/Strawberry.cpp</title>
<!-- Node1 -->
<g id="Node000001" class="node">
<title>Node1</title>
<g id="a_Node000001"><a xlink:title=" ">
<polygon fill="#999999" stroke="#666666" points="467.75,-580 349.75,-580 349.75,-560 467.75,-560 467.75,-580"/>
<text text-anchor="middle" x="408.75" y="-566.5" font-family="Helvetica,sans-Serif" font-size="10.00">Celeste/Strawberry.cpp</text>
</a>
</g>
</g>
<!-- Node2 -->
<g id="Node000002" class="node">
<title>Node2</title>
<g id="a_Node000002"><a xlink:href="pch_8h.html" target="_top" xlink:title=" ">
<polygon fill="white" stroke="#666666" points="374.75,-132 334.75,-132 334.75,-112 374.75,-112 374.75,-132"/>
<text text-anchor="middle" x="354.75" y="-118.5" font-family="Helvetica,sans-Serif" font-size="10.00">pch.h</text>
</a>
</g>
</g>
<!-- Node1&#45;&gt;Node2 -->
<g id="edge1_Node000001_Node000002" class="edge">
<title>Node1&#45;&gt;Node2</title>
<g id="a_edge1_Node000001_Node000002"><a xlink:title=" ">
<path fill="none" stroke="#63b8ff" d="M349.4,-561.71C253.9,-548.3 76.75,-515.77 76.75,-459 76.75,-459 76.75,-459 76.75,-233 76.75,-180.51 250.25,-142.3 323.12,-128.57"/>
<polygon fill="#63b8ff" stroke="#63b8ff" points="323.62,-132.04 332.82,-126.78 322.35,-125.15 323.62,-132.04"/>
</a>
</g>
</g>
<!-- Node11 -->
<g id="Node000011" class="node">
<title>Node11</title>
<g id="a_Node000011"><a xlink:href="_strawberry_8h.html" target="_top" xlink:title=" ">
<polygon fill="white" stroke="#666666" points="444.12,-524 373.38,-524 373.38,-504 444.12,-504 444.12,-524"/>
<text text-anchor="middle" x="408.75" y="-510.5" font-family="Helvetica,sans-Serif" font-size="10.00">Strawberry.h</text>
</a>
</g>
</g>
<!-- Node1&#45;&gt;Node11 -->
<g id="edge11_Node000001_Node000011" class="edge">
<title>Node1&#45;&gt;Node11</title>
<g id="a_edge11_Node000001_Node000011"><a xlink:title=" ">
<path fill="none" stroke="#63b8ff" d="M408.75,-559.59C408.75,-553.01 408.75,-543.96 408.75,-535.73"/>
<polygon fill="#63b8ff" stroke="#63b8ff" points="412.25,-535.81 408.75,-525.81 405.25,-535.81 412.25,-535.81"/>
</a>
</g>
</g>
<!-- Node22 -->
<g id="Node000022" class="node">
<title>Node22</title>
<g id="a_Node000022"><a xlink:href="_texture_8h.html" target="_top" xlink:title=" ">
<polygon fill="white" stroke="#666666" points="504,-188 447.5,-188 447.5,-168 504,-168 504,-188"/>
<text text-anchor="middle" x="475.75" y="-174.5" font-family="Helvetica,sans-Serif" font-size="10.00">Texture.h</text>
</a>
</g>
</g>
<!-- Node1&#45;&gt;Node22 -->
<g id="edge53_Node000001_Node000022" class="edge">
<title>Node1&#45;&gt;Node22</title>
<g id="a_edge53_Node000001_Node000022"><a xlink:title=" ">
<path fill="none" stroke="#63b8ff" d="M458.32,-559.52C536.78,-543.07 680.75,-506.44 680.75,-459 680.75,-459 680.75,-459 680.75,-289 680.75,-258.9 683.53,-244.78 661.75,-224 641.04,-204.24 563.96,-190.7 515.76,-183.95"/>
<polygon fill="#63b8ff" stroke="#63b8ff" points="516.36,-180.5 505.98,-182.62 515.42,-187.44 516.36,-180.5"/>
</a>
</g>
</g>
<!-- Node3 -->
<g id="Node000003" class="node">
<title>Node3</title>
<g id="a_Node000003"><a xlink:title=" ">
<polygon fill="#e0e0e0" stroke="#999999" points="443.62,-76 399.88,-76 399.88,-56 443.62,-56 443.62,-76"/>
<text text-anchor="middle" x="421.75" y="-62.5" font-family="Helvetica,sans-Serif" font-size="10.00">SDL.h</text>
</a>
</g>
</g>
<!-- Node2&#45;&gt;Node3 -->
<g id="edge2_Node000002_Node000003" class="edge">
<title>Node2&#45;&gt;Node3</title>
<g id="a_edge2_Node000002_Node000003"><a xlink:title=" ">
<path fill="none" stroke="#63b8ff" d="M366.42,-111.59C376.03,-103.85 389.88,-92.69 401.32,-83.47"/>
<polygon fill="#63b8ff" stroke="#63b8ff" points="403.45,-86.25 409.03,-77.25 399.05,-80.8 403.45,-86.25"/>
</a>
</g>
</g>
<!-- Node4 -->
<g id="Node000004" class="node">
<title>Node4</title>
<g id="a_Node000004"><a xlink:title=" ">
<polygon fill="#e0e0e0" stroke="#999999" points="539.5,-76 462,-76 462,-56 539.5,-56 539.5,-76"/>
<text text-anchor="middle" x="500.75" y="-62.5" font-family="Helvetica,sans-Serif" font-size="10.00">SDL_opengl.h</text>
</a>
</g>
</g>
<!-- Node2&#45;&gt;Node4 -->
<g id="edge3_Node000002_Node000004" class="edge">
<title>Node2&#45;&gt;Node4</title>
<g id="a_edge3_Node000002_Node000004"><a xlink:title=" ">
<path fill="none" stroke="#63b8ff" d="M375.05,-113.49C398.15,-104.95 436.34,-90.82 464.57,-80.38"/>
<polygon fill="#63b8ff" stroke="#63b8ff" points="465.64,-83.72 473.81,-76.97 463.21,-77.15 465.64,-83.72"/>
</a>
</g>
</g>
<!-- Node5 -->
<g id="Node000005" class="node">
<title>Node5</title>
<g id="a_Node000005"><a xlink:title=" ">
<polygon fill="#e0e0e0" stroke="#999999" points="615.75,-76 557.75,-76 557.75,-56 615.75,-56 615.75,-76"/>
<text text-anchor="middle" x="586.75" y="-62.5" font-family="Helvetica,sans-Serif" font-size="10.00">SDL_ttf.h</text>
</a>
</g>
</g>
<!-- Node2&#45;&gt;Node5 -->
<g id="edge4_Node000002_Node000005" class="edge">
<title>Node2&#45;&gt;Node5</title>
<g id="a_edge4_Node000002_Node000005"><a xlink:title=" ">
<path fill="none" stroke="#63b8ff" d="M375.15,-116.3C408.71,-108.56 477.95,-92.57 546.33,-76.56"/>
<polygon fill="#63b8ff" stroke="#63b8ff" points="546.88,-80.02 555.82,-74.34 545.29,-73.21 546.88,-80.02"/>
</a>
</g>
</g>
<!-- Node6 -->
<g id="Node000006" class="node">
<title>Node6</title>
<g id="a_Node000006"><a xlink:title=" ">
<polygon fill="#e0e0e0" stroke="#999999" points="216.25,-76 143.25,-76 143.25,-56 216.25,-56 216.25,-76"/>
<text text-anchor="middle" x="179.75" y="-62.5" font-family="Helvetica,sans-Serif" font-size="10.00">SDL_mixer.h</text>
</a>
</g>
</g>
<!-- Node2&#45;&gt;Node6 -->
<g id="edge5_Node000002_Node000006" class="edge">
<title>Node2&#45;&gt;Node6</title>
<g id="a_edge5_Node000002_Node000006"><a xlink:title=" ">
<path fill="none" stroke="#63b8ff" d="M334.33,-114.7C306.63,-106.15 256.52,-90.69 220.86,-79.69"/>
<polygon fill="#63b8ff" stroke="#63b8ff" points="222.33,-76.48 211.75,-76.87 220.27,-83.17 222.33,-76.48"/>
</a>
</g>
</g>
<!-- Node7 -->
<g id="Node000007" class="node">
<title>Node7</title>
<g id="a_Node000007"><a xlink:title=" ">
<polygon fill="#e0e0e0" stroke="#999999" points="309.38,-76 234.12,-76 234.12,-56 309.38,-56 309.38,-76"/>
<text text-anchor="middle" x="271.75" y="-62.5" font-family="Helvetica,sans-Serif" font-size="10.00">SDL_image.h</text>
</a>
</g>
</g>
<!-- Node2&#45;&gt;Node7 -->
<g id="edge6_Node000002_Node000007" class="edge">
<title>Node2&#45;&gt;Node7</title>
<g id="a_edge6_Node000002_Node000007"><a xlink:title=" ">
<path fill="none" stroke="#63b8ff" d="M340.29,-111.59C327.99,-103.59 310.07,-91.93 295.64,-82.54"/>
<polygon fill="#63b8ff" stroke="#63b8ff" points="297.88,-79.82 287.59,-77.3 294.06,-85.69 297.88,-79.82"/>
</a>
</g>
</g>
<!-- Node8 -->
<g id="Node000008" class="node">
<title>Node8</title>
<g id="a_Node000008"><a xlink:href="structs_8h.html" target="_top" xlink:title=" ">
<polygon fill="white" stroke="#666666" points="381.88,-76 327.62,-76 327.62,-56 381.88,-56 381.88,-76"/>
<text text-anchor="middle" x="354.75" y="-62.5" font-family="Helvetica,sans-Serif" font-size="10.00">structs.h</text>
</a>
</g>
</g>
<!-- Node2&#45;&gt;Node8 -->
<g id="edge7_Node000002_Node000008" class="edge">
<title>Node2&#45;&gt;Node8</title>
<g id="a_edge7_Node000002_Node000008"><a xlink:title=" ">
<path fill="none" stroke="#63b8ff" d="M354.75,-111.59C354.75,-105.01 354.75,-95.96 354.75,-87.73"/>
<polygon fill="#63b8ff" stroke="#63b8ff" points="358.25,-87.81 354.75,-77.81 351.25,-87.81 358.25,-87.81"/>
</a>
</g>
</g>
<!-- Node9 -->
<g id="Node000009" class="node">
<title>Node9</title>
<g id="a_Node000009"><a xlink:title=" ">
<polygon fill="#e0e0e0" stroke="#999999" points="134.75,-20 94.75,-20 94.75,0 134.75,0 134.75,-20"/>
<text text-anchor="middle" x="114.75" y="-6.5" font-family="Helvetica,sans-Serif" font-size="10.00">string</text>
</a>
</g>
</g>
<!-- Node8&#45;&gt;Node9 -->
<g id="edge8_Node000008_Node000009" class="edge">
<title>Node8&#45;&gt;Node9</title>
<g id="a_edge8_Node000008_Node000009"><a xlink:title=" ">
<path fill="none" stroke="#63b8ff" d="M327.25,-58.04C324.38,-57.34 321.51,-56.65 318.75,-56 257.83,-41.67 186.35,-26.21 146.22,-17.66"/>
<polygon fill="#63b8ff" stroke="#63b8ff" points="147.05,-14.26 136.54,-15.6 145.59,-21.1 147.05,-14.26"/>
</a>
</g>
</g>
<!-- Node10 -->
<g id="Node000010" class="node">
<title>Node10</title>
<g id="a_Node000010"><a xlink:href="_vector2f_8h.html" target="_top" xlink:title=" ">
<polygon fill="white" stroke="#666666" points="528.88,-20 468.62,-20 468.62,0 528.88,0 528.88,-20"/>
<text text-anchor="middle" x="498.75" y="-6.5" font-family="Helvetica,sans-Serif" font-size="10.00">Vector2f.h</text>
</a>
</g>
</g>
<!-- Node8&#45;&gt;Node10 -->
<g id="edge9_Node000008_Node000010" class="edge">
<title>Node8&#45;&gt;Node10</title>
<g id="a_edge9_Node000008_Node000010"><a xlink:title=" ">
<path fill="none" stroke="#63b8ff" d="M374.57,-55.59C395.92,-46.94 430.2,-34 457.4,-24.29"/>
<polygon fill="#63b8ff" stroke="#63b8ff" points="458.5,-27.61 466.76,-20.98 456.17,-21.01 458.5,-27.61"/>
</a>
</g>
</g>
<!-- Node10&#45;&gt;Node8 -->
<g id="edge10_Node000010_Node000008" class="edge">
<title>Node10&#45;&gt;Node8</title>
<g id="a_edge10_Node000010_Node000008"><a xlink:title=" ">
<path fill="none" stroke="#63b8ff" d="M478.78,-20.47C456.64,-29.44 420.74,-42.96 393.18,-52.75"/>
<polygon fill="#63b8ff" stroke="#63b8ff" points="392.02,-49.45 383.74,-56.06 394.34,-56.05 392.02,-49.45"/>
</a>
</g>
</g>
<!-- Node12 -->
<g id="Node000012" class="node">
<title>Node12</title>
<g id="a_Node000012"><a xlink:href="_interactable_item_8h.html" target="_top" xlink:title=" ">
<polygon fill="white" stroke="#666666" points="350.12,-468 255.38,-468 255.38,-448 350.12,-448 350.12,-468"/>
<text text-anchor="middle" x="302.75" y="-454.5" font-family="Helvetica,sans-Serif" font-size="10.00">InteractableItem.h</text>
</a>
</g>
</g>
<!-- Node11&#45;&gt;Node12 -->
<g id="edge12_Node000011_Node000012" class="edge">
<title>Node11&#45;&gt;Node12</title>
<g id="a_edge12_Node000011_Node000012"><a xlink:title=" ">
<path fill="none" stroke="#63b8ff" d="M390.29,-503.59C374.05,-495.32 350.14,-483.14 331.42,-473.6"/>
<polygon fill="#63b8ff" stroke="#63b8ff" points="333.21,-470.59 322.71,-469.17 330.03,-476.82 333.21,-470.59"/>
</a>
</g>
</g>
<!-- Node25 -->
<g id="Node000025" class="node">
<title>Node25</title>
<g id="a_Node000025"><a xlink:href="_animation_manager_8h.html" target="_top" xlink:title=" ">
<polygon fill="white" stroke="#666666" points="494.38,-244 389.12,-244 389.12,-224 494.38,-224 494.38,-244"/>
<text text-anchor="middle" x="441.75" y="-230.5" font-family="Helvetica,sans-Serif" font-size="10.00">AnimationManager.h</text>
</a>
</g>
</g>
<!-- Node11&#45;&gt;Node25 -->
<g id="edge50_Node000011_Node000025" class="edge">
<title>Node11&#45;&gt;Node25</title>
<g id="a_edge50_Node000011_Node000025"><a xlink:title=" ">
<path fill="none" stroke="#63b8ff" d="M422.29,-503.81C433.35,-495.63 448.6,-482.71 457.75,-468 473.64,-442.44 476.75,-433.1 476.75,-403 476.75,-403 476.75,-403 476.75,-345 476.75,-312.04 462.31,-276.04 451.98,-254.5"/>
<polygon fill="#63b8ff" stroke="#63b8ff" points="455.2,-253.12 447.59,-245.74 448.94,-256.25 455.2,-253.12"/>
</a>
</g>
</g>
<!-- Node30 -->
<g id="Node000030" class="node">
<title>Node30</title>
<g id="a_Node000030"><a xlink:href="_counted_item_8h.html" target="_top" xlink:title=" ">
<polygon fill="white" stroke="#666666" points="449,-468 368.5,-468 368.5,-448 449,-448 449,-468"/>
<text text-anchor="middle" x="408.75" y="-454.5" font-family="Helvetica,sans-Serif" font-size="10.00">CountedItem.h</text>
</a>
</g>
</g>
<!-- Node11&#45;&gt;Node30 -->
<g id="edge51_Node000011_Node000030" class="edge">
<title>Node11&#45;&gt;Node30</title>
<g id="a_edge51_Node000011_Node000030"><a xlink:title=" ">
<path fill="none" stroke="#63b8ff" d="M408.75,-503.59C408.75,-497.01 408.75,-487.96 408.75,-479.73"/>
<polygon fill="#63b8ff" stroke="#63b8ff" points="412.25,-479.81 408.75,-469.81 405.25,-479.81 412.25,-479.81"/>
</a>
</g>
</g>
<!-- Node13 -->
<g id="Node000013" class="node">
<title>Node13</title>
<g id="a_Node000013"><a xlink:href="_character_8h.html" target="_top" xlink:title=" ">
<polygon fill="white" stroke="#666666" points="350.25,-412 283.25,-412 283.25,-392 350.25,-392 350.25,-412"/>
<text text-anchor="middle" x="316.75" y="-398.5" font-family="Helvetica,sans-Serif" font-size="10.00">Character.h</text>
</a>
</g>
</g>
<!-- Node12&#45;&gt;Node13 -->
<g id="edge13_Node000012_Node000013" class="edge">
<title>Node12&#45;&gt;Node13</title>
<g id="a_edge13_Node000012_Node000013"><a xlink:title=" ">
<path fill="none" stroke="#63b8ff" d="M305.19,-447.59C306.92,-440.93 309.3,-431.75 311.45,-423.44"/>
<polygon fill="#63b8ff" stroke="#63b8ff" points="314.84,-424.32 313.96,-413.76 308.06,-422.56 314.84,-424.32"/>
</a>
</g>
</g>
<!-- Node14 -->
<g id="Node000014" class="node">
<title>Node14</title>
<g id="a_Node000014"><a xlink:href="_character_controller_8h.html" target="_top" xlink:title=" ">
<polygon fill="white" stroke="#666666" points="652.25,-356 543.25,-356 543.25,-336 652.25,-336 652.25,-356"/>
<text text-anchor="middle" x="597.75" y="-342.5" font-family="Helvetica,sans-Serif" font-size="10.00">CharacterController.h</text>
</a>
</g>
</g>
<!-- Node13&#45;&gt;Node14 -->
<g id="edge14_Node000013_Node000014" class="edge">
<title>Node13&#45;&gt;Node14</title>
<g id="a_edge14_Node000013_Node000014"><a xlink:title=" ">
<path fill="none" stroke="#63b8ff" d="M350.65,-394.49C396.83,-385.61 480.3,-369.57 537.34,-358.61"/>
<polygon fill="#63b8ff" stroke="#63b8ff" points="537.73,-362.1 546.89,-356.77 536.41,-355.22 537.73,-362.1"/>
</a>
</g>
</g>
<!-- Node21 -->
<g id="Node000021" class="node">
<title>Node21</title>
<g id="a_Node000021"><a xlink:href="_hair_8h.html" target="_top" xlink:title=" ">
<polygon fill="white" stroke="#666666" points="592.88,-244 550.62,-244 550.62,-224 592.88,-224 592.88,-244"/>
<text text-anchor="middle" x="571.75" y="-230.5" font-family="Helvetica,sans-Serif" font-size="10.00">Hair.h</text>
</a>
</g>
</g>
<!-- Node13&#45;&gt;Node21 -->
<g id="edge30_Node000013_Node000021" class="edge">
<title>Node13&#45;&gt;Node21</title>
<g id="a_edge30_Node000013_Node000021"><a xlink:title=" ">
<path fill="none" stroke="#63b8ff" d="M350.65,-392.15C375.8,-384.72 410.35,-372.62 437.75,-356 485.96,-326.75 532.59,-278.86 556.05,-252.96"/>
<polygon fill="#63b8ff" stroke="#63b8ff" points="558.55,-255.42 562.6,-245.63 553.33,-250.76 558.55,-255.42"/>
</a>
</g>
</g>
<!-- Node23 -->
<g id="Node000023" class="node">
<title>Node23</title>
<g id="a_Node000023"><a xlink:href="_character_texture_manager_8h.html" target="_top" xlink:title=" ">
<polygon fill="white" stroke="#666666" points="429.12,-356 292.38,-356 292.38,-336 429.12,-336 429.12,-356"/>
<text text-anchor="middle" x="360.75" y="-342.5" font-family="Helvetica,sans-Serif" font-size="10.00">CharacterTextureManager.h</text>
</a>
</g>
</g>
<!-- Node13&#45;&gt;Node23 -->
<g id="edge35_Node000013_Node000023" class="edge">
<title>Node13&#45;&gt;Node23</title>
<g id="a_edge35_Node000013_Node000023"><a xlink:title=" ">
<path fill="none" stroke="#63b8ff" d="M324.41,-391.59C330.34,-384.32 338.74,-374.02 345.96,-365.15"/>
<polygon fill="#63b8ff" stroke="#63b8ff" points="348.61,-367.43 352.22,-357.47 343.19,-363.01 348.61,-367.43"/>
</a>
</g>
</g>
<!-- Node26 -->
<g id="Node000026" class="node">
<title>Node26</title>
<g id="a_Node000026"><a xlink:href="_character_state_8h.html" target="_top" xlink:title=" ">
<polygon fill="white" stroke="#666666" points="246.88,-300 156.62,-300 156.62,-280 246.88,-280 246.88,-300"/>
<text text-anchor="middle" x="201.75" y="-286.5" font-family="Helvetica,sans-Serif" font-size="10.00">CharacterState.h</text>
</a>
</g>
</g>
<!-- Node13&#45;&gt;Node26 -->
<g id="edge42_Node000013_Node000026" class="edge">
<title>Node13&#45;&gt;Node26</title>
<g id="a_edge42_Node000013_Node000026"><a xlink:title=" ">
<path fill="none" stroke="#63b8ff" d="M306.95,-391.62C287.59,-373.11 244.24,-331.65 219.66,-308.13"/>
<polygon fill="#63b8ff" stroke="#63b8ff" points="222.27,-305.78 212.62,-301.4 217.43,-310.84 222.27,-305.78"/>
</a>
</g>
</g>
<!-- Node27 -->
<g id="Node000027" class="node">
<title>Node27</title>
<g id="a_Node000027"><a xlink:href="_character_sound_manager_8h.html" target="_top" xlink:title=" ">
<polygon fill="white" stroke="#666666" points="236.88,-356 104.62,-356 104.62,-336 236.88,-336 236.88,-356"/>
<text text-anchor="middle" x="170.75" y="-342.5" font-family="Helvetica,sans-Serif" font-size="10.00">CharacterSoundManager.h</text>
</a>
</g>
</g>
<!-- Node13&#45;&gt;Node27 -->
<g id="edge43_Node000013_Node000027" class="edge">
<title>Node13&#45;&gt;Node27</title>
<g id="a_edge43_Node000013_Node000027"><a xlink:title=" ">
<path fill="none" stroke="#63b8ff" d="M291.32,-391.59C268.01,-382.97 233.25,-370.12 207.03,-360.42"/>
<polygon fill="#63b8ff" stroke="#63b8ff" points="208.39,-357.19 197.8,-357 205.96,-363.76 208.39,-357.19"/>
</a>
</g>
</g>
<!-- Node15 -->
<g id="Node000015" class="node">
<title>Node15</title>
<g id="a_Node000015"><a xlink:href="_game_object_8h.html" target="_top" xlink:title=" ">
<polygon fill="white" stroke="#666666" points="788.25,-300 709.25,-300 709.25,-280 788.25,-280 788.25,-300"/>
<text text-anchor="middle" x="748.75" y="-286.5" font-family="Helvetica,sans-Serif" font-size="10.00">GameObject.h</text>
</a>
</g>
</g>
<!-- Node14&#45;&gt;Node15 -->
<g id="edge15_Node000014_Node000015" class="edge">
<title>Node14&#45;&gt;Node15</title>
<g id="a_edge15_Node000014_Node000015"><a xlink:title=" ">
<path fill="none" stroke="#63b8ff" d="M624.05,-335.59C648.26,-326.94 684.43,-314 711.59,-304.29"/>
<polygon fill="#63b8ff" stroke="#63b8ff" points="712.58,-307.65 720.82,-300.99 710.22,-301.06 712.58,-307.65"/>
</a>
</g>
</g>
<!-- Node18 -->
<g id="Node000018" class="node">
<title>Node18</title>
<g id="a_Node000018"><a xlink:href="_vector2x2f_8h.html" target="_top" xlink:title=" ">
<polygon fill="white" stroke="#666666" points="652.12,-300 581.38,-300 581.38,-280 652.12,-280 652.12,-300"/>
<text text-anchor="middle" x="616.75" y="-286.5" font-family="Helvetica,sans-Serif" font-size="10.00">Vector2x2f.h</text>
</a>
</g>
</g>
<!-- Node14&#45;&gt;Node18 -->
<g id="edge25_Node000014_Node000018" class="edge">
<title>Node14&#45;&gt;Node18</title>
<g id="a_edge25_Node000014_Node000018"><a xlink:title=" ">
<path fill="none" stroke="#63b8ff" d="M601.06,-335.59C603.43,-328.86 606.71,-319.53 609.66,-311.15"/>
<polygon fill="#63b8ff" stroke="#63b8ff" points="612.96,-312.32 612.98,-301.73 606.36,-310 612.96,-312.32"/>
</a>
</g>
</g>
<!-- Node20 -->
<g id="Node000020" class="node">
<title>Node20</title>
<g id="a_Node000020"><a xlink:title=" ">
<polygon fill="#e0e0e0" stroke="#999999" points="423.25,-188 380.25,-188 380.25,-168 423.25,-168 423.25,-188"/>
<text text-anchor="middle" x="401.75" y="-174.5" font-family="Helvetica,sans-Serif" font-size="10.00">vector</text>
</a>
</g>
</g>
<!-- Node14&#45;&gt;Node20 -->
<g id="edge29_Node000014_Node000020" class="edge">
<title>Node14&#45;&gt;Node20</title>
<g id="a_edge29_Node000014_Node000020"><a xlink:title=" ">
<path fill="none" stroke="#63b8ff" d="M592.62,-335.53C580.14,-313.29 546.1,-257.07 503.75,-224 483.06,-207.85 455.66,-196.18 434.47,-188.78"/>
<polygon fill="#63b8ff" stroke="#63b8ff" points="435.76,-185.51 425.16,-185.68 433.54,-192.16 435.76,-185.51"/>
</a>
</g>
</g>
<!-- Node16 -->
<g id="Node000016" class="node">
<title>Node16</title>
<g id="a_Node000016"><a xlink:href="_transform_8h.html" target="_top" xlink:title=" ">
<polygon fill="white" stroke="#666666" points="630,-188 561.5,-188 561.5,-168 630,-168 630,-188"/>
<text text-anchor="middle" x="595.75" y="-174.5" font-family="Helvetica,sans-Serif" font-size="10.00">Transform.h</text>
</a>
</g>
</g>
<!-- Node15&#45;&gt;Node16 -->
<g id="edge16_Node000015_Node000016" class="edge">
<title>Node15&#45;&gt;Node16</title>
<g id="a_edge16_Node000015_Node000016"><a xlink:title=" ">
<path fill="none" stroke="#63b8ff" d="M743.14,-279.91C734.31,-266.22 715.97,-240.2 694.75,-224 677.19,-210.59 654.99,-200.04 636.07,-192.53"/>
<polygon fill="#63b8ff" stroke="#63b8ff" points="637.38,-189.28 626.78,-189 634.89,-195.83 637.38,-189.28"/>
</a>
</g>
</g>
<!-- Node16&#45;&gt;Node10 -->
<g id="edge24_Node000016_Node000010" class="edge">
<title>Node16&#45;&gt;Node10</title>
<g id="a_edge24_Node000016_Node000010"><a xlink:title=" ">
<path fill="none" stroke="#63b8ff" d="M602.65,-167.56C617.62,-145.84 649.76,-91.49 624.75,-56 605.79,-29.1 569.22,-18.19 540.34,-13.81"/>
<polygon fill="#63b8ff" stroke="#63b8ff" points="541.17,-10.39 530.81,-12.59 540.28,-17.33 541.17,-10.39"/>
</a>
</g>
</g>
<!-- Node17 -->
<g id="Node000017" class="node">
<title>Node17</title>
<g id="a_Node000017"><a xlink:href="base_8h.html" target="_top" xlink:title=" ">
<polygon fill="white" stroke="#666666" points="488.38,-132 443.12,-132 443.12,-112 488.38,-112 488.38,-132"/>
<text text-anchor="middle" x="465.75" y="-118.5" font-family="Helvetica,sans-Serif" font-size="10.00">base.h</text>
</a>
</g>
</g>
<!-- Node16&#45;&gt;Node17 -->
<g id="edge17_Node000016_Node000017" class="edge">
<title>Node16&#45;&gt;Node17</title>
<g id="a_edge17_Node000016_Node000017"><a xlink:title=" ">
<path fill="none" stroke="#63b8ff" d="M573.11,-167.59C552.63,-159.09 522.23,-146.46 499,-136.81"/>
<polygon fill="#63b8ff" stroke="#63b8ff" points="500.55,-133.66 489.97,-133.06 497.86,-140.13 500.55,-133.66"/>
</a>
</g>
</g>
<!-- Node17&#45;&gt;Node3 -->
<g id="edge18_Node000017_Node000003" class="edge">
<title>Node17&#45;&gt;Node3</title>
<g id="a_edge18_Node000017_Node000003"><a xlink:title=" ">
<path fill="none" stroke="#63b8ff" d="M458.09,-111.59C452.16,-104.32 443.76,-94.02 436.54,-85.15"/>
<polygon fill="#63b8ff" stroke="#63b8ff" points="439.31,-83.01 430.28,-77.47 433.89,-87.43 439.31,-83.01"/>
</a>
</g>
</g>
<!-- Node17&#45;&gt;Node4 -->
<g id="edge19_Node000017_Node000004" class="edge">
<title>Node17&#45;&gt;Node4</title>
<g id="a_edge19_Node000017_Node000004"><a xlink:title=" ">
<path fill="none" stroke="#63b8ff" d="M471.85,-111.59C476.46,-104.47 482.96,-94.45 488.62,-85.72"/>
<polygon fill="#63b8ff" stroke="#63b8ff" points="491.4,-87.86 493.9,-77.57 485.52,-84.06 491.4,-87.86"/>
</a>
</g>
</g>
<!-- Node17&#45;&gt;Node5 -->
<g id="edge20_Node000017_Node000005" class="edge">
<title>Node17&#45;&gt;Node5</title>
<g id="a_edge20_Node000017_Node000005"><a xlink:title=" ">
<path fill="none" stroke="#63b8ff" d="M486.83,-111.59C505.71,-103.17 533.67,-90.69 555.21,-81.07"/>
<polygon fill="#63b8ff" stroke="#63b8ff" points="556.42,-84.37 564.13,-77.1 553.57,-77.98 556.42,-84.37"/>
</a>
</g>
</g>
<!-- Node17&#45;&gt;Node6 -->
<g id="edge21_Node000017_Node000006" class="edge">
<title>Node17&#45;&gt;Node6</title>
<g id="a_edge21_Node000017_Node000006"><a xlink:title=" ">
<path fill="none" stroke="#63b8ff" d="M442.8,-116.82C401.73,-109.31 312.68,-92.93 227.72,-76.56"/>
<polygon fill="#63b8ff" stroke="#63b8ff" points="228.55,-73.15 218.07,-74.69 227.22,-80.03 228.55,-73.15"/>
</a>
</g>
</g>
<!-- Node17&#45;&gt;Node7 -->
<g id="edge22_Node000017_Node000007" class="edge">
<title>Node17&#45;&gt;Node7</title>
<g id="a_edge22_Node000017_Node000007"><a xlink:title=" ">
<path fill="none" stroke="#63b8ff" d="M442.73,-114.59C411.79,-105.98 356.12,-90.48 316.72,-79.52"/>
<polygon fill="#63b8ff" stroke="#63b8ff" points="317.85,-76.2 307.27,-76.89 315.97,-82.94 317.85,-76.2"/>
</a>
</g>
</g>
<!-- Node17&#45;&gt;Node8 -->
<g id="edge23_Node000017_Node000008" class="edge">
<title>Node17&#45;&gt;Node8</title>
<g id="a_edge23_Node000017_Node000008"><a xlink:title=" ">
<path fill="none" stroke="#63b8ff" d="M446.42,-111.59C429.33,-103.28 404.15,-91.03 384.5,-81.47"/>
<polygon fill="#63b8ff" stroke="#63b8ff" points="386.12,-78.37 375.6,-77.14 383.06,-84.66 386.12,-78.37"/>
</a>
</g>
</g>
<!-- Node19 -->
<g id="Node000019" class="node">
<title>Node19</title>
<g id="a_Node000019"><a xlink:href="utils_8h.html" target="_top" xlink:title=" ">
<polygon fill="white" stroke="#666666" points="652.88,-244 610.62,-244 610.62,-224 652.88,-224 652.88,-244"/>
<text text-anchor="middle" x="631.75" y="-230.5" font-family="Helvetica,sans-Serif" font-size="10.00">utils.h</text>
</a>
</g>
</g>
<!-- Node18&#45;&gt;Node19 -->
<g id="edge26_Node000018_Node000019" class="edge">
<title>Node18&#45;&gt;Node19</title>
<g id="a_edge26_Node000018_Node000019"><a xlink:title=" ">
<path fill="none" stroke="#63b8ff" d="M619.36,-279.59C621.23,-272.86 623.82,-263.53 626.15,-255.15"/>
<polygon fill="#63b8ff" stroke="#63b8ff" points="629.46,-256.33 628.76,-245.76 622.71,-254.46 629.46,-256.33"/>
</a>
</g>
</g>
<!-- Node19&#45;&gt;Node10 -->
<g id="edge28_Node000019_Node000010" class="edge">
<title>Node19&#45;&gt;Node10</title>
<g id="a_edge28_Node000019_Node000010"><a xlink:title=" ">
<path fill="none" stroke="#63b8ff" d="M636.04,-223.77C648.5,-195.46 681.41,-108.59 642.75,-56 619.5,-24.38 574.14,-14.36 540.51,-11.48"/>
<polygon fill="#63b8ff" stroke="#63b8ff" points="540.88,-8 530.67,-10.84 540.42,-14.99 540.88,-8"/>
</a>
</g>
</g>
<!-- Node19&#45;&gt;Node20 -->
<g id="edge27_Node000019_Node000020" class="edge">
<title>Node19&#45;&gt;Node20</title>
<g id="a_edge27_Node000019_Node000020"><a xlink:title=" ">
<path fill="none" stroke="#63b8ff" d="M610.17,-226.32C607.35,-225.51 604.49,-224.71 601.75,-224 529.95,-205.33 511.02,-204.77 438.75,-188 437.37,-187.68 435.97,-187.35 434.55,-187.02"/>
<polygon fill="#63b8ff" stroke="#63b8ff" points="435.66,-183.68 425.12,-184.76 434.03,-190.49 435.66,-183.68"/>
</a>
</g>
</g>
<!-- Node21&#45;&gt;Node16 -->
<g id="edge31_Node000021_Node000016" class="edge">
<title>Node21&#45;&gt;Node16</title>
<g id="a_edge31_Node000021_Node000016"><a xlink:title=" ">
<path fill="none" stroke="#63b8ff" d="M575.93,-223.59C578.99,-216.7 583.26,-207.1 587.05,-198.57"/>
<polygon fill="#63b8ff" stroke="#63b8ff" points="590.14,-200.24 591,-189.68 583.74,-197.4 590.14,-200.24"/>
</a>
</g>
</g>
<!-- Node21&#45;&gt;Node20 -->
<g id="edge32_Node000021_Node000020" class="edge">
<title>Node21&#45;&gt;Node20</title>
<g id="a_edge32_Node000021_Node000020"><a xlink:title=" ">
<path fill="none" stroke="#63b8ff" d="M550.22,-226.16C521,-216.88 468.54,-200.21 434.44,-189.38"/>
<polygon fill="#63b8ff" stroke="#63b8ff" points="435.68,-186.1 425.09,-186.41 433.56,-192.78 435.68,-186.1"/>
</a>
</g>
</g>
<!-- Node21&#45;&gt;Node22 -->
<g id="edge33_Node000021_Node000022" class="edge">
<title>Node21&#45;&gt;Node22</title>
<g id="a_edge33_Node000021_Node000022"><a xlink:title=" ">
<path fill="none" stroke="#63b8ff" d="M555.03,-223.59C540.53,-215.44 519.28,-203.48 502.43,-194"/>
<polygon fill="#63b8ff" stroke="#63b8ff" points="504.35,-191.07 493.92,-189.22 500.92,-197.17 504.35,-191.07"/>
</a>
</g>
</g>
<!-- Node22&#45;&gt;Node17 -->
<g id="edge34_Node000022_Node000017" class="edge">
<title>Node22&#45;&gt;Node17</title>
<g id="a_edge34_Node000022_Node000017"><a xlink:title=" ">
<path fill="none" stroke="#63b8ff" d="M474.01,-167.59C472.77,-160.93 471.07,-151.75 469.54,-143.44"/>
<polygon fill="#63b8ff" stroke="#63b8ff" points="473.01,-142.98 467.75,-133.79 466.13,-144.26 473.01,-142.98"/>
</a>
</g>
</g>
<!-- Node23&#45;&gt;Node20 -->
<g id="edge41_Node000023_Node000020" class="edge">
<title>Node23&#45;&gt;Node20</title>
<g id="a_edge41_Node000023_Node000020"><a xlink:title=" ">
<path fill="none" stroke="#63b8ff" d="M336.65,-335.6C321.64,-328.33 303.56,-316.68 294.75,-300 290.6,-292.14 291.23,-288.16 294.75,-280 311.09,-242.1 349.42,-211.81 375.48,-194.62"/>
<polygon fill="#63b8ff" stroke="#63b8ff" points="377.29,-197.62 383.85,-189.3 373.53,-191.71 377.29,-197.62"/>
</a>
</g>
</g>
<!-- Node24 -->
<g id="Node000024" class="node">
<title>Node24</title>
<g id="a_Node000024"><a xlink:href="_animation_manager_a_n_d_hair_8h.html" target="_top" xlink:title=" ">
<polygon fill="white" stroke="#666666" points="448.25,-300 303.25,-300 303.25,-280 448.25,-280 448.25,-300"/>
<text text-anchor="middle" x="375.75" y="-286.5" font-family="Helvetica,sans-Serif" font-size="10.00">AnimationManagerANDHair.h</text>
</a>
</g>
</g>
<!-- Node23&#45;&gt;Node24 -->
<g id="edge36_Node000023_Node000024" class="edge">
<title>Node23&#45;&gt;Node24</title>
<g id="a_edge36_Node000023_Node000024"><a xlink:title=" ">
<path fill="none" stroke="#63b8ff" d="M363.36,-335.59C365.23,-328.86 367.82,-319.53 370.15,-311.15"/>
<polygon fill="#63b8ff" stroke="#63b8ff" points="373.46,-312.33 372.76,-301.76 366.71,-310.46 373.46,-312.33"/>
</a>
</g>
</g>
<!-- Node23&#45;&gt;Node26 -->
<g id="edge40_Node000023_Node000026" class="edge">
<title>Node23&#45;&gt;Node26</title>
<g id="a_edge40_Node000023_Node000026"><a xlink:title=" ">
<path fill="none" stroke="#63b8ff" d="M333.05,-335.59C307.45,-326.9 269.14,-313.89 240.5,-304.16"/>
<polygon fill="#63b8ff" stroke="#63b8ff" points="241.69,-300.87 231.09,-300.97 239.44,-307.5 241.69,-300.87"/>
</a>
</g>
</g>
<!-- Node24&#45;&gt;Node20 -->
<g id="edge39_Node000024_Node000020" class="edge">
<title>Node24&#45;&gt;Node20</title>
<g id="a_edge39_Node000024_Node000020"><a xlink:title=" ">
<path fill="none" stroke="#63b8ff" d="M375.19,-279.56C374.69,-266.75 374.67,-243.24 379.75,-224 382.1,-215.08 386.28,-205.83 390.37,-198.06"/>
<polygon fill="#63b8ff" stroke="#63b8ff" points="393.3,-199.98 395.15,-189.55 387.2,-196.56 393.3,-199.98"/>
</a>
</g>
</g>
<!-- Node24&#45;&gt;Node25 -->
<g id="edge37_Node000024_Node000025" class="edge">
<title>Node24&#45;&gt;Node25</title>
<g id="a_edge37_Node000024_Node000025"><a xlink:title=" ">
<path fill="none" stroke="#63b8ff" d="M387.25,-279.59C396.71,-271.85 410.35,-260.69 421.62,-251.47"/>
<polygon fill="#63b8ff" stroke="#63b8ff" points="423.69,-254.3 429.21,-245.26 419.26,-248.88 423.69,-254.3"/>
</a>
</g>
</g>
<!-- Node25&#45;&gt;Node22 -->
<g id="edge38_Node000025_Node000022" class="edge">
<title>Node25&#45;&gt;Node22</title>
<g id="a_edge38_Node000025_Node000022"><a xlink:title=" ">
<path fill="none" stroke="#63b8ff" d="M447.67,-223.59C452.11,-216.55 458.33,-206.67 463.79,-198"/>
<polygon fill="#63b8ff" stroke="#63b8ff" points="466.72,-199.91 469.09,-189.58 460.8,-196.18 466.72,-199.91"/>
</a>
</g>
</g>
<!-- Node27&#45;&gt;Node26 -->
<g id="edge44_Node000027_Node000026" class="edge">
<title>Node27&#45;&gt;Node26</title>
<g id="a_edge44_Node000027_Node000026"><a xlink:title=" ">
<path fill="none" stroke="#63b8ff" d="M176.15,-335.59C180.19,-328.55 185.87,-318.67 190.84,-310"/>
<polygon fill="#63b8ff" stroke="#63b8ff" points="193.72,-312.03 195.66,-301.61 187.64,-308.54 193.72,-312.03"/>
</a>
</g>
</g>
<!-- Node28 -->
<g id="Node000028" class="node">
<title>Node28</title>
<g id="a_Node000028"><a xlink:href="_sound_effect_8h.html" target="_top" xlink:title=" ">
<polygon fill="white" stroke="#666666" points="182.5,-244 105,-244 105,-224 182.5,-224 182.5,-244"/>
<text text-anchor="middle" x="143.75" y="-230.5" font-family="Helvetica,sans-Serif" font-size="10.00">SoundEffect.h</text>
</a>
</g>
</g>
<!-- Node27&#45;&gt;Node28 -->
<g id="edge45_Node000027_Node000028" class="edge">
<title>Node27&#45;&gt;Node28</title>
<g id="a_edge45_Node000027_Node000028"><a xlink:title=" ">
<path fill="none" stroke="#63b8ff" d="M164.62,-335.81C159.11,-327.02 151.36,-313.2 147.75,-300 143.81,-285.6 142.87,-268.77 142.89,-255.84"/>
<polygon fill="#63b8ff" stroke="#63b8ff" points="146.38,-256.04 143.11,-245.97 139.38,-255.88 146.38,-256.04"/>
</a>
</g>
</g>
<!-- Node29 -->
<g id="Node000029" class="node">
<title>Node29</title>
<g id="a_Node000029"><a xlink:href="_sound_stream_8h.html" target="_top" xlink:title=" ">
<polygon fill="white" stroke="#666666" points="83.5,-132 0,-132 0,-112 83.5,-112 83.5,-132"/>
<text text-anchor="middle" x="41.75" y="-118.5" font-family="Helvetica,sans-Serif" font-size="10.00">SoundStream.h</text>
</a>
</g>
</g>
<!-- Node27&#45;&gt;Node29 -->
<g id="edge48_Node000027_Node000029" class="edge">
<title>Node27&#45;&gt;Node29</title>
<g id="a_edge48_Node000027_Node000029"><a xlink:title=" ">
<path fill="none" stroke="#63b8ff" d="M162.62,-335.82C142.57,-312.7 90.42,-249.56 62.75,-188 56.26,-173.57 50.84,-156.54 47.12,-143.52"/>
<polygon fill="#63b8ff" stroke="#63b8ff" points="50.52,-142.68 44.51,-133.96 43.77,-144.53 50.52,-142.68"/>
</a>
</g>
</g>
<!-- Node28&#45;&gt;Node9 -->
<g id="edge46_Node000028_Node000009" class="edge">
<title>Node28&#45;&gt;Node9</title>
<g id="a_edge46_Node000028_Node000009"><a xlink:title=" ">
<path fill="none" stroke="#63b8ff" d="M142.54,-223.74C138.23,-190.74 123.54,-78.31 117.44,-31.61"/>
<polygon fill="#63b8ff" stroke="#63b8ff" points="120.93,-31.26 116.16,-21.8 113.99,-32.17 120.93,-31.26"/>
</a>
</g>
</g>
<!-- Node28&#45;&gt;Node20 -->
<g id="edge47_Node000028_Node000020" class="edge">
<title>Node28&#45;&gt;Node20</title>
<g id="a_edge47_Node000028_Node000020"><a xlink:title=" ">
<path fill="none" stroke="#63b8ff" d="M182.93,-224.8C233.62,-214.19 321.02,-195.9 368.58,-185.94"/>
<polygon fill="#63b8ff" stroke="#63b8ff" points="369.21,-189.39 378.28,-183.91 367.78,-182.53 369.21,-189.39"/>
</a>
</g>
</g>
<!-- Node29&#45;&gt;Node9 -->
<g id="edge49_Node000029_Node000009" class="edge">
<title>Node29&#45;&gt;Node9</title>
<g id="a_edge49_Node000029_Node000009"><a xlink:title=" ">
<path fill="none" stroke="#63b8ff" d="M47.97,-111.62C59.99,-93.52 86.58,-53.45 102.34,-29.7"/>
<polygon fill="#63b8ff" stroke="#63b8ff" points="105.09,-31.88 107.7,-21.62 99.26,-28.01 105.09,-31.88"/>
</a>
</g>
</g>
<!-- Node31 -->
<g id="Node000031" class="node">
<title>Node31</title>
<g id="a_Node000031"><a xlink:title=" ">
<polygon fill="#e0e0e0" stroke="#999999" points="435.5,-412 382,-412 382,-392 435.5,-392 435.5,-412"/>
<text text-anchor="middle" x="408.75" y="-398.5" font-family="Helvetica,sans-Serif" font-size="10.00">iostream</text>
</a>
</g>
</g>
<!-- Node30&#45;&gt;Node31 -->
<g id="edge52_Node000030_Node000031" class="edge">
<title>Node30&#45;&gt;Node31</title>
<g id="a_edge52_Node000030_Node000031"><a xlink:title=" ">
<path fill="none" stroke="#63b8ff" d="M408.75,-447.59C408.75,-441.01 408.75,-431.96 408.75,-423.73"/>
<polygon fill="#63b8ff" stroke="#63b8ff" points="412.25,-423.81 408.75,-413.81 405.25,-423.81 412.25,-423.81"/>
</a>
</g>
</g>
</g>
</svg>
