<?xml version="1.0" encoding="UTF-8" standalone="no"?>
<!DOCTYPE svg PUBLIC "-//W3C//DTD SVG 1.1//EN"
 "http://www.w3.org/Graphics/SVG/1.1/DTD/svg11.dtd">
<!-- Generated by graphviz version 12.2.1 (20241206.2353)
 -->
<!-- Title: Celeste/Strawberry.h Pages: 1 -->
<svg width="521pt" height="364pt"
 viewBox="0.00 0.00 520.62 364.00" xmlns="http://www.w3.org/2000/svg" xmlns:xlink="http://www.w3.org/1999/xlink">
<g id="graph0" class="graph" transform="scale(1 1) rotate(0) translate(4 360)">
<title>Celeste/Strawberry.h</title>
<!-- Node1 -->
<g id="Node000001" class="node">
<title>Node1</title>
<g id="a_Node000001"><a xlink:title=" ">
<polygon fill="#999999" stroke="#666666" points="363.38,-356 255.88,-356 255.88,-336 363.38,-336 363.38,-356"/>
<text text-anchor="middle" x="309.62" y="-342.5" font-family="Helvetica,sans-Serif" font-size="10.00">Celeste/Strawberry.h</text>
</a>
</g>
</g>
<!-- Node2 -->
<g id="Node000002" class="node">
<title>Node2</title>
<g id="a_Node000002"><a xlink:href="_chapter_info_8h.html" target="_top" xlink:title=" ">
<polygon fill="white" stroke="#666666" points="270.62,-244 158.62,-244 158.62,-224 270.62,-224 270.62,-244"/>
<text text-anchor="middle" x="214.62" y="-230.5" font-family="Helvetica,sans-Serif" font-size="10.00">Celeste/ChapterInfo.h</text>
</a>
</g>
</g>
<!-- Node1&#45;&gt;Node2 -->
<g id="edge1_Node000001_Node000002" class="edge">
<title>Node1&#45;&gt;Node2</title>
<g id="a_edge1_Node000001_Node000002"><a xlink:title=" ">
<path fill="none" stroke="#63b8ff" d="M273.85,-330.83C259.53,-323.55 243.99,-313.35 233.62,-300 220.65,-283.29 216.52,-257.94 215.22,-244.37"/>
<polygon fill="#63b8ff" stroke="#63b8ff" points="272.07,-333.86 282.61,-334.98 275.07,-327.54 272.07,-333.86"/>
</a>
</g>
</g>
<!-- Node11 -->
<g id="Node000011" class="node">
<title>Node11</title>
<g id="a_Node000011"><a xlink:href="_flying_strawberry_8h.html" target="_top" xlink:title=" ">
<polygon fill="white" stroke="#666666" points="376.5,-300 242.75,-300 242.75,-280 376.5,-280 376.5,-300"/>
<text text-anchor="middle" x="309.62" y="-286.5" font-family="Helvetica,sans-Serif" font-size="10.00">Celeste/FlyingStrawberry.h</text>
</a>
</g>
</g>
<!-- Node1&#45;&gt;Node11 -->
<g id="edge10_Node000001_Node000011" class="edge">
<title>Node1&#45;&gt;Node11</title>
<g id="a_edge10_Node000001_Node000011"><a xlink:title=" ">
<path fill="none" stroke="#63b8ff" d="M309.62,-324.13C309.62,-315.9 309.62,-306.85 309.62,-300.3"/>
<polygon fill="#63b8ff" stroke="#63b8ff" points="306.13,-324.08 309.63,-334.08 313.13,-324.08 306.13,-324.08"/>
</a>
</g>
</g>
<!-- Node13 -->
<g id="Node000013" class="node">
<title>Node13</title>
<g id="a_Node000013"><a xlink:href="_strawberry_8cpp.html" target="_top" xlink:title=" ">
<polygon fill="white" stroke="#666666" points="512.62,-300 394.62,-300 394.62,-280 512.62,-280 512.62,-300"/>
<text text-anchor="middle" x="453.62" y="-286.5" font-family="Helvetica,sans-Serif" font-size="10.00">Celeste/Strawberry.cpp</text>
</a>
</g>
</g>
<!-- Node1&#45;&gt;Node13 -->
<g id="edge13_Node000001_Node000013" class="edge">
<title>Node1&#45;&gt;Node13</title>
<g id="a_edge13_Node000001_Node000013"><a xlink:title=" ">
<path fill="none" stroke="#63b8ff" d="M345.19,-331.66C371,-321.98 405.3,-309.12 428.35,-300.48"/>
<polygon fill="#63b8ff" stroke="#63b8ff" points="344.26,-328.27 336.13,-335.06 346.72,-334.83 344.26,-328.27"/>
</a>
</g>
</g>
<!-- Node3 -->
<g id="Node000003" class="node">
<title>Node3</title>
<g id="a_Node000003"><a xlink:href="_chapter_loader_8h.html" target="_top" xlink:title=" ">
<polygon fill="white" stroke="#666666" points="277,-188 152.25,-188 152.25,-168 277,-168 277,-188"/>
<text text-anchor="middle" x="214.62" y="-174.5" font-family="Helvetica,sans-Serif" font-size="10.00">Celeste/ChapterLoader.h</text>
</a>
</g>
</g>
<!-- Node2&#45;&gt;Node3 -->
<g id="edge2_Node000002_Node000003" class="edge">
<title>Node2&#45;&gt;Node3</title>
<g id="a_edge2_Node000002_Node000003"><a xlink:title=" ">
<path fill="none" stroke="#63b8ff" d="M214.62,-212.13C214.62,-203.9 214.62,-194.85 214.62,-188.3"/>
<polygon fill="#63b8ff" stroke="#63b8ff" points="211.13,-212.08 214.63,-222.08 218.13,-212.08 211.13,-212.08"/>
</a>
</g>
</g>
<!-- Node4 -->
<g id="Node000004" class="node">
<title>Node4</title>
<g id="a_Node000004"><a xlink:href="_chapter_loader_8cpp.html" target="_top" xlink:title=" ">
<polygon fill="white" stroke="#666666" points="135.25,-132 0,-132 0,-112 135.25,-112 135.25,-132"/>
<text text-anchor="middle" x="67.62" y="-118.5" font-family="Helvetica,sans-Serif" font-size="10.00">Celeste/ChapterLoader.cpp</text>
</a>
</g>
</g>
<!-- Node3&#45;&gt;Node4 -->
<g id="edge3_Node000003_Node000004" class="edge">
<title>Node3&#45;&gt;Node4</title>
<g id="a_edge3_Node000003_Node000004"><a xlink:title=" ">
<path fill="none" stroke="#63b8ff" d="M178.32,-163.66C151.97,-153.98 116.96,-141.12 93.43,-132.48"/>
<polygon fill="#63b8ff" stroke="#63b8ff" points="177.01,-166.91 187.6,-167.07 179.42,-160.34 177.01,-166.91"/>
</a>
</g>
</g>
<!-- Node5 -->
<g id="Node000005" class="node">
<title>Node5</title>
<g id="a_Node000005"><a xlink:href="_level_manager_8h.html" target="_top" xlink:title=" ">
<polygon fill="white" stroke="#666666" points="275.5,-132 153.75,-132 153.75,-112 275.5,-112 275.5,-132"/>
<text text-anchor="middle" x="214.62" y="-118.5" font-family="Helvetica,sans-Serif" font-size="10.00">Celeste/LevelManager.h</text>
</a>
</g>
</g>
<!-- Node3&#45;&gt;Node5 -->
<g id="edge4_Node000003_Node000005" class="edge">
<title>Node3&#45;&gt;Node5</title>
<g id="a_edge4_Node000003_Node000005"><a xlink:title=" ">
<path fill="none" stroke="#63b8ff" d="M214.62,-156.13C214.62,-147.9 214.62,-138.85 214.62,-132.3"/>
<polygon fill="#63b8ff" stroke="#63b8ff" points="211.13,-156.08 214.63,-166.08 218.13,-156.08 211.13,-156.08"/>
</a>
</g>
</g>
<!-- Node10 -->
<g id="Node000010" class="node">
<title>Node10</title>
<g id="a_Node000010"><a xlink:href="_pause_menu_8cpp.html" target="_top" xlink:title=" ">
<polygon fill="white" stroke="#666666" points="417.25,-132 294,-132 294,-112 417.25,-112 417.25,-132"/>
<text text-anchor="middle" x="355.62" y="-118.5" font-family="Helvetica,sans-Serif" font-size="10.00">Celeste/PauseMenu.cpp</text>
</a>
</g>
</g>
<!-- Node3&#45;&gt;Node10 -->
<g id="edge9_Node000003_Node000010" class="edge">
<title>Node3&#45;&gt;Node10</title>
<g id="a_edge9_Node000003_Node000010"><a xlink:title=" ">
<path fill="none" stroke="#63b8ff" d="M249.79,-163.53C275.03,-153.87 308.4,-141.08 330.87,-132.48"/>
<polygon fill="#63b8ff" stroke="#63b8ff" points="248.69,-160.21 240.6,-167.05 251.19,-166.74 248.69,-160.21"/>
</a>
</g>
</g>
<!-- Node6 -->
<g id="Node000006" class="node">
<title>Node6</title>
<g id="a_Node000006"><a xlink:href="_game_8h.html" target="_top" xlink:title=" ">
<polygon fill="white" stroke="#666666" points="194.25,-76 107,-76 107,-56 194.25,-56 194.25,-76"/>
<text text-anchor="middle" x="150.62" y="-62.5" font-family="Helvetica,sans-Serif" font-size="10.00">Celeste/Game.h</text>
</a>
</g>
</g>
<!-- Node5&#45;&gt;Node6 -->
<g id="edge5_Node000005_Node000006" class="edge">
<title>Node5&#45;&gt;Node6</title>
<g id="a_edge5_Node000005_Node000006"><a xlink:title=" ">
<path fill="none" stroke="#63b8ff" d="M194.95,-104.4C184.01,-95.17 170.78,-84.01 161.65,-76.3"/>
<polygon fill="#63b8ff" stroke="#63b8ff" points="192.42,-106.84 202.32,-110.62 196.93,-101.49 192.42,-106.84"/>
</a>
</g>
</g>
<!-- Node9 -->
<g id="Node000009" class="node">
<title>Node9</title>
<g id="a_Node000009"><a xlink:href="_level_manager_8cpp.html" target="_top" xlink:title=" ">
<polygon fill="white" stroke="#666666" points="344.75,-76 212.5,-76 212.5,-56 344.75,-56 344.75,-76"/>
<text text-anchor="middle" x="278.62" y="-62.5" font-family="Helvetica,sans-Serif" font-size="10.00">Celeste/LevelManager.cpp</text>
</a>
</g>
</g>
<!-- Node5&#45;&gt;Node9 -->
<g id="edge8_Node000005_Node000009" class="edge">
<title>Node5&#45;&gt;Node9</title>
<g id="a_edge8_Node000005_Node000009"><a xlink:title=" ">
<path fill="none" stroke="#63b8ff" d="M234.3,-104.4C245.24,-95.17 258.47,-84.01 267.6,-76.3"/>
<polygon fill="#63b8ff" stroke="#63b8ff" points="232.32,-101.49 226.93,-110.62 236.83,-106.84 232.32,-101.49"/>
</a>
</g>
</g>
<!-- Node7 -->
<g id="Node000007" class="node">
<title>Node7</title>
<g id="a_Node000007"><a xlink:href="_game_8cpp.html" target="_top" xlink:title=" ">
<polygon fill="white" stroke="#666666" points="143.5,-20 45.75,-20 45.75,0 143.5,0 143.5,-20"/>
<text text-anchor="middle" x="94.62" y="-6.5" font-family="Helvetica,sans-Serif" font-size="10.00">Celeste/Game.cpp</text>
</a>
</g>
</g>
<!-- Node6&#45;&gt;Node7 -->
<g id="edge6_Node000006_Node000007" class="edge">
<title>Node6&#45;&gt;Node7</title>
<g id="a_edge6_Node000006_Node000007"><a xlink:title=" ">
<path fill="none" stroke="#63b8ff" d="M132.84,-47.85C123.37,-38.72 112.1,-27.86 104.27,-20.3"/>
<polygon fill="#63b8ff" stroke="#63b8ff" points="130.15,-50.12 139.78,-54.54 135.01,-45.08 130.15,-50.12"/>
</a>
</g>
</g>
<!-- Node8 -->
<g id="Node000008" class="node">
<title>Node8</title>
<g id="a_Node000008"><a xlink:href="main_8cpp.html" target="_top" xlink:title=" ">
<polygon fill="white" stroke="#666666" points="253.88,-20 161.38,-20 161.38,0 253.88,0 253.88,-20"/>
<text text-anchor="middle" x="207.62" y="-6.5" font-family="Helvetica,sans-Serif" font-size="10.00">Celeste/main.cpp</text>
</a>
</g>
</g>
<!-- Node6&#45;&gt;Node8 -->
<g id="edge7_Node000006_Node000008" class="edge">
<title>Node6&#45;&gt;Node8</title>
<g id="a_edge7_Node000006_Node000008"><a xlink:title=" ">
<path fill="none" stroke="#63b8ff" d="M168.73,-47.85C178.36,-38.72 189.83,-27.86 197.81,-20.3"/>
<polygon fill="#63b8ff" stroke="#63b8ff" points="166.5,-45.13 161.65,-54.55 171.32,-50.22 166.5,-45.13"/>
</a>
</g>
</g>
<!-- Node11&#45;&gt;Node2 -->
<g id="edge11_Node000011_Node000002" class="edge">
<title>Node11&#45;&gt;Node2</title>
<g id="a_edge11_Node000011_Node000002"><a xlink:title=" ">
<path fill="none" stroke="#63b8ff" d="M283.38,-274.08C266.73,-264.62 245.69,-252.66 231.3,-244.48"/>
<polygon fill="#63b8ff" stroke="#63b8ff" points="281.34,-276.95 291.76,-278.85 284.8,-270.86 281.34,-276.95"/>
</a>
</g>
</g>
<!-- Node12 -->
<g id="Node000012" class="node">
<title>Node12</title>
<g id="a_Node000012"><a xlink:href="_flying_strawberry_8cpp.html" target="_top" xlink:title=" ">
<polygon fill="white" stroke="#666666" points="432.75,-244 288.5,-244 288.5,-224 432.75,-224 432.75,-244"/>
<text text-anchor="middle" x="360.62" y="-230.5" font-family="Helvetica,sans-Serif" font-size="10.00">Celeste/FlyingStrawberry.cpp</text>
</a>
</g>
</g>
<!-- Node11&#45;&gt;Node12 -->
<g id="edge12_Node000011_Node000012" class="edge">
<title>Node11&#45;&gt;Node12</title>
<g id="a_edge12_Node000011_Node000012"><a xlink:title=" ">
<path fill="none" stroke="#63b8ff" d="M326.36,-271.29C334.86,-262.28 344.85,-251.7 351.84,-244.3"/>
<polygon fill="#63b8ff" stroke="#63b8ff" points="323.87,-268.82 319.55,-278.49 328.96,-273.63 323.87,-268.82"/>
</a>
</g>
</g>
</g>
</svg>
