<?xml version="1.0" encoding="UTF-8" standalone="no"?>
<!DOCTYPE svg PUBLIC "-//W3C//DTD SVG 1.1//EN"
 "http://www.w3.org/Graphics/SVG/1.1/DTD/svg11.dtd">
<!-- Generated by graphviz version 12.2.1 (20241206.2353)
 -->
<!-- Title: Engine/Texture.cpp Pages: 1 -->
<svg width="502pt" height="252pt"
 viewBox="0.00 0.00 501.82 252.00" xmlns="http://www.w3.org/2000/svg" xmlns:xlink="http://www.w3.org/1999/xlink">
<g id="graph0" class="graph" transform="scale(1 1) rotate(0) translate(4 248)">
<title>Engine/Texture.cpp</title>
<!-- Node1 -->
<g id="Node000001" class="node">
<title>Node1</title>
<g id="a_Node000001"><a xlink:title=" ">
<polygon fill="#999999" stroke="#666666" points="178.94,-244 78.94,-244 78.94,-224 178.94,-224 178.94,-244"/>
<text text-anchor="middle" x="128.94" y="-230.5" font-family="Helvetica,sans-Serif" font-size="10.00">Engine/Texture.cpp</text>
</a>
</g>
</g>
<!-- Node2 -->
<g id="Node000002" class="node">
<title>Node2</title>
<g id="a_Node000002"><a xlink:href="base_8h.html" target="_top" xlink:title=" ">
<polygon fill="white" stroke="#666666" points="252.57,-132 207.32,-132 207.32,-112 252.57,-112 252.57,-132"/>
<text text-anchor="middle" x="229.94" y="-118.5" font-family="Helvetica,sans-Serif" font-size="10.00">base.h</text>
</a>
</g>
</g>
<!-- Node1&#45;&gt;Node2 -->
<g id="edge1_Node000001_Node000002" class="edge">
<title>Node1&#45;&gt;Node2</title>
<g id="a_edge1_Node000001_Node000002"><a xlink:title=" ">
<path fill="none" stroke="#63b8ff" d="M124.24,-223.71C118.14,-210.23 109.56,-185.01 120.94,-168 137.53,-143.21 170.54,-132.06 195.91,-127.06"/>
<polygon fill="#63b8ff" stroke="#63b8ff" points="196.18,-130.56 205.45,-125.42 195,-123.66 196.18,-130.56"/>
</a>
</g>
</g>
<!-- Node9 -->
<g id="Node000009" class="node">
<title>Node9</title>
<g id="a_Node000009"><a xlink:title=" ">
<polygon fill="#e0e0e0" stroke="#999999" points="184.94,-20 144.94,-20 144.94,0 184.94,0 184.94,-20"/>
<text text-anchor="middle" x="164.94" y="-6.5" font-family="Helvetica,sans-Serif" font-size="10.00">string</text>
</a>
</g>
</g>
<!-- Node1&#45;&gt;Node9 -->
<g id="edge12_Node000001_Node000009" class="edge">
<title>Node1&#45;&gt;Node9</title>
<g id="a_edge12_Node000001_Node000009"><a xlink:title=" ">
<path fill="none" stroke="#63b8ff" d="M113.9,-223.53C72.99,-196.61 -34.18,-117.64 11.94,-56 26.51,-36.53 93.12,-22.59 133.5,-15.76"/>
<polygon fill="#63b8ff" stroke="#63b8ff" points="133.81,-19.26 143.12,-14.19 132.69,-12.35 133.81,-19.26"/>
</a>
</g>
</g>
<!-- Node11 -->
<g id="Node000011" class="node">
<title>Node11</title>
<g id="a_Node000011"><a xlink:title=" ">
<polygon fill="#e0e0e0" stroke="#999999" points="183.69,-188 130.19,-188 130.19,-168 183.69,-168 183.69,-188"/>
<text text-anchor="middle" x="156.94" y="-174.5" font-family="Helvetica,sans-Serif" font-size="10.00">iostream</text>
</a>
</g>
</g>
<!-- Node1&#45;&gt;Node11 -->
<g id="edge11_Node000001_Node000011" class="edge">
<title>Node1&#45;&gt;Node11</title>
<g id="a_edge11_Node000001_Node000011"><a xlink:title=" ">
<path fill="none" stroke="#63b8ff" d="M133.82,-223.59C137.43,-216.63 142.48,-206.89 146.94,-198.29"/>
<polygon fill="#63b8ff" stroke="#63b8ff" points="149.93,-200.13 151.42,-189.64 143.71,-196.91 149.93,-200.13"/>
</a>
</g>
</g>
<!-- Node12 -->
<g id="Node000012" class="node">
<title>Node12</title>
<g id="a_Node000012"><a xlink:href="_texture_8h.html" target="_top" xlink:title=" ">
<polygon fill="white" stroke="#666666" points="258.19,-188 201.69,-188 201.69,-168 258.19,-168 258.19,-188"/>
<text text-anchor="middle" x="229.94" y="-174.5" font-family="Helvetica,sans-Serif" font-size="10.00">Texture.h</text>
</a>
</g>
</g>
<!-- Node1&#45;&gt;Node12 -->
<g id="edge13_Node000001_Node000012" class="edge">
<title>Node1&#45;&gt;Node12</title>
<g id="a_edge13_Node000001_Node000012"><a xlink:title=" ">
<path fill="none" stroke="#63b8ff" d="M146.54,-223.59C161.87,-215.4 184.36,-203.37 202.13,-193.87"/>
<polygon fill="#63b8ff" stroke="#63b8ff" points="203.71,-196.99 210.88,-189.19 200.41,-190.82 203.71,-196.99"/>
</a>
</g>
</g>
<!-- Node3 -->
<g id="Node000003" class="node">
<title>Node3</title>
<g id="a_Node000003"><a xlink:title=" ">
<polygon fill="#e0e0e0" stroke="#999999" points="493.82,-76 450.07,-76 450.07,-56 493.82,-56 493.82,-76"/>
<text text-anchor="middle" x="471.94" y="-62.5" font-family="Helvetica,sans-Serif" font-size="10.00">SDL.h</text>
</a>
</g>
</g>
<!-- Node2&#45;&gt;Node3 -->
<g id="edge2_Node000002_Node000003" class="edge">
<title>Node2&#45;&gt;Node3</title>
<g id="a_edge2_Node000002_Node000003"><a xlink:title=" ">
<path fill="none" stroke="#63b8ff" d="M252.86,-116.68C289.92,-109.57 365.49,-94.57 438.84,-76.39"/>
<polygon fill="#63b8ff" stroke="#63b8ff" points="439.33,-79.88 448.18,-74.05 437.63,-73.09 439.33,-79.88"/>
</a>
</g>
</g>
<!-- Node4 -->
<g id="Node000004" class="node">
<title>Node4</title>
<g id="a_Node000004"><a xlink:title=" ">
<polygon fill="#e0e0e0" stroke="#999999" points="98.69,-76 21.19,-76 21.19,-56 98.69,-56 98.69,-76"/>
<text text-anchor="middle" x="59.94" y="-62.5" font-family="Helvetica,sans-Serif" font-size="10.00">SDL_opengl.h</text>
</a>
</g>
</g>
<!-- Node2&#45;&gt;Node4 -->
<g id="edge3_Node000002_Node000004" class="edge">
<title>Node2&#45;&gt;Node4</title>
<g id="a_edge3_Node000002_Node000004"><a xlink:title=" ">
<path fill="none" stroke="#63b8ff" d="M207.02,-113.72C179.74,-105.05 133.71,-90.43 100.4,-79.85"/>
<polygon fill="#63b8ff" stroke="#63b8ff" points="101.67,-76.58 91.08,-76.89 99.55,-83.25 101.67,-76.58"/>
</a>
</g>
</g>
<!-- Node5 -->
<g id="Node000005" class="node">
<title>Node5</title>
<g id="a_Node000005"><a xlink:title=" ">
<polygon fill="#e0e0e0" stroke="#999999" points="174.94,-76 116.94,-76 116.94,-56 174.94,-56 174.94,-76"/>
<text text-anchor="middle" x="145.94" y="-62.5" font-family="Helvetica,sans-Serif" font-size="10.00">SDL_ttf.h</text>
</a>
</g>
</g>
<!-- Node2&#45;&gt;Node5 -->
<g id="edge4_Node000002_Node000005" class="edge">
<title>Node2&#45;&gt;Node5</title>
<g id="a_edge4_Node000002_Node000005"><a xlink:title=" ">
<path fill="none" stroke="#63b8ff" d="M215.31,-111.59C202.86,-103.59 184.73,-91.93 170.12,-82.54"/>
<polygon fill="#63b8ff" stroke="#63b8ff" points="172.27,-79.76 161.96,-77.3 168.48,-85.65 172.27,-79.76"/>
</a>
</g>
</g>
<!-- Node6 -->
<g id="Node000006" class="node">
<title>Node6</title>
<g id="a_Node000006"><a xlink:title=" ">
<polygon fill="#e0e0e0" stroke="#999999" points="266.44,-76 193.44,-76 193.44,-56 266.44,-56 266.44,-76"/>
<text text-anchor="middle" x="229.94" y="-62.5" font-family="Helvetica,sans-Serif" font-size="10.00">SDL_mixer.h</text>
</a>
</g>
</g>
<!-- Node2&#45;&gt;Node6 -->
<g id="edge5_Node000002_Node000006" class="edge">
<title>Node2&#45;&gt;Node6</title>
<g id="a_edge5_Node000002_Node000006"><a xlink:title=" ">
<path fill="none" stroke="#63b8ff" d="M229.94,-111.59C229.94,-105.01 229.94,-95.96 229.94,-87.73"/>
<polygon fill="#63b8ff" stroke="#63b8ff" points="233.44,-87.81 229.94,-77.81 226.44,-87.81 233.44,-87.81"/>
</a>
</g>
</g>
<!-- Node7 -->
<g id="Node000007" class="node">
<title>Node7</title>
<g id="a_Node000007"><a xlink:title=" ">
<polygon fill="#e0e0e0" stroke="#999999" points="359.57,-76 284.32,-76 284.32,-56 359.57,-56 359.57,-76"/>
<text text-anchor="middle" x="321.94" y="-62.5" font-family="Helvetica,sans-Serif" font-size="10.00">SDL_image.h</text>
</a>
</g>
</g>
<!-- Node2&#45;&gt;Node7 -->
<g id="edge6_Node000002_Node000007" class="edge">
<title>Node2&#45;&gt;Node7</title>
<g id="a_edge6_Node000002_Node000007"><a xlink:title=" ">
<path fill="none" stroke="#63b8ff" d="M245.97,-111.59C259.74,-103.51 279.85,-91.71 295.92,-82.27"/>
<polygon fill="#63b8ff" stroke="#63b8ff" points="297.64,-85.33 304.49,-77.25 294.09,-79.29 297.64,-85.33"/>
</a>
</g>
</g>
<!-- Node8 -->
<g id="Node000008" class="node">
<title>Node8</title>
<g id="a_Node000008"><a xlink:href="structs_8h.html" target="_top" xlink:title=" ">
<polygon fill="white" stroke="#666666" points="432.07,-76 377.82,-76 377.82,-56 432.07,-56 432.07,-76"/>
<text text-anchor="middle" x="404.94" y="-62.5" font-family="Helvetica,sans-Serif" font-size="10.00">structs.h</text>
</a>
</g>
</g>
<!-- Node2&#45;&gt;Node8 -->
<g id="edge7_Node000002_Node000008" class="edge">
<title>Node2&#45;&gt;Node8</title>
<g id="a_edge7_Node000002_Node000008"><a xlink:title=" ">
<path fill="none" stroke="#63b8ff" d="M252.82,-113.94C281.75,-105.01 331.96,-89.52 366.74,-78.79"/>
<polygon fill="#63b8ff" stroke="#63b8ff" points="367.48,-82.22 376,-75.93 365.42,-75.53 367.48,-82.22"/>
</a>
</g>
</g>
<!-- Node8&#45;&gt;Node9 -->
<g id="edge8_Node000008_Node000009" class="edge">
<title>Node8&#45;&gt;Node9</title>
<g id="a_edge8_Node000008_Node000009"><a xlink:title=" ">
<path fill="none" stroke="#63b8ff" d="M377.44,-58.04C374.58,-57.34 371.7,-56.65 368.94,-56 308.02,-41.67 236.54,-26.21 196.42,-17.66"/>
<polygon fill="#63b8ff" stroke="#63b8ff" points="197.24,-14.26 186.73,-15.6 195.79,-21.1 197.24,-14.26"/>
</a>
</g>
</g>
<!-- Node10 -->
<g id="Node000010" class="node">
<title>Node10</title>
<g id="a_Node000010"><a xlink:href="_vector2f_8h.html" target="_top" xlink:title=" ">
<polygon fill="white" stroke="#666666" points="435.07,-20 374.82,-20 374.82,0 435.07,0 435.07,-20"/>
<text text-anchor="middle" x="404.94" y="-6.5" font-family="Helvetica,sans-Serif" font-size="10.00">Vector2f.h</text>
</a>
</g>
</g>
<!-- Node8&#45;&gt;Node10 -->
<g id="edge9_Node000008_Node000010" class="edge">
<title>Node8&#45;&gt;Node10</title>
<g id="a_edge9_Node000008_Node000010"><a xlink:title=" ">
<path fill="none" stroke="#63b8ff" d="M399.68,-55.59C398.36,-49.01 397.92,-39.96 398.36,-31.73"/>
<polygon fill="#63b8ff" stroke="#63b8ff" points="401.83,-32.14 399.52,-21.8 394.88,-31.33 401.83,-32.14"/>
</a>
</g>
</g>
<!-- Node10&#45;&gt;Node8 -->
<g id="edge10_Node000010_Node000008" class="edge">
<title>Node10&#45;&gt;Node8</title>
<g id="a_edge10_Node000010_Node000008"><a xlink:title=" ">
<path fill="none" stroke="#63b8ff" d="M410.19,-20.3C411.53,-26.93 411.98,-36.11 411.52,-44.43"/>
<polygon fill="#63b8ff" stroke="#63b8ff" points="408.08,-43.75 410.39,-54.09 415.03,-44.57 408.08,-43.75"/>
</a>
</g>
</g>
<!-- Node12&#45;&gt;Node2 -->
<g id="edge14_Node000012_Node000002" class="edge">
<title>Node12&#45;&gt;Node2</title>
<g id="a_edge14_Node000012_Node000002"><a xlink:title=" ">
<path fill="none" stroke="#63b8ff" d="M229.94,-167.59C229.94,-161.01 229.94,-151.96 229.94,-143.73"/>
<polygon fill="#63b8ff" stroke="#63b8ff" points="233.44,-143.81 229.94,-133.81 226.44,-143.81 233.44,-143.81"/>
</a>
</g>
</g>
</g>
</svg>
