<?xml version="1.0" encoding="UTF-8" standalone="no"?>
<!DOCTYPE svg PUBLIC "-//W3C//DTD SVG 1.1//EN"
 "http://www.w3.org/Graphics/SVG/1.1/DTD/svg11.dtd">
<!-- Generated by graphviz version 12.2.1 (20241206.2353)
 -->
<!-- Title: Engine/Vector2f.cpp Pages: 1 -->
<svg width="827pt" height="196pt"
 viewBox="0.00 0.00 826.62 196.00" xmlns="http://www.w3.org/2000/svg" xmlns:xlink="http://www.w3.org/1999/xlink">
<g id="graph0" class="graph" transform="scale(1 1) rotate(0) translate(4 192)">
<title>Engine/Vector2f.cpp</title>
<!-- Node1 -->
<g id="Node000001" class="node">
<title>Node1</title>
<g id="a_Node000001"><a xlink:title=" ">
<polygon fill="#999999" stroke="#666666" points="640.62,-188 536.88,-188 536.88,-168 640.62,-168 640.62,-188"/>
<text text-anchor="middle" x="588.75" y="-174.5" font-family="Helvetica,sans-Serif" font-size="10.00">Engine/Vector2f.cpp</text>
</a>
</g>
</g>
<!-- Node2 -->
<g id="Node000002" class="node">
<title>Node2</title>
<g id="a_Node000002"><a xlink:href="base_8h.html" target="_top" xlink:title=" ">
<polygon fill="white" stroke="#666666" points="323.38,-132 278.12,-132 278.12,-112 323.38,-112 323.38,-132"/>
<text text-anchor="middle" x="300.75" y="-118.5" font-family="Helvetica,sans-Serif" font-size="10.00">base.h</text>
</a>
</g>
</g>
<!-- Node1&#45;&gt;Node2 -->
<g id="edge1_Node000001_Node000002" class="edge">
<title>Node1&#45;&gt;Node2</title>
<g id="a_edge1_Node000001_Node000002"><a xlink:title=" ">
<path fill="none" stroke="#63b8ff" d="M538.25,-167.53C479.86,-156.58 385.32,-138.86 334.93,-129.41"/>
<polygon fill="#63b8ff" stroke="#63b8ff" points="335.67,-125.99 325.19,-127.58 334.38,-132.87 335.67,-125.99"/>
</a>
</g>
</g>
<!-- Node9 -->
<g id="Node000009" class="node">
<title>Node9</title>
<g id="a_Node000009"><a xlink:title=" ">
<polygon fill="#e0e0e0" stroke="#999999" points="448.75,-20 408.75,-20 408.75,0 448.75,0 448.75,-20"/>
<text text-anchor="middle" x="428.75" y="-6.5" font-family="Helvetica,sans-Serif" font-size="10.00">string</text>
</a>
</g>
</g>
<!-- Node1&#45;&gt;Node9 -->
<g id="edge12_Node000001_Node000009" class="edge">
<title>Node1&#45;&gt;Node9</title>
<g id="a_edge12_Node000001_Node000009"><a xlink:title=" ">
<path fill="none" stroke="#63b8ff" d="M567.65,-167.52C536.71,-152.54 479.28,-120.46 447.75,-76 438.38,-62.78 433.59,-44.96 431.17,-31.32"/>
<polygon fill="#63b8ff" stroke="#63b8ff" points="434.67,-31.11 429.76,-21.72 427.75,-32.12 434.67,-31.11"/>
</a>
</g>
</g>
<!-- Node10 -->
<g id="Node000010" class="node">
<title>Node10</title>
<g id="a_Node000010"><a xlink:href="_vector2f_8h.html" target="_top" xlink:title=" ">
<polygon fill="white" stroke="#666666" points="526.88,-20 466.62,-20 466.62,0 526.88,0 526.88,-20"/>
<text text-anchor="middle" x="496.75" y="-6.5" font-family="Helvetica,sans-Serif" font-size="10.00">Vector2f.h</text>
</a>
</g>
</g>
<!-- Node1&#45;&gt;Node10 -->
<g id="edge16_Node000001_Node000010" class="edge">
<title>Node1&#45;&gt;Node10</title>
<g id="a_edge16_Node000001_Node000010"><a xlink:title=" ">
<path fill="none" stroke="#63b8ff" d="M581.99,-167.55C575.68,-158.58 566.16,-144.63 558.75,-132 558.04,-130.79 524.06,-64.4 506.72,-30.49"/>
<polygon fill="#63b8ff" stroke="#63b8ff" points="509.9,-29.03 502.23,-21.72 503.67,-32.22 509.9,-29.03"/>
</a>
</g>
</g>
<!-- Node11 -->
<g id="Node000011" class="node">
<title>Node11</title>
<g id="a_Node000011"><a xlink:title=" ">
<polygon fill="#e0e0e0" stroke="#999999" points="610.25,-132 567.25,-132 567.25,-112 610.25,-112 610.25,-132"/>
<text text-anchor="middle" x="588.75" y="-118.5" font-family="Helvetica,sans-Serif" font-size="10.00">cmath</text>
</a>
</g>
</g>
<!-- Node1&#45;&gt;Node11 -->
<g id="edge11_Node000001_Node000011" class="edge">
<title>Node1&#45;&gt;Node11</title>
<g id="a_edge11_Node000001_Node000011"><a xlink:title=" ">
<path fill="none" stroke="#63b8ff" d="M588.75,-167.59C588.75,-161.01 588.75,-151.96 588.75,-143.73"/>
<polygon fill="#63b8ff" stroke="#63b8ff" points="592.25,-143.81 588.75,-133.81 585.25,-143.81 592.25,-143.81"/>
</a>
</g>
</g>
<!-- Node12 -->
<g id="Node000012" class="node">
<title>Node12</title>
<g id="a_Node000012"><a xlink:title=" ">
<polygon fill="#e0e0e0" stroke="#999999" points="681.5,-132 628,-132 628,-112 681.5,-112 681.5,-132"/>
<text text-anchor="middle" x="654.75" y="-118.5" font-family="Helvetica,sans-Serif" font-size="10.00">iostream</text>
</a>
</g>
</g>
<!-- Node1&#45;&gt;Node12 -->
<g id="edge13_Node000001_Node000012" class="edge">
<title>Node1&#45;&gt;Node12</title>
<g id="a_edge13_Node000001_Node000012"><a xlink:title=" ">
<path fill="none" stroke="#63b8ff" d="M600.25,-167.59C609.71,-159.85 623.35,-148.69 634.62,-139.47"/>
<polygon fill="#63b8ff" stroke="#63b8ff" points="636.69,-142.3 642.21,-133.26 632.26,-136.88 636.69,-142.3"/>
</a>
</g>
</g>
<!-- Node13 -->
<g id="Node000013" class="node">
<title>Node13</title>
<g id="a_Node000013"><a xlink:title=" ">
<polygon fill="#e0e0e0" stroke="#999999" points="750.38,-132 699.12,-132 699.12,-112 750.38,-112 750.38,-132"/>
<text text-anchor="middle" x="724.75" y="-118.5" font-family="Helvetica,sans-Serif" font-size="10.00">sstream</text>
</a>
</g>
</g>
<!-- Node1&#45;&gt;Node13 -->
<g id="edge14_Node000001_Node000013" class="edge">
<title>Node1&#45;&gt;Node13</title>
<g id="a_edge14_Node000001_Node000013"><a xlink:title=" ">
<path fill="none" stroke="#63b8ff" d="M612.44,-167.59C633.95,-159.05 665.95,-146.35 690.29,-136.68"/>
<polygon fill="#63b8ff" stroke="#63b8ff" points="691.47,-139.98 699.47,-133.04 688.88,-133.48 691.47,-139.98"/>
</a>
</g>
</g>
<!-- Node14 -->
<g id="Node000014" class="node">
<title>Node14</title>
<g id="a_Node000014"><a xlink:title=" ">
<polygon fill="#e0e0e0" stroke="#999999" points="818.62,-132 768.88,-132 768.88,-112 818.62,-112 818.62,-132"/>
<text text-anchor="middle" x="793.75" y="-118.5" font-family="Helvetica,sans-Serif" font-size="10.00">iomanip</text>
</a>
</g>
</g>
<!-- Node1&#45;&gt;Node14 -->
<g id="edge15_Node000001_Node000014" class="edge">
<title>Node1&#45;&gt;Node14</title>
<g id="a_edge15_Node000001_Node000014"><a xlink:title=" ">
<path fill="none" stroke="#63b8ff" d="M624.78,-167.53C657.09,-159.04 706.09,-146.15 757.5,-132.59"/>
<polygon fill="#63b8ff" stroke="#63b8ff" points="758.26,-136.01 767.04,-130.07 756.47,-129.24 758.26,-136.01"/>
</a>
</g>
</g>
<!-- Node3 -->
<g id="Node000003" class="node">
<title>Node3</title>
<g id="a_Node000003"><a xlink:title=" ">
<polygon fill="#e0e0e0" stroke="#999999" points="400.62,-76 356.88,-76 356.88,-56 400.62,-56 400.62,-76"/>
<text text-anchor="middle" x="378.75" y="-62.5" font-family="Helvetica,sans-Serif" font-size="10.00">SDL.h</text>
</a>
</g>
</g>
<!-- Node2&#45;&gt;Node3 -->
<g id="edge2_Node000002_Node000003" class="edge">
<title>Node2&#45;&gt;Node3</title>
<g id="a_edge2_Node000002_Node000003"><a xlink:title=" ">
<path fill="none" stroke="#63b8ff" d="M314.34,-111.59C325.79,-103.67 342.41,-92.16 355.91,-82.82"/>
<polygon fill="#63b8ff" stroke="#63b8ff" points="357.58,-85.91 363.81,-77.34 353.6,-80.16 357.58,-85.91"/>
</a>
</g>
</g>
<!-- Node4 -->
<g id="Node000004" class="node">
<title>Node4</title>
<g id="a_Node000004"><a xlink:title=" ">
<polygon fill="#e0e0e0" stroke="#999999" points="77.5,-76 0,-76 0,-56 77.5,-56 77.5,-76"/>
<text text-anchor="middle" x="38.75" y="-62.5" font-family="Helvetica,sans-Serif" font-size="10.00">SDL_opengl.h</text>
</a>
</g>
</g>
<!-- Node2&#45;&gt;Node4 -->
<g id="edge3_Node000002_Node000004" class="edge">
<title>Node2&#45;&gt;Node4</title>
<g id="a_edge3_Node000002_Node000004"><a xlink:title=" ">
<path fill="none" stroke="#63b8ff" d="M277.96,-116.3C236.03,-107.66 145.75,-89.05 88.88,-77.33"/>
<polygon fill="#63b8ff" stroke="#63b8ff" points="89.61,-73.91 79.11,-75.32 88.2,-80.77 89.61,-73.91"/>
</a>
</g>
</g>
<!-- Node5 -->
<g id="Node000005" class="node">
<title>Node5</title>
<g id="a_Node000005"><a xlink:title=" ">
<polygon fill="#e0e0e0" stroke="#999999" points="153.75,-76 95.75,-76 95.75,-56 153.75,-56 153.75,-76"/>
<text text-anchor="middle" x="124.75" y="-62.5" font-family="Helvetica,sans-Serif" font-size="10.00">SDL_ttf.h</text>
</a>
</g>
</g>
<!-- Node2&#45;&gt;Node5 -->
<g id="edge4_Node000002_Node000005" class="edge">
<title>Node2&#45;&gt;Node5</title>
<g id="a_edge4_Node000002_Node000005"><a xlink:title=" ">
<path fill="none" stroke="#63b8ff" d="M277.74,-113.94C249.15,-105.17 199.89,-90.06 165,-79.35"/>
<polygon fill="#63b8ff" stroke="#63b8ff" points="166.25,-76.07 155.67,-76.49 164.2,-82.77 166.25,-76.07"/>
</a>
</g>
</g>
<!-- Node6 -->
<g id="Node000006" class="node">
<title>Node6</title>
<g id="a_Node000006"><a xlink:title=" ">
<polygon fill="#e0e0e0" stroke="#999999" points="245.25,-76 172.25,-76 172.25,-56 245.25,-56 245.25,-76"/>
<text text-anchor="middle" x="208.75" y="-62.5" font-family="Helvetica,sans-Serif" font-size="10.00">SDL_mixer.h</text>
</a>
</g>
</g>
<!-- Node2&#45;&gt;Node6 -->
<g id="edge5_Node000002_Node000006" class="edge">
<title>Node2&#45;&gt;Node6</title>
<g id="a_edge5_Node000002_Node000006"><a xlink:title=" ">
<path fill="none" stroke="#63b8ff" d="M284.72,-111.59C270.96,-103.51 250.85,-91.71 234.77,-82.27"/>
<polygon fill="#63b8ff" stroke="#63b8ff" points="236.6,-79.29 226.21,-77.25 233.06,-85.33 236.6,-79.29"/>
</a>
</g>
</g>
<!-- Node7 -->
<g id="Node000007" class="node">
<title>Node7</title>
<g id="a_Node000007"><a xlink:title=" ">
<polygon fill="#e0e0e0" stroke="#999999" points="338.38,-76 263.12,-76 263.12,-56 338.38,-56 338.38,-76"/>
<text text-anchor="middle" x="300.75" y="-62.5" font-family="Helvetica,sans-Serif" font-size="10.00">SDL_image.h</text>
</a>
</g>
</g>
<!-- Node2&#45;&gt;Node7 -->
<g id="edge6_Node000002_Node000007" class="edge">
<title>Node2&#45;&gt;Node7</title>
<g id="a_edge6_Node000002_Node000007"><a xlink:title=" ">
<path fill="none" stroke="#63b8ff" d="M300.75,-111.59C300.75,-105.01 300.75,-95.96 300.75,-87.73"/>
<polygon fill="#63b8ff" stroke="#63b8ff" points="304.25,-87.81 300.75,-77.81 297.25,-87.81 304.25,-87.81"/>
</a>
</g>
</g>
<!-- Node8 -->
<g id="Node000008" class="node">
<title>Node8</title>
<g id="a_Node000008"><a xlink:href="structs_8h.html" target="_top" xlink:title=" ">
<polygon fill="white" stroke="#666666" points="510.88,-76 456.62,-76 456.62,-56 510.88,-56 510.88,-76"/>
<text text-anchor="middle" x="483.75" y="-62.5" font-family="Helvetica,sans-Serif" font-size="10.00">structs.h</text>
</a>
</g>
</g>
<!-- Node2&#45;&gt;Node8 -->
<g id="edge7_Node000002_Node000008" class="edge">
<title>Node2&#45;&gt;Node8</title>
<g id="a_edge7_Node000002_Node000008"><a xlink:title=" ">
<path fill="none" stroke="#63b8ff" d="M323.56,-114.27C354.03,-105.28 408.47,-89.21 445.34,-78.33"/>
<polygon fill="#63b8ff" stroke="#63b8ff" points="446.12,-81.75 454.72,-75.57 444.13,-75.04 446.12,-81.75"/>
</a>
</g>
</g>
<!-- Node8&#45;&gt;Node9 -->
<g id="edge8_Node000008_Node000009" class="edge">
<title>Node8&#45;&gt;Node9</title>
<g id="a_edge8_Node000008_Node000009"><a xlink:title=" ">
<path fill="none" stroke="#63b8ff" d="M474.17,-55.59C466.52,-48.08 455.59,-37.35 446.37,-28.3"/>
<polygon fill="#63b8ff" stroke="#63b8ff" points="448.89,-25.87 439.3,-21.36 443.98,-30.86 448.89,-25.87"/>
</a>
</g>
</g>
<!-- Node8&#45;&gt;Node10 -->
<g id="edge9_Node000008_Node000010" class="edge">
<title>Node8&#45;&gt;Node10</title>
<g id="a_edge9_Node000008_Node000010"><a xlink:title=" ">
<path fill="none" stroke="#63b8ff" d="M480.75,-55.59C481.02,-48.78 482.88,-39.32 485.43,-30.86"/>
<polygon fill="#63b8ff" stroke="#63b8ff" points="488.63,-32.32 488.75,-21.72 482.05,-29.93 488.63,-32.32"/>
</a>
</g>
</g>
<!-- Node10&#45;&gt;Node8 -->
<g id="edge10_Node000010_Node000008" class="edge">
<title>Node10&#45;&gt;Node8</title>
<g id="a_edge10_Node000010_Node000008"><a xlink:title=" ">
<path fill="none" stroke="#63b8ff" d="M499.76,-20.3C499.5,-27.08 497.65,-36.54 495.11,-45"/>
<polygon fill="#63b8ff" stroke="#63b8ff" points="491.9,-43.58 491.8,-54.17 498.49,-45.96 491.9,-43.58"/>
</a>
</g>
</g>
</g>
</svg>
