<?xml version="1.0" encoding="UTF-8" standalone="no"?>
<!DOCTYPE svg PUBLIC "-//W3C//DTD SVG 1.1//EN"
 "http://www.w3.org/Graphics/SVG/1.1/DTD/svg11.dtd">
<!-- Generated by graphviz version 12.2.1 (20241206.2353)
 -->
<!-- Title: SoundStream::SetVolume Pages: 1 -->
<svg width="288pt" height="66pt"
 viewBox="0.00 0.00 287.50 66.00" xmlns="http://www.w3.org/2000/svg" xmlns:xlink="http://www.w3.org/1999/xlink">
<g id="graph0" class="graph" transform="scale(1 1) rotate(0) translate(4 62)">
<title>SoundStream::SetVolume</title>
<!-- Node1 -->
<g id="Node000001" class="node">
<title>Node1</title>
<g id="a_Node000001"><a xlink:title=" ">
<polygon fill="#999999" stroke="#666666" points="279.5,-39 151,-39 151,-19 279.5,-19 279.5,-39"/>
<text text-anchor="middle" x="215.25" y="-25.5" font-family="Helvetica,sans-Serif" font-size="10.00">SoundStream::SetVolume</text>
</a>
</g>
</g>
<!-- Node2 -->
<g id="Node000002" class="node">
<title>Node2</title>
<g id="a_Node000002"><a xlink:href="class_level_manager.html#a63376e93bf312adc673dd93d5496ede4" target="_top" xlink:title=" ">
<polygon fill="white" stroke="#666666" points="112,-58 3,-58 3,-38 112,-38 112,-58"/>
<text text-anchor="middle" x="57.5" y="-44.5" font-family="Helvetica,sans-Serif" font-size="10.00">LevelManager::Reset</text>
</a>
</g>
</g>
<!-- Node1&#45;&gt;Node2 -->
<g id="edge1_Node000001_Node000002" class="edge">
<title>Node1&#45;&gt;Node2</title>
<g id="a_edge1_Node000001_Node000002"><a xlink:title=" ">
<path fill="none" stroke="#63b8ff" d="M139.7,-38.09C130.46,-39.22 121.16,-40.36 112.32,-41.43"/>
<polygon fill="#63b8ff" stroke="#63b8ff" points="139.9,-41.6 149.4,-36.91 139.05,-34.65 139.9,-41.6"/>
</a>
</g>
</g>
<!-- Node3 -->
<g id="Node000003" class="node">
<title>Node3</title>
<g id="a_Node000003"><a xlink:href="class_level_manager.html#ab6b8833b6e29154c3ad6b08a2e5b4aac" target="_top" xlink:title=" ">
<polygon fill="white" stroke="#666666" points="115,-20 0,-20 0,0 115,0 115,-20"/>
<text text-anchor="middle" x="57.5" y="-6.5" font-family="Helvetica,sans-Serif" font-size="10.00">LevelManager::Restart</text>
</a>
</g>
</g>
<!-- Node1&#45;&gt;Node3 -->
<g id="edge2_Node000001_Node000003" class="edge">
<title>Node1&#45;&gt;Node3</title>
<g id="a_edge2_Node000001_Node000003"><a xlink:title=" ">
<path fill="none" stroke="#63b8ff" d="M139.75,-19.91C131.52,-18.91 123.24,-17.9 115.28,-16.93"/>
<polygon fill="#63b8ff" stroke="#63b8ff" points="139.05,-23.35 149.4,-21.09 139.9,-16.4 139.05,-23.35"/>
</a>
</g>
</g>
</g>
</svg>
