<?xml version="1.0" encoding="UTF-8" standalone="no"?>
<!DOCTYPE svg PUBLIC "-//W3C//DTD SVG 1.1//EN"
 "http://www.w3.org/Graphics/SVG/1.1/DTD/svg11.dtd">
<!-- Generated by graphviz version 12.2.1 (20241206.2353)
 -->
<!-- Title: DashCrystal Pages: 1 -->
<svg width="258pt" height="159pt"
 viewBox="0.00 0.00 257.75 159.00" xmlns="http://www.w3.org/2000/svg" xmlns:xlink="http://www.w3.org/1999/xlink">
<g id="graph0" class="graph" transform="scale(1 1) rotate(0) translate(4 155)">
<title>DashCrystal</title>
<!-- Node1 -->
<g id="Node000001" class="node">
<title>Node1</title>
<g id="a_Node000001"><a xlink:title=" ">
<polygon fill="#999999" stroke="#666666" points="145.62,-20 74.88,-20 74.88,0 145.62,0 145.62,-20"/>
<text text-anchor="middle" x="110.25" y="-6.5" font-family="Helvetica,sans-Serif" font-size="10.00">DashCrystal</text>
</a>
</g>
</g>
<!-- Node2 -->
<g id="Node000002" class="node">
<title>Node2</title>
<g id="a_Node000002"><a xlink:href="class_interactable_item.html" target="_top" xlink:title=" ">
<polygon fill="white" stroke="#666666" points="86.5,-77 0,-77 0,-57 86.5,-57 86.5,-77"/>
<text text-anchor="middle" x="43.25" y="-63.5" font-family="Helvetica,sans-Serif" font-size="10.00">InteractableItem</text>
</a>
</g>
</g>
<!-- Node2&#45;&gt;Node1 -->
<g id="edge1_Node000001_Node000002" class="edge">
<title>Node2&#45;&gt;Node1</title>
<g id="a_edge1_Node000001_Node000002"><a xlink:title=" ">
<path fill="none" stroke="#63b8ff" d="M63.3,-49.54C75,-39.94 89.32,-28.18 99.05,-20.19"/>
<polygon fill="#63b8ff" stroke="#63b8ff" points="61.29,-46.66 55.79,-55.71 65.74,-52.07 61.29,-46.66"/>
</a>
</g>
</g>
<!-- Node3 -->
<g id="Node000003" class="node">
<title>Node3</title>
<g id="a_Node000003"><a xlink:href="struct_rectf.html" target="_top" xlink:title=" ">
<polygon fill="white" stroke="#666666" points="63.25,-151 23.25,-151 23.25,-131 63.25,-131 63.25,-151"/>
<text text-anchor="middle" x="43.25" y="-137.5" font-family="Helvetica,sans-Serif" font-size="10.00">Rectf</text>
</a>
</g>
</g>
<!-- Node3&#45;&gt;Node2 -->
<g id="edge2_Node000002_Node000003" class="edge">
<title>Node3&#45;&gt;Node2</title>
<g id="a_edge2_Node000002_Node000003"><a xlink:title=" ">
<path fill="none" stroke="#9a32cd" stroke-dasharray="5,2" d="M43.25,-119.18C43.25,-105.29 43.25,-87.71 43.25,-77.19"/>
<polygon fill="#9a32cd" stroke="#9a32cd" points="39.75,-119.07 43.25,-129.07 46.75,-119.07 39.75,-119.07"/>
</a>
</g>
<text text-anchor="start" x="46.25" y="-100.5" font-family="Helvetica,sans-Serif" font-size="10.00" fill="grey">m_Bounds</text>
</g>
<!-- Node4 -->
<g id="Node000004" class="node">
<title>Node4</title>
<g id="a_Node000004"><a xlink:href="class_counted_item.html" target="_top" xlink:title=" ">
<polygon fill="white" stroke="#666666" points="249.75,-77 104.75,-77 104.75,-57 249.75,-57 249.75,-77"/>
<text text-anchor="middle" x="177.25" y="-63.5" font-family="Helvetica,sans-Serif" font-size="10.00">CountedItem&lt; DashCrystal &gt;</text>
</a>
</g>
</g>
<!-- Node4&#45;&gt;Node1 -->
<g id="edge3_Node000001_Node000004" class="edge">
<title>Node4&#45;&gt;Node1</title>
<g id="a_edge3_Node000001_Node000004"><a xlink:title=" ">
<path fill="none" stroke="darkgreen" d="M157.2,-49.54C145.5,-39.94 131.18,-28.18 121.45,-20.19"/>
<polygon fill="darkgreen" stroke="darkgreen" points="154.76,-52.07 164.71,-55.71 159.21,-46.66 154.76,-52.07"/>
</a>
</g>
</g>
</g>
</svg>
