<?xml version="1.0" encoding="UTF-8" standalone="no"?>
<!DOCTYPE svg PUBLIC "-//W3C//DTD SVG 1.1//EN"
 "http://www.w3.org/Graphics/SVG/1.1/DTD/svg11.dtd">
<!-- Generated by graphviz version 12.2.1 (20241206.2353)
 -->
<!-- Title: PauseMenu::PauseMenu Pages: 1 -->
<svg width="295pt" height="142pt"
 viewBox="0.00 0.00 295.00 142.00" xmlns="http://www.w3.org/2000/svg" xmlns:xlink="http://www.w3.org/1999/xlink">
<g id="graph0" class="graph" transform="scale(1 1) rotate(0) translate(4 138)">
<title>PauseMenu::PauseMenu</title>
<!-- Node1 -->
<g id="Node000001" class="node">
<title>Node1</title>
<g id="a_Node000001"><a xlink:title=" ">
<polygon fill="#999999" stroke="#666666" points="287,-77 161.5,-77 161.5,-57 287,-57 287,-77"/>
<text text-anchor="middle" x="224.25" y="-63.5" font-family="Helvetica,sans-Serif" font-size="10.00">PauseMenu::PauseMenu</text>
</a>
</g>
</g>
<!-- Node2 -->
<g id="Node000002" class="node">
<title>Node2</title>
<g id="a_Node000002"><a xlink:href="class_pause_menu.html#a126fa6d4955e731a2f1b6f78de4fd651" target="_top" xlink:title=" ">
<polygon fill="white" stroke="#666666" points="120.25,-134 5.25,-134 5.25,-114 120.25,-114 120.25,-134"/>
<text text-anchor="middle" x="62.75" y="-120.5" font-family="Helvetica,sans-Serif" font-size="10.00">PauseMenu::operator=</text>
</a>
</g>
</g>
<!-- Node1&#45;&gt;Node2 -->
<g id="edge1_Node000001_Node000002" class="edge">
<title>Node1&#45;&gt;Node2</title>
<g id="a_edge1_Node000001_Node000002"><a xlink:title=" ">
<path fill="none" stroke="#63b8ff" d="M187.57,-81.59C169.15,-88.93 146.25,-97.79 125.5,-105 117.02,-107.95 107.82,-110.91 99.16,-113.59"/>
<polygon fill="#63b8ff" stroke="#63b8ff" points="188.74,-84.89 196.71,-77.91 186.13,-78.39 188.74,-84.89"/>
</a>
</g>
</g>
<!-- Node3 -->
<g id="Node000003" class="node">
<title>Node3</title>
<g id="a_Node000003"><a xlink:href="class_pause_menu.html#a7836f2da72d5d33788330340be6bcb0d" target="_top" xlink:title=" ">
<polygon fill="white" stroke="#666666" points="120.25,-96 5.25,-96 5.25,-76 120.25,-76 120.25,-96"/>
<text text-anchor="middle" x="62.75" y="-82.5" font-family="Helvetica,sans-Serif" font-size="10.00">PauseMenu::operator=</text>
</a>
</g>
</g>
<!-- Node1&#45;&gt;Node3 -->
<g id="edge2_Node000001_Node000003" class="edge">
<title>Node1&#45;&gt;Node3</title>
<g id="a_edge2_Node000001_Node000003"><a xlink:title=" ">
<path fill="none" stroke="#63b8ff" d="M149.7,-75.76C139.9,-76.93 129.96,-78.11 120.5,-79.24"/>
<polygon fill="#63b8ff" stroke="#63b8ff" points="150.11,-79.24 159.62,-74.58 149.28,-72.29 150.11,-79.24"/>
</a>
</g>
</g>
<!-- Node4 -->
<g id="Node000004" class="node">
<title>Node4</title>
<g id="a_Node000004"><a xlink:href="class_pause_menu.html#a5dcbad8f950e7da303b7f43ffb164528" target="_top" xlink:title=" ">
<polygon fill="white" stroke="#666666" points="125.5,-58 0,-58 0,-38 125.5,-38 125.5,-58"/>
<text text-anchor="middle" x="62.75" y="-44.5" font-family="Helvetica,sans-Serif" font-size="10.00">PauseMenu::PauseMenu</text>
</a>
</g>
</g>
<!-- Node1&#45;&gt;Node4 -->
<g id="edge3_Node000001_Node000004" class="edge">
<title>Node1&#45;&gt;Node4</title>
<g id="a_edge3_Node000001_Node000004"><a xlink:title=" ">
<path fill="none" stroke="#63b8ff" d="M149.91,-58.26C141.9,-57.31 133.82,-56.35 125.97,-55.41"/>
<polygon fill="#63b8ff" stroke="#63b8ff" points="149.28,-61.71 159.62,-59.42 150.11,-54.76 149.28,-61.71"/>
</a>
</g>
</g>
<!-- Node5 -->
<g id="Node000005" class="node">
<title>Node5</title>
<g id="a_Node000005"><a xlink:href="class_pause_menu.html#a11cdb7a39289051c6922fc9beab1788e" target="_top" xlink:title=" ">
<polygon fill="white" stroke="#666666" points="125.5,-20 0,-20 0,0 125.5,0 125.5,-20"/>
<text text-anchor="middle" x="62.75" y="-6.5" font-family="Helvetica,sans-Serif" font-size="10.00">PauseMenu::PauseMenu</text>
</a>
</g>
</g>
<!-- Node1&#45;&gt;Node5 -->
<g id="edge4_Node000001_Node000005" class="edge">
<title>Node1&#45;&gt;Node5</title>
<g id="a_edge4_Node000001_Node000005"><a xlink:title=" ">
<path fill="none" stroke="#63b8ff" d="M187.57,-52.41C169.15,-45.07 146.25,-36.21 125.5,-29 117.02,-26.05 107.82,-23.09 99.16,-20.41"/>
<polygon fill="#63b8ff" stroke="#63b8ff" points="186.13,-55.61 196.71,-56.09 188.74,-49.11 186.13,-55.61"/>
</a>
</g>
</g>
</g>
</svg>
