<?xml version="1.0" encoding="UTF-8" standalone="no"?>
<!DOCTYPE svg PUBLIC "-//W3C//DTD SVG 1.1//EN"
 "http://www.w3.org/Graphics/SVG/1.1/DTD/svg11.dtd">
<!-- Generated by graphviz version 12.2.1 (20241206.2353)
 -->
<!-- Title: Strawberry::Strawberry Pages: 1 -->
<svg width="455pt" height="264pt"
 viewBox="0.00 0.00 455.00 264.00" xmlns="http://www.w3.org/2000/svg" xmlns:xlink="http://www.w3.org/1999/xlink">
<g id="graph0" class="graph" transform="scale(1 1) rotate(0) translate(4 260)">
<title>Strawberry::Strawberry</title>
<!-- Node1 -->
<g id="Node000001" class="node">
<title>Node1</title>
<g id="a_Node000001"><a xlink:title=" ">
<polygon fill="#999999" stroke="#666666" points="447,-96 330.5,-96 330.5,-76 447,-76 447,-96"/>
<text text-anchor="middle" x="388.75" y="-82.5" font-family="Helvetica,sans-Serif" font-size="10.00">Strawberry::Strawberry</text>
</a>
</g>
</g>
<!-- Node1&#45;&gt;Node1 -->
<g id="edge9_Node000001_Node000001" class="edge">
<title>Node1&#45;&gt;Node1</title>
<g id="a_edge9_Node000001_Node000001"><a xlink:title=" ">
<path fill="none" stroke="#63b8ff" d="M416.17,-107.44C412.64,-111.3 403.5,-114 388.75,-114 361.78,-114 353.57,-104.98 364.1,-96.34"/>
<polygon fill="#63b8ff" stroke="#63b8ff" points="419.58,-106.66 413.76,-97.81 412.79,-108.36 419.58,-106.66"/>
</a>
</g>
</g>
<!-- Node2 -->
<g id="Node000002" class="node">
<title>Node2</title>
<g id="a_Node000002"><a xlink:href="class_flying_strawberry.html#a3603795cd3a0c20e776eafe4138f59b4" target="_top" xlink:title=" ">
<polygon fill="white" stroke="#666666" points="294.5,-184 172.75,-184 172.75,-152 294.5,-152 294.5,-184"/>
<text text-anchor="start" x="180.75" y="-170.5" font-family="Helvetica,sans-Serif" font-size="10.00">FlyingStrawberry::Flying</text>
<text text-anchor="middle" x="233.62" y="-158.5" font-family="Helvetica,sans-Serif" font-size="10.00">Strawberry</text>
</a>
</g>
</g>
<!-- Node1&#45;&gt;Node2 -->
<g id="edge1_Node000001_Node000002" class="edge">
<title>Node1&#45;&gt;Node2</title>
<g id="a_edge1_Node000001_Node000002"><a xlink:title=" ">
<path fill="none" stroke="#63b8ff" d="M362.92,-102.62C344.47,-114.61 318.45,-130.77 294.5,-143 288.68,-145.97 282.43,-148.88 276.23,-151.6"/>
<polygon fill="#63b8ff" stroke="#63b8ff" points="364.63,-105.68 371.07,-97.27 360.79,-99.83 364.63,-105.68"/>
</a>
</g>
</g>
<!-- Node7 -->
<g id="Node000007" class="node">
<title>Node7</title>
<g id="a_Node000007"><a xlink:href="class_strawberry.html#a81dca459e7fc2dac2c2ab3cff76c6145" target="_top" xlink:title=" ">
<polygon fill="white" stroke="#666666" points="288.88,-134 178.38,-134 178.38,-114 288.88,-114 288.88,-134"/>
<text text-anchor="middle" x="233.62" y="-120.5" font-family="Helvetica,sans-Serif" font-size="10.00">Strawberry::operator=</text>
</a>
</g>
</g>
<!-- Node1&#45;&gt;Node7 -->
<g id="edge6_Node000001_Node000007" class="edge">
<title>Node1&#45;&gt;Node7</title>
<g id="a_edge6_Node000001_Node000007"><a xlink:title=" ">
<path fill="none" stroke="#63b8ff" d="M334.37,-99.25C315.49,-103.93 294.54,-109.13 276.73,-113.55"/>
<polygon fill="#63b8ff" stroke="#63b8ff" points="335.17,-102.65 344.03,-96.85 333.48,-95.86 335.17,-102.65"/>
</a>
</g>
</g>
<!-- Node8 -->
<g id="Node000008" class="node">
<title>Node8</title>
<g id="a_Node000008"><a xlink:href="class_strawberry.html#a673f5c80b8d67a2580087a4eae0832b6" target="_top" xlink:title=" ">
<polygon fill="white" stroke="#666666" points="288.88,-96 178.38,-96 178.38,-76 288.88,-76 288.88,-96"/>
<text text-anchor="middle" x="233.62" y="-82.5" font-family="Helvetica,sans-Serif" font-size="10.00">Strawberry::operator=</text>
</a>
</g>
</g>
<!-- Node1&#45;&gt;Node8 -->
<g id="edge7_Node000001_Node000008" class="edge">
<title>Node1&#45;&gt;Node8</title>
<g id="a_edge7_Node000001_Node000008"><a xlink:title=" ">
<path fill="none" stroke="#63b8ff" d="M318.82,-86C308.95,-86 298.91,-86 289.36,-86"/>
<polygon fill="#63b8ff" stroke="#63b8ff" points="318.78,-89.5 328.78,-86 318.78,-82.5 318.78,-89.5"/>
</a>
</g>
</g>
<!-- Node9 -->
<g id="Node000009" class="node">
<title>Node9</title>
<g id="a_Node000009"><a xlink:href="class_strawberry.html#a29384527bb818f4f24983b24b5e04fd3" target="_top" xlink:title=" ">
<polygon fill="white" stroke="#666666" points="291.88,-58 175.38,-58 175.38,-38 291.88,-38 291.88,-58"/>
<text text-anchor="middle" x="233.62" y="-44.5" font-family="Helvetica,sans-Serif" font-size="10.00">Strawberry::Strawberry</text>
</a>
</g>
</g>
<!-- Node1&#45;&gt;Node9 -->
<g id="edge8_Node000001_Node000009" class="edge">
<title>Node1&#45;&gt;Node9</title>
<g id="a_edge8_Node000001_Node000009"><a xlink:title=" ">
<path fill="none" stroke="#63b8ff" d="M334.37,-72.75C315.49,-68.07 294.54,-62.87 276.73,-58.45"/>
<polygon fill="#63b8ff" stroke="#63b8ff" points="333.48,-76.14 344.03,-75.15 335.17,-69.35 333.48,-76.14"/>
</a>
</g>
</g>
<!-- Node10 -->
<g id="Node000010" class="node">
<title>Node10</title>
<g id="a_Node000010"><a xlink:href="class_strawberry.html#a089a694b74e5e7c5ce542ca943c72848" target="_top" xlink:title=" ">
<polygon fill="white" stroke="#666666" points="291.88,-20 175.38,-20 175.38,0 291.88,0 291.88,-20"/>
<text text-anchor="middle" x="233.62" y="-6.5" font-family="Helvetica,sans-Serif" font-size="10.00">Strawberry::Strawberry</text>
</a>
</g>
</g>
<!-- Node1&#45;&gt;Node10 -->
<g id="edge10_Node000001_Node000010" class="edge">
<title>Node1&#45;&gt;Node10</title>
<g id="a_edge10_Node000001_Node000010"><a xlink:title=" ">
<path fill="none" stroke="#63b8ff" d="M363.88,-69.18C345.55,-56.83 319.26,-40.3 294.5,-29 287.55,-25.83 279.93,-22.98 272.52,-20.5"/>
<polygon fill="#63b8ff" stroke="#63b8ff" points="361.71,-71.94 371.94,-74.7 365.66,-66.16 361.71,-71.94"/>
</a>
</g>
</g>
<!-- Node3 -->
<g id="Node000003" class="node">
<title>Node3</title>
<g id="a_Node000003"><a xlink:href="class_flying_strawberry.html#ac1a195cd4ae7ae45963af4d7630235eb" target="_top" xlink:title=" ">
<polygon fill="white" stroke="#666666" points="129.25,-256 7.5,-256 7.5,-224 129.25,-224 129.25,-256"/>
<text text-anchor="start" x="15.5" y="-242.5" font-family="Helvetica,sans-Serif" font-size="10.00">FlyingStrawberry::Flying</text>
<text text-anchor="middle" x="68.38" y="-230.5" font-family="Helvetica,sans-Serif" font-size="10.00">Strawberry</text>
</a>
</g>
</g>
<!-- Node2&#45;&gt;Node3 -->
<g id="edge2_Node000002_Node000003" class="edge">
<title>Node2&#45;&gt;Node3</title>
<g id="a_edge2_Node000002_Node000003"><a xlink:title=" ">
<path fill="none" stroke="#63b8ff" d="M191.05,-189.51C174.35,-197.86 154.81,-207.25 136.75,-215 129.99,-217.9 122.76,-220.8 115.65,-223.53"/>
<polygon fill="#63b8ff" stroke="#63b8ff" points="192.33,-192.79 199.69,-185.16 189.18,-186.53 192.33,-192.79"/>
</a>
</g>
</g>
<!-- Node4 -->
<g id="Node000004" class="node">
<title>Node4</title>
<g id="a_Node000004"><a xlink:href="class_flying_strawberry.html#aa70131b40e4fb24eb03a9c6ecbfd2d59" target="_top" xlink:title=" ">
<polygon fill="white" stroke="#666666" points="129.25,-206 7.5,-206 7.5,-174 129.25,-174 129.25,-206"/>
<text text-anchor="start" x="15.5" y="-192.5" font-family="Helvetica,sans-Serif" font-size="10.00">FlyingStrawberry::Flying</text>
<text text-anchor="middle" x="68.38" y="-180.5" font-family="Helvetica,sans-Serif" font-size="10.00">Strawberry</text>
</a>
</g>
</g>
<!-- Node2&#45;&gt;Node4 -->
<g id="edge3_Node000002_Node000004" class="edge">
<title>Node2&#45;&gt;Node4</title>
<g id="a_edge3_Node000002_Node000004"><a xlink:title=" ">
<path fill="none" stroke="#63b8ff" d="M161.07,-177.64C150.61,-179.05 139.93,-180.49 129.72,-181.87"/>
<polygon fill="#63b8ff" stroke="#63b8ff" points="161.36,-181.14 170.8,-176.33 160.42,-174.2 161.36,-181.14"/>
</a>
</g>
</g>
<!-- Node5 -->
<g id="Node000005" class="node">
<title>Node5</title>
<g id="a_Node000005"><a xlink:href="class_flying_strawberry.html#a13e7820116a2e072653974d1cbd9496c" target="_top" xlink:title=" ">
<polygon fill="white" stroke="#666666" points="136.75,-156 0,-156 0,-136 136.75,-136 136.75,-156"/>
<text text-anchor="middle" x="68.38" y="-142.5" font-family="Helvetica,sans-Serif" font-size="10.00">FlyingStrawberry::operator=</text>
</a>
</g>
</g>
<!-- Node2&#45;&gt;Node5 -->
<g id="edge4_Node000002_Node000005" class="edge">
<title>Node2&#45;&gt;Node5</title>
<g id="a_edge4_Node000002_Node000005"><a xlink:title=" ">
<path fill="none" stroke="#63b8ff" d="M161.15,-158.37C153.18,-157.29 145.08,-156.2 137.15,-155.13"/>
<polygon fill="#63b8ff" stroke="#63b8ff" points="160.42,-161.8 170.8,-159.67 161.36,-154.86 160.42,-161.8"/>
</a>
</g>
</g>
<!-- Node6 -->
<g id="Node000006" class="node">
<title>Node6</title>
<g id="a_Node000006"><a xlink:href="class_flying_strawberry.html#a415c4868ba7ff99c77a638df1e7e0684" target="_top" xlink:title=" ">
<polygon fill="white" stroke="#666666" points="136.75,-118 0,-118 0,-98 136.75,-98 136.75,-118"/>
<text text-anchor="middle" x="68.38" y="-104.5" font-family="Helvetica,sans-Serif" font-size="10.00">FlyingStrawberry::operator=</text>
</a>
</g>
</g>
<!-- Node2&#45;&gt;Node6 -->
<g id="edge5_Node000002_Node000006" class="edge">
<title>Node2&#45;&gt;Node6</title>
<g id="a_edge5_Node000002_Node000006"><a xlink:title=" ">
<path fill="none" stroke="#63b8ff" d="M182.45,-147.15C179.16,-145.75 175.91,-144.36 172.75,-143 156.67,-136.07 153.22,-132.95 136.75,-127 128.18,-123.9 118.84,-120.99 109.93,-118.42"/>
<polygon fill="#63b8ff" stroke="#63b8ff" points="180.99,-150.33 191.56,-151 183.71,-143.88 180.99,-150.33"/>
</a>
</g>
</g>
</g>
</svg>
