<?xml version="1.0" encoding="UTF-8" standalone="no"?>
<!DOCTYPE svg PUBLIC "-//W3C//DTD SVG 1.1//EN"
 "http://www.w3.org/Graphics/SVG/1.1/DTD/svg11.dtd">
<!-- Generated by graphviz version 12.2.1 (20241206.2353)
 -->
<!-- Title: CogPlatform::PlayerInteraction Pages: 1 -->
<svg width="752pt" height="132pt"
 viewBox="0.00 0.00 751.75 132.00" xmlns="http://www.w3.org/2000/svg" xmlns:xlink="http://www.w3.org/1999/xlink">
<g id="graph0" class="graph" transform="scale(1 1) rotate(0) translate(4 128)">
<title>CogPlatform::PlayerInteraction</title>
<!-- Node1 -->
<g id="Node000001" class="node">
<title>Node1</title>
<g id="a_Node000001"><a xlink:title=" ">
<polygon fill="#999999" stroke="#666666" points="150.25,-86 0,-86 0,-66 150.25,-66 150.25,-86"/>
<text text-anchor="middle" x="75.12" y="-72.5" font-family="Helvetica,sans-Serif" font-size="10.00">CogPlatform::PlayerInteraction</text>
</a>
</g>
</g>
<!-- Node2 -->
<g id="Node000002" class="node">
<title>Node2</title>
<g id="a_Node000002"><a xlink:href="class_character.html#ad4cf75aee602249dff4bdb61f20eb5f2" target="_top" xlink:title=" ">
<polygon fill="white" stroke="#666666" points="281.38,-124 201.62,-124 201.62,-104 281.38,-104 281.38,-124"/>
<text text-anchor="middle" x="241.5" y="-110.5" font-family="Helvetica,sans-Serif" font-size="10.00">Character::Die</text>
</a>
</g>
</g>
<!-- Node1&#45;&gt;Node2 -->
<g id="edge1_Node000001_Node000002" class="edge">
<title>Node1&#45;&gt;Node2</title>
<g id="a_edge1_Node000001_Node000002"><a xlink:title=" ">
<path fill="none" stroke="#63b8ff" d="M121.48,-86.48C142.76,-91.4 168.2,-97.28 190.08,-102.34"/>
<polygon fill="#63b8ff" stroke="#63b8ff" points="189.16,-105.72 199.69,-104.56 190.73,-98.9 189.16,-105.72"/>
</a>
</g>
</g>
<!-- Node3 -->
<g id="Node000003" class="node">
<title>Node3</title>
<g id="a_Node000003"><a xlink:href="class_character.html#a0b790800d6ff90eebee18bce25177fce" target="_top" xlink:title=" ">
<polygon fill="white" stroke="#666666" points="296.75,-86 186.25,-86 186.25,-66 296.75,-66 296.75,-86"/>
<text text-anchor="middle" x="241.5" y="-72.5" font-family="Helvetica,sans-Serif" font-size="10.00">Character::GetHitBox</text>
</a>
</g>
</g>
<!-- Node1&#45;&gt;Node3 -->
<g id="edge2_Node000001_Node000003" class="edge">
<title>Node1&#45;&gt;Node3</title>
<g id="a_edge2_Node000001_Node000003"><a xlink:title=" ">
<path fill="none" stroke="#63b8ff" d="M150.62,-76C158.61,-76 166.7,-76 174.58,-76"/>
<polygon fill="#63b8ff" stroke="#63b8ff" points="174.42,-79.5 184.42,-76 174.42,-72.5 174.42,-79.5"/>
</a>
</g>
</g>
<!-- Node4 -->
<g id="Node000004" class="node">
<title>Node4</title>
<g id="a_Node000004"><a xlink:href="namespaceutils.html#a11a0eb68e467a22aed74f507057c39ed" target="_top" xlink:title=" ">
<polygon fill="white" stroke="#666666" points="291.5,-48 191.5,-48 191.5,-28 291.5,-28 291.5,-48"/>
<text text-anchor="middle" x="241.5" y="-34.5" font-family="Helvetica,sans-Serif" font-size="10.00">utils::IsOverlapping</text>
</a>
</g>
</g>
<!-- Node1&#45;&gt;Node4 -->
<g id="edge3_Node000001_Node000004" class="edge">
<title>Node1&#45;&gt;Node4</title>
<g id="a_edge3_Node000001_Node000004"><a xlink:title=" ">
<path fill="none" stroke="#63b8ff" d="M121.48,-65.52C140.88,-61.03 163.74,-55.75 184.21,-51.01"/>
<polygon fill="#63b8ff" stroke="#63b8ff" points="184.87,-54.45 193.82,-48.79 183.29,-47.63 184.87,-54.45"/>
</a>
</g>
</g>
<!-- Node5 -->
<g id="Node000005" class="node">
<title>Node5</title>
<g id="a_Node000005"><a xlink:href="namespaceutils.html#a760075559e6ab59c1daec763fab2b488" target="_top" xlink:title=" ">
<polygon fill="white" stroke="#666666" points="470.25,-48 332.75,-48 332.75,-28 470.25,-28 470.25,-48"/>
<text text-anchor="middle" x="401.5" y="-34.5" font-family="Helvetica,sans-Serif" font-size="10.00">utils::DistPointLineSegment</text>
</a>
</g>
</g>
<!-- Node4&#45;&gt;Node5 -->
<g id="edge4_Node000004_Node000005" class="edge">
<title>Node4&#45;&gt;Node5</title>
<g id="a_edge4_Node000004_Node000005"><a xlink:title=" ">
<path fill="none" stroke="#63b8ff" d="M291.63,-38C300.97,-38 310.97,-38 320.98,-38"/>
<polygon fill="#63b8ff" stroke="#63b8ff" points="320.74,-41.5 330.74,-38 320.74,-34.5 320.74,-41.5"/>
</a>
</g>
</g>
<!-- Node6 -->
<g id="Node000006" class="node">
<title>Node6</title>
<g id="a_Node000006"><a xlink:href="struct_vector2f.html#af8ceb9310d7065eb485e47b072a5b143" target="_top" xlink:title=" ">
<polygon fill="white" stroke="#666666" points="613.75,-86 506.25,-86 506.25,-66 613.75,-66 613.75,-86"/>
<text text-anchor="middle" x="560" y="-72.5" font-family="Helvetica,sans-Serif" font-size="10.00">Vector2f::DotProduct</text>
</a>
</g>
</g>
<!-- Node5&#45;&gt;Node6 -->
<g id="edge5_Node000005_Node000006" class="edge">
<title>Node5&#45;&gt;Node6</title>
<g id="a_edge5_Node000005_Node000006"><a xlink:title=" ">
<path fill="none" stroke="#63b8ff" d="M445.68,-48.48C463.98,-52.93 485.51,-58.16 504.86,-62.85"/>
<polygon fill="#63b8ff" stroke="#63b8ff" points="503.95,-66.23 514.49,-65.19 505.6,-59.43 503.95,-66.23"/>
</a>
</g>
</g>
<!-- Node8 -->
<g id="Node000008" class="node">
<title>Node8</title>
<g id="a_Node000008"><a xlink:href="struct_vector2f.html#acedb20d25ccc3009546e120eda010bf5" target="_top" xlink:title=" ">
<polygon fill="white" stroke="#666666" points="740.38,-20 653.12,-20 653.12,0 740.38,0 740.38,-20"/>
<text text-anchor="middle" x="696.75" y="-6.5" font-family="Helvetica,sans-Serif" font-size="10.00">Vector2f::Length</text>
</a>
</g>
</g>
<!-- Node5&#45;&gt;Node8 -->
<g id="edge8_Node000005_Node000008" class="edge">
<title>Node5&#45;&gt;Node8</title>
<g id="a_edge8_Node000005_Node000008"><a xlink:title=" ">
<path fill="none" stroke="#63b8ff" d="M452.17,-27.51C469.24,-24.28 488.51,-21.04 506.25,-19 551.62,-13.79 603.43,-11.59 641.4,-10.66"/>
<polygon fill="#63b8ff" stroke="#63b8ff" points="641.29,-14.16 651.21,-10.44 641.13,-7.16 641.29,-14.16"/>
</a>
</g>
</g>
<!-- Node9 -->
<g id="Node000009" class="node">
<title>Node9</title>
<g id="a_Node000009"><a xlink:href="struct_vector2f.html#aba5dd756c385551a19d36b57d8cbf629" target="_top" xlink:title=" ">
<polygon fill="white" stroke="#666666" points="613.75,-48 506.25,-48 506.25,-28 613.75,-28 613.75,-48"/>
<text text-anchor="middle" x="560" y="-34.5" font-family="Helvetica,sans-Serif" font-size="10.00">Vector2f::Normalized</text>
</a>
</g>
</g>
<!-- Node5&#45;&gt;Node9 -->
<g id="edge9_Node000005_Node000009" class="edge">
<title>Node5&#45;&gt;Node9</title>
<g id="a_edge9_Node000005_Node000009"><a xlink:title=" ">
<path fill="none" stroke="#63b8ff" d="M470.69,-38C478.66,-38 486.77,-38 494.68,-38"/>
<polygon fill="#63b8ff" stroke="#63b8ff" points="494.58,-41.5 504.58,-38 494.58,-34.5 494.58,-41.5"/>
</a>
</g>
</g>
<!-- Node7 -->
<g id="Node000007" class="node">
<title>Node7</title>
<g id="a_Node000007"><a xlink:href="struct_vector2f.html#a3db9a868c58bc809e5e09a88d65a77ec" target="_top" xlink:title=" ">
<polygon fill="white" stroke="#666666" points="743.75,-67 649.75,-67 649.75,-47 743.75,-47 743.75,-67"/>
<text text-anchor="middle" x="696.75" y="-53.5" font-family="Helvetica,sans-Serif" font-size="10.00">Vector2f::Vector2f</text>
</a>
</g>
</g>
<!-- Node6&#45;&gt;Node7 -->
<g id="edge6_Node000006_Node000007" class="edge">
<title>Node6&#45;&gt;Node7</title>
<g id="a_edge6_Node000006_Node000007"><a xlink:title=" ">
<path fill="none" stroke="#63b8ff" d="M613.87,-68.55C621.89,-67.41 630.19,-66.24 638.3,-65.1"/>
<polygon fill="#63b8ff" stroke="#63b8ff" points="638.68,-68.58 648.09,-63.72 637.7,-61.65 638.68,-68.58"/>
</a>
</g>
</g>
<!-- Node7&#45;&gt;Node7 -->
<g id="edge7_Node000007_Node000007" class="edge">
<title>Node7&#45;&gt;Node7</title>
<g id="a_edge7_Node000007_Node000007"><a xlink:title=" ">
<path fill="none" stroke="#63b8ff" d="M675.02,-67.34C665.74,-75.98 672.98,-85 696.75,-85 709.75,-85 717.81,-82.3 720.92,-78.44"/>
<polygon fill="#63b8ff" stroke="#63b8ff" points="724.37,-77.83 718.8,-68.82 717.53,-79.34 724.37,-77.83"/>
</a>
</g>
</g>
<!-- Node9&#45;&gt;Node7 -->
<g id="edge11_Node000009_Node000007" class="edge">
<title>Node9&#45;&gt;Node7</title>
<g id="a_edge11_Node000009_Node000007"><a xlink:title=" ">
<path fill="none" stroke="#63b8ff" d="M613.87,-45.45C621.89,-46.59 630.19,-47.76 638.3,-48.9"/>
<polygon fill="#63b8ff" stroke="#63b8ff" points="637.7,-52.35 648.09,-50.28 638.68,-45.42 637.7,-52.35"/>
</a>
</g>
</g>
<!-- Node9&#45;&gt;Node8 -->
<g id="edge10_Node000009_Node000008" class="edge">
<title>Node9&#45;&gt;Node8</title>
<g id="a_edge10_Node000009_Node000008"><a xlink:title=" ">
<path fill="none" stroke="#63b8ff" d="M611.18,-27.57C621.18,-25.5 631.72,-23.3 641.85,-21.2"/>
<polygon fill="#63b8ff" stroke="#63b8ff" points="642.48,-24.64 651.56,-19.18 641.06,-17.79 642.48,-24.64"/>
</a>
</g>
</g>
</g>
</svg>
