<?xml version="1.0" encoding="UTF-8" standalone="no"?>
<!DOCTYPE svg PUBLIC "-//W3C//DTD SVG 1.1//EN"
 "http://www.w3.org/Graphics/SVG/1.1/DTD/svg11.dtd">
<!-- Generated by graphviz version 12.2.1 (20241206.2353)
 -->
<!-- Title: GameObject::GameObject Pages: 1 -->
<svg width="333pt" height="306pt"
 viewBox="0.00 0.00 332.50 306.00" xmlns="http://www.w3.org/2000/svg" xmlns:xlink="http://www.w3.org/1999/xlink">
<g id="graph0" class="graph" transform="scale(1 1) rotate(0) translate(4 302)">
<title>GameObject::GameObject</title>
<!-- Node1 -->
<g id="Node000001" class="node">
<title>Node1</title>
<g id="a_Node000001"><a xlink:title=" ">
<polygon fill="#999999" stroke="#666666" points="324.5,-165 193,-165 193,-145 324.5,-145 324.5,-165"/>
<text text-anchor="middle" x="258.75" y="-151.5" font-family="Helvetica,sans-Serif" font-size="10.00">GameObject::GameObject</text>
</a>
</g>
</g>
<!-- Node2 -->
<g id="Node000002" class="node">
<title>Node2</title>
<g id="a_Node000002"><a xlink:href="class_character.html#a36862a88801d72865f97525a766db2c5" target="_top" xlink:title=" ">
<polygon fill="white" stroke="#666666" points="132.25,-298 24.75,-298 24.75,-278 132.25,-278 132.25,-298"/>
<text text-anchor="middle" x="78.5" y="-284.5" font-family="Helvetica,sans-Serif" font-size="10.00">Character::Character</text>
</a>
</g>
</g>
<!-- Node1&#45;&gt;Node2 -->
<g id="edge1_Node000001_Node000002" class="edge">
<title>Node1&#45;&gt;Node2</title>
<g id="a_edge1_Node000001_Node000002"><a xlink:title=" ">
<path fill="none" stroke="#63b8ff" d="M245.73,-174.88C229.08,-200.65 196.54,-245.1 157,-269 149.53,-273.51 141.04,-276.96 132.49,-279.58"/>
<polygon fill="#63b8ff" stroke="#63b8ff" points="248.52,-177.01 250.88,-166.68 242.59,-173.28 248.52,-177.01"/>
</a>
</g>
</g>
<!-- Node3 -->
<g id="Node000003" class="node">
<title>Node3</title>
<g id="a_Node000003"><a xlink:href="class_game_object.html#a5812fb39eeeded453c04aab7c32dfc94" target="_top" xlink:title=" ">
<polygon fill="white" stroke="#666666" points="144.25,-260 12.75,-260 12.75,-240 144.25,-240 144.25,-260"/>
<text text-anchor="middle" x="78.5" y="-246.5" font-family="Helvetica,sans-Serif" font-size="10.00">GameObject::GameObject</text>
</a>
</g>
</g>
<!-- Node1&#45;&gt;Node3 -->
<g id="edge2_Node000001_Node000003" class="edge">
<title>Node1&#45;&gt;Node3</title>
<g id="a_edge2_Node000001_Node000003"><a xlink:title=" ">
<path fill="none" stroke="#63b8ff" d="M238.87,-173.03C219.71,-190.36 188.47,-216.06 157,-231 149.87,-234.39 142.07,-237.21 134.25,-239.55"/>
<polygon fill="#63b8ff" stroke="#63b8ff" points="241.17,-175.67 246.14,-166.31 236.42,-170.53 241.17,-175.67"/>
</a>
</g>
</g>
<!-- Node4 -->
<g id="Node000004" class="node">
<title>Node4</title>
<g id="a_Node000004"><a xlink:href="class_game_object.html#a1082b8c7009867cbe93b8e286c615445" target="_top" xlink:title=" ">
<polygon fill="white" stroke="#666666" points="144.25,-222 12.75,-222 12.75,-202 144.25,-202 144.25,-222"/>
<text text-anchor="middle" x="78.5" y="-208.5" font-family="Helvetica,sans-Serif" font-size="10.00">GameObject::GameObject</text>
</a>
</g>
</g>
<!-- Node1&#45;&gt;Node4 -->
<g id="edge3_Node000001_Node000004" class="edge">
<title>Node1&#45;&gt;Node4</title>
<g id="a_edge3_Node000001_Node000004"><a xlink:title=" ">
<path fill="none" stroke="#63b8ff" d="M222.15,-169.62C203.03,-177.17 178.94,-186.2 157,-193 147.08,-196.08 136.31,-198.98 126.06,-201.55"/>
<polygon fill="#63b8ff" stroke="#63b8ff" points="223.39,-172.9 231.38,-165.94 220.79,-166.4 223.39,-172.9"/>
</a>
</g>
</g>
<!-- Node5 -->
<g id="Node000005" class="node">
<title>Node5</title>
<g id="a_Node000005"><a xlink:href="class_game_object.html#adec58543d6788c6d6f9995cec8db8677" target="_top" xlink:title=" ">
<polygon fill="white" stroke="#666666" points="144.25,-184 12.75,-184 12.75,-164 144.25,-164 144.25,-184"/>
<text text-anchor="middle" x="78.5" y="-170.5" font-family="Helvetica,sans-Serif" font-size="10.00">GameObject::GameObject</text>
</a>
</g>
</g>
<!-- Node1&#45;&gt;Node5 -->
<g id="edge4_Node000001_Node000005" class="edge">
<title>Node1&#45;&gt;Node5</title>
<g id="a_edge4_Node000001_Node000005"><a xlink:title=" ">
<path fill="none" stroke="#63b8ff" d="M181.51,-163.13C169.27,-164.43 156.69,-165.77 144.73,-167.05"/>
<polygon fill="#63b8ff" stroke="#63b8ff" points="181.56,-166.64 191.14,-162.1 180.82,-159.68 181.56,-166.64"/>
</a>
</g>
</g>
<!-- Node6 -->
<g id="Node000006" class="node">
<title>Node6</title>
<g id="a_Node000006"><a xlink:href="class_game_object.html#a1ea3c05884054770101bb74b23ac38f5" target="_top" xlink:title=" ">
<polygon fill="white" stroke="#666666" points="144.25,-146 12.75,-146 12.75,-126 144.25,-126 144.25,-146"/>
<text text-anchor="middle" x="78.5" y="-132.5" font-family="Helvetica,sans-Serif" font-size="10.00">GameObject::GameObject</text>
</a>
</g>
</g>
<!-- Node1&#45;&gt;Node6 -->
<g id="edge5_Node000001_Node000006" class="edge">
<title>Node1&#45;&gt;Node6</title>
<g id="a_edge5_Node000001_Node000006"><a xlink:title=" ">
<path fill="none" stroke="#63b8ff" d="M181.51,-146.87C169.27,-145.57 156.69,-144.23 144.73,-142.95"/>
<polygon fill="#63b8ff" stroke="#63b8ff" points="180.82,-150.32 191.14,-147.9 181.56,-143.36 180.82,-150.32"/>
</a>
</g>
</g>
<!-- Node7 -->
<g id="Node000007" class="node">
<title>Node7</title>
<g id="a_Node000007"><a xlink:href="class_game_object.html#a009590d8feb5bbcb63363cd0acd5ef8c" target="_top" xlink:title=" ">
<polygon fill="white" stroke="#666666" points="137.5,-108 19.5,-108 19.5,-88 137.5,-88 137.5,-108"/>
<text text-anchor="middle" x="78.5" y="-94.5" font-family="Helvetica,sans-Serif" font-size="10.00">GameObject::operator=</text>
</a>
</g>
</g>
<!-- Node1&#45;&gt;Node7 -->
<g id="edge6_Node000001_Node000007" class="edge">
<title>Node1&#45;&gt;Node7</title>
<g id="a_edge6_Node000001_Node000007"><a xlink:title=" ">
<path fill="none" stroke="#63b8ff" d="M222.15,-140.38C203.03,-132.83 178.94,-123.8 157,-117 147.08,-113.92 136.31,-111.02 126.06,-108.45"/>
<polygon fill="#63b8ff" stroke="#63b8ff" points="220.79,-143.6 231.38,-144.06 223.39,-137.1 220.79,-143.6"/>
</a>
</g>
</g>
<!-- Node8 -->
<g id="Node000008" class="node">
<title>Node8</title>
<g id="a_Node000008"><a xlink:href="class_game_object.html#a142ed3d978707c08b2ff348753a11bcb" target="_top" xlink:title=" ">
<polygon fill="white" stroke="#666666" points="137.5,-70 19.5,-70 19.5,-50 137.5,-50 137.5,-70"/>
<text text-anchor="middle" x="78.5" y="-56.5" font-family="Helvetica,sans-Serif" font-size="10.00">GameObject::operator=</text>
</a>
</g>
</g>
<!-- Node1&#45;&gt;Node8 -->
<g id="edge7_Node000001_Node000008" class="edge">
<title>Node1&#45;&gt;Node8</title>
<g id="a_edge7_Node000001_Node000008"><a xlink:title=" ">
<path fill="none" stroke="#63b8ff" d="M238.87,-136.97C219.71,-119.64 188.47,-93.94 157,-79 149.87,-75.61 142.07,-72.79 134.25,-70.45"/>
<polygon fill="#63b8ff" stroke="#63b8ff" points="236.42,-139.47 246.14,-143.69 241.17,-134.33 236.42,-139.47"/>
</a>
</g>
</g>
<!-- Node9 -->
<g id="Node000009" class="node">
<title>Node9</title>
<g id="a_Node000009"><a xlink:href="class_snow_flake_manager.html#a36a3785dc83ac5a2c77cc94e3ca15fbc" target="_top" xlink:title=" ">
<polygon fill="white" stroke="#666666" points="157,-32 0,-32 0,0 157,0 157,-32"/>
<text text-anchor="start" x="8" y="-18.5" font-family="Helvetica,sans-Serif" font-size="10.00">SnowFlakeManager::SnowFlake</text>
<text text-anchor="middle" x="78.5" y="-6.5" font-family="Helvetica,sans-Serif" font-size="10.00">Manager</text>
</a>
</g>
</g>
<!-- Node1&#45;&gt;Node9 -->
<g id="edge8_Node000001_Node000009" class="edge">
<title>Node1&#45;&gt;Node9</title>
<g id="a_edge8_Node000001_Node000009"><a xlink:title=" ">
<path fill="none" stroke="#63b8ff" d="M245.2,-135.16C228.19,-109.8 195.46,-66.17 157,-41 152.03,-37.75 146.61,-34.89 141.01,-32.39"/>
<polygon fill="#63b8ff" stroke="#63b8ff" points="242.09,-136.79 250.49,-143.24 247.94,-132.96 242.09,-136.79"/>
</a>
</g>
</g>
</g>
</svg>
