<?xml version="1.0" encoding="UTF-8" standalone="no"?>
<!DOCTYPE svg PUBLIC "-//W3C//DTD SVG 1.1//EN"
 "http://www.w3.org/Graphics/SVG/1.1/DTD/svg11.dtd">
<!-- Generated by graphviz version 12.2.1 (20241206.2353)
 -->
<!-- Title: Trampoline Pages: 1 -->
<svg width="250pt" height="84pt"
 viewBox="0.00 0.00 250.00 84.00" xmlns="http://www.w3.org/2000/svg" xmlns:xlink="http://www.w3.org/1999/xlink">
<g id="graph0" class="graph" transform="scale(1 1) rotate(0) translate(4 80)">
<title>Trampoline</title>
<!-- Node1 -->
<g id="Node000001" class="node">
<title>Node1</title>
<g id="a_Node000001"><a xlink:title=" ">
<polygon fill="#999999" stroke="#666666" points="140.25,-20 76.25,-20 76.25,0 140.25,0 140.25,-20"/>
<text text-anchor="middle" x="108.25" y="-6.5" font-family="Helvetica,sans-Serif" font-size="10.00">Trampoline</text>
</a>
</g>
</g>
<!-- Node2 -->
<g id="Node000002" class="node">
<title>Node2</title>
<g id="a_Node000002"><a xlink:href="class_interactable_item.html" target="_top" xlink:title=" ">
<polygon fill="white" stroke="#666666" points="86.5,-76 0,-76 0,-56 86.5,-56 86.5,-76"/>
<text text-anchor="middle" x="43.25" y="-62.5" font-family="Helvetica,sans-Serif" font-size="10.00">InteractableItem</text>
</a>
</g>
</g>
<!-- Node2&#45;&gt;Node1 -->
<g id="edge1_Node000001_Node000002" class="edge">
<title>Node2&#45;&gt;Node1</title>
<g id="a_edge1_Node000001_Node000002"><a xlink:title=" ">
<path fill="none" stroke="#63b8ff" d="M63.23,-48.4C74.35,-39.17 87.78,-28.01 97.06,-20.3"/>
<polygon fill="#63b8ff" stroke="#63b8ff" points="61.19,-45.54 55.74,-54.63 65.66,-50.93 61.19,-45.54"/>
</a>
</g>
</g>
<!-- Node3 -->
<g id="Node000003" class="node">
<title>Node3</title>
<g id="a_Node000003"><a xlink:href="class_counted_item.html" target="_top" xlink:title=" ">
<polygon fill="white" stroke="#666666" points="242,-76 104.5,-76 104.5,-56 242,-56 242,-76"/>
<text text-anchor="middle" x="173.25" y="-62.5" font-family="Helvetica,sans-Serif" font-size="10.00">CountedItem&lt; Trampoline &gt;</text>
</a>
</g>
</g>
<!-- Node3&#45;&gt;Node1 -->
<g id="edge2_Node000001_Node000003" class="edge">
<title>Node3&#45;&gt;Node1</title>
<g id="a_edge2_Node000001_Node000003"><a xlink:title=" ">
<path fill="none" stroke="darkgreen" d="M153.27,-48.4C142.15,-39.17 128.72,-28.01 119.44,-20.3"/>
<polygon fill="darkgreen" stroke="darkgreen" points="150.84,-50.93 160.76,-54.63 155.31,-45.54 150.84,-50.93"/>
</a>
</g>
</g>
</g>
</svg>
