<?xml version="1.0" encoding="UTF-8" standalone="no"?>
<!DOCTYPE svg PUBLIC "-//W3C//DTD SVG 1.1//EN"
 "http://www.w3.org/Graphics/SVG/1.1/DTD/svg11.dtd">
<!-- Generated by graphviz version 12.2.1 (20241206.2353)
 -->
<!-- Title: LevelManager::SetDeadCount Pages: 1 -->
<svg width="514pt" height="142pt"
 viewBox="0.00 0.00 514.25 142.00" xmlns="http://www.w3.org/2000/svg" xmlns:xlink="http://www.w3.org/1999/xlink">
<g id="graph0" class="graph" transform="scale(1 1) rotate(0) translate(4 138)">
<title>LevelManager::SetDeadCount</title>
<!-- Node1 -->
<g id="Node000001" class="node">
<title>Node1</title>
<g id="a_Node000001"><a xlink:title=" ">
<polygon fill="#999999" stroke="#666666" points="506.25,-77 359,-77 359,-57 506.25,-57 506.25,-77"/>
<text text-anchor="middle" x="432.62" y="-63.5" font-family="Helvetica,sans-Serif" font-size="10.00">LevelManager::SetDeadCount</text>
</a>
</g>
</g>
<!-- Node2 -->
<g id="Node000002" class="node">
<title>Node2</title>
<g id="a_Node000002"><a xlink:href="class_level_manager.html#a38dbd125a5877cd9b7dac9bbfa16e7fd" target="_top" xlink:title=" ">
<polygon fill="white" stroke="#666666" points="323,-77 179.5,-77 179.5,-57 323,-57 323,-77"/>
<text text-anchor="middle" x="251.25" y="-63.5" font-family="Helvetica,sans-Serif" font-size="10.00">LevelManager::LevelManager</text>
</a>
</g>
</g>
<!-- Node1&#45;&gt;Node2 -->
<g id="edge1_Node000001_Node000002" class="edge">
<title>Node1&#45;&gt;Node2</title>
<g id="a_edge1_Node000001_Node000002"><a xlink:title=" ">
<path fill="none" stroke="#63b8ff" d="M347.39,-67C339.37,-67 331.28,-67 323.4,-67"/>
<polygon fill="#63b8ff" stroke="#63b8ff" points="347.15,-70.5 357.15,-67 347.15,-63.5 347.15,-70.5"/>
</a>
</g>
</g>
<!-- Node3 -->
<g id="Node000003" class="node">
<title>Node3</title>
<g id="a_Node000003"><a xlink:href="class_level_manager.html#a607602dd7cb4d95eed181512b00e9eaf" target="_top" xlink:title=" ">
<polygon fill="white" stroke="#666666" points="143.5,-134 0,-134 0,-114 143.5,-114 143.5,-134"/>
<text text-anchor="middle" x="71.75" y="-120.5" font-family="Helvetica,sans-Serif" font-size="10.00">LevelManager::LevelManager</text>
</a>
</g>
</g>
<!-- Node2&#45;&gt;Node3 -->
<g id="edge2_Node000002_Node000003" class="edge">
<title>Node2&#45;&gt;Node3</title>
<g id="a_edge2_Node000002_Node000003"><a xlink:title=" ">
<path fill="none" stroke="#63b8ff" d="M212.13,-81.4C191.87,-88.84 166.48,-97.84 143.5,-105 133.91,-107.99 123.5,-110.94 113.69,-113.6"/>
<polygon fill="#63b8ff" stroke="#63b8ff" points="213.22,-84.73 221.39,-77.97 210.79,-78.16 213.22,-84.73"/>
</a>
</g>
</g>
<!-- Node4 -->
<g id="Node000004" class="node">
<title>Node4</title>
<g id="a_Node000004"><a xlink:href="class_level_manager.html#acfdcb27856194a4682a162ebf6969c7d" target="_top" xlink:title=" ">
<polygon fill="white" stroke="#666666" points="143.5,-96 0,-96 0,-76 143.5,-76 143.5,-96"/>
<text text-anchor="middle" x="71.75" y="-82.5" font-family="Helvetica,sans-Serif" font-size="10.00">LevelManager::LevelManager</text>
</a>
</g>
</g>
<!-- Node2&#45;&gt;Node4 -->
<g id="edge3_Node000002_Node000004" class="edge">
<title>Node2&#45;&gt;Node4</title>
<g id="a_edge3_Node000002_Node000004"><a xlink:title=" ">
<path fill="none" stroke="#63b8ff" d="M167.85,-75.82C159.86,-76.68 151.81,-77.54 143.94,-78.38"/>
<polygon fill="#63b8ff" stroke="#63b8ff" points="168,-79.32 177.57,-74.78 167.26,-72.36 168,-79.32"/>
</a>
</g>
</g>
<!-- Node5 -->
<g id="Node000005" class="node">
<title>Node5</title>
<g id="a_Node000005"><a xlink:href="class_level_manager.html#ad1cbb8c0cc1e2e6094164190be4b1d02" target="_top" xlink:title=" ">
<polygon fill="white" stroke="#666666" points="133.75,-58 9.75,-58 9.75,-38 133.75,-38 133.75,-58"/>
<text text-anchor="middle" x="71.75" y="-44.5" font-family="Helvetica,sans-Serif" font-size="10.00">LevelManager::operator=</text>
</a>
</g>
</g>
<!-- Node2&#45;&gt;Node5 -->
<g id="edge4_Node000002_Node000005" class="edge">
<title>Node2&#45;&gt;Node5</title>
<g id="a_edge4_Node000002_Node000005"><a xlink:title=" ">
<path fill="none" stroke="#63b8ff" d="M167.84,-58.18C156.52,-56.97 145.07,-55.74 134.22,-54.58"/>
<polygon fill="#63b8ff" stroke="#63b8ff" points="167.26,-61.64 177.57,-59.22 168,-54.68 167.26,-61.64"/>
</a>
</g>
</g>
<!-- Node6 -->
<g id="Node000006" class="node">
<title>Node6</title>
<g id="a_Node000006"><a xlink:href="class_level_manager.html#a92a96cb8cbc688cc750dc6ad004fe933" target="_top" xlink:title=" ">
<polygon fill="white" stroke="#666666" points="133.75,-20 9.75,-20 9.75,0 133.75,0 133.75,-20"/>
<text text-anchor="middle" x="71.75" y="-6.5" font-family="Helvetica,sans-Serif" font-size="10.00">LevelManager::operator=</text>
</a>
</g>
</g>
<!-- Node2&#45;&gt;Node6 -->
<g id="edge5_Node000002_Node000006" class="edge">
<title>Node2&#45;&gt;Node6</title>
<g id="a_edge5_Node000002_Node000006"><a xlink:title=" ">
<path fill="none" stroke="#63b8ff" d="M212.13,-52.6C191.87,-45.16 166.48,-36.16 143.5,-29 133.91,-26.01 123.5,-23.06 113.69,-20.4"/>
<polygon fill="#63b8ff" stroke="#63b8ff" points="210.79,-55.84 221.39,-56.03 213.22,-49.27 210.79,-55.84"/>
</a>
</g>
</g>
</g>
</svg>
