<?xml version="1.0" encoding="UTF-8" standalone="no"?>
<!DOCTYPE svg PUBLIC "-//W3C//DTD SVG 1.1//EN"
 "http://www.w3.org/Graphics/SVG/1.1/DTD/svg11.dtd">
<!-- Generated by graphviz version 12.2.1 (20241206.2353)
 -->
<!-- Title: Level::DoesCollide Pages: 1 -->
<svg width="700pt" height="94pt"
 viewBox="0.00 0.00 700.00 94.00" xmlns="http://www.w3.org/2000/svg" xmlns:xlink="http://www.w3.org/1999/xlink">
<g id="graph0" class="graph" transform="scale(1 1) rotate(0) translate(4 90)">
<title>Level::DoesCollide</title>
<!-- Node1 -->
<g id="Node000001" class="node">
<title>Node1</title>
<g id="a_Node000001"><a xlink:title=" ">
<polygon fill="#999999" stroke="#666666" points="98.5,-67 0,-67 0,-47 98.5,-47 98.5,-67"/>
<text text-anchor="middle" x="49.25" y="-53.5" font-family="Helvetica,sans-Serif" font-size="10.00">Level::DoesCollide</text>
</a>
</g>
</g>
<!-- Node2 -->
<g id="Node000002" class="node">
<title>Node2</title>
<g id="a_Node000002"><a xlink:href="class_character.html#a0b790800d6ff90eebee18bce25177fce" target="_top" xlink:title=" ">
<polygon fill="white" stroke="#666666" points="245,-86 134.5,-86 134.5,-66 245,-66 245,-86"/>
<text text-anchor="middle" x="189.75" y="-72.5" font-family="Helvetica,sans-Serif" font-size="10.00">Character::GetHitBox</text>
</a>
</g>
</g>
<!-- Node1&#45;&gt;Node2 -->
<g id="edge1_Node000001_Node000002" class="edge">
<title>Node1&#45;&gt;Node2</title>
<g id="a_edge1_Node000001_Node000002"><a xlink:title=" ">
<path fill="none" stroke="#63b8ff" d="M98.69,-63.65C106.63,-64.73 114.97,-65.88 123.24,-67.01"/>
<polygon fill="#63b8ff" stroke="#63b8ff" points="122.54,-70.45 132.92,-68.34 123.49,-63.51 122.54,-70.45"/>
</a>
</g>
</g>
<!-- Node3 -->
<g id="Node000003" class="node">
<title>Node3</title>
<g id="a_Node000003"><a xlink:href="namespaceutils.html#a11a0eb68e467a22aed74f507057c39ed" target="_top" xlink:title=" ">
<polygon fill="white" stroke="#666666" points="239.75,-48 139.75,-48 139.75,-28 239.75,-28 239.75,-48"/>
<text text-anchor="middle" x="189.75" y="-34.5" font-family="Helvetica,sans-Serif" font-size="10.00">utils::IsOverlapping</text>
</a>
</g>
</g>
<!-- Node1&#45;&gt;Node3 -->
<g id="edge2_Node000001_Node000003" class="edge">
<title>Node1&#45;&gt;Node3</title>
<g id="a_edge2_Node000001_Node000003"><a xlink:title=" ">
<path fill="none" stroke="#63b8ff" d="M98.69,-50.35C108.33,-49.03 118.55,-47.63 128.53,-46.26"/>
<polygon fill="#63b8ff" stroke="#63b8ff" points="128.7,-49.77 138.13,-44.94 127.75,-42.84 128.7,-49.77"/>
</a>
</g>
</g>
<!-- Node4 -->
<g id="Node000004" class="node">
<title>Node4</title>
<g id="a_Node000004"><a xlink:href="namespaceutils.html#a760075559e6ab59c1daec763fab2b488" target="_top" xlink:title=" ">
<polygon fill="white" stroke="#666666" points="418.5,-48 281,-48 281,-28 418.5,-28 418.5,-48"/>
<text text-anchor="middle" x="349.75" y="-34.5" font-family="Helvetica,sans-Serif" font-size="10.00">utils::DistPointLineSegment</text>
</a>
</g>
</g>
<!-- Node3&#45;&gt;Node4 -->
<g id="edge3_Node000003_Node000004" class="edge">
<title>Node3&#45;&gt;Node4</title>
<g id="a_edge3_Node000003_Node000004"><a xlink:title=" ">
<path fill="none" stroke="#63b8ff" d="M239.88,-38C249.22,-38 259.22,-38 269.23,-38"/>
<polygon fill="#63b8ff" stroke="#63b8ff" points="268.99,-41.5 278.99,-38 268.99,-34.5 268.99,-41.5"/>
</a>
</g>
</g>
<!-- Node5 -->
<g id="Node000005" class="node">
<title>Node5</title>
<g id="a_Node000005"><a xlink:href="struct_vector2f.html#af8ceb9310d7065eb485e47b072a5b143" target="_top" xlink:title=" ">
<polygon fill="white" stroke="#666666" points="562,-86 454.5,-86 454.5,-66 562,-66 562,-86"/>
<text text-anchor="middle" x="508.25" y="-72.5" font-family="Helvetica,sans-Serif" font-size="10.00">Vector2f::DotProduct</text>
</a>
</g>
</g>
<!-- Node4&#45;&gt;Node5 -->
<g id="edge4_Node000004_Node000005" class="edge">
<title>Node4&#45;&gt;Node5</title>
<g id="a_edge4_Node000004_Node000005"><a xlink:title=" ">
<path fill="none" stroke="#63b8ff" d="M393.93,-48.48C412.23,-52.93 433.76,-58.16 453.11,-62.85"/>
<polygon fill="#63b8ff" stroke="#63b8ff" points="452.2,-66.23 462.74,-65.19 453.85,-59.43 452.2,-66.23"/>
</a>
</g>
</g>
<!-- Node7 -->
<g id="Node000007" class="node">
<title>Node7</title>
<g id="a_Node000007"><a xlink:href="struct_vector2f.html#acedb20d25ccc3009546e120eda010bf5" target="_top" xlink:title=" ">
<polygon fill="white" stroke="#666666" points="688.62,-20 601.38,-20 601.38,0 688.62,0 688.62,-20"/>
<text text-anchor="middle" x="645" y="-6.5" font-family="Helvetica,sans-Serif" font-size="10.00">Vector2f::Length</text>
</a>
</g>
</g>
<!-- Node4&#45;&gt;Node7 -->
<g id="edge7_Node000004_Node000007" class="edge">
<title>Node4&#45;&gt;Node7</title>
<g id="a_edge7_Node000004_Node000007"><a xlink:title=" ">
<path fill="none" stroke="#63b8ff" d="M400.42,-27.51C417.49,-24.28 436.76,-21.04 454.5,-19 499.87,-13.79 551.68,-11.59 589.65,-10.66"/>
<polygon fill="#63b8ff" stroke="#63b8ff" points="589.54,-14.16 599.46,-10.44 589.38,-7.16 589.54,-14.16"/>
</a>
</g>
</g>
<!-- Node8 -->
<g id="Node000008" class="node">
<title>Node8</title>
<g id="a_Node000008"><a xlink:href="struct_vector2f.html#aba5dd756c385551a19d36b57d8cbf629" target="_top" xlink:title=" ">
<polygon fill="white" stroke="#666666" points="562,-48 454.5,-48 454.5,-28 562,-28 562,-48"/>
<text text-anchor="middle" x="508.25" y="-34.5" font-family="Helvetica,sans-Serif" font-size="10.00">Vector2f::Normalized</text>
</a>
</g>
</g>
<!-- Node4&#45;&gt;Node8 -->
<g id="edge8_Node000004_Node000008" class="edge">
<title>Node4&#45;&gt;Node8</title>
<g id="a_edge8_Node000004_Node000008"><a xlink:title=" ">
<path fill="none" stroke="#63b8ff" d="M418.94,-38C426.91,-38 435.02,-38 442.93,-38"/>
<polygon fill="#63b8ff" stroke="#63b8ff" points="442.83,-41.5 452.83,-38 442.83,-34.5 442.83,-41.5"/>
</a>
</g>
</g>
<!-- Node6 -->
<g id="Node000006" class="node">
<title>Node6</title>
<g id="a_Node000006"><a xlink:href="struct_vector2f.html#a3db9a868c58bc809e5e09a88d65a77ec" target="_top" xlink:title=" ">
<polygon fill="white" stroke="#666666" points="692,-67 598,-67 598,-47 692,-47 692,-67"/>
<text text-anchor="middle" x="645" y="-53.5" font-family="Helvetica,sans-Serif" font-size="10.00">Vector2f::Vector2f</text>
</a>
</g>
</g>
<!-- Node5&#45;&gt;Node6 -->
<g id="edge5_Node000005_Node000006" class="edge">
<title>Node5&#45;&gt;Node6</title>
<g id="a_edge5_Node000005_Node000006"><a xlink:title=" ">
<path fill="none" stroke="#63b8ff" d="M562.12,-68.55C570.14,-67.41 578.44,-66.24 586.55,-65.1"/>
<polygon fill="#63b8ff" stroke="#63b8ff" points="586.93,-68.58 596.34,-63.72 585.95,-61.65 586.93,-68.58"/>
</a>
</g>
</g>
<!-- Node6&#45;&gt;Node6 -->
<g id="edge6_Node000006_Node000006" class="edge">
<title>Node6&#45;&gt;Node6</title>
<g id="a_edge6_Node000006_Node000006"><a xlink:title=" ">
<path fill="none" stroke="#63b8ff" d="M623.27,-67.34C613.99,-75.98 621.23,-85 645,-85 658,-85 666.06,-82.3 669.17,-78.44"/>
<polygon fill="#63b8ff" stroke="#63b8ff" points="672.62,-77.83 667.05,-68.82 665.78,-79.34 672.62,-77.83"/>
</a>
</g>
</g>
<!-- Node8&#45;&gt;Node6 -->
<g id="edge10_Node000008_Node000006" class="edge">
<title>Node8&#45;&gt;Node6</title>
<g id="a_edge10_Node000008_Node000006"><a xlink:title=" ">
<path fill="none" stroke="#63b8ff" d="M562.12,-45.45C570.14,-46.59 578.44,-47.76 586.55,-48.9"/>
<polygon fill="#63b8ff" stroke="#63b8ff" points="585.95,-52.35 596.34,-50.28 586.93,-45.42 585.95,-52.35"/>
</a>
</g>
</g>
<!-- Node8&#45;&gt;Node7 -->
<g id="edge9_Node000008_Node000007" class="edge">
<title>Node8&#45;&gt;Node7</title>
<g id="a_edge9_Node000008_Node000007"><a xlink:title=" ">
<path fill="none" stroke="#63b8ff" d="M559.43,-27.57C569.43,-25.5 579.97,-23.3 590.1,-21.2"/>
<polygon fill="#63b8ff" stroke="#63b8ff" points="590.73,-24.64 599.81,-19.18 589.31,-17.79 590.73,-24.64"/>
</a>
</g>
</g>
</g>
</svg>
