<?xml version="1.0" encoding="UTF-8" standalone="no"?>
<!DOCTYPE svg PUBLIC "-//W3C//DTD SVG 1.1//EN"
 "http://www.w3.org/Graphics/SVG/1.1/DTD/svg11.dtd">
<!-- Generated by graphviz version 12.2.1 (20241206.2353)
 -->
<!-- Title: PauseMenu::GoRight Pages: 1 -->
<svg width="487pt" height="40pt"
 viewBox="0.00 0.00 487.25 40.00" xmlns="http://www.w3.org/2000/svg" xmlns:xlink="http://www.w3.org/1999/xlink">
<g id="graph0" class="graph" transform="scale(1 1) rotate(0) translate(4 36)">
<title>PauseMenu::GoRight</title>
<!-- Node1 -->
<g id="Node000001" class="node">
<title>Node1</title>
<g id="a_Node000001"><a xlink:title=" ">
<polygon fill="#999999" stroke="#666666" points="109.75,-26 0,-26 0,-6 109.75,-6 109.75,-26"/>
<text text-anchor="middle" x="54.88" y="-12.5" font-family="Helvetica,sans-Serif" font-size="10.00">PauseMenu::GoRight</text>
</a>
</g>
</g>
<!-- Node2 -->
<g id="Node000002" class="node">
<title>Node2</title>
<g id="a_Node000002"><a xlink:href="class_slider_menu_item.html#a3fe62fc64600361669cd1ad3d33c905a" target="_top" xlink:title=" ">
<polygon fill="white" stroke="#666666" points="288.5,-32 145.75,-32 145.75,0 288.5,0 288.5,-32"/>
<text text-anchor="start" x="153.75" y="-18.5" font-family="Helvetica,sans-Serif" font-size="10.00">SliderMenuItem::AdjustSlider</text>
<text text-anchor="middle" x="217.12" y="-6.5" font-family="Helvetica,sans-Serif" font-size="10.00">Right</text>
</a>
</g>
</g>
<!-- Node1&#45;&gt;Node2 -->
<g id="edge1_Node000001_Node000002" class="edge">
<title>Node1&#45;&gt;Node2</title>
<g id="a_edge1_Node000001_Node000002"><a xlink:title=" ">
<path fill="none" stroke="#63b8ff" d="M110.13,-16C117.84,-16 125.92,-16 134.02,-16"/>
<polygon fill="#63b8ff" stroke="#63b8ff" points="133.94,-19.5 143.94,-16 133.94,-12.5 133.94,-19.5"/>
</a>
</g>
</g>
<!-- Node3 -->
<g id="Node000003" class="node">
<title>Node3</title>
<g id="a_Node000003"><a xlink:href="class_slider_menu_item.html#a14cdb721ca4a62dcdcc0d2ea9a925384" target="_top" xlink:title=" ">
<polygon fill="white" stroke="#666666" points="479.25,-26 324.5,-26 324.5,-6 479.25,-6 479.25,-26"/>
<text text-anchor="middle" x="401.88" y="-12.5" font-family="Helvetica,sans-Serif" font-size="10.00">SliderMenuItem::SetPercentage</text>
</a>
</g>
</g>
<!-- Node2&#45;&gt;Node3 -->
<g id="edge2_Node000002_Node000003" class="edge">
<title>Node2&#45;&gt;Node3</title>
<g id="a_edge2_Node000002_Node000003"><a xlink:title=" ">
<path fill="none" stroke="#63b8ff" d="M288.78,-16C296.63,-16 304.7,-16 312.73,-16"/>
<polygon fill="#63b8ff" stroke="#63b8ff" points="312.53,-19.5 322.53,-16 312.53,-12.5 312.53,-19.5"/>
</a>
</g>
</g>
</g>
</svg>
