<?xml version="1.0" encoding="UTF-8" standalone="no"?>
<!DOCTYPE svg PUBLIC "-//W3C//DTD SVG 1.1//EN"
 "http://www.w3.org/Graphics/SVG/1.1/DTD/svg11.dtd">
<!-- Generated by graphviz version 12.2.1 (20241206.2353)
 -->
<!-- Title: CrumbleBlock Pages: 1 -->
<svg width="264pt" height="84pt"
 viewBox="0.00 0.00 264.12 84.00" xmlns="http://www.w3.org/2000/svg" xmlns:xlink="http://www.w3.org/1999/xlink">
<g id="graph0" class="graph" transform="scale(1 1) rotate(0) translate(4 80)">
<title>CrumbleBlock</title>
<!-- Node1 -->
<g id="Node000001" class="node">
<title>Node1</title>
<g id="a_Node000001"><a xlink:title=" ">
<polygon fill="#999999" stroke="#666666" points="150,-20 72.5,-20 72.5,0 150,0 150,-20"/>
<text text-anchor="middle" x="111.25" y="-6.5" font-family="Helvetica,sans-Serif" font-size="10.00">CrumbleBlock</text>
</a>
</g>
</g>
<!-- Node2 -->
<g id="Node000002" class="node">
<title>Node2</title>
<g id="a_Node000002"><a xlink:href="class_interactable_item.html" target="_top" xlink:title=" ">
<polygon fill="white" stroke="#666666" points="86.5,-76 0,-76 0,-56 86.5,-56 86.5,-76"/>
<text text-anchor="middle" x="43.25" y="-62.5" font-family="Helvetica,sans-Serif" font-size="10.00">InteractableItem</text>
</a>
</g>
</g>
<!-- Node2&#45;&gt;Node1 -->
<g id="edge1_Node000001_Node000002" class="edge">
<title>Node2&#45;&gt;Node1</title>
<g id="a_edge1_Node000001_Node000002"><a xlink:title=" ">
<path fill="none" stroke="#63b8ff" d="M63.8,-48.68C75.5,-39.39 89.73,-28.09 99.54,-20.3"/>
<polygon fill="#63b8ff" stroke="#63b8ff" points="61.93,-45.69 56.28,-54.65 66.29,-51.17 61.93,-45.69"/>
</a>
</g>
</g>
<!-- Node3 -->
<g id="Node000003" class="node">
<title>Node3</title>
<g id="a_Node000003"><a xlink:href="class_counted_item.html" target="_top" xlink:title=" ">
<polygon fill="white" stroke="#666666" points="256.12,-76 104.38,-76 104.38,-56 256.12,-56 256.12,-76"/>
<text text-anchor="middle" x="180.25" y="-62.5" font-family="Helvetica,sans-Serif" font-size="10.00">CountedItem&lt; CrumbleBlock &gt;</text>
</a>
</g>
</g>
<!-- Node3&#45;&gt;Node1 -->
<g id="edge2_Node000001_Node000003" class="edge">
<title>Node3&#45;&gt;Node1</title>
<g id="a_edge2_Node000001_Node000003"><a xlink:title=" ">
<path fill="none" stroke="darkgreen" d="M159.4,-48.68C147.52,-39.39 133.08,-28.09 123.13,-20.3"/>
<polygon fill="darkgreen" stroke="darkgreen" points="157.01,-51.25 167.04,-54.66 161.32,-45.74 157.01,-51.25"/>
</a>
</g>
</g>
</g>
</svg>
