<?xml version="1.0" encoding="UTF-8" standalone="no"?>
<!DOCTYPE svg PUBLIC "-//W3C//DTD SVG 1.1//EN"
 "http://www.w3.org/Graphics/SVG/1.1/DTD/svg11.dtd">
<!-- Generated by graphviz version 12.2.1 (20241206.2353)
 -->
<!-- Title: Hair::Update Pages: 1 -->
<svg width="488pt" height="103pt"
 viewBox="0.00 0.00 488.25 103.00" xmlns="http://www.w3.org/2000/svg" xmlns:xlink="http://www.w3.org/1999/xlink">
<g id="graph0" class="graph" transform="scale(1 1) rotate(0) translate(4 99)">
<title>Hair::Update</title>
<!-- Node1 -->
<g id="Node000001" class="node">
<title>Node1</title>
<g id="a_Node000001"><a xlink:title=" ">
<polygon fill="#999999" stroke="#666666" points="71.5,-76 0,-76 0,-56 71.5,-56 71.5,-76"/>
<text text-anchor="middle" x="35.75" y="-62.5" font-family="Helvetica,sans-Serif" font-size="10.00">Hair::Update</text>
</a>
</g>
</g>
<!-- Node2 -->
<g id="Node000002" class="node">
<title>Node2</title>
<g id="a_Node000002"><a xlink:href="_vector2f_8cpp.html#a8b8603f6db69bb991b8e0697f7d1ccef" target="_top" xlink:title=" ">
<polygon fill="white" stroke="#666666" points="174.5,-95 139.75,-95 139.75,-75 174.5,-75 174.5,-95"/>
<text text-anchor="middle" x="157.12" y="-81.5" font-family="Helvetica,sans-Serif" font-size="10.00">Lerp</text>
</a>
</g>
</g>
<!-- Node1&#45;&gt;Node2 -->
<g id="edge1_Node000001_Node000002" class="edge">
<title>Node1&#45;&gt;Node2</title>
<g id="a_edge1_Node000001_Node000002"><a xlink:title=" ">
<path fill="none" stroke="#63b8ff" d="M71.92,-71.6C89.85,-74.45 111.36,-77.87 128.14,-80.55"/>
<polygon fill="#63b8ff" stroke="#63b8ff" points="127.5,-83.99 137.92,-82.1 128.6,-77.07 127.5,-83.99"/>
</a>
</g>
</g>
<!-- Node3 -->
<g id="Node000003" class="node">
<title>Node3</title>
<g id="a_Node000003"><a xlink:href="class_hair.html#ac5b20368fbcda3f186dc37e3f6d17be1" target="_top" xlink:title=" ">
<polygon fill="white" stroke="#666666" points="206.75,-57 107.5,-57 107.5,-37 206.75,-37 206.75,-57"/>
<text text-anchor="middle" x="157.12" y="-43.5" font-family="Helvetica,sans-Serif" font-size="10.00">Hair::SetPartOffset</text>
</a>
</g>
</g>
<!-- Node1&#45;&gt;Node3 -->
<g id="edge2_Node000001_Node000003" class="edge">
<title>Node1&#45;&gt;Node3</title>
<g id="a_edge2_Node000001_Node000003"><a xlink:title=" ">
<path fill="none" stroke="#63b8ff" d="M71.92,-60.4C79.49,-59.2 87.69,-57.89 95.9,-56.59"/>
<polygon fill="#63b8ff" stroke="#63b8ff" points="96.23,-60.08 105.56,-55.05 95.13,-53.16 96.23,-60.08"/>
</a>
</g>
</g>
<!-- Node4 -->
<g id="Node000004" class="node">
<title>Node4</title>
<g id="a_Node000004"><a xlink:href="struct_vector2f.html#acedb20d25ccc3009546e120eda010bf5" target="_top" xlink:title=" ">
<polygon fill="white" stroke="#666666" points="476.88,-76 389.62,-76 389.62,-56 476.88,-56 476.88,-76"/>
<text text-anchor="middle" x="433.25" y="-62.5" font-family="Helvetica,sans-Serif" font-size="10.00">Vector2f::Length</text>
</a>
</g>
</g>
<!-- Node3&#45;&gt;Node4 -->
<g id="edge3_Node000003_Node000004" class="edge">
<title>Node3&#45;&gt;Node4</title>
<g id="a_edge3_Node000003_Node000004"><a xlink:title=" ">
<path fill="none" stroke="#63b8ff" d="M207.13,-50.4C255.28,-53.73 328.57,-58.81 378.34,-62.26"/>
<polygon fill="#63b8ff" stroke="#63b8ff" points="377.79,-65.73 388.01,-62.93 378.28,-58.75 377.79,-65.73"/>
</a>
</g>
</g>
<!-- Node5 -->
<g id="Node000005" class="node">
<title>Node5</title>
<g id="a_Node000005"><a xlink:href="struct_vector2f.html#aba5dd756c385551a19d36b57d8cbf629" target="_top" xlink:title=" ">
<polygon fill="white" stroke="#666666" points="350.25,-38 242.75,-38 242.75,-18 350.25,-18 350.25,-38"/>
<text text-anchor="middle" x="296.5" y="-24.5" font-family="Helvetica,sans-Serif" font-size="10.00">Vector2f::Normalized</text>
</a>
</g>
</g>
<!-- Node3&#45;&gt;Node5 -->
<g id="edge4_Node000003_Node000005" class="edge">
<title>Node3&#45;&gt;Node5</title>
<g id="a_edge4_Node000003_Node000005"><a xlink:title=" ">
<path fill="none" stroke="#63b8ff" d="M206.95,-40.25C214.9,-39.15 223.24,-37.99 231.49,-36.85"/>
<polygon fill="#63b8ff" stroke="#63b8ff" points="231.72,-40.36 241.14,-35.52 230.76,-33.42 231.72,-40.36"/>
</a>
</g>
</g>
<!-- Node5&#45;&gt;Node4 -->
<g id="edge5_Node000005_Node000004" class="edge">
<title>Node5&#45;&gt;Node4</title>
<g id="a_edge5_Node000005_Node000004"><a xlink:title=" ">
<path fill="none" stroke="#63b8ff" d="M334.68,-38.48C349.99,-42.8 367.94,-47.86 384.23,-52.46"/>
<polygon fill="#63b8ff" stroke="#63b8ff" points="383.16,-55.79 393.74,-55.14 385.06,-49.06 383.16,-55.79"/>
</a>
</g>
</g>
<!-- Node6 -->
<g id="Node000006" class="node">
<title>Node6</title>
<g id="a_Node000006"><a xlink:href="struct_vector2f.html#a3db9a868c58bc809e5e09a88d65a77ec" target="_top" xlink:title=" ">
<polygon fill="white" stroke="#666666" points="480.25,-20 386.25,-20 386.25,0 480.25,0 480.25,-20"/>
<text text-anchor="middle" x="433.25" y="-6.5" font-family="Helvetica,sans-Serif" font-size="10.00">Vector2f::Vector2f</text>
</a>
</g>
</g>
<!-- Node5&#45;&gt;Node6 -->
<g id="edge6_Node000005_Node000006" class="edge">
<title>Node5&#45;&gt;Node6</title>
<g id="a_edge6_Node000005_Node000006"><a xlink:title=" ">
<path fill="none" stroke="#63b8ff" d="M350.37,-20.94C358.39,-19.87 366.69,-18.76 374.8,-17.67"/>
<polygon fill="#63b8ff" stroke="#63b8ff" points="375.14,-21.16 384.59,-16.37 374.21,-14.22 375.14,-21.16"/>
</a>
</g>
</g>
<!-- Node6&#45;&gt;Node6 -->
<g id="edge7_Node000006_Node000006" class="edge">
<title>Node6&#45;&gt;Node6</title>
<g id="a_edge7_Node000006_Node000006"><a xlink:title=" ">
<path fill="none" stroke="#63b8ff" d="M411.52,-20.34C402.24,-28.98 409.48,-38 433.25,-38 446.25,-38 454.31,-35.3 457.42,-31.44"/>
<polygon fill="#63b8ff" stroke="#63b8ff" points="460.87,-30.83 455.3,-21.82 454.03,-32.34 460.87,-30.83"/>
</a>
</g>
</g>
</g>
</svg>
