<?xml version="1.0" encoding="UTF-8" standalone="no"?>
<!DOCTYPE svg PUBLIC "-//W3C//DTD SVG 1.1//EN"
 "http://www.w3.org/Graphics/SVG/1.1/DTD/svg11.dtd">
<!-- Generated by graphviz version 12.2.1 (20241206.2353)
 -->
<!-- Title: BaseGame::BaseGame Pages: 1 -->
<svg width="409pt" height="180pt"
 viewBox="0.00 0.00 408.50 180.00" xmlns="http://www.w3.org/2000/svg" xmlns:xlink="http://www.w3.org/1999/xlink">
<g id="graph0" class="graph" transform="scale(1 1) rotate(0) translate(4 176)">
<title>BaseGame::BaseGame</title>
<!-- Node1 -->
<g id="Node000001" class="node">
<title>Node1</title>
<g id="a_Node000001"><a xlink:title=" ">
<polygon fill="#999999" stroke="#666666" points="400.5,-96 281,-96 281,-76 400.5,-76 400.5,-96"/>
<text text-anchor="middle" x="340.75" y="-82.5" font-family="Helvetica,sans-Serif" font-size="10.00">BaseGame::BaseGame</text>
</a>
</g>
</g>
<!-- Node2 -->
<g id="Node000002" class="node">
<title>Node2</title>
<g id="a_Node000002"><a xlink:href="class_base_game.html#a6cf6fb977a6673b274a99ce224e84a95" target="_top" xlink:title=" ">
<polygon fill="white" stroke="#666666" points="245,-172 125.5,-172 125.5,-152 245,-152 245,-172"/>
<text text-anchor="middle" x="185.25" y="-158.5" font-family="Helvetica,sans-Serif" font-size="10.00">BaseGame::BaseGame</text>
</a>
</g>
</g>
<!-- Node1&#45;&gt;Node2 -->
<g id="edge1_Node000001_Node000002" class="edge">
<title>Node1&#45;&gt;Node2</title>
<g id="a_edge1_Node000001_Node000002"><a xlink:title=" ">
<path fill="none" stroke="#63b8ff" d="M315.44,-102.75C296.78,-115.07 270.06,-131.59 245,-143 238.07,-146.15 230.47,-149.02 223.1,-151.51"/>
<polygon fill="#63b8ff" stroke="#63b8ff" points="317.3,-105.72 323.65,-97.24 313.4,-99.91 317.3,-105.72"/>
</a>
</g>
</g>
<!-- Node3 -->
<g id="Node000003" class="node">
<title>Node3</title>
<g id="a_Node000003"><a xlink:href="class_base_game.html#a2b1e167243c6a6bb7788f3af518d5407" target="_top" xlink:title=" ">
<polygon fill="white" stroke="#666666" points="245,-134 125.5,-134 125.5,-114 245,-114 245,-134"/>
<text text-anchor="middle" x="185.25" y="-120.5" font-family="Helvetica,sans-Serif" font-size="10.00">BaseGame::BaseGame</text>
</a>
</g>
</g>
<!-- Node1&#45;&gt;Node3 -->
<g id="edge2_Node000001_Node000003" class="edge">
<title>Node1&#45;&gt;Node3</title>
<g id="a_edge2_Node000001_Node000003"><a xlink:title=" ">
<path fill="none" stroke="#63b8ff" d="M286.24,-99.25C267.32,-103.93 246.31,-109.13 228.46,-113.55"/>
<polygon fill="#63b8ff" stroke="#63b8ff" points="287.06,-102.65 295.93,-96.85 285.38,-95.85 287.06,-102.65"/>
</a>
</g>
</g>
<!-- Node4 -->
<g id="Node000004" class="node">
<title>Node4</title>
<g id="a_Node000004"><a xlink:href="class_game.html#ab9772b8187c0f78289a13d1c6929873c" target="_top" xlink:title=" ">
<polygon fill="white" stroke="#666666" points="222.5,-96 148,-96 148,-76 222.5,-76 222.5,-96"/>
<text text-anchor="middle" x="185.25" y="-82.5" font-family="Helvetica,sans-Serif" font-size="10.00">Game::Game</text>
</a>
</g>
</g>
<!-- Node1&#45;&gt;Node4 -->
<g id="edge3_Node000001_Node000004" class="edge">
<title>Node1&#45;&gt;Node4</title>
<g id="a_edge3_Node000001_Node000004"><a xlink:title=" ">
<path fill="none" stroke="#63b8ff" d="M269.67,-86C253.39,-86 236.71,-86 222.58,-86"/>
<polygon fill="#63b8ff" stroke="#63b8ff" points="269.33,-89.5 279.33,-86 269.33,-82.5 269.33,-89.5"/>
</a>
</g>
</g>
<!-- Node9 -->
<g id="Node000009" class="node">
<title>Node9</title>
<g id="a_Node000009"><a xlink:href="class_base_game.html#a85e11d7168155fb661492bd081dca5ea" target="_top" xlink:title=" ">
<polygon fill="white" stroke="#666666" points="241.25,-58 129.25,-58 129.25,-38 241.25,-38 241.25,-58"/>
<text text-anchor="middle" x="185.25" y="-44.5" font-family="Helvetica,sans-Serif" font-size="10.00">BaseGame::operator=</text>
</a>
</g>
</g>
<!-- Node1&#45;&gt;Node9 -->
<g id="edge8_Node000001_Node000009" class="edge">
<title>Node1&#45;&gt;Node9</title>
<g id="a_edge8_Node000001_Node000009"><a xlink:title=" ">
<path fill="none" stroke="#63b8ff" d="M286.24,-72.75C267.32,-68.07 246.31,-62.87 228.46,-58.45"/>
<polygon fill="#63b8ff" stroke="#63b8ff" points="285.38,-76.15 295.93,-75.15 287.06,-69.35 285.38,-76.15"/>
</a>
</g>
</g>
<!-- Node10 -->
<g id="Node000010" class="node">
<title>Node10</title>
<g id="a_Node000010"><a xlink:href="class_base_game.html#a2543fcf63bd404a59a798bfc91a26037" target="_top" xlink:title=" ">
<polygon fill="white" stroke="#666666" points="241.25,-20 129.25,-20 129.25,0 241.25,0 241.25,-20"/>
<text text-anchor="middle" x="185.25" y="-6.5" font-family="Helvetica,sans-Serif" font-size="10.00">BaseGame::operator=</text>
</a>
</g>
</g>
<!-- Node1&#45;&gt;Node10 -->
<g id="edge9_Node000001_Node000010" class="edge">
<title>Node1&#45;&gt;Node10</title>
<g id="a_edge9_Node000001_Node000010"><a xlink:title=" ">
<path fill="none" stroke="#63b8ff" d="M315.44,-69.25C296.78,-56.93 270.06,-40.41 245,-29 238.07,-25.85 230.47,-22.98 223.1,-20.49"/>
<polygon fill="#63b8ff" stroke="#63b8ff" points="313.4,-72.09 323.65,-74.76 317.3,-66.28 313.4,-72.09"/>
</a>
</g>
</g>
<!-- Node5 -->
<g id="Node000005" class="node">
<title>Node5</title>
<g id="a_Node000005"><a xlink:href="class_game.html#a84389b59f971371e667202ae2dd33bc6" target="_top" xlink:title=" ">
<polygon fill="white" stroke="#666666" points="82,-153 7.5,-153 7.5,-133 82,-133 82,-153"/>
<text text-anchor="middle" x="44.75" y="-139.5" font-family="Helvetica,sans-Serif" font-size="10.00">Game::Game</text>
</a>
</g>
</g>
<!-- Node4&#45;&gt;Node5 -->
<g id="edge4_Node000004_Node000005" class="edge">
<title>Node4&#45;&gt;Node5</title>
<g id="a_edge4_Node000004_Node000005"><a xlink:title=" ">
<path fill="none" stroke="#63b8ff" d="M137.94,-100.14C133.7,-101.69 129.5,-103.31 125.5,-105 108.83,-112.03 105.81,-116.17 89.5,-124 83.38,-126.94 76.69,-129.94 70.43,-132.67"/>
<polygon fill="#63b8ff" stroke="#63b8ff" points="138.74,-103.57 147.04,-96.98 136.45,-96.95 138.74,-103.57"/>
</a>
</g>
</g>
<!-- Node6 -->
<g id="Node000006" class="node">
<title>Node6</title>
<g id="a_Node000006"><a xlink:href="class_game.html#af6029629f9ebfc665b355daa0ba5702b" target="_top" xlink:title=" ">
<polygon fill="white" stroke="#666666" points="82,-115 7.5,-115 7.5,-95 82,-95 82,-115"/>
<text text-anchor="middle" x="44.75" y="-101.5" font-family="Helvetica,sans-Serif" font-size="10.00">Game::Game</text>
</a>
</g>
</g>
<!-- Node4&#45;&gt;Node6 -->
<g id="edge5_Node000004_Node000006" class="edge">
<title>Node4&#45;&gt;Node6</title>
<g id="a_edge5_Node000004_Node000006"><a xlink:title=" ">
<path fill="none" stroke="#63b8ff" d="M136.56,-92.54C118.82,-94.98 98.98,-97.7 82.38,-99.98"/>
<polygon fill="#63b8ff" stroke="#63b8ff" points="136.93,-96.02 146.36,-91.2 135.98,-89.09 136.93,-96.02"/>
</a>
</g>
</g>
<!-- Node7 -->
<g id="Node000007" class="node">
<title>Node7</title>
<g id="a_Node000007"><a xlink:href="class_game.html#a43ef27a6649924079dda61d40bbbcad3" target="_top" xlink:title=" ">
<polygon fill="white" stroke="#666666" points="89.5,-77 0,-77 0,-57 89.5,-57 89.5,-77"/>
<text text-anchor="middle" x="44.75" y="-63.5" font-family="Helvetica,sans-Serif" font-size="10.00">Game::operator=</text>
</a>
</g>
</g>
<!-- Node4&#45;&gt;Node7 -->
<g id="edge6_Node000004_Node000007" class="edge">
<title>Node4&#45;&gt;Node7</title>
<g id="a_edge6_Node000004_Node000007"><a xlink:title=" ">
<path fill="none" stroke="#63b8ff" d="M136.61,-79.46C121.43,-77.38 104.71,-75.09 89.79,-73.04"/>
<polygon fill="#63b8ff" stroke="#63b8ff" points="135.98,-82.91 146.36,-80.8 136.93,-75.98 135.98,-82.91"/>
</a>
</g>
</g>
<!-- Node8 -->
<g id="Node000008" class="node">
<title>Node8</title>
<g id="a_Node000008"><a xlink:href="class_game.html#a3b460473049099c7d2020e82059f24e1" target="_top" xlink:title=" ">
<polygon fill="white" stroke="#666666" points="89.5,-39 0,-39 0,-19 89.5,-19 89.5,-39"/>
<text text-anchor="middle" x="44.75" y="-25.5" font-family="Helvetica,sans-Serif" font-size="10.00">Game::operator=</text>
</a>
</g>
</g>
<!-- Node4&#45;&gt;Node8 -->
<g id="edge7_Node000004_Node000008" class="edge">
<title>Node4&#45;&gt;Node8</title>
<g id="a_edge7_Node000004_Node000008"><a xlink:title=" ">
<path fill="none" stroke="#63b8ff" d="M137.94,-71.86C133.7,-70.31 129.5,-68.69 125.5,-67 108.83,-59.97 105.81,-55.83 89.5,-48 83.38,-45.06 76.69,-42.06 70.43,-39.33"/>
<polygon fill="#63b8ff" stroke="#63b8ff" points="136.45,-75.05 147.04,-75.02 138.74,-68.43 136.45,-75.05"/>
</a>
</g>
</g>
</g>
</svg>
