<?xml version="1.0" encoding="UTF-8" standalone="no"?>
<!DOCTYPE svg PUBLIC "-//W3C//DTD SVG 1.1//EN"
 "http://www.w3.org/Graphics/SVG/1.1/DTD/svg11.dtd">
<!-- Generated by graphviz version 12.2.1 (20241206.2353)
 -->
<!-- Title: Character::Dash Pages: 1 -->
<svg width="370pt" height="84pt"
 viewBox="0.00 0.00 369.50 84.00" xmlns="http://www.w3.org/2000/svg" xmlns:xlink="http://www.w3.org/1999/xlink">
<g id="graph0" class="graph" transform="scale(1 1) rotate(0) translate(4 80)">
<title>Character::Dash</title>
<!-- Node1 -->
<g id="Node000001" class="node">
<title>Node1</title>
<g id="a_Node000001"><a xlink:title=" ">
<polygon fill="#999999" stroke="#666666" points="88,-48 0,-48 0,-28 88,-28 88,-48"/>
<text text-anchor="middle" x="44" y="-34.5" font-family="Helvetica,sans-Serif" font-size="10.00">Character::Dash</text>
</a>
</g>
</g>
<!-- Node2 -->
<g id="Node000002" class="node">
<title>Node2</title>
<g id="a_Node000002"><a xlink:href="struct_vector2f.html#aba5dd756c385551a19d36b57d8cbf629" target="_top" xlink:title=" ">
<polygon fill="white" stroke="#666666" points="231.5,-48 124,-48 124,-28 231.5,-28 231.5,-48"/>
<text text-anchor="middle" x="177.75" y="-34.5" font-family="Helvetica,sans-Serif" font-size="10.00">Vector2f::Normalized</text>
</a>
</g>
</g>
<!-- Node1&#45;&gt;Node2 -->
<g id="edge1_Node000001_Node000002" class="edge">
<title>Node1&#45;&gt;Node2</title>
<g id="a_edge1_Node000001_Node000002"><a xlink:title=" ">
<path fill="none" stroke="#63b8ff" d="M88.14,-38C95.98,-38 104.31,-38 112.61,-38"/>
<polygon fill="#63b8ff" stroke="#63b8ff" points="112.34,-41.5 122.34,-38 112.34,-34.5 112.34,-41.5"/>
</a>
</g>
</g>
<!-- Node3 -->
<g id="Node000003" class="node">
<title>Node3</title>
<g id="a_Node000003"><a xlink:href="struct_vector2f.html#acedb20d25ccc3009546e120eda010bf5" target="_top" xlink:title=" ">
<polygon fill="white" stroke="#666666" points="358.12,-76 270.88,-76 270.88,-56 358.12,-56 358.12,-76"/>
<text text-anchor="middle" x="314.5" y="-62.5" font-family="Helvetica,sans-Serif" font-size="10.00">Vector2f::Length</text>
</a>
</g>
</g>
<!-- Node2&#45;&gt;Node3 -->
<g id="edge2_Node000002_Node000003" class="edge">
<title>Node2&#45;&gt;Node3</title>
<g id="a_edge2_Node000002_Node000003"><a xlink:title=" ">
<path fill="none" stroke="#63b8ff" d="M228.93,-48.43C238.93,-50.5 249.47,-52.7 259.6,-54.8"/>
<polygon fill="#63b8ff" stroke="#63b8ff" points="258.81,-58.21 269.31,-56.82 260.23,-51.36 258.81,-58.21"/>
</a>
</g>
</g>
<!-- Node4 -->
<g id="Node000004" class="node">
<title>Node4</title>
<g id="a_Node000004"><a xlink:href="struct_vector2f.html#a3db9a868c58bc809e5e09a88d65a77ec" target="_top" xlink:title=" ">
<polygon fill="white" stroke="#666666" points="361.5,-20 267.5,-20 267.5,0 361.5,0 361.5,-20"/>
<text text-anchor="middle" x="314.5" y="-6.5" font-family="Helvetica,sans-Serif" font-size="10.00">Vector2f::Vector2f</text>
</a>
</g>
</g>
<!-- Node2&#45;&gt;Node4 -->
<g id="edge3_Node000002_Node000004" class="edge">
<title>Node2&#45;&gt;Node4</title>
<g id="a_edge3_Node000002_Node000004"><a xlink:title=" ">
<path fill="none" stroke="#63b8ff" d="M228.93,-27.57C237.76,-25.74 247.03,-23.81 256.05,-21.94"/>
<polygon fill="#63b8ff" stroke="#63b8ff" points="256.73,-25.37 265.81,-19.91 255.31,-18.52 256.73,-25.37"/>
</a>
</g>
</g>
<!-- Node4&#45;&gt;Node4 -->
<g id="edge4_Node000004_Node000004" class="edge">
<title>Node4&#45;&gt;Node4</title>
<g id="a_edge4_Node000004_Node000004"><a xlink:title=" ">
<path fill="none" stroke="#63b8ff" d="M292.77,-20.34C283.49,-28.98 290.73,-38 314.5,-38 327.5,-38 335.56,-35.3 338.67,-31.44"/>
<polygon fill="#63b8ff" stroke="#63b8ff" points="342.12,-30.83 336.55,-21.82 335.28,-32.34 342.12,-30.83"/>
</a>
</g>
</g>
</g>
</svg>
