<?xml version="1.0" encoding="UTF-8" standalone="no"?>
<!DOCTYPE svg PUBLIC "-//W3C//DTD SVG 1.1//EN"
 "http://www.w3.org/Graphics/SVG/1.1/DTD/svg11.dtd">
<!-- Generated by graphviz version 12.2.1 (20241206.2353)
 -->
<!-- Title: SliderMenuItem::Draw Pages: 1 -->
<svg width="455pt" height="122pt"
 viewBox="0.00 0.00 455.00 122.00" xmlns="http://www.w3.org/2000/svg" xmlns:xlink="http://www.w3.org/1999/xlink">
<g id="graph0" class="graph" transform="scale(1 1) rotate(0) translate(4 118)">
<title>SliderMenuItem::Draw</title>
<!-- Node1 -->
<g id="Node000001" class="node">
<title>Node1</title>
<g id="a_Node000001"><a xlink:title=" ">
<polygon fill="#999999" stroke="#666666" points="113.5,-77 0,-77 0,-57 113.5,-57 113.5,-77"/>
<text text-anchor="middle" x="56.75" y="-63.5" font-family="Helvetica,sans-Serif" font-size="10.00">SliderMenuItem::Draw</text>
</a>
</g>
</g>
<!-- Node2 -->
<g id="Node000002" class="node">
<title>Node2</title>
<g id="a_Node000002"><a xlink:href="class_texture.html#a7b647d8063384d6f94375245f6139ee9" target="_top" xlink:title=" ">
<polygon fill="white" stroke="#666666" points="257.38,-96 179.88,-96 179.88,-76 257.38,-76 257.38,-96"/>
<text text-anchor="middle" x="218.62" y="-82.5" font-family="Helvetica,sans-Serif" font-size="10.00">Texture::Draw</text>
</a>
</g>
</g>
<!-- Node1&#45;&gt;Node2 -->
<g id="edge1_Node000001_Node000002" class="edge">
<title>Node1&#45;&gt;Node2</title>
<g id="a_edge1_Node000001_Node000002"><a xlink:title=" ">
<path fill="none" stroke="#63b8ff" d="M113.67,-73.65C131.54,-75.77 151.18,-78.1 168.54,-80.17"/>
<polygon fill="#63b8ff" stroke="#63b8ff" points="167.72,-83.59 178.06,-81.3 168.55,-76.64 167.72,-83.59"/>
</a>
</g>
</g>
<!-- Node3 -->
<g id="Node000003" class="node">
<title>Node3</title>
<g id="a_Node000003"><a xlink:href="class_slider_menu_item.html#a2e9e1a49f05d0450ef6af9ef0c31cc50" target="_top" xlink:title=" ">
<polygon fill="white" stroke="#666666" points="287.75,-58 149.5,-58 149.5,-38 287.75,-38 287.75,-58"/>
<text text-anchor="middle" x="218.62" y="-44.5" font-family="Helvetica,sans-Serif" font-size="10.00">SliderMenuItem::DrawSlider</text>
</a>
</g>
</g>
<!-- Node1&#45;&gt;Node3 -->
<g id="edge3_Node000001_Node000003" class="edge">
<title>Node1&#45;&gt;Node3</title>
<g id="a_edge3_Node000001_Node000003"><a xlink:title=" ">
<path fill="none" stroke="#63b8ff" d="M113.67,-60.35C121.44,-59.43 129.55,-58.47 137.65,-57.5"/>
<polygon fill="#63b8ff" stroke="#63b8ff" points="138.06,-60.98 147.58,-56.32 137.23,-54.03 138.06,-60.98"/>
</a>
</g>
</g>
<!-- Node2&#45;&gt;Node2 -->
<g id="edge2_Node000002_Node000002" class="edge">
<title>Node2&#45;&gt;Node2</title>
<g id="a_edge2_Node000002_Node000002"><a xlink:title=" ">
<path fill="none" stroke="#63b8ff" d="M192.9,-96.34C181.91,-104.98 190.49,-114 218.62,-114 234.01,-114 243.55,-111.3 247.24,-107.44"/>
<polygon fill="#63b8ff" stroke="#63b8ff" points="250.63,-106.6 244.73,-97.8 243.86,-108.36 250.63,-106.6"/>
</a>
</g>
</g>
<!-- Node4 -->
<g id="Node000004" class="node">
<title>Node4</title>
<g id="a_Node000004"><a xlink:href="namespaceutils.html#a4580e5c28f2812f929cdbd60059b2635" target="_top" xlink:title=" ">
<polygon fill="white" stroke="#666666" points="447,-96 323.75,-96 323.75,-76 447,-76 447,-96"/>
<text text-anchor="middle" x="385.38" y="-82.5" font-family="Helvetica,sans-Serif" font-size="10.00">utils::DrawRoundedRect</text>
</a>
</g>
</g>
<!-- Node3&#45;&gt;Node4 -->
<g id="edge4_Node000003_Node000004" class="edge">
<title>Node3&#45;&gt;Node4</title>
<g id="a_edge4_Node000003_Node000004"><a xlink:title=" ">
<path fill="none" stroke="#63b8ff" d="M265.08,-58.48C284.53,-62.97 307.44,-68.25 327.95,-72.99"/>
<polygon fill="#63b8ff" stroke="#63b8ff" points="327.06,-76.37 337.59,-75.21 328.64,-69.55 327.06,-76.37"/>
</a>
</g>
</g>
<!-- Node5 -->
<g id="Node000005" class="node">
<title>Node5</title>
<g id="a_Node000005"><a xlink:href="namespaceutils.html#aa8fda4c292a496aeb53a87e7b6dc32f1" target="_top" xlink:title=" ">
<polygon fill="white" stroke="#666666" points="426.38,-58 344.38,-58 344.38,-38 426.38,-38 426.38,-58"/>
<text text-anchor="middle" x="385.38" y="-44.5" font-family="Helvetica,sans-Serif" font-size="10.00">utils::FillEllipse</text>
</a>
</g>
</g>
<!-- Node3&#45;&gt;Node5 -->
<g id="edge5_Node000003_Node000005" class="edge">
<title>Node3&#45;&gt;Node5</title>
<g id="a_edge5_Node000003_Node000005"><a xlink:title=" ">
<path fill="none" stroke="#63b8ff" d="M288.06,-48C302.98,-48 318.53,-48 332.67,-48"/>
<polygon fill="#63b8ff" stroke="#63b8ff" points="332.66,-51.5 342.66,-48 332.66,-44.5 332.66,-51.5"/>
</a>
</g>
</g>
<!-- Node6 -->
<g id="Node000006" class="node">
<title>Node6</title>
<g id="a_Node000006"><a xlink:href="namespaceutils.html#abc8380a69410c7b193d9d36474ae211f" target="_top" xlink:title=" ">
<polygon fill="white" stroke="#666666" points="424.5,-20 346.25,-20 346.25,0 424.5,0 424.5,-20"/>
<text text-anchor="middle" x="385.38" y="-6.5" font-family="Helvetica,sans-Serif" font-size="10.00">utils::SetColor</text>
</a>
</g>
</g>
<!-- Node3&#45;&gt;Node6 -->
<g id="edge6_Node000003_Node000006" class="edge">
<title>Node3&#45;&gt;Node6</title>
<g id="a_edge6_Node000003_Node000006"><a xlink:title=" ">
<path fill="none" stroke="#63b8ff" d="M265.08,-37.52C286.65,-32.54 312.49,-26.58 334.59,-21.48"/>
<polygon fill="#63b8ff" stroke="#63b8ff" points="335.33,-24.9 344.29,-19.25 333.76,-18.08 335.33,-24.9"/>
</a>
</g>
</g>
</g>
</svg>
