<?xml version="1.0" encoding="UTF-8" standalone="no"?>
<!DOCTYPE svg PUBLIC "-//W3C//DTD SVG 1.1//EN"
 "http://www.w3.org/Graphics/SVG/1.1/DTD/svg11.dtd">
<!-- Generated by graphviz version 12.2.1 (20241206.2353)
 -->
<!-- Title: CharacterTextureManager::Draw Pages: 1 -->
<svg width="255pt" height="66pt"
 viewBox="0.00 0.00 254.50 66.00" xmlns="http://www.w3.org/2000/svg" xmlns:xlink="http://www.w3.org/1999/xlink">
<g id="graph0" class="graph" transform="scale(1 1) rotate(0) translate(4 62)">
<title>CharacterTextureManager::Draw</title>
<!-- Node1 -->
<g id="Node000001" class="node">
<title>Node1</title>
<g id="a_Node000001"><a xlink:title=" ">
<polygon fill="#999999" stroke="#666666" points="128.5,-45 0,-45 0,-13 128.5,-13 128.5,-45"/>
<text text-anchor="start" x="8" y="-31.5" font-family="Helvetica,sans-Serif" font-size="10.00">CharacterTextureManager</text>
<text text-anchor="middle" x="64.25" y="-19.5" font-family="Helvetica,sans-Serif" font-size="10.00">::Draw</text>
</a>
</g>
</g>
<!-- Node2 -->
<g id="Node000002" class="node">
<title>Node2</title>
<g id="a_Node000002"><a xlink:href="namespaceutils.html#aa8fda4c292a496aeb53a87e7b6dc32f1" target="_top" xlink:title=" ">
<polygon fill="white" stroke="#666666" points="246.5,-58 164.5,-58 164.5,-38 246.5,-38 246.5,-58"/>
<text text-anchor="middle" x="205.5" y="-44.5" font-family="Helvetica,sans-Serif" font-size="10.00">utils::FillEllipse</text>
</a>
</g>
</g>
<!-- Node1&#45;&gt;Node2 -->
<g id="edge1_Node000001_Node000002" class="edge">
<title>Node1&#45;&gt;Node2</title>
<g id="a_edge1_Node000001_Node000002"><a xlink:title=" ">
<path fill="none" stroke="#63b8ff" d="M128.76,-37.67C136.86,-38.77 145.07,-39.89 152.94,-40.97"/>
<polygon fill="#63b8ff" stroke="#63b8ff" points="152.31,-44.41 162.69,-42.3 153.26,-37.48 152.31,-44.41"/>
</a>
</g>
</g>
<!-- Node3 -->
<g id="Node000003" class="node">
<title>Node3</title>
<g id="a_Node000003"><a xlink:href="namespaceutils.html#abc8380a69410c7b193d9d36474ae211f" target="_top" xlink:title=" ">
<polygon fill="white" stroke="#666666" points="244.62,-20 166.38,-20 166.38,0 244.62,0 244.62,-20"/>
<text text-anchor="middle" x="205.5" y="-6.5" font-family="Helvetica,sans-Serif" font-size="10.00">utils::SetColor</text>
</a>
</g>
</g>
<!-- Node1&#45;&gt;Node3 -->
<g id="edge2_Node000001_Node000003" class="edge">
<title>Node1&#45;&gt;Node3</title>
<g id="a_edge2_Node000001_Node000003"><a xlink:title=" ">
<path fill="none" stroke="#63b8ff" d="M128.76,-20.33C137.54,-19.14 146.45,-17.92 154.92,-16.76"/>
<polygon fill="#63b8ff" stroke="#63b8ff" points="155.23,-20.26 164.66,-15.44 154.28,-13.32 155.23,-20.26"/>
</a>
</g>
</g>
</g>
</svg>
