<?xml version="1.0" encoding="UTF-8" standalone="no"?>
<!DOCTYPE svg PUBLIC "-//W3C//DTD SVG 1.1//EN"
 "http://www.w3.org/Graphics/SVG/1.1/DTD/svg11.dtd">
<!-- Generated by graphviz version 12.2.1 (20241206.2353)
 -->
<!-- Title: Strawberry::Strawberry Pages: 1 -->
<svg width="324pt" height="78pt"
 viewBox="0.00 0.00 323.50 78.00" xmlns="http://www.w3.org/2000/svg" xmlns:xlink="http://www.w3.org/1999/xlink">
<g id="graph0" class="graph" transform="scale(1 1) rotate(0) translate(4 74)">
<title>Strawberry::Strawberry</title>
<!-- Node1 -->
<g id="Node000001" class="node">
<title>Node1</title>
<g id="a_Node000001"><a xlink:title=" ">
<polygon fill="#999999" stroke="#666666" points="116.5,-42 0,-42 0,-22 116.5,-22 116.5,-42"/>
<text text-anchor="middle" x="58.25" y="-28.5" font-family="Helvetica,sans-Serif" font-size="10.00">Strawberry::Strawberry</text>
</a>
</g>
</g>
<!-- Node2 -->
<g id="Node000002" class="node">
<title>Node2</title>
<g id="a_Node000002"><a xlink:href="class_counted_item.html#a7a4f3ec5e121b459d51a818c9ed0e269" target="_top" xlink:title=" ">
<polygon fill="white" stroke="#666666" points="298.25,-70 169.75,-70 169.75,-38 298.25,-38 298.25,-70"/>
<text text-anchor="start" x="177.75" y="-56.5" font-family="Helvetica,sans-Serif" font-size="10.00">CountedItem&lt; Strawberry</text>
<text text-anchor="middle" x="234" y="-44.5" font-family="Helvetica,sans-Serif" font-size="10.00"> &gt;::GetCount</text>
</a>
</g>
</g>
<!-- Node1&#45;&gt;Node2 -->
<g id="edge1_Node000001_Node000002" class="edge">
<title>Node1&#45;&gt;Node2</title>
<g id="a_edge1_Node000001_Node000002"><a xlink:title=" ">
<path fill="none" stroke="#63b8ff" d="M116.62,-39.26C129.96,-40.95 144.35,-42.78 158.31,-44.54"/>
<polygon fill="#63b8ff" stroke="#63b8ff" points="157.53,-47.97 167.89,-45.76 158.41,-41.03 157.53,-47.97"/>
</a>
</g>
</g>
<!-- Node3 -->
<g id="Node000003" class="node">
<title>Node3</title>
<g id="a_Node000003"><a xlink:href="class_interactable_item.html#a5e5b9c459514e29098aaff5e62761569" target="_top" xlink:title=" ">
<polygon fill="white" stroke="#666666" points="315.5,-20 152.5,-20 152.5,0 315.5,0 315.5,-20"/>
<text text-anchor="middle" x="234" y="-6.5" font-family="Helvetica,sans-Serif" font-size="10.00">InteractableItem::InteractableItem</text>
</a>
</g>
</g>
<!-- Node1&#45;&gt;Node3 -->
<g id="edge2_Node000001_Node000003" class="edge">
<title>Node1&#45;&gt;Node3</title>
<g id="a_edge2_Node000001_Node000003"><a xlink:title=" ">
<path fill="none" stroke="#63b8ff" d="M116.62,-24.74C124.44,-23.75 132.62,-22.71 140.86,-21.67"/>
<polygon fill="#63b8ff" stroke="#63b8ff" points="141.12,-25.16 150.6,-20.43 140.24,-18.22 141.12,-25.16"/>
</a>
</g>
</g>
</g>
</svg>
