<?xml version="1.0" encoding="UTF-8" standalone="no"?>
<!DOCTYPE svg PUBLIC "-//W3C//DTD SVG 1.1//EN"
 "http://www.w3.org/Graphics/SVG/1.1/DTD/svg11.dtd">
<!-- Generated by graphviz version 12.2.1 (20241206.2353)
 -->
<!-- Title: AnimationManager::IsEndOfAnimation Pages: 1 -->
<svg width="505pt" height="40pt"
 viewBox="0.00 0.00 505.25 40.00" xmlns="http://www.w3.org/2000/svg" xmlns:xlink="http://www.w3.org/1999/xlink">
<g id="graph0" class="graph" transform="scale(1 1) rotate(0) translate(4 36)">
<title>AnimationManager::IsEndOfAnimation</title>
<!-- Node1 -->
<g id="Node000001" class="node">
<title>Node1</title>
<g id="a_Node000001"><a xlink:title=" ">
<polygon fill="#999999" stroke="#666666" points="497.25,-32 358.25,-32 358.25,0 497.25,0 497.25,-32"/>
<text text-anchor="start" x="366.25" y="-18.5" font-family="Helvetica,sans-Serif" font-size="10.00">AnimationManager::IsEndOf</text>
<text text-anchor="middle" x="427.75" y="-6.5" font-family="Helvetica,sans-Serif" font-size="10.00">Animation</text>
</a>
</g>
</g>
<!-- Node2 -->
<g id="Node000002" class="node">
<title>Node2</title>
<g id="a_Node000002"><a xlink:href="class_animation_manager.html#a5ad7f4ddb1ff34967fcdb9d32fd28614" target="_top" xlink:title=" ">
<polygon fill="white" stroke="#666666" points="322.25,-26 170.5,-26 170.5,-6 322.25,-6 322.25,-26"/>
<text text-anchor="middle" x="246.38" y="-12.5" font-family="Helvetica,sans-Serif" font-size="10.00">AnimationManager::NextFrame</text>
</a>
</g>
</g>
<!-- Node1&#45;&gt;Node2 -->
<g id="edge1_Node000001_Node000002" class="edge">
<title>Node1&#45;&gt;Node2</title>
<g id="a_edge1_Node000001_Node000002"><a xlink:title=" ">
<path fill="none" stroke="#63b8ff" d="M346.4,-16C338.48,-16 330.46,-16 322.59,-16"/>
<polygon fill="#63b8ff" stroke="#63b8ff" points="346.4,-19.5 356.4,-16 346.4,-12.5 346.4,-19.5"/>
</a>
</g>
</g>
<!-- Node3 -->
<g id="Node000003" class="node">
<title>Node3</title>
<g id="a_Node000003"><a xlink:href="class_animation_manager.html#a878000640173ea3bd8f393ab0f2db626" target="_top" xlink:title=" ">
<polygon fill="white" stroke="#666666" points="134.5,-26 0,-26 0,-6 134.5,-6 134.5,-26"/>
<text text-anchor="middle" x="67.25" y="-12.5" font-family="Helvetica,sans-Serif" font-size="10.00">AnimationManager::Update</text>
</a>
</g>
</g>
<!-- Node2&#45;&gt;Node3 -->
<g id="edge2_Node000002_Node000003" class="edge">
<title>Node2&#45;&gt;Node3</title>
<g id="a_edge2_Node000002_Node000003"><a xlink:title=" ">
<path fill="none" stroke="#63b8ff" d="M158.71,-16C150.7,-16 142.66,-16 134.87,-16"/>
<polygon fill="#63b8ff" stroke="#63b8ff" points="158.49,-19.5 168.49,-16 158.49,-12.5 158.49,-19.5"/>
</a>
</g>
</g>
</g>
</svg>
