<?xml version="1.0" encoding="UTF-8" standalone="no"?>
<!DOCTYPE svg PUBLIC "-//W3C//DTD SVG 1.1//EN"
 "http://www.w3.org/Graphics/SVG/1.1/DTD/svg11.dtd">
<!-- Generated by graphviz version 12.2.1 (20241206.2353)
 -->
<!-- Title: FlyingStrawberry::operator= Pages: 1 -->
<svg width="459pt" height="84pt"
 viewBox="0.00 0.00 458.75 84.00" xmlns="http://www.w3.org/2000/svg" xmlns:xlink="http://www.w3.org/1999/xlink">
<g id="graph0" class="graph" transform="scale(1 1) rotate(0) translate(4 80)">
<title>FlyingStrawberry::operator=</title>
<!-- Node1 -->
<g id="Node000001" class="node">
<title>Node1</title>
<g id="a_Node000001"><a xlink:title=" ">
<polygon fill="#999999" stroke="#666666" points="136.75,-48 0,-48 0,-28 136.75,-28 136.75,-48"/>
<text text-anchor="middle" x="68.38" y="-34.5" font-family="Helvetica,sans-Serif" font-size="10.00">FlyingStrawberry::operator=</text>
</a>
</g>
</g>
<!-- Node2 -->
<g id="Node000002" class="node">
<title>Node2</title>
<g id="a_Node000002"><a xlink:href="class_flying_strawberry.html#a3603795cd3a0c20e776eafe4138f59b4" target="_top" xlink:title=" ">
<polygon fill="white" stroke="#666666" points="294.5,-54 172.75,-54 172.75,-22 294.5,-22 294.5,-54"/>
<text text-anchor="start" x="180.75" y="-40.5" font-family="Helvetica,sans-Serif" font-size="10.00">FlyingStrawberry::Flying</text>
<text text-anchor="middle" x="233.62" y="-28.5" font-family="Helvetica,sans-Serif" font-size="10.00">Strawberry</text>
</a>
</g>
</g>
<!-- Node1&#45;&gt;Node2 -->
<g id="edge1_Node000001_Node000002" class="edge">
<title>Node1&#45;&gt;Node2</title>
<g id="a_edge1_Node000001_Node000002"><a xlink:title=" ">
<path fill="none" stroke="#63b8ff" d="M137.19,-38C145.02,-38 153.02,-38 160.9,-38"/>
<polygon fill="#63b8ff" stroke="#63b8ff" points="160.8,-41.5 170.8,-38 160.8,-34.5 160.8,-41.5"/>
</a>
</g>
</g>
<!-- Node3 -->
<g id="Node000003" class="node">
<title>Node3</title>
<g id="a_Node000003"><a xlink:href="class_counted_item.html#a7a4f3ec5e121b459d51a818c9ed0e269" target="_top" xlink:title=" ">
<polygon fill="white" stroke="#666666" points="450.75,-76 330.5,-76 330.5,-56 450.75,-56 450.75,-76"/>
<text text-anchor="middle" x="390.62" y="-62.5" font-family="Helvetica,sans-Serif" font-size="10.00">CountedItem::GetCount</text>
</a>
</g>
</g>
<!-- Node2&#45;&gt;Node3 -->
<g id="edge2_Node000002_Node000003" class="edge">
<title>Node2&#45;&gt;Node3</title>
<g id="a_edge2_Node000002_Node000003"><a xlink:title=" ">
<path fill="none" stroke="#63b8ff" d="M295,-48.91C303.39,-50.42 312.06,-51.99 320.6,-53.53"/>
<polygon fill="#63b8ff" stroke="#63b8ff" points="319.75,-56.93 330.22,-55.27 321,-50.05 319.75,-56.93"/>
</a>
</g>
</g>
<!-- Node4 -->
<g id="Node000004" class="node">
<title>Node4</title>
<g id="a_Node000004"><a xlink:href="class_strawberry.html#ab4dff64037a1d41eb23ef267eeda6510" target="_top" xlink:title=" ">
<polygon fill="white" stroke="#666666" points="448.88,-20 332.38,-20 332.38,0 448.88,0 448.88,-20"/>
<text text-anchor="middle" x="390.62" y="-6.5" font-family="Helvetica,sans-Serif" font-size="10.00">Strawberry::Strawberry</text>
</a>
</g>
</g>
<!-- Node2&#45;&gt;Node4 -->
<g id="edge3_Node000002_Node000004" class="edge">
<title>Node2&#45;&gt;Node4</title>
<g id="a_edge3_Node000002_Node000004"><a xlink:title=" ">
<path fill="none" stroke="#63b8ff" d="M295,-27.09C303.45,-25.57 312.19,-23.99 320.78,-22.44"/>
<polygon fill="#63b8ff" stroke="#63b8ff" points="321.25,-25.91 330.47,-20.69 320.01,-19.02 321.25,-25.91"/>
</a>
</g>
</g>
<!-- Node4&#45;&gt;Node4 -->
<g id="edge4_Node000004_Node000004" class="edge">
<title>Node4&#45;&gt;Node4</title>
<g id="a_edge4_Node000004_Node000004"><a xlink:title=" ">
<path fill="none" stroke="#63b8ff" d="M365.68,-20.34C355.02,-28.98 363.33,-38 390.62,-38 405.55,-38 414.8,-35.3 418.37,-31.44"/>
<polygon fill="#63b8ff" stroke="#63b8ff" points="421.78,-30.65 415.94,-21.81 415,-32.36 421.78,-30.65"/>
</a>
</g>
</g>
</g>
</svg>
