<?xml version="1.0" encoding="UTF-8" standalone="no"?>
<!DOCTYPE svg PUBLIC "-//W3C//DTD SVG 1.1//EN"
 "http://www.w3.org/Graphics/SVG/1.1/DTD/svg11.dtd">
<!-- Generated by graphviz version 12.2.1 (20241206.2353)
 -->
<!-- Title: CogPlatform::CogPlatform Pages: 1 -->
<svg width="678pt" height="78pt"
 viewBox="0.00 0.00 678.00 78.00" xmlns="http://www.w3.org/2000/svg" xmlns:xlink="http://www.w3.org/1999/xlink">
<g id="graph0" class="graph" transform="scale(1 1) rotate(0) translate(4 74)">
<title>CogPlatform::CogPlatform</title>
<!-- Node1 -->
<g id="Node000001" class="node">
<title>Node1</title>
<g id="a_Node000001"><a xlink:title=" ">
<polygon fill="#999999" stroke="#666666" points="131.5,-42 0,-42 0,-22 131.5,-22 131.5,-42"/>
<text text-anchor="middle" x="65.75" y="-28.5" font-family="Helvetica,sans-Serif" font-size="10.00">CogPlatform::CogPlatform</text>
</a>
</g>
</g>
<!-- Node2 -->
<g id="Node000002" class="node">
<title>Node2</title>
<g id="a_Node000002"><a xlink:href="class_cog_platform.html#aa8ddb28be91c8e5887864a9a7df629e1" target="_top" xlink:title=" ">
<polygon fill="white" stroke="#666666" points="299,-42 167.5,-42 167.5,-22 299,-22 299,-42"/>
<text text-anchor="middle" x="233.25" y="-28.5" font-family="Helvetica,sans-Serif" font-size="10.00">CogPlatform::CogPlatform</text>
</a>
</g>
</g>
<!-- Node1&#45;&gt;Node2 -->
<g id="edge1_Node000001_Node000002" class="edge">
<title>Node1&#45;&gt;Node2</title>
<g id="a_edge1_Node000001_Node000002"><a xlink:title=" ">
<path fill="none" stroke="#63b8ff" d="M131.68,-32C139.63,-32 147.79,-32 155.88,-32"/>
<polygon fill="#63b8ff" stroke="#63b8ff" points="155.72,-35.5 165.72,-32 155.72,-28.5 155.72,-35.5"/>
</a>
</g>
</g>
<!-- Node3 -->
<g id="Node000003" class="node">
<title>Node3</title>
<g id="a_Node000003"><a xlink:href="class_counted_item.html#a7a4f3ec5e121b459d51a818c9ed0e269" target="_top" xlink:title=" ">
<polygon fill="white" stroke="#666666" points="484.5,-70 348.5,-70 348.5,-38 484.5,-38 484.5,-70"/>
<text text-anchor="start" x="356.5" y="-56.5" font-family="Helvetica,sans-Serif" font-size="10.00">CountedItem&lt; CogPlatform</text>
<text text-anchor="middle" x="416.5" y="-44.5" font-family="Helvetica,sans-Serif" font-size="10.00"> &gt;::GetCount</text>
</a>
</g>
</g>
<!-- Node2&#45;&gt;Node3 -->
<g id="edge2_Node000002_Node000003" class="edge">
<title>Node2&#45;&gt;Node3</title>
<g id="a_edge2_Node000002_Node000003"><a xlink:title=" ">
<path fill="none" stroke="#63b8ff" d="M299.43,-39.91C311.55,-41.38 324.33,-42.93 336.81,-44.45"/>
<polygon fill="#63b8ff" stroke="#63b8ff" points="336.3,-47.91 346.65,-45.64 337.14,-40.96 336.3,-47.91"/>
</a>
</g>
</g>
<!-- Node5 -->
<g id="Node000005" class="node">
<title>Node5</title>
<g id="a_Node000005"><a xlink:href="class_interactable_item.html#a5e5b9c459514e29098aaff5e62761569" target="_top" xlink:title=" ">
<polygon fill="white" stroke="#666666" points="498,-20 335,-20 335,0 498,0 498,-20"/>
<text text-anchor="middle" x="416.5" y="-6.5" font-family="Helvetica,sans-Serif" font-size="10.00">InteractableItem::InteractableItem</text>
</a>
</g>
</g>
<!-- Node2&#45;&gt;Node5 -->
<g id="edge4_Node000002_Node000005" class="edge">
<title>Node2&#45;&gt;Node5</title>
<g id="a_edge4_Node000002_Node000005"><a xlink:title=" ">
<path fill="none" stroke="#63b8ff" d="M299.43,-24.09C307.22,-23.14 315.29,-22.16 323.38,-21.18"/>
<polygon fill="#63b8ff" stroke="#63b8ff" points="323.78,-24.66 333.29,-19.98 322.94,-17.71 323.78,-24.66"/>
</a>
</g>
</g>
<!-- Node4 -->
<g id="Node000004" class="node">
<title>Node4</title>
<g id="a_Node000004"><a xlink:href="class_counted_item.html#a379818e68b8231fbfad8c51cbf2add57" target="_top" xlink:title=" ">
<polygon fill="white" stroke="#666666" points="670,-70 534,-70 534,-38 670,-38 670,-70"/>
<text text-anchor="start" x="542" y="-56.5" font-family="Helvetica,sans-Serif" font-size="10.00">CountedItem&lt; CogPlatform</text>
<text text-anchor="middle" x="602" y="-44.5" font-family="Helvetica,sans-Serif" font-size="10.00"> &gt;::CountedItem</text>
</a>
</g>
</g>
<!-- Node3&#45;&gt;Node4 -->
<g id="edge3_Node000003_Node000004" class="edge">
<title>Node3&#45;&gt;Node4</title>
<g id="a_edge3_Node000003_Node000004"><a xlink:title=" ">
<path fill="none" stroke="#63b8ff" d="M484.79,-54C497,-54 509.84,-54 522.35,-54"/>
<polygon fill="#63b8ff" stroke="#63b8ff" points="522.21,-57.5 532.21,-54 522.21,-50.5 522.21,-57.5"/>
</a>
</g>
</g>
</g>
</svg>
