<?xml version="1.0" encoding="UTF-8" standalone="no"?>
<!DOCTYPE svg PUBLIC "-//W3C//DTD SVG 1.1//EN"
 "http://www.w3.org/Graphics/SVG/1.1/DTD/svg11.dtd">
<!-- Generated by graphviz version 12.2.1 (20241206.2353)
 -->
<!-- Title: PauseMenu::operator= Pages: 1 -->
<svg width="694pt" height="490pt"
 viewBox="0.00 0.00 693.75 490.00" xmlns="http://www.w3.org/2000/svg" xmlns:xlink="http://www.w3.org/1999/xlink">
<g id="graph0" class="graph" transform="scale(1 1) rotate(0) translate(4 486)">
<title>PauseMenu::operator=</title>
<!-- Node1 -->
<g id="Node000001" class="node">
<title>Node1</title>
<g id="a_Node000001"><a xlink:title=" ">
<polygon fill="#999999" stroke="#666666" points="115,-250 0,-250 0,-230 115,-230 115,-250"/>
<text text-anchor="middle" x="57.5" y="-236.5" font-family="Helvetica,sans-Serif" font-size="10.00">PauseMenu::operator=</text>
</a>
</g>
</g>
<!-- Node2 -->
<g id="Node000002" class="node">
<title>Node2</title>
<g id="a_Node000002"><a xlink:href="class_pause_menu.html#a409928f2d75d3a7f865d75d23aeb50d6" target="_top" xlink:title=" ">
<polygon fill="white" stroke="#666666" points="273.88,-462 176.88,-462 176.88,-442 273.88,-442 273.88,-462"/>
<text text-anchor="middle" x="225.38" y="-448.5" font-family="Helvetica,sans-Serif" font-size="10.00">PauseMenu::Draw</text>
</a>
</g>
</g>
<!-- Node1&#45;&gt;Node2 -->
<g id="edge1_Node000001_Node000002" class="edge">
<title>Node1&#45;&gt;Node2</title>
<g id="a_edge1_Node000001_Node000002"><a xlink:title=" ">
<path fill="none" stroke="#63b8ff" d="M60.28,-250.25C66.44,-282.5 89.89,-382.71 151,-433 155.46,-436.67 160.54,-439.64 165.91,-442.04"/>
<polygon fill="#63b8ff" stroke="#63b8ff" points="164.47,-445.24 175.07,-445.46 166.93,-438.68 164.47,-445.24"/>
</a>
</g>
</g>
<!-- Node5 -->
<g id="Node000005" class="node">
<title>Node5</title>
<g id="a_Node000005"><a xlink:href="class_pause_menu.html#a0bc9fae272e2c6c30c86e57e832d03be" target="_top" xlink:title=" ">
<polygon fill="white" stroke="#666666" points="281.38,-424 169.38,-424 169.38,-404 281.38,-404 281.38,-424"/>
<text text-anchor="middle" x="225.38" y="-410.5" font-family="Helvetica,sans-Serif" font-size="10.00">PauseMenu::GoDown</text>
</a>
</g>
</g>
<!-- Node1&#45;&gt;Node5 -->
<g id="edge4_Node000001_Node000005" class="edge">
<title>Node1&#45;&gt;Node5</title>
<g id="a_edge4_Node000001_Node000005"><a xlink:title=" ">
<path fill="none" stroke="#63b8ff" d="M61.53,-250.18C70.37,-278.02 98.84,-355.91 151,-395 153.43,-396.82 156.03,-398.47 158.73,-399.96"/>
<polygon fill="#63b8ff" stroke="#63b8ff" points="156.99,-403.02 167.54,-404.06 159.95,-396.67 156.99,-403.02"/>
</a>
</g>
</g>
<!-- Node6 -->
<g id="Node000006" class="node">
<title>Node6</title>
<g id="a_Node000006"><a xlink:href="class_pause_menu.html#a4f66c4237bd32d4e733d4951177bfeb7" target="_top" xlink:title=" ">
<polygon fill="white" stroke="#666666" points="276.88,-386 173.88,-386 173.88,-366 276.88,-366 276.88,-386"/>
<text text-anchor="middle" x="225.38" y="-372.5" font-family="Helvetica,sans-Serif" font-size="10.00">PauseMenu::GoLeft</text>
</a>
</g>
</g>
<!-- Node1&#45;&gt;Node6 -->
<g id="edge5_Node000001_Node000006" class="edge">
<title>Node1&#45;&gt;Node6</title>
<g id="a_edge5_Node000001_Node000006"><a xlink:title=" ">
<path fill="none" stroke="#63b8ff" d="M63.61,-250.29C75.56,-273.22 107.61,-328.72 151,-357 154.74,-359.44 158.77,-361.56 162.96,-363.41"/>
<polygon fill="#63b8ff" stroke="#63b8ff" points="161.6,-366.64 172.19,-366.94 164.1,-360.1 161.6,-366.64"/>
</a>
</g>
</g>
<!-- Node9 -->
<g id="Node000009" class="node">
<title>Node9</title>
<g id="a_Node000009"><a xlink:href="class_pause_menu.html#abf996bfbb0b25064223e89eae1b94bc0" target="_top" xlink:title=" ">
<polygon fill="white" stroke="#666666" points="280.25,-348 170.5,-348 170.5,-328 280.25,-328 280.25,-348"/>
<text text-anchor="middle" x="225.38" y="-334.5" font-family="Helvetica,sans-Serif" font-size="10.00">PauseMenu::GoRight</text>
</a>
</g>
</g>
<!-- Node1&#45;&gt;Node9 -->
<g id="edge8_Node000001_Node000009" class="edge">
<title>Node1&#45;&gt;Node9</title>
<g id="a_edge8_Node000001_Node000009"><a xlink:title=" ">
<path fill="none" stroke="#63b8ff" d="M67.65,-250.42C83.12,-267.37 116.16,-300.86 151,-319 154.27,-320.7 157.7,-322.26 161.22,-323.68"/>
<polygon fill="#63b8ff" stroke="#63b8ff" points="159.95,-326.94 170.54,-327.05 162.32,-320.36 159.95,-326.94"/>
</a>
</g>
</g>
<!-- Node11 -->
<g id="Node000011" class="node">
<title>Node11</title>
<g id="a_Node000011"><a xlink:href="class_pause_menu.html#a153eed04cb4c4e6f854fca05c92198a6" target="_top" xlink:title=" ">
<polygon fill="white" stroke="#666666" points="275,-310 175.75,-310 175.75,-290 275,-290 275,-310"/>
<text text-anchor="middle" x="225.38" y="-296.5" font-family="Helvetica,sans-Serif" font-size="10.00">PauseMenu::GoUp</text>
</a>
</g>
</g>
<!-- Node1&#45;&gt;Node11 -->
<g id="edge11_Node000001_Node000011" class="edge">
<title>Node1&#45;&gt;Node11</title>
<g id="a_edge11_Node000001_Node000011"><a xlink:title=" ">
<path fill="none" stroke="#63b8ff" d="M79.41,-250.45C97.9,-259.41 125.79,-272.21 151,-281 156.67,-282.98 162.65,-284.85 168.65,-286.6"/>
<polygon fill="#63b8ff" stroke="#63b8ff" points="167.37,-289.88 177.94,-289.19 169.25,-283.13 167.37,-289.88"/>
</a>
</g>
</g>
<!-- Node12 -->
<g id="Node000012" class="node">
<title>Node12</title>
<g id="a_Node000012"><a xlink:href="class_pause_menu.html#a29cffdbd028cdd7a3110f3890d6c2f07" target="_top" xlink:title=" ">
<polygon fill="white" stroke="#666666" points="299.38,-272 151.38,-272 151.38,-252 299.38,-252 299.38,-272"/>
<text text-anchor="middle" x="225.38" y="-258.5" font-family="Helvetica,sans-Serif" font-size="10.00">PauseMenu::IsContinuePolled</text>
</a>
</g>
</g>
<!-- Node1&#45;&gt;Node12 -->
<g id="edge12_Node000001_Node000012" class="edge">
<title>Node1&#45;&gt;Node12</title>
<g id="a_edge12_Node000001_Node000012"><a xlink:title=" ">
<path fill="none" stroke="#63b8ff" d="M115.12,-247.51C123.06,-248.56 131.35,-249.66 139.67,-250.77"/>
<polygon fill="#63b8ff" stroke="#63b8ff" points="139.12,-254.22 149.5,-252.07 140.04,-247.28 139.12,-254.22"/>
</a>
</g>
</g>
<!-- Node13 -->
<g id="Node000013" class="node">
<title>Node13</title>
<g id="a_Node000013"><a xlink:href="class_pause_menu.html#a9e7b8218edd4bb09e357289f756520a2" target="_top" xlink:title=" ">
<polygon fill="white" stroke="#666666" points="298.62,-234 152.12,-234 152.12,-202 298.62,-202 298.62,-234"/>
<text text-anchor="start" x="160.12" y="-220.5" font-family="Helvetica,sans-Serif" font-size="10.00">PauseMenu::IsResetSaveFile</text>
<text text-anchor="middle" x="225.38" y="-208.5" font-family="Helvetica,sans-Serif" font-size="10.00">Polled</text>
</a>
</g>
</g>
<!-- Node1&#45;&gt;Node13 -->
<g id="edge13_Node000001_Node000013" class="edge">
<title>Node1&#45;&gt;Node13</title>
<g id="a_edge13_Node000001_Node000013"><a xlink:title=" ">
<path fill="none" stroke="#63b8ff" d="M115.12,-232.49C123.34,-231.4 131.95,-230.26 140.57,-229.11"/>
<polygon fill="#63b8ff" stroke="#63b8ff" points="140.92,-232.6 150.38,-227.81 140,-225.66 140.92,-232.6"/>
</a>
</g>
</g>
<!-- Node14 -->
<g id="Node000014" class="node">
<title>Node14</title>
<g id="a_Node000014"><a xlink:href="class_pause_menu.html#a19f89ed21075973c1d8b415ca1fbdec3" target="_top" xlink:title=" ">
<polygon fill="white" stroke="#666666" points="299.75,-184 151,-184 151,-152 299.75,-152 299.75,-184"/>
<text text-anchor="start" x="159" y="-170.5" font-family="Helvetica,sans-Serif" font-size="10.00">PauseMenu::IsRestartChapter</text>
<text text-anchor="middle" x="225.38" y="-158.5" font-family="Helvetica,sans-Serif" font-size="10.00">Polled</text>
</a>
</g>
</g>
<!-- Node1&#45;&gt;Node14 -->
<g id="edge14_Node000001_Node000014" class="edge">
<title>Node1&#45;&gt;Node14</title>
<g id="a_edge14_Node000001_Node000014"><a xlink:title=" ">
<path fill="none" stroke="#63b8ff" d="M76.91,-229.67C95.32,-219.57 124.61,-204.13 151,-193 154.75,-191.42 158.65,-189.86 162.59,-188.34"/>
<polygon fill="#63b8ff" stroke="#63b8ff" points="163.53,-191.72 171.69,-184.96 161.09,-185.16 163.53,-191.72"/>
</a>
</g>
</g>
<!-- Node15 -->
<g id="Node000015" class="node">
<title>Node15</title>
<g id="a_Node000015"><a xlink:href="class_pause_menu.html#a264a6e18735ed7514b2e07f8e6e3c428" target="_top" xlink:title=" ">
<polygon fill="white" stroke="#666666" points="288.12,-134 162.62,-134 162.62,-114 288.12,-114 288.12,-134"/>
<text text-anchor="middle" x="225.38" y="-120.5" font-family="Helvetica,sans-Serif" font-size="10.00">PauseMenu::PauseMenu</text>
</a>
</g>
</g>
<!-- Node1&#45;&gt;Node15 -->
<g id="edge15_Node000001_Node000015" class="edge">
<title>Node1&#45;&gt;Node15</title>
<g id="a_edge15_Node000001_Node000015"><a xlink:title=" ">
<path fill="none" stroke="#63b8ff" d="M65.3,-229.71C79.03,-209.78 112.08,-165.87 151,-143 153.62,-141.46 156.37,-140.04 159.2,-138.74"/>
<polygon fill="#63b8ff" stroke="#63b8ff" points="160.34,-142.05 168.3,-135.06 157.72,-135.56 160.34,-142.05"/>
</a>
</g>
</g>
<!-- Node16 -->
<g id="Node000016" class="node">
<title>Node16</title>
<g id="a_Node000016"><a xlink:href="class_pause_menu.html#a7b609e76c108730d29ed5b96ab5e1877" target="_top" xlink:title=" ">
<polygon fill="white" stroke="#666666" points="275.38,-96 175.38,-96 175.38,-76 275.38,-76 275.38,-96"/>
<text text-anchor="middle" x="225.38" y="-82.5" font-family="Helvetica,sans-Serif" font-size="10.00">PauseMenu::Reset</text>
</a>
</g>
</g>
<!-- Node1&#45;&gt;Node16 -->
<g id="edge16_Node000001_Node000016" class="edge">
<title>Node1&#45;&gt;Node16</title>
<g id="a_edge16_Node000001_Node000016"><a xlink:title=" ">
<path fill="none" stroke="#63b8ff" d="M62.53,-229.67C72.99,-204.25 103.55,-138.29 151,-105 155.17,-102.07 159.76,-99.6 164.55,-97.5"/>
<polygon fill="#63b8ff" stroke="#63b8ff" points="165.69,-100.81 173.83,-94.03 163.24,-94.25 165.69,-100.81"/>
</a>
</g>
</g>
<!-- Node17 -->
<g id="Node000017" class="node">
<title>Node17</title>
<g id="a_Node000017"><a xlink:href="class_pause_menu.html#a9f1e31f2cd5250740956b82a7914c9bc" target="_top" xlink:title=" ">
<polygon fill="white" stroke="#666666" points="276.12,-58 174.62,-58 174.62,-38 276.12,-38 276.12,-58"/>
<text text-anchor="middle" x="225.38" y="-44.5" font-family="Helvetica,sans-Serif" font-size="10.00">PauseMenu::Select</text>
</a>
</g>
</g>
<!-- Node1&#45;&gt;Node17 -->
<g id="edge17_Node000001_Node000017" class="edge">
<title>Node1&#45;&gt;Node17</title>
<g id="a_edge17_Node000001_Node000017"><a xlink:title=" ">
<path fill="none" stroke="#63b8ff" d="M60.94,-229.53C68.55,-199.31 94.79,-111.22 151,-67 154.95,-63.9 159.35,-61.29 163.98,-59.12"/>
<polygon fill="#63b8ff" stroke="#63b8ff" points="164.98,-62.48 172.99,-55.55 162.4,-55.97 164.98,-62.48"/>
</a>
</g>
</g>
<!-- Node19 -->
<g id="Node000019" class="node">
<title>Node19</title>
<g id="a_Node000019"><a xlink:href="class_pause_menu.html#a9fe31b3d32070e101c07aac9e716cbf8" target="_top" xlink:title=" ">
<polygon fill="white" stroke="#666666" points="295.25,-20 155.5,-20 155.5,0 295.25,0 295.25,-20"/>
<text text-anchor="middle" x="225.38" y="-6.5" font-family="Helvetica,sans-Serif" font-size="10.00">PauseMenu::SetChapterInfo</text>
</a>
</g>
</g>
<!-- Node1&#45;&gt;Node19 -->
<g id="edge19_Node000001_Node000019" class="edge">
<title>Node1&#45;&gt;Node19</title>
<g id="a_edge19_Node000001_Node000019"><a xlink:title=" ">
<path fill="none" stroke="#63b8ff" d="M59.82,-229.79C64.79,-195.69 85.53,-84.76 151,-29 152.13,-28.04 153.3,-27.13 154.5,-26.26"/>
<polygon fill="#63b8ff" stroke="#63b8ff" points="156.22,-29.31 163.07,-21.23 152.67,-23.28 156.22,-29.31"/>
</a>
</g>
</g>
<!-- Node3 -->
<g id="Node000003" class="node">
<title>Node3</title>
<g id="a_Node000003"><a xlink:href="namespaceutils.html#a05d149f83e6b46ac17e537eccc2ab813" target="_top" xlink:title=" ">
<polygon fill="white" stroke="#666666" points="452.25,-482 378.5,-482 378.5,-462 452.25,-462 452.25,-482"/>
<text text-anchor="middle" x="415.38" y="-468.5" font-family="Helvetica,sans-Serif" font-size="10.00">utils::FillRect</text>
</a>
</g>
</g>
<!-- Node2&#45;&gt;Node3 -->
<g id="edge2_Node000002_Node000003" class="edge">
<title>Node2&#45;&gt;Node3</title>
<g id="a_edge2_Node000002_Node000003"><a xlink:title=" ">
<path fill="none" stroke="#63b8ff" d="M274.3,-457.1C302.7,-460.12 338.55,-463.93 366.87,-466.95"/>
<polygon fill="#63b8ff" stroke="#63b8ff" points="366.29,-470.4 376.61,-467.98 367.03,-463.44 366.29,-470.4"/>
</a>
</g>
</g>
<!-- Node4 -->
<g id="Node000004" class="node">
<title>Node4</title>
<g id="a_Node000004"><a xlink:href="namespaceutils.html#abc8380a69410c7b193d9d36474ae211f" target="_top" xlink:title=" ">
<polygon fill="white" stroke="#666666" points="454.5,-444 376.25,-444 376.25,-424 454.5,-424 454.5,-444"/>
<text text-anchor="middle" x="415.38" y="-430.5" font-family="Helvetica,sans-Serif" font-size="10.00">utils::SetColor</text>
</a>
</g>
</g>
<!-- Node2&#45;&gt;Node4 -->
<g id="edge3_Node000002_Node000004" class="edge">
<title>Node2&#45;&gt;Node4</title>
<g id="a_edge3_Node000002_Node000004"><a xlink:title=" ">
<path fill="none" stroke="#63b8ff" d="M274.3,-447.41C302.03,-444.76 336.86,-441.42 364.86,-438.74"/>
<polygon fill="#63b8ff" stroke="#63b8ff" points="364.88,-442.26 374.5,-437.82 364.21,-435.29 364.88,-442.26"/>
</a>
</g>
</g>
<!-- Node7 -->
<g id="Node000007" class="node">
<title>Node7</title>
<g id="a_Node000007"><a xlink:href="class_slider_menu_item.html#a41abad7d2a083488f3c0d7b91cbd5bcc" target="_top" xlink:title=" ">
<polygon fill="white" stroke="#666666" points="495,-389 335.75,-389 335.75,-369 495,-369 495,-389"/>
<text text-anchor="middle" x="415.38" y="-375.5" font-family="Helvetica,sans-Serif" font-size="10.00">SliderMenuItem::AdjustSliderLeft</text>
</a>
</g>
</g>
<!-- Node6&#45;&gt;Node7 -->
<g id="edge6_Node000006_Node000007" class="edge">
<title>Node6&#45;&gt;Node7</title>
<g id="a_edge6_Node000006_Node000007"><a xlink:title=" ">
<path fill="none" stroke="#63b8ff" d="M277.25,-376.81C291.83,-377.04 308.17,-377.31 324.36,-377.56"/>
<polygon fill="#63b8ff" stroke="#63b8ff" points="323.95,-381.06 334.01,-377.72 324.06,-374.06 323.95,-381.06"/>
</a>
</g>
</g>
<!-- Node8 -->
<g id="Node000008" class="node">
<title>Node8</title>
<g id="a_Node000008"><a xlink:href="class_slider_menu_item.html#a14cdb721ca4a62dcdcc0d2ea9a925384" target="_top" xlink:title=" ">
<polygon fill="white" stroke="#666666" points="685.75,-367 531,-367 531,-347 685.75,-347 685.75,-367"/>
<text text-anchor="middle" x="608.38" y="-353.5" font-family="Helvetica,sans-Serif" font-size="10.00">SliderMenuItem::SetPercentage</text>
</a>
</g>
</g>
<!-- Node7&#45;&gt;Node8 -->
<g id="edge7_Node000007_Node000008" class="edge">
<title>Node7&#45;&gt;Node8</title>
<g id="a_edge7_Node000007_Node000008"><a xlink:title=" ">
<path fill="none" stroke="#63b8ff" d="M495.44,-369.89C503.32,-368.99 511.36,-368.06 519.33,-367.14"/>
<polygon fill="#63b8ff" stroke="#63b8ff" points="519.48,-370.65 529.02,-366.03 518.68,-363.69 519.48,-370.65"/>
</a>
</g>
</g>
<!-- Node10 -->
<g id="Node000010" class="node">
<title>Node10</title>
<g id="a_Node000010"><a xlink:href="class_slider_menu_item.html#a3fe62fc64600361669cd1ad3d33c905a" target="_top" xlink:title=" ">
<polygon fill="white" stroke="#666666" points="486.75,-351 344,-351 344,-319 486.75,-319 486.75,-351"/>
<text text-anchor="start" x="352" y="-337.5" font-family="Helvetica,sans-Serif" font-size="10.00">SliderMenuItem::AdjustSlider</text>
<text text-anchor="middle" x="415.38" y="-325.5" font-family="Helvetica,sans-Serif" font-size="10.00">Right</text>
</a>
</g>
</g>
<!-- Node9&#45;&gt;Node10 -->
<g id="edge9_Node000009_Node000010" class="edge">
<title>Node9&#45;&gt;Node10</title>
<g id="a_edge9_Node000009_Node000010"><a xlink:title=" ">
<path fill="none" stroke="#63b8ff" d="M280.5,-337.14C296.7,-336.88 314.83,-336.59 332.39,-336.31"/>
<polygon fill="#63b8ff" stroke="#63b8ff" points="332.37,-339.81 342.31,-336.15 332.26,-332.81 332.37,-339.81"/>
</a>
</g>
</g>
<!-- Node10&#45;&gt;Node8 -->
<g id="edge10_Node000010_Node000008" class="edge">
<title>Node10&#45;&gt;Node8</title>
<g id="a_edge10_Node000010_Node000008"><a xlink:title=" ">
<path fill="none" stroke="#63b8ff" d="M487.22,-343.16C497.7,-344.37 508.61,-345.62 519.39,-346.87"/>
<polygon fill="#63b8ff" stroke="#63b8ff" points="518.71,-350.31 529.04,-347.98 519.51,-343.36 518.71,-350.31"/>
</a>
</g>
</g>
<!-- Node18 -->
<g id="Node000018" class="node">
<title>Node18</title>
<g id="a_Node000018"><a xlink:href="class_selectable_menu_item.html#ad0938f5725479a0255790e5e5078ce12" target="_top" xlink:title=" ">
<polygon fill="white" stroke="#666666" points="468,-64 362.75,-64 362.75,-32 468,-32 468,-64"/>
<text text-anchor="start" x="370.75" y="-50.5" font-family="Helvetica,sans-Serif" font-size="10.00">SelectableMenuItem</text>
<text text-anchor="middle" x="415.38" y="-38.5" font-family="Helvetica,sans-Serif" font-size="10.00">::Select</text>
</a>
</g>
</g>
<!-- Node17&#45;&gt;Node18 -->
<g id="edge18_Node000017_Node000018" class="edge">
<title>Node17&#45;&gt;Node18</title>
<g id="a_edge18_Node000017_Node000018"><a xlink:title=" ">
<path fill="none" stroke="#63b8ff" d="M276.26,-48C299.18,-48 326.61,-48 350.97,-48"/>
<polygon fill="#63b8ff" stroke="#63b8ff" points="350.77,-51.5 360.77,-48 350.77,-44.5 350.77,-51.5"/>
</a>
</g>
</g>
</g>
</svg>
