<?xml version="1.0" encoding="UTF-8" standalone="no"?>
<!DOCTYPE svg PUBLIC "-//W3C//DTD SVG 1.1//EN"
 "http://www.w3.org/Graphics/SVG/1.1/DTD/svg11.dtd">
<!-- Generated by graphviz version 12.2.1 (20241206.2353)
 -->
<!-- Title: Chapter::Chapter Pages: 1 -->
<svg width="233pt" height="142pt"
 viewBox="0.00 0.00 232.75 142.00" xmlns="http://www.w3.org/2000/svg" xmlns:xlink="http://www.w3.org/1999/xlink">
<g id="graph0" class="graph" transform="scale(1 1) rotate(0) translate(4 138)">
<title>Chapter::Chapter</title>
<!-- Node1 -->
<g id="Node000001" class="node">
<title>Node1</title>
<g id="a_Node000001"><a xlink:title=" ">
<polygon fill="#999999" stroke="#666666" points="224.75,-77 133.75,-77 133.75,-57 224.75,-57 224.75,-77"/>
<text text-anchor="middle" x="179.25" y="-63.5" font-family="Helvetica,sans-Serif" font-size="10.00">Chapter::Chapter</text>
</a>
</g>
</g>
<!-- Node2 -->
<g id="Node000002" class="node">
<title>Node2</title>
<g id="a_Node000002"><a xlink:href="class_chapter.html#a5b8bf88dbd231b5d2b4d9b4753776937" target="_top" xlink:title=" ">
<polygon fill="white" stroke="#666666" points="94.38,-134 3.38,-134 3.38,-114 94.38,-114 94.38,-134"/>
<text text-anchor="middle" x="48.88" y="-120.5" font-family="Helvetica,sans-Serif" font-size="10.00">Chapter::Chapter</text>
</a>
</g>
</g>
<!-- Node1&#45;&gt;Node2 -->
<g id="edge1_Node000001_Node000002" class="edge">
<title>Node1&#45;&gt;Node2</title>
<g id="a_edge1_Node000001_Node000002"><a xlink:title=" ">
<path fill="none" stroke="#63b8ff" d="M147.06,-82.28C132.23,-89.41 114.18,-97.87 97.75,-105 91.11,-107.88 83.87,-110.84 77.09,-113.54"/>
<polygon fill="#63b8ff" stroke="#63b8ff" points="148.39,-85.53 155.87,-78.03 145.34,-79.23 148.39,-85.53"/>
</a>
</g>
</g>
<!-- Node3 -->
<g id="Node000003" class="node">
<title>Node3</title>
<g id="a_Node000003"><a xlink:href="class_chapter.html#aca605684f3cc28c894d8ca9f9247d903" target="_top" xlink:title=" ">
<polygon fill="white" stroke="#666666" points="94.38,-96 3.38,-96 3.38,-76 94.38,-76 94.38,-96"/>
<text text-anchor="middle" x="48.88" y="-82.5" font-family="Helvetica,sans-Serif" font-size="10.00">Chapter::Chapter</text>
</a>
</g>
</g>
<!-- Node1&#45;&gt;Node3 -->
<g id="edge2_Node000001_Node000003" class="edge">
<title>Node1&#45;&gt;Node3</title>
<g id="a_edge2_Node000001_Node000003"><a xlink:title=" ">
<path fill="none" stroke="#63b8ff" d="M122.22,-75.29C112.96,-76.66 103.47,-78.07 94.53,-79.39"/>
<polygon fill="#63b8ff" stroke="#63b8ff" points="122.47,-78.79 131.85,-73.87 121.45,-71.87 122.47,-78.79"/>
</a>
</g>
</g>
<!-- Node4 -->
<g id="Node000004" class="node">
<title>Node4</title>
<g id="a_Node000004"><a xlink:href="class_chapter.html#ad4a8ed72f1eef4f81dd782db1adb035d" target="_top" xlink:title=" ">
<polygon fill="white" stroke="#666666" points="97.75,-58 0,-58 0,-38 97.75,-38 97.75,-58"/>
<text text-anchor="middle" x="48.88" y="-44.5" font-family="Helvetica,sans-Serif" font-size="10.00">Chapter::operator=</text>
</a>
</g>
</g>
<!-- Node1&#45;&gt;Node4 -->
<g id="edge3_Node000001_Node000004" class="edge">
<title>Node1&#45;&gt;Node4</title>
<g id="a_edge3_Node000001_Node000004"><a xlink:title=" ">
<path fill="none" stroke="#63b8ff" d="M122.15,-58.7C114.11,-57.51 105.9,-56.29 98.03,-55.13"/>
<polygon fill="#63b8ff" stroke="#63b8ff" points="121.45,-62.13 131.85,-60.13 122.47,-55.21 121.45,-62.13"/>
</a>
</g>
</g>
<!-- Node5 -->
<g id="Node000005" class="node">
<title>Node5</title>
<g id="a_Node000005"><a xlink:href="class_chapter.html#a640231c1ed556f03939b3dfc271d61d3" target="_top" xlink:title=" ">
<polygon fill="white" stroke="#666666" points="97.75,-20 0,-20 0,0 97.75,0 97.75,-20"/>
<text text-anchor="middle" x="48.88" y="-6.5" font-family="Helvetica,sans-Serif" font-size="10.00">Chapter::operator=</text>
</a>
</g>
</g>
<!-- Node1&#45;&gt;Node5 -->
<g id="edge4_Node000001_Node000005" class="edge">
<title>Node1&#45;&gt;Node5</title>
<g id="a_edge4_Node000001_Node000005"><a xlink:title=" ">
<path fill="none" stroke="#63b8ff" d="M147.06,-51.72C132.23,-44.59 114.18,-36.13 97.75,-29 91.11,-26.12 83.87,-23.16 77.09,-20.46"/>
<polygon fill="#63b8ff" stroke="#63b8ff" points="145.34,-54.77 155.87,-55.97 148.39,-48.47 145.34,-54.77"/>
</a>
</g>
</g>
</g>
</svg>
