<?xml version="1.0" encoding="UTF-8" standalone="no"?>
<!DOCTYPE svg PUBLIC "-//W3C//DTD SVG 1.1//EN"
 "http://www.w3.org/Graphics/SVG/1.1/DTD/svg11.dtd">
<!-- Generated by graphviz version 12.2.1 (20241206.2353)
 -->
<!-- Title: LevelManager::Update Pages: 1 -->
<svg width="309pt" height="66pt"
 viewBox="0.00 0.00 308.50 66.00" xmlns="http://www.w3.org/2000/svg" xmlns:xlink="http://www.w3.org/1999/xlink">
<g id="graph0" class="graph" transform="scale(1 1) rotate(0) translate(4 62)">
<title>LevelManager::Update</title>
<!-- Node1 -->
<g id="Node000001" class="node">
<title>Node1</title>
<g id="a_Node000001"><a xlink:title=" ">
<polygon fill="#999999" stroke="#666666" points="114.25,-39 0,-39 0,-19 114.25,-19 114.25,-39"/>
<text text-anchor="middle" x="57.12" y="-25.5" font-family="Helvetica,sans-Serif" font-size="10.00">LevelManager::Update</text>
</a>
</g>
</g>
<!-- Node2 -->
<g id="Node000002" class="node">
<title>Node2</title>
<g id="a_Node000002"><a xlink:href="class_character.html#a2c5de11393f3b4b19340f0d75c6f64f5" target="_top" xlink:title=" ">
<polygon fill="white" stroke="#666666" points="297.5,-58 153.25,-58 153.25,-38 297.5,-38 297.5,-58"/>
<text text-anchor="middle" x="225.38" y="-44.5" font-family="Helvetica,sans-Serif" font-size="10.00">Character::GetRespawnPoint</text>
</a>
</g>
</g>
<!-- Node1&#45;&gt;Node2 -->
<g id="edge1_Node000001_Node000002" class="edge">
<title>Node1&#45;&gt;Node2</title>
<g id="a_edge1_Node000001_Node000002"><a xlink:title=" ">
<path fill="none" stroke="#63b8ff" d="M114.41,-35.43C123.18,-36.44 132.4,-37.49 141.62,-38.54"/>
<polygon fill="#63b8ff" stroke="#63b8ff" points="140.99,-41.99 151.32,-39.65 141.78,-35.04 140.99,-41.99"/>
</a>
</g>
</g>
<!-- Node3 -->
<g id="Node000003" class="node">
<title>Node3</title>
<g id="a_Node000003"><a xlink:href="class_level_manager.html#a2cccefd2739479dff6bf9f5b5801dc9e" target="_top" xlink:title=" ">
<polygon fill="white" stroke="#666666" points="300.5,-20 150.25,-20 150.25,0 300.5,0 300.5,-20"/>
<text text-anchor="middle" x="225.38" y="-6.5" font-family="Helvetica,sans-Serif" font-size="10.00">LevelManager::IsOutOfBounds</text>
</a>
</g>
</g>
<!-- Node1&#45;&gt;Node3 -->
<g id="edge2_Node000001_Node000003" class="edge">
<title>Node1&#45;&gt;Node3</title>
<g id="a_edge2_Node000001_Node000003"><a xlink:title=" ">
<path fill="none" stroke="#63b8ff" d="M114.41,-22.57C122.25,-21.67 130.44,-20.74 138.67,-19.8"/>
<polygon fill="#63b8ff" stroke="#63b8ff" points="138.83,-23.3 148.37,-18.69 138.04,-16.34 138.83,-23.3"/>
</a>
</g>
</g>
</g>
</svg>
