<?xml version="1.0" encoding="UTF-8" standalone="no"?>
<!DOCTYPE svg PUBLIC "-//W3C//DTD SVG 1.1//EN"
 "http://www.w3.org/Graphics/SVG/1.1/DTD/svg11.dtd">
<!-- Generated by graphviz version 12.2.1 (20241206.2353)
 -->
<!-- Title: FlyingStrawberry::Draw Pages: 1 -->
<svg width="255pt" height="46pt"
 viewBox="0.00 0.00 255.25 46.00" xmlns="http://www.w3.org/2000/svg" xmlns:xlink="http://www.w3.org/1999/xlink">
<g id="graph0" class="graph" transform="scale(1 1) rotate(0) translate(4 42)">
<title>FlyingStrawberry::Draw</title>
<!-- Node1 -->
<g id="Node000001" class="node">
<title>Node1</title>
<g id="a_Node000001"><a xlink:title=" ">
<polygon fill="#999999" stroke="#666666" points="118.75,-20 0,-20 0,0 118.75,0 118.75,-20"/>
<text text-anchor="middle" x="59.38" y="-6.5" font-family="Helvetica,sans-Serif" font-size="10.00">FlyingStrawberry::Draw</text>
</a>
</g>
</g>
<!-- Node2 -->
<g id="Node000002" class="node">
<title>Node2</title>
<g id="a_Node000002"><a xlink:href="class_strawberry.html#a0fd0213e45339451f5cdf2e88e4054a4" target="_top" xlink:title=" ">
<polygon fill="white" stroke="#666666" points="247.25,-20 154.75,-20 154.75,0 247.25,0 247.25,-20"/>
<text text-anchor="middle" x="201" y="-6.5" font-family="Helvetica,sans-Serif" font-size="10.00">Strawberry::Draw</text>
</a>
</g>
</g>
<!-- Node1&#45;&gt;Node2 -->
<g id="edge1_Node000001_Node000002" class="edge">
<title>Node1&#45;&gt;Node2</title>
<g id="a_edge1_Node000001_Node000002"><a xlink:title=" ">
<path fill="none" stroke="#63b8ff" d="M119.18,-10C127.1,-10 135.2,-10 143.08,-10"/>
<polygon fill="#63b8ff" stroke="#63b8ff" points="142.9,-13.5 152.9,-10 142.9,-6.5 142.9,-13.5"/>
</a>
</g>
</g>
<!-- Node2&#45;&gt;Node2 -->
<g id="edge2_Node000002_Node000002" class="edge">
<title>Node2&#45;&gt;Node2</title>
<g id="a_edge2_Node000002_Node000002"><a xlink:title=" ">
<path fill="none" stroke="#63b8ff" d="M178.5,-20.34C168.88,-28.98 176.38,-38 201,-38 214.46,-38 222.81,-35.3 226.03,-31.44"/>
<polygon fill="#63b8ff" stroke="#63b8ff" points="229.47,-30.79 223.84,-21.81 222.65,-32.34 229.47,-30.79"/>
</a>
</g>
</g>
</g>
</svg>
