<?xml version="1.0" encoding="UTF-8" standalone="no"?>
<!DOCTYPE svg PUBLIC "-//W3C//DTD SVG 1.1//EN"
 "http://www.w3.org/Graphics/SVG/1.1/DTD/svg11.dtd">
<!-- Generated by graphviz version 12.2.1 (20241206.2353)
 -->
<!-- Title: FlyingStrawberry Pages: 1 -->
<svg width="330pt" height="140pt"
 viewBox="0.00 0.00 330.12 140.00" xmlns="http://www.w3.org/2000/svg" xmlns:xlink="http://www.w3.org/1999/xlink">
<g id="graph0" class="graph" transform="scale(1 1) rotate(0) translate(4 136)">
<title>FlyingStrawberry</title>
<!-- Node1 -->
<g id="Node000001" class="node">
<title>Node1</title>
<g id="a_Node000001"><a xlink:title=" ">
<polygon fill="#999999" stroke="#666666" points="219,-20 129.5,-20 129.5,0 219,0 219,-20"/>
<text text-anchor="middle" x="174.25" y="-6.5" font-family="Helvetica,sans-Serif" font-size="10.00">FlyingStrawberry</text>
</a>
</g>
</g>
<!-- Node2 -->
<g id="Node000002" class="node">
<title>Node2</title>
<g id="a_Node000002"><a xlink:href="class_strawberry.html" target="_top" xlink:title=" ">
<polygon fill="white" stroke="#666666" points="139.88,-76 76.62,-76 76.62,-56 139.88,-56 139.88,-76"/>
<text text-anchor="middle" x="108.25" y="-62.5" font-family="Helvetica,sans-Serif" font-size="10.00">Strawberry</text>
</a>
</g>
</g>
<!-- Node2&#45;&gt;Node1 -->
<g id="edge1_Node000001_Node000002" class="edge">
<title>Node2&#45;&gt;Node1</title>
<g id="a_edge1_Node000001_Node000002"><a xlink:title=" ">
<path fill="none" stroke="#63b8ff" d="M128.54,-48.4C139.83,-39.17 153.46,-28.01 162.89,-20.3"/>
<polygon fill="#63b8ff" stroke="#63b8ff" points="126.44,-45.59 120.92,-54.64 130.87,-51.01 126.44,-45.59"/>
</a>
</g>
</g>
<!-- Node3 -->
<g id="Node000003" class="node">
<title>Node3</title>
<g id="a_Node000003"><a xlink:href="class_interactable_item.html" target="_top" xlink:title=" ">
<polygon fill="white" stroke="#666666" points="86.5,-132 0,-132 0,-112 86.5,-112 86.5,-132"/>
<text text-anchor="middle" x="43.25" y="-118.5" font-family="Helvetica,sans-Serif" font-size="10.00">InteractableItem</text>
</a>
</g>
</g>
<!-- Node3&#45;&gt;Node2 -->
<g id="edge2_Node000002_Node000003" class="edge">
<title>Node3&#45;&gt;Node2</title>
<g id="a_edge2_Node000002_Node000003"><a xlink:title=" ">
<path fill="none" stroke="#63b8ff" d="M63.23,-104.4C74.35,-95.17 87.78,-84.01 97.06,-76.3"/>
<polygon fill="#63b8ff" stroke="#63b8ff" points="61.19,-101.54 55.74,-110.63 65.66,-106.93 61.19,-101.54"/>
</a>
</g>
</g>
<!-- Node4 -->
<g id="Node000004" class="node">
<title>Node4</title>
<g id="a_Node000004"><a xlink:href="class_counted_item.html" target="_top" xlink:title=" ">
<polygon fill="white" stroke="#666666" points="242,-132 104.5,-132 104.5,-112 242,-112 242,-132"/>
<text text-anchor="middle" x="173.25" y="-118.5" font-family="Helvetica,sans-Serif" font-size="10.00">CountedItem&lt; Strawberry &gt;</text>
</a>
</g>
</g>
<!-- Node4&#45;&gt;Node2 -->
<g id="edge3_Node000002_Node000004" class="edge">
<title>Node4&#45;&gt;Node2</title>
<g id="a_edge3_Node000002_Node000004"><a xlink:title=" ">
<path fill="none" stroke="darkgreen" d="M153.27,-104.4C142.15,-95.17 128.72,-84.01 119.44,-76.3"/>
<polygon fill="darkgreen" stroke="darkgreen" points="150.84,-106.93 160.76,-110.63 155.31,-101.54 150.84,-106.93"/>
</a>
</g>
</g>
<!-- Node5 -->
<g id="Node000005" class="node">
<title>Node5</title>
<g id="a_Node000005"><a xlink:href="class_counted_item.html" target="_top" xlink:title=" ">
<polygon fill="white" stroke="#666666" points="322.12,-76 158.38,-76 158.38,-56 322.12,-56 322.12,-76"/>
<text text-anchor="middle" x="240.25" y="-62.5" font-family="Helvetica,sans-Serif" font-size="10.00">CountedItem&lt; FlyingStrawberry &gt;</text>
</a>
</g>
</g>
<!-- Node5&#45;&gt;Node1 -->
<g id="edge4_Node000001_Node000005" class="edge">
<title>Node5&#45;&gt;Node1</title>
<g id="a_edge4_Node000001_Node000005"><a xlink:title=" ">
<path fill="none" stroke="darkgreen" d="M219.96,-48.4C208.67,-39.17 195.04,-28.01 185.61,-20.3"/>
<polygon fill="darkgreen" stroke="darkgreen" points="217.63,-51.01 227.58,-54.64 222.06,-45.59 217.63,-51.01"/>
</a>
</g>
</g>
</g>
</svg>
