<?xml version="1.0" encoding="UTF-8" standalone="no"?>
<!DOCTYPE svg PUBLIC "-//W3C//DTD SVG 1.1//EN"
 "http://www.w3.org/Graphics/SVG/1.1/DTD/svg11.dtd">
<!-- Generated by graphviz version 12.2.1 (20241206.2353)
 -->
<!-- Title: CogPlatform::~CogPlatform Pages: 1 -->
<svg width="490pt" height="40pt"
 viewBox="0.00 0.00 489.50 40.00" xmlns="http://www.w3.org/2000/svg" xmlns:xlink="http://www.w3.org/1999/xlink">
<g id="graph0" class="graph" transform="scale(1 1) rotate(0) translate(4 36)">
<title>CogPlatform::~CogPlatform</title>
<!-- Node1 -->
<g id="Node000001" class="node">
<title>Node1</title>
<g id="a_Node000001"><a xlink:title=" ">
<polygon fill="#999999" stroke="#666666" points="137.5,-26 0,-26 0,-6 137.5,-6 137.5,-26"/>
<text text-anchor="middle" x="68.75" y="-12.5" font-family="Helvetica,sans-Serif" font-size="10.00">CogPlatform::~CogPlatform</text>
</a>
</g>
</g>
<!-- Node2 -->
<g id="Node000002" class="node">
<title>Node2</title>
<g id="a_Node000002"><a xlink:href="class_counted_item.html#a7a4f3ec5e121b459d51a818c9ed0e269" target="_top" xlink:title=" ">
<polygon fill="white" stroke="#666666" points="309.5,-32 173.5,-32 173.5,0 309.5,0 309.5,-32"/>
<text text-anchor="start" x="181.5" y="-18.5" font-family="Helvetica,sans-Serif" font-size="10.00">CountedItem&lt; CogPlatform</text>
<text text-anchor="middle" x="241.5" y="-6.5" font-family="Helvetica,sans-Serif" font-size="10.00"> &gt;::GetCount</text>
</a>
</g>
</g>
<!-- Node1&#45;&gt;Node2 -->
<g id="edge1_Node000001_Node000002" class="edge">
<title>Node1&#45;&gt;Node2</title>
<g id="a_edge1_Node000001_Node000002"><a xlink:title=" ">
<path fill="none" stroke="#63b8ff" d="M137.73,-16C145.63,-16 153.74,-16 161.77,-16"/>
<polygon fill="#63b8ff" stroke="#63b8ff" points="161.52,-19.5 171.52,-16 161.52,-12.5 161.52,-19.5"/>
</a>
</g>
</g>
<!-- Node3 -->
<g id="Node000003" class="node">
<title>Node3</title>
<g id="a_Node000003"><a xlink:href="class_counted_item.html#a379818e68b8231fbfad8c51cbf2add57" target="_top" xlink:title=" ">
<polygon fill="white" stroke="#666666" points="481.5,-32 345.5,-32 345.5,0 481.5,0 481.5,-32"/>
<text text-anchor="start" x="353.5" y="-18.5" font-family="Helvetica,sans-Serif" font-size="10.00">CountedItem&lt; CogPlatform</text>
<text text-anchor="middle" x="413.5" y="-6.5" font-family="Helvetica,sans-Serif" font-size="10.00"> &gt;::CountedItem</text>
</a>
</g>
</g>
<!-- Node2&#45;&gt;Node3 -->
<g id="edge2_Node000002_Node000003" class="edge">
<title>Node2&#45;&gt;Node3</title>
<g id="a_edge2_Node000002_Node000003"><a xlink:title=" ">
<path fill="none" stroke="#63b8ff" d="M309.69,-16C317.64,-16 325.8,-16 333.89,-16"/>
<polygon fill="#63b8ff" stroke="#63b8ff" points="333.73,-19.5 343.73,-16 333.73,-12.5 333.73,-19.5"/>
</a>
</g>
</g>
</g>
</svg>
