<?xml version="1.0" encoding="UTF-8" standalone="no"?>
<!DOCTYPE svg PUBLIC "-//W3C//DTD SVG 1.1//EN"
 "http://www.w3.org/Graphics/SVG/1.1/DTD/svg11.dtd">
<!-- Generated by graphviz version 12.2.1 (20241206.2353)
 -->
<!-- Title: MenuItem Pages: 1 -->
<svg width="130pt" height="102pt"
 viewBox="0.00 0.00 130.18 102.00" xmlns="http://www.w3.org/2000/svg" xmlns:xlink="http://www.w3.org/1999/xlink">
<g id="graph0" class="graph" transform="scale(1 1) rotate(0) translate(4 98)">
<title>MenuItem</title>
<!-- Node1 -->
<g id="Node000001" class="node">
<title>Node1</title>
<g id="a_Node000001"><a xlink:title=" ">
<polygon fill="#999999" stroke="#666666" points="87.75,-20 28.25,-20 28.25,0 87.75,0 87.75,-20"/>
<text text-anchor="middle" x="58" y="-6.5" font-family="Helvetica,sans-Serif" font-size="10.00">MenuItem</text>
</a>
</g>
</g>
<!-- Node2 -->
<g id="Node000002" class="node">
<title>Node2</title>
<g id="a_Node000002"><a xlink:href="struct_rectf.html" target="_top" xlink:title=" ">
<polygon fill="white" stroke="#666666" points="40,-94 0,-94 0,-74 40,-74 40,-94"/>
<text text-anchor="middle" x="20" y="-80.5" font-family="Helvetica,sans-Serif" font-size="10.00">Rectf</text>
</a>
</g>
</g>
<!-- Node2&#45;&gt;Node1 -->
<g id="edge1_Node000001_Node000002" class="edge">
<title>Node2&#45;&gt;Node1</title>
<g id="a_edge1_Node000001_Node000002"><a xlink:title=" ">
<path fill="none" stroke="#9a32cd" stroke-dasharray="5,2" d="M16.68,-62.39C16.33,-54.37 17.15,-45.36 21,-38 24.83,-30.67 31.65,-24.84 38.41,-20.5"/>
<polygon fill="#9a32cd" stroke="#9a32cd" points="13.2,-62.73 17.77,-72.29 20.16,-61.97 13.2,-62.73"/>
</a>
</g>
<text text-anchor="start" x="24" y="-43.5" font-family="Helvetica,sans-Serif" font-size="10.00" fill="grey">m_dstRect</text>
</g>
<!-- Node3 -->
<g id="Node000003" class="node">
<title>Node3</title>
<g id="a_Node000003"><a xlink:href="class_texture.html" target="_top" xlink:title=" ">
<polygon fill="white" stroke="#666666" points="121.12,-94 72.88,-94 72.88,-74 121.12,-74 121.12,-94"/>
<text text-anchor="middle" x="97" y="-80.5" font-family="Helvetica,sans-Serif" font-size="10.00">Texture</text>
</a>
</g>
</g>
<!-- Node3&#45;&gt;Node1 -->
<g id="edge2_Node000001_Node000003" class="edge">
<title>Node3&#45;&gt;Node1</title>
<g id="a_edge2_Node000001_Node000003"><a xlink:title=" ">
<path fill="none" stroke="#9a32cd" stroke-dasharray="5,2" d="M87.96,-63.36C84.15,-55.39 79.55,-46.16 75,-38 71.66,-32 67.56,-25.48 64.23,-20.35"/>
<polygon fill="#9a32cd" stroke="#9a32cd" points="84.68,-64.6 92.09,-72.17 91.02,-61.63 84.68,-64.6"/>
</a>
</g>
<text text-anchor="start" x="86.93" y="-43.5" font-family="Helvetica,sans-Serif" font-size="10.00" fill="grey">m_Text</text>
</g>
</g>
</svg>
