<?xml version="1.0" encoding="UTF-8" standalone="no"?>
<!DOCTYPE svg PUBLIC "-//W3C//DTD SVG 1.1//EN"
 "http://www.w3.org/Graphics/SVG/1.1/DTD/svg11.dtd">
<!-- Generated by graphviz version 12.2.1 (20241206.2353)
 -->
<!-- Title: BaseGame::ProcessMouseUpEvent Pages: 1 -->
<svg width="379pt" height="40pt"
 viewBox="0.00 0.00 379.25 40.00" xmlns="http://www.w3.org/2000/svg" xmlns:xlink="http://www.w3.org/1999/xlink">
<g id="graph0" class="graph" transform="scale(1 1) rotate(0) translate(4 36)">
<title>BaseGame::ProcessMouseUpEvent</title>
<!-- Node1 -->
<g id="Node000001" class="node">
<title>Node1</title>
<g id="a_Node000001"><a xlink:title=" ">
<polygon fill="#999999" stroke="#666666" points="371.25,-32 222.5,-32 222.5,0 371.25,0 371.25,-32"/>
<text text-anchor="start" x="230.5" y="-18.5" font-family="Helvetica,sans-Serif" font-size="10.00">BaseGame::ProcessMouseUp</text>
<text text-anchor="middle" x="296.88" y="-6.5" font-family="Helvetica,sans-Serif" font-size="10.00">Event</text>
</a>
</g>
</g>
<!-- Node2 -->
<g id="Node000002" class="node">
<title>Node2</title>
<g id="a_Node000002"><a xlink:href="class_base_game.html#a22a10352261e4934eb79112672d65002" target="_top" xlink:title=" ">
<polygon fill="white" stroke="#666666" points="186.5,-26 97.75,-26 97.75,-6 186.5,-6 186.5,-26"/>
<text text-anchor="middle" x="142.12" y="-12.5" font-family="Helvetica,sans-Serif" font-size="10.00">BaseGame::Run</text>
</a>
</g>
</g>
<!-- Node1&#45;&gt;Node2 -->
<g id="edge1_Node000001_Node000002" class="edge">
<title>Node1&#45;&gt;Node2</title>
<g id="a_edge1_Node000001_Node000002"><a xlink:title=" ">
<path fill="none" stroke="#63b8ff" d="M210.89,-16C202.65,-16 194.54,-16 186.96,-16"/>
<polygon fill="#63b8ff" stroke="#63b8ff" points="210.67,-19.5 220.67,-16 210.67,-12.5 210.67,-19.5"/>
</a>
</g>
</g>
<!-- Node3 -->
<g id="Node000003" class="node">
<title>Node3</title>
<g id="a_Node000003"><a xlink:href="main_8cpp.html#a3e7ee6485176abaae90b1d24eac8edf6" target="_top" xlink:title=" ">
<polygon fill="white" stroke="#666666" points="61.75,-26 0,-26 0,-6 61.75,-6 61.75,-26"/>
<text text-anchor="middle" x="30.88" y="-12.5" font-family="Helvetica,sans-Serif" font-size="10.00">SDL_main</text>
</a>
</g>
</g>
<!-- Node2&#45;&gt;Node3 -->
<g id="edge2_Node000002_Node000003" class="edge">
<title>Node2&#45;&gt;Node3</title>
<g id="a_edge2_Node000002_Node000003"><a xlink:title=" ">
<path fill="none" stroke="#63b8ff" d="M86.05,-16C77.74,-16 69.45,-16 61.94,-16"/>
<polygon fill="#63b8ff" stroke="#63b8ff" points="85.8,-19.5 95.8,-16 85.8,-12.5 85.8,-19.5"/>
</a>
</g>
</g>
</g>
</svg>
