<?xml version="1.0" encoding="UTF-8" standalone="no"?>
<!DOCTYPE svg PUBLIC "-//W3C//DTD SVG 1.1//EN"
 "http://www.w3.org/Graphics/SVG/1.1/DTD/svg11.dtd">
<!-- Generated by graphviz version 12.2.1 (20241206.2353)
 -->
<!-- Title: Trampoline Pages: 1 -->
<svg width="250pt" height="159pt"
 viewBox="0.00 0.00 250.00 159.00" xmlns="http://www.w3.org/2000/svg" xmlns:xlink="http://www.w3.org/1999/xlink">
<g id="graph0" class="graph" transform="scale(1 1) rotate(0) translate(4 155)">
<title>Trampoline</title>
<!-- Node1 -->
<g id="Node000001" class="node">
<title>Node1</title>
<g id="a_Node000001"><a xlink:title=" ">
<polygon fill="#999999" stroke="#666666" points="172.25,-20 108.25,-20 108.25,0 172.25,0 172.25,-20"/>
<text text-anchor="middle" x="140.25" y="-6.5" font-family="Helvetica,sans-Serif" font-size="10.00">Trampoline</text>
</a>
</g>
</g>
<!-- Node2 -->
<g id="Node000002" class="node">
<title>Node2</title>
<g id="a_Node000002"><a xlink:href="class_interactable_item.html" target="_top" xlink:title=" ">
<polygon fill="white" stroke="#666666" points="86.5,-77 0,-77 0,-57 86.5,-57 86.5,-77"/>
<text text-anchor="middle" x="43.25" y="-63.5" font-family="Helvetica,sans-Serif" font-size="10.00">InteractableItem</text>
</a>
</g>
</g>
<!-- Node2&#45;&gt;Node1 -->
<g id="edge1_Node000001_Node000002" class="edge">
<title>Node2&#45;&gt;Node1</title>
<g id="a_edge1_Node000001_Node000002"><a xlink:title=" ">
<path fill="none" stroke="#63b8ff" d="M69.24,-51.27C86.55,-41.45 108.78,-28.85 123.71,-20.38"/>
<polygon fill="#63b8ff" stroke="#63b8ff" points="67.99,-47.95 61.02,-55.92 71.45,-54.04 67.99,-47.95"/>
</a>
</g>
</g>
<!-- Node3 -->
<g id="Node000003" class="node">
<title>Node3</title>
<g id="a_Node000003"><a xlink:href="struct_rectf.html" target="_top" xlink:title=" ">
<polygon fill="white" stroke="#666666" points="63.25,-151 23.25,-151 23.25,-131 63.25,-131 63.25,-151"/>
<text text-anchor="middle" x="43.25" y="-137.5" font-family="Helvetica,sans-Serif" font-size="10.00">Rectf</text>
</a>
</g>
</g>
<!-- Node3&#45;&gt;Node2 -->
<g id="edge2_Node000002_Node000003" class="edge">
<title>Node3&#45;&gt;Node2</title>
<g id="a_edge2_Node000002_Node000003"><a xlink:title=" ">
<path fill="none" stroke="#9a32cd" stroke-dasharray="5,2" d="M43.25,-119.18C43.25,-105.29 43.25,-87.71 43.25,-77.19"/>
<polygon fill="#9a32cd" stroke="#9a32cd" points="39.75,-119.07 43.25,-129.07 46.75,-119.07 39.75,-119.07"/>
</a>
</g>
<text text-anchor="start" x="46.25" y="-100.5" font-family="Helvetica,sans-Serif" font-size="10.00" fill="grey">m_Bounds</text>
</g>
<!-- Node4 -->
<g id="Node000004" class="node">
<title>Node4</title>
<g id="a_Node000004"><a xlink:href="class_counted_item.html" target="_top" xlink:title=" ">
<polygon fill="white" stroke="#666666" points="242,-77 104.5,-77 104.5,-57 242,-57 242,-77"/>
<text text-anchor="middle" x="173.25" y="-63.5" font-family="Helvetica,sans-Serif" font-size="10.00">CountedItem&lt; Trampoline &gt;</text>
</a>
</g>
</g>
<!-- Node4&#45;&gt;Node1 -->
<g id="edge3_Node000001_Node000004" class="edge">
<title>Node4&#45;&gt;Node1</title>
<g id="a_edge3_Node000001_Node000004"><a xlink:title=" ">
<path fill="none" stroke="darkgreen" d="M161.96,-47.18C156.51,-38.1 150.22,-27.62 145.82,-20.28"/>
<polygon fill="darkgreen" stroke="darkgreen" points="158.88,-48.85 167.02,-55.62 164.88,-45.24 158.88,-48.85"/>
</a>
</g>
</g>
</g>
</svg>
