<?xml version="1.0" encoding="UTF-8" standalone="no"?>
<!DOCTYPE svg PUBLIC "-//W3C//DTD SVG 1.1//EN"
 "http://www.w3.org/Graphics/SVG/1.1/DTD/svg11.dtd">
<!-- Generated by graphviz version 12.2.1 (20241206.2353)
 -->
<!-- Title: RespawnZone::PlayerInteraction Pages: 1 -->
<svg width="793pt" height="104pt"
 viewBox="0.00 0.00 793.00 104.00" xmlns="http://www.w3.org/2000/svg" xmlns:xlink="http://www.w3.org/1999/xlink">
<g id="graph0" class="graph" transform="scale(1 1) rotate(0) translate(4 100)">
<title>RespawnZone::PlayerInteraction</title>
<!-- Node1 -->
<g id="Node000001" class="node">
<title>Node1</title>
<g id="a_Node000001"><a xlink:title=" ">
<polygon fill="#999999" stroke="#666666" points="158.5,-58 0,-58 0,-38 158.5,-38 158.5,-58"/>
<text text-anchor="middle" x="79.25" y="-44.5" font-family="Helvetica,sans-Serif" font-size="10.00">RespawnZone::PlayerInteraction</text>
</a>
</g>
</g>
<!-- Node2 -->
<g id="Node000002" class="node">
<title>Node2</title>
<g id="a_Node000002"><a xlink:href="class_character.html#a0b790800d6ff90eebee18bce25177fce" target="_top" xlink:title=" ">
<polygon fill="white" stroke="#666666" points="321.5,-96 211,-96 211,-76 321.5,-76 321.5,-96"/>
<text text-anchor="middle" x="266.25" y="-82.5" font-family="Helvetica,sans-Serif" font-size="10.00">Character::GetHitBox</text>
</a>
</g>
</g>
<!-- Node1&#45;&gt;Node2 -->
<g id="edge1_Node000001_Node000002" class="edge">
<title>Node1&#45;&gt;Node2</title>
<g id="a_edge1_Node000001_Node000002"><a xlink:title=" ">
<path fill="none" stroke="#63b8ff" d="M131.29,-58.48C153.53,-63.05 179.81,-68.45 203.17,-73.25"/>
<polygon fill="#63b8ff" stroke="#63b8ff" points="202.39,-76.66 212.89,-75.25 203.8,-69.8 202.39,-76.66"/>
</a>
</g>
</g>
<!-- Node3 -->
<g id="Node000003" class="node">
<title>Node3</title>
<g id="a_Node000003"><a xlink:href="namespaceutils.html#a11a0eb68e467a22aed74f507057c39ed" target="_top" xlink:title=" ">
<polygon fill="white" stroke="#666666" points="316.25,-58 216.25,-58 216.25,-38 316.25,-38 316.25,-58"/>
<text text-anchor="middle" x="266.25" y="-44.5" font-family="Helvetica,sans-Serif" font-size="10.00">utils::IsOverlapping</text>
</a>
</g>
</g>
<!-- Node1&#45;&gt;Node3 -->
<g id="edge2_Node000001_Node000003" class="edge">
<title>Node1&#45;&gt;Node3</title>
<g id="a_edge2_Node000001_Node000003"><a xlink:title=" ">
<path fill="none" stroke="#63b8ff" d="M158.97,-48C174.18,-48 189.9,-48 204.43,-48"/>
<polygon fill="#63b8ff" stroke="#63b8ff" points="204.29,-51.5 214.29,-48 204.29,-44.5 204.29,-51.5"/>
</a>
</g>
</g>
<!-- Node9 -->
<g id="Node000009" class="node">
<title>Node9</title>
<g id="a_Node000009"><a xlink:href="class_character.html#ad251a2e58a761708dfc8a19a7c8f4074" target="_top" xlink:title=" ">
<polygon fill="white" stroke="#666666" points="338,-20 194.5,-20 194.5,0 338,0 338,-20"/>
<text text-anchor="middle" x="266.25" y="-6.5" font-family="Helvetica,sans-Serif" font-size="10.00">Character::SetRespawnPoint</text>
</a>
</g>
</g>
<!-- Node1&#45;&gt;Node9 -->
<g id="edge11_Node000001_Node000009" class="edge">
<title>Node1&#45;&gt;Node9</title>
<g id="a_edge11_Node000001_Node000009"><a xlink:title=" ">
<path fill="none" stroke="#63b8ff" d="M131.29,-37.52C153.53,-32.95 179.81,-27.55 203.17,-22.75"/>
<polygon fill="#63b8ff" stroke="#63b8ff" points="203.8,-26.2 212.89,-20.75 202.39,-19.34 203.8,-26.2"/>
</a>
</g>
</g>
<!-- Node4 -->
<g id="Node000004" class="node">
<title>Node4</title>
<g id="a_Node000004"><a xlink:href="namespaceutils.html#a760075559e6ab59c1daec763fab2b488" target="_top" xlink:title=" ">
<polygon fill="white" stroke="#666666" points="511.5,-58 374,-58 374,-38 511.5,-38 511.5,-58"/>
<text text-anchor="middle" x="442.75" y="-44.5" font-family="Helvetica,sans-Serif" font-size="10.00">utils::DistPointLineSegment</text>
</a>
</g>
</g>
<!-- Node3&#45;&gt;Node4 -->
<g id="edge3_Node000003_Node000004" class="edge">
<title>Node3&#45;&gt;Node4</title>
<g id="a_edge3_Node000003_Node000004"><a xlink:title=" ">
<path fill="none" stroke="#63b8ff" d="M316.32,-48C330.6,-48 346.57,-48 362.22,-48"/>
<polygon fill="#63b8ff" stroke="#63b8ff" points="362,-51.5 372,-48 362,-44.5 362,-51.5"/>
</a>
</g>
</g>
<!-- Node5 -->
<g id="Node000005" class="node">
<title>Node5</title>
<g id="a_Node000005"><a xlink:href="struct_vector2f.html#af8ceb9310d7065eb485e47b072a5b143" target="_top" xlink:title=" ">
<polygon fill="white" stroke="#666666" points="655,-96 547.5,-96 547.5,-76 655,-76 655,-96"/>
<text text-anchor="middle" x="601.25" y="-82.5" font-family="Helvetica,sans-Serif" font-size="10.00">Vector2f::DotProduct</text>
</a>
</g>
</g>
<!-- Node4&#45;&gt;Node5 -->
<g id="edge4_Node000004_Node000005" class="edge">
<title>Node4&#45;&gt;Node5</title>
<g id="a_edge4_Node000004_Node000005"><a xlink:title=" ">
<path fill="none" stroke="#63b8ff" d="M486.93,-58.48C505.23,-62.93 526.76,-68.16 546.11,-72.85"/>
<polygon fill="#63b8ff" stroke="#63b8ff" points="545.2,-76.23 555.74,-75.19 546.85,-69.43 545.2,-76.23"/>
</a>
</g>
</g>
<!-- Node7 -->
<g id="Node000007" class="node">
<title>Node7</title>
<g id="a_Node000007"><a xlink:href="struct_vector2f.html#acedb20d25ccc3009546e120eda010bf5" target="_top" xlink:title=" ">
<polygon fill="white" stroke="#666666" points="781.62,-30 694.38,-30 694.38,-10 781.62,-10 781.62,-30"/>
<text text-anchor="middle" x="738" y="-16.5" font-family="Helvetica,sans-Serif" font-size="10.00">Vector2f::Length</text>
</a>
</g>
</g>
<!-- Node4&#45;&gt;Node7 -->
<g id="edge7_Node000004_Node000007" class="edge">
<title>Node4&#45;&gt;Node7</title>
<g id="a_edge7_Node000004_Node000007"><a xlink:title=" ">
<path fill="none" stroke="#63b8ff" d="M493.42,-37.51C510.49,-34.28 529.76,-31.04 547.5,-29 592.87,-23.79 644.68,-21.59 682.65,-20.66"/>
<polygon fill="#63b8ff" stroke="#63b8ff" points="682.54,-24.16 692.46,-20.44 682.38,-17.16 682.54,-24.16"/>
</a>
</g>
</g>
<!-- Node8 -->
<g id="Node000008" class="node">
<title>Node8</title>
<g id="a_Node000008"><a xlink:href="struct_vector2f.html#aba5dd756c385551a19d36b57d8cbf629" target="_top" xlink:title=" ">
<polygon fill="white" stroke="#666666" points="655,-58 547.5,-58 547.5,-38 655,-38 655,-58"/>
<text text-anchor="middle" x="601.25" y="-44.5" font-family="Helvetica,sans-Serif" font-size="10.00">Vector2f::Normalized</text>
</a>
</g>
</g>
<!-- Node4&#45;&gt;Node8 -->
<g id="edge8_Node000004_Node000008" class="edge">
<title>Node4&#45;&gt;Node8</title>
<g id="a_edge8_Node000004_Node000008"><a xlink:title=" ">
<path fill="none" stroke="#63b8ff" d="M511.94,-48C519.91,-48 528.02,-48 535.93,-48"/>
<polygon fill="#63b8ff" stroke="#63b8ff" points="535.83,-51.5 545.83,-48 535.83,-44.5 535.83,-51.5"/>
</a>
</g>
</g>
<!-- Node6 -->
<g id="Node000006" class="node">
<title>Node6</title>
<g id="a_Node000006"><a xlink:href="struct_vector2f.html#a3db9a868c58bc809e5e09a88d65a77ec" target="_top" xlink:title=" ">
<polygon fill="white" stroke="#666666" points="785,-77 691,-77 691,-57 785,-57 785,-77"/>
<text text-anchor="middle" x="738" y="-63.5" font-family="Helvetica,sans-Serif" font-size="10.00">Vector2f::Vector2f</text>
</a>
</g>
</g>
<!-- Node5&#45;&gt;Node6 -->
<g id="edge5_Node000005_Node000006" class="edge">
<title>Node5&#45;&gt;Node6</title>
<g id="a_edge5_Node000005_Node000006"><a xlink:title=" ">
<path fill="none" stroke="#63b8ff" d="M655.12,-78.55C663.14,-77.41 671.44,-76.24 679.55,-75.1"/>
<polygon fill="#63b8ff" stroke="#63b8ff" points="679.93,-78.58 689.34,-73.72 678.95,-71.65 679.93,-78.58"/>
</a>
</g>
</g>
<!-- Node6&#45;&gt;Node6 -->
<g id="edge6_Node000006_Node000006" class="edge">
<title>Node6&#45;&gt;Node6</title>
<g id="a_edge6_Node000006_Node000006"><a xlink:title=" ">
<path fill="none" stroke="#63b8ff" d="M716.27,-77.34C706.99,-85.98 714.23,-95 738,-95 751,-95 759.06,-92.3 762.17,-88.44"/>
<polygon fill="#63b8ff" stroke="#63b8ff" points="765.62,-87.83 760.05,-78.82 758.78,-89.34 765.62,-87.83"/>
</a>
</g>
</g>
<!-- Node8&#45;&gt;Node6 -->
<g id="edge10_Node000008_Node000006" class="edge">
<title>Node8&#45;&gt;Node6</title>
<g id="a_edge10_Node000008_Node000006"><a xlink:title=" ">
<path fill="none" stroke="#63b8ff" d="M655.12,-55.45C663.14,-56.59 671.44,-57.76 679.55,-58.9"/>
<polygon fill="#63b8ff" stroke="#63b8ff" points="678.95,-62.35 689.34,-60.28 679.93,-55.42 678.95,-62.35"/>
</a>
</g>
</g>
<!-- Node8&#45;&gt;Node7 -->
<g id="edge9_Node000008_Node000007" class="edge">
<title>Node8&#45;&gt;Node7</title>
<g id="a_edge9_Node000008_Node000007"><a xlink:title=" ">
<path fill="none" stroke="#63b8ff" d="M652.43,-37.57C662.43,-35.5 672.97,-33.3 683.1,-31.2"/>
<polygon fill="#63b8ff" stroke="#63b8ff" points="683.73,-34.64 692.81,-29.18 682.31,-27.79 683.73,-34.64"/>
</a>
</g>
</g>
</g>
</svg>
