<?xml version="1.0" encoding="UTF-8" standalone="no"?>
<!DOCTYPE svg PUBLIC "-//W3C//DTD SVG 1.1//EN"
 "http://www.w3.org/Graphics/SVG/1.1/DTD/svg11.dtd">
<!-- Generated by graphviz version 12.2.1 (20241206.2353)
 -->
<!-- Title: SliderMenuItem::SetPercentage Pages: 1 -->
<svg width="655pt" height="116pt"
 viewBox="0.00 0.00 654.75 116.00" xmlns="http://www.w3.org/2000/svg" xmlns:xlink="http://www.w3.org/1999/xlink">
<g id="graph0" class="graph" transform="scale(1 1) rotate(0) translate(4 112)">
<title>SliderMenuItem::SetPercentage</title>
<!-- Node1 -->
<g id="Node000001" class="node">
<title>Node1</title>
<g id="a_Node000001"><a xlink:title=" ">
<polygon fill="#999999" stroke="#666666" points="646.75,-64 492,-64 492,-44 646.75,-44 646.75,-64"/>
<text text-anchor="middle" x="569.38" y="-50.5" font-family="Helvetica,sans-Serif" font-size="10.00">SliderMenuItem::SetPercentage</text>
</a>
</g>
</g>
<!-- Node2 -->
<g id="Node000002" class="node">
<title>Node2</title>
<g id="a_Node000002"><a xlink:href="class_slider_menu_item.html#a41abad7d2a083488f3c0d7b91cbd5bcc" target="_top" xlink:title=" ">
<polygon fill="white" stroke="#666666" points="456,-108 296.75,-108 296.75,-88 456,-88 456,-108"/>
<text text-anchor="middle" x="376.38" y="-94.5" font-family="Helvetica,sans-Serif" font-size="10.00">SliderMenuItem::AdjustSliderLeft</text>
</a>
</g>
</g>
<!-- Node1&#45;&gt;Node2 -->
<g id="edge1_Node000001_Node000002" class="edge">
<title>Node1&#45;&gt;Node2</title>
<g id="a_edge1_Node000001_Node000002"><a xlink:title=" ">
<path fill="none" stroke="#63b8ff" d="M512.09,-66.97C483.58,-73.53 449.43,-81.4 422.65,-87.57"/>
<polygon fill="#63b8ff" stroke="#63b8ff" points="512.68,-70.42 521.64,-64.77 511.11,-63.6 512.68,-70.42"/>
</a>
</g>
</g>
<!-- Node5 -->
<g id="Node000005" class="node">
<title>Node5</title>
<g id="a_Node000005"><a xlink:href="class_slider_menu_item.html#a3fe62fc64600361669cd1ad3d33c905a" target="_top" xlink:title=" ">
<polygon fill="white" stroke="#666666" points="447.75,-70 305,-70 305,-38 447.75,-38 447.75,-70"/>
<text text-anchor="start" x="313" y="-56.5" font-family="Helvetica,sans-Serif" font-size="10.00">SliderMenuItem::AdjustSlider</text>
<text text-anchor="middle" x="376.38" y="-44.5" font-family="Helvetica,sans-Serif" font-size="10.00">Right</text>
</a>
</g>
</g>
<!-- Node1&#45;&gt;Node5 -->
<g id="edge4_Node000001_Node000005" class="edge">
<title>Node1&#45;&gt;Node5</title>
<g id="a_edge4_Node000001_Node000005"><a xlink:title=" ">
<path fill="none" stroke="#63b8ff" d="M480.02,-54C469.36,-54 458.57,-54 448.21,-54"/>
<polygon fill="#63b8ff" stroke="#63b8ff" points="480,-57.5 490,-54 480,-50.5 480,-57.5"/>
</a>
</g>
</g>
<!-- Node7 -->
<g id="Node000007" class="node">
<title>Node7</title>
<g id="a_Node000007"><a xlink:href="class_slider_menu_item.html#a5d9730a9d054c905745640f023718675" target="_top" xlink:title=" ">
<polygon fill="white" stroke="#666666" points="455.62,-20 297.12,-20 297.12,0 455.62,0 455.62,-20"/>
<text text-anchor="middle" x="376.38" y="-6.5" font-family="Helvetica,sans-Serif" font-size="10.00">SliderMenuItem::SliderMenuItem</text>
</a>
</g>
</g>
<!-- Node1&#45;&gt;Node7 -->
<g id="edge7_Node000001_Node000007" class="edge">
<title>Node1&#45;&gt;Node7</title>
<g id="a_edge7_Node000001_Node000007"><a xlink:title=" ">
<path fill="none" stroke="#63b8ff" d="M512.09,-41.03C483.58,-34.47 449.43,-26.6 422.65,-20.43"/>
<polygon fill="#63b8ff" stroke="#63b8ff" points="511.11,-44.4 521.64,-43.23 512.68,-37.58 511.11,-44.4"/>
</a>
</g>
</g>
<!-- Node3 -->
<g id="Node000003" class="node">
<title>Node3</title>
<g id="a_Node000003"><a xlink:href="class_pause_menu.html#a4f66c4237bd32d4e733d4951177bfeb7" target="_top" xlink:title=" ">
<polygon fill="white" stroke="#666666" points="257.38,-106 154.38,-106 154.38,-86 257.38,-86 257.38,-106"/>
<text text-anchor="middle" x="205.88" y="-92.5" font-family="Helvetica,sans-Serif" font-size="10.00">PauseMenu::GoLeft</text>
</a>
</g>
</g>
<!-- Node2&#45;&gt;Node3 -->
<g id="edge2_Node000002_Node000003" class="edge">
<title>Node2&#45;&gt;Node3</title>
<g id="a_edge2_Node000002_Node000003"><a xlink:title=" ">
<path fill="none" stroke="#63b8ff" d="M285.1,-96.93C275.73,-96.82 266.45,-96.71 257.75,-96.6"/>
<polygon fill="#63b8ff" stroke="#63b8ff" points="285,-100.43 295.04,-97.05 285.08,-93.43 285,-100.43"/>
</a>
</g>
</g>
<!-- Node4 -->
<g id="Node000004" class="node">
<title>Node4</title>
<g id="a_Node000004"><a xlink:href="class_pause_menu.html#a7836f2da72d5d33788330340be6bcb0d" target="_top" xlink:title=" ">
<polygon fill="white" stroke="#666666" points="115,-86 0,-86 0,-66 115,-66 115,-86"/>
<text text-anchor="middle" x="57.5" y="-72.5" font-family="Helvetica,sans-Serif" font-size="10.00">PauseMenu::operator=</text>
</a>
</g>
</g>
<!-- Node3&#45;&gt;Node4 -->
<g id="edge3_Node000003_Node000004" class="edge">
<title>Node3&#45;&gt;Node4</title>
<g id="a_edge3_Node000003_Node000004"><a xlink:title=" ">
<path fill="none" stroke="#63b8ff" d="M142.78,-87.52C133.71,-86.28 124.41,-85.01 115.46,-83.78"/>
<polygon fill="#63b8ff" stroke="#63b8ff" points="142.21,-90.97 152.59,-88.86 143.16,-84.03 142.21,-90.97"/>
</a>
</g>
</g>
<!-- Node6 -->
<g id="Node000006" class="node">
<title>Node6</title>
<g id="a_Node000006"><a xlink:href="class_pause_menu.html#abf996bfbb0b25064223e89eae1b94bc0" target="_top" xlink:title=" ">
<polygon fill="white" stroke="#666666" points="260.75,-67 151,-67 151,-47 260.75,-47 260.75,-67"/>
<text text-anchor="middle" x="205.88" y="-53.5" font-family="Helvetica,sans-Serif" font-size="10.00">PauseMenu::GoRight</text>
</a>
</g>
</g>
<!-- Node5&#45;&gt;Node6 -->
<g id="edge5_Node000005_Node000006" class="edge">
<title>Node5&#45;&gt;Node6</title>
<g id="a_edge5_Node000005_Node000006"><a xlink:title=" ">
<path fill="none" stroke="#63b8ff" d="M293.51,-55.46C282.54,-55.65 271.52,-55.85 261.18,-56.03"/>
<polygon fill="#63b8ff" stroke="#63b8ff" points="293.44,-58.96 303.38,-55.28 293.32,-51.96 293.44,-58.96"/>
</a>
</g>
</g>
<!-- Node6&#45;&gt;Node4 -->
<g id="edge6_Node000006_Node000004" class="edge">
<title>Node6&#45;&gt;Node4</title>
<g id="a_edge6_Node000006_Node000004"><a xlink:title=" ">
<path fill="none" stroke="#63b8ff" d="M139.5,-65.49C131.44,-66.53 123.24,-67.6 115.31,-68.63"/>
<polygon fill="#63b8ff" stroke="#63b8ff" points="139.82,-68.97 149.29,-64.22 138.92,-62.03 139.82,-68.97"/>
</a>
</g>
</g>
</g>
</svg>
