<?xml version="1.0" encoding="UTF-8" standalone="no"?>
<!DOCTYPE svg PUBLIC "-//W3C//DTD SVG 1.1//EN"
 "http://www.w3.org/Graphics/SVG/1.1/DTD/svg11.dtd">
<!-- Generated by graphviz version 12.2.1 (20241206.2353)
 -->
<!-- Title: Game::operator= Pages: 1 -->
<svg width="370pt" height="66pt"
 viewBox="0.00 0.00 370.25 66.00" xmlns="http://www.w3.org/2000/svg" xmlns:xlink="http://www.w3.org/1999/xlink">
<g id="graph0" class="graph" transform="scale(1 1) rotate(0) translate(4 62)">
<title>Game::operator=</title>
<!-- Node1 -->
<g id="Node000001" class="node">
<title>Node1</title>
<g id="a_Node000001"><a xlink:title=" ">
<polygon fill="#999999" stroke="#666666" points="89.5,-39 0,-39 0,-19 89.5,-19 89.5,-39"/>
<text text-anchor="middle" x="44.75" y="-25.5" font-family="Helvetica,sans-Serif" font-size="10.00">Game::operator=</text>
</a>
</g>
</g>
<!-- Node2 -->
<g id="Node000002" class="node">
<title>Node2</title>
<g id="a_Node000002"><a xlink:href="class_game.html#ab9772b8187c0f78289a13d1c6929873c" target="_top" xlink:title=" ">
<polygon fill="white" stroke="#666666" points="200,-39 125.5,-39 125.5,-19 200,-19 200,-39"/>
<text text-anchor="middle" x="162.75" y="-25.5" font-family="Helvetica,sans-Serif" font-size="10.00">Game::Game</text>
</a>
</g>
</g>
<!-- Node1&#45;&gt;Node2 -->
<g id="edge1_Node000001_Node000002" class="edge">
<title>Node1&#45;&gt;Node2</title>
<g id="a_edge1_Node000001_Node000002"><a xlink:title=" ">
<path fill="none" stroke="#63b8ff" d="M89.94,-29C97.76,-29 105.95,-29 113.88,-29"/>
<polygon fill="#63b8ff" stroke="#63b8ff" points="113.72,-32.5 123.72,-29 113.72,-25.5 113.72,-32.5"/>
</a>
</g>
</g>
<!-- Node3 -->
<g id="Node000003" class="node">
<title>Node3</title>
<g id="a_Node000003"><a xlink:href="class_base_game.html#a76b8f6a3eac263f5007d9851c54a6e28" target="_top" xlink:title=" ">
<polygon fill="white" stroke="#666666" points="358.88,-58 239.38,-58 239.38,-38 358.88,-38 358.88,-58"/>
<text text-anchor="middle" x="299.12" y="-44.5" font-family="Helvetica,sans-Serif" font-size="10.00">BaseGame::BaseGame</text>
</a>
</g>
</g>
<!-- Node2&#45;&gt;Node3 -->
<g id="edge2_Node000002_Node000003" class="edge">
<title>Node2&#45;&gt;Node3</title>
<g id="a_edge2_Node000002_Node000003"><a xlink:title=" ">
<path fill="none" stroke="#63b8ff" d="M200.47,-34.19C209.01,-35.4 218.39,-36.73 227.85,-38.06"/>
<polygon fill="#63b8ff" stroke="#63b8ff" points="227.06,-41.49 237.46,-39.42 228.04,-34.56 227.06,-41.49"/>
</a>
</g>
</g>
<!-- Node4 -->
<g id="Node000004" class="node">
<title>Node4</title>
<g id="a_Node000004"><a xlink:href="class_base_game.html#a3d1875a0bb6da063a0698fc25820e6fc" target="_top" xlink:title=" ">
<polygon fill="white" stroke="#666666" points="362.25,-20 236,-20 236,0 362.25,0 362.25,-20"/>
<text text-anchor="middle" x="299.12" y="-6.5" font-family="Helvetica,sans-Serif" font-size="10.00">BaseGame::GetViewPort</text>
</a>
</g>
</g>
<!-- Node2&#45;&gt;Node4 -->
<g id="edge3_Node000002_Node000004" class="edge">
<title>Node2&#45;&gt;Node4</title>
<g id="a_edge3_Node000002_Node000004"><a xlink:title=" ">
<path fill="none" stroke="#63b8ff" d="M200.47,-23.81C207.95,-22.75 216.07,-21.6 224.32,-20.44"/>
<polygon fill="#63b8ff" stroke="#63b8ff" points="224.7,-23.92 234.11,-19.05 223.72,-16.99 224.7,-23.92"/>
</a>
</g>
</g>
</g>
</svg>
