<?xml version="1.0" encoding="UTF-8" standalone="no"?>
<!DOCTYPE svg PUBLIC "-//W3C//DTD SVG 1.1//EN"
 "http://www.w3.org/Graphics/SVG/1.1/DTD/svg11.dtd">
<!-- Generated by graphviz version 12.2.1 (20241206.2353)
 -->
<!-- Title: Texture::Draw Pages: 1 -->
<svg width="235pt" height="66pt"
 viewBox="0.00 0.00 235.00 66.00" xmlns="http://www.w3.org/2000/svg" xmlns:xlink="http://www.w3.org/1999/xlink">
<g id="graph0" class="graph" transform="scale(1 1) rotate(0) translate(4 62)">
<title>Texture::Draw</title>
<!-- Node1 -->
<g id="Node000001" class="node">
<title>Node1</title>
<g id="a_Node000001"><a xlink:title=" ">
<polygon fill="#999999" stroke="#666666" points="227,-39 149.5,-39 149.5,-19 227,-19 227,-39"/>
<text text-anchor="middle" x="188.25" y="-25.5" font-family="Helvetica,sans-Serif" font-size="10.00">Texture::Draw</text>
</a>
</g>
</g>
<!-- Node1&#45;&gt;Node1 -->
<g id="edge3_Node000001_Node000001" class="edge">
<title>Node1&#45;&gt;Node1</title>
<g id="a_edge3_Node000001_Node000001"><a xlink:title=" ">
<path fill="none" stroke="#63b8ff" d="M211.49,-50.44C208.5,-54.3 200.75,-57 188.25,-57 165.39,-57 158.43,-47.98 167.36,-39.34"/>
<polygon fill="#63b8ff" stroke="#63b8ff" points="214.95,-49.88 209.46,-40.82 208.1,-51.33 214.95,-49.88"/>
</a>
</g>
</g>
<!-- Node2 -->
<g id="Node000002" class="node">
<title>Node2</title>
<g id="a_Node000002"><a xlink:href="class_menu_item.html#a731b3c3ec8d6c67850ad01ef3acbb3b6" target="_top" xlink:title=" ">
<polygon fill="white" stroke="#666666" points="101.12,-58 12.38,-58 12.38,-38 101.12,-38 101.12,-58"/>
<text text-anchor="middle" x="56.75" y="-44.5" font-family="Helvetica,sans-Serif" font-size="10.00">MenuItem::Draw</text>
</a>
</g>
</g>
<!-- Node1&#45;&gt;Node2 -->
<g id="edge1_Node000001_Node000002" class="edge">
<title>Node1&#45;&gt;Node2</title>
<g id="a_edge1_Node000001_Node000002"><a xlink:title=" ">
<path fill="none" stroke="#63b8ff" d="M137.91,-36.24C125.95,-37.99 113.24,-39.86 101.55,-41.57"/>
<polygon fill="#63b8ff" stroke="#63b8ff" points="138.21,-39.73 147.6,-34.82 137.2,-32.81 138.21,-39.73"/>
</a>
</g>
</g>
<!-- Node3 -->
<g id="Node000003" class="node">
<title>Node3</title>
<g id="a_Node000003"><a xlink:href="class_slider_menu_item.html#ab4a20e4b5122b3a824e797dac43eee8d" target="_top" xlink:title=" ">
<polygon fill="white" stroke="#666666" points="113.5,-20 0,-20 0,0 113.5,0 113.5,-20"/>
<text text-anchor="middle" x="56.75" y="-6.5" font-family="Helvetica,sans-Serif" font-size="10.00">SliderMenuItem::Draw</text>
</a>
</g>
</g>
<!-- Node1&#45;&gt;Node3 -->
<g id="edge2_Node000001_Node000003" class="edge">
<title>Node1&#45;&gt;Node3</title>
<g id="a_edge2_Node000001_Node000003"><a xlink:title=" ">
<path fill="none" stroke="#63b8ff" d="M137.88,-21.76C130.03,-20.6 121.86,-19.41 113.87,-18.23"/>
<polygon fill="#63b8ff" stroke="#63b8ff" points="137.2,-25.19 147.6,-23.18 138.21,-18.27 137.2,-25.19"/>
</a>
</g>
</g>
</g>
</svg>
