<?xml version="1.0" encoding="UTF-8" standalone="no"?>
<!DOCTYPE svg PUBLIC "-//W3C//DTD SVG 1.1//EN"
 "http://www.w3.org/Graphics/SVG/1.1/DTD/svg11.dtd">
<!-- Generated by graphviz version 12.2.1 (20241206.2353)
 -->
<!-- Title: Game::operator= Pages: 1 -->
<svg width="460pt" height="306pt"
 viewBox="0.00 0.00 460.25 306.00" xmlns="http://www.w3.org/2000/svg" xmlns:xlink="http://www.w3.org/1999/xlink">
<g id="graph0" class="graph" transform="scale(1 1) rotate(0) translate(4 302)">
<title>Game::operator=</title>
<!-- Node1 -->
<g id="Node000001" class="node">
<title>Node1</title>
<g id="a_Node000001"><a xlink:title=" ">
<polygon fill="#999999" stroke="#666666" points="89.5,-165 0,-165 0,-145 89.5,-145 89.5,-165"/>
<text text-anchor="middle" x="44.75" y="-151.5" font-family="Helvetica,sans-Serif" font-size="10.00">Game::operator=</text>
</a>
</g>
</g>
<!-- Node2 -->
<g id="Node000002" class="node">
<title>Node2</title>
<g id="a_Node000002"><a xlink:href="class_game.html#a7100350e3197ebe04536c3e7954228d6" target="_top" xlink:title=" ">
<polygon fill="white" stroke="#666666" points="243.5,-298 172,-298 172,-278 243.5,-278 243.5,-298"/>
<text text-anchor="middle" x="207.75" y="-284.5" font-family="Helvetica,sans-Serif" font-size="10.00">Game::Draw</text>
</a>
</g>
</g>
<!-- Node1&#45;&gt;Node2 -->
<g id="edge1_Node000001_Node000002" class="edge">
<title>Node1&#45;&gt;Node2</title>
<g id="a_edge1_Node000001_Node000002"><a xlink:title=" ">
<path fill="none" stroke="#63b8ff" d="M49.93,-165.43C59.58,-188.12 85.7,-242.06 125.5,-269 135.88,-276.03 148.52,-280.47 160.71,-283.28"/>
<polygon fill="#63b8ff" stroke="#63b8ff" points="159.74,-286.66 170.22,-285.14 161.08,-279.79 159.74,-286.66"/>
</a>
</g>
</g>
<!-- Node3 -->
<g id="Node000003" class="node">
<title>Node3</title>
<g id="a_Node000003"><a xlink:href="class_game.html#ab9772b8187c0f78289a13d1c6929873c" target="_top" xlink:title=" ">
<polygon fill="white" stroke="#666666" points="245,-260 170.5,-260 170.5,-240 245,-240 245,-260"/>
<text text-anchor="middle" x="207.75" y="-246.5" font-family="Helvetica,sans-Serif" font-size="10.00">Game::Game</text>
</a>
</g>
</g>
<!-- Node1&#45;&gt;Node3 -->
<g id="edge2_Node000001_Node000003" class="edge">
<title>Node1&#45;&gt;Node3</title>
<g id="a_edge2_Node000001_Node000003"><a xlink:title=" ">
<path fill="none" stroke="#63b8ff" d="M53.57,-165.41C66.59,-181.98 94.37,-214.18 125.5,-231 135.73,-236.53 147.53,-240.46 158.91,-243.25"/>
<polygon fill="#63b8ff" stroke="#63b8ff" points="158.08,-246.65 168.6,-245.35 159.57,-239.81 158.08,-246.65"/>
</a>
</g>
</g>
<!-- Node6 -->
<g id="Node000006" class="node">
<title>Node6</title>
<g id="a_Node000006"><a xlink:href="class_game.html#a8f7f1556bde5fa05c4f8711366596a0a" target="_top" xlink:title=" ">
<polygon fill="white" stroke="#666666" points="284,-222 131.5,-222 131.5,-202 284,-202 284,-222"/>
<text text-anchor="middle" x="207.75" y="-208.5" font-family="Helvetica,sans-Serif" font-size="10.00">Game::ProcessKeyDownEvent</text>
</a>
</g>
</g>
<!-- Node1&#45;&gt;Node6 -->
<g id="edge5_Node000001_Node000006" class="edge">
<title>Node1&#45;&gt;Node6</title>
<g id="a_edge5_Node000001_Node000006"><a xlink:title=" ">
<path fill="none" stroke="#63b8ff" d="M64.6,-165.4C80.46,-173.81 103.93,-185.44 125.5,-193 131.31,-195.04 137.43,-196.92 143.6,-198.65"/>
<polygon fill="#63b8ff" stroke="#63b8ff" points="142.67,-202.02 153.23,-201.2 144.46,-195.25 142.67,-202.02"/>
</a>
</g>
</g>
<!-- Node7 -->
<g id="Node000007" class="node">
<title>Node7</title>
<g id="a_Node000007"><a xlink:href="class_game.html#a56af5c3e1d8d8165a74e425c35a5d025" target="_top" xlink:title=" ">
<polygon fill="white" stroke="#666666" points="277.62,-184 137.88,-184 137.88,-164 277.62,-164 277.62,-184"/>
<text text-anchor="middle" x="207.75" y="-170.5" font-family="Helvetica,sans-Serif" font-size="10.00">Game::ProcessKeyUpEvent</text>
</a>
</g>
</g>
<!-- Node1&#45;&gt;Node7 -->
<g id="edge6_Node000001_Node000007" class="edge">
<title>Node1&#45;&gt;Node7</title>
<g id="a_edge6_Node000001_Node000007"><a xlink:title=" ">
<path fill="none" stroke="#63b8ff" d="M89.74,-160.19C101.01,-161.52 113.48,-162.99 125.96,-164.47"/>
<polygon fill="#63b8ff" stroke="#63b8ff" points="125.55,-167.94 135.89,-165.64 126.37,-160.99 125.55,-167.94"/>
</a>
</g>
</g>
<!-- Node8 -->
<g id="Node000008" class="node">
<title>Node8</title>
<g id="a_Node000008"><a xlink:href="class_game.html#a76415edf29756d3ed6b11a1db6741935" target="_top" xlink:title=" ">
<polygon fill="white" stroke="#666666" points="290,-146 125.5,-146 125.5,-126 290,-126 290,-146"/>
<text text-anchor="middle" x="207.75" y="-132.5" font-family="Helvetica,sans-Serif" font-size="10.00">Game::ProcessMouseDownEvent</text>
</a>
</g>
</g>
<!-- Node1&#45;&gt;Node8 -->
<g id="edge7_Node000001_Node000008" class="edge">
<title>Node1&#45;&gt;Node8</title>
<g id="a_edge7_Node000001_Node000008"><a xlink:title=" ">
<path fill="none" stroke="#63b8ff" d="M89.74,-149.81C97.3,-148.92 105.39,-147.96 113.67,-146.98"/>
<polygon fill="#63b8ff" stroke="#63b8ff" points="114.02,-150.47 123.54,-145.82 113.2,-143.52 114.02,-150.47"/>
</a>
</g>
</g>
<!-- Node9 -->
<g id="Node000009" class="node">
<title>Node9</title>
<g id="a_Node000009"><a xlink:href="class_game.html#a2754d48c970dbf0cdf90d8999adc61b6" target="_top" xlink:title=" ">
<polygon fill="white" stroke="#666666" points="279.12,-108 136.38,-108 136.38,-76 279.12,-76 279.12,-108"/>
<text text-anchor="start" x="144.38" y="-94.5" font-family="Helvetica,sans-Serif" font-size="10.00">Game::ProcessMouseMotion</text>
<text text-anchor="middle" x="207.75" y="-82.5" font-family="Helvetica,sans-Serif" font-size="10.00">Event</text>
</a>
</g>
</g>
<!-- Node1&#45;&gt;Node9 -->
<g id="edge8_Node000001_Node000009" class="edge">
<title>Node1&#45;&gt;Node9</title>
<g id="a_edge8_Node000001_Node000009"><a xlink:title=" ">
<path fill="none" stroke="#63b8ff" d="M65.39,-144.65C81.32,-136.5 104.49,-125.19 125.5,-117 129.83,-115.31 134.33,-113.66 138.88,-112.06"/>
<polygon fill="#63b8ff" stroke="#63b8ff" points="139.78,-115.45 148.13,-108.93 137.54,-108.82 139.78,-115.45"/>
</a>
</g>
</g>
<!-- Node10 -->
<g id="Node000010" class="node">
<title>Node10</title>
<g id="a_Node000010"><a xlink:href="class_game.html#a10b44b91ebf7fafab02c0ac86489b9f9" target="_top" xlink:title=" ">
<polygon fill="white" stroke="#666666" points="283.62,-58 131.88,-58 131.88,-38 283.62,-38 283.62,-58"/>
<text text-anchor="middle" x="207.75" y="-44.5" font-family="Helvetica,sans-Serif" font-size="10.00">Game::ProcessMouseUpEvent</text>
</a>
</g>
</g>
<!-- Node1&#45;&gt;Node10 -->
<g id="edge9_Node000001_Node000010" class="edge">
<title>Node1&#45;&gt;Node10</title>
<g id="a_edge9_Node000001_Node000010"><a xlink:title=" ">
<path fill="none" stroke="#63b8ff" d="M52,-144.73C63.87,-126.13 91.56,-86.98 125.5,-67 128.16,-65.43 130.94,-64 133.8,-62.68"/>
<polygon fill="#63b8ff" stroke="#63b8ff" points="135.06,-65.94 143.04,-58.97 132.45,-59.45 135.06,-65.94"/>
</a>
</g>
</g>
<!-- Node11 -->
<g id="Node000011" class="node">
<title>Node11</title>
<g id="a_Node000011"><a xlink:href="class_game.html#a91d3d1e8e954a25bc32d60bab0cb1514" target="_top" xlink:title=" ">
<polygon fill="white" stroke="#666666" points="247.62,-20 167.88,-20 167.88,0 247.62,0 247.62,-20"/>
<text text-anchor="middle" x="207.75" y="-6.5" font-family="Helvetica,sans-Serif" font-size="10.00">Game::Update</text>
</a>
</g>
</g>
<!-- Node1&#45;&gt;Node11 -->
<g id="edge10_Node000001_Node000011" class="edge">
<title>Node1&#45;&gt;Node11</title>
<g id="a_edge10_Node000001_Node000011"><a xlink:title=" ">
<path fill="none" stroke="#63b8ff" d="M49.21,-144.59C57.87,-120.23 82.88,-59.3 125.5,-29 134.53,-22.58 145.41,-18.3 156.23,-15.46"/>
<polygon fill="#63b8ff" stroke="#63b8ff" points="156.92,-18.89 165.93,-13.31 155.41,-12.06 156.92,-18.89"/>
</a>
</g>
</g>
<!-- Node4 -->
<g id="Node000004" class="node">
<title>Node4</title>
<g id="a_Node000004"><a xlink:href="class_base_game.html#a76b8f6a3eac263f5007d9851c54a6e28" target="_top" xlink:title=" ">
<polygon fill="white" stroke="#666666" points="448.88,-279 329.38,-279 329.38,-259 448.88,-259 448.88,-279"/>
<text text-anchor="middle" x="389.12" y="-265.5" font-family="Helvetica,sans-Serif" font-size="10.00">BaseGame::BaseGame</text>
</a>
</g>
</g>
<!-- Node3&#45;&gt;Node4 -->
<g id="edge3_Node000003_Node000004" class="edge">
<title>Node3&#45;&gt;Node4</title>
<g id="a_edge3_Node000003_Node000004"><a xlink:title=" ">
<path fill="none" stroke="#63b8ff" d="M245.48,-253.89C266.37,-256.1 293.23,-258.95 317.99,-261.57"/>
<polygon fill="#63b8ff" stroke="#63b8ff" points="317.38,-265.03 327.69,-262.6 318.12,-258.06 317.38,-265.03"/>
</a>
</g>
</g>
<!-- Node5 -->
<g id="Node000005" class="node">
<title>Node5</title>
<g id="a_Node000005"><a xlink:href="class_base_game.html#a3d1875a0bb6da063a0698fc25820e6fc" target="_top" xlink:title=" ">
<polygon fill="white" stroke="#666666" points="452.25,-241 326,-241 326,-221 452.25,-221 452.25,-241"/>
<text text-anchor="middle" x="389.12" y="-227.5" font-family="Helvetica,sans-Serif" font-size="10.00">BaseGame::GetViewPort</text>
</a>
</g>
</g>
<!-- Node3&#45;&gt;Node5 -->
<g id="edge4_Node000003_Node000005" class="edge">
<title>Node3&#45;&gt;Node5</title>
<g id="a_edge4_Node000003_Node000005"><a xlink:title=" ">
<path fill="none" stroke="#63b8ff" d="M245.48,-246.11C265.39,-244 290.72,-241.32 314.5,-238.8"/>
<polygon fill="#63b8ff" stroke="#63b8ff" points="314.57,-242.31 324.15,-237.78 313.83,-235.35 314.57,-242.31"/>
</a>
</g>
</g>
</g>
</svg>
