<?xml version="1.0" encoding="UTF-8" standalone="no"?>
<!DOCTYPE svg PUBLIC "-//W3C//DTD SVG 1.1//EN"
 "http://www.w3.org/Graphics/SVG/1.1/DTD/svg11.dtd">
<!-- Generated by graphviz version 12.2.1 (20241206.2353)
 -->
<!-- Title: Trampoline::operator= Pages: 1 -->
<svg width="273pt" height="46pt"
 viewBox="0.00 0.00 273.25 46.00" xmlns="http://www.w3.org/2000/svg" xmlns:xlink="http://www.w3.org/1999/xlink">
<g id="graph0" class="graph" transform="scale(1 1) rotate(0) translate(4 42)">
<title>Trampoline::operator=</title>
<!-- Node1 -->
<g id="Node000001" class="node">
<title>Node1</title>
<g id="a_Node000001"><a xlink:title=" ">
<polygon fill="#999999" stroke="#666666" points="111.25,-20 0,-20 0,0 111.25,0 111.25,-20"/>
<text text-anchor="middle" x="55.62" y="-6.5" font-family="Helvetica,sans-Serif" font-size="10.00">Trampoline::operator=</text>
</a>
</g>
</g>
<!-- Node2 -->
<g id="Node000002" class="node">
<title>Node2</title>
<g id="a_Node000002"><a xlink:href="class_trampoline.html#ace1cf28072a6f622073d499acfe3dee8" target="_top" xlink:title=" ">
<polygon fill="white" stroke="#666666" points="265.25,-20 147.25,-20 147.25,0 265.25,0 265.25,-20"/>
<text text-anchor="middle" x="206.25" y="-6.5" font-family="Helvetica,sans-Serif" font-size="10.00">Trampoline::Trampoline</text>
</a>
</g>
</g>
<!-- Node1&#45;&gt;Node2 -->
<g id="edge1_Node000001_Node000002" class="edge">
<title>Node1&#45;&gt;Node2</title>
<g id="a_edge1_Node000001_Node000002"><a xlink:title=" ">
<path fill="none" stroke="#63b8ff" d="M111.55,-10C119.36,-10 127.48,-10 135.53,-10"/>
<polygon fill="#63b8ff" stroke="#63b8ff" points="135.3,-13.5 145.3,-10 135.3,-6.5 135.3,-13.5"/>
</a>
</g>
</g>
<!-- Node2&#45;&gt;Node2 -->
<g id="edge2_Node000002_Node000002" class="edge">
<title>Node2&#45;&gt;Node2</title>
<g id="a_edge2_Node000002_Node000002"><a xlink:title=" ">
<path fill="none" stroke="#63b8ff" d="M182.32,-20.34C172.09,-28.98 180.07,-38 206.25,-38 220.57,-38 229.44,-35.3 232.87,-31.44"/>
<polygon fill="#63b8ff" stroke="#63b8ff" points="236.29,-30.7 230.54,-21.81 229.49,-32.35 236.29,-30.7"/>
</a>
</g>
</g>
</g>
</svg>
