<?xml version="1.0" encoding="UTF-8" standalone="no"?>
<!DOCTYPE svg PUBLIC "-//W3C//DTD SVG 1.1//EN"
 "http://www.w3.org/Graphics/SVG/1.1/DTD/svg11.dtd">
<!-- Generated by graphviz version 12.2.1 (20241206.2353)
 -->
<!-- Title: LevelManager::Reset Pages: 1 -->
<svg width="288pt" height="104pt"
 viewBox="0.00 0.00 288.25 104.00" xmlns="http://www.w3.org/2000/svg" xmlns:xlink="http://www.w3.org/1999/xlink">
<g id="graph0" class="graph" transform="scale(1 1) rotate(0) translate(4 100)">
<title>LevelManager::Reset</title>
<!-- Node1 -->
<g id="Node000001" class="node">
<title>Node1</title>
<g id="a_Node000001"><a xlink:title=" ">
<polygon fill="#999999" stroke="#666666" points="109,-58 0,-58 0,-38 109,-38 109,-58"/>
<text text-anchor="middle" x="54.5" y="-44.5" font-family="Helvetica,sans-Serif" font-size="10.00">LevelManager::Reset</text>
</a>
</g>
</g>
<!-- Node2 -->
<g id="Node000002" class="node">
<title>Node2</title>
<g id="a_Node000002"><a xlink:href="class_chapter.html#a61f218fd23651a6e857053bfc35841dc" target="_top" xlink:title=" ">
<polygon fill="white" stroke="#666666" points="266,-96 159.25,-96 159.25,-76 266,-76 266,-96"/>
<text text-anchor="middle" x="212.62" y="-82.5" font-family="Helvetica,sans-Serif" font-size="10.00">Chapter::GetChapter</text>
</a>
</g>
</g>
<!-- Node1&#45;&gt;Node2 -->
<g id="edge1_Node000001_Node000002" class="edge">
<title>Node1&#45;&gt;Node2</title>
<g id="a_edge1_Node000001_Node000002"><a xlink:title=" ">
<path fill="none" stroke="#63b8ff" d="M98.58,-58.48C116.83,-62.93 138.31,-68.16 157.62,-72.85"/>
<polygon fill="#63b8ff" stroke="#63b8ff" points="156.68,-76.23 167.22,-75.19 158.33,-69.43 156.68,-76.23"/>
</a>
</g>
</g>
<!-- Node3 -->
<g id="Node000003" class="node">
<title>Node3</title>
<g id="a_Node000003"><a xlink:href="class_save_file_i_o.html#aee9e46efdbe82948da59cfa55611efd0" target="_top" xlink:title=" ">
<polygon fill="white" stroke="#666666" points="280.25,-58 145,-58 145,-38 280.25,-38 280.25,-58"/>
<text text-anchor="middle" x="212.62" y="-44.5" font-family="Helvetica,sans-Serif" font-size="10.00">SaveFileIO::GetInformation</text>
</a>
</g>
</g>
<!-- Node1&#45;&gt;Node3 -->
<g id="edge2_Node000001_Node000003" class="edge">
<title>Node1&#45;&gt;Node3</title>
<g id="a_edge2_Node000001_Node000003"><a xlink:title=" ">
<path fill="none" stroke="#63b8ff" d="M109.23,-48C116.96,-48 125.05,-48 133.15,-48"/>
<polygon fill="#63b8ff" stroke="#63b8ff" points="133.04,-51.5 143.04,-48 133.04,-44.5 133.04,-51.5"/>
</a>
</g>
</g>
<!-- Node4 -->
<g id="Node000004" class="node">
<title>Node4</title>
<g id="a_Node000004"><a xlink:href="class_sound_stream.html#a44ff03f08368c7e2954f59156df30105" target="_top" xlink:title=" ">
<polygon fill="white" stroke="#666666" points="276.88,-20 148.38,-20 148.38,0 276.88,0 276.88,-20"/>
<text text-anchor="middle" x="212.62" y="-6.5" font-family="Helvetica,sans-Serif" font-size="10.00">SoundStream::SetVolume</text>
</a>
</g>
</g>
<!-- Node1&#45;&gt;Node4 -->
<g id="edge3_Node000001_Node000004" class="edge">
<title>Node1&#45;&gt;Node4</title>
<g id="a_edge3_Node000001_Node000004"><a xlink:title=" ">
<path fill="none" stroke="#63b8ff" d="M98.58,-37.52C116.83,-33.07 138.31,-27.84 157.62,-23.15"/>
<polygon fill="#63b8ff" stroke="#63b8ff" points="158.33,-26.57 167.22,-20.81 156.68,-19.77 158.33,-26.57"/>
</a>
</g>
</g>
</g>
</svg>
