<?xml version="1.0" encoding="UTF-8" standalone="no"?>
<!DOCTYPE svg PUBLIC "-//W3C//DTD SVG 1.1//EN"
 "http://www.w3.org/Graphics/SVG/1.1/DTD/svg11.dtd">
<!-- Generated by graphviz version 12.2.1 (20241206.2353)
 -->
<!-- Title: CrumbleBlock::CrumbleBlock Pages: 1 -->
<svg width="352pt" height="78pt"
 viewBox="0.00 0.00 352.00 78.00" xmlns="http://www.w3.org/2000/svg" xmlns:xlink="http://www.w3.org/1999/xlink">
<g id="graph0" class="graph" transform="scale(1 1) rotate(0) translate(4 74)">
<title>CrumbleBlock::CrumbleBlock</title>
<!-- Node1 -->
<g id="Node000001" class="node">
<title>Node1</title>
<g id="a_Node000001"><a xlink:title=" ">
<polygon fill="#999999" stroke="#666666" points="145,-42 0,-42 0,-22 145,-22 145,-42"/>
<text text-anchor="middle" x="72.5" y="-28.5" font-family="Helvetica,sans-Serif" font-size="10.00">CrumbleBlock::CrumbleBlock</text>
</a>
</g>
</g>
<!-- Node2 -->
<g id="Node000002" class="node">
<title>Node2</title>
<g id="a_Node000002"><a xlink:href="class_counted_item.html#a7a4f3ec5e121b459d51a818c9ed0e269" target="_top" xlink:title=" ">
<polygon fill="white" stroke="#666666" points="333.88,-70 191.12,-70 191.12,-38 333.88,-38 333.88,-70"/>
<text text-anchor="start" x="199.12" y="-56.5" font-family="Helvetica,sans-Serif" font-size="10.00">CountedItem&lt; CrumbleBlock</text>
<text text-anchor="middle" x="262.5" y="-44.5" font-family="Helvetica,sans-Serif" font-size="10.00"> &gt;::GetCount</text>
</a>
</g>
</g>
<!-- Node1&#45;&gt;Node2 -->
<g id="edge1_Node000001_Node000002" class="edge">
<title>Node1&#45;&gt;Node2</title>
<g id="a_edge1_Node000001_Node000002"><a xlink:title=" ">
<path fill="none" stroke="#63b8ff" d="M145.38,-40.41C156.57,-41.72 168.21,-43.08 179.61,-44.42"/>
<polygon fill="#63b8ff" stroke="#63b8ff" points="179.06,-47.88 189.4,-45.56 179.87,-40.92 179.06,-47.88"/>
</a>
</g>
</g>
<!-- Node3 -->
<g id="Node000003" class="node">
<title>Node3</title>
<g id="a_Node000003"><a xlink:href="class_interactable_item.html#a5e5b9c459514e29098aaff5e62761569" target="_top" xlink:title=" ">
<polygon fill="white" stroke="#666666" points="344,-20 181,-20 181,0 344,0 344,-20"/>
<text text-anchor="middle" x="262.5" y="-6.5" font-family="Helvetica,sans-Serif" font-size="10.00">InteractableItem::InteractableItem</text>
</a>
</g>
</g>
<!-- Node1&#45;&gt;Node3 -->
<g id="edge2_Node000001_Node000003" class="edge">
<title>Node1&#45;&gt;Node3</title>
<g id="a_edge2_Node000001_Node000003"><a xlink:title=" ">
<path fill="none" stroke="#63b8ff" d="M145.38,-23.59C153.2,-22.67 161.24,-21.73 169.26,-20.79"/>
<polygon fill="#63b8ff" stroke="#63b8ff" points="169.53,-24.29 179.06,-19.65 168.72,-17.33 169.53,-24.29"/>
</a>
</g>
</g>
</g>
</svg>
