<?xml version="1.0" encoding="UTF-8" standalone="no"?>
<!DOCTYPE svg PUBLIC "-//W3C//DTD SVG 1.1//EN"
 "http://www.w3.org/Graphics/SVG/1.1/DTD/svg11.dtd">
<!-- Generated by graphviz version 12.2.1 (20241206.2353)
 -->
<!-- Title: LevelManager::Restart Pages: 1 -->
<svg width="294pt" height="104pt"
 viewBox="0.00 0.00 294.25 104.00" xmlns="http://www.w3.org/2000/svg" xmlns:xlink="http://www.w3.org/1999/xlink">
<g id="graph0" class="graph" transform="scale(1 1) rotate(0) translate(4 100)">
<title>LevelManager::Restart</title>
<!-- Node1 -->
<g id="Node000001" class="node">
<title>Node1</title>
<g id="a_Node000001"><a xlink:title=" ">
<polygon fill="#999999" stroke="#666666" points="115,-58 0,-58 0,-38 115,-38 115,-58"/>
<text text-anchor="middle" x="57.5" y="-44.5" font-family="Helvetica,sans-Serif" font-size="10.00">LevelManager::Restart</text>
</a>
</g>
</g>
<!-- Node2 -->
<g id="Node000002" class="node">
<title>Node2</title>
<g id="a_Node000002"><a xlink:href="class_chapter.html#a61f218fd23651a6e857053bfc35841dc" target="_top" xlink:title=" ">
<polygon fill="white" stroke="#666666" points="272,-96 165.25,-96 165.25,-76 272,-76 272,-96"/>
<text text-anchor="middle" x="218.62" y="-82.5" font-family="Helvetica,sans-Serif" font-size="10.00">Chapter::GetChapter</text>
</a>
</g>
</g>
<!-- Node1&#45;&gt;Node2 -->
<g id="edge1_Node000001_Node000002" class="edge">
<title>Node1&#45;&gt;Node2</title>
<g id="a_edge1_Node000001_Node000002"><a xlink:title=" ">
<path fill="none" stroke="#63b8ff" d="M102.4,-58.48C121.1,-62.95 143.11,-68.21 162.85,-72.92"/>
<polygon fill="#63b8ff" stroke="#63b8ff" points="161.85,-76.28 172.39,-75.2 163.48,-69.47 161.85,-76.28"/>
</a>
</g>
</g>
<!-- Node3 -->
<g id="Node000003" class="node">
<title>Node3</title>
<g id="a_Node000003"><a xlink:href="class_save_file_i_o.html#aee9e46efdbe82948da59cfa55611efd0" target="_top" xlink:title=" ">
<polygon fill="white" stroke="#666666" points="286.25,-58 151,-58 151,-38 286.25,-38 286.25,-58"/>
<text text-anchor="middle" x="218.62" y="-44.5" font-family="Helvetica,sans-Serif" font-size="10.00">SaveFileIO::GetInformation</text>
</a>
</g>
</g>
<!-- Node1&#45;&gt;Node3 -->
<g id="edge2_Node000001_Node000003" class="edge">
<title>Node1&#45;&gt;Node3</title>
<g id="a_edge2_Node000001_Node000003"><a xlink:title=" ">
<path fill="none" stroke="#63b8ff" d="M115.5,-48C123.26,-48 131.33,-48 139.38,-48"/>
<polygon fill="#63b8ff" stroke="#63b8ff" points="139.2,-51.5 149.2,-48 139.2,-44.5 139.2,-51.5"/>
</a>
</g>
</g>
<!-- Node4 -->
<g id="Node000004" class="node">
<title>Node4</title>
<g id="a_Node000004"><a xlink:href="class_sound_stream.html#a44ff03f08368c7e2954f59156df30105" target="_top" xlink:title=" ">
<polygon fill="white" stroke="#666666" points="282.88,-20 154.38,-20 154.38,0 282.88,0 282.88,-20"/>
<text text-anchor="middle" x="218.62" y="-6.5" font-family="Helvetica,sans-Serif" font-size="10.00">SoundStream::SetVolume</text>
</a>
</g>
</g>
<!-- Node1&#45;&gt;Node4 -->
<g id="edge3_Node000001_Node000004" class="edge">
<title>Node1&#45;&gt;Node4</title>
<g id="a_edge3_Node000001_Node000004"><a xlink:title=" ">
<path fill="none" stroke="#63b8ff" d="M102.4,-37.52C121.1,-33.05 143.11,-27.79 162.85,-23.08"/>
<polygon fill="#63b8ff" stroke="#63b8ff" points="163.48,-26.53 172.39,-20.8 161.85,-19.72 163.48,-26.53"/>
</a>
</g>
</g>
</g>
</svg>
