<?xml version="1.0" encoding="UTF-8" standalone="no"?>
<!DOCTYPE svg PUBLIC "-//W3C//DTD SVG 1.1//EN"
 "http://www.w3.org/Graphics/SVG/1.1/DTD/svg11.dtd">
<!-- Generated by graphviz version 12.2.1 (20241206.2353)
 -->
<!-- Title: CogPlatform::CogPlatform Pages: 1 -->
<svg width="307pt" height="142pt"
 viewBox="0.00 0.00 307.00 142.00" xmlns="http://www.w3.org/2000/svg" xmlns:xlink="http://www.w3.org/1999/xlink">
<g id="graph0" class="graph" transform="scale(1 1) rotate(0) translate(4 138)">
<title>CogPlatform::CogPlatform</title>
<!-- Node1 -->
<g id="Node000001" class="node">
<title>Node1</title>
<g id="a_Node000001"><a xlink:title=" ">
<polygon fill="#999999" stroke="#666666" points="299,-77 167.5,-77 167.5,-57 299,-57 299,-77"/>
<text text-anchor="middle" x="233.25" y="-63.5" font-family="Helvetica,sans-Serif" font-size="10.00">CogPlatform::CogPlatform</text>
</a>
</g>
</g>
<!-- Node2 -->
<g id="Node000002" class="node">
<title>Node2</title>
<g id="a_Node000002"><a xlink:href="class_cog_platform.html#a538bda666c9623304ddb39fc9afc843c" target="_top" xlink:title=" ">
<polygon fill="white" stroke="#666666" points="131.5,-134 0,-134 0,-114 131.5,-114 131.5,-134"/>
<text text-anchor="middle" x="65.75" y="-120.5" font-family="Helvetica,sans-Serif" font-size="10.00">CogPlatform::CogPlatform</text>
</a>
</g>
</g>
<!-- Node1&#45;&gt;Node2 -->
<g id="edge1_Node000001_Node000002" class="edge">
<title>Node1&#45;&gt;Node2</title>
<g id="a_edge1_Node000001_Node000002"><a xlink:title=" ">
<path fill="none" stroke="#63b8ff" d="M195.74,-81.53C176.71,-88.91 152.99,-97.81 131.5,-105 122.72,-107.94 113.2,-110.87 104.22,-113.53"/>
<polygon fill="#63b8ff" stroke="#63b8ff" points="196.9,-84.83 204.94,-77.93 194.35,-78.31 196.9,-84.83"/>
</a>
</g>
</g>
<!-- Node3 -->
<g id="Node000003" class="node">
<title>Node3</title>
<g id="a_Node000003"><a xlink:href="class_cog_platform.html#ae87052d2e9b8be5ef36272841790684a" target="_top" xlink:title=" ">
<polygon fill="white" stroke="#666666" points="131.5,-96 0,-96 0,-76 131.5,-76 131.5,-96"/>
<text text-anchor="middle" x="65.75" y="-82.5" font-family="Helvetica,sans-Serif" font-size="10.00">CogPlatform::CogPlatform</text>
</a>
</g>
</g>
<!-- Node1&#45;&gt;Node3 -->
<g id="edge2_Node000001_Node000003" class="edge">
<title>Node1&#45;&gt;Node3</title>
<g id="a_edge2_Node000001_Node000003"><a xlink:title=" ">
<path fill="none" stroke="#63b8ff" d="M155.97,-75.76C147.88,-76.69 139.71,-77.62 131.77,-78.54"/>
<polygon fill="#63b8ff" stroke="#63b8ff" points="156.28,-79.25 165.81,-74.63 155.48,-72.29 156.28,-79.25"/>
</a>
</g>
</g>
<!-- Node4 -->
<g id="Node000004" class="node">
<title>Node4</title>
<g id="a_Node000004"><a xlink:href="class_cog_platform.html#a2232e46890ae94b60060e8200000fdef" target="_top" xlink:title=" ">
<polygon fill="white" stroke="#666666" points="124.75,-58 6.75,-58 6.75,-38 124.75,-38 124.75,-58"/>
<text text-anchor="middle" x="65.75" y="-44.5" font-family="Helvetica,sans-Serif" font-size="10.00">CogPlatform::operator=</text>
</a>
</g>
</g>
<!-- Node1&#45;&gt;Node4 -->
<g id="edge3_Node000001_Node000004" class="edge">
<title>Node1&#45;&gt;Node4</title>
<g id="a_edge3_Node000001_Node000004"><a xlink:title=" ">
<path fill="none" stroke="#63b8ff" d="M156.08,-58.26C145.65,-57.06 135.08,-55.84 125.04,-54.69"/>
<polygon fill="#63b8ff" stroke="#63b8ff" points="155.48,-61.71 165.81,-59.37 156.28,-54.75 155.48,-61.71"/>
</a>
</g>
</g>
<!-- Node5 -->
<g id="Node000005" class="node">
<title>Node5</title>
<g id="a_Node000005"><a xlink:href="class_cog_platform.html#aa123b1f6fee96a0202700f7f5685b1a7" target="_top" xlink:title=" ">
<polygon fill="white" stroke="#666666" points="124.75,-20 6.75,-20 6.75,0 124.75,0 124.75,-20"/>
<text text-anchor="middle" x="65.75" y="-6.5" font-family="Helvetica,sans-Serif" font-size="10.00">CogPlatform::operator=</text>
</a>
</g>
</g>
<!-- Node1&#45;&gt;Node5 -->
<g id="edge4_Node000001_Node000005" class="edge">
<title>Node1&#45;&gt;Node5</title>
<g id="a_edge4_Node000001_Node000005"><a xlink:title=" ">
<path fill="none" stroke="#63b8ff" d="M195.74,-52.47C176.71,-45.09 152.99,-36.19 131.5,-29 122.72,-26.06 113.2,-23.13 104.22,-20.47"/>
<polygon fill="#63b8ff" stroke="#63b8ff" points="194.35,-55.69 204.94,-56.07 196.9,-49.17 194.35,-55.69"/>
</a>
</g>
</g>
</g>
</svg>
