<?xml version="1.0" encoding="UTF-8" standalone="no"?>
<!DOCTYPE svg PUBLIC "-//W3C//DTD SVG 1.1//EN"
 "http://www.w3.org/Graphics/SVG/1.1/DTD/svg11.dtd">
<!-- Generated by graphviz version 12.2.1 (20241206.2353)
 -->
<!-- Title: Game::Game Pages: 1 -->
<svg width="208pt" height="142pt"
 viewBox="0.00 0.00 208.00 142.00" xmlns="http://www.w3.org/2000/svg" xmlns:xlink="http://www.w3.org/1999/xlink">
<g id="graph0" class="graph" transform="scale(1 1) rotate(0) translate(4 138)">
<title>Game::Game</title>
<!-- Node1 -->
<g id="Node000001" class="node">
<title>Node1</title>
<g id="a_Node000001"><a xlink:title=" ">
<polygon fill="#999999" stroke="#666666" points="200,-77 125.5,-77 125.5,-57 200,-57 200,-77"/>
<text text-anchor="middle" x="162.75" y="-63.5" font-family="Helvetica,sans-Serif" font-size="10.00">Game::Game</text>
</a>
</g>
</g>
<!-- Node2 -->
<g id="Node000002" class="node">
<title>Node2</title>
<g id="a_Node000002"><a xlink:href="class_game.html#a84389b59f971371e667202ae2dd33bc6" target="_top" xlink:title=" ">
<polygon fill="white" stroke="#666666" points="82,-134 7.5,-134 7.5,-114 82,-114 82,-134"/>
<text text-anchor="middle" x="44.75" y="-120.5" font-family="Helvetica,sans-Serif" font-size="10.00">Game::Game</text>
</a>
</g>
</g>
<!-- Node1&#45;&gt;Node2 -->
<g id="edge1_Node000001_Node000002" class="edge">
<title>Node1&#45;&gt;Node2</title>
<g id="a_edge1_Node000001_Node000002"><a xlink:title=" ">
<path fill="none" stroke="#63b8ff" d="M133.04,-82.73C119.89,-89.77 104.02,-98.04 89.5,-105 83.38,-107.93 76.69,-110.94 70.42,-113.67"/>
<polygon fill="#63b8ff" stroke="#63b8ff" points="134.46,-85.94 141.6,-78.11 131.14,-79.78 134.46,-85.94"/>
</a>
</g>
</g>
<!-- Node3 -->
<g id="Node000003" class="node">
<title>Node3</title>
<g id="a_Node000003"><a xlink:href="class_game.html#af6029629f9ebfc665b355daa0ba5702b" target="_top" xlink:title=" ">
<polygon fill="white" stroke="#666666" points="82,-96 7.5,-96 7.5,-76 82,-76 82,-96"/>
<text text-anchor="middle" x="44.75" y="-82.5" font-family="Helvetica,sans-Serif" font-size="10.00">Game::Game</text>
</a>
</g>
</g>
<!-- Node1&#45;&gt;Node3 -->
<g id="edge2_Node000001_Node000003" class="edge">
<title>Node1&#45;&gt;Node3</title>
<g id="a_edge2_Node000001_Node000003"><a xlink:title=" ">
<path fill="none" stroke="#63b8ff" d="M113.83,-74.85C103.27,-76.58 92.24,-78.39 82.21,-80.03"/>
<polygon fill="#63b8ff" stroke="#63b8ff" points="114.25,-78.33 123.55,-73.26 113.12,-71.42 114.25,-78.33"/>
</a>
</g>
</g>
<!-- Node4 -->
<g id="Node000004" class="node">
<title>Node4</title>
<g id="a_Node000004"><a xlink:href="class_game.html#a43ef27a6649924079dda61d40bbbcad3" target="_top" xlink:title=" ">
<polygon fill="white" stroke="#666666" points="89.5,-58 0,-58 0,-38 89.5,-38 89.5,-58"/>
<text text-anchor="middle" x="44.75" y="-44.5" font-family="Helvetica,sans-Serif" font-size="10.00">Game::operator=</text>
</a>
</g>
</g>
<!-- Node1&#45;&gt;Node4 -->
<g id="edge3_Node000001_Node000004" class="edge">
<title>Node1&#45;&gt;Node4</title>
<g id="a_edge3_Node000001_Node000004"><a xlink:title=" ">
<path fill="none" stroke="#63b8ff" d="M113.75,-59.14C105.86,-57.85 97.72,-56.51 89.94,-55.24"/>
<polygon fill="#63b8ff" stroke="#63b8ff" points="113.12,-62.58 123.55,-60.74 114.25,-55.67 113.12,-62.58"/>
</a>
</g>
</g>
<!-- Node5 -->
<g id="Node000005" class="node">
<title>Node5</title>
<g id="a_Node000005"><a xlink:href="class_game.html#a3b460473049099c7d2020e82059f24e1" target="_top" xlink:title=" ">
<polygon fill="white" stroke="#666666" points="89.5,-20 0,-20 0,0 89.5,0 89.5,-20"/>
<text text-anchor="middle" x="44.75" y="-6.5" font-family="Helvetica,sans-Serif" font-size="10.00">Game::operator=</text>
</a>
</g>
</g>
<!-- Node1&#45;&gt;Node5 -->
<g id="edge4_Node000001_Node000005" class="edge">
<title>Node1&#45;&gt;Node5</title>
<g id="a_edge4_Node000001_Node000005"><a xlink:title=" ">
<path fill="none" stroke="#63b8ff" d="M133.04,-51.27C119.89,-44.23 104.02,-35.96 89.5,-29 83.38,-26.07 76.69,-23.06 70.42,-20.33"/>
<polygon fill="#63b8ff" stroke="#63b8ff" points="131.14,-54.22 141.6,-55.89 134.46,-48.06 131.14,-54.22"/>
</a>
</g>
</g>
</g>
</svg>
