<?xml version="1.0" encoding="UTF-8" standalone="no"?>
<!DOCTYPE svg PUBLIC "-//W3C//DTD SVG 1.1//EN"
 "http://www.w3.org/Graphics/SVG/1.1/DTD/svg11.dtd">
<!-- Generated by graphviz version 12.2.1 (20241206.2353)
 -->
<!-- Title: Character::HasCharacterDashed Pages: 1 -->
<svg width="354pt" height="78pt"
 viewBox="0.00 0.00 353.50 78.00" xmlns="http://www.w3.org/2000/svg" xmlns:xlink="http://www.w3.org/1999/xlink">
<g id="graph0" class="graph" transform="scale(1 1) rotate(0) translate(4 74)">
<title>Character::HasCharacterDashed</title>
<!-- Node1 -->
<g id="Node000001" class="node">
<title>Node1</title>
<g id="a_Node000001"><a xlink:title=" ">
<polygon fill="#999999" stroke="#666666" points="345.5,-48 186.25,-48 186.25,-28 345.5,-28 345.5,-48"/>
<text text-anchor="middle" x="265.88" y="-34.5" font-family="Helvetica,sans-Serif" font-size="10.00">Character::HasCharacterDashed</text>
</a>
</g>
</g>
<!-- Node2 -->
<g id="Node000002" class="node">
<title>Node2</title>
<g id="a_Node000002"><a xlink:href="class_dash_crystal.html#ae9d188a3998de0c2de1ee162ba5e1273" target="_top" xlink:title=" ">
<polygon fill="white" stroke="#666666" points="150.25,-70 0,-70 0,-50 150.25,-50 150.25,-70"/>
<text text-anchor="middle" x="75.12" y="-56.5" font-family="Helvetica,sans-Serif" font-size="10.00">DashCrystal::PlayerInteraction</text>
</a>
</g>
</g>
<!-- Node1&#45;&gt;Node2 -->
<g id="edge1_Node000001_Node000002" class="edge">
<title>Node1&#45;&gt;Node2</title>
<g id="a_edge1_Node000001_Node000002"><a xlink:title=" ">
<path fill="none" stroke="#63b8ff" d="M174.59,-48.52C166.53,-49.46 158.44,-50.41 150.54,-51.33"/>
<polygon fill="#63b8ff" stroke="#63b8ff" points="174.89,-52.01 184.42,-47.38 174.08,-45.06 174.89,-52.01"/>
</a>
</g>
</g>
<!-- Node3 -->
<g id="Node000003" class="node">
<title>Node3</title>
<g id="a_Node000003"><a xlink:href="class_flying_strawberry.html#ada0a996bd7bd79f240b85762a24fd2ed" target="_top" xlink:title=" ">
<polygon fill="white" stroke="#666666" points="136.75,-32 13.5,-32 13.5,0 136.75,0 136.75,-32"/>
<text text-anchor="start" x="21.5" y="-18.5" font-family="Helvetica,sans-Serif" font-size="10.00">FlyingStrawberry::Player</text>
<text text-anchor="middle" x="75.12" y="-6.5" font-family="Helvetica,sans-Serif" font-size="10.00">Interaction</text>
</a>
</g>
</g>
<!-- Node1&#45;&gt;Node3 -->
<g id="edge2_Node000001_Node000003" class="edge">
<title>Node1&#45;&gt;Node3</title>
<g id="a_edge2_Node000001_Node000003"><a xlink:title=" ">
<path fill="none" stroke="#63b8ff" d="M174.79,-27.5C162.07,-26.02 149.25,-24.52 137.25,-23.12"/>
<polygon fill="#63b8ff" stroke="#63b8ff" points="174.08,-30.94 184.42,-28.62 174.89,-23.99 174.08,-30.94"/>
</a>
</g>
</g>
</g>
</svg>
