<?xml version="1.0" encoding="UTF-8" standalone="no"?>
<!DOCTYPE svg PUBLIC "-//W3C//DTD SVG 1.1//EN"
 "http://www.w3.org/Graphics/SVG/1.1/DTD/svg11.dtd">
<!-- Generated by graphviz version 12.2.1 (20241206.2353)
 -->
<!-- Title: DashCrystal::operator= Pages: 1 -->
<svg width="493pt" height="78pt"
 viewBox="0.00 0.00 492.50 78.00" xmlns="http://www.w3.org/2000/svg" xmlns:xlink="http://www.w3.org/1999/xlink">
<g id="graph0" class="graph" transform="scale(1 1) rotate(0) translate(4 74)">
<title>DashCrystal::operator=</title>
<!-- Node1 -->
<g id="Node000001" class="node">
<title>Node1</title>
<g id="a_Node000001"><a xlink:title=" ">
<polygon fill="#999999" stroke="#666666" points="118,-42 0,-42 0,-22 118,-22 118,-42"/>
<text text-anchor="middle" x="59" y="-28.5" font-family="Helvetica,sans-Serif" font-size="10.00">DashCrystal::operator=</text>
</a>
</g>
</g>
<!-- Node2 -->
<g id="Node000002" class="node">
<title>Node2</title>
<g id="a_Node000002"><a xlink:href="class_dash_crystal.html#a374494580df528b1eed16b39dd79ff93" target="_top" xlink:title=" ">
<polygon fill="white" stroke="#666666" points="285.5,-42 154,-42 154,-22 285.5,-22 285.5,-42"/>
<text text-anchor="middle" x="219.75" y="-28.5" font-family="Helvetica,sans-Serif" font-size="10.00">DashCrystal::DashCrystal</text>
</a>
</g>
</g>
<!-- Node1&#45;&gt;Node2 -->
<g id="edge1_Node000001_Node000002" class="edge">
<title>Node1&#45;&gt;Node2</title>
<g id="a_edge1_Node000001_Node000002"><a xlink:title=" ">
<path fill="none" stroke="#63b8ff" d="M118.21,-32C126.03,-32 134.14,-32 142.22,-32"/>
<polygon fill="#63b8ff" stroke="#63b8ff" points="142.06,-35.5 152.06,-32 142.06,-28.5 142.06,-35.5"/>
</a>
</g>
</g>
<!-- Node3 -->
<g id="Node000003" class="node">
<title>Node3</title>
<g id="a_Node000003"><a xlink:href="class_counted_item.html#a7a4f3ec5e121b459d51a818c9ed0e269" target="_top" xlink:title=" ">
<polygon fill="white" stroke="#666666" points="471,-70 335,-70 335,-38 471,-38 471,-70"/>
<text text-anchor="start" x="343" y="-56.5" font-family="Helvetica,sans-Serif" font-size="10.00">CountedItem&lt; DashCrystal</text>
<text text-anchor="middle" x="403" y="-44.5" font-family="Helvetica,sans-Serif" font-size="10.00"> &gt;::GetCount</text>
</a>
</g>
</g>
<!-- Node2&#45;&gt;Node3 -->
<g id="edge2_Node000002_Node000003" class="edge">
<title>Node2&#45;&gt;Node3</title>
<g id="a_edge2_Node000002_Node000003"><a xlink:title=" ">
<path fill="none" stroke="#63b8ff" d="M285.93,-39.91C298.05,-41.38 310.83,-42.93 323.31,-44.45"/>
<polygon fill="#63b8ff" stroke="#63b8ff" points="322.8,-47.91 333.15,-45.64 323.64,-40.96 322.8,-47.91"/>
</a>
</g>
</g>
<!-- Node4 -->
<g id="Node000004" class="node">
<title>Node4</title>
<g id="a_Node000004"><a xlink:href="class_interactable_item.html#a5e5b9c459514e29098aaff5e62761569" target="_top" xlink:title=" ">
<polygon fill="white" stroke="#666666" points="484.5,-20 321.5,-20 321.5,0 484.5,0 484.5,-20"/>
<text text-anchor="middle" x="403" y="-6.5" font-family="Helvetica,sans-Serif" font-size="10.00">InteractableItem::InteractableItem</text>
</a>
</g>
</g>
<!-- Node2&#45;&gt;Node4 -->
<g id="edge3_Node000002_Node000004" class="edge">
<title>Node2&#45;&gt;Node4</title>
<g id="a_edge3_Node000002_Node000004"><a xlink:title=" ">
<path fill="none" stroke="#63b8ff" d="M285.93,-24.09C293.72,-23.14 301.79,-22.16 309.88,-21.18"/>
<polygon fill="#63b8ff" stroke="#63b8ff" points="310.28,-24.66 319.79,-19.98 309.44,-17.71 310.28,-24.66"/>
</a>
</g>
</g>
</g>
</svg>
