<?xml version="1.0" encoding="UTF-8" standalone="no"?>
<!DOCTYPE svg PUBLIC "-//W3C//DTD SVG 1.1//EN"
 "http://www.w3.org/Graphics/SVG/1.1/DTD/svg11.dtd">
<!-- Generated by graphviz version 12.2.1 (20241206.2353)
 -->
<!-- Title: Chapter::GetChapter Pages: 1 -->
<svg width="474pt" height="161pt"
 viewBox="0.00 0.00 473.75 161.00" xmlns="http://www.w3.org/2000/svg" xmlns:xlink="http://www.w3.org/1999/xlink">
<g id="graph0" class="graph" transform="scale(1 1) rotate(0) translate(4 157)">
<title>Chapter::GetChapter</title>
<!-- Node1 -->
<g id="Node000001" class="node">
<title>Node1</title>
<g id="a_Node000001"><a xlink:title=" ">
<polygon fill="#999999" stroke="#666666" points="465.75,-58 359,-58 359,-38 465.75,-38 465.75,-58"/>
<text text-anchor="middle" x="412.38" y="-44.5" font-family="Helvetica,sans-Serif" font-size="10.00">Chapter::GetChapter</text>
</a>
</g>
</g>
<!-- Node2 -->
<g id="Node000002" class="node">
<title>Node2</title>
<g id="a_Node000002"><a xlink:href="class_level_manager.html#a38dbd125a5877cd9b7dac9bbfa16e7fd" target="_top" xlink:title=" ">
<polygon fill="white" stroke="#666666" points="323,-96 179.5,-96 179.5,-76 323,-76 323,-96"/>
<text text-anchor="middle" x="251.25" y="-82.5" font-family="Helvetica,sans-Serif" font-size="10.00">LevelManager::LevelManager</text>
</a>
</g>
</g>
<!-- Node1&#45;&gt;Node2 -->
<g id="edge1_Node000001_Node000002" class="edge">
<title>Node1&#45;&gt;Node2</title>
<g id="a_edge1_Node000001_Node000002"><a xlink:title=" ">
<path fill="none" stroke="#63b8ff" d="M356.45,-61.12C336.7,-65.83 314.69,-71.09 296.01,-75.55"/>
<polygon fill="#63b8ff" stroke="#63b8ff" points="357.09,-64.56 366,-58.84 355.46,-57.75 357.09,-64.56"/>
</a>
</g>
</g>
<!-- Node7 -->
<g id="Node000007" class="node">
<title>Node7</title>
<g id="a_Node000007"><a xlink:href="class_level_manager.html#a63376e93bf312adc673dd93d5496ede4" target="_top" xlink:title=" ">
<polygon fill="white" stroke="#666666" points="305.75,-58 196.75,-58 196.75,-38 305.75,-38 305.75,-58"/>
<text text-anchor="middle" x="251.25" y="-44.5" font-family="Helvetica,sans-Serif" font-size="10.00">LevelManager::Reset</text>
</a>
</g>
</g>
<!-- Node1&#45;&gt;Node7 -->
<g id="edge6_Node000001_Node000007" class="edge">
<title>Node1&#45;&gt;Node7</title>
<g id="a_edge6_Node000001_Node000007"><a xlink:title=" ">
<path fill="none" stroke="#63b8ff" d="M347.49,-48C333.77,-48 319.4,-48 306.1,-48"/>
<polygon fill="#63b8ff" stroke="#63b8ff" points="347.32,-51.5 357.32,-48 347.32,-44.5 347.32,-51.5"/>
</a>
</g>
</g>
<!-- Node8 -->
<g id="Node000008" class="node">
<title>Node8</title>
<g id="a_Node000008"><a xlink:href="class_level_manager.html#ab6b8833b6e29154c3ad6b08a2e5b4aac" target="_top" xlink:title=" ">
<polygon fill="white" stroke="#666666" points="308.75,-20 193.75,-20 193.75,0 308.75,0 308.75,-20"/>
<text text-anchor="middle" x="251.25" y="-6.5" font-family="Helvetica,sans-Serif" font-size="10.00">LevelManager::Restart</text>
</a>
</g>
</g>
<!-- Node1&#45;&gt;Node8 -->
<g id="edge7_Node000001_Node000008" class="edge">
<title>Node1&#45;&gt;Node8</title>
<g id="a_edge7_Node000001_Node000008"><a xlink:title=" ">
<path fill="none" stroke="#63b8ff" d="M356.45,-34.88C336.7,-30.17 314.69,-24.91 296.01,-20.45"/>
<polygon fill="#63b8ff" stroke="#63b8ff" points="355.46,-38.25 366,-37.16 357.09,-31.44 355.46,-38.25"/>
</a>
</g>
</g>
<!-- Node3 -->
<g id="Node000003" class="node">
<title>Node3</title>
<g id="a_Node000003"><a xlink:href="class_level_manager.html#a607602dd7cb4d95eed181512b00e9eaf" target="_top" xlink:title=" ">
<polygon fill="white" stroke="#666666" points="143.5,-153 0,-153 0,-133 143.5,-133 143.5,-153"/>
<text text-anchor="middle" x="71.75" y="-139.5" font-family="Helvetica,sans-Serif" font-size="10.00">LevelManager::LevelManager</text>
</a>
</g>
</g>
<!-- Node2&#45;&gt;Node3 -->
<g id="edge2_Node000002_Node000003" class="edge">
<title>Node2&#45;&gt;Node3</title>
<g id="a_edge2_Node000002_Node000003"><a xlink:title=" ">
<path fill="none" stroke="#63b8ff" d="M212.13,-100.4C191.87,-107.84 166.48,-116.84 143.5,-124 133.91,-126.99 123.5,-129.94 113.69,-132.6"/>
<polygon fill="#63b8ff" stroke="#63b8ff" points="213.22,-103.73 221.39,-96.97 210.79,-97.16 213.22,-103.73"/>
</a>
</g>
</g>
<!-- Node4 -->
<g id="Node000004" class="node">
<title>Node4</title>
<g id="a_Node000004"><a xlink:href="class_level_manager.html#acfdcb27856194a4682a162ebf6969c7d" target="_top" xlink:title=" ">
<polygon fill="white" stroke="#666666" points="143.5,-115 0,-115 0,-95 143.5,-95 143.5,-115"/>
<text text-anchor="middle" x="71.75" y="-101.5" font-family="Helvetica,sans-Serif" font-size="10.00">LevelManager::LevelManager</text>
</a>
</g>
</g>
<!-- Node2&#45;&gt;Node4 -->
<g id="edge3_Node000002_Node000004" class="edge">
<title>Node2&#45;&gt;Node4</title>
<g id="a_edge3_Node000002_Node000004"><a xlink:title=" ">
<path fill="none" stroke="#63b8ff" d="M167.85,-94.82C159.86,-95.68 151.81,-96.54 143.94,-97.38"/>
<polygon fill="#63b8ff" stroke="#63b8ff" points="168,-98.32 177.57,-93.78 167.26,-91.36 168,-98.32"/>
</a>
</g>
</g>
<!-- Node5 -->
<g id="Node000005" class="node">
<title>Node5</title>
<g id="a_Node000005"><a xlink:href="class_level_manager.html#ad1cbb8c0cc1e2e6094164190be4b1d02" target="_top" xlink:title=" ">
<polygon fill="white" stroke="#666666" points="133.75,-77 9.75,-77 9.75,-57 133.75,-57 133.75,-77"/>
<text text-anchor="middle" x="71.75" y="-63.5" font-family="Helvetica,sans-Serif" font-size="10.00">LevelManager::operator=</text>
</a>
</g>
</g>
<!-- Node2&#45;&gt;Node5 -->
<g id="edge4_Node000002_Node000005" class="edge">
<title>Node2&#45;&gt;Node5</title>
<g id="a_edge4_Node000002_Node000005"><a xlink:title=" ">
<path fill="none" stroke="#63b8ff" d="M167.84,-77.18C156.52,-75.97 145.07,-74.74 134.22,-73.58"/>
<polygon fill="#63b8ff" stroke="#63b8ff" points="167.26,-80.64 177.57,-78.22 168,-73.68 167.26,-80.64"/>
</a>
</g>
</g>
<!-- Node6 -->
<g id="Node000006" class="node">
<title>Node6</title>
<g id="a_Node000006"><a xlink:href="class_level_manager.html#a92a96cb8cbc688cc750dc6ad004fe933" target="_top" xlink:title=" ">
<polygon fill="white" stroke="#666666" points="133.75,-39 9.75,-39 9.75,-19 133.75,-19 133.75,-39"/>
<text text-anchor="middle" x="71.75" y="-25.5" font-family="Helvetica,sans-Serif" font-size="10.00">LevelManager::operator=</text>
</a>
</g>
</g>
<!-- Node2&#45;&gt;Node6 -->
<g id="edge5_Node000002_Node000006" class="edge">
<title>Node2&#45;&gt;Node6</title>
<g id="a_edge5_Node000002_Node000006"><a xlink:title=" ">
<path fill="none" stroke="#63b8ff" d="M194.21,-72.2C189.19,-70.59 184.22,-68.85 179.5,-67 162.66,-60.39 160.34,-54.61 143.5,-48 135.33,-44.79 126.43,-41.94 117.77,-39.47"/>
<polygon fill="#63b8ff" stroke="#63b8ff" points="193.19,-75.55 203.78,-75.09 195.22,-68.85 193.19,-75.55"/>
</a>
</g>
</g>
</g>
</svg>
