<?xml version="1.0" encoding="UTF-8" standalone="no"?>
<!DOCTYPE svg PUBLIC "-//W3C//DTD SVG 1.1//EN"
 "http://www.w3.org/Graphics/SVG/1.1/DTD/svg11.dtd">
<!-- Generated by graphviz version 12.2.1 (20241206.2353)
 -->
<!-- Title: Character::IsRespawning Pages: 1 -->
<svg width="473pt" height="53pt"
 viewBox="0.00 0.00 473.00 53.00" xmlns="http://www.w3.org/2000/svg" xmlns:xlink="http://www.w3.org/1999/xlink">
<g id="graph0" class="graph" transform="scale(1 1) rotate(0) translate(4 49)">
<title>Character::IsRespawning</title>
<!-- Node1 -->
<g id="Node000001" class="node">
<title>Node1</title>
<g id="a_Node000001"><a xlink:title=" ">
<polygon fill="#999999" stroke="#666666" points="465,-39 338,-39 338,-19 465,-19 465,-39"/>
<text text-anchor="middle" x="401.5" y="-25.5" font-family="Helvetica,sans-Serif" font-size="10.00">Character::IsRespawning</text>
</a>
</g>
</g>
<!-- Node2 -->
<g id="Node000002" class="node">
<title>Node2</title>
<g id="a_Node000002"><a xlink:href="class_flying_strawberry.html#ada0a996bd7bd79f240b85762a24fd2ed" target="_top" xlink:title=" ">
<polygon fill="white" stroke="#666666" points="123.25,-45 0,-45 0,-13 123.25,-13 123.25,-45"/>
<text text-anchor="start" x="8" y="-31.5" font-family="Helvetica,sans-Serif" font-size="10.00">FlyingStrawberry::Player</text>
<text text-anchor="middle" x="61.62" y="-19.5" font-family="Helvetica,sans-Serif" font-size="10.00">Interaction</text>
</a>
</g>
</g>
<!-- Node1&#45;&gt;Node2 -->
<g id="edge1_Node000001_Node000002" class="edge">
<title>Node1&#45;&gt;Node2</title>
<g id="a_edge1_Node000001_Node000002"><a xlink:title=" ">
<path fill="none" stroke="#63b8ff" d="M326.3,-29C265.5,-29 180.52,-29 123.63,-29"/>
<polygon fill="#63b8ff" stroke="#63b8ff" points="326.23,-32.5 336.23,-29 326.23,-25.5 326.23,-32.5"/>
</a>
</g>
</g>
<!-- Node3 -->
<g id="Node000003" class="node">
<title>Node3</title>
<g id="a_Node000003"><a xlink:href="class_strawberry.html#a2e5468a8badbbf84cd37d12c34042061" target="_top" xlink:title=" ">
<polygon fill="white" stroke="#666666" points="302,-20 159.25,-20 159.25,0 302,0 302,-20"/>
<text text-anchor="middle" x="230.62" y="-6.5" font-family="Helvetica,sans-Serif" font-size="10.00">Strawberry::PlayerInteraction</text>
</a>
</g>
</g>
<!-- Node1&#45;&gt;Node3 -->
<g id="edge2_Node000001_Node000003" class="edge">
<title>Node1&#45;&gt;Node3</title>
<g id="a_edge2_Node000001_Node000003"><a xlink:title=" ">
<path fill="none" stroke="#63b8ff" d="M326.39,-20.66C318.36,-19.76 310.21,-18.84 302.23,-17.94"/>
<polygon fill="#63b8ff" stroke="#63b8ff" points="325.78,-24.12 336.11,-21.76 326.57,-17.16 325.78,-24.12"/>
</a>
</g>
</g>
<!-- Node3&#45;&gt;Node2 -->
<g id="edge3_Node000003_Node000002" class="edge">
<title>Node3&#45;&gt;Node2</title>
<g id="a_edge3_Node000003_Node000002"><a xlink:title=" ">
<path fill="none" stroke="#63b8ff" d="M147.45,-19.35C139.39,-20.27 131.32,-21.18 123.53,-22.07"/>
<polygon fill="#63b8ff" stroke="#63b8ff" points="147.76,-22.84 157.3,-18.23 146.97,-15.88 147.76,-22.84"/>
</a>
</g>
</g>
</g>
</svg>
