<?xml version="1.0" encoding="UTF-8" standalone="no"?>
<!DOCTYPE svg PUBLIC "-//W3C//DTD SVG 1.1//EN"
 "http://www.w3.org/Graphics/SVG/1.1/DTD/svg11.dtd">
<!-- Generated by graphviz version 12.2.1 (20241206.2353)
 -->
<!-- Title: LevelManager::operator= Pages: 1 -->
<svg width="495pt" height="66pt"
 viewBox="0.00 0.00 494.75 66.00" xmlns="http://www.w3.org/2000/svg" xmlns:xlink="http://www.w3.org/1999/xlink">
<g id="graph0" class="graph" transform="scale(1 1) rotate(0) translate(4 62)">
<title>LevelManager::operator=</title>
<!-- Node1 -->
<g id="Node000001" class="node">
<title>Node1</title>
<g id="a_Node000001"><a xlink:title=" ">
<polygon fill="#999999" stroke="#666666" points="124,-39 0,-39 0,-19 124,-19 124,-39"/>
<text text-anchor="middle" x="62" y="-25.5" font-family="Helvetica,sans-Serif" font-size="10.00">LevelManager::operator=</text>
</a>
</g>
</g>
<!-- Node2 -->
<g id="Node000002" class="node">
<title>Node2</title>
<g id="a_Node000002"><a xlink:href="class_level_manager.html#a38dbd125a5877cd9b7dac9bbfa16e7fd" target="_top" xlink:title=" ">
<polygon fill="white" stroke="#666666" points="303.5,-39 160,-39 160,-19 303.5,-19 303.5,-39"/>
<text text-anchor="middle" x="231.75" y="-25.5" font-family="Helvetica,sans-Serif" font-size="10.00">LevelManager::LevelManager</text>
</a>
</g>
</g>
<!-- Node1&#45;&gt;Node2 -->
<g id="edge1_Node000001_Node000002" class="edge">
<title>Node1&#45;&gt;Node2</title>
<g id="a_edge1_Node000001_Node000002"><a xlink:title=" ">
<path fill="none" stroke="#63b8ff" d="M124.04,-29C131.87,-29 139.99,-29 148.09,-29"/>
<polygon fill="#63b8ff" stroke="#63b8ff" points="147.99,-32.5 157.99,-29 147.99,-25.5 147.99,-32.5"/>
</a>
</g>
</g>
<!-- Node3 -->
<g id="Node000003" class="node">
<title>Node3</title>
<g id="a_Node000003"><a xlink:href="class_chapter.html#a61f218fd23651a6e857053bfc35841dc" target="_top" xlink:title=" ">
<polygon fill="white" stroke="#666666" points="466.5,-58 359.75,-58 359.75,-38 466.5,-38 466.5,-58"/>
<text text-anchor="middle" x="413.12" y="-44.5" font-family="Helvetica,sans-Serif" font-size="10.00">Chapter::GetChapter</text>
</a>
</g>
</g>
<!-- Node2&#45;&gt;Node3 -->
<g id="edge2_Node000002_Node000003" class="edge">
<title>Node2&#45;&gt;Node3</title>
<g id="a_edge2_Node000002_Node000003"><a xlink:title=" ">
<path fill="none" stroke="#63b8ff" d="M303.9,-36.54C318.49,-38.08 333.76,-39.7 348.08,-41.22"/>
<polygon fill="#63b8ff" stroke="#63b8ff" points="347.51,-44.68 357.82,-42.25 348.25,-37.71 347.51,-44.68"/>
</a>
</g>
</g>
<!-- Node4 -->
<g id="Node000004" class="node">
<title>Node4</title>
<g id="a_Node000004"><a xlink:href="class_level_manager.html#abf0e37bef114c237d13ad57136f74812" target="_top" xlink:title=" ">
<polygon fill="white" stroke="#666666" points="486.75,-20 339.5,-20 339.5,0 486.75,0 486.75,-20"/>
<text text-anchor="middle" x="413.12" y="-6.5" font-family="Helvetica,sans-Serif" font-size="10.00">LevelManager::SetDeadCount</text>
</a>
</g>
</g>
<!-- Node2&#45;&gt;Node4 -->
<g id="edge3_Node000002_Node000004" class="edge">
<title>Node2&#45;&gt;Node4</title>
<g id="a_edge3_Node000002_Node000004"><a xlink:title=" ">
<path fill="none" stroke="#63b8ff" d="M303.9,-21.46C311.75,-20.63 319.79,-19.78 327.78,-18.93"/>
<polygon fill="#63b8ff" stroke="#63b8ff" points="327.92,-22.44 337.5,-17.9 327.18,-15.48 327.92,-22.44"/>
</a>
</g>
</g>
</g>
</svg>
