<?xml version="1.0" encoding="UTF-8" standalone="no"?>
<!DOCTYPE svg PUBLIC "-//W3C//DTD SVG 1.1//EN"
 "http://www.w3.org/Graphics/SVG/1.1/DTD/svg11.dtd">
<!-- Generated by graphviz version 12.2.1 (20241206.2353)
 -->
<!-- Title: FlyingStrawberry::FlyingStrawberry Pages: 1 -->
<svg width="444pt" height="84pt"
 viewBox="0.00 0.00 443.75 84.00" xmlns="http://www.w3.org/2000/svg" xmlns:xlink="http://www.w3.org/1999/xlink">
<g id="graph0" class="graph" transform="scale(1 1) rotate(0) translate(4 80)">
<title>FlyingStrawberry::FlyingStrawberry</title>
<!-- Node1 -->
<g id="Node000001" class="node">
<title>Node1</title>
<g id="a_Node000001"><a xlink:title=" ">
<polygon fill="#999999" stroke="#666666" points="121.75,-54 0,-54 0,-22 121.75,-22 121.75,-54"/>
<text text-anchor="start" x="8" y="-40.5" font-family="Helvetica,sans-Serif" font-size="10.00">FlyingStrawberry::Flying</text>
<text text-anchor="middle" x="60.88" y="-28.5" font-family="Helvetica,sans-Serif" font-size="10.00">Strawberry</text>
</a>
</g>
</g>
<!-- Node2 -->
<g id="Node000002" class="node">
<title>Node2</title>
<g id="a_Node000002"><a xlink:href="class_flying_strawberry.html#a3603795cd3a0c20e776eafe4138f59b4" target="_top" xlink:title=" ">
<polygon fill="white" stroke="#666666" points="279.5,-54 157.75,-54 157.75,-22 279.5,-22 279.5,-54"/>
<text text-anchor="start" x="165.75" y="-40.5" font-family="Helvetica,sans-Serif" font-size="10.00">FlyingStrawberry::Flying</text>
<text text-anchor="middle" x="218.62" y="-28.5" font-family="Helvetica,sans-Serif" font-size="10.00">Strawberry</text>
</a>
</g>
</g>
<!-- Node1&#45;&gt;Node2 -->
<g id="edge1_Node000001_Node000002" class="edge">
<title>Node1&#45;&gt;Node2</title>
<g id="a_edge1_Node000001_Node000002"><a xlink:title=" ">
<path fill="none" stroke="#63b8ff" d="M122.09,-38C129.95,-38 138.05,-38 146.07,-38"/>
<polygon fill="#63b8ff" stroke="#63b8ff" points="145.8,-41.5 155.8,-38 145.8,-34.5 145.8,-41.5"/>
</a>
</g>
</g>
<!-- Node3 -->
<g id="Node000003" class="node">
<title>Node3</title>
<g id="a_Node000003"><a xlink:href="class_counted_item.html#a7a4f3ec5e121b459d51a818c9ed0e269" target="_top" xlink:title=" ">
<polygon fill="white" stroke="#666666" points="435.75,-76 315.5,-76 315.5,-56 435.75,-56 435.75,-76"/>
<text text-anchor="middle" x="375.62" y="-62.5" font-family="Helvetica,sans-Serif" font-size="10.00">CountedItem::GetCount</text>
</a>
</g>
</g>
<!-- Node2&#45;&gt;Node3 -->
<g id="edge2_Node000002_Node000003" class="edge">
<title>Node2&#45;&gt;Node3</title>
<g id="a_edge2_Node000002_Node000003"><a xlink:title=" ">
<path fill="none" stroke="#63b8ff" d="M280,-48.91C288.39,-50.42 297.06,-51.99 305.6,-53.53"/>
<polygon fill="#63b8ff" stroke="#63b8ff" points="304.75,-56.93 315.22,-55.27 306,-50.05 304.75,-56.93"/>
</a>
</g>
</g>
<!-- Node4 -->
<g id="Node000004" class="node">
<title>Node4</title>
<g id="a_Node000004"><a xlink:href="class_strawberry.html#ab4dff64037a1d41eb23ef267eeda6510" target="_top" xlink:title=" ">
<polygon fill="white" stroke="#666666" points="433.88,-20 317.38,-20 317.38,0 433.88,0 433.88,-20"/>
<text text-anchor="middle" x="375.62" y="-6.5" font-family="Helvetica,sans-Serif" font-size="10.00">Strawberry::Strawberry</text>
</a>
</g>
</g>
<!-- Node2&#45;&gt;Node4 -->
<g id="edge3_Node000002_Node000004" class="edge">
<title>Node2&#45;&gt;Node4</title>
<g id="a_edge3_Node000002_Node000004"><a xlink:title=" ">
<path fill="none" stroke="#63b8ff" d="M280,-27.09C288.45,-25.57 297.19,-23.99 305.78,-22.44"/>
<polygon fill="#63b8ff" stroke="#63b8ff" points="306.25,-25.91 315.47,-20.69 305.01,-19.02 306.25,-25.91"/>
</a>
</g>
</g>
<!-- Node4&#45;&gt;Node4 -->
<g id="edge4_Node000004_Node000004" class="edge">
<title>Node4&#45;&gt;Node4</title>
<g id="a_edge4_Node000004_Node000004"><a xlink:title=" ">
<path fill="none" stroke="#63b8ff" d="M350.68,-20.34C340.02,-28.98 348.33,-38 375.62,-38 390.55,-38 399.8,-35.3 403.37,-31.44"/>
<polygon fill="#63b8ff" stroke="#63b8ff" points="406.78,-30.65 400.94,-21.81 400,-32.36 406.78,-30.65"/>
</a>
</g>
</g>
</g>
</svg>
