<?xml version="1.0" encoding="UTF-8" standalone="no"?>
<!DOCTYPE svg PUBLIC "-//W3C//DTD SVG 1.1//EN"
 "http://www.w3.org/Graphics/SVG/1.1/DTD/svg11.dtd">
<!-- Generated by graphviz version 12.2.1 (20241206.2353)
 -->
<!-- Title: CharacterController::Move Pages: 1 -->
<svg width="859pt" height="194pt"
 viewBox="0.00 0.00 858.50 193.50" xmlns="http://www.w3.org/2000/svg" xmlns:xlink="http://www.w3.org/1999/xlink">
<g id="graph0" class="graph" transform="scale(1 1) rotate(0) translate(4 189.5)">
<title>CharacterController::Move</title>
<!-- Node1 -->
<g id="Node000001" class="node">
<title>Node1</title>
<g id="a_Node000001"><a xlink:title=" ">
<polygon fill="#999999" stroke="#666666" points="100.75,-121 0,-121 0,-89 100.75,-89 100.75,-121"/>
<text text-anchor="start" x="8" y="-107.5" font-family="Helvetica,sans-Serif" font-size="10.00">CharacterController</text>
<text text-anchor="middle" x="50.38" y="-95.5" font-family="Helvetica,sans-Serif" font-size="10.00">::Move</text>
</a>
</g>
</g>
<!-- Node2 -->
<g id="Node000002" class="node">
<title>Node2</title>
<g id="a_Node000002"><a xlink:href="struct_vector2f.html#af8ceb9310d7065eb485e47b072a5b143" target="_top" xlink:title=" ">
<polygon fill="white" stroke="#666666" points="715.25,-134 607.75,-134 607.75,-114 715.25,-114 715.25,-134"/>
<text text-anchor="middle" x="661.5" y="-120.5" font-family="Helvetica,sans-Serif" font-size="10.00">Vector2f::DotProduct</text>
</a>
</g>
</g>
<!-- Node1&#45;&gt;Node2 -->
<g id="edge1_Node000001_Node000002" class="edge">
<title>Node1&#45;&gt;Node2</title>
<g id="a_edge1_Node000001_Node000002"><a xlink:title=" ">
<path fill="none" stroke="#63b8ff" d="M101.22,-106.55C211.05,-109.98 473.8,-118.18 595.99,-121.99"/>
<polygon fill="#63b8ff" stroke="#63b8ff" points="595.75,-125.48 605.85,-122.3 595.97,-118.49 595.75,-125.48"/>
</a>
</g>
</g>
<!-- Node4 -->
<g id="Node000004" class="node">
<title>Node4</title>
<g id="a_Node000004"><a xlink:href="namespaceutils.html#a907c18a579f4b5bac2aa39f8d64fa381" target="_top" xlink:title=" ">
<polygon fill="white" stroke="#666666" points="213.5,-96 136.75,-96 136.75,-76 213.5,-76 213.5,-96"/>
<text text-anchor="middle" x="175.12" y="-82.5" font-family="Helvetica,sans-Serif" font-size="10.00">utils::Raycast</text>
</a>
</g>
</g>
<!-- Node1&#45;&gt;Node4 -->
<g id="edge4_Node000001_Node000004" class="edge">
<title>Node1&#45;&gt;Node4</title>
<g id="a_edge4_Node000001_Node000004"><a xlink:title=" ">
<path fill="none" stroke="#63b8ff" d="M100.95,-97.33C108.91,-96.1 117.14,-94.82 125.08,-93.59"/>
<polygon fill="#63b8ff" stroke="#63b8ff" points="125.61,-97.05 134.96,-92.06 124.54,-90.13 125.61,-97.05"/>
</a>
</g>
</g>
<!-- Node3 -->
<g id="Node000003" class="node">
<title>Node3</title>
<g id="a_Node000003"><a xlink:href="struct_vector2f.html#a3db9a868c58bc809e5e09a88d65a77ec" target="_top" xlink:title=" ">
<polygon fill="white" stroke="#666666" points="850.5,-115 756.5,-115 756.5,-95 850.5,-95 850.5,-115"/>
<text text-anchor="middle" x="803.5" y="-101.5" font-family="Helvetica,sans-Serif" font-size="10.00">Vector2f::Vector2f</text>
</a>
</g>
</g>
<!-- Node2&#45;&gt;Node3 -->
<g id="edge2_Node000002_Node000003" class="edge">
<title>Node2&#45;&gt;Node3</title>
<g id="a_edge2_Node000002_Node000003"><a xlink:title=" ">
<path fill="none" stroke="#63b8ff" d="M715.43,-116.82C725.11,-115.5 735.26,-114.13 745.07,-112.79"/>
<polygon fill="#63b8ff" stroke="#63b8ff" points="745.44,-116.28 754.88,-111.46 744.5,-109.34 745.44,-116.28"/>
</a>
</g>
</g>
<!-- Node3&#45;&gt;Node3 -->
<g id="edge3_Node000003_Node000003" class="edge">
<title>Node3&#45;&gt;Node3</title>
<g id="a_edge3_Node000003_Node000003"><a xlink:title=" ">
<path fill="none" stroke="#63b8ff" d="M780.94,-115.34C771.3,-123.98 778.82,-133 803.5,-133 817,-133 825.36,-130.3 828.6,-126.44"/>
<polygon fill="#63b8ff" stroke="#63b8ff" points="832.04,-125.78 826.4,-116.81 825.21,-127.34 832.04,-125.78"/>
</a>
</g>
</g>
<!-- Node5 -->
<g id="Node000005" class="node">
<title>Node5</title>
<g id="a_Node000005"><a xlink:href="namespaceutils.html#a9ef86448634b099a56f145753593ab2f" target="_top" xlink:title=" ">
<polygon fill="white" stroke="#666666" points="390,-172 249.5,-172 249.5,-152 390,-152 390,-172"/>
<text text-anchor="middle" x="319.75" y="-158.5" font-family="Helvetica,sans-Serif" font-size="10.00">utils::IntersectLineSegments</text>
</a>
</g>
</g>
<!-- Node4&#45;&gt;Node5 -->
<g id="edge5_Node000004_Node000005" class="edge">
<title>Node4&#45;&gt;Node5</title>
<g id="a_edge5_Node000004_Node000005"><a xlink:title=" ">
<path fill="none" stroke="#63b8ff" d="M195.66,-96.41C219.88,-109.31 261.38,-131.43 289.43,-146.38"/>
<polygon fill="#63b8ff" stroke="#63b8ff" points="287.65,-149.39 298.12,-151.01 290.94,-143.21 287.65,-149.39"/>
</a>
</g>
</g>
<!-- Node8 -->
<g id="Node000008" class="node">
<title>Node8</title>
<g id="a_Node000008"><a xlink:href="namespaceutils.html#a11a0eb68e467a22aed74f507057c39ed" target="_top" xlink:title=" ">
<polygon fill="white" stroke="#666666" points="369.75,-20 269.75,-20 269.75,0 369.75,0 369.75,-20"/>
<text text-anchor="middle" x="319.75" y="-6.5" font-family="Helvetica,sans-Serif" font-size="10.00">utils::IsOverlapping</text>
</a>
</g>
</g>
<!-- Node4&#45;&gt;Node8 -->
<g id="edge11_Node000004_Node000008" class="edge">
<title>Node4&#45;&gt;Node8</title>
<g id="a_edge11_Node000004_Node000008"><a xlink:title=" ">
<path fill="none" stroke="#63b8ff" d="M188.41,-75.63C202.44,-64.2 226.45,-45.86 249.5,-34 256.5,-30.4 264.16,-27.14 271.75,-24.26"/>
<polygon fill="#63b8ff" stroke="#63b8ff" points="272.71,-27.64 280.94,-20.97 270.34,-21.05 272.71,-27.64"/>
</a>
</g>
</g>
<!-- Node11 -->
<g id="Node000011" class="node">
<title>Node11</title>
<g id="a_Node000011"><a xlink:href="struct_vector2f.html#aba5dd756c385551a19d36b57d8cbf629" target="_top" xlink:title=" ">
<polygon fill="white" stroke="#666666" points="715.25,-58 607.75,-58 607.75,-38 715.25,-38 715.25,-58"/>
<text text-anchor="middle" x="661.5" y="-44.5" font-family="Helvetica,sans-Serif" font-size="10.00">Vector2f::Normalized</text>
</a>
</g>
</g>
<!-- Node4&#45;&gt;Node11 -->
<g id="edge18_Node000004_Node000011" class="edge">
<title>Node4&#45;&gt;Node11</title>
<g id="a_edge18_Node000004_Node000011"><a xlink:title=" ">
<path fill="none" stroke="#63b8ff" d="M213.73,-83.05C296.13,-76.59 493.42,-61.11 596.04,-53.06"/>
<polygon fill="#63b8ff" stroke="#63b8ff" points="596.26,-56.55 605.96,-52.28 595.72,-49.57 596.26,-56.55"/>
</a>
</g>
</g>
<!-- Node12 -->
<g id="Node000012" class="node">
<title>Node12</title>
<g id="a_Node000012"><a xlink:href="struct_vector2f.html#a368a0568a55e306014fc88a9720a1af2" target="_top" xlink:title=" ">
<polygon fill="white" stroke="#666666" points="548.88,-96 443.62,-96 443.62,-76 548.88,-76 548.88,-96"/>
<text text-anchor="middle" x="496.25" y="-82.5" font-family="Helvetica,sans-Serif" font-size="10.00">Vector2f::Orthogonal</text>
</a>
</g>
</g>
<!-- Node4&#45;&gt;Node12 -->
<g id="edge19_Node000004_Node000012" class="edge">
<title>Node4&#45;&gt;Node12</title>
<g id="a_edge19_Node000004_Node000012"><a xlink:title=" ">
<path fill="none" stroke="#63b8ff" d="M213.99,-86C267.72,-86 366.79,-86 431.85,-86"/>
<polygon fill="#63b8ff" stroke="#63b8ff" points="431.67,-89.5 441.67,-86 431.67,-82.5 431.67,-89.5"/>
</a>
</g>
</g>
<!-- Node6 -->
<g id="Node000006" class="node">
<title>Node6</title>
<g id="a_Node000006"><a xlink:href="struct_vector2f.html#ab99fa60e5b7af169760de9057863423b" target="_top" xlink:title=" ">
<polygon fill="white" stroke="#666666" points="720.5,-172 602.5,-172 602.5,-152 720.5,-152 720.5,-172"/>
<text text-anchor="middle" x="661.5" y="-158.5" font-family="Helvetica,sans-Serif" font-size="10.00">Vector2f::CrossProduct</text>
</a>
</g>
</g>
<!-- Node5&#45;&gt;Node6 -->
<g id="edge6_Node000005_Node000006" class="edge">
<title>Node5&#45;&gt;Node6</title>
<g id="a_edge6_Node000005_Node000006"><a xlink:title=" ">
<path fill="none" stroke="#63b8ff" d="M368.45,-172.47C386.39,-175.92 407.04,-179.3 426,-181 488.2,-186.57 504.37,-187.22 566.5,-181 579.7,-179.68 593.78,-177.34 606.93,-174.75"/>
<polygon fill="#63b8ff" stroke="#63b8ff" points="607.62,-178.18 616.71,-172.72 606.21,-171.32 607.62,-178.18"/>
</a>
</g>
</g>
<!-- Node7 -->
<g id="Node000007" class="node">
<title>Node7</title>
<g id="a_Node000007"><a xlink:href="namespaceutils.html#afa48cca7d08708b5ce3581974e9c39aa" target="_top" xlink:title=" ">
<polygon fill="white" stroke="#666666" points="566.5,-172 426,-172 426,-152 566.5,-152 566.5,-172"/>
<text text-anchor="middle" x="496.25" y="-158.5" font-family="Helvetica,sans-Serif" font-size="10.00">utils::IsPointOnLineSegment</text>
</a>
</g>
</g>
<!-- Node5&#45;&gt;Node7 -->
<g id="edge8_Node000005_Node000007" class="edge">
<title>Node5&#45;&gt;Node7</title>
<g id="a_edge8_Node000005_Node000007"><a xlink:title=" ">
<path fill="none" stroke="#63b8ff" d="M390.47,-162C398.25,-162 406.23,-162 414.13,-162"/>
<polygon fill="#63b8ff" stroke="#63b8ff" points="414.13,-165.5 424.13,-162 414.13,-158.5 414.13,-165.5"/>
</a>
</g>
</g>
<!-- Node6&#45;&gt;Node3 -->
<g id="edge7_Node000006_Node000003" class="edge">
<title>Node6&#45;&gt;Node3</title>
<g id="a_edge7_Node000006_Node000003"><a xlink:title=" ">
<path fill="none" stroke="#63b8ff" d="M696.78,-151.51C704.64,-148.9 712.91,-145.99 720.5,-143 737.82,-136.18 756.69,-127.52 771.96,-120.19"/>
<polygon fill="#63b8ff" stroke="#63b8ff" points="773.07,-123.55 780.54,-116.03 770.01,-117.25 773.07,-123.55"/>
</a>
</g>
</g>
<!-- Node7&#45;&gt;Node2 -->
<g id="edge10_Node000007_Node000002" class="edge">
<title>Node7&#45;&gt;Node2</title>
<g id="a_edge10_Node000007_Node000002"><a xlink:title=" ">
<path fill="none" stroke="#63b8ff" d="M542.29,-151.52C561.56,-147.03 584.26,-141.75 604.59,-137.01"/>
<polygon fill="#63b8ff" stroke="#63b8ff" points="605.19,-140.47 614.13,-134.79 603.6,-133.65 605.19,-140.47"/>
</a>
</g>
</g>
<!-- Node7&#45;&gt;Node6 -->
<g id="edge9_Node000007_Node000006" class="edge">
<title>Node7&#45;&gt;Node6</title>
<g id="a_edge9_Node000007_Node000006"><a xlink:title=" ">
<path fill="none" stroke="#63b8ff" d="M566.96,-162C574.82,-162 582.83,-162 590.69,-162"/>
<polygon fill="#63b8ff" stroke="#63b8ff" points="590.55,-165.5 600.55,-162 590.55,-158.5 590.55,-165.5"/>
</a>
</g>
</g>
<!-- Node9 -->
<g id="Node000009" class="node">
<title>Node9</title>
<g id="a_Node000009"><a xlink:href="namespaceutils.html#a760075559e6ab59c1daec763fab2b488" target="_top" xlink:title=" ">
<polygon fill="white" stroke="#666666" points="565,-20 427.5,-20 427.5,0 565,0 565,-20"/>
<text text-anchor="middle" x="496.25" y="-6.5" font-family="Helvetica,sans-Serif" font-size="10.00">utils::DistPointLineSegment</text>
</a>
</g>
</g>
<!-- Node8&#45;&gt;Node9 -->
<g id="edge12_Node000008_Node000009" class="edge">
<title>Node8&#45;&gt;Node9</title>
<g id="a_edge12_Node000008_Node000009"><a xlink:title=" ">
<path fill="none" stroke="#63b8ff" d="M369.82,-10C384.1,-10 400.07,-10 415.72,-10"/>
<polygon fill="#63b8ff" stroke="#63b8ff" points="415.5,-13.5 425.5,-10 415.5,-6.5 415.5,-13.5"/>
</a>
</g>
</g>
<!-- Node9&#45;&gt;Node2 -->
<g id="edge13_Node000009_Node000002" class="edge">
<title>Node9&#45;&gt;Node2</title>
<g id="a_edge13_Node000009_Node000002"><a xlink:title=" ">
<path fill="none" stroke="#63b8ff" d="M512.03,-20.32C540.31,-40.07 602.35,-83.39 636.6,-107.31"/>
<polygon fill="#63b8ff" stroke="#63b8ff" points="634.43,-110.07 644.63,-112.92 638.44,-104.33 634.43,-110.07"/>
</a>
</g>
</g>
<!-- Node10 -->
<g id="Node000010" class="node">
<title>Node10</title>
<g id="a_Node000010"><a xlink:href="struct_vector2f.html#acedb20d25ccc3009546e120eda010bf5" target="_top" xlink:title=" ">
<polygon fill="white" stroke="#666666" points="847.12,-39 759.88,-39 759.88,-19 847.12,-19 847.12,-39"/>
<text text-anchor="middle" x="803.5" y="-25.5" font-family="Helvetica,sans-Serif" font-size="10.00">Vector2f::Length</text>
</a>
</g>
</g>
<!-- Node9&#45;&gt;Node10 -->
<g id="edge14_Node000009_Node000010" class="edge">
<title>Node9&#45;&gt;Node10</title>
<g id="a_edge14_Node000009_Node000010"><a xlink:title=" ">
<path fill="none" stroke="#63b8ff" d="M565.37,-14.24C620.47,-17.67 697.03,-22.43 748.09,-25.61"/>
<polygon fill="#63b8ff" stroke="#63b8ff" points="747.82,-29.1 758.02,-26.23 748.26,-22.12 747.82,-29.1"/>
</a>
</g>
</g>
<!-- Node9&#45;&gt;Node11 -->
<g id="edge15_Node000009_Node000011" class="edge">
<title>Node9&#45;&gt;Node11</title>
<g id="a_edge15_Node000009_Node000011"><a xlink:title=" ">
<path fill="none" stroke="#63b8ff" d="M542.29,-20.48C561.56,-24.97 584.26,-30.25 604.59,-34.99"/>
<polygon fill="#63b8ff" stroke="#63b8ff" points="603.6,-38.35 614.13,-37.21 605.19,-31.53 603.6,-38.35"/>
</a>
</g>
</g>
<!-- Node11&#45;&gt;Node3 -->
<g id="edge17_Node000011_Node000003" class="edge">
<title>Node11&#45;&gt;Node3</title>
<g id="a_edge17_Node000011_Node000003"><a xlink:title=" ">
<path fill="none" stroke="#63b8ff" d="M688.18,-58.45C710.18,-67.41 742.11,-80.41 766.64,-90.4"/>
<polygon fill="#63b8ff" stroke="#63b8ff" points="765,-93.51 775.58,-94.04 767.64,-87.03 765,-93.51"/>
</a>
</g>
</g>
<!-- Node11&#45;&gt;Node10 -->
<g id="edge16_Node000011_Node000010" class="edge">
<title>Node11&#45;&gt;Node10</title>
<g id="a_edge16_Node000011_Node000010"><a xlink:title=" ">
<path fill="none" stroke="#63b8ff" d="M715.43,-40.82C726.12,-39.37 737.37,-37.84 748.11,-36.38"/>
<polygon fill="#63b8ff" stroke="#63b8ff" points="748.58,-39.85 758.01,-35.04 747.63,-32.91 748.58,-39.85"/>
</a>
</g>
</g>
<!-- Node12&#45;&gt;Node3 -->
<g id="edge20_Node000012_Node000003" class="edge">
<title>Node12&#45;&gt;Node3</title>
<g id="a_edge20_Node000012_Node000003"><a xlink:title=" ">
<path fill="none" stroke="#63b8ff" d="M549.03,-89.22C603.45,-92.61 688.84,-97.93 745.24,-101.44"/>
<polygon fill="#63b8ff" stroke="#63b8ff" points="744.76,-104.91 754.95,-102.04 745.19,-97.93 744.76,-104.91"/>
</a>
</g>
</g>
</g>
</svg>
