<?xml version="1.0" encoding="UTF-8" standalone="no"?>
<!DOCTYPE svg PUBLIC "-//W3C//DTD SVG 1.1//EN"
 "http://www.w3.org/Graphics/SVG/1.1/DTD/svg11.dtd">
<!-- Generated by graphviz version 12.2.1 (20241206.2353)
 -->
<!-- Title: Strawberry::PlayerInteraction Pages: 1 -->
<svg width="768pt" height="218pt"
 viewBox="0.00 0.00 767.50 218.00" xmlns="http://www.w3.org/2000/svg" xmlns:xlink="http://www.w3.org/1999/xlink">
<g id="graph0" class="graph" transform="scale(1 1) rotate(0) translate(4 214)">
<title>Strawberry::PlayerInteraction</title>
<!-- Node1 -->
<g id="Node000001" class="node">
<title>Node1</title>
<g id="a_Node000001"><a xlink:title=" ">
<polygon fill="#999999" stroke="#666666" points="142.75,-115 0,-115 0,-95 142.75,-95 142.75,-115"/>
<text text-anchor="middle" x="71.38" y="-101.5" font-family="Helvetica,sans-Serif" font-size="10.00">Strawberry::PlayerInteraction</text>
</a>
</g>
</g>
<!-- Node2 -->
<g id="Node000002" class="node">
<title>Node2</title>
<g id="a_Node000002"><a xlink:href="class_character.html#a0b790800d6ff90eebee18bce25177fce" target="_top" xlink:title=" ">
<polygon fill="white" stroke="#666666" points="300.88,-210 190.38,-210 190.38,-190 300.88,-190 300.88,-210"/>
<text text-anchor="middle" x="245.62" y="-196.5" font-family="Helvetica,sans-Serif" font-size="10.00">Character::GetHitBox</text>
</a>
</g>
</g>
<!-- Node1&#45;&gt;Node2 -->
<g id="edge1_Node000001_Node000002" class="edge">
<title>Node1&#45;&gt;Node2</title>
<g id="a_edge1_Node000001_Node000002"><a xlink:title=" ">
<path fill="none" stroke="#63b8ff" d="M83.96,-115.34C102.65,-131.51 141.16,-162.81 178.75,-181 182.29,-182.71 186,-184.3 189.8,-185.76"/>
<polygon fill="#63b8ff" stroke="#63b8ff" points="188.59,-189.04 199.19,-189.06 190.92,-182.44 188.59,-189.04"/>
</a>
</g>
</g>
<!-- Node3 -->
<g id="Node000003" class="node">
<title>Node3</title>
<g id="a_Node000003"><a xlink:href="class_game_object.html#ac3bd47953a5614e49e3739955fb5d669" target="_top" xlink:title=" ">
<polygon fill="white" stroke="#666666" points="309.5,-172 181.75,-172 181.75,-152 309.5,-152 309.5,-172"/>
<text text-anchor="middle" x="245.62" y="-158.5" font-family="Helvetica,sans-Serif" font-size="10.00">GameObject::GetPosition</text>
</a>
</g>
</g>
<!-- Node1&#45;&gt;Node3 -->
<g id="edge2_Node000001_Node000003" class="edge">
<title>Node1&#45;&gt;Node3</title>
<g id="a_edge2_Node000001_Node000003"><a xlink:title=" ">
<path fill="none" stroke="#63b8ff" d="M100.21,-115.48C121.58,-123.39 151.87,-134.33 178.75,-143 184.27,-144.78 190.08,-146.57 195.87,-148.31"/>
<polygon fill="#63b8ff" stroke="#63b8ff" points="194.85,-151.65 205.43,-151.12 196.82,-144.94 194.85,-151.65"/>
</a>
</g>
</g>
<!-- Node4 -->
<g id="Node000004" class="node">
<title>Node4</title>
<g id="a_Node000004"><a xlink:href="namespaceutils.html#a11a0eb68e467a22aed74f507057c39ed" target="_top" xlink:title=" ">
<polygon fill="white" stroke="#666666" points="295.62,-134 195.62,-134 195.62,-114 295.62,-114 295.62,-134"/>
<text text-anchor="middle" x="245.62" y="-120.5" font-family="Helvetica,sans-Serif" font-size="10.00">utils::IsOverlapping</text>
</a>
</g>
</g>
<!-- Node1&#45;&gt;Node4 -->
<g id="edge3_Node000001_Node000004" class="edge">
<title>Node1&#45;&gt;Node4</title>
<g id="a_edge3_Node000001_Node000004"><a xlink:title=" ">
<path fill="none" stroke="#63b8ff" d="M142.93,-112.78C156.51,-114.28 170.63,-115.84 183.87,-117.3"/>
<polygon fill="#63b8ff" stroke="#63b8ff" points="183.41,-120.77 193.73,-118.39 184.18,-113.81 183.41,-120.77"/>
</a>
</g>
</g>
<!-- Node10 -->
<g id="Node000010" class="node">
<title>Node10</title>
<g id="a_Node000010"><a xlink:href="class_character.html#a9ccad0ccca398eed8e4e2b101f47a883" target="_top" xlink:title=" ">
<polygon fill="white" stroke="#666666" points="309.12,-96 182.12,-96 182.12,-76 309.12,-76 309.12,-96"/>
<text text-anchor="middle" x="245.62" y="-82.5" font-family="Helvetica,sans-Serif" font-size="10.00">Character::IsRespawning</text>
</a>
</g>
</g>
<!-- Node1&#45;&gt;Node10 -->
<g id="edge12_Node000001_Node000010" class="edge">
<title>Node1&#45;&gt;Node10</title>
<g id="a_edge12_Node000001_Node000010"><a xlink:title=" ">
<path fill="none" stroke="#63b8ff" d="M142.93,-97.22C151.95,-96.22 161.2,-95.2 170.27,-94.2"/>
<polygon fill="#63b8ff" stroke="#63b8ff" points="170.58,-97.69 180.13,-93.11 169.81,-90.73 170.58,-97.69"/>
</a>
</g>
</g>
<!-- Node11 -->
<g id="Node000011" class="node">
<title>Node11</title>
<g id="a_Node000011"><a xlink:href="class_character.html#a51c025cc2193ef3fe81395d5e85dd017" target="_top" xlink:title=" ">
<polygon fill="white" stroke="#666666" points="312.5,-58 178.75,-58 178.75,-38 312.5,-38 312.5,-58"/>
<text text-anchor="middle" x="245.62" y="-44.5" font-family="Helvetica,sans-Serif" font-size="10.00">Character::IsTouchingFloor</text>
</a>
</g>
</g>
<!-- Node1&#45;&gt;Node11 -->
<g id="edge13_Node000001_Node000011" class="edge">
<title>Node1&#45;&gt;Node11</title>
<g id="a_edge13_Node000001_Node000011"><a xlink:title=" ">
<path fill="none" stroke="#63b8ff" d="M100.21,-94.52C121.58,-86.61 151.87,-75.67 178.75,-67 184.27,-65.22 190.08,-63.43 195.87,-61.69"/>
<polygon fill="#63b8ff" stroke="#63b8ff" points="196.82,-65.06 205.43,-58.88 194.85,-58.35 196.82,-65.06"/>
</a>
</g>
</g>
<!-- Node12 -->
<g id="Node000012" class="node">
<title>Node12</title>
<g id="a_Node000012"><a xlink:href="class_strawberry.html#afcc525a41d07703008636397800977bb" target="_top" xlink:title=" ">
<polygon fill="white" stroke="#666666" points="293.38,-20 197.88,-20 197.88,0 293.38,0 293.38,-20"/>
<text text-anchor="middle" x="245.62" y="-6.5" font-family="Helvetica,sans-Serif" font-size="10.00">Strawberry::Reset</text>
</a>
</g>
</g>
<!-- Node1&#45;&gt;Node12 -->
<g id="edge14_Node000001_Node000012" class="edge">
<title>Node1&#45;&gt;Node12</title>
<g id="a_edge14_Node000001_Node000012"><a xlink:title=" ">
<path fill="none" stroke="#63b8ff" d="M83.96,-94.66C102.65,-78.49 141.16,-47.19 178.75,-29 182.29,-27.29 186,-25.7 189.8,-24.24"/>
<polygon fill="#63b8ff" stroke="#63b8ff" points="190.92,-27.56 199.19,-20.94 188.59,-20.96 190.92,-27.56"/>
</a>
</g>
</g>
<!-- Node5 -->
<g id="Node000005" class="node">
<title>Node5</title>
<g id="a_Node000005"><a xlink:href="namespaceutils.html#a760075559e6ab59c1daec763fab2b488" target="_top" xlink:title=" ">
<polygon fill="white" stroke="#666666" points="486,-134 348.5,-134 348.5,-114 486,-114 486,-134"/>
<text text-anchor="middle" x="417.25" y="-120.5" font-family="Helvetica,sans-Serif" font-size="10.00">utils::DistPointLineSegment</text>
</a>
</g>
</g>
<!-- Node4&#45;&gt;Node5 -->
<g id="edge4_Node000004_Node000005" class="edge">
<title>Node4&#45;&gt;Node5</title>
<g id="a_edge4_Node000004_Node000005"><a xlink:title=" ">
<path fill="none" stroke="#63b8ff" d="M295.69,-124C308.58,-124 322.82,-124 336.87,-124"/>
<polygon fill="#63b8ff" stroke="#63b8ff" points="336.54,-127.5 346.54,-124 336.54,-120.5 336.54,-127.5"/>
</a>
</g>
</g>
<!-- Node6 -->
<g id="Node000006" class="node">
<title>Node6</title>
<g id="a_Node000006"><a xlink:href="struct_vector2f.html#af8ceb9310d7065eb485e47b072a5b143" target="_top" xlink:title=" ">
<polygon fill="white" stroke="#666666" points="629.5,-172 522,-172 522,-152 629.5,-152 629.5,-172"/>
<text text-anchor="middle" x="575.75" y="-158.5" font-family="Helvetica,sans-Serif" font-size="10.00">Vector2f::DotProduct</text>
</a>
</g>
</g>
<!-- Node5&#45;&gt;Node6 -->
<g id="edge5_Node000005_Node000006" class="edge">
<title>Node5&#45;&gt;Node6</title>
<g id="a_edge5_Node000005_Node000006"><a xlink:title=" ">
<path fill="none" stroke="#63b8ff" d="M461.43,-134.48C479.73,-138.93 501.26,-144.16 520.61,-148.85"/>
<polygon fill="#63b8ff" stroke="#63b8ff" points="519.7,-152.23 530.24,-151.19 521.35,-145.43 519.7,-152.23"/>
</a>
</g>
</g>
<!-- Node8 -->
<g id="Node000008" class="node">
<title>Node8</title>
<g id="a_Node000008"><a xlink:href="struct_vector2f.html#acedb20d25ccc3009546e120eda010bf5" target="_top" xlink:title=" ">
<polygon fill="white" stroke="#666666" points="756.12,-106 668.88,-106 668.88,-86 756.12,-86 756.12,-106"/>
<text text-anchor="middle" x="712.5" y="-92.5" font-family="Helvetica,sans-Serif" font-size="10.00">Vector2f::Length</text>
</a>
</g>
</g>
<!-- Node5&#45;&gt;Node8 -->
<g id="edge8_Node000005_Node000008" class="edge">
<title>Node5&#45;&gt;Node8</title>
<g id="a_edge8_Node000005_Node000008"><a xlink:title=" ">
<path fill="none" stroke="#63b8ff" d="M467.92,-113.51C484.99,-110.28 504.26,-107.04 522,-105 567.37,-99.79 619.18,-97.59 657.15,-96.66"/>
<polygon fill="#63b8ff" stroke="#63b8ff" points="657.04,-100.16 666.96,-96.44 656.88,-93.16 657.04,-100.16"/>
</a>
</g>
</g>
<!-- Node9 -->
<g id="Node000009" class="node">
<title>Node9</title>
<g id="a_Node000009"><a xlink:href="struct_vector2f.html#aba5dd756c385551a19d36b57d8cbf629" target="_top" xlink:title=" ">
<polygon fill="white" stroke="#666666" points="629.5,-134 522,-134 522,-114 629.5,-114 629.5,-134"/>
<text text-anchor="middle" x="575.75" y="-120.5" font-family="Helvetica,sans-Serif" font-size="10.00">Vector2f::Normalized</text>
</a>
</g>
</g>
<!-- Node5&#45;&gt;Node9 -->
<g id="edge9_Node000005_Node000009" class="edge">
<title>Node5&#45;&gt;Node9</title>
<g id="a_edge9_Node000005_Node000009"><a xlink:title=" ">
<path fill="none" stroke="#63b8ff" d="M486.44,-124C494.41,-124 502.52,-124 510.43,-124"/>
<polygon fill="#63b8ff" stroke="#63b8ff" points="510.33,-127.5 520.33,-124 510.33,-120.5 510.33,-127.5"/>
</a>
</g>
</g>
<!-- Node7 -->
<g id="Node000007" class="node">
<title>Node7</title>
<g id="a_Node000007"><a xlink:href="struct_vector2f.html#a3db9a868c58bc809e5e09a88d65a77ec" target="_top" xlink:title=" ">
<polygon fill="white" stroke="#666666" points="759.5,-153 665.5,-153 665.5,-133 759.5,-133 759.5,-153"/>
<text text-anchor="middle" x="712.5" y="-139.5" font-family="Helvetica,sans-Serif" font-size="10.00">Vector2f::Vector2f</text>
</a>
</g>
</g>
<!-- Node6&#45;&gt;Node7 -->
<g id="edge6_Node000006_Node000007" class="edge">
<title>Node6&#45;&gt;Node7</title>
<g id="a_edge6_Node000006_Node000007"><a xlink:title=" ">
<path fill="none" stroke="#63b8ff" d="M629.62,-154.55C637.64,-153.41 645.94,-152.24 654.05,-151.1"/>
<polygon fill="#63b8ff" stroke="#63b8ff" points="654.43,-154.58 663.84,-149.72 653.45,-147.65 654.43,-154.58"/>
</a>
</g>
</g>
<!-- Node7&#45;&gt;Node7 -->
<g id="edge7_Node000007_Node000007" class="edge">
<title>Node7&#45;&gt;Node7</title>
<g id="a_edge7_Node000007_Node000007"><a xlink:title=" ">
<path fill="none" stroke="#63b8ff" d="M690.77,-153.34C681.49,-161.98 688.73,-171 712.5,-171 725.5,-171 733.56,-168.3 736.67,-164.44"/>
<polygon fill="#63b8ff" stroke="#63b8ff" points="740.12,-163.83 734.55,-154.82 733.28,-165.34 740.12,-163.83"/>
</a>
</g>
</g>
<!-- Node9&#45;&gt;Node7 -->
<g id="edge11_Node000009_Node000007" class="edge">
<title>Node9&#45;&gt;Node7</title>
<g id="a_edge11_Node000009_Node000007"><a xlink:title=" ">
<path fill="none" stroke="#63b8ff" d="M629.62,-131.45C637.64,-132.59 645.94,-133.76 654.05,-134.9"/>
<polygon fill="#63b8ff" stroke="#63b8ff" points="653.45,-138.35 663.84,-136.28 654.43,-131.42 653.45,-138.35"/>
</a>
</g>
</g>
<!-- Node9&#45;&gt;Node8 -->
<g id="edge10_Node000009_Node000008" class="edge">
<title>Node9&#45;&gt;Node8</title>
<g id="a_edge10_Node000009_Node000008"><a xlink:title=" ">
<path fill="none" stroke="#63b8ff" d="M626.93,-113.57C636.93,-111.5 647.47,-109.3 657.6,-107.2"/>
<polygon fill="#63b8ff" stroke="#63b8ff" points="658.23,-110.64 667.31,-105.18 656.81,-103.79 658.23,-110.64"/>
</a>
</g>
</g>
</g>
</svg>
