<?xml version="1.0" encoding="UTF-8" standalone="no"?>
<!DOCTYPE svg PUBLIC "-//W3C//DTD SVG 1.1//EN"
 "http://www.w3.org/Graphics/SVG/1.1/DTD/svg11.dtd">
<!-- Generated by graphviz version 12.2.1 (20241206.2353)
 -->
<!-- Title: GameObject Pages: 1 -->
<svg width="188pt" height="84pt"
 viewBox="0.00 0.00 187.50 84.00" xmlns="http://www.w3.org/2000/svg" xmlns:xlink="http://www.w3.org/1999/xlink">
<g id="graph0" class="graph" transform="scale(1 1) rotate(0) translate(4 80)">
<title>GameObject</title>
<!-- Node1 -->
<g id="Node000001" class="node">
<title>Node1</title>
<g id="a_Node000001"><a xlink:title=" ">
<polygon fill="#999999" stroke="#666666" points="113.75,-76 43,-76 43,-56 113.75,-56 113.75,-76"/>
<text text-anchor="middle" x="78.38" y="-62.5" font-family="Helvetica,sans-Serif" font-size="10.00">GameObject</text>
</a>
</g>
</g>
<!-- Node2 -->
<g id="Node000002" class="node">
<title>Node2</title>
<g id="a_Node000002"><a xlink:href="class_character.html" target="_top" xlink:title=" ">
<polygon fill="white" stroke="#666666" points="58.75,-20 0,-20 0,0 58.75,0 58.75,-20"/>
<text text-anchor="middle" x="29.38" y="-6.5" font-family="Helvetica,sans-Serif" font-size="10.00">Character</text>
</a>
</g>
</g>
<!-- Node1&#45;&gt;Node2 -->
<g id="edge1_Node000001_Node000002" class="edge">
<title>Node1&#45;&gt;Node2</title>
<g id="a_edge1_Node000001_Node000002"><a xlink:title=" ">
<path fill="none" stroke="#63b8ff" d="M62.3,-47.29C54.13,-38.28 44.53,-27.7 37.81,-20.3"/>
<polygon fill="#63b8ff" stroke="#63b8ff" points="59.51,-49.42 68.82,-54.47 64.69,-44.72 59.51,-49.42"/>
</a>
</g>
</g>
<!-- Node3 -->
<g id="Node000003" class="node">
<title>Node3</title>
<g id="a_Node000003"><a xlink:href="class_snow_flake_manager.html" target="_top" xlink:title=" ">
<polygon fill="white" stroke="#666666" points="179.5,-20 77.25,-20 77.25,0 179.5,0 179.5,-20"/>
<text text-anchor="middle" x="128.38" y="-6.5" font-family="Helvetica,sans-Serif" font-size="10.00">SnowFlakeManager</text>
</a>
</g>
</g>
<!-- Node1&#45;&gt;Node3 -->
<g id="edge2_Node000001_Node000003" class="edge">
<title>Node1&#45;&gt;Node3</title>
<g id="a_edge2_Node000001_Node000003"><a xlink:title=" ">
<path fill="none" stroke="#63b8ff" d="M94.78,-47.29C103.12,-38.28 112.91,-27.7 119.77,-20.3"/>
<polygon fill="#63b8ff" stroke="#63b8ff" points="92.34,-44.77 88.11,-54.48 97.47,-49.52 92.34,-44.77"/>
</a>
</g>
</g>
</g>
</svg>
