<?xml version="1.0" encoding="UTF-8" standalone="no"?>
<!DOCTYPE svg PUBLIC "-//W3C//DTD SVG 1.1//EN"
 "http://www.w3.org/Graphics/SVG/1.1/DTD/svg11.dtd">
<!-- Generated by graphviz version 12.2.1 (20241206.2353)
 -->
<!-- Title: CogPlatform::CogPlatform Pages: 1 -->
<svg width="511pt" height="78pt"
 viewBox="0.00 0.00 510.50 78.00" xmlns="http://www.w3.org/2000/svg" xmlns:xlink="http://www.w3.org/1999/xlink">
<g id="graph0" class="graph" transform="scale(1 1) rotate(0) translate(4 74)">
<title>CogPlatform::CogPlatform</title>
<!-- Node1 -->
<g id="Node000001" class="node">
<title>Node1</title>
<g id="a_Node000001"><a xlink:title=" ">
<polygon fill="#999999" stroke="#666666" points="131.5,-42 0,-42 0,-22 131.5,-22 131.5,-42"/>
<text text-anchor="middle" x="65.75" y="-28.5" font-family="Helvetica,sans-Serif" font-size="10.00">CogPlatform::CogPlatform</text>
</a>
</g>
</g>
<!-- Node2 -->
<g id="Node000002" class="node">
<title>Node2</title>
<g id="a_Node000002"><a xlink:href="class_counted_item.html#a7a4f3ec5e121b459d51a818c9ed0e269" target="_top" xlink:title=" ">
<polygon fill="white" stroke="#666666" points="317,-70 181,-70 181,-38 317,-38 317,-70"/>
<text text-anchor="start" x="189" y="-56.5" font-family="Helvetica,sans-Serif" font-size="10.00">CountedItem&lt; CogPlatform</text>
<text text-anchor="middle" x="249" y="-44.5" font-family="Helvetica,sans-Serif" font-size="10.00"> &gt;::GetCount</text>
</a>
</g>
</g>
<!-- Node1&#45;&gt;Node2 -->
<g id="edge1_Node000001_Node000002" class="edge">
<title>Node1&#45;&gt;Node2</title>
<g id="a_edge1_Node000001_Node000002"><a xlink:title=" ">
<path fill="none" stroke="#63b8ff" d="M131.93,-39.91C144.05,-41.38 156.83,-42.93 169.31,-44.45"/>
<polygon fill="#63b8ff" stroke="#63b8ff" points="168.8,-47.91 179.15,-45.64 169.64,-40.96 168.8,-47.91"/>
</a>
</g>
</g>
<!-- Node4 -->
<g id="Node000004" class="node">
<title>Node4</title>
<g id="a_Node000004"><a xlink:href="class_interactable_item.html#a5e5b9c459514e29098aaff5e62761569" target="_top" xlink:title=" ">
<polygon fill="white" stroke="#666666" points="330.5,-20 167.5,-20 167.5,0 330.5,0 330.5,-20"/>
<text text-anchor="middle" x="249" y="-6.5" font-family="Helvetica,sans-Serif" font-size="10.00">InteractableItem::InteractableItem</text>
</a>
</g>
</g>
<!-- Node1&#45;&gt;Node4 -->
<g id="edge3_Node000001_Node000004" class="edge">
<title>Node1&#45;&gt;Node4</title>
<g id="a_edge3_Node000001_Node000004"><a xlink:title=" ">
<path fill="none" stroke="#63b8ff" d="M131.93,-24.09C139.72,-23.14 147.79,-22.16 155.88,-21.18"/>
<polygon fill="#63b8ff" stroke="#63b8ff" points="156.28,-24.66 165.79,-19.98 155.44,-17.71 156.28,-24.66"/>
</a>
</g>
</g>
<!-- Node3 -->
<g id="Node000003" class="node">
<title>Node3</title>
<g id="a_Node000003"><a xlink:href="class_counted_item.html#a379818e68b8231fbfad8c51cbf2add57" target="_top" xlink:title=" ">
<polygon fill="white" stroke="#666666" points="502.5,-70 366.5,-70 366.5,-38 502.5,-38 502.5,-70"/>
<text text-anchor="start" x="374.5" y="-56.5" font-family="Helvetica,sans-Serif" font-size="10.00">CountedItem&lt; CogPlatform</text>
<text text-anchor="middle" x="434.5" y="-44.5" font-family="Helvetica,sans-Serif" font-size="10.00"> &gt;::CountedItem</text>
</a>
</g>
</g>
<!-- Node2&#45;&gt;Node3 -->
<g id="edge2_Node000002_Node000003" class="edge">
<title>Node2&#45;&gt;Node3</title>
<g id="a_edge2_Node000002_Node000003"><a xlink:title=" ">
<path fill="none" stroke="#63b8ff" d="M317.29,-54C329.5,-54 342.34,-54 354.85,-54"/>
<polygon fill="#63b8ff" stroke="#63b8ff" points="354.71,-57.5 364.71,-54 354.71,-50.5 354.71,-57.5"/>
</a>
</g>
</g>
</g>
</svg>
