<?xml version="1.0" encoding="UTF-8" standalone="no"?>
<!DOCTYPE svg PUBLIC "-//W3C//DTD SVG 1.1//EN"
 "http://www.w3.org/Graphics/SVG/1.1/DTD/svg11.dtd">
<!-- Generated by graphviz version 12.2.1 (20241206.2353)
 -->
<!-- Title: CrumbleBlock::CrumbleBlock Pages: 1 -->
<svg width="334pt" height="142pt"
 viewBox="0.00 0.00 334.00 142.00" xmlns="http://www.w3.org/2000/svg" xmlns:xlink="http://www.w3.org/1999/xlink">
<g id="graph0" class="graph" transform="scale(1 1) rotate(0) translate(4 138)">
<title>CrumbleBlock::CrumbleBlock</title>
<!-- Node1 -->
<g id="Node000001" class="node">
<title>Node1</title>
<g id="a_Node000001"><a xlink:title=" ">
<polygon fill="#999999" stroke="#666666" points="326,-77 181,-77 181,-57 326,-57 326,-77"/>
<text text-anchor="middle" x="253.5" y="-63.5" font-family="Helvetica,sans-Serif" font-size="10.00">CrumbleBlock::CrumbleBlock</text>
</a>
</g>
</g>
<!-- Node2 -->
<g id="Node000002" class="node">
<title>Node2</title>
<g id="a_Node000002"><a xlink:href="class_crumble_block.html#a20b24ad8d5184de47efe80f01ba15c86" target="_top" xlink:title=" ">
<polygon fill="white" stroke="#666666" points="145,-134 0,-134 0,-114 145,-114 145,-134"/>
<text text-anchor="middle" x="72.5" y="-120.5" font-family="Helvetica,sans-Serif" font-size="10.00">CrumbleBlock::CrumbleBlock</text>
</a>
</g>
</g>
<!-- Node1&#45;&gt;Node2 -->
<g id="edge1_Node000001_Node000002" class="edge">
<title>Node1&#45;&gt;Node2</title>
<g id="a_edge1_Node000001_Node000002"><a xlink:title=" ">
<path fill="none" stroke="#63b8ff" d="M214.11,-81.41C193.71,-88.85 168.14,-97.85 145,-105 135.43,-107.96 125.05,-110.88 115.25,-113.51"/>
<polygon fill="#63b8ff" stroke="#63b8ff" points="215.26,-84.72 223.44,-77.98 212.85,-78.15 215.26,-84.72"/>
</a>
</g>
</g>
<!-- Node3 -->
<g id="Node000003" class="node">
<title>Node3</title>
<g id="a_Node000003"><a xlink:href="class_crumble_block.html#a0d59c8868da1bed798c4a4b9ac52c111" target="_top" xlink:title=" ">
<polygon fill="white" stroke="#666666" points="145,-96 0,-96 0,-76 145,-76 145,-96"/>
<text text-anchor="middle" x="72.5" y="-82.5" font-family="Helvetica,sans-Serif" font-size="10.00">CrumbleBlock::CrumbleBlock</text>
</a>
</g>
</g>
<!-- Node1&#45;&gt;Node3 -->
<g id="edge2_Node000001_Node000003" class="edge">
<title>Node1&#45;&gt;Node3</title>
<g id="a_edge2_Node000001_Node000003"><a xlink:title=" ">
<path fill="none" stroke="#63b8ff" d="M169.41,-75.82C161.35,-76.68 153.22,-77.54 145.29,-78.38"/>
<polygon fill="#63b8ff" stroke="#63b8ff" points="169.65,-79.31 179.22,-74.78 168.91,-72.35 169.65,-79.31"/>
</a>
</g>
</g>
<!-- Node4 -->
<g id="Node000004" class="node">
<title>Node4</title>
<g id="a_Node000004"><a xlink:href="class_crumble_block.html#ae2010e4176ee45a228c18c9911b800cd" target="_top" xlink:title=" ">
<polygon fill="white" stroke="#666666" points="134.88,-58 10.13,-58 10.13,-38 134.88,-38 134.88,-58"/>
<text text-anchor="middle" x="72.5" y="-44.5" font-family="Helvetica,sans-Serif" font-size="10.00">CrumbleBlock::operator=</text>
</a>
</g>
</g>
<!-- Node1&#45;&gt;Node4 -->
<g id="edge3_Node000001_Node000004" class="edge">
<title>Node1&#45;&gt;Node4</title>
<g id="a_edge3_Node000001_Node000004"><a xlink:title=" ">
<path fill="none" stroke="#63b8ff" d="M169.32,-58.17C157.83,-56.95 146.21,-55.72 135.21,-54.55"/>
<polygon fill="#63b8ff" stroke="#63b8ff" points="168.91,-61.65 179.22,-59.22 169.65,-54.69 168.91,-61.65"/>
</a>
</g>
</g>
<!-- Node5 -->
<g id="Node000005" class="node">
<title>Node5</title>
<g id="a_Node000005"><a xlink:href="class_crumble_block.html#ab7d71c39b2f8baf75ec72bddc2f45b41" target="_top" xlink:title=" ">
<polygon fill="white" stroke="#666666" points="134.88,-20 10.13,-20 10.13,0 134.88,0 134.88,-20"/>
<text text-anchor="middle" x="72.5" y="-6.5" font-family="Helvetica,sans-Serif" font-size="10.00">CrumbleBlock::operator=</text>
</a>
</g>
</g>
<!-- Node1&#45;&gt;Node5 -->
<g id="edge4_Node000001_Node000005" class="edge">
<title>Node1&#45;&gt;Node5</title>
<g id="a_edge4_Node000001_Node000005"><a xlink:title=" ">
<path fill="none" stroke="#63b8ff" d="M214.11,-52.59C193.71,-45.15 168.14,-36.15 145,-29 135.43,-26.04 125.05,-23.12 115.25,-20.49"/>
<polygon fill="#63b8ff" stroke="#63b8ff" points="212.85,-55.85 223.44,-56.02 215.26,-49.28 212.85,-55.85"/>
</a>
</g>
</g>
</g>
</svg>
