<?xml version="1.0" encoding="UTF-8" standalone="no"?>
<!DOCTYPE svg PUBLIC "-//W3C//DTD SVG 1.1//EN"
 "http://www.w3.org/Graphics/SVG/1.1/DTD/svg11.dtd">
<!-- Generated by graphviz version 12.2.1 (20241206.2353)
 -->
<!-- Title: SoundEffect::IsPlaying Pages: 1 -->
<svg width="386pt" height="28pt"
 viewBox="0.00 0.00 386.00 28.00" xmlns="http://www.w3.org/2000/svg" xmlns:xlink="http://www.w3.org/1999/xlink">
<g id="graph0" class="graph" transform="scale(1 1) rotate(0) translate(4 24)">
<title>SoundEffect::IsPlaying</title>
<!-- Node1 -->
<g id="Node000001" class="node">
<title>Node1</title>
<g id="a_Node000001"><a xlink:title=" ">
<polygon fill="#999999" stroke="#666666" points="378,-20 262.25,-20 262.25,0 378,0 378,-20"/>
<text text-anchor="middle" x="320.12" y="-6.5" font-family="Helvetica,sans-Serif" font-size="10.00">SoundEffect::IsPlaying</text>
</a>
</g>
</g>
<!-- Node2 -->
<g id="Node000002" class="node">
<title>Node2</title>
<g id="a_Node000002"><a xlink:href="class_sound_effect.html#a53dee3a0c954a9ad95dbc02e010ee111" target="_top" xlink:title=" ">
<polygon fill="white" stroke="#666666" points="226.25,-20 130.75,-20 130.75,0 226.25,0 226.25,-20"/>
<text text-anchor="middle" x="178.5" y="-6.5" font-family="Helvetica,sans-Serif" font-size="10.00">SoundEffect::Stop</text>
</a>
</g>
</g>
<!-- Node1&#45;&gt;Node2 -->
<g id="edge1_Node000001_Node000002" class="edge">
<title>Node1&#45;&gt;Node2</title>
<g id="a_edge1_Node000001_Node000002"><a xlink:title=" ">
<path fill="none" stroke="#63b8ff" d="M250.54,-10C242.43,-10 234.31,-10 226.6,-10"/>
<polygon fill="#63b8ff" stroke="#63b8ff" points="250.42,-13.5 260.42,-10 250.42,-6.5 250.42,-13.5"/>
</a>
</g>
</g>
<!-- Node3 -->
<g id="Node000003" class="node">
<title>Node3</title>
<g id="a_Node000003"><a xlink:href="class_sound_effect.html#adf1e766977a93fa11e4193b0921b4f2a" target="_top" xlink:title=" ">
<polygon fill="white" stroke="#666666" points="94.75,-20 0,-20 0,0 94.75,0 94.75,-20"/>
<text text-anchor="middle" x="47.38" y="-6.5" font-family="Helvetica,sans-Serif" font-size="10.00">SoundEffect::Play</text>
</a>
</g>
</g>
<!-- Node2&#45;&gt;Node3 -->
<g id="edge2_Node000002_Node000003" class="edge">
<title>Node2&#45;&gt;Node3</title>
<g id="a_edge2_Node000002_Node000003"><a xlink:title=" ">
<path fill="none" stroke="#63b8ff" d="M119.23,-10C111.15,-10 102.94,-10 95.11,-10"/>
<polygon fill="#63b8ff" stroke="#63b8ff" points="119,-13.5 129,-10 119,-6.5 119,-13.5"/>
</a>
</g>
</g>
</g>
</svg>
