<?xml version="1.0" encoding="UTF-8" standalone="no"?>
<!DOCTYPE svg PUBLIC "-//W3C//DTD SVG 1.1//EN"
 "http://www.w3.org/Graphics/SVG/1.1/DTD/svg11.dtd">
<!-- Generated by graphviz version 12.2.1 (20241206.2353)
 -->
<!-- Title: MenuItem::Draw Pages: 1 -->
<svg width="210pt" height="46pt"
 viewBox="0.00 0.00 210.25 46.00" xmlns="http://www.w3.org/2000/svg" xmlns:xlink="http://www.w3.org/1999/xlink">
<g id="graph0" class="graph" transform="scale(1 1) rotate(0) translate(4 42)">
<title>MenuItem::Draw</title>
<!-- Node1 -->
<g id="Node000001" class="node">
<title>Node1</title>
<g id="a_Node000001"><a xlink:title=" ">
<polygon fill="#999999" stroke="#666666" points="88.75,-20 0,-20 0,0 88.75,0 88.75,-20"/>
<text text-anchor="middle" x="44.38" y="-6.5" font-family="Helvetica,sans-Serif" font-size="10.00">MenuItem::Draw</text>
</a>
</g>
</g>
<!-- Node2 -->
<g id="Node000002" class="node">
<title>Node2</title>
<g id="a_Node000002"><a xlink:href="class_texture.html#a7b647d8063384d6f94375245f6139ee9" target="_top" xlink:title=" ">
<polygon fill="white" stroke="#666666" points="202.25,-20 124.75,-20 124.75,0 202.25,0 202.25,-20"/>
<text text-anchor="middle" x="163.5" y="-6.5" font-family="Helvetica,sans-Serif" font-size="10.00">Texture::Draw</text>
</a>
</g>
</g>
<!-- Node1&#45;&gt;Node2 -->
<g id="edge1_Node000001_Node000002" class="edge">
<title>Node1&#45;&gt;Node2</title>
<g id="a_edge1_Node000001_Node000002"><a xlink:title=" ">
<path fill="none" stroke="#63b8ff" d="M88.99,-10C96.85,-10 105.11,-10 113.12,-10"/>
<polygon fill="#63b8ff" stroke="#63b8ff" points="113.11,-13.5 123.11,-10 113.11,-6.5 113.11,-13.5"/>
</a>
</g>
</g>
<!-- Node2&#45;&gt;Node2 -->
<g id="edge2_Node000002_Node000002" class="edge">
<title>Node2&#45;&gt;Node2</title>
<g id="a_edge2_Node000002_Node000002"><a xlink:title=" ">
<path fill="none" stroke="#63b8ff" d="M144.57,-20.34C136.48,-28.98 142.79,-38 163.5,-38 174.82,-38 181.84,-35.3 184.55,-31.44"/>
<polygon fill="#63b8ff" stroke="#63b8ff" points="188.03,-30.99 182.71,-21.83 181.16,-32.31 188.03,-30.99"/>
</a>
</g>
</g>
</g>
</svg>
