<?xml version="1.0" encoding="UTF-8" standalone="no"?>
<!DOCTYPE svg PUBLIC "-//W3C//DTD SVG 1.1//EN"
 "http://www.w3.org/Graphics/SVG/1.1/DTD/svg11.dtd">
<!-- Generated by graphviz version 12.2.1 (20241206.2353)
 -->
<!-- Title: CrumbleBlock::PlayerInteraction Pages: 1 -->
<svg width="759pt" height="94pt"
 viewBox="0.00 0.00 758.50 94.00" xmlns="http://www.w3.org/2000/svg" xmlns:xlink="http://www.w3.org/1999/xlink">
<g id="graph0" class="graph" transform="scale(1 1) rotate(0) translate(4 90)">
<title>CrumbleBlock::PlayerInteraction</title>
<!-- Node1 -->
<g id="Node000001" class="node">
<title>Node1</title>
<g id="a_Node000001"><a xlink:title=" ">
<polygon fill="#999999" stroke="#666666" points="157,-67 0,-67 0,-47 157,-47 157,-67"/>
<text text-anchor="middle" x="78.5" y="-53.5" font-family="Helvetica,sans-Serif" font-size="10.00">CrumbleBlock::PlayerInteraction</text>
</a>
</g>
</g>
<!-- Node2 -->
<g id="Node000002" class="node">
<title>Node2</title>
<g id="a_Node000002"><a xlink:href="class_character.html#a0b790800d6ff90eebee18bce25177fce" target="_top" xlink:title=" ">
<polygon fill="white" stroke="#666666" points="303.5,-86 193,-86 193,-66 303.5,-66 303.5,-86"/>
<text text-anchor="middle" x="248.25" y="-72.5" font-family="Helvetica,sans-Serif" font-size="10.00">Character::GetHitBox</text>
</a>
</g>
</g>
<!-- Node1&#45;&gt;Node2 -->
<g id="edge1_Node000001_Node000002" class="edge">
<title>Node1&#45;&gt;Node2</title>
<g id="a_edge1_Node000001_Node000002"><a xlink:title=" ">
<path fill="none" stroke="#63b8ff" d="M157.48,-65.83C165.53,-66.74 173.65,-67.66 181.55,-68.56"/>
<polygon fill="#63b8ff" stroke="#63b8ff" points="181.08,-72.03 191.41,-69.68 181.87,-65.07 181.08,-72.03"/>
</a>
</g>
</g>
<!-- Node3 -->
<g id="Node000003" class="node">
<title>Node3</title>
<g id="a_Node000003"><a xlink:href="namespaceutils.html#a11a0eb68e467a22aed74f507057c39ed" target="_top" xlink:title=" ">
<polygon fill="white" stroke="#666666" points="298.25,-48 198.25,-48 198.25,-28 298.25,-28 298.25,-48"/>
<text text-anchor="middle" x="248.25" y="-34.5" font-family="Helvetica,sans-Serif" font-size="10.00">utils::IsOverlapping</text>
</a>
</g>
</g>
<!-- Node1&#45;&gt;Node3 -->
<g id="edge2_Node000001_Node000003" class="edge">
<title>Node1&#45;&gt;Node3</title>
<g id="a_edge2_Node000001_Node000003"><a xlink:title=" ">
<path fill="none" stroke="#63b8ff" d="M157.48,-48.17C167.34,-47.05 177.3,-45.92 186.82,-44.84"/>
<polygon fill="#63b8ff" stroke="#63b8ff" points="187.14,-48.33 196.68,-43.73 186.35,-41.38 187.14,-48.33"/>
</a>
</g>
</g>
<!-- Node4 -->
<g id="Node000004" class="node">
<title>Node4</title>
<g id="a_Node000004"><a xlink:href="namespaceutils.html#a760075559e6ab59c1daec763fab2b488" target="_top" xlink:title=" ">
<polygon fill="white" stroke="#666666" points="477,-48 339.5,-48 339.5,-28 477,-28 477,-48"/>
<text text-anchor="middle" x="408.25" y="-34.5" font-family="Helvetica,sans-Serif" font-size="10.00">utils::DistPointLineSegment</text>
</a>
</g>
</g>
<!-- Node3&#45;&gt;Node4 -->
<g id="edge3_Node000003_Node000004" class="edge">
<title>Node3&#45;&gt;Node4</title>
<g id="a_edge3_Node000003_Node000004"><a xlink:title=" ">
<path fill="none" stroke="#63b8ff" d="M298.38,-38C307.72,-38 317.72,-38 327.73,-38"/>
<polygon fill="#63b8ff" stroke="#63b8ff" points="327.49,-41.5 337.49,-38 327.49,-34.5 327.49,-41.5"/>
</a>
</g>
</g>
<!-- Node5 -->
<g id="Node000005" class="node">
<title>Node5</title>
<g id="a_Node000005"><a xlink:href="struct_vector2f.html#af8ceb9310d7065eb485e47b072a5b143" target="_top" xlink:title=" ">
<polygon fill="white" stroke="#666666" points="620.5,-86 513,-86 513,-66 620.5,-66 620.5,-86"/>
<text text-anchor="middle" x="566.75" y="-72.5" font-family="Helvetica,sans-Serif" font-size="10.00">Vector2f::DotProduct</text>
</a>
</g>
</g>
<!-- Node4&#45;&gt;Node5 -->
<g id="edge4_Node000004_Node000005" class="edge">
<title>Node4&#45;&gt;Node5</title>
<g id="a_edge4_Node000004_Node000005"><a xlink:title=" ">
<path fill="none" stroke="#63b8ff" d="M452.43,-48.48C470.73,-52.93 492.26,-58.16 511.61,-62.85"/>
<polygon fill="#63b8ff" stroke="#63b8ff" points="510.7,-66.23 521.24,-65.19 512.35,-59.43 510.7,-66.23"/>
</a>
</g>
</g>
<!-- Node7 -->
<g id="Node000007" class="node">
<title>Node7</title>
<g id="a_Node000007"><a xlink:href="struct_vector2f.html#acedb20d25ccc3009546e120eda010bf5" target="_top" xlink:title=" ">
<polygon fill="white" stroke="#666666" points="747.12,-20 659.88,-20 659.88,0 747.12,0 747.12,-20"/>
<text text-anchor="middle" x="703.5" y="-6.5" font-family="Helvetica,sans-Serif" font-size="10.00">Vector2f::Length</text>
</a>
</g>
</g>
<!-- Node4&#45;&gt;Node7 -->
<g id="edge7_Node000004_Node000007" class="edge">
<title>Node4&#45;&gt;Node7</title>
<g id="a_edge7_Node000004_Node000007"><a xlink:title=" ">
<path fill="none" stroke="#63b8ff" d="M458.92,-27.51C475.99,-24.28 495.26,-21.04 513,-19 558.37,-13.79 610.18,-11.59 648.15,-10.66"/>
<polygon fill="#63b8ff" stroke="#63b8ff" points="648.04,-14.16 657.96,-10.44 647.88,-7.16 648.04,-14.16"/>
</a>
</g>
</g>
<!-- Node8 -->
<g id="Node000008" class="node">
<title>Node8</title>
<g id="a_Node000008"><a xlink:href="struct_vector2f.html#aba5dd756c385551a19d36b57d8cbf629" target="_top" xlink:title=" ">
<polygon fill="white" stroke="#666666" points="620.5,-48 513,-48 513,-28 620.5,-28 620.5,-48"/>
<text text-anchor="middle" x="566.75" y="-34.5" font-family="Helvetica,sans-Serif" font-size="10.00">Vector2f::Normalized</text>
</a>
</g>
</g>
<!-- Node4&#45;&gt;Node8 -->
<g id="edge8_Node000004_Node000008" class="edge">
<title>Node4&#45;&gt;Node8</title>
<g id="a_edge8_Node000004_Node000008"><a xlink:title=" ">
<path fill="none" stroke="#63b8ff" d="M477.44,-38C485.41,-38 493.52,-38 501.43,-38"/>
<polygon fill="#63b8ff" stroke="#63b8ff" points="501.33,-41.5 511.33,-38 501.33,-34.5 501.33,-41.5"/>
</a>
</g>
</g>
<!-- Node6 -->
<g id="Node000006" class="node">
<title>Node6</title>
<g id="a_Node000006"><a xlink:href="struct_vector2f.html#a3db9a868c58bc809e5e09a88d65a77ec" target="_top" xlink:title=" ">
<polygon fill="white" stroke="#666666" points="750.5,-67 656.5,-67 656.5,-47 750.5,-47 750.5,-67"/>
<text text-anchor="middle" x="703.5" y="-53.5" font-family="Helvetica,sans-Serif" font-size="10.00">Vector2f::Vector2f</text>
</a>
</g>
</g>
<!-- Node5&#45;&gt;Node6 -->
<g id="edge5_Node000005_Node000006" class="edge">
<title>Node5&#45;&gt;Node6</title>
<g id="a_edge5_Node000005_Node000006"><a xlink:title=" ">
<path fill="none" stroke="#63b8ff" d="M620.62,-68.55C628.64,-67.41 636.94,-66.24 645.05,-65.1"/>
<polygon fill="#63b8ff" stroke="#63b8ff" points="645.43,-68.58 654.84,-63.72 644.45,-61.65 645.43,-68.58"/>
</a>
</g>
</g>
<!-- Node6&#45;&gt;Node6 -->
<g id="edge6_Node000006_Node000006" class="edge">
<title>Node6&#45;&gt;Node6</title>
<g id="a_edge6_Node000006_Node000006"><a xlink:title=" ">
<path fill="none" stroke="#63b8ff" d="M681.77,-67.34C672.49,-75.98 679.73,-85 703.5,-85 716.5,-85 724.56,-82.3 727.67,-78.44"/>
<polygon fill="#63b8ff" stroke="#63b8ff" points="731.12,-77.83 725.55,-68.82 724.28,-79.34 731.12,-77.83"/>
</a>
</g>
</g>
<!-- Node8&#45;&gt;Node6 -->
<g id="edge10_Node000008_Node000006" class="edge">
<title>Node8&#45;&gt;Node6</title>
<g id="a_edge10_Node000008_Node000006"><a xlink:title=" ">
<path fill="none" stroke="#63b8ff" d="M620.62,-45.45C628.64,-46.59 636.94,-47.76 645.05,-48.9"/>
<polygon fill="#63b8ff" stroke="#63b8ff" points="644.45,-52.35 654.84,-50.28 645.43,-45.42 644.45,-52.35"/>
</a>
</g>
</g>
<!-- Node8&#45;&gt;Node7 -->
<g id="edge9_Node000008_Node000007" class="edge">
<title>Node8&#45;&gt;Node7</title>
<g id="a_edge9_Node000008_Node000007"><a xlink:title=" ">
<path fill="none" stroke="#63b8ff" d="M617.93,-27.57C627.93,-25.5 638.47,-23.3 648.6,-21.2"/>
<polygon fill="#63b8ff" stroke="#63b8ff" points="649.23,-24.64 658.31,-19.18 647.81,-17.79 649.23,-24.64"/>
</a>
</g>
</g>
</g>
</svg>
