<?xml version="1.0" encoding="UTF-8" standalone="no"?>
<!DOCTYPE svg PUBLIC "-//W3C//DTD SVG 1.1//EN"
 "http://www.w3.org/Graphics/SVG/1.1/DTD/svg11.dtd">
<!-- Generated by graphviz version 12.2.1 (20241206.2353)
 -->
<!-- Title: InteractableItem::InteractableItem Pages: 1 -->
<svg width="551pt" height="895pt"
 viewBox="0.00 0.00 551.00 895.00" xmlns="http://www.w3.org/2000/svg" xmlns:xlink="http://www.w3.org/1999/xlink">
<g id="graph0" class="graph" transform="scale(1 1) rotate(0) translate(4 891)">
<title>InteractableItem::InteractableItem</title>
<!-- Node1 -->
<g id="Node000001" class="node">
<title>Node1</title>
<g id="a_Node000001"><a xlink:title=" ">
<polygon fill="#999999" stroke="#666666" points="543,-336 380,-336 380,-316 543,-316 543,-336"/>
<text text-anchor="middle" x="461.5" y="-322.5" font-family="Helvetica,sans-Serif" font-size="10.00">InteractableItem::InteractableItem</text>
</a>
</g>
</g>
<!-- Node2 -->
<g id="Node000002" class="node">
<title>Node2</title>
<g id="a_Node000002"><a xlink:href="class_cog_platform.html#aa8ddb28be91c8e5887864a9a7df629e1" target="_top" xlink:title=" ">
<polygon fill="white" stroke="#666666" points="328.25,-811 196.75,-811 196.75,-791 328.25,-791 328.25,-811"/>
<text text-anchor="middle" x="262.5" y="-797.5" font-family="Helvetica,sans-Serif" font-size="10.00">CogPlatform::CogPlatform</text>
</a>
</g>
</g>
<!-- Node1&#45;&gt;Node2 -->
<g id="edge1_Node000001_Node000002" class="edge">
<title>Node1&#45;&gt;Node2</title>
<g id="a_edge1_Node000001_Node000002"><a xlink:title=" ">
<path fill="none" stroke="#63b8ff" d="M454.95,-347.41C440.37,-402.22 398.35,-551.44 344,-668 321.53,-716.19 285.97,-768.97 270.78,-790.74"/>
<polygon fill="#63b8ff" stroke="#63b8ff" points="458.3,-348.41 457.46,-337.85 451.53,-346.63 458.3,-348.41"/>
</a>
</g>
</g>
<!-- Node7 -->
<g id="Node000007" class="node">
<title>Node7</title>
<g id="a_Node000007"><a xlink:href="class_crumble_block.html#aaebd22fd4ac1c8821cfb74f7461edb4d" target="_top" xlink:title=" ">
<polygon fill="white" stroke="#666666" points="335,-659 190,-659 190,-639 335,-639 335,-659"/>
<text text-anchor="middle" x="262.5" y="-645.5" font-family="Helvetica,sans-Serif" font-size="10.00">CrumbleBlock::CrumbleBlock</text>
</a>
</g>
</g>
<!-- Node1&#45;&gt;Node7 -->
<g id="edge6_Node000001_Node000007" class="edge">
<title>Node1&#45;&gt;Node7</title>
<g id="a_edge6_Node000001_Node000007"><a xlink:title=" ">
<path fill="none" stroke="#63b8ff" d="M453.52,-347.28C438.26,-391.9 398.83,-497.39 344,-573 324.48,-599.92 294.58,-625.16 277.24,-638.7"/>
<polygon fill="#63b8ff" stroke="#63b8ff" points="456.83,-348.41 456.7,-337.81 450.2,-346.18 456.83,-348.41"/>
</a>
</g>
</g>
<!-- Node12 -->
<g id="Node000012" class="node">
<title>Node12</title>
<g id="a_Node000012"><a xlink:href="class_dash_crystal.html#a374494580df528b1eed16b39dd79ff93" target="_top" xlink:title=" ">
<polygon fill="white" stroke="#666666" points="328.25,-564 196.75,-564 196.75,-544 328.25,-544 328.25,-564"/>
<text text-anchor="middle" x="262.5" y="-550.5" font-family="Helvetica,sans-Serif" font-size="10.00">DashCrystal::DashCrystal</text>
</a>
</g>
</g>
<!-- Node1&#45;&gt;Node12 -->
<g id="edge11_Node000001_Node000012" class="edge">
<title>Node1&#45;&gt;Node12</title>
<g id="a_edge11_Node000001_Node000012"><a xlink:title=" ">
<path fill="none" stroke="#63b8ff" d="M454.95,-347.18C442.63,-389.79 408.86,-486 344,-535 339.3,-538.55 334.04,-541.45 328.53,-543.82"/>
<polygon fill="#63b8ff" stroke="#63b8ff" points="458.28,-348.25 457.57,-337.68 451.53,-346.39 458.28,-348.25"/>
</a>
</g>
</g>
<!-- Node17 -->
<g id="Node000017" class="node">
<title>Node17</title>
<g id="a_Node000017"><a xlink:href="class_interactable_item.html#a9124be31fe21f1cbe122579dde8f9252" target="_top" xlink:title=" ">
<polygon fill="white" stroke="#666666" points="344,-526 181,-526 181,-506 344,-506 344,-526"/>
<text text-anchor="middle" x="262.5" y="-512.5" font-family="Helvetica,sans-Serif" font-size="10.00">InteractableItem::InteractableItem</text>
</a>
</g>
</g>
<!-- Node1&#45;&gt;Node17 -->
<g id="edge16_Node000001_Node000017" class="edge">
<title>Node1&#45;&gt;Node17</title>
<g id="a_edge16_Node000001_Node000017"><a xlink:title=" ">
<path fill="none" stroke="#63b8ff" d="M452.35,-346.82C436.98,-383.27 400.09,-458.44 344,-497 339.03,-500.42 333.52,-503.22 327.79,-505.53"/>
<polygon fill="#63b8ff" stroke="#63b8ff" points="455.48,-348.42 456.02,-337.84 449,-345.78 455.48,-348.42"/>
</a>
</g>
</g>
<!-- Node18 -->
<g id="Node000018" class="node">
<title>Node18</title>
<g id="a_Node000018"><a xlink:href="class_interactable_item.html#a5a6b7071c26aea54f770dcddea4d4673" target="_top" xlink:title=" ">
<polygon fill="white" stroke="#666666" points="344,-488 181,-488 181,-468 344,-468 344,-488"/>
<text text-anchor="middle" x="262.5" y="-474.5" font-family="Helvetica,sans-Serif" font-size="10.00">InteractableItem::InteractableItem</text>
</a>
</g>
</g>
<!-- Node1&#45;&gt;Node18 -->
<g id="edge17_Node000001_Node000018" class="edge">
<title>Node1&#45;&gt;Node18</title>
<g id="a_edge17_Node000001_Node000018"><a xlink:title=" ">
<path fill="none" stroke="#63b8ff" d="M448.83,-345.85C430.43,-375.32 391.79,-430.25 344,-459 338.22,-462.48 331.84,-465.32 325.29,-467.64"/>
<polygon fill="#63b8ff" stroke="#63b8ff" points="451.68,-347.89 453.89,-337.53 445.7,-344.26 451.68,-347.89"/>
</a>
</g>
</g>
<!-- Node19 -->
<g id="Node000019" class="node">
<title>Node19</title>
<g id="a_Node000019"><a xlink:href="class_interactable_item.html#a6bdd4d54f5965b13c2e68617c7321eb7" target="_top" xlink:title=" ">
<polygon fill="white" stroke="#666666" points="344,-450 181,-450 181,-430 344,-430 344,-450"/>
<text text-anchor="middle" x="262.5" y="-436.5" font-family="Helvetica,sans-Serif" font-size="10.00">InteractableItem::InteractableItem</text>
</a>
</g>
</g>
<!-- Node1&#45;&gt;Node19 -->
<g id="edge18_Node000001_Node000019" class="edge">
<title>Node1&#45;&gt;Node19</title>
<g id="a_edge18_Node000001_Node000019"><a xlink:title=" ">
<path fill="none" stroke="#63b8ff" d="M443.22,-344.46C421.94,-366.08 383.71,-401.43 344,-421 337.04,-424.43 329.44,-427.26 321.77,-429.58"/>
<polygon fill="#63b8ff" stroke="#63b8ff" points="445.54,-347.1 449.96,-337.47 440.5,-342.24 445.54,-347.1"/>
</a>
</g>
</g>
<!-- Node20 -->
<g id="Node000020" class="node">
<title>Node20</title>
<g id="a_Node000020"><a xlink:href="class_interactable_item.html#ae94edc84b2ceb14edb952a3edb676772" target="_top" xlink:title=" ">
<polygon fill="white" stroke="#666666" points="344,-412 181,-412 181,-392 344,-392 344,-412"/>
<text text-anchor="middle" x="262.5" y="-398.5" font-family="Helvetica,sans-Serif" font-size="10.00">InteractableItem::InteractableItem</text>
</a>
</g>
</g>
<!-- Node1&#45;&gt;Node20 -->
<g id="edge19_Node000001_Node000020" class="edge">
<title>Node1&#45;&gt;Node20</title>
<g id="a_edge19_Node000001_Node000020"><a xlink:title=" ">
<path fill="none" stroke="#63b8ff" d="M432.68,-341.81C409.55,-354.41 375.44,-371.76 344,-383 334.94,-386.24 325.11,-389.08 315.53,-391.52"/>
<polygon fill="#63b8ff" stroke="#63b8ff" points="434.1,-345.02 441.16,-337.12 430.72,-338.9 434.1,-345.02"/>
</a>
</g>
</g>
<!-- Node21 -->
<g id="Node000021" class="node">
<title>Node21</title>
<g id="a_Node000021"><a xlink:href="class_level.html#a41cd15dc51bc40c3edacf0afaa14cf25" target="_top" xlink:title=" ">
<polygon fill="white" stroke="#666666" points="296.75,-374 228.25,-374 228.25,-354 296.75,-354 296.75,-374"/>
<text text-anchor="middle" x="262.5" y="-360.5" font-family="Helvetica,sans-Serif" font-size="10.00">Level::Level</text>
</a>
</g>
</g>
<!-- Node1&#45;&gt;Node21 -->
<g id="edge20_Node000001_Node000021" class="edge">
<title>Node1&#45;&gt;Node21</title>
<g id="a_edge20_Node000001_Node000021"><a xlink:title=" ">
<path fill="none" stroke="#63b8ff" d="M395.23,-338.59C362.33,-344.94 323.83,-352.36 296.98,-357.54"/>
<polygon fill="#63b8ff" stroke="#63b8ff" points="395.51,-342.1 404.66,-336.77 394.18,-335.23 395.51,-342.1"/>
</a>
</g>
</g>
<!-- Node22 -->
<g id="Node000022" class="node">
<title>Node22</title>
<g id="a_Node000022"><a xlink:href="class_level.html#a07851c4b8fa8c0cf72f6b4b6144591b5" target="_top" xlink:title=" ">
<polygon fill="white" stroke="#666666" points="296.75,-336 228.25,-336 228.25,-316 296.75,-316 296.75,-336"/>
<text text-anchor="middle" x="262.5" y="-322.5" font-family="Helvetica,sans-Serif" font-size="10.00">Level::Level</text>
</a>
</g>
</g>
<!-- Node1&#45;&gt;Node22 -->
<g id="edge21_Node000001_Node000022" class="edge">
<title>Node1&#45;&gt;Node22</title>
<g id="a_edge21_Node000001_Node000022"><a xlink:title=" ">
<path fill="none" stroke="#63b8ff" d="M368.28,-326C342.81,-326 316.79,-326 297.05,-326"/>
<polygon fill="#63b8ff" stroke="#63b8ff" points="368.01,-329.5 378.01,-326 368.01,-322.5 368.01,-329.5"/>
</a>
</g>
</g>
<!-- Node23 -->
<g id="Node000023" class="node">
<title>Node23</title>
<g id="a_Node000023"><a xlink:href="class_interactable_item.html#a67139551064d009752d97e2e77ef865f" target="_top" xlink:title=" ">
<polygon fill="white" stroke="#666666" points="329.38,-298 195.62,-298 195.62,-278 329.38,-278 329.38,-298"/>
<text text-anchor="middle" x="262.5" y="-284.5" font-family="Helvetica,sans-Serif" font-size="10.00">InteractableItem::operator=</text>
</a>
</g>
</g>
<!-- Node1&#45;&gt;Node23 -->
<g id="edge22_Node000001_Node000023" class="edge">
<title>Node1&#45;&gt;Node23</title>
<g id="a_edge22_Node000001_Node000023"><a xlink:title=" ">
<path fill="none" stroke="#63b8ff" d="M394.89,-313.34C369.82,-308.51 341.55,-303.06 317.68,-298.45"/>
<polygon fill="#63b8ff" stroke="#63b8ff" points="394.18,-316.77 404.66,-315.23 395.51,-309.9 394.18,-316.77"/>
</a>
</g>
</g>
<!-- Node24 -->
<g id="Node000024" class="node">
<title>Node24</title>
<g id="a_Node000024"><a xlink:href="class_interactable_item.html#a4d5baa6774ebb9137c08921d3c421d09" target="_top" xlink:title=" ">
<polygon fill="white" stroke="#666666" points="329.38,-260 195.62,-260 195.62,-240 329.38,-240 329.38,-260"/>
<text text-anchor="middle" x="262.5" y="-246.5" font-family="Helvetica,sans-Serif" font-size="10.00">InteractableItem::operator=</text>
</a>
</g>
</g>
<!-- Node1&#45;&gt;Node24 -->
<g id="edge23_Node000001_Node000024" class="edge">
<title>Node1&#45;&gt;Node24</title>
<g id="a_edge23_Node000001_Node000024"><a xlink:title=" ">
<path fill="none" stroke="#63b8ff" d="M432.68,-310.19C409.55,-297.59 375.44,-280.24 344,-269 334.94,-265.76 325.11,-262.92 315.53,-260.48"/>
<polygon fill="#63b8ff" stroke="#63b8ff" points="430.72,-313.1 441.16,-314.88 434.1,-306.98 430.72,-313.1"/>
</a>
</g>
</g>
<!-- Node25 -->
<g id="Node000025" class="node">
<title>Node25</title>
<g id="a_Node000025"><a xlink:href="class_respawn_zone.html#a151582924ebad3e69266a852bc5daf1c" target="_top" xlink:title=" ">
<polygon fill="white" stroke="#666666" points="336.5,-222 188.5,-222 188.5,-202 336.5,-202 336.5,-222"/>
<text text-anchor="middle" x="262.5" y="-208.5" font-family="Helvetica,sans-Serif" font-size="10.00">RespawnZone::RespawnZone</text>
</a>
</g>
</g>
<!-- Node1&#45;&gt;Node25 -->
<g id="edge24_Node000001_Node000025" class="edge">
<title>Node1&#45;&gt;Node25</title>
<g id="a_edge24_Node000001_Node000025"><a xlink:title=" ">
<path fill="none" stroke="#63b8ff" d="M443.22,-307.54C421.94,-285.92 383.71,-250.57 344,-231 337.04,-227.57 329.44,-224.74 321.77,-222.42"/>
<polygon fill="#63b8ff" stroke="#63b8ff" points="440.5,-309.76 449.96,-314.53 445.54,-304.9 440.5,-309.76"/>
</a>
</g>
</g>
<!-- Node26 -->
<g id="Node000026" class="node">
<title>Node26</title>
<g id="a_Node000026"><a xlink:href="class_spike.html#ac71500ab002ac549b53af7c86cc51a7f" target="_top" xlink:title=" ">
<polygon fill="white" stroke="#666666" points="298.25,-184 226.75,-184 226.75,-164 298.25,-164 298.25,-184"/>
<text text-anchor="middle" x="262.5" y="-170.5" font-family="Helvetica,sans-Serif" font-size="10.00">Spike::Spike</text>
</a>
</g>
</g>
<!-- Node1&#45;&gt;Node26 -->
<g id="edge25_Node000001_Node000026" class="edge">
<title>Node1&#45;&gt;Node26</title>
<g id="a_edge25_Node000001_Node000026"><a xlink:title=" ">
<path fill="none" stroke="#63b8ff" d="M448.83,-306.15C430.43,-276.68 391.79,-221.75 344,-193 330.34,-184.78 313.39,-180.12 298.58,-177.47"/>
<polygon fill="#63b8ff" stroke="#63b8ff" points="445.7,-307.74 453.89,-314.47 451.68,-304.11 445.7,-307.74"/>
</a>
</g>
</g>
<!-- Node27 -->
<g id="Node000027" class="node">
<title>Node27</title>
<g id="a_Node000027"><a xlink:href="class_spike.html#abf50144f8f5f44e5ebf2c4fb77a55c3e" target="_top" xlink:title=" ">
<polygon fill="white" stroke="#666666" points="298.25,-146 226.75,-146 226.75,-126 298.25,-126 298.25,-146"/>
<text text-anchor="middle" x="262.5" y="-132.5" font-family="Helvetica,sans-Serif" font-size="10.00">Spike::Spike</text>
</a>
</g>
</g>
<!-- Node1&#45;&gt;Node27 -->
<g id="edge26_Node000001_Node000027" class="edge">
<title>Node1&#45;&gt;Node27</title>
<g id="a_edge26_Node000001_Node000027"><a xlink:title=" ">
<path fill="none" stroke="#63b8ff" d="M452.35,-305.18C436.98,-268.73 400.09,-193.56 344,-155 330.75,-145.89 313.68,-141.11 298.68,-138.62"/>
<polygon fill="#63b8ff" stroke="#63b8ff" points="449,-306.22 456.02,-314.16 455.48,-303.58 449,-306.22"/>
</a>
</g>
</g>
<!-- Node28 -->
<g id="Node000028" class="node">
<title>Node28</title>
<g id="a_Node000028"><a xlink:href="class_strawberry.html#a26f3bcf7ad758cb9ffe408a6d65a8cb3" target="_top" xlink:title=" ">
<polygon fill="white" stroke="#666666" points="320.75,-108 204.25,-108 204.25,-88 320.75,-88 320.75,-108"/>
<text text-anchor="middle" x="262.5" y="-94.5" font-family="Helvetica,sans-Serif" font-size="10.00">Strawberry::Strawberry</text>
</a>
</g>
</g>
<!-- Node1&#45;&gt;Node28 -->
<g id="edge27_Node000001_Node000028" class="edge">
<title>Node1&#45;&gt;Node28</title>
<g id="a_edge27_Node000001_Node000028"><a xlink:title=" ">
<path fill="none" stroke="#63b8ff" d="M454.95,-304.82C442.63,-262.21 408.86,-166 344,-117 337.24,-111.89 329.32,-108.13 321.13,-105.36"/>
<polygon fill="#63b8ff" stroke="#63b8ff" points="451.53,-305.61 457.57,-314.32 458.28,-303.75 451.53,-305.61"/>
</a>
</g>
</g>
<!-- Node29 -->
<g id="Node000029" class="node">
<title>Node29</title>
<g id="a_Node000029"><a xlink:href="class_trampoline.html#a72099fca4a9de5e32f8fbb5e6d74a679" target="_top" xlink:title=" ">
<polygon fill="white" stroke="#666666" points="321.5,-70 203.5,-70 203.5,-50 321.5,-50 321.5,-70"/>
<text text-anchor="middle" x="262.5" y="-56.5" font-family="Helvetica,sans-Serif" font-size="10.00">Trampoline::Trampoline</text>
</a>
</g>
</g>
<!-- Node1&#45;&gt;Node29 -->
<g id="edge28_Node000001_Node000029" class="edge">
<title>Node1&#45;&gt;Node29</title>
<g id="a_edge28_Node000001_Node000029"><a xlink:title=" ">
<path fill="none" stroke="#63b8ff" d="M456.81,-304.37C447.37,-256.01 417.72,-138.73 344,-79 337.53,-73.76 329.86,-69.91 321.86,-67.11"/>
<polygon fill="#63b8ff" stroke="#63b8ff" points="453.35,-304.9 458.6,-314.1 460.23,-303.63 453.35,-304.9"/>
</a>
</g>
</g>
<!-- Node30 -->
<g id="Node000030" class="node">
<title>Node30</title>
<g id="a_Node000030"><a xlink:href="class_interactable_item.html#aa3d008d77d5f29c2673a991e24ed9301" target="_top" xlink:title=" ">
<polygon fill="white" stroke="#666666" points="308.75,-32 216.25,-32 216.25,0 308.75,0 308.75,-32"/>
<text text-anchor="start" x="224.25" y="-18.5" font-family="Helvetica,sans-Serif" font-size="10.00">InteractableItem::</text>
<text text-anchor="middle" x="262.5" y="-6.5" font-family="Helvetica,sans-Serif" font-size="10.00">~InteractableItem</text>
</a>
</g>
</g>
<!-- Node1&#45;&gt;Node30 -->
<g id="edge29_Node000001_Node000030" class="edge">
<title>Node1&#45;&gt;Node30</title>
<g id="a_edge29_Node000001_Node000030"><a xlink:title=" ">
<path fill="none" stroke="#63b8ff" d="M457.95,-304.39C450.56,-251.51 424.27,-114.58 344,-41 334.29,-32.1 321.46,-26.37 308.9,-22.68"/>
<polygon fill="#63b8ff" stroke="#63b8ff" points="454.46,-304.71 459.22,-314.17 461.4,-303.81 454.46,-304.71"/>
</a>
</g>
</g>
<!-- Node3 -->
<g id="Node000003" class="node">
<title>Node3</title>
<g id="a_Node000003"><a xlink:href="class_cog_platform.html#a538bda666c9623304ddb39fc9afc843c" target="_top" xlink:title=" ">
<polygon fill="white" stroke="#666666" points="138.25,-887 6.75,-887 6.75,-867 138.25,-867 138.25,-887"/>
<text text-anchor="middle" x="72.5" y="-873.5" font-family="Helvetica,sans-Serif" font-size="10.00">CogPlatform::CogPlatform</text>
</a>
</g>
</g>
<!-- Node2&#45;&gt;Node3 -->
<g id="edge2_Node000002_Node000003" class="edge">
<title>Node2&#45;&gt;Node3</title>
<g id="a_edge2_Node000002_Node000003"><a xlink:title=" ">
<path fill="none" stroke="#63b8ff" d="M233.19,-816.8C210.01,-829.25 176.1,-846.39 145,-858 136.46,-861.19 127.15,-864.07 118.17,-866.57"/>
<polygon fill="#63b8ff" stroke="#63b8ff" points="234.59,-820.02 241.7,-812.17 231.25,-813.87 234.59,-820.02"/>
</a>
</g>
</g>
<!-- Node4 -->
<g id="Node000004" class="node">
<title>Node4</title>
<g id="a_Node000004"><a xlink:href="class_cog_platform.html#ae87052d2e9b8be5ef36272841790684a" target="_top" xlink:title=" ">
<polygon fill="white" stroke="#666666" points="138.25,-849 6.75,-849 6.75,-829 138.25,-829 138.25,-849"/>
<text text-anchor="middle" x="72.5" y="-835.5" font-family="Helvetica,sans-Serif" font-size="10.00">CogPlatform::CogPlatform</text>
</a>
</g>
</g>
<!-- Node2&#45;&gt;Node4 -->
<g id="edge3_Node000002_Node000004" class="edge">
<title>Node2&#45;&gt;Node4</title>
<g id="a_edge3_Node000002_Node000004"><a xlink:title=" ">
<path fill="none" stroke="#63b8ff" d="M198.56,-813.72C174.72,-818.54 147.89,-823.96 125.2,-828.55"/>
<polygon fill="#63b8ff" stroke="#63b8ff" points="199.04,-817.2 208.15,-811.78 197.65,-810.33 199.04,-817.2"/>
</a>
</g>
</g>
<!-- Node5 -->
<g id="Node000005" class="node">
<title>Node5</title>
<g id="a_Node000005"><a xlink:href="class_cog_platform.html#a2232e46890ae94b60060e8200000fdef" target="_top" xlink:title=" ">
<polygon fill="white" stroke="#666666" points="131.5,-811 13.5,-811 13.5,-791 131.5,-791 131.5,-811"/>
<text text-anchor="middle" x="72.5" y="-797.5" font-family="Helvetica,sans-Serif" font-size="10.00">CogPlatform::operator=</text>
</a>
</g>
</g>
<!-- Node2&#45;&gt;Node5 -->
<g id="edge4_Node000002_Node000005" class="edge">
<title>Node2&#45;&gt;Node5</title>
<g id="a_edge4_Node000002_Node000005"><a xlink:title=" ">
<path fill="none" stroke="#63b8ff" d="M184.78,-801C167.05,-801 148.48,-801 131.7,-801"/>
<polygon fill="#63b8ff" stroke="#63b8ff" points="184.76,-804.5 194.76,-801 184.76,-797.5 184.76,-804.5"/>
</a>
</g>
</g>
<!-- Node6 -->
<g id="Node000006" class="node">
<title>Node6</title>
<g id="a_Node000006"><a xlink:href="class_cog_platform.html#aa123b1f6fee96a0202700f7f5685b1a7" target="_top" xlink:title=" ">
<polygon fill="white" stroke="#666666" points="131.5,-773 13.5,-773 13.5,-753 131.5,-753 131.5,-773"/>
<text text-anchor="middle" x="72.5" y="-759.5" font-family="Helvetica,sans-Serif" font-size="10.00">CogPlatform::operator=</text>
</a>
</g>
</g>
<!-- Node2&#45;&gt;Node6 -->
<g id="edge5_Node000002_Node000006" class="edge">
<title>Node2&#45;&gt;Node6</title>
<g id="a_edge5_Node000002_Node000006"><a xlink:title=" ">
<path fill="none" stroke="#63b8ff" d="M198.56,-788.28C174.72,-783.46 147.89,-778.04 125.2,-773.45"/>
<polygon fill="#63b8ff" stroke="#63b8ff" points="197.65,-791.67 208.15,-790.22 199.04,-784.8 197.65,-791.67"/>
</a>
</g>
</g>
<!-- Node8 -->
<g id="Node000008" class="node">
<title>Node8</title>
<g id="a_Node000008"><a xlink:href="class_crumble_block.html#a20b24ad8d5184de47efe80f01ba15c86" target="_top" xlink:title=" ">
<polygon fill="white" stroke="#666666" points="145,-735 0,-735 0,-715 145,-715 145,-735"/>
<text text-anchor="middle" x="72.5" y="-721.5" font-family="Helvetica,sans-Serif" font-size="10.00">CrumbleBlock::CrumbleBlock</text>
</a>
</g>
</g>
<!-- Node7&#45;&gt;Node8 -->
<g id="edge7_Node000007_Node000008" class="edge">
<title>Node7&#45;&gt;Node8</title>
<g id="a_edge7_Node000007_Node000008"><a xlink:title=" ">
<path fill="none" stroke="#63b8ff" d="M233.19,-664.8C210.01,-677.25 176.1,-694.39 145,-706 136.46,-709.19 127.15,-712.07 118.17,-714.57"/>
<polygon fill="#63b8ff" stroke="#63b8ff" points="234.59,-668.02 241.7,-660.17 231.25,-661.87 234.59,-668.02"/>
</a>
</g>
</g>
<!-- Node9 -->
<g id="Node000009" class="node">
<title>Node9</title>
<g id="a_Node000009"><a xlink:href="class_crumble_block.html#a0d59c8868da1bed798c4a4b9ac52c111" target="_top" xlink:title=" ">
<polygon fill="white" stroke="#666666" points="145,-697 0,-697 0,-677 145,-677 145,-697"/>
<text text-anchor="middle" x="72.5" y="-683.5" font-family="Helvetica,sans-Serif" font-size="10.00">CrumbleBlock::CrumbleBlock</text>
</a>
</g>
</g>
<!-- Node7&#45;&gt;Node9 -->
<g id="edge8_Node000007_Node000009" class="edge">
<title>Node7&#45;&gt;Node9</title>
<g id="a_edge8_Node000007_Node000009"><a xlink:title=" ">
<path fill="none" stroke="#63b8ff" d="M198.56,-661.72C174.72,-666.54 147.89,-671.96 125.2,-676.55"/>
<polygon fill="#63b8ff" stroke="#63b8ff" points="199.04,-665.2 208.15,-659.78 197.65,-658.33 199.04,-665.2"/>
</a>
</g>
</g>
<!-- Node10 -->
<g id="Node000010" class="node">
<title>Node10</title>
<g id="a_Node000010"><a xlink:href="class_crumble_block.html#ae2010e4176ee45a228c18c9911b800cd" target="_top" xlink:title=" ">
<polygon fill="white" stroke="#666666" points="134.88,-659 10.13,-659 10.13,-639 134.88,-639 134.88,-659"/>
<text text-anchor="middle" x="72.5" y="-645.5" font-family="Helvetica,sans-Serif" font-size="10.00">CrumbleBlock::operator=</text>
</a>
</g>
</g>
<!-- Node7&#45;&gt;Node10 -->
<g id="edge9_Node000007_Node000010" class="edge">
<title>Node7&#45;&gt;Node10</title>
<g id="a_edge9_Node000007_Node000010"><a xlink:title=" ">
<path fill="none" stroke="#63b8ff" d="M178.15,-649C163.72,-649 148.95,-649 135.22,-649"/>
<polygon fill="#63b8ff" stroke="#63b8ff" points="178.11,-652.5 188.11,-649 178.11,-645.5 178.11,-652.5"/>
</a>
</g>
</g>
<!-- Node11 -->
<g id="Node000011" class="node">
<title>Node11</title>
<g id="a_Node000011"><a xlink:href="class_crumble_block.html#ab7d71c39b2f8baf75ec72bddc2f45b41" target="_top" xlink:title=" ">
<polygon fill="white" stroke="#666666" points="134.88,-621 10.13,-621 10.13,-601 134.88,-601 134.88,-621"/>
<text text-anchor="middle" x="72.5" y="-607.5" font-family="Helvetica,sans-Serif" font-size="10.00">CrumbleBlock::operator=</text>
</a>
</g>
</g>
<!-- Node7&#45;&gt;Node11 -->
<g id="edge10_Node000007_Node000011" class="edge">
<title>Node7&#45;&gt;Node11</title>
<g id="a_edge10_Node000007_Node000011"><a xlink:title=" ">
<path fill="none" stroke="#63b8ff" d="M198.56,-636.28C174.72,-631.46 147.89,-626.04 125.2,-621.45"/>
<polygon fill="#63b8ff" stroke="#63b8ff" points="197.65,-639.67 208.15,-638.22 199.04,-632.8 197.65,-639.67"/>
</a>
</g>
</g>
<!-- Node13 -->
<g id="Node000013" class="node">
<title>Node13</title>
<g id="a_Node000013"><a xlink:href="class_dash_crystal.html#a843db39ea21e3a57415cab8b745996fa" target="_top" xlink:title=" ">
<polygon fill="white" stroke="#666666" points="138.25,-583 6.75,-583 6.75,-563 138.25,-563 138.25,-583"/>
<text text-anchor="middle" x="72.5" y="-569.5" font-family="Helvetica,sans-Serif" font-size="10.00">DashCrystal::DashCrystal</text>
</a>
</g>
</g>
<!-- Node12&#45;&gt;Node13 -->
<g id="edge12_Node000012_Node000013" class="edge">
<title>Node12&#45;&gt;Node13</title>
<g id="a_edge12_Node000012_Node000013"><a xlink:title=" ">
<path fill="none" stroke="#63b8ff" d="M185.17,-561.71C169.73,-563.27 153.62,-564.9 138.61,-566.42"/>
<polygon fill="#63b8ff" stroke="#63b8ff" points="185.17,-565.23 194.77,-560.74 184.47,-558.27 185.17,-565.23"/>
</a>
</g>
</g>
<!-- Node14 -->
<g id="Node000014" class="node">
<title>Node14</title>
<g id="a_Node000014"><a xlink:href="class_dash_crystal.html#a7589462bb22d6a26b33dfd60c64b53c0" target="_top" xlink:title=" ">
<polygon fill="white" stroke="#666666" points="138.25,-545 6.75,-545 6.75,-525 138.25,-525 138.25,-545"/>
<text text-anchor="middle" x="72.5" y="-531.5" font-family="Helvetica,sans-Serif" font-size="10.00">DashCrystal::DashCrystal</text>
</a>
</g>
</g>
<!-- Node12&#45;&gt;Node14 -->
<g id="edge13_Node000012_Node000014" class="edge">
<title>Node12&#45;&gt;Node14</title>
<g id="a_edge13_Node000012_Node000014"><a xlink:title=" ">
<path fill="none" stroke="#63b8ff" d="M185.17,-546.29C169.73,-544.73 153.62,-543.1 138.61,-541.58"/>
<polygon fill="#63b8ff" stroke="#63b8ff" points="184.47,-549.73 194.77,-547.26 185.17,-542.77 184.47,-549.73"/>
</a>
</g>
</g>
<!-- Node15 -->
<g id="Node000015" class="node">
<title>Node15</title>
<g id="a_Node000015"><a xlink:href="class_dash_crystal.html#af1e409144bb1cdc5f3973e9191ac81ef" target="_top" xlink:title=" ">
<polygon fill="white" stroke="#666666" points="131.5,-507 13.5,-507 13.5,-487 131.5,-487 131.5,-507"/>
<text text-anchor="middle" x="72.5" y="-493.5" font-family="Helvetica,sans-Serif" font-size="10.00">DashCrystal::operator=</text>
</a>
</g>
</g>
<!-- Node12&#45;&gt;Node15 -->
<g id="edge14_Node000012_Node000015" class="edge">
<title>Node12&#45;&gt;Node15</title>
<g id="a_edge14_Node000012_Node000015"><a xlink:title=" ">
<path fill="none" stroke="#63b8ff" d="M197.6,-540.5C191.93,-538.83 186.33,-537 181,-535 164.06,-528.65 161.85,-522.59 145,-516 136.75,-512.77 127.75,-509.91 119,-507.44"/>
<polygon fill="#63b8ff" stroke="#63b8ff" points="196.5,-543.83 207.07,-543.12 198.36,-537.08 196.5,-543.83"/>
</a>
</g>
</g>
<!-- Node16 -->
<g id="Node000016" class="node">
<title>Node16</title>
<g id="a_Node000016"><a xlink:href="class_dash_crystal.html#ae59d4773b95458aa91591a0720905abe" target="_top" xlink:title=" ">
<polygon fill="white" stroke="#666666" points="131.5,-469 13.5,-469 13.5,-449 131.5,-449 131.5,-469"/>
<text text-anchor="middle" x="72.5" y="-455.5" font-family="Helvetica,sans-Serif" font-size="10.00">DashCrystal::operator=</text>
</a>
</g>
</g>
<!-- Node12&#45;&gt;Node16 -->
<g id="edge15_Node000012_Node000016" class="edge">
<title>Node12&#45;&gt;Node16</title>
<g id="a_edge15_Node000012_Node000016"><a xlink:title=" ">
<path fill="none" stroke="#63b8ff" d="M186.6,-538.6C184.67,-537.48 182.8,-536.28 181,-535 156.61,-517.6 169.15,-495.74 145,-478 140.34,-474.58 135.11,-471.77 129.66,-469.47"/>
<polygon fill="#63b8ff" stroke="#63b8ff" points="184.8,-541.61 195.32,-542.87 187.88,-535.33 184.8,-541.61"/>
</a>
</g>
</g>
</g>
</svg>
