<?xml version="1.0" encoding="UTF-8" standalone="no"?>
<!DOCTYPE svg PUBLIC "-//W3C//DTD SVG 1.1//EN"
 "http://www.w3.org/Graphics/SVG/1.1/DTD/svg11.dtd">
<!-- Generated by graphviz version 12.2.1 (20241206.2353)
 -->
<!-- Title: Texture::Texture Pages: 1 -->
<svg width="226pt" height="142pt"
 viewBox="0.00 0.00 226.00 142.00" xmlns="http://www.w3.org/2000/svg" xmlns:xlink="http://www.w3.org/1999/xlink">
<g id="graph0" class="graph" transform="scale(1 1) rotate(0) translate(4 138)">
<title>Texture::Texture</title>
<!-- Node1 -->
<g id="Node000001" class="node">
<title>Node1</title>
<g id="a_Node000001"><a xlink:title=" ">
<polygon fill="#999999" stroke="#666666" points="218,-77 131.5,-77 131.5,-57 218,-57 218,-77"/>
<text text-anchor="middle" x="174.75" y="-63.5" font-family="Helvetica,sans-Serif" font-size="10.00">Texture::Texture</text>
</a>
</g>
</g>
<!-- Node2 -->
<g id="Node000002" class="node">
<title>Node2</title>
<g id="a_Node000002"><a xlink:href="class_texture.html#a8e209c709bfa2107baf790324f12ef53" target="_top" xlink:title=" ">
<polygon fill="white" stroke="#666666" points="95.5,-134 0,-134 0,-114 95.5,-114 95.5,-134"/>
<text text-anchor="middle" x="47.75" y="-120.5" font-family="Helvetica,sans-Serif" font-size="10.00">Texture::operator=</text>
</a>
</g>
</g>
<!-- Node1&#45;&gt;Node2 -->
<g id="edge1_Node000001_Node000002" class="edge">
<title>Node1&#45;&gt;Node2</title>
<g id="a_edge1_Node000001_Node000002"><a xlink:title=" ">
<path fill="none" stroke="#63b8ff" d="M143.03,-82.5C128.69,-89.58 111.33,-97.95 95.5,-105 88.94,-107.92 81.78,-110.92 75.09,-113.65"/>
<polygon fill="#63b8ff" stroke="#63b8ff" points="144.58,-85.64 151.97,-78.05 141.46,-79.37 144.58,-85.64"/>
</a>
</g>
</g>
<!-- Node3 -->
<g id="Node000003" class="node">
<title>Node3</title>
<g id="a_Node000003"><a xlink:href="class_texture.html#aa68afb4cfb10e3b5f6f6f83cfbda20b9" target="_top" xlink:title=" ">
<polygon fill="white" stroke="#666666" points="95.5,-96 0,-96 0,-76 95.5,-76 95.5,-96"/>
<text text-anchor="middle" x="47.75" y="-82.5" font-family="Helvetica,sans-Serif" font-size="10.00">Texture::operator=</text>
</a>
</g>
</g>
<!-- Node1&#45;&gt;Node3 -->
<g id="edge2_Node000001_Node000003" class="edge">
<title>Node1&#45;&gt;Node3</title>
<g id="a_edge2_Node000001_Node000003"><a xlink:title=" ">
<path fill="none" stroke="#63b8ff" d="M119.97,-75.18C111.97,-76.39 103.78,-77.63 95.94,-78.83"/>
<polygon fill="#63b8ff" stroke="#63b8ff" points="120.22,-78.68 129.59,-73.71 119.17,-71.76 120.22,-78.68"/>
</a>
</g>
</g>
<!-- Node4 -->
<g id="Node000004" class="node">
<title>Node4</title>
<g id="a_Node000004"><a xlink:href="class_texture.html#a0b3765fe5b1a6847db044b88613efeff" target="_top" xlink:title=" ">
<polygon fill="white" stroke="#666666" points="91,-58 4.5,-58 4.5,-38 91,-38 91,-58"/>
<text text-anchor="middle" x="47.75" y="-44.5" font-family="Helvetica,sans-Serif" font-size="10.00">Texture::Texture</text>
</a>
</g>
</g>
<!-- Node1&#45;&gt;Node4 -->
<g id="edge3_Node000001_Node000004" class="edge">
<title>Node1&#45;&gt;Node4</title>
<g id="a_edge3_Node000001_Node000004"><a xlink:title=" ">
<path fill="none" stroke="#63b8ff" d="M119.98,-58.83C110.36,-57.37 100.47,-55.86 91.23,-54.46"/>
<polygon fill="#63b8ff" stroke="#63b8ff" points="119.17,-62.24 129.59,-60.29 120.22,-55.32 119.17,-62.24"/>
</a>
</g>
</g>
<!-- Node5 -->
<g id="Node000005" class="node">
<title>Node5</title>
<g id="a_Node000005"><a xlink:href="class_texture.html#a084244d7cb78794849469aabd9c602ec" target="_top" xlink:title=" ">
<polygon fill="white" stroke="#666666" points="91,-20 4.5,-20 4.5,0 91,0 91,-20"/>
<text text-anchor="middle" x="47.75" y="-6.5" font-family="Helvetica,sans-Serif" font-size="10.00">Texture::Texture</text>
</a>
</g>
</g>
<!-- Node1&#45;&gt;Node5 -->
<g id="edge4_Node000001_Node000005" class="edge">
<title>Node1&#45;&gt;Node5</title>
<g id="a_edge4_Node000001_Node000005"><a xlink:title=" ">
<path fill="none" stroke="#63b8ff" d="M143.03,-51.5C128.69,-44.42 111.33,-36.05 95.5,-29 88.94,-26.08 81.78,-23.08 75.09,-20.35"/>
<polygon fill="#63b8ff" stroke="#63b8ff" points="141.46,-54.63 151.97,-55.95 144.58,-48.36 141.46,-54.63"/>
</a>
</g>
</g>
</g>
</svg>
