<?xml version="1.0" encoding="UTF-8" standalone="no"?>
<!DOCTYPE svg PUBLIC "-//W3C//DTD SVG 1.1//EN"
 "http://www.w3.org/Graphics/SVG/1.1/DTD/svg11.dtd">
<!-- Generated by graphviz version 12.2.1 (20241206.2353)
 -->
<!-- Title: Strawberry::Reset Pages: 1 -->
<svg width="442pt" height="104pt"
 viewBox="0.00 0.00 441.50 104.00" xmlns="http://www.w3.org/2000/svg" xmlns:xlink="http://www.w3.org/1999/xlink">
<g id="graph0" class="graph" transform="scale(1 1) rotate(0) translate(4 100)">
<title>Strawberry::Reset</title>
<!-- Node1 -->
<g id="Node000001" class="node">
<title>Node1</title>
<g id="a_Node000001"><a xlink:title=" ">
<polygon fill="#999999" stroke="#666666" points="433.5,-58 338,-58 338,-38 433.5,-38 433.5,-58"/>
<text text-anchor="middle" x="385.75" y="-44.5" font-family="Helvetica,sans-Serif" font-size="10.00">Strawberry::Reset</text>
</a>
</g>
</g>
<!-- Node2 -->
<g id="Node000002" class="node">
<title>Node2</title>
<g id="a_Node000002"><a xlink:href="class_strawberry.html#a673f5c80b8d67a2580087a4eae0832b6" target="_top" xlink:title=" ">
<polygon fill="white" stroke="#666666" points="285.88,-96 175.38,-96 175.38,-76 285.88,-76 285.88,-96"/>
<text text-anchor="middle" x="230.62" y="-82.5" font-family="Helvetica,sans-Serif" font-size="10.00">Strawberry::operator=</text>
</a>
</g>
</g>
<!-- Node1&#45;&gt;Node2 -->
<g id="edge1_Node000001_Node000002" class="edge">
<title>Node1&#45;&gt;Node2</title>
<g id="a_edge1_Node000001_Node000002"><a xlink:title=" ">
<path fill="none" stroke="#63b8ff" d="M331.37,-61.25C312.49,-65.93 291.54,-71.13 273.73,-75.55"/>
<polygon fill="#63b8ff" stroke="#63b8ff" points="332.17,-64.65 341.03,-58.85 330.48,-57.86 332.17,-64.65"/>
</a>
</g>
</g>
<!-- Node3 -->
<g id="Node000003" class="node">
<title>Node3</title>
<g id="a_Node000003"><a xlink:href="class_flying_strawberry.html#ada0a996bd7bd79f240b85762a24fd2ed" target="_top" xlink:title=" ">
<polygon fill="white" stroke="#666666" points="123.25,-45 0,-45 0,-13 123.25,-13 123.25,-45"/>
<text text-anchor="start" x="8" y="-31.5" font-family="Helvetica,sans-Serif" font-size="10.00">FlyingStrawberry::Player</text>
<text text-anchor="middle" x="61.62" y="-19.5" font-family="Helvetica,sans-Serif" font-size="10.00">Interaction</text>
</a>
</g>
</g>
<!-- Node1&#45;&gt;Node3 -->
<g id="edge2_Node000001_Node000003" class="edge">
<title>Node1&#45;&gt;Node3</title>
<g id="a_edge2_Node000001_Node000003"><a xlink:title=" ">
<path fill="none" stroke="#63b8ff" d="M326.16,-44.54C268.83,-41.16 181.88,-36.03 123.71,-32.6"/>
<polygon fill="#63b8ff" stroke="#63b8ff" points="325.87,-48.03 336.05,-45.13 326.28,-41.04 325.87,-48.03"/>
</a>
</g>
</g>
<!-- Node4 -->
<g id="Node000004" class="node">
<title>Node4</title>
<g id="a_Node000004"><a xlink:href="class_strawberry.html#a2e5468a8badbbf84cd37d12c34042061" target="_top" xlink:title=" ">
<polygon fill="white" stroke="#666666" points="302,-20 159.25,-20 159.25,0 302,0 302,-20"/>
<text text-anchor="middle" x="230.62" y="-6.5" font-family="Helvetica,sans-Serif" font-size="10.00">Strawberry::PlayerInteraction</text>
</a>
</g>
</g>
<!-- Node1&#45;&gt;Node4 -->
<g id="edge3_Node000001_Node000004" class="edge">
<title>Node1&#45;&gt;Node4</title>
<g id="a_edge3_Node000001_Node000004"><a xlink:title=" ">
<path fill="none" stroke="#63b8ff" d="M331.37,-34.75C312.49,-30.07 291.54,-24.87 273.73,-20.45"/>
<polygon fill="#63b8ff" stroke="#63b8ff" points="330.48,-38.14 341.03,-37.15 332.17,-31.35 330.48,-38.14"/>
</a>
</g>
</g>
<!-- Node4&#45;&gt;Node3 -->
<g id="edge4_Node000004_Node000003" class="edge">
<title>Node4&#45;&gt;Node3</title>
<g id="a_edge4_Node000004_Node000003"><a xlink:title=" ">
<path fill="none" stroke="#63b8ff" d="M147.45,-19.35C139.39,-20.27 131.32,-21.18 123.53,-22.07"/>
<polygon fill="#63b8ff" stroke="#63b8ff" points="147.76,-22.84 157.3,-18.23 146.97,-15.88 147.76,-22.84"/>
</a>
</g>
</g>
</g>
</svg>
