<?xml version="1.0" encoding="UTF-8" standalone="no"?>
<!DOCTYPE svg PUBLIC "-//W3C//DTD SVG 1.1//EN"
 "http://www.w3.org/Graphics/SVG/1.1/DTD/svg11.dtd">
<!-- Generated by graphviz version 12.2.1 (20241206.2353)
 -->
<!-- Title: SliderMenuItem::AdjustSliderRight Pages: 1 -->
<svg width="448pt" height="40pt"
 viewBox="0.00 0.00 447.50 40.00" xmlns="http://www.w3.org/2000/svg" xmlns:xlink="http://www.w3.org/1999/xlink">
<g id="graph0" class="graph" transform="scale(1 1) rotate(0) translate(4 36)">
<title>SliderMenuItem::AdjustSliderRight</title>
<!-- Node1 -->
<g id="Node000001" class="node">
<title>Node1</title>
<g id="a_Node000001"><a xlink:title=" ">
<polygon fill="#999999" stroke="#666666" points="439.5,-32 296.75,-32 296.75,0 439.5,0 439.5,-32"/>
<text text-anchor="start" x="304.75" y="-18.5" font-family="Helvetica,sans-Serif" font-size="10.00">SliderMenuItem::AdjustSlider</text>
<text text-anchor="middle" x="368.12" y="-6.5" font-family="Helvetica,sans-Serif" font-size="10.00">Right</text>
</a>
</g>
</g>
<!-- Node2 -->
<g id="Node000002" class="node">
<title>Node2</title>
<g id="a_Node000002"><a xlink:href="class_pause_menu.html#abf996bfbb0b25064223e89eae1b94bc0" target="_top" xlink:title=" ">
<polygon fill="white" stroke="#666666" points="260.75,-26 151,-26 151,-6 260.75,-6 260.75,-26"/>
<text text-anchor="middle" x="205.88" y="-12.5" font-family="Helvetica,sans-Serif" font-size="10.00">PauseMenu::GoRight</text>
</a>
</g>
</g>
<!-- Node1&#45;&gt;Node2 -->
<g id="edge1_Node000001_Node000002" class="edge">
<title>Node1&#45;&gt;Node2</title>
<g id="a_edge1_Node000001_Node000002"><a xlink:title=" ">
<path fill="none" stroke="#63b8ff" d="M284.88,-16C276.74,-16 268.63,-16 260.88,-16"/>
<polygon fill="#63b8ff" stroke="#63b8ff" points="284.86,-19.5 294.86,-16 284.86,-12.5 284.86,-19.5"/>
</a>
</g>
</g>
<!-- Node3 -->
<g id="Node000003" class="node">
<title>Node3</title>
<g id="a_Node000003"><a xlink:href="class_pause_menu.html#a7836f2da72d5d33788330340be6bcb0d" target="_top" xlink:title=" ">
<polygon fill="white" stroke="#666666" points="115,-26 0,-26 0,-6 115,-6 115,-26"/>
<text text-anchor="middle" x="57.5" y="-12.5" font-family="Helvetica,sans-Serif" font-size="10.00">PauseMenu::operator=</text>
</a>
</g>
</g>
<!-- Node2&#45;&gt;Node3 -->
<g id="edge2_Node000002_Node000003" class="edge">
<title>Node2&#45;&gt;Node3</title>
<g id="a_edge2_Node000002_Node000003"><a xlink:title=" ">
<path fill="none" stroke="#63b8ff" d="M139.5,-16C131.44,-16 123.24,-16 115.31,-16"/>
<polygon fill="#63b8ff" stroke="#63b8ff" points="139.27,-19.5 149.27,-16 139.27,-12.5 139.27,-19.5"/>
</a>
</g>
</g>
</g>
</svg>
