<?xml version="1.0" encoding="UTF-8" standalone="no"?>
<!DOCTYPE svg PUBLIC "-//W3C//DTD SVG 1.1//EN"
 "http://www.w3.org/Graphics/SVG/1.1/DTD/svg11.dtd">
<!-- Generated by graphviz version 12.2.1 (20241206.2353)
 -->
<!-- Title: Graphical Class Hierarchy Pages: 1 -->
<svg width="209pt" height="66pt"
 viewBox="0.00 0.00 208.75 66.00" xmlns="http://www.w3.org/2000/svg" xmlns:xlink="http://www.w3.org/1999/xlink">
<g id="graph0" class="graph" transform="scale(1 1) rotate(0) translate(4 62)">
<title>Graphical Class Hierarchy</title>
<!-- Node0 -->
<g id="Node000000" class="node">
<title>Node0</title>
<g id="a_Node000000"><a xlink:href="class_menu_item.html" target="_top" xlink:title=" ">
<polygon fill="white" stroke="#666666" points="59.5,-39 0,-39 0,-19 59.5,-19 59.5,-39"/>
<text text-anchor="middle" x="29.75" y="-25.5" font-family="Helvetica,sans-Serif" font-size="10.00">MenuItem</text>
</a>
</g>
</g>
<!-- Node1 -->
<g id="Node000001" class="node">
<title>Node1</title>
<g id="a_Node000001"><a xlink:href="class_selectable_menu_item.html" target="_top" xlink:title=" ">
<polygon fill="white" stroke="#666666" points="200.75,-58 95.5,-58 95.5,-38 200.75,-38 200.75,-58"/>
<text text-anchor="middle" x="148.12" y="-44.5" font-family="Helvetica,sans-Serif" font-size="10.00">SelectableMenuItem</text>
</a>
</g>
</g>
<!-- Node0&#45;&gt;Node1 -->
<g id="edge19_Node000000_Node000001" class="edge">
<title>Node0&#45;&gt;Node1</title>
<g id="a_edge19_Node000000_Node000001"><a xlink:title=" ">
<path fill="none" stroke="#63b8ff" d="M70.92,-35.56C78.79,-36.84 87.15,-38.21 95.34,-39.55"/>
<polygon fill="#63b8ff" stroke="#63b8ff" points="71.74,-32.15 61.31,-33.99 70.62,-39.06 71.74,-32.15"/>
</a>
</g>
</g>
<!-- Node2 -->
<g id="Node000002" class="node">
<title>Node2</title>
<g id="a_Node000002"><a xlink:href="class_slider_menu_item.html" target="_top" xlink:title=" ">
<polygon fill="white" stroke="#666666" points="190.25,-20 106,-20 106,0 190.25,0 190.25,-20"/>
<text text-anchor="middle" x="148.12" y="-6.5" font-family="Helvetica,sans-Serif" font-size="10.00">SliderMenuItem</text>
</a>
</g>
</g>
<!-- Node0&#45;&gt;Node2 -->
<g id="edge20_Node000000_Node000002" class="edge">
<title>Node0&#45;&gt;Node2</title>
<g id="a_edge20_Node000000_Node000002"><a xlink:title=" ">
<path fill="none" stroke="#63b8ff" d="M71.06,-22.42C82.26,-20.59 94.44,-18.6 105.71,-16.76"/>
<polygon fill="#63b8ff" stroke="#63b8ff" points="70.62,-18.94 61.31,-24.01 71.74,-25.85 70.62,-18.94"/>
</a>
</g>
</g>
</g>
</svg>
