<?xml version="1.0" encoding="UTF-8" standalone="no"?>
<!DOCTYPE svg PUBLIC "-//W3C//DTD SVG 1.1//EN"
 "http://www.w3.org/Graphics/SVG/1.1/DTD/svg11.dtd">
<!-- Generated by graphviz version 12.2.1 (20241206.2353)
 -->
<!-- Title: SDL_main Pages: 1 -->
<svg width="411pt" height="304pt"
 viewBox="0.00 0.00 410.75 304.00" xmlns="http://www.w3.org/2000/svg" xmlns:xlink="http://www.w3.org/1999/xlink">
<g id="graph0" class="graph" transform="scale(1 1) rotate(0) translate(4 300)">
<title>SDL_main</title>
<!-- Node1 -->
<g id="Node000001" class="node">
<title>Node1</title>
<g id="a_Node000001"><a xlink:title=" ">
<polygon fill="#999999" stroke="#666666" points="61.75,-164 0,-164 0,-144 61.75,-144 61.75,-164"/>
<text text-anchor="middle" x="30.88" y="-150.5" font-family="Helvetica,sans-Serif" font-size="10.00">SDL_main</text>
</a>
</g>
</g>
<!-- Node2 -->
<g id="Node000002" class="node">
<title>Node2</title>
<g id="a_Node000002"><a xlink:href="main_8cpp.html#a4445d06842c4c27199633b0b801ccb1c" target="_top" xlink:title=" ">
<polygon fill="white" stroke="#666666" points="201.5,-202 97.75,-202 97.75,-182 201.5,-182 201.5,-202"/>
<text text-anchor="middle" x="149.62" y="-188.5" font-family="Helvetica,sans-Serif" font-size="10.00">DumpMemoryLeaks</text>
</a>
</g>
</g>
<!-- Node1&#45;&gt;Node2 -->
<g id="edge1_Node000001_Node000002" class="edge">
<title>Node1&#45;&gt;Node2</title>
<g id="a_edge1_Node000001_Node000002"><a xlink:title=" ">
<path fill="none" stroke="#63b8ff" d="M62.24,-163.88C75.6,-168.23 91.51,-173.41 106.02,-178.13"/>
<polygon fill="#63b8ff" stroke="#63b8ff" points="104.74,-181.4 115.34,-181.17 106.91,-174.74 104.74,-181.4"/>
</a>
</g>
</g>
<!-- Node3 -->
<g id="Node000003" class="node">
<title>Node3</title>
<g id="a_Node000003"><a xlink:href="class_base_game.html#a22a10352261e4934eb79112672d65002" target="_top" xlink:title=" ">
<polygon fill="white" stroke="#666666" points="194,-164 105.25,-164 105.25,-144 194,-144 194,-164"/>
<text text-anchor="middle" x="149.62" y="-150.5" font-family="Helvetica,sans-Serif" font-size="10.00">BaseGame::Run</text>
</a>
</g>
</g>
<!-- Node1&#45;&gt;Node3 -->
<g id="edge2_Node000001_Node000003" class="edge">
<title>Node1&#45;&gt;Node3</title>
<g id="a_edge2_Node000001_Node000003"><a xlink:title=" ">
<path fill="none" stroke="#63b8ff" d="M62.24,-154C71.77,-154 82.6,-154 93.3,-154"/>
<polygon fill="#63b8ff" stroke="#63b8ff" points="93.26,-157.5 103.26,-154 93.26,-150.5 93.26,-157.5"/>
</a>
</g>
</g>
<!-- Node11 -->
<g id="Node000011" class="node">
<title>Node11</title>
<g id="a_Node000011"><a xlink:href="main_8cpp.html#a34939466ad029ad9855f910c17630894" target="_top" xlink:title=" ">
<polygon fill="white" stroke="#666666" points="195.5,-126 103.75,-126 103.75,-106 195.5,-106 195.5,-126"/>
<text text-anchor="middle" x="149.62" y="-112.5" font-family="Helvetica,sans-Serif" font-size="10.00">StartHeapControl</text>
</a>
</g>
</g>
<!-- Node1&#45;&gt;Node11 -->
<g id="edge10_Node000001_Node000011" class="edge">
<title>Node1&#45;&gt;Node11</title>
<g id="a_edge10_Node000001_Node000011"><a xlink:title=" ">
<path fill="none" stroke="#63b8ff" d="M62.24,-144.12C75.6,-139.77 91.51,-134.59 106.02,-129.87"/>
<polygon fill="#63b8ff" stroke="#63b8ff" points="106.91,-133.26 115.34,-126.83 104.74,-126.6 106.91,-133.26"/>
</a>
</g>
</g>
<!-- Node4 -->
<g id="Node000004" class="node">
<title>Node4</title>
<g id="a_Node000004"><a xlink:href="class_base_game.html#ab299454e35b27e3472b032a6bac61fbb" target="_top" xlink:title=" ">
<polygon fill="white" stroke="#666666" points="367.12,-296 273.12,-296 273.12,-276 367.12,-276 367.12,-296"/>
<text text-anchor="middle" x="320.12" y="-282.5" font-family="Helvetica,sans-Serif" font-size="10.00">BaseGame::Draw</text>
</a>
</g>
</g>
<!-- Node3&#45;&gt;Node4 -->
<g id="edge3_Node000003_Node000004" class="edge">
<title>Node3&#45;&gt;Node4</title>
<g id="a_edge3_Node000003_Node000004"><a xlink:title=" ">
<path fill="none" stroke="#63b8ff" d="M189.42,-164.39C193.85,-166.71 198.02,-169.55 201.5,-173 233.27,-204.5 203.77,-237.61 237.5,-267 244.44,-273.05 252.94,-277.27 261.79,-280.19"/>
<polygon fill="#63b8ff" stroke="#63b8ff" points="260.67,-283.51 271.24,-282.76 262.51,-276.76 260.67,-283.51"/>
</a>
</g>
</g>
<!-- Node5 -->
<g id="Node000005" class="node">
<title>Node5</title>
<g id="a_Node000005"><a xlink:href="class_base_game.html#a05d771925703ab5c7a725ee77cb2cc27" target="_top" xlink:title=" ">
<polygon fill="white" stroke="#666666" points="394.88,-258 245.38,-258 245.38,-226 394.88,-226 394.88,-258"/>
<text text-anchor="start" x="253.38" y="-244.5" font-family="Helvetica,sans-Serif" font-size="10.00">BaseGame::ProcessKeyDown</text>
<text text-anchor="middle" x="320.12" y="-232.5" font-family="Helvetica,sans-Serif" font-size="10.00">Event</text>
</a>
</g>
</g>
<!-- Node3&#45;&gt;Node5 -->
<g id="edge4_Node000003_Node000005" class="edge">
<title>Node3&#45;&gt;Node5</title>
<g id="a_edge4_Node000003_Node000005"><a xlink:title=" ">
<path fill="none" stroke="#63b8ff" d="M186.07,-164.45C191.49,-166.82 196.82,-169.65 201.5,-173 222.05,-187.71 216.52,-202.92 237.5,-217 239.3,-218.21 241.16,-219.36 243.07,-220.46"/>
<polygon fill="#63b8ff" stroke="#63b8ff" points="241.11,-223.38 251.6,-224.82 244.29,-217.15 241.11,-223.38"/>
</a>
</g>
</g>
<!-- Node6 -->
<g id="Node000006" class="node">
<title>Node6</title>
<g id="a_Node000006"><a xlink:href="class_base_game.html#a3965ace2f42349f8ae451aed552c8d7c" target="_top" xlink:title=" ">
<polygon fill="white" stroke="#666666" points="401.25,-208 239,-208 239,-188 401.25,-188 401.25,-208"/>
<text text-anchor="middle" x="320.12" y="-194.5" font-family="Helvetica,sans-Serif" font-size="10.00">BaseGame::ProcessKeyUpEvent</text>
</a>
</g>
</g>
<!-- Node3&#45;&gt;Node6 -->
<g id="edge5_Node000003_Node000006" class="edge">
<title>Node3&#45;&gt;Node6</title>
<g id="a_edge5_Node000003_Node000006"><a xlink:title=" ">
<path fill="none" stroke="#63b8ff" d="M185.18,-164.39C201.06,-169.05 220.18,-174.5 237.5,-179 245.16,-180.99 253.24,-182.99 261.23,-184.91"/>
<polygon fill="#63b8ff" stroke="#63b8ff" points="260.39,-188.31 270.93,-187.21 262.01,-181.5 260.39,-188.31"/>
</a>
</g>
</g>
<!-- Node7 -->
<g id="Node000007" class="node">
<title>Node7</title>
<g id="a_Node000007"><a xlink:href="class_base_game.html#a80fb29e3dda10ec474d386e68529c865" target="_top" xlink:title=" ">
<polygon fill="white" stroke="#666666" points="400.88,-170 239.38,-170 239.38,-138 400.88,-138 400.88,-170"/>
<text text-anchor="start" x="247.38" y="-156.5" font-family="Helvetica,sans-Serif" font-size="10.00">BaseGame::ProcessMouseDown</text>
<text text-anchor="middle" x="320.12" y="-144.5" font-family="Helvetica,sans-Serif" font-size="10.00">Event</text>
</a>
</g>
</g>
<!-- Node3&#45;&gt;Node7 -->
<g id="edge6_Node000003_Node000007" class="edge">
<title>Node3&#45;&gt;Node7</title>
<g id="a_edge6_Node000003_Node000007"><a xlink:title=" ">
<path fill="none" stroke="#63b8ff" d="M194.46,-154C204.7,-154 215.98,-154 227.45,-154"/>
<polygon fill="#63b8ff" stroke="#63b8ff" points="227.43,-157.5 237.43,-154 227.43,-150.5 227.43,-157.5"/>
</a>
</g>
</g>
<!-- Node8 -->
<g id="Node000008" class="node">
<title>Node8</title>
<g id="a_Node000008"><a xlink:href="class_base_game.html#a2fa82b132b67d0a99949b4aafa3d1c80" target="_top" xlink:title=" ">
<polygon fill="white" stroke="#666666" points="402.75,-120 237.5,-120 237.5,-88 402.75,-88 402.75,-120"/>
<text text-anchor="start" x="245.5" y="-106.5" font-family="Helvetica,sans-Serif" font-size="10.00">BaseGame::ProcessMouseMotion</text>
<text text-anchor="middle" x="320.12" y="-94.5" font-family="Helvetica,sans-Serif" font-size="10.00">Event</text>
</a>
</g>
</g>
<!-- Node3&#45;&gt;Node8 -->
<g id="edge7_Node000003_Node000008" class="edge">
<title>Node3&#45;&gt;Node8</title>
<g id="a_edge7_Node000003_Node000008"><a xlink:title=" ">
<path fill="none" stroke="#63b8ff" d="M185.95,-143.52C205.27,-137.78 229.85,-130.49 252.62,-123.74"/>
<polygon fill="#63b8ff" stroke="#63b8ff" points="253.57,-127.1 262.17,-120.9 251.58,-120.39 253.57,-127.1"/>
</a>
</g>
</g>
<!-- Node9 -->
<g id="Node000009" class="node">
<title>Node9</title>
<g id="a_Node000009"><a xlink:href="class_base_game.html#a9de1f092b8ed30f30e774bec464e90e5" target="_top" xlink:title=" ">
<polygon fill="white" stroke="#666666" points="394.5,-70 245.75,-70 245.75,-38 394.5,-38 394.5,-70"/>
<text text-anchor="start" x="253.75" y="-56.5" font-family="Helvetica,sans-Serif" font-size="10.00">BaseGame::ProcessMouseUp</text>
<text text-anchor="middle" x="320.12" y="-44.5" font-family="Helvetica,sans-Serif" font-size="10.00">Event</text>
</a>
</g>
</g>
<!-- Node3&#45;&gt;Node9 -->
<g id="edge8_Node000003_Node000009" class="edge">
<title>Node3&#45;&gt;Node9</title>
<g id="a_edge8_Node000003_Node000009"><a xlink:title=" ">
<path fill="none" stroke="#63b8ff" d="M187.47,-143.52C192.47,-141.19 197.32,-138.37 201.5,-135 224.54,-116.43 213.92,-96.87 237.5,-79 238.87,-77.97 240.28,-76.97 241.72,-76.02"/>
<polygon fill="#63b8ff" stroke="#63b8ff" points="243.45,-79.06 250.4,-71.06 239.98,-72.98 243.45,-79.06"/>
</a>
</g>
</g>
<!-- Node10 -->
<g id="Node000010" class="node">
<title>Node10</title>
<g id="a_Node000010"><a xlink:href="class_base_game.html#a05e785e32705834ffc85afeb0f7fd263" target="_top" xlink:title=" ">
<polygon fill="white" stroke="#666666" points="371.25,-20 269,-20 269,0 371.25,0 371.25,-20"/>
<text text-anchor="middle" x="320.12" y="-6.5" font-family="Helvetica,sans-Serif" font-size="10.00">BaseGame::Update</text>
</a>
</g>
</g>
<!-- Node3&#45;&gt;Node10 -->
<g id="edge9_Node000003_Node000010" class="edge">
<title>Node3&#45;&gt;Node10</title>
<g id="a_edge9_Node000003_Node000010"><a xlink:title=" ">
<path fill="none" stroke="#63b8ff" d="M189.81,-143.6C194.12,-141.28 198.15,-138.45 201.5,-135 236.15,-99.29 200.63,-62.4 237.5,-29 243.36,-23.69 250.42,-19.78 257.89,-16.91"/>
<polygon fill="#63b8ff" stroke="#63b8ff" points="258.74,-20.31 267.22,-13.97 256.63,-13.64 258.74,-20.31"/>
</a>
</g>
</g>
</g>
</svg>
