<?xml version="1.0" encoding="UTF-8" standalone="no"?>
<!DOCTYPE svg PUBLIC "-//W3C//DTD SVG 1.1//EN"
 "http://www.w3.org/Graphics/SVG/1.1/DTD/svg11.dtd">
<!-- Generated by graphviz version 12.2.1 (20241206.2353)
 -->
<!-- Title: utils::IsPointOnLineSegment Pages: 1 -->
<svg width="612pt" height="116pt"
 viewBox="0.00 0.00 612.00 116.00" xmlns="http://www.w3.org/2000/svg" xmlns:xlink="http://www.w3.org/1999/xlink">
<g id="graph0" class="graph" transform="scale(1 1) rotate(0) translate(4 112)">
<title>utils::IsPointOnLineSegment</title>
<!-- Node1 -->
<g id="Node000001" class="node">
<title>Node1</title>
<g id="a_Node000001"><a xlink:title=" ">
<polygon fill="#999999" stroke="#666666" points="604,-83 463.5,-83 463.5,-63 604,-63 604,-83"/>
<text text-anchor="middle" x="533.75" y="-69.5" font-family="Helvetica,sans-Serif" font-size="10.00">utils::IsPointOnLineSegment</text>
</a>
</g>
</g>
<!-- Node2 -->
<g id="Node000002" class="node">
<title>Node2</title>
<g id="a_Node000002"><a xlink:href="namespaceutils.html#a9ef86448634b099a56f145753593ab2f" target="_top" xlink:title=" ">
<polygon fill="white" stroke="#666666" points="427.5,-83 287,-83 287,-63 427.5,-63 427.5,-83"/>
<text text-anchor="middle" x="357.25" y="-69.5" font-family="Helvetica,sans-Serif" font-size="10.00">utils::IntersectLineSegments</text>
</a>
</g>
</g>
<!-- Node1&#45;&gt;Node2 -->
<g id="edge1_Node000001_Node000002" class="edge">
<title>Node1&#45;&gt;Node2</title>
<g id="a_edge1_Node000001_Node000002"><a xlink:title=" ">
<path fill="none" stroke="#63b8ff" d="M451.52,-73C443.61,-73 435.64,-73 427.86,-73"/>
<polygon fill="#63b8ff" stroke="#63b8ff" points="451.52,-76.5 461.52,-73 451.52,-69.5 451.52,-76.5"/>
</a>
</g>
</g>
<!-- Node3 -->
<g id="Node000003" class="node">
<title>Node3</title>
<g id="a_Node000003"><a xlink:href="namespaceutils.html#af8fae86290b2ddb0910a33d86b470cb6" target="_top" xlink:title=" ">
<polygon fill="white" stroke="#666666" points="251,-102 136.75,-102 136.75,-82 251,-82 251,-102"/>
<text text-anchor="middle" x="193.88" y="-88.5" font-family="Helvetica,sans-Serif" font-size="10.00">utils::IsPointInPolygon</text>
</a>
</g>
</g>
<!-- Node2&#45;&gt;Node3 -->
<g id="edge2_Node000002_Node000003" class="edge">
<title>Node2&#45;&gt;Node3</title>
<g id="a_edge2_Node000002_Node000003"><a xlink:title=" ">
<path fill="none" stroke="#63b8ff" d="M275.6,-82.5C267.3,-83.47 259.01,-84.45 251.06,-85.38"/>
<polygon fill="#63b8ff" stroke="#63b8ff" points="275.85,-85.99 285.37,-81.34 275.03,-79.04 275.85,-85.99"/>
</a>
</g>
</g>
<!-- Node4 -->
<g id="Node000004" class="node">
<title>Node4</title>
<g id="a_Node000004"><a xlink:href="namespaceutils.html#a907c18a579f4b5bac2aa39f8d64fa381" target="_top" xlink:title=" ">
<polygon fill="white" stroke="#666666" points="232.25,-64 155.5,-64 155.5,-44 232.25,-44 232.25,-64"/>
<text text-anchor="middle" x="193.88" y="-50.5" font-family="Helvetica,sans-Serif" font-size="10.00">utils::Raycast</text>
</a>
</g>
</g>
<!-- Node2&#45;&gt;Node4 -->
<g id="edge3_Node000002_Node000004" class="edge">
<title>Node2&#45;&gt;Node4</title>
<g id="a_edge3_Node000002_Node000004"><a xlink:title=" ">
<path fill="none" stroke="#63b8ff" d="M275.46,-63.49C260.49,-61.73 245.52,-59.96 232.62,-58.44"/>
<polygon fill="#63b8ff" stroke="#63b8ff" points="275.03,-66.96 285.37,-64.66 275.85,-60.01 275.03,-66.96"/>
</a>
</g>
</g>
<!-- Node5 -->
<g id="Node000005" class="node">
<title>Node5</title>
<g id="a_Node000005"><a xlink:href="namespaceutils.html#aa1e275621728260abad0345dfb5ed70e" target="_top" xlink:title=" ">
<polygon fill="white" stroke="#666666" points="100.38,-108 0.38,-108 0.38,-88 100.38,-88 100.38,-108"/>
<text text-anchor="middle" x="50.38" y="-94.5" font-family="Helvetica,sans-Serif" font-size="10.00">utils::IsOverlapping</text>
</a>
</g>
</g>
<!-- Node4&#45;&gt;Node5 -->
<g id="edge4_Node000004_Node000005" class="edge">
<title>Node4&#45;&gt;Node5</title>
<g id="a_edge4_Node000004_Node000005"><a xlink:title=" ">
<path fill="none" stroke="#63b8ff" d="M148.59,-67.77C127.93,-74.2 103.75,-81.72 84.67,-87.65"/>
<polygon fill="#63b8ff" stroke="#63b8ff" points="149.39,-71.19 157.9,-64.88 147.31,-64.5 149.39,-71.19"/>
</a>
</g>
</g>
<!-- Node6 -->
<g id="Node000006" class="node">
<title>Node6</title>
<g id="a_Node000006"><a xlink:href="class_character_controller.html#ad8b0a065cb10e6a2b1900057648ab4d9" target="_top" xlink:title=" ">
<polygon fill="white" stroke="#666666" points="100.75,-70 0,-70 0,-38 100.75,-38 100.75,-70"/>
<text text-anchor="start" x="8" y="-56.5" font-family="Helvetica,sans-Serif" font-size="10.00">CharacterController</text>
<text text-anchor="middle" x="50.38" y="-44.5" font-family="Helvetica,sans-Serif" font-size="10.00">::Move</text>
</a>
</g>
</g>
<!-- Node4&#45;&gt;Node6 -->
<g id="edge5_Node000004_Node000006" class="edge">
<title>Node4&#45;&gt;Node6</title>
<g id="a_edge5_Node000004_Node000006"><a xlink:title=" ">
<path fill="none" stroke="#63b8ff" d="M144.02,-54C130.15,-54 115.03,-54 101.1,-54"/>
<polygon fill="#63b8ff" stroke="#63b8ff" points="143.81,-57.5 153.81,-54 143.81,-50.5 143.81,-57.5"/>
</a>
</g>
</g>
<!-- Node7 -->
<g id="Node000007" class="node">
<title>Node7</title>
<g id="a_Node000007"><a xlink:href="namespaceutils.html#aaa39be44524c9229c357e1e9505d2667" target="_top" xlink:title=" ">
<polygon fill="white" stroke="#666666" points="88.75,-20 12,-20 12,0 88.75,0 88.75,-20"/>
<text text-anchor="middle" x="50.38" y="-6.5" font-family="Helvetica,sans-Serif" font-size="10.00">utils::Raycast</text>
</a>
</g>
</g>
<!-- Node4&#45;&gt;Node7 -->
<g id="edge6_Node000004_Node000007" class="edge">
<title>Node4&#45;&gt;Node7</title>
<g id="a_edge6_Node000004_Node000007"><a xlink:title=" ">
<path fill="none" stroke="#63b8ff" d="M148.59,-40.23C127.93,-33.8 103.75,-26.28 84.67,-20.35"/>
<polygon fill="#63b8ff" stroke="#63b8ff" points="147.31,-43.5 157.9,-43.12 149.39,-36.81 147.31,-43.5"/>
</a>
</g>
</g>
</g>
</svg>
