<?xml version="1.0" encoding="UTF-8" standalone="no"?>
<!DOCTYPE svg PUBLIC "-//W3C//DTD SVG 1.1//EN"
 "http://www.w3.org/Graphics/SVG/1.1/DTD/svg11.dtd">
<!-- Generated by graphviz version 12.2.1 (20241206.2353)
 -->
<!-- Title: utils::IsOverlapping Pages: 1 -->
<svg width="555pt" height="94pt"
 viewBox="0.00 0.00 555.00 94.00" xmlns="http://www.w3.org/2000/svg" xmlns:xlink="http://www.w3.org/1999/xlink">
<g id="graph0" class="graph" transform="scale(1 1) rotate(0) translate(4 90)">
<title>utils::IsOverlapping</title>
<!-- Node1 -->
<g id="Node000001" class="node">
<title>Node1</title>
<g id="a_Node000001"><a xlink:title=" ">
<polygon fill="#999999" stroke="#666666" points="100,-48 0,-48 0,-28 100,-28 100,-48"/>
<text text-anchor="middle" x="50" y="-34.5" font-family="Helvetica,sans-Serif" font-size="10.00">utils::IsOverlapping</text>
</a>
</g>
</g>
<!-- Node2 -->
<g id="Node000002" class="node">
<title>Node2</title>
<g id="a_Node000002"><a xlink:href="namespaceutils.html#a760075559e6ab59c1daec763fab2b488" target="_top" xlink:title=" ">
<polygon fill="white" stroke="#666666" points="273.5,-48 136,-48 136,-28 273.5,-28 273.5,-48"/>
<text text-anchor="middle" x="204.75" y="-34.5" font-family="Helvetica,sans-Serif" font-size="10.00">utils::DistPointLineSegment</text>
</a>
</g>
</g>
<!-- Node1&#45;&gt;Node2 -->
<g id="edge1_Node000001_Node000002" class="edge">
<title>Node1&#45;&gt;Node2</title>
<g id="a_edge1_Node000001_Node000002"><a xlink:title=" ">
<path fill="none" stroke="#63b8ff" d="M100.17,-38C107.97,-38 116.2,-38 124.47,-38"/>
<polygon fill="#63b8ff" stroke="#63b8ff" points="124.23,-41.5 134.23,-38 124.23,-34.5 124.23,-41.5"/>
</a>
</g>
</g>
<!-- Node3 -->
<g id="Node000003" class="node">
<title>Node3</title>
<g id="a_Node000003"><a xlink:href="struct_vector2f.html#af8ceb9310d7065eb485e47b072a5b143" target="_top" xlink:title=" ">
<polygon fill="white" stroke="#666666" points="417,-86 309.5,-86 309.5,-66 417,-66 417,-86"/>
<text text-anchor="middle" x="363.25" y="-72.5" font-family="Helvetica,sans-Serif" font-size="10.00">Vector2f::DotProduct</text>
</a>
</g>
</g>
<!-- Node2&#45;&gt;Node3 -->
<g id="edge2_Node000002_Node000003" class="edge">
<title>Node2&#45;&gt;Node3</title>
<g id="a_edge2_Node000002_Node000003"><a xlink:title=" ">
<path fill="none" stroke="#63b8ff" d="M248.93,-48.48C267.23,-52.93 288.76,-58.16 308.11,-62.85"/>
<polygon fill="#63b8ff" stroke="#63b8ff" points="307.2,-66.23 317.74,-65.19 308.85,-59.43 307.2,-66.23"/>
</a>
</g>
</g>
<!-- Node5 -->
<g id="Node000005" class="node">
<title>Node5</title>
<g id="a_Node000005"><a xlink:href="struct_vector2f.html#acedb20d25ccc3009546e120eda010bf5" target="_top" xlink:title=" ">
<polygon fill="white" stroke="#666666" points="543.62,-20 456.38,-20 456.38,0 543.62,0 543.62,-20"/>
<text text-anchor="middle" x="500" y="-6.5" font-family="Helvetica,sans-Serif" font-size="10.00">Vector2f::Length</text>
</a>
</g>
</g>
<!-- Node2&#45;&gt;Node5 -->
<g id="edge5_Node000002_Node000005" class="edge">
<title>Node2&#45;&gt;Node5</title>
<g id="a_edge5_Node000002_Node000005"><a xlink:title=" ">
<path fill="none" stroke="#63b8ff" d="M255.42,-27.51C272.49,-24.28 291.76,-21.04 309.5,-19 354.87,-13.79 406.68,-11.59 444.65,-10.66"/>
<polygon fill="#63b8ff" stroke="#63b8ff" points="444.54,-14.16 454.46,-10.44 444.38,-7.16 444.54,-14.16"/>
</a>
</g>
</g>
<!-- Node6 -->
<g id="Node000006" class="node">
<title>Node6</title>
<g id="a_Node000006"><a xlink:href="struct_vector2f.html#aba5dd756c385551a19d36b57d8cbf629" target="_top" xlink:title=" ">
<polygon fill="white" stroke="#666666" points="417,-48 309.5,-48 309.5,-28 417,-28 417,-48"/>
<text text-anchor="middle" x="363.25" y="-34.5" font-family="Helvetica,sans-Serif" font-size="10.00">Vector2f::Normalized</text>
</a>
</g>
</g>
<!-- Node2&#45;&gt;Node6 -->
<g id="edge6_Node000002_Node000006" class="edge">
<title>Node2&#45;&gt;Node6</title>
<g id="a_edge6_Node000002_Node000006"><a xlink:title=" ">
<path fill="none" stroke="#63b8ff" d="M273.94,-38C281.91,-38 290.02,-38 297.93,-38"/>
<polygon fill="#63b8ff" stroke="#63b8ff" points="297.83,-41.5 307.83,-38 297.83,-34.5 297.83,-41.5"/>
</a>
</g>
</g>
<!-- Node4 -->
<g id="Node000004" class="node">
<title>Node4</title>
<g id="a_Node000004"><a xlink:href="struct_vector2f.html#a3db9a868c58bc809e5e09a88d65a77ec" target="_top" xlink:title=" ">
<polygon fill="white" stroke="#666666" points="547,-67 453,-67 453,-47 547,-47 547,-67"/>
<text text-anchor="middle" x="500" y="-53.5" font-family="Helvetica,sans-Serif" font-size="10.00">Vector2f::Vector2f</text>
</a>
</g>
</g>
<!-- Node3&#45;&gt;Node4 -->
<g id="edge3_Node000003_Node000004" class="edge">
<title>Node3&#45;&gt;Node4</title>
<g id="a_edge3_Node000003_Node000004"><a xlink:title=" ">
<path fill="none" stroke="#63b8ff" d="M417.12,-68.55C425.14,-67.41 433.44,-66.24 441.55,-65.1"/>
<polygon fill="#63b8ff" stroke="#63b8ff" points="441.93,-68.58 451.34,-63.72 440.95,-61.65 441.93,-68.58"/>
</a>
</g>
</g>
<!-- Node4&#45;&gt;Node4 -->
<g id="edge4_Node000004_Node000004" class="edge">
<title>Node4&#45;&gt;Node4</title>
<g id="a_edge4_Node000004_Node000004"><a xlink:title=" ">
<path fill="none" stroke="#63b8ff" d="M478.27,-67.34C468.99,-75.98 476.23,-85 500,-85 513,-85 521.06,-82.3 524.17,-78.44"/>
<polygon fill="#63b8ff" stroke="#63b8ff" points="527.62,-77.83 522.05,-68.82 520.78,-79.34 527.62,-77.83"/>
</a>
</g>
</g>
<!-- Node6&#45;&gt;Node4 -->
<g id="edge8_Node000006_Node000004" class="edge">
<title>Node6&#45;&gt;Node4</title>
<g id="a_edge8_Node000006_Node000004"><a xlink:title=" ">
<path fill="none" stroke="#63b8ff" d="M417.12,-45.45C425.14,-46.59 433.44,-47.76 441.55,-48.9"/>
<polygon fill="#63b8ff" stroke="#63b8ff" points="440.95,-52.35 451.34,-50.28 441.93,-45.42 440.95,-52.35"/>
</a>
</g>
</g>
<!-- Node6&#45;&gt;Node5 -->
<g id="edge7_Node000006_Node000005" class="edge">
<title>Node6&#45;&gt;Node5</title>
<g id="a_edge7_Node000006_Node000005"><a xlink:title=" ">
<path fill="none" stroke="#63b8ff" d="M414.43,-27.57C424.43,-25.5 434.97,-23.3 445.1,-21.2"/>
<polygon fill="#63b8ff" stroke="#63b8ff" points="445.73,-24.64 454.81,-19.18 444.31,-17.79 445.73,-24.64"/>
</a>
</g>
</g>
</g>
</svg>
