<?xml version="1.0" encoding="UTF-8" standalone="no"?>
<!DOCTYPE svg PUBLIC "-//W3C//DTD SVG 1.1//EN"
 "http://www.w3.org/Graphics/SVG/1.1/DTD/svg11.dtd">
<!-- Generated by graphviz version 12.2.1 (20241206.2353)
 -->
<!-- Title: utils::Raycast Pages: 1 -->
<svg width="835pt" height="180pt"
 viewBox="0.00 0.00 834.50 180.00" xmlns="http://www.w3.org/2000/svg" xmlns:xlink="http://www.w3.org/1999/xlink">
<g id="graph0" class="graph" transform="scale(1 1) rotate(0) translate(4 176)">
<title>utils::Raycast</title>
<!-- Node1 -->
<g id="Node000001" class="node">
<title>Node1</title>
<g id="a_Node000001"><a xlink:title=" ">
<polygon fill="#999999" stroke="#666666" points="76.75,-77 0,-77 0,-57 76.75,-57 76.75,-77"/>
<text text-anchor="middle" x="38.38" y="-63.5" font-family="Helvetica,sans-Serif" font-size="10.00">utils::Raycast</text>
</a>
</g>
</g>
<!-- Node2 -->
<g id="Node000002" class="node">
<title>Node2</title>
<g id="a_Node000002"><a xlink:href="namespaceutils.html#a907c18a579f4b5bac2aa39f8d64fa381" target="_top" xlink:title=" ">
<polygon fill="white" stroke="#666666" points="189.5,-77 112.75,-77 112.75,-57 189.5,-57 189.5,-77"/>
<text text-anchor="middle" x="151.12" y="-63.5" font-family="Helvetica,sans-Serif" font-size="10.00">utils::Raycast</text>
</a>
</g>
</g>
<!-- Node1&#45;&gt;Node2 -->
<g id="edge1_Node000001_Node000002" class="edge">
<title>Node1&#45;&gt;Node2</title>
<g id="a_edge1_Node000001_Node000002"><a xlink:title=" ">
<path fill="none" stroke="#63b8ff" d="M77.18,-67C84.84,-67 93,-67 100.99,-67"/>
<polygon fill="#63b8ff" stroke="#63b8ff" points="100.98,-70.5 110.98,-67 100.98,-63.5 100.98,-70.5"/>
</a>
</g>
</g>
<!-- Node3 -->
<g id="Node000003" class="node">
<title>Node3</title>
<g id="a_Node000003"><a xlink:href="namespaceutils.html#a9ef86448634b099a56f145753593ab2f" target="_top" xlink:title=" ">
<polygon fill="white" stroke="#666666" points="366,-96 225.5,-96 225.5,-76 366,-76 366,-96"/>
<text text-anchor="middle" x="295.75" y="-82.5" font-family="Helvetica,sans-Serif" font-size="10.00">utils::IntersectLineSegments</text>
</a>
</g>
</g>
<!-- Node2&#45;&gt;Node3 -->
<g id="edge2_Node000002_Node000003" class="edge">
<title>Node2&#45;&gt;Node3</title>
<g id="a_edge2_Node000002_Node000003"><a xlink:title=" ">
<path fill="none" stroke="#63b8ff" d="M189.97,-72.04C197.46,-73.04 205.59,-74.12 213.89,-75.23"/>
<polygon fill="#63b8ff" stroke="#63b8ff" points="213.4,-78.69 223.77,-76.54 214.32,-71.76 213.4,-78.69"/>
</a>
</g>
</g>
<!-- Node8 -->
<g id="Node000008" class="node">
<title>Node8</title>
<g id="a_Node000008"><a xlink:href="namespaceutils.html#a11a0eb68e467a22aed74f507057c39ed" target="_top" xlink:title=" ">
<polygon fill="white" stroke="#666666" points="345.75,-58 245.75,-58 245.75,-38 345.75,-38 345.75,-58"/>
<text text-anchor="middle" x="295.75" y="-44.5" font-family="Helvetica,sans-Serif" font-size="10.00">utils::IsOverlapping</text>
</a>
</g>
</g>
<!-- Node2&#45;&gt;Node8 -->
<g id="edge10_Node000002_Node000008" class="edge">
<title>Node2&#45;&gt;Node8</title>
<g id="a_edge10_Node000002_Node000008"><a xlink:title=" ">
<path fill="none" stroke="#63b8ff" d="M189.97,-61.96C203.52,-60.15 219.15,-58.07 234.14,-56.07"/>
<polygon fill="#63b8ff" stroke="#63b8ff" points="234.47,-59.56 243.92,-54.77 233.55,-52.62 234.47,-59.56"/>
</a>
</g>
</g>
<!-- Node11 -->
<g id="Node000011" class="node">
<title>Node11</title>
<g id="a_Node000011"><a xlink:href="struct_vector2f.html#aba5dd756c385551a19d36b57d8cbf629" target="_top" xlink:title=" ">
<polygon fill="white" stroke="#666666" points="691.25,-20 583.75,-20 583.75,0 691.25,0 691.25,-20"/>
<text text-anchor="middle" x="637.5" y="-6.5" font-family="Helvetica,sans-Serif" font-size="10.00">Vector2f::Normalized</text>
</a>
</g>
</g>
<!-- Node2&#45;&gt;Node11 -->
<g id="edge17_Node000002_Node000011" class="edge">
<title>Node2&#45;&gt;Node11</title>
<g id="a_edge17_Node000002_Node000011"><a xlink:title=" ">
<path fill="none" stroke="#63b8ff" d="M167.35,-56.61C181.65,-47.48 204.02,-34.76 225.5,-29 344.64,2.95 490.07,0.44 572.11,-4.58"/>
<polygon fill="#63b8ff" stroke="#63b8ff" points="571.78,-8.06 581.98,-5.22 572.23,-1.08 571.78,-8.06"/>
</a>
</g>
</g>
<!-- Node12 -->
<g id="Node000012" class="node">
<title>Node12</title>
<g id="a_Node000012"><a xlink:href="struct_vector2f.html#a368a0568a55e306014fc88a9720a1af2" target="_top" xlink:title=" ">
<polygon fill="white" stroke="#666666" points="524.88,-172 419.62,-172 419.62,-152 524.88,-152 524.88,-172"/>
<text text-anchor="middle" x="472.25" y="-158.5" font-family="Helvetica,sans-Serif" font-size="10.00">Vector2f::Orthogonal</text>
</a>
</g>
</g>
<!-- Node2&#45;&gt;Node12 -->
<g id="edge18_Node000002_Node000012" class="edge">
<title>Node2&#45;&gt;Node12</title>
<g id="a_edge18_Node000002_Node000012"><a xlink:title=" ">
<path fill="none" stroke="#63b8ff" d="M169.35,-77.49C183.88,-85.95 205.44,-97.61 225.5,-105 285.87,-127.23 357.87,-142.72 408.28,-151.88"/>
<polygon fill="#63b8ff" stroke="#63b8ff" points="407.38,-155.28 417.84,-153.58 408.61,-148.38 407.38,-155.28"/>
</a>
</g>
</g>
<!-- Node4 -->
<g id="Node000004" class="node">
<title>Node4</title>
<g id="a_Node000004"><a xlink:href="struct_vector2f.html#ab99fa60e5b7af169760de9057863423b" target="_top" xlink:title=" ">
<polygon fill="white" stroke="#666666" points="696.5,-134 578.5,-134 578.5,-114 696.5,-114 696.5,-134"/>
<text text-anchor="middle" x="637.5" y="-120.5" font-family="Helvetica,sans-Serif" font-size="10.00">Vector2f::CrossProduct</text>
</a>
</g>
</g>
<!-- Node3&#45;&gt;Node4 -->
<g id="edge3_Node000003_Node000004" class="edge">
<title>Node3&#45;&gt;Node4</title>
<g id="a_edge3_Node000003_Node000004"><a xlink:title=" ">
<path fill="none" stroke="#63b8ff" d="M349.06,-96.48C365.91,-99.58 384.69,-102.74 402,-105 457.19,-112.2 520.07,-117.12 566.81,-120.14"/>
<polygon fill="#63b8ff" stroke="#63b8ff" points="566.32,-123.62 576.52,-120.76 566.76,-116.63 566.32,-123.62"/>
</a>
</g>
</g>
<!-- Node6 -->
<g id="Node000006" class="node">
<title>Node6</title>
<g id="a_Node000006"><a xlink:href="namespaceutils.html#afa48cca7d08708b5ce3581974e9c39aa" target="_top" xlink:title=" ">
<polygon fill="white" stroke="#666666" points="542.5,-96 402,-96 402,-76 542.5,-76 542.5,-96"/>
<text text-anchor="middle" x="472.25" y="-82.5" font-family="Helvetica,sans-Serif" font-size="10.00">utils::IsPointOnLineSegment</text>
</a>
</g>
</g>
<!-- Node3&#45;&gt;Node6 -->
<g id="edge6_Node000003_Node000006" class="edge">
<title>Node3&#45;&gt;Node6</title>
<g id="a_edge6_Node000003_Node000006"><a xlink:title=" ">
<path fill="none" stroke="#63b8ff" d="M366.47,-86C374.25,-86 382.23,-86 390.13,-86"/>
<polygon fill="#63b8ff" stroke="#63b8ff" points="390.13,-89.5 400.13,-86 390.13,-82.5 390.13,-89.5"/>
</a>
</g>
</g>
<!-- Node5 -->
<g id="Node000005" class="node">
<title>Node5</title>
<g id="a_Node000005"><a xlink:href="struct_vector2f.html#a3db9a868c58bc809e5e09a88d65a77ec" target="_top" xlink:title=" ">
<polygon fill="white" stroke="#666666" points="826.5,-105 732.5,-105 732.5,-85 826.5,-85 826.5,-105"/>
<text text-anchor="middle" x="779.5" y="-91.5" font-family="Helvetica,sans-Serif" font-size="10.00">Vector2f::Vector2f</text>
</a>
</g>
</g>
<!-- Node4&#45;&gt;Node5 -->
<g id="edge4_Node000004_Node000005" class="edge">
<title>Node4&#45;&gt;Node5</title>
<g id="a_edge4_Node000004_Node000005"><a xlink:title=" ">
<path fill="none" stroke="#63b8ff" d="M689.04,-113.53C699.51,-111.36 710.6,-109.06 721.28,-106.85"/>
<polygon fill="#63b8ff" stroke="#63b8ff" points="721.66,-110.35 730.74,-104.89 720.24,-103.49 721.66,-110.35"/>
</a>
</g>
</g>
<!-- Node5&#45;&gt;Node5 -->
<g id="edge5_Node000005_Node000005" class="edge">
<title>Node5&#45;&gt;Node5</title>
<g id="a_edge5_Node000005_Node000005"><a xlink:title=" ">
<path fill="none" stroke="#63b8ff" d="M756.94,-105.34C747.3,-113.98 754.82,-123 779.5,-123 793,-123 801.36,-120.3 804.6,-116.44"/>
<polygon fill="#63b8ff" stroke="#63b8ff" points="808.04,-115.78 802.4,-106.81 801.21,-117.34 808.04,-115.78"/>
</a>
</g>
</g>
<!-- Node6&#45;&gt;Node4 -->
<g id="edge7_Node000006_Node000004" class="edge">
<title>Node6&#45;&gt;Node4</title>
<g id="a_edge7_Node000006_Node000004"><a xlink:title=" ">
<path fill="none" stroke="#63b8ff" d="M518.29,-96.48C537.56,-100.97 560.26,-106.25 580.59,-110.99"/>
<polygon fill="#63b8ff" stroke="#63b8ff" points="579.6,-114.35 590.13,-113.21 581.19,-107.53 579.6,-114.35"/>
</a>
</g>
</g>
<!-- Node7 -->
<g id="Node000007" class="node">
<title>Node7</title>
<g id="a_Node000007"><a xlink:href="struct_vector2f.html#af8ceb9310d7065eb485e47b072a5b143" target="_top" xlink:title=" ">
<polygon fill="white" stroke="#666666" points="691.25,-96 583.75,-96 583.75,-76 691.25,-76 691.25,-96"/>
<text text-anchor="middle" x="637.5" y="-82.5" font-family="Helvetica,sans-Serif" font-size="10.00">Vector2f::DotProduct</text>
</a>
</g>
</g>
<!-- Node6&#45;&gt;Node7 -->
<g id="edge8_Node000006_Node000007" class="edge">
<title>Node6&#45;&gt;Node7</title>
<g id="a_edge8_Node000006_Node000007"><a xlink:title=" ">
<path fill="none" stroke="#63b8ff" d="M542.96,-86C552.57,-86 562.4,-86 571.92,-86"/>
<polygon fill="#63b8ff" stroke="#63b8ff" points="571.81,-89.5 581.81,-86 571.81,-82.5 571.81,-89.5"/>
</a>
</g>
</g>
<!-- Node7&#45;&gt;Node5 -->
<g id="edge9_Node000007_Node000005" class="edge">
<title>Node7&#45;&gt;Node5</title>
<g id="a_edge9_Node000007_Node000005"><a xlink:title=" ">
<path fill="none" stroke="#63b8ff" d="M691.43,-89.4C701.11,-90.03 711.26,-90.68 721.07,-91.31"/>
<polygon fill="#63b8ff" stroke="#63b8ff" points="720.66,-94.79 730.87,-91.94 721.11,-87.8 720.66,-94.79"/>
</a>
</g>
</g>
<!-- Node9 -->
<g id="Node000009" class="node">
<title>Node9</title>
<g id="a_Node000009"><a xlink:href="namespaceutils.html#a760075559e6ab59c1daec763fab2b488" target="_top" xlink:title=" ">
<polygon fill="white" stroke="#666666" points="541,-58 403.5,-58 403.5,-38 541,-38 541,-58"/>
<text text-anchor="middle" x="472.25" y="-44.5" font-family="Helvetica,sans-Serif" font-size="10.00">utils::DistPointLineSegment</text>
</a>
</g>
</g>
<!-- Node8&#45;&gt;Node9 -->
<g id="edge11_Node000008_Node000009" class="edge">
<title>Node8&#45;&gt;Node9</title>
<g id="a_edge11_Node000008_Node000009"><a xlink:title=" ">
<path fill="none" stroke="#63b8ff" d="M345.82,-48C360.1,-48 376.07,-48 391.72,-48"/>
<polygon fill="#63b8ff" stroke="#63b8ff" points="391.5,-51.5 401.5,-48 391.5,-44.5 391.5,-51.5"/>
</a>
</g>
</g>
<!-- Node9&#45;&gt;Node7 -->
<g id="edge12_Node000009_Node000007" class="edge">
<title>Node9&#45;&gt;Node7</title>
<g id="a_edge12_Node000009_Node000007"><a xlink:title=" ">
<path fill="none" stroke="#63b8ff" d="M518.29,-58.48C537.56,-62.97 560.26,-68.25 580.59,-72.99"/>
<polygon fill="#63b8ff" stroke="#63b8ff" points="579.6,-76.35 590.13,-75.21 581.19,-69.53 579.6,-76.35"/>
</a>
</g>
</g>
<!-- Node10 -->
<g id="Node000010" class="node">
<title>Node10</title>
<g id="a_Node000010"><a xlink:href="struct_vector2f.html#acedb20d25ccc3009546e120eda010bf5" target="_top" xlink:title=" ">
<polygon fill="white" stroke="#666666" points="823.12,-48 735.88,-48 735.88,-28 823.12,-28 823.12,-48"/>
<text text-anchor="middle" x="779.5" y="-34.5" font-family="Helvetica,sans-Serif" font-size="10.00">Vector2f::Length</text>
</a>
</g>
</g>
<!-- Node9&#45;&gt;Node10 -->
<g id="edge13_Node000009_Node000010" class="edge">
<title>Node9&#45;&gt;Node10</title>
<g id="a_edge13_Node000009_Node000010"><a xlink:title=" ">
<path fill="none" stroke="#63b8ff" d="M541.37,-45.77C596.47,-43.96 673.03,-41.46 724.09,-39.78"/>
<polygon fill="#63b8ff" stroke="#63b8ff" points="724.14,-43.28 734.02,-39.46 723.91,-36.29 724.14,-43.28"/>
</a>
</g>
</g>
<!-- Node9&#45;&gt;Node11 -->
<g id="edge14_Node000009_Node000011" class="edge">
<title>Node9&#45;&gt;Node11</title>
<g id="a_edge14_Node000009_Node000011"><a xlink:title=" ">
<path fill="none" stroke="#63b8ff" d="M518.29,-37.52C537.56,-33.03 560.26,-27.75 580.59,-23.01"/>
<polygon fill="#63b8ff" stroke="#63b8ff" points="581.19,-26.47 590.13,-20.79 579.6,-19.65 581.19,-26.47"/>
</a>
</g>
</g>
<!-- Node11&#45;&gt;Node5 -->
<g id="edge16_Node000011_Node000005" class="edge">
<title>Node11&#45;&gt;Node5</title>
<g id="a_edge16_Node000011_Node000005"><a xlink:title=" ">
<path fill="none" stroke="#63b8ff" d="M655.67,-20.42C679.73,-35.03 723.7,-61.73 751.98,-78.9"/>
<polygon fill="#63b8ff" stroke="#63b8ff" points="749.97,-81.77 760.34,-83.97 753.6,-75.79 749.97,-81.77"/>
</a>
</g>
</g>
<!-- Node11&#45;&gt;Node10 -->
<g id="edge15_Node000011_Node000010" class="edge">
<title>Node11&#45;&gt;Node10</title>
<g id="a_edge15_Node000011_Node000010"><a xlink:title=" ">
<path fill="none" stroke="#63b8ff" d="M690.63,-20.43C701.59,-22.62 713.18,-24.94 724.22,-27.14"/>
<polygon fill="#63b8ff" stroke="#63b8ff" points="723.5,-30.57 733.99,-29.1 724.87,-23.71 723.5,-30.57"/>
</a>
</g>
</g>
<!-- Node12&#45;&gt;Node5 -->
<g id="edge19_Node000012_Node000005" class="edge">
<title>Node12&#45;&gt;Node5</title>
<g id="a_edge19_Node000012_Node000005"><a xlink:title=" ">
<path fill="none" stroke="#63b8ff" d="M525.04,-163.99C571.11,-164.27 639.77,-161 696.5,-143 718.24,-136.1 740.43,-122.65 756.23,-111.73"/>
<polygon fill="#63b8ff" stroke="#63b8ff" points="757.84,-114.88 763.95,-106.23 753.77,-109.19 757.84,-114.88"/>
</a>
</g>
</g>
</g>
</svg>
