<?xml version="1.0" encoding="UTF-8" standalone="no"?>
<!DOCTYPE svg PUBLIC "-//W3C//DTD SVG 1.1//EN"
 "http://www.w3.org/Graphics/SVG/1.1/DTD/svg11.dtd">
<!-- Generated by graphviz version 12.2.1 (20241206.2353)
 -->
<!-- Title: utils::IsPointInRect Pages: 1 -->
<svg width="244pt" height="66pt"
 viewBox="0.00 0.00 244.00 66.00" xmlns="http://www.w3.org/2000/svg" xmlns:xlink="http://www.w3.org/1999/xlink">
<g id="graph0" class="graph" transform="scale(1 1) rotate(0) translate(4 62)">
<title>utils::IsPointInRect</title>
<!-- Node1 -->
<g id="Node000001" class="node">
<title>Node1</title>
<g id="a_Node000001"><a xlink:title=" ">
<polygon fill="#999999" stroke="#666666" points="236,-39 136,-39 136,-19 236,-19 236,-39"/>
<text text-anchor="middle" x="186" y="-25.5" font-family="Helvetica,sans-Serif" font-size="10.00">utils::IsPointInRect</text>
</a>
</g>
</g>
<!-- Node2 -->
<g id="Node000002" class="node">
<title>Node2</title>
<g id="a_Node000002"><a xlink:href="namespaceutils.html#aa3cf9ab3831043ef5d09bb2a1a3508df" target="_top" xlink:title=" ">
<polygon fill="white" stroke="#666666" points="100,-58 0,-58 0,-38 100,-38 100,-58"/>
<text text-anchor="middle" x="50" y="-44.5" font-family="Helvetica,sans-Serif" font-size="10.00">utils::IsOverlapping</text>
</a>
</g>
</g>
<!-- Node1&#45;&gt;Node2 -->
<g id="edge1_Node000001_Node000002" class="edge">
<title>Node1&#45;&gt;Node2</title>
<g id="a_edge1_Node000001_Node000002"><a xlink:title=" ">
<path fill="none" stroke="#63b8ff" d="M124.48,-37.58C116.33,-38.74 108.05,-39.91 100.13,-41.03"/>
<polygon fill="#63b8ff" stroke="#63b8ff" points="124.96,-41.05 134.37,-36.18 123.97,-34.12 124.96,-41.05"/>
</a>
</g>
</g>
<!-- Node3 -->
<g id="Node000003" class="node">
<title>Node3</title>
<g id="a_Node000003"><a xlink:href="namespaceutils.html#aa1e275621728260abad0345dfb5ed70e" target="_top" xlink:title=" ">
<polygon fill="white" stroke="#666666" points="100,-20 0,-20 0,0 100,0 100,-20"/>
<text text-anchor="middle" x="50" y="-6.5" font-family="Helvetica,sans-Serif" font-size="10.00">utils::IsOverlapping</text>
</a>
</g>
</g>
<!-- Node1&#45;&gt;Node3 -->
<g id="edge2_Node000001_Node000003" class="edge">
<title>Node1&#45;&gt;Node3</title>
<g id="a_edge2_Node000001_Node000003"><a xlink:title=" ">
<path fill="none" stroke="#63b8ff" d="M124.48,-20.42C116.33,-19.26 108.05,-18.09 100.13,-16.97"/>
<polygon fill="#63b8ff" stroke="#63b8ff" points="123.97,-23.88 134.37,-21.82 124.96,-16.95 123.97,-23.88"/>
</a>
</g>
</g>
</g>
</svg>
