<?xml version="1.0" encoding="UTF-8" standalone="no"?>
<!DOCTYPE svg PUBLIC "-//W3C//DTD SVG 1.1//EN"
 "http://www.w3.org/Graphics/SVG/1.1/DTD/svg11.dtd">
<!-- Generated by graphviz version 12.2.1 (20241206.2353)
 -->
<!-- Title: utils::DrawRect Pages: 1 -->
<svg width="213pt" height="66pt"
 viewBox="0.00 0.00 212.50 66.00" xmlns="http://www.w3.org/2000/svg" xmlns:xlink="http://www.w3.org/1999/xlink">
<g id="graph0" class="graph" transform="scale(1 1) rotate(0) translate(4 62)">
<title>utils::DrawRect</title>
<!-- Node1 -->
<g id="Node000001" class="node">
<title>Node1</title>
<g id="a_Node000001"><a xlink:title=" ">
<polygon fill="#999999" stroke="#666666" points="204.5,-39 120.25,-39 120.25,-19 204.5,-19 204.5,-39"/>
<text text-anchor="middle" x="162.38" y="-25.5" font-family="Helvetica,sans-Serif" font-size="10.00">utils::DrawRect</text>
</a>
</g>
</g>
<!-- Node2 -->
<g id="Node000002" class="node">
<title>Node2</title>
<g id="a_Node000002"><a xlink:href="namespaceutils.html#a419f9ed5a7293999ffaece51ac5674fd" target="_top" xlink:title=" ">
<polygon fill="white" stroke="#666666" points="84.25,-58 0,-58 0,-38 84.25,-38 84.25,-58"/>
<text text-anchor="middle" x="42.12" y="-44.5" font-family="Helvetica,sans-Serif" font-size="10.00">utils::DrawRect</text>
</a>
</g>
</g>
<!-- Node1&#45;&gt;Node2 -->
<g id="edge1_Node000001_Node000002" class="edge">
<title>Node1&#45;&gt;Node2</title>
<g id="a_edge1_Node000001_Node000002"><a xlink:title=" ">
<path fill="none" stroke="#63b8ff" d="M108.77,-37.45C100.69,-38.75 92.45,-40.07 84.66,-41.33"/>
<polygon fill="#63b8ff" stroke="#63b8ff" points="109.2,-40.93 118.52,-35.89 108.09,-34.02 109.2,-40.93"/>
</a>
</g>
</g>
<!-- Node3 -->
<g id="Node000003" class="node">
<title>Node3</title>
<g id="a_Node000003"><a xlink:href="namespaceutils.html#a682480fcd876b9f693cd2df4f64bc632" target="_top" xlink:title=" ">
<polygon fill="white" stroke="#666666" points="84.25,-20 0,-20 0,0 84.25,0 84.25,-20"/>
<text text-anchor="middle" x="42.12" y="-6.5" font-family="Helvetica,sans-Serif" font-size="10.00">utils::DrawRect</text>
</a>
</g>
</g>
<!-- Node1&#45;&gt;Node3 -->
<g id="edge2_Node000001_Node000003" class="edge">
<title>Node1&#45;&gt;Node3</title>
<g id="a_edge2_Node000001_Node000003"><a xlink:title=" ">
<path fill="none" stroke="#63b8ff" d="M108.77,-20.55C100.69,-19.25 92.45,-17.93 84.66,-16.67"/>
<polygon fill="#63b8ff" stroke="#63b8ff" points="108.09,-23.98 118.52,-22.11 109.2,-17.07 108.09,-23.98"/>
</a>
</g>
</g>
</g>
</svg>
