<?xml version="1.0" encoding="UTF-8" standalone="no"?>
<!DOCTYPE svg PUBLIC "-//W3C//DTD SVG 1.1//EN"
 "http://www.w3.org/Graphics/SVG/1.1/DTD/svg11.dtd">
<!-- Generated by graphviz version 12.2.1 (20241206.2353)
 -->
<!-- Title: utils::Raycast Pages: 1 -->
<svg width="722pt" height="180pt"
 viewBox="0.00 0.00 721.75 180.00" xmlns="http://www.w3.org/2000/svg" xmlns:xlink="http://www.w3.org/1999/xlink">
<g id="graph0" class="graph" transform="scale(1 1) rotate(0) translate(4 176)">
<title>utils::Raycast</title>
<!-- Node1 -->
<g id="Node000001" class="node">
<title>Node1</title>
<g id="a_Node000001"><a xlink:title=" ">
<polygon fill="#999999" stroke="#666666" points="76.75,-77 0,-77 0,-57 76.75,-57 76.75,-77"/>
<text text-anchor="middle" x="38.38" y="-63.5" font-family="Helvetica,sans-Serif" font-size="10.00">utils::Raycast</text>
</a>
</g>
</g>
<!-- Node2 -->
<g id="Node000002" class="node">
<title>Node2</title>
<g id="a_Node000002"><a xlink:href="namespaceutils.html#a9ef86448634b099a56f145753593ab2f" target="_top" xlink:title=" ">
<polygon fill="white" stroke="#666666" points="253.25,-96 112.75,-96 112.75,-76 253.25,-76 253.25,-96"/>
<text text-anchor="middle" x="183" y="-82.5" font-family="Helvetica,sans-Serif" font-size="10.00">utils::IntersectLineSegments</text>
</a>
</g>
</g>
<!-- Node1&#45;&gt;Node2 -->
<g id="edge1_Node000001_Node000002" class="edge">
<title>Node1&#45;&gt;Node2</title>
<g id="a_edge1_Node000001_Node000002"><a xlink:title=" ">
<path fill="none" stroke="#63b8ff" d="M77.22,-72.04C84.71,-73.04 92.84,-74.12 101.14,-75.23"/>
<polygon fill="#63b8ff" stroke="#63b8ff" points="100.65,-78.69 111.02,-76.54 101.57,-71.76 100.65,-78.69"/>
</a>
</g>
</g>
<!-- Node7 -->
<g id="Node000007" class="node">
<title>Node7</title>
<g id="a_Node000007"><a xlink:href="namespaceutils.html#a11a0eb68e467a22aed74f507057c39ed" target="_top" xlink:title=" ">
<polygon fill="white" stroke="#666666" points="233,-58 133,-58 133,-38 233,-38 233,-58"/>
<text text-anchor="middle" x="183" y="-44.5" font-family="Helvetica,sans-Serif" font-size="10.00">utils::IsOverlapping</text>
</a>
</g>
</g>
<!-- Node1&#45;&gt;Node7 -->
<g id="edge9_Node000001_Node000007" class="edge">
<title>Node1&#45;&gt;Node7</title>
<g id="a_edge9_Node000001_Node000007"><a xlink:title=" ">
<path fill="none" stroke="#63b8ff" d="M77.22,-61.96C90.77,-60.15 106.4,-58.07 121.39,-56.07"/>
<polygon fill="#63b8ff" stroke="#63b8ff" points="121.72,-59.56 131.17,-54.77 120.8,-52.62 121.72,-59.56"/>
</a>
</g>
</g>
<!-- Node10 -->
<g id="Node000010" class="node">
<title>Node10</title>
<g id="a_Node000010"><a xlink:href="struct_vector2f.html#aba5dd756c385551a19d36b57d8cbf629" target="_top" xlink:title=" ">
<polygon fill="white" stroke="#666666" points="578.5,-20 471,-20 471,0 578.5,0 578.5,-20"/>
<text text-anchor="middle" x="524.75" y="-6.5" font-family="Helvetica,sans-Serif" font-size="10.00">Vector2f::Normalized</text>
</a>
</g>
</g>
<!-- Node1&#45;&gt;Node10 -->
<g id="edge16_Node000001_Node000010" class="edge">
<title>Node1&#45;&gt;Node10</title>
<g id="a_edge16_Node000001_Node000010"><a xlink:title=" ">
<path fill="none" stroke="#63b8ff" d="M54.6,-56.61C68.9,-47.48 91.27,-34.76 112.75,-29 231.89,2.95 377.32,0.44 459.36,-4.58"/>
<polygon fill="#63b8ff" stroke="#63b8ff" points="459.03,-8.06 469.23,-5.22 459.48,-1.08 459.03,-8.06"/>
</a>
</g>
</g>
<!-- Node11 -->
<g id="Node000011" class="node">
<title>Node11</title>
<g id="a_Node000011"><a xlink:href="struct_vector2f.html#a368a0568a55e306014fc88a9720a1af2" target="_top" xlink:title=" ">
<polygon fill="white" stroke="#666666" points="412.12,-172 306.88,-172 306.88,-152 412.12,-152 412.12,-172"/>
<text text-anchor="middle" x="359.5" y="-158.5" font-family="Helvetica,sans-Serif" font-size="10.00">Vector2f::Orthogonal</text>
</a>
</g>
</g>
<!-- Node1&#45;&gt;Node11 -->
<g id="edge17_Node000001_Node000011" class="edge">
<title>Node1&#45;&gt;Node11</title>
<g id="a_edge17_Node000001_Node000011"><a xlink:title=" ">
<path fill="none" stroke="#63b8ff" d="M56.6,-77.49C71.13,-85.95 92.69,-97.61 112.75,-105 173.12,-127.23 245.12,-142.72 295.53,-151.88"/>
<polygon fill="#63b8ff" stroke="#63b8ff" points="294.63,-155.28 305.09,-153.58 295.86,-148.38 294.63,-155.28"/>
</a>
</g>
</g>
<!-- Node3 -->
<g id="Node000003" class="node">
<title>Node3</title>
<g id="a_Node000003"><a xlink:href="struct_vector2f.html#ab99fa60e5b7af169760de9057863423b" target="_top" xlink:title=" ">
<polygon fill="white" stroke="#666666" points="583.75,-134 465.75,-134 465.75,-114 583.75,-114 583.75,-134"/>
<text text-anchor="middle" x="524.75" y="-120.5" font-family="Helvetica,sans-Serif" font-size="10.00">Vector2f::CrossProduct</text>
</a>
</g>
</g>
<!-- Node2&#45;&gt;Node3 -->
<g id="edge2_Node000002_Node000003" class="edge">
<title>Node2&#45;&gt;Node3</title>
<g id="a_edge2_Node000002_Node000003"><a xlink:title=" ">
<path fill="none" stroke="#63b8ff" d="M236.31,-96.48C253.16,-99.58 271.94,-102.74 289.25,-105 344.44,-112.2 407.32,-117.12 454.06,-120.14"/>
<polygon fill="#63b8ff" stroke="#63b8ff" points="453.57,-123.62 463.77,-120.76 454.01,-116.63 453.57,-123.62"/>
</a>
</g>
</g>
<!-- Node5 -->
<g id="Node000005" class="node">
<title>Node5</title>
<g id="a_Node000005"><a xlink:href="namespaceutils.html#afa48cca7d08708b5ce3581974e9c39aa" target="_top" xlink:title=" ">
<polygon fill="white" stroke="#666666" points="429.75,-96 289.25,-96 289.25,-76 429.75,-76 429.75,-96"/>
<text text-anchor="middle" x="359.5" y="-82.5" font-family="Helvetica,sans-Serif" font-size="10.00">utils::IsPointOnLineSegment</text>
</a>
</g>
</g>
<!-- Node2&#45;&gt;Node5 -->
<g id="edge5_Node000002_Node000005" class="edge">
<title>Node2&#45;&gt;Node5</title>
<g id="a_edge5_Node000002_Node000005"><a xlink:title=" ">
<path fill="none" stroke="#63b8ff" d="M253.72,-86C261.5,-86 269.48,-86 277.38,-86"/>
<polygon fill="#63b8ff" stroke="#63b8ff" points="277.38,-89.5 287.38,-86 277.38,-82.5 277.38,-89.5"/>
</a>
</g>
</g>
<!-- Node4 -->
<g id="Node000004" class="node">
<title>Node4</title>
<g id="a_Node000004"><a xlink:href="struct_vector2f.html#a3db9a868c58bc809e5e09a88d65a77ec" target="_top" xlink:title=" ">
<polygon fill="white" stroke="#666666" points="713.75,-105 619.75,-105 619.75,-85 713.75,-85 713.75,-105"/>
<text text-anchor="middle" x="666.75" y="-91.5" font-family="Helvetica,sans-Serif" font-size="10.00">Vector2f::Vector2f</text>
</a>
</g>
</g>
<!-- Node3&#45;&gt;Node4 -->
<g id="edge3_Node000003_Node000004" class="edge">
<title>Node3&#45;&gt;Node4</title>
<g id="a_edge3_Node000003_Node000004"><a xlink:title=" ">
<path fill="none" stroke="#63b8ff" d="M576.29,-113.53C586.76,-111.36 597.85,-109.06 608.53,-106.85"/>
<polygon fill="#63b8ff" stroke="#63b8ff" points="608.91,-110.35 617.99,-104.89 607.49,-103.49 608.91,-110.35"/>
</a>
</g>
</g>
<!-- Node4&#45;&gt;Node4 -->
<g id="edge4_Node000004_Node000004" class="edge">
<title>Node4&#45;&gt;Node4</title>
<g id="a_edge4_Node000004_Node000004"><a xlink:title=" ">
<path fill="none" stroke="#63b8ff" d="M644.19,-105.34C634.55,-113.98 642.07,-123 666.75,-123 680.25,-123 688.61,-120.3 691.85,-116.44"/>
<polygon fill="#63b8ff" stroke="#63b8ff" points="695.29,-115.78 689.65,-106.81 688.46,-117.34 695.29,-115.78"/>
</a>
</g>
</g>
<!-- Node5&#45;&gt;Node3 -->
<g id="edge6_Node000005_Node000003" class="edge">
<title>Node5&#45;&gt;Node3</title>
<g id="a_edge6_Node000005_Node000003"><a xlink:title=" ">
<path fill="none" stroke="#63b8ff" d="M405.54,-96.48C424.81,-100.97 447.51,-106.25 467.84,-110.99"/>
<polygon fill="#63b8ff" stroke="#63b8ff" points="466.85,-114.35 477.38,-113.21 468.44,-107.53 466.85,-114.35"/>
</a>
</g>
</g>
<!-- Node6 -->
<g id="Node000006" class="node">
<title>Node6</title>
<g id="a_Node000006"><a xlink:href="struct_vector2f.html#af8ceb9310d7065eb485e47b072a5b143" target="_top" xlink:title=" ">
<polygon fill="white" stroke="#666666" points="578.5,-96 471,-96 471,-76 578.5,-76 578.5,-96"/>
<text text-anchor="middle" x="524.75" y="-82.5" font-family="Helvetica,sans-Serif" font-size="10.00">Vector2f::DotProduct</text>
</a>
</g>
</g>
<!-- Node5&#45;&gt;Node6 -->
<g id="edge7_Node000005_Node000006" class="edge">
<title>Node5&#45;&gt;Node6</title>
<g id="a_edge7_Node000005_Node000006"><a xlink:title=" ">
<path fill="none" stroke="#63b8ff" d="M430.21,-86C439.82,-86 449.65,-86 459.17,-86"/>
<polygon fill="#63b8ff" stroke="#63b8ff" points="459.06,-89.5 469.06,-86 459.06,-82.5 459.06,-89.5"/>
</a>
</g>
</g>
<!-- Node6&#45;&gt;Node4 -->
<g id="edge8_Node000006_Node000004" class="edge">
<title>Node6&#45;&gt;Node4</title>
<g id="a_edge8_Node000006_Node000004"><a xlink:title=" ">
<path fill="none" stroke="#63b8ff" d="M578.68,-89.4C588.36,-90.03 598.51,-90.68 608.32,-91.31"/>
<polygon fill="#63b8ff" stroke="#63b8ff" points="607.91,-94.79 618.12,-91.94 608.36,-87.8 607.91,-94.79"/>
</a>
</g>
</g>
<!-- Node8 -->
<g id="Node000008" class="node">
<title>Node8</title>
<g id="a_Node000008"><a xlink:href="namespaceutils.html#a760075559e6ab59c1daec763fab2b488" target="_top" xlink:title=" ">
<polygon fill="white" stroke="#666666" points="428.25,-58 290.75,-58 290.75,-38 428.25,-38 428.25,-58"/>
<text text-anchor="middle" x="359.5" y="-44.5" font-family="Helvetica,sans-Serif" font-size="10.00">utils::DistPointLineSegment</text>
</a>
</g>
</g>
<!-- Node7&#45;&gt;Node8 -->
<g id="edge10_Node000007_Node000008" class="edge">
<title>Node7&#45;&gt;Node8</title>
<g id="a_edge10_Node000007_Node000008"><a xlink:title=" ">
<path fill="none" stroke="#63b8ff" d="M233.07,-48C247.35,-48 263.32,-48 278.97,-48"/>
<polygon fill="#63b8ff" stroke="#63b8ff" points="278.75,-51.5 288.75,-48 278.75,-44.5 278.75,-51.5"/>
</a>
</g>
</g>
<!-- Node8&#45;&gt;Node6 -->
<g id="edge11_Node000008_Node000006" class="edge">
<title>Node8&#45;&gt;Node6</title>
<g id="a_edge11_Node000008_Node000006"><a xlink:title=" ">
<path fill="none" stroke="#63b8ff" d="M405.54,-58.48C424.81,-62.97 447.51,-68.25 467.84,-72.99"/>
<polygon fill="#63b8ff" stroke="#63b8ff" points="466.85,-76.35 477.38,-75.21 468.44,-69.53 466.85,-76.35"/>
</a>
</g>
</g>
<!-- Node9 -->
<g id="Node000009" class="node">
<title>Node9</title>
<g id="a_Node000009"><a xlink:href="struct_vector2f.html#acedb20d25ccc3009546e120eda010bf5" target="_top" xlink:title=" ">
<polygon fill="white" stroke="#666666" points="710.38,-48 623.12,-48 623.12,-28 710.38,-28 710.38,-48"/>
<text text-anchor="middle" x="666.75" y="-34.5" font-family="Helvetica,sans-Serif" font-size="10.00">Vector2f::Length</text>
</a>
</g>
</g>
<!-- Node8&#45;&gt;Node9 -->
<g id="edge12_Node000008_Node000009" class="edge">
<title>Node8&#45;&gt;Node9</title>
<g id="a_edge12_Node000008_Node000009"><a xlink:title=" ">
<path fill="none" stroke="#63b8ff" d="M428.62,-45.77C483.72,-43.96 560.28,-41.46 611.34,-39.78"/>
<polygon fill="#63b8ff" stroke="#63b8ff" points="611.39,-43.28 621.27,-39.46 611.16,-36.29 611.39,-43.28"/>
</a>
</g>
</g>
<!-- Node8&#45;&gt;Node10 -->
<g id="edge13_Node000008_Node000010" class="edge">
<title>Node8&#45;&gt;Node10</title>
<g id="a_edge13_Node000008_Node000010"><a xlink:title=" ">
<path fill="none" stroke="#63b8ff" d="M405.54,-37.52C424.81,-33.03 447.51,-27.75 467.84,-23.01"/>
<polygon fill="#63b8ff" stroke="#63b8ff" points="468.44,-26.47 477.38,-20.79 466.85,-19.65 468.44,-26.47"/>
</a>
</g>
</g>
<!-- Node10&#45;&gt;Node4 -->
<g id="edge15_Node000010_Node000004" class="edge">
<title>Node10&#45;&gt;Node4</title>
<g id="a_edge15_Node000010_Node000004"><a xlink:title=" ">
<path fill="none" stroke="#63b8ff" d="M542.92,-20.42C566.98,-35.03 610.95,-61.73 639.23,-78.9"/>
<polygon fill="#63b8ff" stroke="#63b8ff" points="637.22,-81.77 647.59,-83.97 640.85,-75.79 637.22,-81.77"/>
</a>
</g>
</g>
<!-- Node10&#45;&gt;Node9 -->
<g id="edge14_Node000010_Node000009" class="edge">
<title>Node10&#45;&gt;Node9</title>
<g id="a_edge14_Node000010_Node000009"><a xlink:title=" ">
<path fill="none" stroke="#63b8ff" d="M577.88,-20.43C588.84,-22.62 600.43,-24.94 611.47,-27.14"/>
<polygon fill="#63b8ff" stroke="#63b8ff" points="610.75,-30.57 621.24,-29.1 612.12,-23.71 610.75,-30.57"/>
</a>
</g>
</g>
<!-- Node11&#45;&gt;Node4 -->
<g id="edge18_Node000011_Node000004" class="edge">
<title>Node11&#45;&gt;Node4</title>
<g id="a_edge18_Node000011_Node000004"><a xlink:title=" ">
<path fill="none" stroke="#63b8ff" d="M412.29,-163.99C458.36,-164.27 527.02,-161 583.75,-143 605.49,-136.1 627.68,-122.65 643.48,-111.73"/>
<polygon fill="#63b8ff" stroke="#63b8ff" points="645.09,-114.88 651.2,-106.23 641.02,-109.19 645.09,-114.88"/>
</a>
</g>
</g>
</g>
</svg>
