<?xml version="1.0" encoding="UTF-8" standalone="no"?>
<!DOCTYPE svg PUBLIC "-//W3C//DTD SVG 1.1//EN"
 "http://www.w3.org/Graphics/SVG/1.1/DTD/svg11.dtd">
<!-- Generated by graphviz version 12.2.1 (20241206.2353)
 -->
<!-- Title: utils::IsOverlapping Pages: 1 -->
<svg width="691pt" height="94pt"
 viewBox="0.00 0.00 691.00 94.00" xmlns="http://www.w3.org/2000/svg" xmlns:xlink="http://www.w3.org/1999/xlink">
<g id="graph0" class="graph" transform="scale(1 1) rotate(0) translate(4 90)">
<title>utils::IsOverlapping</title>
<!-- Node1 -->
<g id="Node000001" class="node">
<title>Node1</title>
<g id="a_Node000001"><a xlink:title=" ">
<polygon fill="#999999" stroke="#666666" points="100,-48 0,-48 0,-28 100,-28 100,-48"/>
<text text-anchor="middle" x="50" y="-34.5" font-family="Helvetica,sans-Serif" font-size="10.00">utils::IsOverlapping</text>
</a>
</g>
</g>
<!-- Node2 -->
<g id="Node000002" class="node">
<title>Node2</title>
<g id="a_Node000002"><a xlink:href="namespaceutils.html#a11a0eb68e467a22aed74f507057c39ed" target="_top" xlink:title=" ">
<polygon fill="white" stroke="#666666" points="236,-48 136,-48 136,-28 236,-28 236,-48"/>
<text text-anchor="middle" x="186" y="-34.5" font-family="Helvetica,sans-Serif" font-size="10.00">utils::IsOverlapping</text>
</a>
</g>
</g>
<!-- Node1&#45;&gt;Node2 -->
<g id="edge1_Node000001_Node000002" class="edge">
<title>Node1&#45;&gt;Node2</title>
<g id="a_edge1_Node000001_Node000002"><a xlink:title=" ">
<path fill="none" stroke="#63b8ff" d="M100.14,-38C108.06,-38 116.33,-38 124.48,-38"/>
<polygon fill="#63b8ff" stroke="#63b8ff" points="124.36,-41.5 134.36,-38 124.36,-34.5 124.36,-41.5"/>
</a>
</g>
</g>
<!-- Node3 -->
<g id="Node000003" class="node">
<title>Node3</title>
<g id="a_Node000003"><a xlink:href="namespaceutils.html#a760075559e6ab59c1daec763fab2b488" target="_top" xlink:title=" ">
<polygon fill="white" stroke="#666666" points="409.5,-48 272,-48 272,-28 409.5,-28 409.5,-48"/>
<text text-anchor="middle" x="340.75" y="-34.5" font-family="Helvetica,sans-Serif" font-size="10.00">utils::DistPointLineSegment</text>
</a>
</g>
</g>
<!-- Node2&#45;&gt;Node3 -->
<g id="edge2_Node000002_Node000003" class="edge">
<title>Node2&#45;&gt;Node3</title>
<g id="a_edge2_Node000002_Node000003"><a xlink:title=" ">
<path fill="none" stroke="#63b8ff" d="M236.17,-38C243.97,-38 252.2,-38 260.47,-38"/>
<polygon fill="#63b8ff" stroke="#63b8ff" points="260.23,-41.5 270.23,-38 260.23,-34.5 260.23,-41.5"/>
</a>
</g>
</g>
<!-- Node4 -->
<g id="Node000004" class="node">
<title>Node4</title>
<g id="a_Node000004"><a xlink:href="struct_vector2f.html#af8ceb9310d7065eb485e47b072a5b143" target="_top" xlink:title=" ">
<polygon fill="white" stroke="#666666" points="553,-86 445.5,-86 445.5,-66 553,-66 553,-86"/>
<text text-anchor="middle" x="499.25" y="-72.5" font-family="Helvetica,sans-Serif" font-size="10.00">Vector2f::DotProduct</text>
</a>
</g>
</g>
<!-- Node3&#45;&gt;Node4 -->
<g id="edge3_Node000003_Node000004" class="edge">
<title>Node3&#45;&gt;Node4</title>
<g id="a_edge3_Node000003_Node000004"><a xlink:title=" ">
<path fill="none" stroke="#63b8ff" d="M384.93,-48.48C403.23,-52.93 424.76,-58.16 444.11,-62.85"/>
<polygon fill="#63b8ff" stroke="#63b8ff" points="443.2,-66.23 453.74,-65.19 444.85,-59.43 443.2,-66.23"/>
</a>
</g>
</g>
<!-- Node6 -->
<g id="Node000006" class="node">
<title>Node6</title>
<g id="a_Node000006"><a xlink:href="struct_vector2f.html#acedb20d25ccc3009546e120eda010bf5" target="_top" xlink:title=" ">
<polygon fill="white" stroke="#666666" points="679.62,-20 592.38,-20 592.38,0 679.62,0 679.62,-20"/>
<text text-anchor="middle" x="636" y="-6.5" font-family="Helvetica,sans-Serif" font-size="10.00">Vector2f::Length</text>
</a>
</g>
</g>
<!-- Node3&#45;&gt;Node6 -->
<g id="edge6_Node000003_Node000006" class="edge">
<title>Node3&#45;&gt;Node6</title>
<g id="a_edge6_Node000003_Node000006"><a xlink:title=" ">
<path fill="none" stroke="#63b8ff" d="M391.42,-27.51C408.49,-24.28 427.76,-21.04 445.5,-19 490.87,-13.79 542.68,-11.59 580.65,-10.66"/>
<polygon fill="#63b8ff" stroke="#63b8ff" points="580.54,-14.16 590.46,-10.44 580.38,-7.16 580.54,-14.16"/>
</a>
</g>
</g>
<!-- Node7 -->
<g id="Node000007" class="node">
<title>Node7</title>
<g id="a_Node000007"><a xlink:href="struct_vector2f.html#aba5dd756c385551a19d36b57d8cbf629" target="_top" xlink:title=" ">
<polygon fill="white" stroke="#666666" points="553,-48 445.5,-48 445.5,-28 553,-28 553,-48"/>
<text text-anchor="middle" x="499.25" y="-34.5" font-family="Helvetica,sans-Serif" font-size="10.00">Vector2f::Normalized</text>
</a>
</g>
</g>
<!-- Node3&#45;&gt;Node7 -->
<g id="edge7_Node000003_Node000007" class="edge">
<title>Node3&#45;&gt;Node7</title>
<g id="a_edge7_Node000003_Node000007"><a xlink:title=" ">
<path fill="none" stroke="#63b8ff" d="M409.94,-38C417.91,-38 426.02,-38 433.93,-38"/>
<polygon fill="#63b8ff" stroke="#63b8ff" points="433.83,-41.5 443.83,-38 433.83,-34.5 433.83,-41.5"/>
</a>
</g>
</g>
<!-- Node5 -->
<g id="Node000005" class="node">
<title>Node5</title>
<g id="a_Node000005"><a xlink:href="struct_vector2f.html#a3db9a868c58bc809e5e09a88d65a77ec" target="_top" xlink:title=" ">
<polygon fill="white" stroke="#666666" points="683,-67 589,-67 589,-47 683,-47 683,-67"/>
<text text-anchor="middle" x="636" y="-53.5" font-family="Helvetica,sans-Serif" font-size="10.00">Vector2f::Vector2f</text>
</a>
</g>
</g>
<!-- Node4&#45;&gt;Node5 -->
<g id="edge4_Node000004_Node000005" class="edge">
<title>Node4&#45;&gt;Node5</title>
<g id="a_edge4_Node000004_Node000005"><a xlink:title=" ">
<path fill="none" stroke="#63b8ff" d="M553.12,-68.55C561.14,-67.41 569.44,-66.24 577.55,-65.1"/>
<polygon fill="#63b8ff" stroke="#63b8ff" points="577.93,-68.58 587.34,-63.72 576.95,-61.65 577.93,-68.58"/>
</a>
</g>
</g>
<!-- Node5&#45;&gt;Node5 -->
<g id="edge5_Node000005_Node000005" class="edge">
<title>Node5&#45;&gt;Node5</title>
<g id="a_edge5_Node000005_Node000005"><a xlink:title=" ">
<path fill="none" stroke="#63b8ff" d="M614.27,-67.34C604.99,-75.98 612.23,-85 636,-85 649,-85 657.06,-82.3 660.17,-78.44"/>
<polygon fill="#63b8ff" stroke="#63b8ff" points="663.62,-77.83 658.05,-68.82 656.78,-79.34 663.62,-77.83"/>
</a>
</g>
</g>
<!-- Node7&#45;&gt;Node5 -->
<g id="edge9_Node000007_Node000005" class="edge">
<title>Node7&#45;&gt;Node5</title>
<g id="a_edge9_Node000007_Node000005"><a xlink:title=" ">
<path fill="none" stroke="#63b8ff" d="M553.12,-45.45C561.14,-46.59 569.44,-47.76 577.55,-48.9"/>
<polygon fill="#63b8ff" stroke="#63b8ff" points="576.95,-52.35 587.34,-50.28 577.93,-45.42 576.95,-52.35"/>
</a>
</g>
</g>
<!-- Node7&#45;&gt;Node6 -->
<g id="edge8_Node000007_Node000006" class="edge">
<title>Node7&#45;&gt;Node6</title>
<g id="a_edge8_Node000007_Node000006"><a xlink:title=" ">
<path fill="none" stroke="#63b8ff" d="M550.43,-27.57C560.43,-25.5 570.97,-23.3 581.1,-21.2"/>
<polygon fill="#63b8ff" stroke="#63b8ff" points="581.73,-24.64 590.81,-19.18 580.31,-17.79 581.73,-24.64"/>
</a>
</g>
</g>
</g>
</svg>
