<?xml version="1.0" encoding="UTF-8" standalone="no"?>
<!DOCTYPE svg PUBLIC "-//W3C//DTD SVG 1.1//EN"
 "http://www.w3.org/Graphics/SVG/1.1/DTD/svg11.dtd">
<!-- Generated by graphviz version 12.2.1 (20241206.2353)
 -->
<!-- Title: utils::IsOverlapping Pages: 1 -->
<svg width="555pt" height="160pt"
 viewBox="0.00 0.00 555.00 160.00" xmlns="http://www.w3.org/2000/svg" xmlns:xlink="http://www.w3.org/1999/xlink">
<g id="graph0" class="graph" transform="scale(1 1) rotate(0) translate(4 156)">
<title>utils::IsOverlapping</title>
<!-- Node1 -->
<g id="Node000001" class="node">
<title>Node1</title>
<g id="a_Node000001"><a xlink:title=" ">
<polygon fill="#999999" stroke="#666666" points="100,-76 0,-76 0,-56 100,-56 100,-76"/>
<text text-anchor="middle" x="50" y="-62.5" font-family="Helvetica,sans-Serif" font-size="10.00">utils::IsOverlapping</text>
</a>
</g>
</g>
<!-- Node2 -->
<g id="Node000002" class="node">
<title>Node2</title>
<g id="a_Node000002"><a xlink:href="namespaceutils.html#a760075559e6ab59c1daec763fab2b488" target="_top" xlink:title=" ">
<polygon fill="white" stroke="#666666" points="273.5,-114 136,-114 136,-94 273.5,-94 273.5,-114"/>
<text text-anchor="middle" x="204.75" y="-100.5" font-family="Helvetica,sans-Serif" font-size="10.00">utils::DistPointLineSegment</text>
</a>
</g>
</g>
<!-- Node1&#45;&gt;Node2 -->
<g id="edge1_Node000001_Node000002" class="edge">
<title>Node1&#45;&gt;Node2</title>
<g id="a_edge1_Node000001_Node000002"><a xlink:title=" ">
<path fill="none" stroke="#63b8ff" d="M93.14,-76.48C110.92,-80.91 131.83,-86.11 150.64,-90.79"/>
<polygon fill="#63b8ff" stroke="#63b8ff" points="149.73,-94.17 160.27,-93.18 151.42,-87.37 149.73,-94.17"/>
</a>
</g>
</g>
<!-- Node7 -->
<g id="Node000007" class="node">
<title>Node7</title>
<g id="a_Node000007"><a xlink:href="namespaceutils.html#ab3d6c8d0c1fcd12ad5e7ca2535b0f1a5" target="_top" xlink:title=" ">
<polygon fill="white" stroke="#666666" points="257,-76 152.5,-76 152.5,-56 257,-56 257,-76"/>
<text text-anchor="middle" x="204.75" y="-62.5" font-family="Helvetica,sans-Serif" font-size="10.00">utils::IsPointInCircle</text>
</a>
</g>
</g>
<!-- Node1&#45;&gt;Node7 -->
<g id="edge9_Node000001_Node000007" class="edge">
<title>Node1&#45;&gt;Node7</title>
<g id="a_edge9_Node000001_Node000007"><a xlink:title=" ">
<path fill="none" stroke="#63b8ff" d="M100.17,-66C113.12,-66 127.26,-66 140.82,-66"/>
<polygon fill="#63b8ff" stroke="#63b8ff" points="140.53,-69.5 150.53,-66 140.53,-62.5 140.53,-69.5"/>
</a>
</g>
</g>
<!-- Node8 -->
<g id="Node000008" class="node">
<title>Node8</title>
<g id="a_Node000008"><a xlink:href="namespaceutils.html#a83962650bff2e24a62897e49b7137af0" target="_top" xlink:title=" ">
<polygon fill="white" stroke="#666666" points="261.88,-20 147.62,-20 147.62,0 261.88,0 261.88,-20"/>
<text text-anchor="middle" x="204.75" y="-6.5" font-family="Helvetica,sans-Serif" font-size="10.00">utils::IsPointInPolygon</text>
</a>
</g>
</g>
<!-- Node1&#45;&gt;Node8 -->
<g id="edge10_Node000001_Node000008" class="edge">
<title>Node1&#45;&gt;Node8</title>
<g id="a_edge10_Node000001_Node000008"><a xlink:title=" ">
<path fill="none" stroke="#63b8ff" d="M79.37,-55.6C103.41,-46.79 138.12,-34.06 164.76,-24.29"/>
<polygon fill="#63b8ff" stroke="#63b8ff" points="165.66,-27.69 173.85,-20.96 163.26,-21.12 165.66,-27.69"/>
</a>
</g>
</g>
<!-- Node3 -->
<g id="Node000003" class="node">
<title>Node3</title>
<g id="a_Node000003"><a xlink:href="struct_vector2f.html#af8ceb9310d7065eb485e47b072a5b143" target="_top" xlink:title=" ">
<polygon fill="white" stroke="#666666" points="417,-152 309.5,-152 309.5,-132 417,-132 417,-152"/>
<text text-anchor="middle" x="363.25" y="-138.5" font-family="Helvetica,sans-Serif" font-size="10.00">Vector2f::DotProduct</text>
</a>
</g>
</g>
<!-- Node2&#45;&gt;Node3 -->
<g id="edge2_Node000002_Node000003" class="edge">
<title>Node2&#45;&gt;Node3</title>
<g id="a_edge2_Node000002_Node000003"><a xlink:title=" ">
<path fill="none" stroke="#63b8ff" d="M248.93,-114.48C267.23,-118.93 288.76,-124.16 308.11,-128.85"/>
<polygon fill="#63b8ff" stroke="#63b8ff" points="307.2,-132.23 317.74,-131.19 308.85,-125.43 307.2,-132.23"/>
</a>
</g>
</g>
<!-- Node5 -->
<g id="Node000005" class="node">
<title>Node5</title>
<g id="a_Node000005"><a xlink:href="struct_vector2f.html#acedb20d25ccc3009546e120eda010bf5" target="_top" xlink:title=" ">
<polygon fill="white" stroke="#666666" points="543.62,-86 456.38,-86 456.38,-66 543.62,-66 543.62,-86"/>
<text text-anchor="middle" x="500" y="-72.5" font-family="Helvetica,sans-Serif" font-size="10.00">Vector2f::Length</text>
</a>
</g>
</g>
<!-- Node2&#45;&gt;Node5 -->
<g id="edge5_Node000002_Node000005" class="edge">
<title>Node2&#45;&gt;Node5</title>
<g id="a_edge5_Node000002_Node000005"><a xlink:title=" ">
<path fill="none" stroke="#63b8ff" d="M255.42,-93.51C272.49,-90.28 291.76,-87.04 309.5,-85 354.87,-79.79 406.68,-77.59 444.65,-76.66"/>
<polygon fill="#63b8ff" stroke="#63b8ff" points="444.54,-80.16 454.46,-76.44 444.38,-73.16 444.54,-80.16"/>
</a>
</g>
</g>
<!-- Node6 -->
<g id="Node000006" class="node">
<title>Node6</title>
<g id="a_Node000006"><a xlink:href="struct_vector2f.html#aba5dd756c385551a19d36b57d8cbf629" target="_top" xlink:title=" ">
<polygon fill="white" stroke="#666666" points="417,-114 309.5,-114 309.5,-94 417,-94 417,-114"/>
<text text-anchor="middle" x="363.25" y="-100.5" font-family="Helvetica,sans-Serif" font-size="10.00">Vector2f::Normalized</text>
</a>
</g>
</g>
<!-- Node2&#45;&gt;Node6 -->
<g id="edge6_Node000002_Node000006" class="edge">
<title>Node2&#45;&gt;Node6</title>
<g id="a_edge6_Node000002_Node000006"><a xlink:title=" ">
<path fill="none" stroke="#63b8ff" d="M273.94,-104C281.91,-104 290.02,-104 297.93,-104"/>
<polygon fill="#63b8ff" stroke="#63b8ff" points="297.83,-107.5 307.83,-104 297.83,-100.5 297.83,-107.5"/>
</a>
</g>
</g>
<!-- Node4 -->
<g id="Node000004" class="node">
<title>Node4</title>
<g id="a_Node000004"><a xlink:href="struct_vector2f.html#a3db9a868c58bc809e5e09a88d65a77ec" target="_top" xlink:title=" ">
<polygon fill="white" stroke="#666666" points="547,-133 453,-133 453,-113 547,-113 547,-133"/>
<text text-anchor="middle" x="500" y="-119.5" font-family="Helvetica,sans-Serif" font-size="10.00">Vector2f::Vector2f</text>
</a>
</g>
</g>
<!-- Node3&#45;&gt;Node4 -->
<g id="edge3_Node000003_Node000004" class="edge">
<title>Node3&#45;&gt;Node4</title>
<g id="a_edge3_Node000003_Node000004"><a xlink:title=" ">
<path fill="none" stroke="#63b8ff" d="M417.12,-134.55C425.14,-133.41 433.44,-132.24 441.55,-131.1"/>
<polygon fill="#63b8ff" stroke="#63b8ff" points="441.93,-134.58 451.34,-129.72 440.95,-127.65 441.93,-134.58"/>
</a>
</g>
</g>
<!-- Node4&#45;&gt;Node4 -->
<g id="edge4_Node000004_Node000004" class="edge">
<title>Node4&#45;&gt;Node4</title>
<g id="a_edge4_Node000004_Node000004"><a xlink:title=" ">
<path fill="none" stroke="#63b8ff" d="M478.27,-133.34C468.99,-141.98 476.23,-151 500,-151 513,-151 521.06,-148.3 524.17,-144.44"/>
<polygon fill="#63b8ff" stroke="#63b8ff" points="527.62,-143.83 522.05,-134.82 520.78,-145.34 527.62,-143.83"/>
</a>
</g>
</g>
<!-- Node6&#45;&gt;Node4 -->
<g id="edge8_Node000006_Node000004" class="edge">
<title>Node6&#45;&gt;Node4</title>
<g id="a_edge8_Node000006_Node000004"><a xlink:title=" ">
<path fill="none" stroke="#63b8ff" d="M417.12,-111.45C425.14,-112.59 433.44,-113.76 441.55,-114.9"/>
<polygon fill="#63b8ff" stroke="#63b8ff" points="440.95,-118.35 451.34,-116.28 441.93,-111.42 440.95,-118.35"/>
</a>
</g>
</g>
<!-- Node6&#45;&gt;Node5 -->
<g id="edge7_Node000006_Node000005" class="edge">
<title>Node6&#45;&gt;Node5</title>
<g id="a_edge7_Node000006_Node000005"><a xlink:title=" ">
<path fill="none" stroke="#63b8ff" d="M414.43,-93.57C424.43,-91.5 434.97,-89.3 445.1,-87.2"/>
<polygon fill="#63b8ff" stroke="#63b8ff" points="445.73,-90.64 454.81,-85.18 444.31,-83.79 445.73,-90.64"/>
</a>
</g>
</g>
<!-- Node8&#45;&gt;Node8 -->
<g id="edge11_Node000008_Node000008" class="edge">
<title>Node8&#45;&gt;Node8</title>
<g id="a_edge11_Node000008_Node000008"><a xlink:title=" ">
<path fill="none" stroke="#63b8ff" d="M180.16,-20.34C169.65,-28.98 177.85,-38 204.75,-38 219.46,-38 228.58,-35.3 232.1,-31.44"/>
<polygon fill="#63b8ff" stroke="#63b8ff" points="235.51,-30.67 229.7,-21.81 228.72,-32.36 235.51,-30.67"/>
</a>
</g>
</g>
</g>
</svg>
