<?xml version="1.0" encoding="UTF-8" standalone="no"?>
<!DOCTYPE svg PUBLIC "-//W3C//DTD SVG 1.1//EN"
 "http://www.w3.org/Graphics/SVG/1.1/DTD/svg11.dtd">
<!-- Generated by graphviz version 12.2.1 (20241206.2353)
 -->
<!-- Title: utils::SetColor Pages: 1 -->
<svg width="412pt" height="230pt"
 viewBox="0.00 0.00 411.50 230.00" xmlns="http://www.w3.org/2000/svg" xmlns:xlink="http://www.w3.org/1999/xlink">
<g id="graph0" class="graph" transform="scale(1 1) rotate(0) translate(4 226)">
<title>utils::SetColor</title>
<!-- Node1 -->
<g id="Node000001" class="node">
<title>Node1</title>
<g id="a_Node000001"><a xlink:title=" ">
<polygon fill="#999999" stroke="#666666" points="403.5,-115 325.25,-115 325.25,-95 403.5,-95 403.5,-115"/>
<text text-anchor="middle" x="364.38" y="-101.5" font-family="Helvetica,sans-Serif" font-size="10.00">utils::SetColor</text>
</a>
</g>
</g>
<!-- Node2 -->
<g id="Node000002" class="node">
<title>Node2</title>
<g id="a_Node000002"><a xlink:href="class_character.html#aaebd94374341315365dfae0e607baac5" target="_top" xlink:title=" ">
<polygon fill="white" stroke="#666666" points="264.12,-222 176.12,-222 176.12,-202 264.12,-202 264.12,-222"/>
<text text-anchor="middle" x="220.12" y="-208.5" font-family="Helvetica,sans-Serif" font-size="10.00">Character::Draw</text>
</a>
</g>
</g>
<!-- Node1&#45;&gt;Node2 -->
<g id="edge1_Node000001_Node000002" class="edge">
<title>Node1&#45;&gt;Node2</title>
<g id="a_edge1_Node000001_Node000002"><a xlink:title=" ">
<path fill="none" stroke="#63b8ff" d="M351.52,-125.16C338.66,-145.27 316.31,-175.6 289.25,-193 281.81,-197.78 273.17,-201.38 264.59,-204.07"/>
<polygon fill="#63b8ff" stroke="#63b8ff" points="354.44,-127.08 356.71,-116.73 348.48,-123.41 354.44,-127.08"/>
</a>
</g>
</g>
<!-- Node3 -->
<g id="Node000003" class="node">
<title>Node3</title>
<g id="a_Node000003"><a xlink:href="class_character_texture_manager.html#a9d595fd4517d4fa5db7757c5c609a36e" target="_top" xlink:title=" ">
<polygon fill="white" stroke="#666666" points="284.38,-184 155.88,-184 155.88,-152 284.38,-152 284.38,-184"/>
<text text-anchor="start" x="163.88" y="-170.5" font-family="Helvetica,sans-Serif" font-size="10.00">CharacterTextureManager</text>
<text text-anchor="middle" x="220.12" y="-158.5" font-family="Helvetica,sans-Serif" font-size="10.00">::Draw</text>
</a>
</g>
</g>
<!-- Node1&#45;&gt;Node3 -->
<g id="edge2_Node000001_Node000003" class="edge">
<title>Node1&#45;&gt;Node3</title>
<g id="a_edge2_Node000001_Node000003"><a xlink:title=" ">
<path fill="none" stroke="#63b8ff" d="M334.34,-120.92C320.82,-128.07 304.41,-136.36 289.25,-143 282.56,-145.93 275.4,-148.82 268.33,-151.53"/>
<polygon fill="#63b8ff" stroke="#63b8ff" points="335.99,-124.01 343.15,-116.21 332.68,-117.84 335.99,-124.01"/>
</a>
</g>
</g>
<!-- Node4 -->
<g id="Node000004" class="node">
<title>Node4</title>
<g id="a_Node000004"><a xlink:href="class_pause_menu.html#a409928f2d75d3a7f865d75d23aeb50d6" target="_top" xlink:title=" ">
<polygon fill="white" stroke="#666666" points="268.62,-134 171.62,-134 171.62,-114 268.62,-114 268.62,-134"/>
<text text-anchor="middle" x="220.12" y="-120.5" font-family="Helvetica,sans-Serif" font-size="10.00">PauseMenu::Draw</text>
</a>
</g>
</g>
<!-- Node1&#45;&gt;Node4 -->
<g id="edge3_Node000001_Node000004" class="edge">
<title>Node1&#45;&gt;Node4</title>
<g id="a_edge3_Node000001_Node000004"><a xlink:title=" ">
<path fill="none" stroke="#63b8ff" d="M313.62,-111.65C299.16,-113.58 283.4,-115.68 269.06,-117.6"/>
<polygon fill="#63b8ff" stroke="#63b8ff" points="313.93,-115.14 323.38,-110.34 313,-108.2 313.93,-115.14"/>
</a>
</g>
</g>
<!-- Node6 -->
<g id="Node000006" class="node">
<title>Node6</title>
<g id="a_Node000006"><a xlink:href="class_snow_flake_manager.html#ac970433acd611cefd4db963e0b2c2fe6" target="_top" xlink:title=" ">
<polygon fill="white" stroke="#666666" points="285.88,-96 154.38,-96 154.38,-76 285.88,-76 285.88,-96"/>
<text text-anchor="middle" x="220.12" y="-82.5" font-family="Helvetica,sans-Serif" font-size="10.00">SnowFlakeManager::Draw</text>
</a>
</g>
</g>
<!-- Node1&#45;&gt;Node6 -->
<g id="edge5_Node000001_Node000006" class="edge">
<title>Node1&#45;&gt;Node6</title>
<g id="a_edge5_Node000001_Node000006"><a xlink:title=" ">
<path fill="none" stroke="#63b8ff" d="M313.59,-98.35C304.75,-97.17 295.43,-95.92 286.24,-94.7"/>
<polygon fill="#63b8ff" stroke="#63b8ff" points="313,-101.8 323.38,-99.66 313.93,-94.86 313,-101.8"/>
</a>
</g>
</g>
<!-- Node7 -->
<g id="Node000007" class="node">
<title>Node7</title>
<g id="a_Node000007"><a xlink:href="struct_vector2x2f.html#add10252cf42f6ff41c01f7619f1fa9c8" target="_top" xlink:title=" ">
<polygon fill="white" stroke="#666666" points="266,-58 174.25,-58 174.25,-38 266,-38 266,-58"/>
<text text-anchor="middle" x="220.12" y="-44.5" font-family="Helvetica,sans-Serif" font-size="10.00">Vector2x2f::Draw</text>
</a>
</g>
</g>
<!-- Node1&#45;&gt;Node7 -->
<g id="edge6_Node000001_Node000007" class="edge">
<title>Node1&#45;&gt;Node7</title>
<g id="a_edge6_Node000001_Node000007"><a xlink:title=" ">
<path fill="none" stroke="#63b8ff" d="M335.81,-89.19C322.11,-81.77 305.13,-73.21 289.25,-67 281.13,-63.82 272.28,-60.95 263.72,-58.45"/>
<polygon fill="#63b8ff" stroke="#63b8ff" points="333.8,-92.07 344.25,-93.85 337.19,-85.95 333.8,-92.07"/>
</a>
</g>
</g>
<!-- Node8 -->
<g id="Node000008" class="node">
<title>Node8</title>
<g id="a_Node000008"><a xlink:href="class_slider_menu_item.html#a2e9e1a49f05d0450ef6af9ef0c31cc50" target="_top" xlink:title=" ">
<polygon fill="white" stroke="#666666" points="289.25,-20 151,-20 151,0 289.25,0 289.25,-20"/>
<text text-anchor="middle" x="220.12" y="-6.5" font-family="Helvetica,sans-Serif" font-size="10.00">SliderMenuItem::DrawSlider</text>
</a>
</g>
</g>
<!-- Node1&#45;&gt;Node8 -->
<g id="edge7_Node000001_Node000008" class="edge">
<title>Node1&#45;&gt;Node8</title>
<g id="a_edge7_Node000001_Node000008"><a xlink:title=" ">
<path fill="none" stroke="#63b8ff" d="M349.63,-86.01C336.13,-68.7 314,-43.67 289.25,-29 283.44,-25.56 276.98,-22.72 270.42,-20.38"/>
<polygon fill="#63b8ff" stroke="#63b8ff" points="346.47,-87.64 355.29,-93.51 352.06,-83.42 346.47,-87.64"/>
</a>
</g>
</g>
<!-- Node5 -->
<g id="Node000005" class="node">
<title>Node5</title>
<g id="a_Node000005"><a xlink:href="class_pause_menu.html#a7836f2da72d5d33788330340be6bcb0d" target="_top" xlink:title=" ">
<polygon fill="white" stroke="#666666" points="115,-134 0,-134 0,-114 115,-114 115,-134"/>
<text text-anchor="middle" x="57.5" y="-120.5" font-family="Helvetica,sans-Serif" font-size="10.00">PauseMenu::operator=</text>
</a>
</g>
</g>
<!-- Node4&#45;&gt;Node5 -->
<g id="edge4_Node000004_Node000005" class="edge">
<title>Node4&#45;&gt;Node5</title>
<g id="a_edge4_Node000004_Node000005"><a xlink:title=" ">
<path fill="none" stroke="#63b8ff" d="M159.95,-124C145.41,-124 129.86,-124 115.43,-124"/>
<polygon fill="#63b8ff" stroke="#63b8ff" points="159.85,-127.5 169.85,-124 159.85,-120.5 159.85,-127.5"/>
</a>
</g>
</g>
<!-- Node9 -->
<g id="Node000009" class="node">
<title>Node9</title>
<g id="a_Node000009"><a xlink:href="class_slider_menu_item.html#ab4a20e4b5122b3a824e797dac43eee8d" target="_top" xlink:title=" ">
<polygon fill="white" stroke="#666666" points="114.25,-20 0.75,-20 0.75,0 114.25,0 114.25,-20"/>
<text text-anchor="middle" x="57.5" y="-6.5" font-family="Helvetica,sans-Serif" font-size="10.00">SliderMenuItem::Draw</text>
</a>
</g>
</g>
<!-- Node8&#45;&gt;Node9 -->
<g id="edge8_Node000008_Node000009" class="edge">
<title>Node8&#45;&gt;Node9</title>
<g id="a_edge8_Node000008_Node000009"><a xlink:title=" ">
<path fill="none" stroke="#63b8ff" d="M139.12,-10C130.71,-10 122.3,-10 114.26,-10"/>
<polygon fill="#63b8ff" stroke="#63b8ff" points="139.03,-13.5 149.03,-10 139.03,-6.5 139.03,-13.5"/>
</a>
</g>
</g>
</g>
</svg>
