<?xml version="1.0" encoding="UTF-8" standalone="no"?>
<!DOCTYPE svg PUBLIC "-//W3C//DTD SVG 1.1//EN"
 "http://www.w3.org/Graphics/SVG/1.1/DTD/svg11.dtd">
<!-- Generated by graphviz version 12.2.1 (20241206.2353)
 -->
<!-- Title: Vector2f::Length Pages: 1 -->
<svg width="902pt" height="452pt"
 viewBox="0.00 0.00 902.00 452.00" xmlns="http://www.w3.org/2000/svg" xmlns:xlink="http://www.w3.org/1999/xlink">
<g id="graph0" class="graph" transform="scale(1 1) rotate(0) translate(4 448)">
<title>Vector2f::Length</title>
<!-- Node1 -->
<g id="Node000001" class="node">
<title>Node1</title>
<g id="a_Node000001"><a xlink:title=" ">
<polygon fill="#999999" stroke="#666666" points="894,-140 806.75,-140 806.75,-120 894,-120 894,-140"/>
<text text-anchor="middle" x="850.38" y="-126.5" font-family="Helvetica,sans-Serif" font-size="10.00">Vector2f::Length</text>
</a>
</g>
</g>
<!-- Node2 -->
<g id="Node000002" class="node">
<title>Node2</title>
<g id="a_Node000002"><a xlink:href="namespaceutils.html#a760075559e6ab59c1daec763fab2b488" target="_top" xlink:title=" ">
<polygon fill="white" stroke="#666666" points="627.25,-197 489.75,-197 489.75,-177 627.25,-177 627.25,-197"/>
<text text-anchor="middle" x="558.5" y="-183.5" font-family="Helvetica,sans-Serif" font-size="10.00">utils::DistPointLineSegment</text>
</a>
</g>
</g>
<!-- Node1&#45;&gt;Node2 -->
<g id="edge1_Node000001_Node000002" class="edge">
<title>Node1&#45;&gt;Node2</title>
<g id="a_edge1_Node000001_Node000002"><a xlink:title=" ">
<path fill="none" stroke="#63b8ff" d="M822.64,-145.91C807.86,-153.93 788.86,-162.99 770.75,-168 724.08,-180.91 669.62,-185.57 627.68,-187.05"/>
<polygon fill="#63b8ff" stroke="#63b8ff" points="824.26,-149.01 831.27,-141.07 820.84,-142.91 824.26,-149.01"/>
</a>
</g>
</g>
<!-- Node20 -->
<g id="Node000020" class="node">
<title>Node20</title>
<g id="a_Node000020"><a xlink:href="struct_vector2f.html#aa127d5e4e295e08fd9188263b0e5b65c" target="_top" xlink:title=" ">
<polygon fill="white" stroke="#666666" points="758,-159 676,-159 676,-139 758,-139 758,-159"/>
<text text-anchor="middle" x="717" y="-145.5" font-family="Helvetica,sans-Serif" font-size="10.00">Vector2f::Norm</text>
</a>
</g>
</g>
<!-- Node1&#45;&gt;Node20 -->
<g id="edge20_Node000001_Node000020" class="edge">
<title>Node1&#45;&gt;Node20</title>
<g id="a_edge20_Node000001_Node000020"><a xlink:title=" ">
<path fill="none" stroke="#63b8ff" d="M795.26,-137.83C782.94,-139.61 770.07,-141.47 758.44,-143.15"/>
<polygon fill="#63b8ff" stroke="#63b8ff" points="795.46,-141.33 804.86,-136.44 794.46,-134.41 795.46,-141.33"/>
</a>
</g>
</g>
<!-- Node21 -->
<g id="Node000021" class="node">
<title>Node21</title>
<g id="a_Node000021"><a xlink:href="struct_vector2f.html#aba5dd756c385551a19d36b57d8cbf629" target="_top" xlink:title=" ">
<polygon fill="white" stroke="#666666" points="770.75,-121 663.25,-121 663.25,-101 770.75,-101 770.75,-121"/>
<text text-anchor="middle" x="717" y="-107.5" font-family="Helvetica,sans-Serif" font-size="10.00">Vector2f::Normalized</text>
</a>
</g>
</g>
<!-- Node1&#45;&gt;Node21 -->
<g id="edge21_Node000001_Node000021" class="edge">
<title>Node1&#45;&gt;Node21</title>
<g id="a_edge21_Node000001_Node000021"><a xlink:title=" ">
<path fill="none" stroke="#63b8ff" d="M795.04,-122.14C787.16,-121 779.07,-119.83 771.22,-118.7"/>
<polygon fill="#63b8ff" stroke="#63b8ff" points="794.46,-125.59 804.86,-123.56 795.46,-118.67 794.46,-125.59"/>
</a>
</g>
</g>
<!-- Node23 -->
<g id="Node000023" class="node">
<title>Node23</title>
<g id="a_Node000023"><a xlink:href="class_hair.html#ac5b20368fbcda3f186dc37e3f6d17be1" target="_top" xlink:title=" ">
<polygon fill="white" stroke="#666666" points="608.12,-83 508.88,-83 508.88,-63 608.12,-63 608.12,-83"/>
<text text-anchor="middle" x="558.5" y="-69.5" font-family="Helvetica,sans-Serif" font-size="10.00">Hair::SetPartOffset</text>
</a>
</g>
</g>
<!-- Node1&#45;&gt;Node23 -->
<g id="edge27_Node000001_Node000023" class="edge">
<title>Node1&#45;&gt;Node23</title>
<g id="a_edge27_Node000001_Node000023"><a xlink:title=" ">
<path fill="none" stroke="#63b8ff" d="M822.64,-114.09C807.86,-106.07 788.86,-97.01 770.75,-92 716.45,-76.98 651.6,-73.12 608.2,-72.46"/>
<polygon fill="#63b8ff" stroke="#63b8ff" points="820.84,-117.09 831.27,-118.93 824.26,-110.99 820.84,-117.09"/>
</a>
</g>
</g>
<!-- Node3 -->
<g id="Node000003" class="node">
<title>Node3</title>
<g id="a_Node000003"><a xlink:href="namespaceutils.html#aa3cf9ab3831043ef5d09bb2a1a3508df" target="_top" xlink:title=" ">
<polygon fill="white" stroke="#666666" points="453.75,-273 353.75,-273 353.75,-253 453.75,-253 453.75,-273"/>
<text text-anchor="middle" x="403.75" y="-259.5" font-family="Helvetica,sans-Serif" font-size="10.00">utils::IsOverlapping</text>
</a>
</g>
</g>
<!-- Node2&#45;&gt;Node3 -->
<g id="edge2_Node000002_Node000003" class="edge">
<title>Node2&#45;&gt;Node3</title>
<g id="a_edge2_Node000002_Node000003"><a xlink:title=" ">
<path fill="none" stroke="#63b8ff" d="M530.58,-203.08C509.93,-215.09 480.52,-231.52 453.75,-244 447.3,-247.01 440.23,-249.94 433.52,-252.58"/>
<polygon fill="#63b8ff" stroke="#63b8ff" points="532.09,-206.25 538.94,-198.17 528.54,-200.21 532.09,-206.25"/>
</a>
</g>
</g>
<!-- Node4 -->
<g id="Node000004" class="node">
<title>Node4</title>
<g id="a_Node000004"><a xlink:href="namespaceutils.html#a11a0eb68e467a22aed74f507057c39ed" target="_top" xlink:title=" ">
<polygon fill="white" stroke="#666666" points="453.75,-235 353.75,-235 353.75,-215 453.75,-215 453.75,-235"/>
<text text-anchor="middle" x="403.75" y="-221.5" font-family="Helvetica,sans-Serif" font-size="10.00">utils::IsOverlapping</text>
</a>
</g>
</g>
<!-- Node2&#45;&gt;Node4 -->
<g id="edge3_Node000002_Node000004" class="edge">
<title>Node2&#45;&gt;Node4</title>
<g id="a_edge3_Node000002_Node000004"><a xlink:title=" ">
<path fill="none" stroke="#63b8ff" d="M504.25,-200.25C485.42,-204.93 464.52,-210.13 446.76,-214.55"/>
<polygon fill="#63b8ff" stroke="#63b8ff" points="505.03,-203.66 513.89,-197.85 503.34,-196.87 505.03,-203.66"/>
</a>
</g>
</g>
<!-- Node19 -->
<g id="Node000019" class="node">
<title>Node19</title>
<g id="a_Node000019"><a xlink:href="namespaceutils.html#add1fefb9b373117ac9b359c75c7ea620" target="_top" xlink:title=" ">
<polygon fill="white" stroke="#666666" points="453.75,-197 353.75,-197 353.75,-177 453.75,-177 453.75,-197"/>
<text text-anchor="middle" x="403.75" y="-183.5" font-family="Helvetica,sans-Serif" font-size="10.00">utils::IsOverlapping</text>
</a>
</g>
</g>
<!-- Node2&#45;&gt;Node19 -->
<g id="edge19_Node000002_Node000019" class="edge">
<title>Node2&#45;&gt;Node19</title>
<g id="a_edge19_Node000002_Node000019"><a xlink:title=" ">
<path fill="none" stroke="#63b8ff" d="M478.36,-187C470.1,-187 461.89,-187 454.1,-187"/>
<polygon fill="#63b8ff" stroke="#63b8ff" points="478.1,-190.5 488.1,-187 478.1,-183.5 478.1,-190.5"/>
</a>
</g>
</g>
<!-- Node5 -->
<g id="Node000005" class="node">
<title>Node5</title>
<g id="a_Node000005"><a xlink:href="class_level.html#adf4233f98d55734b3862b4862ea83a27" target="_top" xlink:title=" ">
<polygon fill="white" stroke="#666666" points="287.75,-444 189.25,-444 189.25,-424 287.75,-424 287.75,-444"/>
<text text-anchor="middle" x="238.5" y="-430.5" font-family="Helvetica,sans-Serif" font-size="10.00">Level::DoesCollide</text>
</a>
</g>
</g>
<!-- Node4&#45;&gt;Node5 -->
<g id="edge4_Node000004_Node000005" class="edge">
<title>Node4&#45;&gt;Node5</title>
<g id="a_edge4_Node000004_Node000005"><a xlink:title=" ">
<path fill="none" stroke="#63b8ff" d="M355.48,-242.11C354.88,-242.72 354.3,-243.35 353.75,-244 303.47,-303.19 371.82,-359.25 317.75,-415 309.87,-423.13 299.14,-428.02 288.15,-430.9"/>
<polygon fill="#63b8ff" stroke="#63b8ff" points="357.32,-245.11 363.16,-236.27 353.08,-239.54 357.32,-245.11"/>
</a>
</g>
</g>
<!-- Node6 -->
<g id="Node000006" class="node">
<title>Node6</title>
<g id="a_Node000006"><a xlink:href="namespaceutils.html#a334b78639099b0610f28ab357af9da19" target="_top" xlink:title=" ">
<polygon fill="white" stroke="#666666" points="288.5,-406 188.5,-406 188.5,-386 288.5,-386 288.5,-406"/>
<text text-anchor="middle" x="238.5" y="-392.5" font-family="Helvetica,sans-Serif" font-size="10.00">utils::IsOverlapping</text>
</a>
</g>
</g>
<!-- Node4&#45;&gt;Node6 -->
<g id="edge5_Node000004_Node000006" class="edge">
<title>Node4&#45;&gt;Node6</title>
<g id="a_edge5_Node000004_Node000006"><a xlink:title=" ">
<path fill="none" stroke="#63b8ff" d="M355.93,-241.78C355.17,-242.49 354.44,-243.23 353.75,-244 312.79,-289.53 361.61,-334.27 317.75,-377 309.84,-384.71 299.36,-389.47 288.65,-392.36"/>
<polygon fill="#63b8ff" stroke="#63b8ff" points="357.72,-244.8 363.81,-236.13 353.64,-239.11 357.72,-244.8"/>
</a>
</g>
</g>
<!-- Node7 -->
<g id="Node000007" class="node">
<title>Node7</title>
<g id="a_Node000007"><a xlink:href="class_cog_platform.html#afd4a86f749690313b5bd2587f15c6ce8" target="_top" xlink:title=" ">
<polygon fill="white" stroke="#666666" points="313.62,-368 163.38,-368 163.38,-348 313.62,-348 313.62,-368"/>
<text text-anchor="middle" x="238.5" y="-354.5" font-family="Helvetica,sans-Serif" font-size="10.00">CogPlatform::PlayerInteraction</text>
</a>
</g>
</g>
<!-- Node4&#45;&gt;Node7 -->
<g id="edge6_Node000004_Node000007" class="edge">
<title>Node4&#45;&gt;Node7</title>
<g id="a_edge6_Node000004_Node000007"><a xlink:title=" ">
<path fill="none" stroke="#63b8ff" d="M356.48,-241.49C355.53,-242.29 354.62,-243.13 353.75,-244 321.95,-276.05 351.59,-309.11 317.75,-339 313.87,-342.42 309.48,-345.25 304.81,-347.59"/>
<polygon fill="#63b8ff" stroke="#63b8ff" points="358.19,-244.56 364.59,-236.12 354.32,-238.73 358.19,-244.56"/>
</a>
</g>
</g>
<!-- Node8 -->
<g id="Node000008" class="node">
<title>Node8</title>
<g id="a_Node000008"><a xlink:href="class_crumble_block.html#af211a08e47f20f7343183341611d5653" target="_top" xlink:title=" ">
<polygon fill="white" stroke="#666666" points="317,-330 160,-330 160,-310 317,-310 317,-330"/>
<text text-anchor="middle" x="238.5" y="-316.5" font-family="Helvetica,sans-Serif" font-size="10.00">CrumbleBlock::PlayerInteraction</text>
</a>
</g>
</g>
<!-- Node4&#45;&gt;Node8 -->
<g id="edge7_Node000004_Node000008" class="edge">
<title>Node4&#45;&gt;Node8</title>
<g id="a_edge7_Node000004_Node000008"><a xlink:title=" ">
<path fill="none" stroke="#63b8ff" d="M357.76,-241.01C356.37,-241.95 355.03,-242.95 353.75,-244 330.62,-263.04 342.09,-283.52 317.75,-301 312.98,-304.43 307.67,-307.24 302.12,-309.55"/>
<polygon fill="#63b8ff" stroke="#63b8ff" points="359.2,-244.21 366.17,-236.23 355.75,-238.12 359.2,-244.21"/>
</a>
</g>
</g>
<!-- Node9 -->
<g id="Node000009" class="node">
<title>Node9</title>
<g id="a_Node000009"><a xlink:href="class_dash_crystal.html#ae9d188a3998de0c2de1ee162ba5e1273" target="_top" xlink:title=" ">
<polygon fill="white" stroke="#666666" points="313.62,-292 163.38,-292 163.38,-272 313.62,-272 313.62,-292"/>
<text text-anchor="middle" x="238.5" y="-278.5" font-family="Helvetica,sans-Serif" font-size="10.00">DashCrystal::PlayerInteraction</text>
</a>
</g>
</g>
<!-- Node4&#45;&gt;Node9 -->
<g id="edge8_Node000004_Node000009" class="edge">
<title>Node4&#45;&gt;Node9</title>
<g id="a_edge8_Node000004_Node000009"><a xlink:title=" ">
<path fill="none" stroke="#63b8ff" d="M365.11,-239.59C361.27,-241.08 357.43,-242.57 353.75,-244 337.75,-250.21 333.97,-252.37 317.75,-258 304.06,-262.75 288.85,-267.53 275.52,-271.56"/>
<polygon fill="#63b8ff" stroke="#63b8ff" points="366.32,-242.88 374.38,-236 363.79,-236.35 366.32,-242.88"/>
</a>
</g>
</g>
<!-- Node10 -->
<g id="Node000010" class="node">
<title>Node10</title>
<g id="a_Node000010"><a xlink:href="class_flying_strawberry.html#ada0a996bd7bd79f240b85762a24fd2ed" target="_top" xlink:title=" ">
<polygon fill="white" stroke="#666666" points="123.25,-209 0,-209 0,-177 123.25,-177 123.25,-209"/>
<text text-anchor="start" x="8" y="-195.5" font-family="Helvetica,sans-Serif" font-size="10.00">FlyingStrawberry::Player</text>
<text text-anchor="middle" x="61.62" y="-183.5" font-family="Helvetica,sans-Serif" font-size="10.00">Interaction</text>
</a>
</g>
</g>
<!-- Node4&#45;&gt;Node10 -->
<g id="edge9_Node000004_Node000010" class="edge">
<title>Node4&#45;&gt;Node10</title>
<g id="a_edge9_Node000004_Node000010"><a xlink:title=" ">
<path fill="none" stroke="#63b8ff" d="M341.94,-230.34C292.42,-233.41 220.88,-234.94 159.25,-225 140.06,-221.9 119.52,-215.56 102.34,-209.33"/>
<polygon fill="#63b8ff" stroke="#63b8ff" points="342.16,-233.83 351.9,-229.68 341.69,-226.85 342.16,-233.83"/>
</a>
</g>
</g>
<!-- Node11 -->
<g id="Node000011" class="node">
<title>Node11</title>
<g id="a_Node000011"><a xlink:href="class_respawn_zone.html#a5c821db8bbdc1da0401f633af761687c" target="_top" xlink:title=" ">
<polygon fill="white" stroke="#666666" points="317.75,-216 159.25,-216 159.25,-196 317.75,-196 317.75,-216"/>
<text text-anchor="middle" x="238.5" y="-202.5" font-family="Helvetica,sans-Serif" font-size="10.00">RespawnZone::PlayerInteraction</text>
</a>
</g>
</g>
<!-- Node4&#45;&gt;Node11 -->
<g id="edge10_Node000004_Node000011" class="edge">
<title>Node4&#45;&gt;Node11</title>
<g id="a_edge10_Node000004_Node000011"><a xlink:title=" ">
<path fill="none" stroke="#63b8ff" d="M342.06,-217.94C334.21,-217.02 326.08,-216.08 318,-215.14"/>
<polygon fill="#63b8ff" stroke="#63b8ff" points="341.49,-221.39 351.82,-219.07 342.29,-214.44 341.49,-221.39"/>
</a>
</g>
</g>
<!-- Node12 -->
<g id="Node000012" class="node">
<title>Node12</title>
<g id="a_Node000012"><a xlink:href="class_spike.html#a7c79520a23045ef568326c1cedc2eba9" target="_top" xlink:title=" ">
<polygon fill="white" stroke="#666666" points="298.62,-178 178.38,-178 178.38,-158 298.62,-158 298.62,-178"/>
<text text-anchor="middle" x="238.5" y="-164.5" font-family="Helvetica,sans-Serif" font-size="10.00">Spike::PlayerInteraction</text>
</a>
</g>
</g>
<!-- Node4&#45;&gt;Node12 -->
<g id="edge11_Node000004_Node000012" class="edge">
<title>Node4&#45;&gt;Node12</title>
<g id="a_edge11_Node000004_Node000012"><a xlink:title=" ">
<path fill="none" stroke="#63b8ff" d="M363.6,-210.29C360.25,-208.89 356.93,-207.45 353.75,-206 337.29,-198.49 334.67,-193.41 317.75,-187 309.12,-183.73 299.74,-180.89 290.57,-178.46"/>
<polygon fill="#63b8ff" stroke="#63b8ff" points="362.29,-213.53 372.87,-214.03 364.91,-207.04 362.29,-213.53"/>
</a>
</g>
</g>
<!-- Node13 -->
<g id="Node000013" class="node">
<title>Node13</title>
<g id="a_Node000013"><a xlink:href="class_strawberry.html#a2e5468a8badbbf84cd37d12c34042061" target="_top" xlink:title=" ">
<polygon fill="white" stroke="#666666" points="309.88,-140 167.12,-140 167.12,-120 309.88,-120 309.88,-140"/>
<text text-anchor="middle" x="238.5" y="-126.5" font-family="Helvetica,sans-Serif" font-size="10.00">Strawberry::PlayerInteraction</text>
</a>
</g>
</g>
<!-- Node4&#45;&gt;Node13 -->
<g id="edge12_Node000004_Node000013" class="edge">
<title>Node4&#45;&gt;Node13</title>
<g id="a_edge12_Node000004_Node000013"><a xlink:title=" ">
<path fill="none" stroke="#63b8ff" d="M357.76,-208.99C356.37,-208.05 355.03,-207.05 353.75,-206 330.62,-186.96 342.09,-166.48 317.75,-149 312.98,-145.57 307.67,-142.76 302.12,-140.45"/>
<polygon fill="#63b8ff" stroke="#63b8ff" points="355.75,-211.88 366.17,-213.77 359.2,-205.79 355.75,-211.88"/>
</a>
</g>
</g>
<!-- Node14 -->
<g id="Node000014" class="node">
<title>Node14</title>
<g id="a_Node000014"><a xlink:href="class_trampoline.html#a8c4a369bfdfba21767d45ec9f83be487" target="_top" xlink:title=" ">
<polygon fill="white" stroke="#666666" points="310.25,-102 166.75,-102 166.75,-82 310.25,-82 310.25,-102"/>
<text text-anchor="middle" x="238.5" y="-88.5" font-family="Helvetica,sans-Serif" font-size="10.00">Trampoline::PlayerInteraction</text>
</a>
</g>
</g>
<!-- Node4&#45;&gt;Node14 -->
<g id="edge14_Node000004_Node000014" class="edge">
<title>Node4&#45;&gt;Node14</title>
<g id="a_edge14_Node000004_Node000014"><a xlink:title=" ">
<path fill="none" stroke="#63b8ff" d="M356.48,-208.51C355.53,-207.71 354.62,-206.87 353.75,-206 321.95,-173.95 351.59,-140.89 317.75,-111 313.87,-107.58 309.48,-104.75 304.81,-102.41"/>
<polygon fill="#63b8ff" stroke="#63b8ff" points="354.32,-211.27 364.59,-213.88 358.19,-205.44 354.32,-211.27"/>
</a>
</g>
</g>
<!-- Node15 -->
<g id="Node000015" class="node">
<title>Node15</title>
<g id="a_Node000015"><a xlink:href="namespaceutils.html#a907c18a579f4b5bac2aa39f8d64fa381" target="_top" xlink:title=" ">
<polygon fill="white" stroke="#666666" points="276.88,-64 200.12,-64 200.12,-44 276.88,-44 276.88,-64"/>
<text text-anchor="middle" x="238.5" y="-50.5" font-family="Helvetica,sans-Serif" font-size="10.00">utils::Raycast</text>
</a>
</g>
</g>
<!-- Node4&#45;&gt;Node15 -->
<g id="edge15_Node000004_Node000015" class="edge">
<title>Node4&#45;&gt;Node15</title>
<g id="a_edge15_Node000004_Node000015"><a xlink:title=" ">
<path fill="none" stroke="#63b8ff" d="M355.93,-208.22C355.17,-207.51 354.44,-206.77 353.75,-206 312.79,-160.47 361.61,-115.73 317.75,-73 307.04,-62.56 291.61,-57.53 277.28,-55.21"/>
<polygon fill="#63b8ff" stroke="#63b8ff" points="353.64,-210.89 363.81,-213.87 357.72,-205.2 353.64,-210.89"/>
</a>
</g>
</g>
<!-- Node13&#45;&gt;Node10 -->
<g id="edge13_Node000013_Node000010" class="edge">
<title>Node13&#45;&gt;Node10</title>
<g id="a_edge13_Node000013_Node000010"><a xlink:title=" ">
<path fill="none" stroke="#63b8ff" d="M177.25,-143.4C171.12,-145.13 165.03,-147 159.25,-149 137.12,-156.65 113.17,-167.54 94.65,-176.57"/>
<polygon fill="#63b8ff" stroke="#63b8ff" points="178.04,-146.82 186.79,-140.85 176.22,-140.06 178.04,-146.82"/>
</a>
</g>
</g>
<!-- Node16 -->
<g id="Node000016" class="node">
<title>Node16</title>
<g id="a_Node000016"><a xlink:href="namespaceutils.html#aa1e275621728260abad0345dfb5ed70e" target="_top" xlink:title=" ">
<polygon fill="white" stroke="#666666" points="111.62,-108 11.62,-108 11.62,-88 111.62,-88 111.62,-108"/>
<text text-anchor="middle" x="61.62" y="-94.5" font-family="Helvetica,sans-Serif" font-size="10.00">utils::IsOverlapping</text>
</a>
</g>
</g>
<!-- Node15&#45;&gt;Node16 -->
<g id="edge16_Node000015_Node000016" class="edge">
<title>Node15&#45;&gt;Node16</title>
<g id="a_edge16_Node000015_Node000016"><a xlink:title=" ">
<path fill="none" stroke="#63b8ff" d="M188.52,-65.77C178.81,-68.14 168.7,-70.63 159.25,-73 140.59,-77.68 119.95,-83 102.55,-87.53"/>
<polygon fill="#63b8ff" stroke="#63b8ff" points="189.3,-69.19 198.19,-63.42 187.65,-62.38 189.3,-69.19"/>
</a>
</g>
</g>
<!-- Node17 -->
<g id="Node000017" class="node">
<title>Node17</title>
<g id="a_Node000017"><a xlink:href="class_character_controller.html#ad8b0a065cb10e6a2b1900057648ab4d9" target="_top" xlink:title=" ">
<polygon fill="white" stroke="#666666" points="112,-70 11.25,-70 11.25,-38 112,-38 112,-70"/>
<text text-anchor="start" x="19.25" y="-56.5" font-family="Helvetica,sans-Serif" font-size="10.00">CharacterController</text>
<text text-anchor="middle" x="61.62" y="-44.5" font-family="Helvetica,sans-Serif" font-size="10.00">::Move</text>
</a>
</g>
</g>
<!-- Node15&#45;&gt;Node17 -->
<g id="edge17_Node000015_Node000017" class="edge">
<title>Node15&#45;&gt;Node17</title>
<g id="a_edge17_Node000015_Node000017"><a xlink:title=" ">
<path fill="none" stroke="#63b8ff" d="M188.72,-54C164.91,-54 136.3,-54 112.36,-54"/>
<polygon fill="#63b8ff" stroke="#63b8ff" points="188.47,-57.5 198.47,-54 188.47,-50.5 188.47,-57.5"/>
</a>
</g>
</g>
<!-- Node18 -->
<g id="Node000018" class="node">
<title>Node18</title>
<g id="a_Node000018"><a xlink:href="namespaceutils.html#aaa39be44524c9229c357e1e9505d2667" target="_top" xlink:title=" ">
<polygon fill="white" stroke="#666666" points="100,-20 23.25,-20 23.25,0 100,0 100,-20"/>
<text text-anchor="middle" x="61.62" y="-6.5" font-family="Helvetica,sans-Serif" font-size="10.00">utils::Raycast</text>
</a>
</g>
</g>
<!-- Node15&#45;&gt;Node18 -->
<g id="edge18_Node000015_Node000018" class="edge">
<title>Node15&#45;&gt;Node18</title>
<g id="a_edge18_Node000015_Node000018"><a xlink:title=" ">
<path fill="none" stroke="#63b8ff" d="M188.84,-41.76C160.88,-34.72 126.28,-26.02 100.38,-19.5"/>
<polygon fill="#63b8ff" stroke="#63b8ff" points="187.97,-45.15 198.52,-44.19 189.67,-38.36 187.97,-45.15"/>
</a>
</g>
</g>
<!-- Node21&#45;&gt;Node2 -->
<g id="edge23_Node000021_Node000002" class="edge">
<title>Node21&#45;&gt;Node2</title>
<g id="a_edge23_Node000021_Node000002"><a xlink:title=" ">
<path fill="none" stroke="#63b8ff" d="M670.4,-126.09C667.93,-127.32 665.53,-128.62 663.25,-130 644.68,-141.23 645.85,-151.82 627.25,-163 618.05,-168.53 607.39,-173.05 597.28,-176.62"/>
<polygon fill="#63b8ff" stroke="#63b8ff" points="671.67,-129.36 679.38,-122.1 668.82,-122.96 671.67,-129.36"/>
</a>
</g>
</g>
<!-- Node21&#45;&gt;Node15 -->
<g id="edge24_Node000021_Node000015" class="edge">
<title>Node21&#45;&gt;Node15</title>
<g id="a_edge24_Node000021_Node000015"><a xlink:title=" ">
<path fill="none" stroke="#63b8ff" d="M665.08,-123.82C652.77,-126.39 639.61,-128.69 627.25,-130 566.48,-136.43 550.29,-138.3 489.75,-130 427.57,-121.48 412.05,-115.22 353.75,-92 336.94,-85.31 334.67,-79.41 317.75,-73 304.81,-68.1 290.17,-64.15 277.09,-61.14"/>
<polygon fill="#63b8ff" stroke="#63b8ff" points="665.58,-127.29 674.61,-121.74 664.09,-120.46 665.58,-127.29"/>
</a>
</g>
</g>
<!-- Node22 -->
<g id="Node000022" class="node">
<title>Node22</title>
<g id="a_Node000022"><a xlink:href="class_character.html#ae8854087590df625de84d5dd47ac9cd8" target="_top" xlink:title=" ">
<polygon fill="white" stroke="#666666" points="602.5,-121 514.5,-121 514.5,-101 602.5,-101 602.5,-121"/>
<text text-anchor="middle" x="558.5" y="-107.5" font-family="Helvetica,sans-Serif" font-size="10.00">Character::Dash</text>
</a>
</g>
</g>
<!-- Node21&#45;&gt;Node22 -->
<g id="edge22_Node000021_Node000022" class="edge">
<title>Node21&#45;&gt;Node22</title>
<g id="a_edge22_Node000021_Node000022"><a xlink:title=" ">
<path fill="none" stroke="#63b8ff" d="M651.78,-111C635.3,-111 617.96,-111 602.81,-111"/>
<polygon fill="#63b8ff" stroke="#63b8ff" points="651.5,-114.5 661.5,-111 651.5,-107.5 651.5,-114.5"/>
</a>
</g>
</g>
<!-- Node21&#45;&gt;Node23 -->
<g id="edge25_Node000021_Node000023" class="edge">
<title>Node21&#45;&gt;Node23</title>
<g id="a_edge25_Node000021_Node000023"><a xlink:title=" ">
<path fill="none" stroke="#63b8ff" d="M661.71,-97.82C642.35,-93.12 620.82,-87.89 602.54,-83.45"/>
<polygon fill="#63b8ff" stroke="#63b8ff" points="660.81,-101.2 671.35,-100.16 662.46,-94.4 660.81,-101.2"/>
</a>
</g>
</g>
<!-- Node24 -->
<g id="Node000024" class="node">
<title>Node24</title>
<g id="a_Node000024"><a xlink:href="class_hair.html#a0b22dc1cb67f2d72c149b360f7e7f807" target="_top" xlink:title=" ">
<polygon fill="white" stroke="#666666" points="439.5,-83 368,-83 368,-63 439.5,-63 439.5,-83"/>
<text text-anchor="middle" x="403.75" y="-69.5" font-family="Helvetica,sans-Serif" font-size="10.00">Hair::Update</text>
</a>
</g>
</g>
<!-- Node23&#45;&gt;Node24 -->
<g id="edge26_Node000023_Node000024" class="edge">
<title>Node23&#45;&gt;Node24</title>
<g id="a_edge26_Node000023_Node000024"><a xlink:title=" ">
<path fill="none" stroke="#63b8ff" d="M497.49,-73C478.02,-73 457.05,-73 439.99,-73"/>
<polygon fill="#63b8ff" stroke="#63b8ff" points="497.24,-76.5 507.24,-73 497.24,-69.5 497.24,-76.5"/>
</a>
</g>
</g>
</g>
</svg>
