<?xml version="1.0" encoding="UTF-8" standalone="no"?>
<!DOCTYPE svg PUBLIC "-//W3C//DTD SVG 1.1//EN"
 "http://www.w3.org/Graphics/SVG/1.1/DTD/svg11.dtd">
<!-- Generated by graphviz version 12.2.1 (20241206.2353)
 -->
<!-- Title: Matrix2x3::Transform Pages: 1 -->
<svg width="262pt" height="180pt"
 viewBox="0.00 0.00 262.00 180.00" xmlns="http://www.w3.org/2000/svg" xmlns:xlink="http://www.w3.org/1999/xlink">
<g id="graph0" class="graph" transform="scale(1 1) rotate(0) translate(4 176)">
<title>Matrix2x3::Transform</title>
<!-- Node1 -->
<g id="Node000001" class="node">
<title>Node1</title>
<g id="a_Node000001"><a xlink:title=" ">
<polygon fill="#999999" stroke="#666666" points="254,-96 145,-96 145,-76 254,-76 254,-96"/>
<text text-anchor="middle" x="199.5" y="-82.5" font-family="Helvetica,sans-Serif" font-size="10.00">Matrix2x3::Transform</text>
</a>
</g>
</g>
<!-- Node2 -->
<g id="Node000002" class="node">
<title>Node2</title>
<g id="a_Node000002"><a xlink:href="struct_matrix2x3.html#ad4577b1ebeff253c6fd69c9ac8af0cd1" target="_top" xlink:title=" ">
<polygon fill="white" stroke="#666666" points="109,-172 0,-172 0,-152 109,-152 109,-172"/>
<text text-anchor="middle" x="54.5" y="-158.5" font-family="Helvetica,sans-Serif" font-size="10.00">Matrix2x3::Transform</text>
</a>
</g>
</g>
<!-- Node1&#45;&gt;Node2 -->
<g id="edge1_Node000001_Node000002" class="edge">
<title>Node1&#45;&gt;Node2</title>
<g id="a_edge1_Node000001_Node000002"><a xlink:title=" ">
<path fill="none" stroke="#63b8ff" d="M175.58,-102.65C157.98,-114.91 132.75,-131.41 109,-143 102.53,-146.16 95.41,-149.06 88.52,-151.59"/>
<polygon fill="#63b8ff" stroke="#63b8ff" points="177.14,-105.83 183.28,-97.2 173.09,-100.12 177.14,-105.83"/>
</a>
</g>
</g>
<!-- Node3 -->
<g id="Node000003" class="node">
<title>Node3</title>
<g id="a_Node000003"><a xlink:href="struct_matrix2x3.html#ae59bb99302d0c8f9f0678dcd7994e003" target="_top" xlink:title=" ">
<polygon fill="white" stroke="#666666" points="109,-134 0,-134 0,-114 109,-114 109,-134"/>
<text text-anchor="middle" x="54.5" y="-120.5" font-family="Helvetica,sans-Serif" font-size="10.00">Matrix2x3::Transform</text>
</a>
</g>
</g>
<!-- Node1&#45;&gt;Node3 -->
<g id="edge2_Node000001_Node000003" class="edge">
<title>Node1&#45;&gt;Node3</title>
<g id="a_edge2_Node000001_Node000003"><a xlink:title=" ">
<path fill="none" stroke="#63b8ff" d="M148.4,-99.31C130.84,-103.98 111.38,-109.15 94.83,-113.55"/>
<polygon fill="#63b8ff" stroke="#63b8ff" points="148.82,-102.82 157.58,-96.87 147.02,-96.06 148.82,-102.82"/>
</a>
</g>
</g>
<!-- Node4 -->
<g id="Node000004" class="node">
<title>Node4</title>
<g id="a_Node000004"><a xlink:href="struct_matrix2x3.html#afa922b516b3809169d7705fb700074df" target="_top" xlink:title=" ">
<polygon fill="white" stroke="#666666" points="109,-96 0,-96 0,-76 109,-76 109,-96"/>
<text text-anchor="middle" x="54.5" y="-82.5" font-family="Helvetica,sans-Serif" font-size="10.00">Matrix2x3::Transform</text>
</a>
</g>
</g>
<!-- Node1&#45;&gt;Node4 -->
<g id="edge3_Node000001_Node000004" class="edge">
<title>Node1&#45;&gt;Node4</title>
<g id="a_edge3_Node000001_Node000004"><a xlink:title=" ">
<path fill="none" stroke="#63b8ff" d="M133.56,-86C125.5,-86 117.33,-86 109.46,-86"/>
<polygon fill="#63b8ff" stroke="#63b8ff" points="133.33,-89.5 143.33,-86 133.33,-82.5 133.33,-89.5"/>
</a>
</g>
</g>
<!-- Node5 -->
<g id="Node000005" class="node">
<title>Node5</title>
<g id="a_Node000005"><a xlink:href="struct_matrix2x3.html#aaf777d2c17284d52e13bdf324918e187" target="_top" xlink:title=" ">
<polygon fill="white" stroke="#666666" points="109,-58 0,-58 0,-38 109,-38 109,-58"/>
<text text-anchor="middle" x="54.5" y="-44.5" font-family="Helvetica,sans-Serif" font-size="10.00">Matrix2x3::Transform</text>
</a>
</g>
</g>
<!-- Node1&#45;&gt;Node5 -->
<g id="edge4_Node000001_Node000005" class="edge">
<title>Node1&#45;&gt;Node5</title>
<g id="a_edge4_Node000001_Node000005"><a xlink:title=" ">
<path fill="none" stroke="#63b8ff" d="M148.4,-72.69C130.84,-68.02 111.38,-62.85 94.83,-58.45"/>
<polygon fill="#63b8ff" stroke="#63b8ff" points="147.02,-75.94 157.58,-75.13 148.82,-69.18 147.02,-75.94"/>
</a>
</g>
</g>
<!-- Node6 -->
<g id="Node000006" class="node">
<title>Node6</title>
<g id="a_Node000006"><a xlink:href="struct_matrix2x3.html#af3fdd91835f963f6a0c27b20f5a6b4e9" target="_top" xlink:title=" ">
<polygon fill="white" stroke="#666666" points="109,-20 0,-20 0,0 109,0 109,-20"/>
<text text-anchor="middle" x="54.5" y="-6.5" font-family="Helvetica,sans-Serif" font-size="10.00">Matrix2x3::Transform</text>
</a>
</g>
</g>
<!-- Node1&#45;&gt;Node6 -->
<g id="edge5_Node000001_Node000006" class="edge">
<title>Node1&#45;&gt;Node6</title>
<g id="a_edge5_Node000001_Node000006"><a xlink:title=" ">
<path fill="none" stroke="#63b8ff" d="M175.58,-69.35C157.98,-57.09 132.75,-40.59 109,-29 102.53,-25.84 95.41,-22.94 88.52,-20.41"/>
<polygon fill="#63b8ff" stroke="#63b8ff" points="173.09,-71.88 183.28,-74.8 177.14,-66.17 173.09,-71.88"/>
</a>
</g>
</g>
</g>
</svg>
