<?xml version="1.0" encoding="UTF-8" standalone="no"?>
<!DOCTYPE svg PUBLIC "-//W3C//DTD SVG 1.1//EN"
 "http://www.w3.org/Graphics/SVG/1.1/DTD/svg11.dtd">
<!-- Generated by graphviz version 12.2.1 (20241206.2353)
 -->
<!-- Title: Matrix2x3::CreateTranslationMatrix Pages: 1 -->
<svg width="472pt" height="62pt"
 viewBox="0.00 0.00 471.50 62.00" xmlns="http://www.w3.org/2000/svg" xmlns:xlink="http://www.w3.org/1999/xlink">
<g id="graph0" class="graph" transform="scale(1 1) rotate(0) translate(4 58)">
<title>Matrix2x3::CreateTranslationMatrix</title>
<!-- Node1 -->
<g id="Node000001" class="node">
<title>Node1</title>
<g id="a_Node000001"><a xlink:title=" ">
<polygon fill="#999999" stroke="#666666" points="142,-32 0,-32 0,0 142,0 142,-32"/>
<text text-anchor="start" x="8" y="-18.5" font-family="Helvetica,sans-Serif" font-size="10.00">Matrix2x3::CreateTranslation</text>
<text text-anchor="middle" x="71" y="-6.5" font-family="Helvetica,sans-Serif" font-size="10.00">Matrix</text>
</a>
</g>
</g>
<!-- Node2 -->
<g id="Node000002" class="node">
<title>Node2</title>
<g id="a_Node000002"><a xlink:href="struct_matrix2x3.html#ac8a950cb3a25ebf8938678a010bd88d3" target="_top" xlink:title=" ">
<polygon fill="white" stroke="#666666" points="320,-54 178,-54 178,-22 320,-22 320,-54"/>
<text text-anchor="start" x="186" y="-40.5" font-family="Helvetica,sans-Serif" font-size="10.00">Matrix2x3::CreateTranslation</text>
<text text-anchor="middle" x="249" y="-28.5" font-family="Helvetica,sans-Serif" font-size="10.00">Matrix</text>
</a>
</g>
</g>
<!-- Node1&#45;&gt;Node2 -->
<g id="edge1_Node000001_Node000002" class="edge">
<title>Node1&#45;&gt;Node2</title>
<g id="a_edge1_Node000001_Node000002"><a xlink:title=" ">
<path fill="none" stroke="#63b8ff" d="M142.32,-24.79C150.19,-25.77 158.26,-26.78 166.27,-27.78"/>
<polygon fill="#63b8ff" stroke="#63b8ff" points="165.65,-31.23 176,-29 166.52,-24.29 165.65,-31.23"/>
</a>
</g>
</g>
<!-- Node3 -->
<g id="Node000003" class="node">
<title>Node3</title>
<g id="a_Node000003"><a xlink:href="struct_matrix2x3.html#ad61ccbaf21b4a72f770f203d06fbf1cd" target="_top" xlink:title=" ">
<polygon fill="white" stroke="#666666" points="463.5,-26 356,-26 356,-6 463.5,-6 463.5,-26"/>
<text text-anchor="middle" x="409.75" y="-12.5" font-family="Helvetica,sans-Serif" font-size="10.00">Matrix2x3::Matrix2x3</text>
</a>
</g>
</g>
<!-- Node1&#45;&gt;Node3 -->
<g id="edge3_Node000001_Node000003" class="edge">
<title>Node1&#45;&gt;Node3</title>
<g id="a_edge3_Node000001_Node000003"><a xlink:title=" ">
<path fill="none" stroke="#63b8ff" d="M142.41,-13.73C154.29,-13.42 166.49,-13.16 178,-13 241.1,-12.11 256.9,-11.93 320,-13 327.86,-13.13 336.11,-13.33 344.28,-13.56"/>
<polygon fill="#63b8ff" stroke="#63b8ff" points="344.11,-17.06 354.21,-13.87 344.33,-10.06 344.11,-17.06"/>
</a>
</g>
</g>
<!-- Node2&#45;&gt;Node3 -->
<g id="edge2_Node000002_Node000003" class="edge">
<title>Node2&#45;&gt;Node3</title>
<g id="a_edge2_Node000002_Node000003"><a xlink:title=" ">
<path fill="none" stroke="#63b8ff" d="M320.09,-28.29C328.22,-27.16 336.48,-26.01 344.53,-24.9"/>
<polygon fill="#63b8ff" stroke="#63b8ff" points="344.8,-28.4 354.22,-23.56 343.84,-21.46 344.8,-28.4"/>
</a>
</g>
</g>
</g>
</svg>
