<?xml version="1.0" encoding="UTF-8" standalone="no"?>
<!DOCTYPE svg PUBLIC "-//W3C//DTD SVG 1.1//EN"
 "http://www.w3.org/Graphics/SVG/1.1/DTD/svg11.dtd">
<!-- Generated by graphviz version 12.2.1 (20241206.2353)
 -->
<!-- Title: Ellipsef::Ellipsef Pages: 1 -->
<svg width="217pt" height="46pt"
 viewBox="0.00 0.00 217.00 46.00" xmlns="http://www.w3.org/2000/svg" xmlns:xlink="http://www.w3.org/1999/xlink">
<g id="graph0" class="graph" transform="scale(1 1) rotate(0) translate(4 42)">
<title>Ellipsef::Ellipsef</title>
<!-- Node1 -->
<g id="Node000001" class="node">
<title>Node1</title>
<g id="a_Node000001"><a xlink:title=" ">
<polygon fill="#999999" stroke="#666666" points="209,-20 122.5,-20 122.5,0 209,0 209,-20"/>
<text text-anchor="middle" x="165.75" y="-6.5" font-family="Helvetica,sans-Serif" font-size="10.00">Ellipsef::Ellipsef</text>
</a>
</g>
</g>
<!-- Node1&#45;&gt;Node1 -->
<g id="edge1_Node000001_Node000001" class="edge">
<title>Node1&#45;&gt;Node1</title>
<g id="a_edge1_Node000001_Node000001"><a xlink:title=" ">
<path fill="none" stroke="#63b8ff" d="M187.4,-31.44C184.61,-35.3 177.4,-38 165.75,-38 144.46,-38 137.97,-28.98 146.29,-20.34"/>
<polygon fill="#63b8ff" stroke="#63b8ff" points="190.87,-30.96 185.51,-21.82 184.01,-32.31 190.87,-30.96"/>
</a>
</g>
</g>
<!-- Node2 -->
<g id="Node000002" class="node">
<title>Node2</title>
<g id="a_Node000002"><a xlink:href="struct_ellipsef.html#af5e9a7abab59abe09ff69728609504ed" target="_top" xlink:title=" ">
<polygon fill="white" stroke="#666666" points="86.5,-20 0,-20 0,0 86.5,0 86.5,-20"/>
<text text-anchor="middle" x="43.25" y="-6.5" font-family="Helvetica,sans-Serif" font-size="10.00">Ellipsef::Ellipsef</text>
</a>
</g>
</g>
<!-- Node1&#45;&gt;Node2 -->
<g id="edge2_Node000001_Node000002" class="edge">
<title>Node1&#45;&gt;Node2</title>
<g id="a_edge2_Node000001_Node000002"><a xlink:title=" ">
<path fill="none" stroke="#63b8ff" d="M110.97,-10C102.86,-10 94.59,-10 86.76,-10"/>
<polygon fill="#63b8ff" stroke="#63b8ff" points="110.75,-13.5 120.75,-10 110.75,-6.5 110.75,-13.5"/>
</a>
</g>
</g>
</g>
</svg>
