<?xml version="1.0" encoding="UTF-8" standalone="no"?>
<!DOCTYPE svg PUBLIC "-//W3C//DTD SVG 1.1//EN"
 "http://www.w3.org/Graphics/SVG/1.1/DTD/svg11.dtd">
<!-- Generated by graphviz version 12.2.1 (20241206.2353)
 -->
<!-- Title: Matrix2x3::CreateScalingMatrix Pages: 1 -->
<svg width="440pt" height="80pt"
 viewBox="0.00 0.00 440.00 80.00" xmlns="http://www.w3.org/2000/svg" xmlns:xlink="http://www.w3.org/1999/xlink">
<g id="graph0" class="graph" transform="scale(1 1) rotate(0) translate(4 76)">
<title>Matrix2x3::CreateScalingMatrix</title>
<!-- Node1 -->
<g id="Node000001" class="node">
<title>Node1</title>
<g id="a_Node000001"><a xlink:title=" ">
<polygon fill="#999999" stroke="#666666" points="126.25,-32 0,-32 0,0 126.25,0 126.25,-32"/>
<text text-anchor="start" x="8" y="-18.5" font-family="Helvetica,sans-Serif" font-size="10.00">Matrix2x3::CreateScaling</text>
<text text-anchor="middle" x="63.12" y="-6.5" font-family="Helvetica,sans-Serif" font-size="10.00">Matrix</text>
</a>
</g>
</g>
<!-- Node2 -->
<g id="Node000002" class="node">
<title>Node2</title>
<g id="a_Node000002"><a xlink:href="struct_matrix2x3.html#a711d56903759860eeb07792c0a18accf" target="_top" xlink:title=" ">
<polygon fill="white" stroke="#666666" points="288.5,-54 162.25,-54 162.25,-22 288.5,-22 288.5,-54"/>
<text text-anchor="start" x="170.25" y="-40.5" font-family="Helvetica,sans-Serif" font-size="10.00">Matrix2x3::CreateScaling</text>
<text text-anchor="middle" x="225.38" y="-28.5" font-family="Helvetica,sans-Serif" font-size="10.00">Matrix</text>
</a>
</g>
</g>
<!-- Node1&#45;&gt;Node2 -->
<g id="edge1_Node000001_Node000002" class="edge">
<title>Node1&#45;&gt;Node2</title>
<g id="a_edge1_Node000001_Node000002"><a xlink:title=" ">
<path fill="none" stroke="#63b8ff" d="M126.54,-24.57C134.43,-25.65 142.55,-26.77 150.59,-27.87"/>
<polygon fill="#63b8ff" stroke="#63b8ff" points="149.98,-31.32 160.37,-29.21 150.94,-24.38 149.98,-31.32"/>
</a>
</g>
</g>
<!-- Node3 -->
<g id="Node000003" class="node">
<title>Node3</title>
<g id="a_Node000003"><a xlink:href="struct_matrix2x3.html#ad61ccbaf21b4a72f770f203d06fbf1cd" target="_top" xlink:title=" ">
<polygon fill="white" stroke="#666666" points="432,-26 324.5,-26 324.5,-6 432,-6 432,-26"/>
<text text-anchor="middle" x="378.25" y="-12.5" font-family="Helvetica,sans-Serif" font-size="10.00">Matrix2x3::Matrix2x3</text>
</a>
</g>
</g>
<!-- Node1&#45;&gt;Node3 -->
<g id="edge4_Node000001_Node000003" class="edge">
<title>Node1&#45;&gt;Node3</title>
<g id="a_edge4_Node000001_Node000003"><a xlink:title=" ">
<path fill="none" stroke="#63b8ff" d="M126.67,-13.8C138.49,-13.47 150.75,-13.18 162.25,-13 218.35,-12.14 232.4,-12.05 288.5,-13 296.36,-13.13 304.61,-13.33 312.78,-13.56"/>
<polygon fill="#63b8ff" stroke="#63b8ff" points="312.61,-17.06 322.71,-13.87 312.83,-10.06 312.61,-17.06"/>
</a>
</g>
</g>
<!-- Node2&#45;&gt;Node2 -->
<g id="edge2_Node000002_Node000002" class="edge">
<title>Node2&#45;&gt;Node2</title>
<g id="a_edge2_Node000002_Node000002"><a xlink:title=" ">
<path fill="none" stroke="#63b8ff" d="M198.08,-54.44C192.99,-63.58 202.09,-72 225.38,-72 238.11,-72 246.6,-69.48 250.85,-65.71"/>
<polygon fill="#63b8ff" stroke="#63b8ff" points="254.29,-66.37 252.43,-55.94 247.38,-65.25 254.29,-66.37"/>
</a>
</g>
</g>
<!-- Node2&#45;&gt;Node3 -->
<g id="edge3_Node000002_Node000003" class="edge">
<title>Node2&#45;&gt;Node3</title>
<g id="a_edge3_Node000002_Node000003"><a xlink:title=" ">
<path fill="none" stroke="#63b8ff" d="M288.61,-28.92C296.67,-27.75 304.93,-26.55 313.02,-25.37"/>
<polygon fill="#63b8ff" stroke="#63b8ff" points="313.4,-28.85 322.79,-23.94 312.39,-21.92 313.4,-28.85"/>
</a>
</g>
</g>
</g>
</svg>
