<?xml version="1.0" encoding="UTF-8" standalone="no"?>
<!DOCTYPE svg PUBLIC "-//W3C//DTD SVG 1.1//EN"
 "http://www.w3.org/Graphics/SVG/1.1/DTD/svg11.dtd">
<!-- Generated by graphviz version 12.2.1 (20241206.2353)
 -->
<!-- Title: Vector2f::DotProduct Pages: 1 -->
<svg width="822pt" height="522pt"
 viewBox="0.00 0.00 822.25 522.00" xmlns="http://www.w3.org/2000/svg" xmlns:xlink="http://www.w3.org/1999/xlink">
<g id="graph0" class="graph" transform="scale(1 1) rotate(0) translate(4 518)">
<title>Vector2f::DotProduct</title>
<!-- Node1 -->
<g id="Node000001" class="node">
<title>Node1</title>
<g id="a_Node000001"><a xlink:title=" ">
<polygon fill="#999999" stroke="#666666" points="814.25,-77 706.75,-77 706.75,-57 814.25,-57 814.25,-77"/>
<text text-anchor="middle" x="760.5" y="-63.5" font-family="Helvetica,sans-Serif" font-size="10.00">Vector2f::DotProduct</text>
</a>
</g>
</g>
<!-- Node2 -->
<g id="Node000002" class="node">
<title>Node2</title>
<g id="a_Node000002"><a xlink:href="namespaceutils.html#a760075559e6ab59c1daec763fab2b488" target="_top" xlink:title=" ">
<polygon fill="white" stroke="#666666" points="669.25,-153 531.75,-153 531.75,-133 669.25,-133 669.25,-153"/>
<text text-anchor="middle" x="600.5" y="-139.5" font-family="Helvetica,sans-Serif" font-size="10.00">utils::DistPointLineSegment</text>
</a>
</g>
</g>
<!-- Node1&#45;&gt;Node2 -->
<g id="edge1_Node000001_Node000002" class="edge">
<title>Node1&#45;&gt;Node2</title>
<g id="a_edge1_Node000001_Node000002"><a xlink:title=" ">
<path fill="none" stroke="#63b8ff" d="M727.56,-82.36C696.49,-97.31 650.12,-119.62 623.13,-132.6"/>
<polygon fill="#63b8ff" stroke="#63b8ff" points="729,-85.55 736.5,-78.06 725.97,-79.24 729,-85.55"/>
</a>
</g>
</g>
<!-- Node17 -->
<g id="Node000017" class="node">
<title>Node17</title>
<g id="a_Node000017"><a xlink:href="class_character_controller.html#ad8b0a065cb10e6a2b1900057648ab4d9" target="_top" xlink:title=" ">
<polygon fill="white" stroke="#666666" points="112,-77 11.25,-77 11.25,-45 112,-45 112,-77"/>
<text text-anchor="start" x="19.25" y="-63.5" font-family="Helvetica,sans-Serif" font-size="10.00">CharacterController</text>
<text text-anchor="middle" x="61.62" y="-51.5" font-family="Helvetica,sans-Serif" font-size="10.00">::Move</text>
</a>
</g>
</g>
<!-- Node1&#45;&gt;Node17 -->
<g id="edge24_Node000001_Node000017" class="edge">
<title>Node1&#45;&gt;Node17</title>
<g id="a_edge24_Node000001_Node000017"><a xlink:title=" ">
<path fill="none" stroke="#63b8ff" d="M695.07,-66.45C557.1,-65.26 235.63,-62.49 112.15,-61.43"/>
<polygon fill="#63b8ff" stroke="#63b8ff" points="694.72,-69.94 704.75,-66.53 694.78,-62.94 694.72,-69.94"/>
</a>
</g>
</g>
<!-- Node20 -->
<g id="Node000020" class="node">
<title>Node20</title>
<g id="a_Node000020"><a xlink:href="namespaceutils.html#afa48cca7d08708b5ce3581974e9c39aa" target="_top" xlink:title=" ">
<polygon fill="white" stroke="#666666" points="670.75,-96 530.25,-96 530.25,-76 670.75,-76 670.75,-96"/>
<text text-anchor="middle" x="600.5" y="-82.5" font-family="Helvetica,sans-Serif" font-size="10.00">utils::IsPointOnLineSegment</text>
</a>
</g>
</g>
<!-- Node1&#45;&gt;Node20 -->
<g id="edge20_Node000001_Node000020" class="edge">
<title>Node1&#45;&gt;Node20</title>
<g id="a_edge20_Node000001_Node000020"><a xlink:title=" ">
<path fill="none" stroke="#63b8ff" d="M695.11,-74.74C687.25,-75.69 679.18,-76.66 671.25,-77.61"/>
<polygon fill="#63b8ff" stroke="#63b8ff" points="695.44,-78.23 704.95,-73.56 694.6,-71.28 695.44,-78.23"/>
</a>
</g>
</g>
<!-- Node23 -->
<g id="Node000023" class="node">
<title>Node23</title>
<g id="a_Node000023"><a xlink:href="struct_vector2f.html#a2e6e32fa2f3c66edd27d696938b1cf47" target="_top" xlink:title=" ">
<polygon fill="white" stroke="#666666" points="645.25,-20 555.75,-20 555.75,0 645.25,0 645.25,-20"/>
<text text-anchor="middle" x="600.5" y="-6.5" font-family="Helvetica,sans-Serif" font-size="10.00">Vector2f::Reflect</text>
</a>
</g>
</g>
<!-- Node1&#45;&gt;Node23 -->
<g id="edge25_Node000001_Node000023" class="edge">
<title>Node1&#45;&gt;Node23</title>
<g id="a_edge25_Node000001_Node000023"><a xlink:title=" ">
<path fill="none" stroke="#63b8ff" d="M721.59,-52.69C705.89,-46.82 687.47,-40 670.75,-34 658.18,-29.48 644.27,-24.64 632.23,-20.49"/>
<polygon fill="#63b8ff" stroke="#63b8ff" points="719.96,-55.82 730.56,-56.05 722.42,-49.27 719.96,-55.82"/>
</a>
</g>
</g>
<!-- Node3 -->
<g id="Node000003" class="node">
<title>Node3</title>
<g id="a_Node000003"><a xlink:href="namespaceutils.html#aa3cf9ab3831043ef5d09bb2a1a3508df" target="_top" xlink:title=" ">
<polygon fill="white" stroke="#666666" points="474,-134 374,-134 374,-114 474,-114 474,-134"/>
<text text-anchor="middle" x="424" y="-120.5" font-family="Helvetica,sans-Serif" font-size="10.00">utils::IsOverlapping</text>
</a>
</g>
</g>
<!-- Node2&#45;&gt;Node3 -->
<g id="edge2_Node000002_Node000003" class="edge">
<title>Node2&#45;&gt;Node3</title>
<g id="a_edge2_Node000002_Node000003"><a xlink:title=" ">
<path fill="none" stroke="#63b8ff" d="M520.02,-134.35C504.43,-132.65 488.51,-130.92 474.27,-129.36"/>
<polygon fill="#63b8ff" stroke="#63b8ff" points="519.46,-137.81 529.78,-135.41 520.22,-130.85 519.46,-137.81"/>
</a>
</g>
</g>
<!-- Node4 -->
<g id="Node000004" class="node">
<title>Node4</title>
<g id="a_Node000004"><a xlink:href="namespaceutils.html#a11a0eb68e467a22aed74f507057c39ed" target="_top" xlink:title=" ">
<polygon fill="white" stroke="#666666" points="474,-305 374,-305 374,-285 474,-285 474,-305"/>
<text text-anchor="middle" x="424" y="-291.5" font-family="Helvetica,sans-Serif" font-size="10.00">utils::IsOverlapping</text>
</a>
</g>
</g>
<!-- Node2&#45;&gt;Node4 -->
<g id="edge3_Node000002_Node000004" class="edge">
<title>Node2&#45;&gt;Node4</title>
<g id="a_edge3_Node000002_Node000004"><a xlink:title=" ">
<path fill="none" stroke="#63b8ff" d="M579.04,-160.82C542.18,-192.93 465.75,-259.51 436.62,-284.88"/>
<polygon fill="#63b8ff" stroke="#63b8ff" points="581.12,-163.65 586.36,-154.44 576.53,-158.37 581.12,-163.65"/>
</a>
</g>
</g>
<!-- Node19 -->
<g id="Node000019" class="node">
<title>Node19</title>
<g id="a_Node000019"><a xlink:href="namespaceutils.html#add1fefb9b373117ac9b359c75c7ea620" target="_top" xlink:title=" ">
<polygon fill="white" stroke="#666666" points="474,-172 374,-172 374,-152 474,-152 474,-172"/>
<text text-anchor="middle" x="424" y="-158.5" font-family="Helvetica,sans-Serif" font-size="10.00">utils::IsOverlapping</text>
</a>
</g>
</g>
<!-- Node2&#45;&gt;Node19 -->
<g id="edge19_Node000002_Node000019" class="edge">
<title>Node2&#45;&gt;Node19</title>
<g id="a_edge19_Node000002_Node000019"><a xlink:title=" ">
<path fill="none" stroke="#63b8ff" d="M520.02,-151.65C504.43,-153.35 488.51,-155.08 474.27,-156.64"/>
<polygon fill="#63b8ff" stroke="#63b8ff" points="520.22,-155.15 529.78,-150.59 519.46,-148.19 520.22,-155.15"/>
</a>
</g>
</g>
<!-- Node5 -->
<g id="Node000005" class="node">
<title>Node5</title>
<g id="a_Node000005"><a xlink:href="class_level.html#adf4233f98d55734b3862b4862ea83a27" target="_top" xlink:title=" ">
<polygon fill="white" stroke="#666666" points="287.75,-400 189.25,-400 189.25,-380 287.75,-380 287.75,-400"/>
<text text-anchor="middle" x="238.5" y="-386.5" font-family="Helvetica,sans-Serif" font-size="10.00">Level::DoesCollide</text>
</a>
</g>
</g>
<!-- Node4&#45;&gt;Node5 -->
<g id="edge4_Node000004_Node000005" class="edge">
<title>Node4&#45;&gt;Node5</title>
<g id="a_edge4_Node000004_Node000005"><a xlink:title=" ">
<path fill="none" stroke="#63b8ff" d="M403.4,-312.78C383.31,-330.09 350.44,-355.94 317.75,-371 308.48,-375.27 298.14,-378.65 288.08,-381.3"/>
<polygon fill="#63b8ff" stroke="#63b8ff" points="405.61,-315.5 410.81,-306.27 400.98,-310.24 405.61,-315.5"/>
</a>
</g>
</g>
<!-- Node6 -->
<g id="Node000006" class="node">
<title>Node6</title>
<g id="a_Node000006"><a xlink:href="namespaceutils.html#a334b78639099b0610f28ab357af9da19" target="_top" xlink:title=" ">
<polygon fill="white" stroke="#666666" points="288.5,-362 188.5,-362 188.5,-342 288.5,-342 288.5,-362"/>
<text text-anchor="middle" x="238.5" y="-348.5" font-family="Helvetica,sans-Serif" font-size="10.00">utils::IsOverlapping</text>
</a>
</g>
</g>
<!-- Node4&#45;&gt;Node6 -->
<g id="edge5_Node000004_Node000006" class="edge">
<title>Node4&#45;&gt;Node6</title>
<g id="a_edge5_Node000004_Node000006"><a xlink:title=" ">
<path fill="none" stroke="#63b8ff" d="M385.91,-309.5C365.9,-317.04 340.67,-326.1 317.75,-333 307.58,-336.06 296.55,-338.98 286.07,-341.57"/>
<polygon fill="#63b8ff" stroke="#63b8ff" points="386.93,-312.86 395.03,-306.03 384.44,-306.32 386.93,-312.86"/>
</a>
</g>
</g>
<!-- Node7 -->
<g id="Node000007" class="node">
<title>Node7</title>
<g id="a_Node000007"><a xlink:href="class_cog_platform.html#afd4a86f749690313b5bd2587f15c6ce8" target="_top" xlink:title=" ">
<polygon fill="white" stroke="#666666" points="313.62,-324 163.38,-324 163.38,-304 313.62,-304 313.62,-324"/>
<text text-anchor="middle" x="238.5" y="-310.5" font-family="Helvetica,sans-Serif" font-size="10.00">CogPlatform::PlayerInteraction</text>
</a>
</g>
</g>
<!-- Node4&#45;&gt;Node7 -->
<g id="edge6_Node000004_Node000007" class="edge">
<title>Node4&#45;&gt;Node7</title>
<g id="a_edge6_Node000004_Node000007"><a xlink:title=" ">
<path fill="none" stroke="#63b8ff" d="M362.76,-301.24C347.19,-302.85 330.23,-304.61 314.03,-306.28"/>
<polygon fill="#63b8ff" stroke="#63b8ff" points="362.73,-304.76 372.32,-300.25 362.01,-297.8 362.73,-304.76"/>
</a>
</g>
</g>
<!-- Node8 -->
<g id="Node000008" class="node">
<title>Node8</title>
<g id="a_Node000008"><a xlink:href="class_crumble_block.html#af211a08e47f20f7343183341611d5653" target="_top" xlink:title=" ">
<polygon fill="white" stroke="#666666" points="317,-286 160,-286 160,-266 317,-266 317,-286"/>
<text text-anchor="middle" x="238.5" y="-272.5" font-family="Helvetica,sans-Serif" font-size="10.00">CrumbleBlock::PlayerInteraction</text>
</a>
</g>
</g>
<!-- Node4&#45;&gt;Node8 -->
<g id="edge7_Node000004_Node000008" class="edge">
<title>Node4&#45;&gt;Node8</title>
<g id="a_edge7_Node000004_Node000008"><a xlink:title=" ">
<path fill="none" stroke="#63b8ff" d="M362.49,-288.73C348,-287.23 332.33,-285.61 317.18,-284.04"/>
<polygon fill="#63b8ff" stroke="#63b8ff" points="362.01,-292.2 372.32,-289.75 362.73,-285.24 362.01,-292.2"/>
</a>
</g>
</g>
<!-- Node9 -->
<g id="Node000009" class="node">
<title>Node9</title>
<g id="a_Node000009"><a xlink:href="class_dash_crystal.html#ae9d188a3998de0c2de1ee162ba5e1273" target="_top" xlink:title=" ">
<polygon fill="white" stroke="#666666" points="313.62,-248 163.38,-248 163.38,-228 313.62,-228 313.62,-248"/>
<text text-anchor="middle" x="238.5" y="-234.5" font-family="Helvetica,sans-Serif" font-size="10.00">DashCrystal::PlayerInteraction</text>
</a>
</g>
</g>
<!-- Node4&#45;&gt;Node9 -->
<g id="edge8_Node000004_Node000009" class="edge">
<title>Node4&#45;&gt;Node9</title>
<g id="a_edge8_Node000004_Node000009"><a xlink:title=" ">
<path fill="none" stroke="#63b8ff" d="M385.91,-280.5C365.9,-272.96 340.67,-263.9 317.75,-257 307.58,-253.94 296.55,-251.02 286.07,-248.43"/>
<polygon fill="#63b8ff" stroke="#63b8ff" points="384.44,-283.68 395.03,-283.97 386.93,-277.14 384.44,-283.68"/>
</a>
</g>
</g>
<!-- Node10 -->
<g id="Node000010" class="node">
<title>Node10</title>
<g id="a_Node000010"><a xlink:href="class_flying_strawberry.html#ada0a996bd7bd79f240b85762a24fd2ed" target="_top" xlink:title=" ">
<polygon fill="white" stroke="#666666" points="123.25,-222 0,-222 0,-190 123.25,-190 123.25,-222"/>
<text text-anchor="start" x="8" y="-208.5" font-family="Helvetica,sans-Serif" font-size="10.00">FlyingStrawberry::Player</text>
<text text-anchor="middle" x="61.62" y="-196.5" font-family="Helvetica,sans-Serif" font-size="10.00">Interaction</text>
</a>
</g>
</g>
<!-- Node4&#45;&gt;Node10 -->
<g id="edge9_Node000004_Node000010" class="edge">
<title>Node4&#45;&gt;Node10</title>
<g id="a_edge9_Node000004_Node000010"><a xlink:title=" ">
<path fill="none" stroke="#63b8ff" d="M415.76,-316.13C402.56,-350.91 370.91,-419.15 317.75,-447 255.35,-479.69 217.6,-486.47 159.25,-447 81.4,-394.34 66.27,-267.59 63.33,-222.37"/>
<polygon fill="#63b8ff" stroke="#63b8ff" points="419.04,-317.36 419.15,-306.76 412.46,-314.97 419.04,-317.36"/>
</a>
</g>
</g>
<!-- Node11 -->
<g id="Node000011" class="node">
<title>Node11</title>
<g id="a_Node000011"><a xlink:href="class_respawn_zone.html#a5c821db8bbdc1da0401f633af761687c" target="_top" xlink:title=" ">
<polygon fill="white" stroke="#666666" points="317.75,-172 159.25,-172 159.25,-152 317.75,-152 317.75,-172"/>
<text text-anchor="middle" x="238.5" y="-158.5" font-family="Helvetica,sans-Serif" font-size="10.00">RespawnZone::PlayerInteraction</text>
</a>
</g>
</g>
<!-- Node4&#45;&gt;Node11 -->
<g id="edge10_Node000004_Node000011" class="edge">
<title>Node4&#45;&gt;Node11</title>
<g id="a_edge10_Node000004_Node000011"><a xlink:title=" ">
<path fill="none" stroke="#63b8ff" d="M410.23,-275.12C392.61,-249.35 358.36,-204.89 317.75,-181 311.85,-177.53 305.33,-174.69 298.67,-172.37"/>
<polygon fill="#63b8ff" stroke="#63b8ff" points="407.25,-276.96 415.7,-283.34 413.08,-273.08 407.25,-276.96"/>
</a>
</g>
</g>
<!-- Node12 -->
<g id="Node000012" class="node">
<title>Node12</title>
<g id="a_Node000012"><a xlink:href="class_spike.html#a7c79520a23045ef568326c1cedc2eba9" target="_top" xlink:title=" ">
<polygon fill="white" stroke="#666666" points="298.62,-514 178.38,-514 178.38,-494 298.62,-494 298.62,-514"/>
<text text-anchor="middle" x="238.5" y="-500.5" font-family="Helvetica,sans-Serif" font-size="10.00">Spike::PlayerInteraction</text>
</a>
</g>
</g>
<!-- Node4&#45;&gt;Node12 -->
<g id="edge11_Node000004_Node000012" class="edge">
<title>Node4&#45;&gt;Node12</title>
<g id="a_edge11_Node000004_Node000012"><a xlink:title=" ">
<path fill="none" stroke="#63b8ff" d="M416.8,-316.01C404.4,-354.35 372.91,-435.8 317.75,-480 310.54,-485.78 301.95,-490.17 293.14,-493.5"/>
<polygon fill="#63b8ff" stroke="#63b8ff" points="420.09,-317.21 419.71,-306.62 413.41,-315.14 420.09,-317.21"/>
</a>
</g>
</g>
<!-- Node13 -->
<g id="Node000013" class="node">
<title>Node13</title>
<g id="a_Node000013"><a xlink:href="class_strawberry.html#a2e5468a8badbbf84cd37d12c34042061" target="_top" xlink:title=" ">
<polygon fill="white" stroke="#666666" points="309.88,-210 167.12,-210 167.12,-190 309.88,-190 309.88,-210"/>
<text text-anchor="middle" x="238.5" y="-196.5" font-family="Helvetica,sans-Serif" font-size="10.00">Strawberry::PlayerInteraction</text>
</a>
</g>
</g>
<!-- Node4&#45;&gt;Node13 -->
<g id="edge12_Node000004_Node000013" class="edge">
<title>Node4&#45;&gt;Node13</title>
<g id="a_edge12_Node000004_Node000013"><a xlink:title=" ">
<path fill="none" stroke="#63b8ff" d="M403.4,-277.22C383.31,-259.91 350.44,-234.06 317.75,-219 310.39,-215.61 302.34,-212.78 294.3,-210.43"/>
<polygon fill="#63b8ff" stroke="#63b8ff" points="400.98,-279.76 410.81,-283.73 405.61,-274.5 400.98,-279.76"/>
</a>
</g>
</g>
<!-- Node14 -->
<g id="Node000014" class="node">
<title>Node14</title>
<g id="a_Node000014"><a xlink:href="class_trampoline.html#a8c4a369bfdfba21767d45ec9f83be487" target="_top" xlink:title=" ">
<polygon fill="white" stroke="#666666" points="310.25,-438 166.75,-438 166.75,-418 310.25,-418 310.25,-438"/>
<text text-anchor="middle" x="238.5" y="-424.5" font-family="Helvetica,sans-Serif" font-size="10.00">Trampoline::PlayerInteraction</text>
</a>
</g>
</g>
<!-- Node4&#45;&gt;Node14 -->
<g id="edge14_Node000004_Node000014" class="edge">
<title>Node4&#45;&gt;Node14</title>
<g id="a_edge14_Node000004_Node000014"><a xlink:title=" ">
<path fill="none" stroke="#63b8ff" d="M410.23,-314.88C392.61,-340.65 358.36,-385.11 317.75,-409 311.85,-412.47 305.33,-415.31 298.67,-417.63"/>
<polygon fill="#63b8ff" stroke="#63b8ff" points="413.08,-316.92 415.7,-306.66 407.25,-313.04 413.08,-316.92"/>
</a>
</g>
</g>
<!-- Node15 -->
<g id="Node000015" class="node">
<title>Node15</title>
<g id="a_Node000015"><a xlink:href="namespaceutils.html#a907c18a579f4b5bac2aa39f8d64fa381" target="_top" xlink:title=" ">
<polygon fill="white" stroke="#666666" points="276.88,-134 200.12,-134 200.12,-114 276.88,-114 276.88,-134"/>
<text text-anchor="middle" x="238.5" y="-120.5" font-family="Helvetica,sans-Serif" font-size="10.00">utils::Raycast</text>
</a>
</g>
</g>
<!-- Node4&#45;&gt;Node15 -->
<g id="edge15_Node000004_Node000015" class="edge">
<title>Node4&#45;&gt;Node15</title>
<g id="a_edge15_Node000004_Node000015"><a xlink:title=" ">
<path fill="none" stroke="#63b8ff" d="M411.64,-275.07C390.12,-237.98 343.28,-160.53 317.75,-143 305.88,-134.85 290.89,-130.18 277.22,-127.51"/>
<polygon fill="#63b8ff" stroke="#63b8ff" points="408.45,-276.55 416.47,-283.47 414.52,-273.06 408.45,-276.55"/>
</a>
</g>
</g>
<!-- Node13&#45;&gt;Node10 -->
<g id="edge13_Node000013_Node000010" class="edge">
<title>Node13&#45;&gt;Node10</title>
<g id="a_edge13_Node000013_Node000010"><a xlink:title=" ">
<path fill="none" stroke="#63b8ff" d="M155.71,-202.81C144.92,-203.18 134.03,-203.55 123.67,-203.91"/>
<polygon fill="#63b8ff" stroke="#63b8ff" points="155.49,-206.32 165.36,-202.48 155.25,-199.32 155.49,-206.32"/>
</a>
</g>
</g>
<!-- Node16 -->
<g id="Node000016" class="node">
<title>Node16</title>
<g id="a_Node000016"><a xlink:href="namespaceutils.html#aa1e275621728260abad0345dfb5ed70e" target="_top" xlink:title=" ">
<polygon fill="white" stroke="#666666" points="111.62,-166 11.62,-166 11.62,-146 111.62,-146 111.62,-166"/>
<text text-anchor="middle" x="61.62" y="-152.5" font-family="Helvetica,sans-Serif" font-size="10.00">utils::IsOverlapping</text>
</a>
</g>
</g>
<!-- Node15&#45;&gt;Node16 -->
<g id="edge16_Node000015_Node000016" class="edge">
<title>Node15&#45;&gt;Node16</title>
<g id="a_edge16_Node000015_Node000016"><a xlink:title=" ">
<path fill="none" stroke="#63b8ff" d="M188.67,-132.93C164.76,-137.31 136.03,-142.57 112.04,-146.96"/>
<polygon fill="#63b8ff" stroke="#63b8ff" points="189.29,-136.38 198.5,-131.14 188.03,-129.49 189.29,-136.38"/>
</a>
</g>
</g>
<!-- Node15&#45;&gt;Node17 -->
<g id="edge17_Node000015_Node000017" class="edge">
<title>Node15&#45;&gt;Node17</title>
<g id="a_edge17_Node000015_Node000017"><a xlink:title=" ">
<path fill="none" stroke="#63b8ff" d="M188.75,-113.67C178.89,-111.16 168.66,-108.25 159.25,-105 137.12,-97.35 113.17,-86.46 94.65,-77.43"/>
<polygon fill="#63b8ff" stroke="#63b8ff" points="187.65,-117.01 198.2,-115.98 189.31,-110.21 187.65,-117.01"/>
</a>
</g>
</g>
<!-- Node18 -->
<g id="Node000018" class="node">
<title>Node18</title>
<g id="a_Node000018"><a xlink:href="namespaceutils.html#aaa39be44524c9229c357e1e9505d2667" target="_top" xlink:title=" ">
<polygon fill="white" stroke="#666666" points="100,-128 23.25,-128 23.25,-108 100,-108 100,-128"/>
<text text-anchor="middle" x="61.62" y="-114.5" font-family="Helvetica,sans-Serif" font-size="10.00">utils::Raycast</text>
</a>
</g>
</g>
<!-- Node15&#45;&gt;Node18 -->
<g id="edge18_Node000015_Node000018" class="edge">
<title>Node15&#45;&gt;Node18</title>
<g id="a_edge18_Node000015_Node000018"><a xlink:title=" ">
<path fill="none" stroke="#63b8ff" d="M188.84,-122.33C160.88,-121.37 126.28,-120.18 100.38,-119.3"/>
<polygon fill="#63b8ff" stroke="#63b8ff" points="188.36,-125.82 198.47,-122.66 188.6,-118.82 188.36,-125.82"/>
</a>
</g>
</g>
<!-- Node21 -->
<g id="Node000021" class="node">
<title>Node21</title>
<g id="a_Node000021"><a xlink:href="namespaceutils.html#a9ef86448634b099a56f145753593ab2f" target="_top" xlink:title=" ">
<polygon fill="white" stroke="#666666" points="494.25,-96 353.75,-96 353.75,-76 494.25,-76 494.25,-96"/>
<text text-anchor="middle" x="424" y="-82.5" font-family="Helvetica,sans-Serif" font-size="10.00">utils::IntersectLineSegments</text>
</a>
</g>
</g>
<!-- Node20&#45;&gt;Node21 -->
<g id="edge21_Node000020_Node000021" class="edge">
<title>Node20&#45;&gt;Node21</title>
<g id="a_edge21_Node000020_Node000021"><a xlink:title=" ">
<path fill="none" stroke="#63b8ff" d="M518.27,-86C510.36,-86 502.39,-86 494.61,-86"/>
<polygon fill="#63b8ff" stroke="#63b8ff" points="518.27,-89.5 528.27,-86 518.27,-82.5 518.27,-89.5"/>
</a>
</g>
</g>
<!-- Node21&#45;&gt;Node15 -->
<g id="edge23_Node000021_Node000015" class="edge">
<title>Node21&#45;&gt;Node15</title>
<g id="a_edge23_Node000021_Node000015"><a xlink:title=" ">
<path fill="none" stroke="#63b8ff" d="M361.13,-98.81C333.29,-104.58 301.33,-111.2 277.16,-116.2"/>
<polygon fill="#63b8ff" stroke="#63b8ff" points="361.81,-102.25 370.89,-96.79 360.39,-95.39 361.81,-102.25"/>
</a>
</g>
</g>
<!-- Node22 -->
<g id="Node000022" class="node">
<title>Node22</title>
<g id="a_Node000022"><a xlink:href="namespaceutils.html#af8fae86290b2ddb0910a33d86b470cb6" target="_top" xlink:title=" ">
<polygon fill="white" stroke="#666666" points="295.62,-96 181.38,-96 181.38,-76 295.62,-76 295.62,-96"/>
<text text-anchor="middle" x="238.5" y="-82.5" font-family="Helvetica,sans-Serif" font-size="10.00">utils::IsPointInPolygon</text>
</a>
</g>
</g>
<!-- Node21&#45;&gt;Node22 -->
<g id="edge22_Node000021_Node000022" class="edge">
<title>Node21&#45;&gt;Node22</title>
<g id="a_edge22_Node000021_Node000022"><a xlink:title=" ">
<path fill="none" stroke="#63b8ff" d="M342.13,-86C326.56,-86 310.56,-86 295.97,-86"/>
<polygon fill="#63b8ff" stroke="#63b8ff" points="341.85,-89.5 351.85,-86 341.85,-82.5 341.85,-89.5"/>
</a>
</g>
</g>
</g>
</svg>
