<?xml version="1.0" encoding="UTF-8" standalone="no"?>
<!DOCTYPE svg PUBLIC "-//W3C//DTD SVG 1.1//EN"
 "http://www.w3.org/Graphics/SVG/1.1/DTD/svg11.dtd">
<!-- Generated by graphviz version 12.2.1 (20241206.2353)
 -->
<!-- Title: Vector2f::Normalized Pages: 1 -->
<svg width="779pt" height="452pt"
 viewBox="0.00 0.00 778.75 452.00" xmlns="http://www.w3.org/2000/svg" xmlns:xlink="http://www.w3.org/1999/xlink">
<g id="graph0" class="graph" transform="scale(1 1) rotate(0) translate(4 448)">
<title>Vector2f::Normalized</title>
<!-- Node1 -->
<g id="Node000001" class="node">
<title>Node1</title>
<g id="a_Node000001"><a xlink:title=" ">
<polygon fill="#999999" stroke="#666666" points="770.75,-178 663.25,-178 663.25,-158 770.75,-158 770.75,-178"/>
<text text-anchor="middle" x="717" y="-164.5" font-family="Helvetica,sans-Serif" font-size="10.00">Vector2f::Normalized</text>
</a>
</g>
</g>
<!-- Node2 -->
<g id="Node000002" class="node">
<title>Node2</title>
<g id="a_Node000002"><a xlink:href="class_character.html#ae8854087590df625de84d5dd47ac9cd8" target="_top" xlink:title=" ">
<polygon fill="white" stroke="#666666" points="602.5,-235 514.5,-235 514.5,-215 602.5,-215 602.5,-235"/>
<text text-anchor="middle" x="558.5" y="-221.5" font-family="Helvetica,sans-Serif" font-size="10.00">Character::Dash</text>
</a>
</g>
</g>
<!-- Node1&#45;&gt;Node2 -->
<g id="edge1_Node000001_Node000002" class="edge">
<title>Node1&#45;&gt;Node2</title>
<g id="a_edge1_Node000001_Node000002"><a xlink:title=" ">
<path fill="none" stroke="#63b8ff" d="M683.77,-183.01C667.11,-190.46 646.31,-199.28 627.25,-206 618.61,-209.05 609.22,-211.94 600.25,-214.51"/>
<polygon fill="#63b8ff" stroke="#63b8ff" points="685.03,-186.28 692.69,-178.97 682.14,-179.91 685.03,-186.28"/>
</a>
</g>
</g>
<!-- Node3 -->
<g id="Node000003" class="node">
<title>Node3</title>
<g id="a_Node000003"><a xlink:href="namespaceutils.html#a760075559e6ab59c1daec763fab2b488" target="_top" xlink:title=" ">
<polygon fill="white" stroke="#666666" points="627.25,-197 489.75,-197 489.75,-177 627.25,-177 627.25,-197"/>
<text text-anchor="middle" x="558.5" y="-183.5" font-family="Helvetica,sans-Serif" font-size="10.00">utils::DistPointLineSegment</text>
</a>
</g>
</g>
<!-- Node1&#45;&gt;Node3 -->
<g id="edge2_Node000001_Node000003" class="edge">
<title>Node1&#45;&gt;Node3</title>
<g id="a_edge2_Node000001_Node000003"><a xlink:title=" ">
<path fill="none" stroke="#63b8ff" d="M651.63,-175.82C643.73,-176.77 635.64,-177.76 627.69,-178.72"/>
<polygon fill="#63b8ff" stroke="#63b8ff" points="652.01,-179.29 661.51,-174.61 651.16,-172.35 652.01,-179.29"/>
</a>
</g>
</g>
<!-- Node16 -->
<g id="Node000016" class="node">
<title>Node16</title>
<g id="a_Node000016"><a xlink:href="namespaceutils.html#a907c18a579f4b5bac2aa39f8d64fa381" target="_top" xlink:title=" ">
<polygon fill="white" stroke="#666666" points="276.88,-64 200.12,-64 200.12,-44 276.88,-44 276.88,-64"/>
<text text-anchor="middle" x="238.5" y="-50.5" font-family="Helvetica,sans-Serif" font-size="10.00">utils::Raycast</text>
</a>
</g>
</g>
<!-- Node1&#45;&gt;Node16 -->
<g id="edge21_Node000001_Node000016" class="edge">
<title>Node1&#45;&gt;Node16</title>
<g id="a_edge21_Node000001_Node000016"><a xlink:title=" ">
<path fill="none" stroke="#63b8ff" d="M651.39,-167.88C560.88,-166.59 401.99,-159.98 353.75,-130 328.3,-114.19 342.09,-90.48 317.75,-73 305.94,-64.52 290.81,-59.79 277.01,-57.17"/>
<polygon fill="#63b8ff" stroke="#63b8ff" points="651.33,-171.37 661.37,-168 651.42,-164.38 651.33,-171.37"/>
</a>
</g>
</g>
<!-- Node21 -->
<g id="Node000021" class="node">
<title>Node21</title>
<g id="a_Node000021"><a xlink:href="class_hair.html#ac5b20368fbcda3f186dc37e3f6d17be1" target="_top" xlink:title=" ">
<polygon fill="white" stroke="#666666" points="608.12,-121 508.88,-121 508.88,-101 608.12,-101 608.12,-121"/>
<text text-anchor="middle" x="558.5" y="-107.5" font-family="Helvetica,sans-Serif" font-size="10.00">Hair::SetPartOffset</text>
</a>
</g>
</g>
<!-- Node1&#45;&gt;Node21 -->
<g id="edge22_Node000001_Node000021" class="edge">
<title>Node1&#45;&gt;Node21</title>
<g id="a_edge22_Node000001_Node000021"><a xlink:title=" ">
<path fill="none" stroke="#63b8ff" d="M678.07,-153.75C662.36,-147.89 643.95,-141.06 627.25,-135 614.82,-130.49 601.06,-125.6 589.22,-121.41"/>
<polygon fill="#63b8ff" stroke="#63b8ff" points="676.45,-156.88 687.04,-157.1 678.9,-150.32 676.45,-156.88"/>
</a>
</g>
</g>
<!-- Node4 -->
<g id="Node000004" class="node">
<title>Node4</title>
<g id="a_Node000004"><a xlink:href="namespaceutils.html#aa3cf9ab3831043ef5d09bb2a1a3508df" target="_top" xlink:title=" ">
<polygon fill="white" stroke="#666666" points="453.75,-273 353.75,-273 353.75,-253 453.75,-253 453.75,-273"/>
<text text-anchor="middle" x="403.75" y="-259.5" font-family="Helvetica,sans-Serif" font-size="10.00">utils::IsOverlapping</text>
</a>
</g>
</g>
<!-- Node3&#45;&gt;Node4 -->
<g id="edge3_Node000003_Node000004" class="edge">
<title>Node3&#45;&gt;Node4</title>
<g id="a_edge3_Node000003_Node000004"><a xlink:title=" ">
<path fill="none" stroke="#63b8ff" d="M497.48,-201.86C494.81,-203.13 492.22,-204.51 489.75,-206 469.83,-218.02 473.07,-231.03 453.75,-244 448.83,-247.31 443.24,-250.16 437.65,-252.57"/>
<polygon fill="#63b8ff" stroke="#63b8ff" points="498.78,-205.11 506.67,-198.04 496.1,-198.64 498.78,-205.11"/>
</a>
</g>
</g>
<!-- Node5 -->
<g id="Node000005" class="node">
<title>Node5</title>
<g id="a_Node000005"><a xlink:href="namespaceutils.html#a11a0eb68e467a22aed74f507057c39ed" target="_top" xlink:title=" ">
<polygon fill="white" stroke="#666666" points="453.75,-235 353.75,-235 353.75,-215 453.75,-215 453.75,-235"/>
<text text-anchor="middle" x="403.75" y="-221.5" font-family="Helvetica,sans-Serif" font-size="10.00">utils::IsOverlapping</text>
</a>
</g>
</g>
<!-- Node3&#45;&gt;Node5 -->
<g id="edge4_Node000003_Node000005" class="edge">
<title>Node3&#45;&gt;Node5</title>
<g id="a_edge4_Node000003_Node000005"><a xlink:title=" ">
<path fill="none" stroke="#63b8ff" d="M504.25,-200.25C485.42,-204.93 464.52,-210.13 446.76,-214.55"/>
<polygon fill="#63b8ff" stroke="#63b8ff" points="505.03,-203.66 513.89,-197.85 503.34,-196.87 505.03,-203.66"/>
</a>
</g>
</g>
<!-- Node20 -->
<g id="Node000020" class="node">
<title>Node20</title>
<g id="a_Node000020"><a xlink:href="namespaceutils.html#add1fefb9b373117ac9b359c75c7ea620" target="_top" xlink:title=" ">
<polygon fill="white" stroke="#666666" points="453.75,-197 353.75,-197 353.75,-177 453.75,-177 453.75,-197"/>
<text text-anchor="middle" x="403.75" y="-183.5" font-family="Helvetica,sans-Serif" font-size="10.00">utils::IsOverlapping</text>
</a>
</g>
</g>
<!-- Node3&#45;&gt;Node20 -->
<g id="edge20_Node000003_Node000020" class="edge">
<title>Node3&#45;&gt;Node20</title>
<g id="a_edge20_Node000003_Node000020"><a xlink:title=" ">
<path fill="none" stroke="#63b8ff" d="M478.36,-187C470.1,-187 461.89,-187 454.1,-187"/>
<polygon fill="#63b8ff" stroke="#63b8ff" points="478.1,-190.5 488.1,-187 478.1,-183.5 478.1,-190.5"/>
</a>
</g>
</g>
<!-- Node6 -->
<g id="Node000006" class="node">
<title>Node6</title>
<g id="a_Node000006"><a xlink:href="class_level.html#adf4233f98d55734b3862b4862ea83a27" target="_top" xlink:title=" ">
<polygon fill="white" stroke="#666666" points="287.75,-444 189.25,-444 189.25,-424 287.75,-424 287.75,-444"/>
<text text-anchor="middle" x="238.5" y="-430.5" font-family="Helvetica,sans-Serif" font-size="10.00">Level::DoesCollide</text>
</a>
</g>
</g>
<!-- Node5&#45;&gt;Node6 -->
<g id="edge5_Node000005_Node000006" class="edge">
<title>Node5&#45;&gt;Node6</title>
<g id="a_edge5_Node000005_Node000006"><a xlink:title=" ">
<path fill="none" stroke="#63b8ff" d="M355.48,-242.11C354.88,-242.72 354.3,-243.35 353.75,-244 303.47,-303.19 371.82,-359.25 317.75,-415 309.87,-423.13 299.14,-428.02 288.15,-430.9"/>
<polygon fill="#63b8ff" stroke="#63b8ff" points="357.32,-245.11 363.16,-236.27 353.08,-239.54 357.32,-245.11"/>
</a>
</g>
</g>
<!-- Node7 -->
<g id="Node000007" class="node">
<title>Node7</title>
<g id="a_Node000007"><a xlink:href="namespaceutils.html#a334b78639099b0610f28ab357af9da19" target="_top" xlink:title=" ">
<polygon fill="white" stroke="#666666" points="288.5,-406 188.5,-406 188.5,-386 288.5,-386 288.5,-406"/>
<text text-anchor="middle" x="238.5" y="-392.5" font-family="Helvetica,sans-Serif" font-size="10.00">utils::IsOverlapping</text>
</a>
</g>
</g>
<!-- Node5&#45;&gt;Node7 -->
<g id="edge6_Node000005_Node000007" class="edge">
<title>Node5&#45;&gt;Node7</title>
<g id="a_edge6_Node000005_Node000007"><a xlink:title=" ">
<path fill="none" stroke="#63b8ff" d="M355.93,-241.78C355.17,-242.49 354.44,-243.23 353.75,-244 312.79,-289.53 361.61,-334.27 317.75,-377 309.84,-384.71 299.36,-389.47 288.65,-392.36"/>
<polygon fill="#63b8ff" stroke="#63b8ff" points="357.72,-244.8 363.81,-236.13 353.64,-239.11 357.72,-244.8"/>
</a>
</g>
</g>
<!-- Node8 -->
<g id="Node000008" class="node">
<title>Node8</title>
<g id="a_Node000008"><a xlink:href="class_cog_platform.html#afd4a86f749690313b5bd2587f15c6ce8" target="_top" xlink:title=" ">
<polygon fill="white" stroke="#666666" points="313.62,-368 163.38,-368 163.38,-348 313.62,-348 313.62,-368"/>
<text text-anchor="middle" x="238.5" y="-354.5" font-family="Helvetica,sans-Serif" font-size="10.00">CogPlatform::PlayerInteraction</text>
</a>
</g>
</g>
<!-- Node5&#45;&gt;Node8 -->
<g id="edge7_Node000005_Node000008" class="edge">
<title>Node5&#45;&gt;Node8</title>
<g id="a_edge7_Node000005_Node000008"><a xlink:title=" ">
<path fill="none" stroke="#63b8ff" d="M356.48,-241.49C355.53,-242.29 354.62,-243.13 353.75,-244 321.95,-276.05 351.59,-309.11 317.75,-339 313.87,-342.42 309.48,-345.25 304.81,-347.59"/>
<polygon fill="#63b8ff" stroke="#63b8ff" points="358.19,-244.56 364.59,-236.12 354.32,-238.73 358.19,-244.56"/>
</a>
</g>
</g>
<!-- Node9 -->
<g id="Node000009" class="node">
<title>Node9</title>
<g id="a_Node000009"><a xlink:href="class_crumble_block.html#af211a08e47f20f7343183341611d5653" target="_top" xlink:title=" ">
<polygon fill="white" stroke="#666666" points="317,-330 160,-330 160,-310 317,-310 317,-330"/>
<text text-anchor="middle" x="238.5" y="-316.5" font-family="Helvetica,sans-Serif" font-size="10.00">CrumbleBlock::PlayerInteraction</text>
</a>
</g>
</g>
<!-- Node5&#45;&gt;Node9 -->
<g id="edge8_Node000005_Node000009" class="edge">
<title>Node5&#45;&gt;Node9</title>
<g id="a_edge8_Node000005_Node000009"><a xlink:title=" ">
<path fill="none" stroke="#63b8ff" d="M357.76,-241.01C356.37,-241.95 355.03,-242.95 353.75,-244 330.62,-263.04 342.09,-283.52 317.75,-301 312.98,-304.43 307.67,-307.24 302.12,-309.55"/>
<polygon fill="#63b8ff" stroke="#63b8ff" points="359.2,-244.21 366.17,-236.23 355.75,-238.12 359.2,-244.21"/>
</a>
</g>
</g>
<!-- Node10 -->
<g id="Node000010" class="node">
<title>Node10</title>
<g id="a_Node000010"><a xlink:href="class_dash_crystal.html#ae9d188a3998de0c2de1ee162ba5e1273" target="_top" xlink:title=" ">
<polygon fill="white" stroke="#666666" points="313.62,-292 163.38,-292 163.38,-272 313.62,-272 313.62,-292"/>
<text text-anchor="middle" x="238.5" y="-278.5" font-family="Helvetica,sans-Serif" font-size="10.00">DashCrystal::PlayerInteraction</text>
</a>
</g>
</g>
<!-- Node5&#45;&gt;Node10 -->
<g id="edge9_Node000005_Node000010" class="edge">
<title>Node5&#45;&gt;Node10</title>
<g id="a_edge9_Node000005_Node000010"><a xlink:title=" ">
<path fill="none" stroke="#63b8ff" d="M365.11,-239.59C361.27,-241.08 357.43,-242.57 353.75,-244 337.75,-250.21 333.97,-252.37 317.75,-258 304.06,-262.75 288.85,-267.53 275.52,-271.56"/>
<polygon fill="#63b8ff" stroke="#63b8ff" points="366.32,-242.88 374.38,-236 363.79,-236.35 366.32,-242.88"/>
</a>
</g>
</g>
<!-- Node11 -->
<g id="Node000011" class="node">
<title>Node11</title>
<g id="a_Node000011"><a xlink:href="class_flying_strawberry.html#ada0a996bd7bd79f240b85762a24fd2ed" target="_top" xlink:title=" ">
<polygon fill="white" stroke="#666666" points="123.25,-209 0,-209 0,-177 123.25,-177 123.25,-209"/>
<text text-anchor="start" x="8" y="-195.5" font-family="Helvetica,sans-Serif" font-size="10.00">FlyingStrawberry::Player</text>
<text text-anchor="middle" x="61.62" y="-183.5" font-family="Helvetica,sans-Serif" font-size="10.00">Interaction</text>
</a>
</g>
</g>
<!-- Node5&#45;&gt;Node11 -->
<g id="edge10_Node000005_Node000011" class="edge">
<title>Node5&#45;&gt;Node11</title>
<g id="a_edge10_Node000005_Node000011"><a xlink:title=" ">
<path fill="none" stroke="#63b8ff" d="M341.94,-230.34C292.42,-233.41 220.88,-234.94 159.25,-225 140.06,-221.9 119.52,-215.56 102.34,-209.33"/>
<polygon fill="#63b8ff" stroke="#63b8ff" points="342.16,-233.83 351.9,-229.68 341.69,-226.85 342.16,-233.83"/>
</a>
</g>
</g>
<!-- Node12 -->
<g id="Node000012" class="node">
<title>Node12</title>
<g id="a_Node000012"><a xlink:href="class_respawn_zone.html#a5c821db8bbdc1da0401f633af761687c" target="_top" xlink:title=" ">
<polygon fill="white" stroke="#666666" points="317.75,-216 159.25,-216 159.25,-196 317.75,-196 317.75,-216"/>
<text text-anchor="middle" x="238.5" y="-202.5" font-family="Helvetica,sans-Serif" font-size="10.00">RespawnZone::PlayerInteraction</text>
</a>
</g>
</g>
<!-- Node5&#45;&gt;Node12 -->
<g id="edge11_Node000005_Node000012" class="edge">
<title>Node5&#45;&gt;Node12</title>
<g id="a_edge11_Node000005_Node000012"><a xlink:title=" ">
<path fill="none" stroke="#63b8ff" d="M342.06,-217.94C334.21,-217.02 326.08,-216.08 318,-215.14"/>
<polygon fill="#63b8ff" stroke="#63b8ff" points="341.49,-221.39 351.82,-219.07 342.29,-214.44 341.49,-221.39"/>
</a>
</g>
</g>
<!-- Node13 -->
<g id="Node000013" class="node">
<title>Node13</title>
<g id="a_Node000013"><a xlink:href="class_spike.html#a7c79520a23045ef568326c1cedc2eba9" target="_top" xlink:title=" ">
<polygon fill="white" stroke="#666666" points="298.62,-178 178.38,-178 178.38,-158 298.62,-158 298.62,-178"/>
<text text-anchor="middle" x="238.5" y="-164.5" font-family="Helvetica,sans-Serif" font-size="10.00">Spike::PlayerInteraction</text>
</a>
</g>
</g>
<!-- Node5&#45;&gt;Node13 -->
<g id="edge12_Node000005_Node000013" class="edge">
<title>Node5&#45;&gt;Node13</title>
<g id="a_edge12_Node000005_Node000013"><a xlink:title=" ">
<path fill="none" stroke="#63b8ff" d="M363.6,-210.29C360.25,-208.89 356.93,-207.45 353.75,-206 337.29,-198.49 334.67,-193.41 317.75,-187 309.12,-183.73 299.74,-180.89 290.57,-178.46"/>
<polygon fill="#63b8ff" stroke="#63b8ff" points="362.29,-213.53 372.87,-214.03 364.91,-207.04 362.29,-213.53"/>
</a>
</g>
</g>
<!-- Node14 -->
<g id="Node000014" class="node">
<title>Node14</title>
<g id="a_Node000014"><a xlink:href="class_strawberry.html#a2e5468a8badbbf84cd37d12c34042061" target="_top" xlink:title=" ">
<polygon fill="white" stroke="#666666" points="309.88,-140 167.12,-140 167.12,-120 309.88,-120 309.88,-140"/>
<text text-anchor="middle" x="238.5" y="-126.5" font-family="Helvetica,sans-Serif" font-size="10.00">Strawberry::PlayerInteraction</text>
</a>
</g>
</g>
<!-- Node5&#45;&gt;Node14 -->
<g id="edge13_Node000005_Node000014" class="edge">
<title>Node5&#45;&gt;Node14</title>
<g id="a_edge13_Node000005_Node000014"><a xlink:title=" ">
<path fill="none" stroke="#63b8ff" d="M357.76,-208.99C356.37,-208.05 355.03,-207.05 353.75,-206 330.62,-186.96 342.09,-166.48 317.75,-149 312.98,-145.57 307.67,-142.76 302.12,-140.45"/>
<polygon fill="#63b8ff" stroke="#63b8ff" points="355.75,-211.88 366.17,-213.77 359.2,-205.79 355.75,-211.88"/>
</a>
</g>
</g>
<!-- Node15 -->
<g id="Node000015" class="node">
<title>Node15</title>
<g id="a_Node000015"><a xlink:href="class_trampoline.html#a8c4a369bfdfba21767d45ec9f83be487" target="_top" xlink:title=" ">
<polygon fill="white" stroke="#666666" points="310.25,-102 166.75,-102 166.75,-82 310.25,-82 310.25,-102"/>
<text text-anchor="middle" x="238.5" y="-88.5" font-family="Helvetica,sans-Serif" font-size="10.00">Trampoline::PlayerInteraction</text>
</a>
</g>
</g>
<!-- Node5&#45;&gt;Node15 -->
<g id="edge15_Node000005_Node000015" class="edge">
<title>Node5&#45;&gt;Node15</title>
<g id="a_edge15_Node000005_Node000015"><a xlink:title=" ">
<path fill="none" stroke="#63b8ff" d="M356.48,-208.51C355.53,-207.71 354.62,-206.87 353.75,-206 321.95,-173.95 351.59,-140.89 317.75,-111 313.87,-107.58 309.48,-104.75 304.81,-102.41"/>
<polygon fill="#63b8ff" stroke="#63b8ff" points="354.32,-211.27 364.59,-213.88 358.19,-205.44 354.32,-211.27"/>
</a>
</g>
</g>
<!-- Node5&#45;&gt;Node16 -->
<g id="edge16_Node000005_Node000016" class="edge">
<title>Node5&#45;&gt;Node16</title>
<g id="a_edge16_Node000005_Node000016"><a xlink:title=" ">
<path fill="none" stroke="#63b8ff" d="M355.93,-208.22C355.17,-207.51 354.44,-206.77 353.75,-206 312.79,-160.47 361.61,-115.73 317.75,-73 307.04,-62.56 291.61,-57.53 277.28,-55.21"/>
<polygon fill="#63b8ff" stroke="#63b8ff" points="353.64,-210.89 363.81,-213.87 357.72,-205.2 353.64,-210.89"/>
</a>
</g>
</g>
<!-- Node14&#45;&gt;Node11 -->
<g id="edge14_Node000014_Node000011" class="edge">
<title>Node14&#45;&gt;Node11</title>
<g id="a_edge14_Node000014_Node000011"><a xlink:title=" ">
<path fill="none" stroke="#63b8ff" d="M177.25,-143.4C171.12,-145.13 165.03,-147 159.25,-149 137.12,-156.65 113.17,-167.54 94.65,-176.57"/>
<polygon fill="#63b8ff" stroke="#63b8ff" points="178.04,-146.82 186.79,-140.85 176.22,-140.06 178.04,-146.82"/>
</a>
</g>
</g>
<!-- Node17 -->
<g id="Node000017" class="node">
<title>Node17</title>
<g id="a_Node000017"><a xlink:href="namespaceutils.html#aa1e275621728260abad0345dfb5ed70e" target="_top" xlink:title=" ">
<polygon fill="white" stroke="#666666" points="111.62,-108 11.62,-108 11.62,-88 111.62,-88 111.62,-108"/>
<text text-anchor="middle" x="61.62" y="-94.5" font-family="Helvetica,sans-Serif" font-size="10.00">utils::IsOverlapping</text>
</a>
</g>
</g>
<!-- Node16&#45;&gt;Node17 -->
<g id="edge17_Node000016_Node000017" class="edge">
<title>Node16&#45;&gt;Node17</title>
<g id="a_edge17_Node000016_Node000017"><a xlink:title=" ">
<path fill="none" stroke="#63b8ff" d="M188.52,-65.77C178.81,-68.14 168.7,-70.63 159.25,-73 140.59,-77.68 119.95,-83 102.55,-87.53"/>
<polygon fill="#63b8ff" stroke="#63b8ff" points="189.3,-69.19 198.19,-63.42 187.65,-62.38 189.3,-69.19"/>
</a>
</g>
</g>
<!-- Node18 -->
<g id="Node000018" class="node">
<title>Node18</title>
<g id="a_Node000018"><a xlink:href="class_character_controller.html#ad8b0a065cb10e6a2b1900057648ab4d9" target="_top" xlink:title=" ">
<polygon fill="white" stroke="#666666" points="112,-70 11.25,-70 11.25,-38 112,-38 112,-70"/>
<text text-anchor="start" x="19.25" y="-56.5" font-family="Helvetica,sans-Serif" font-size="10.00">CharacterController</text>
<text text-anchor="middle" x="61.62" y="-44.5" font-family="Helvetica,sans-Serif" font-size="10.00">::Move</text>
</a>
</g>
</g>
<!-- Node16&#45;&gt;Node18 -->
<g id="edge18_Node000016_Node000018" class="edge">
<title>Node16&#45;&gt;Node18</title>
<g id="a_edge18_Node000016_Node000018"><a xlink:title=" ">
<path fill="none" stroke="#63b8ff" d="M188.72,-54C164.91,-54 136.3,-54 112.36,-54"/>
<polygon fill="#63b8ff" stroke="#63b8ff" points="188.47,-57.5 198.47,-54 188.47,-50.5 188.47,-57.5"/>
</a>
</g>
</g>
<!-- Node19 -->
<g id="Node000019" class="node">
<title>Node19</title>
<g id="a_Node000019"><a xlink:href="namespaceutils.html#aaa39be44524c9229c357e1e9505d2667" target="_top" xlink:title=" ">
<polygon fill="white" stroke="#666666" points="100,-20 23.25,-20 23.25,0 100,0 100,-20"/>
<text text-anchor="middle" x="61.62" y="-6.5" font-family="Helvetica,sans-Serif" font-size="10.00">utils::Raycast</text>
</a>
</g>
</g>
<!-- Node16&#45;&gt;Node19 -->
<g id="edge19_Node000016_Node000019" class="edge">
<title>Node16&#45;&gt;Node19</title>
<g id="a_edge19_Node000016_Node000019"><a xlink:title=" ">
<path fill="none" stroke="#63b8ff" d="M188.84,-41.76C160.88,-34.72 126.28,-26.02 100.38,-19.5"/>
<polygon fill="#63b8ff" stroke="#63b8ff" points="187.97,-45.15 198.52,-44.19 189.67,-38.36 187.97,-45.15"/>
</a>
</g>
</g>
<!-- Node22 -->
<g id="Node000022" class="node">
<title>Node22</title>
<g id="a_Node000022"><a xlink:href="class_hair.html#a0b22dc1cb67f2d72c149b360f7e7f807" target="_top" xlink:title=" ">
<polygon fill="white" stroke="#666666" points="439.5,-121 368,-121 368,-101 439.5,-101 439.5,-121"/>
<text text-anchor="middle" x="403.75" y="-107.5" font-family="Helvetica,sans-Serif" font-size="10.00">Hair::Update</text>
</a>
</g>
</g>
<!-- Node21&#45;&gt;Node22 -->
<g id="edge23_Node000021_Node000022" class="edge">
<title>Node21&#45;&gt;Node22</title>
<g id="a_edge23_Node000021_Node000022"><a xlink:title=" ">
<path fill="none" stroke="#63b8ff" d="M497.49,-111C478.02,-111 457.05,-111 439.99,-111"/>
<polygon fill="#63b8ff" stroke="#63b8ff" points="497.24,-114.5 507.24,-111 497.24,-107.5 497.24,-114.5"/>
</a>
</g>
</g>
</g>
</svg>
