<?xml version="1.0" encoding="UTF-8" standalone="no"?>
<!DOCTYPE svg PUBLIC "-//W3C//DTD SVG 1.1//EN"
 "http://www.w3.org/Graphics/SVG/1.1/DTD/svg11.dtd">
<!-- Generated by graphviz version 12.2.1 (20241206.2353)
 -->
<!-- Title: Vector2f::Reflect Pages: 1 -->
<svg width="371pt" height="47pt"
 viewBox="0.00 0.00 371.00 47.00" xmlns="http://www.w3.org/2000/svg" xmlns:xlink="http://www.w3.org/1999/xlink">
<g id="graph0" class="graph" transform="scale(1 1) rotate(0) translate(4 43)">
<title>Vector2f::Reflect</title>
<!-- Node1 -->
<g id="Node000001" class="node">
<title>Node1</title>
<g id="a_Node000001"><a xlink:title=" ">
<polygon fill="#999999" stroke="#666666" points="89.5,-20 0,-20 0,0 89.5,0 89.5,-20"/>
<text text-anchor="middle" x="44.75" y="-6.5" font-family="Helvetica,sans-Serif" font-size="10.00">Vector2f::Reflect</text>
</a>
</g>
</g>
<!-- Node2 -->
<g id="Node000002" class="node">
<title>Node2</title>
<g id="a_Node000002"><a xlink:href="struct_vector2f.html#af8ceb9310d7065eb485e47b072a5b143" target="_top" xlink:title=" ">
<polygon fill="white" stroke="#666666" points="233,-39 125.5,-39 125.5,-19 233,-19 233,-39"/>
<text text-anchor="middle" x="179.25" y="-25.5" font-family="Helvetica,sans-Serif" font-size="10.00">Vector2f::DotProduct</text>
</a>
</g>
</g>
<!-- Node1&#45;&gt;Node2 -->
<g id="edge1_Node000001_Node000002" class="edge">
<title>Node1&#45;&gt;Node2</title>
<g id="a_edge1_Node000001_Node000002"><a xlink:title=" ">
<path fill="none" stroke="#63b8ff" d="M89.87,-16.33C97.55,-17.43 105.67,-18.59 113.76,-19.75"/>
<polygon fill="#63b8ff" stroke="#63b8ff" points="113.22,-23.21 123.62,-21.17 114.22,-16.28 113.22,-23.21"/>
</a>
</g>
</g>
<!-- Node3 -->
<g id="Node000003" class="node">
<title>Node3</title>
<g id="a_Node000003"><a xlink:href="struct_vector2f.html#a3db9a868c58bc809e5e09a88d65a77ec" target="_top" xlink:title=" ">
<polygon fill="white" stroke="#666666" points="363,-20 269,-20 269,0 363,0 363,-20"/>
<text text-anchor="middle" x="316" y="-6.5" font-family="Helvetica,sans-Serif" font-size="10.00">Vector2f::Vector2f</text>
</a>
</g>
</g>
<!-- Node1&#45;&gt;Node3 -->
<g id="edge4_Node000001_Node000003" class="edge">
<title>Node1&#45;&gt;Node3</title>
<g id="a_edge4_Node000001_Node000003"><a xlink:title=" ">
<path fill="none" stroke="#63b8ff" d="M89.91,-10C135.58,-10 207.12,-10 257.25,-10"/>
<polygon fill="#63b8ff" stroke="#63b8ff" points="257.04,-13.5 267.04,-10 257.04,-6.5 257.04,-13.5"/>
</a>
</g>
</g>
<!-- Node2&#45;&gt;Node3 -->
<g id="edge2_Node000002_Node000003" class="edge">
<title>Node2&#45;&gt;Node3</title>
<g id="a_edge2_Node000002_Node000003"><a xlink:title=" ">
<path fill="none" stroke="#63b8ff" d="M233.12,-21.55C241.14,-20.41 249.44,-19.24 257.55,-18.1"/>
<polygon fill="#63b8ff" stroke="#63b8ff" points="257.93,-21.58 267.34,-16.72 256.95,-14.65 257.93,-21.58"/>
</a>
</g>
</g>
<!-- Node3&#45;&gt;Node3 -->
<g id="edge3_Node000003_Node000003" class="edge">
<title>Node3&#45;&gt;Node3</title>
<g id="a_edge3_Node000003_Node000003"><a xlink:title=" ">
<path fill="none" stroke="#63b8ff" d="M294.27,-20.34C284.99,-28.98 292.23,-38 316,-38 329,-38 337.06,-35.3 340.17,-31.44"/>
<polygon fill="#63b8ff" stroke="#63b8ff" points="343.62,-30.83 338.05,-21.82 336.78,-32.34 343.62,-30.83"/>
</a>
</g>
</g>
</g>
</svg>
