<?xml version="1.0" encoding="UTF-8" standalone="no"?>
<!DOCTYPE svg PUBLIC "-//W3C//DTD SVG 1.1//EN"
 "http://www.w3.org/Graphics/SVG/1.1/DTD/svg11.dtd">
<!-- Generated by graphviz version 12.2.1 (20241206.2353)
 -->
<!-- Title: Engine/utils.h Pages: 1 -->
<svg width="130pt" height="196pt"
 viewBox="0.00 0.00 129.62 196.00" xmlns="http://www.w3.org/2000/svg" xmlns:xlink="http://www.w3.org/1999/xlink">
<g id="graph0" class="graph" transform="scale(1 1) rotate(0) translate(4 192)">
<title>Engine/utils.h</title>
<!-- Node1 -->
<g id="Node000001" class="node">
<title>Node1</title>
<g id="a_Node000001"><a xlink:title=" ">
<polygon fill="#999999" stroke="#666666" points="94.12,-188 18.88,-188 18.88,-168 94.12,-168 94.12,-188"/>
<text text-anchor="middle" x="56.5" y="-174.5" font-family="Helvetica,sans-Serif" font-size="10.00">Engine/utils.h</text>
</a>
</g>
</g>
<!-- Node2 -->
<g id="Node000002" class="node">
<title>Node2</title>
<g id="a_Node000002"><a xlink:title=" ">
<polygon fill="#e0e0e0" stroke="#999999" points="43,-132 0,-132 0,-112 43,-112 43,-132"/>
<text text-anchor="middle" x="21.5" y="-118.5" font-family="Helvetica,sans-Serif" font-size="10.00">vector</text>
</a>
</g>
</g>
<!-- Node1&#45;&gt;Node2 -->
<g id="edge1_Node000001_Node000002" class="edge">
<title>Node1&#45;&gt;Node2</title>
<g id="a_edge1_Node000001_Node000002"><a xlink:title=" ">
<path fill="none" stroke="#63b8ff" d="M50.4,-167.59C45.79,-160.47 39.29,-150.45 33.63,-141.72"/>
<polygon fill="#63b8ff" stroke="#63b8ff" points="36.73,-140.06 28.35,-133.57 30.85,-143.86 36.73,-140.06"/>
</a>
</g>
</g>
<!-- Node3 -->
<g id="Node000003" class="node">
<title>Node3</title>
<g id="a_Node000003"><a xlink:href="_vector2f_8h.html" target="_top" xlink:title=" ">
<polygon fill="white" stroke="#666666" points="121.62,-132 61.38,-132 61.38,-112 121.62,-112 121.62,-132"/>
<text text-anchor="middle" x="91.5" y="-118.5" font-family="Helvetica,sans-Serif" font-size="10.00">Vector2f.h</text>
</a>
</g>
</g>
<!-- Node1&#45;&gt;Node3 -->
<g id="edge2_Node000001_Node000003" class="edge">
<title>Node1&#45;&gt;Node3</title>
<g id="a_edge2_Node000001_Node000003"><a xlink:title=" ">
<path fill="none" stroke="#63b8ff" d="M62.6,-167.59C67.21,-160.47 73.71,-150.45 79.37,-141.72"/>
<polygon fill="#63b8ff" stroke="#63b8ff" points="82.15,-143.86 84.65,-133.57 76.27,-140.06 82.15,-143.86"/>
</a>
</g>
</g>
<!-- Node4 -->
<g id="Node000004" class="node">
<title>Node4</title>
<g id="a_Node000004"><a xlink:href="structs_8h.html" target="_top" xlink:title=" ">
<polygon fill="white" stroke="#666666" points="118.62,-76 64.38,-76 64.38,-56 118.62,-56 118.62,-76"/>
<text text-anchor="middle" x="91.5" y="-62.5" font-family="Helvetica,sans-Serif" font-size="10.00">structs.h</text>
</a>
</g>
</g>
<!-- Node3&#45;&gt;Node4 -->
<g id="edge3_Node000003_Node000004" class="edge">
<title>Node3&#45;&gt;Node4</title>
<g id="a_edge3_Node000003_Node000004"><a xlink:title=" ">
<path fill="none" stroke="#63b8ff" d="M86.23,-111.59C84.92,-105.01 84.48,-95.96 84.91,-87.73"/>
<polygon fill="#63b8ff" stroke="#63b8ff" points="88.39,-88.14 86.08,-77.8 81.44,-87.33 88.39,-88.14"/>
</a>
</g>
</g>
<!-- Node4&#45;&gt;Node3 -->
<g id="edge5_Node000004_Node000003" class="edge">
<title>Node4&#45;&gt;Node3</title>
<g id="a_edge5_Node000004_Node000003"><a xlink:title=" ">
<path fill="none" stroke="#63b8ff" d="M96.75,-76.3C98.09,-82.93 98.53,-92.11 98.08,-100.43"/>
<polygon fill="#63b8ff" stroke="#63b8ff" points="94.63,-99.75 96.94,-110.09 101.58,-100.57 94.63,-99.75"/>
</a>
</g>
</g>
<!-- Node5 -->
<g id="Node000005" class="node">
<title>Node5</title>
<g id="a_Node000005"><a xlink:title=" ">
<polygon fill="#e0e0e0" stroke="#999999" points="111.5,-20 71.5,-20 71.5,0 111.5,0 111.5,-20"/>
<text text-anchor="middle" x="91.5" y="-6.5" font-family="Helvetica,sans-Serif" font-size="10.00">string</text>
</a>
</g>
</g>
<!-- Node4&#45;&gt;Node5 -->
<g id="edge4_Node000004_Node000005" class="edge">
<title>Node4&#45;&gt;Node5</title>
<g id="a_edge4_Node000004_Node000005"><a xlink:title=" ">
<path fill="none" stroke="#63b8ff" d="M91.5,-55.59C91.5,-49.01 91.5,-39.96 91.5,-31.73"/>
<polygon fill="#63b8ff" stroke="#63b8ff" points="95,-31.81 91.5,-21.81 88,-31.81 95,-31.81"/>
</a>
</g>
</g>
</g>
</svg>
